<svg width="785" height="514" viewBox="0 0 785 514" fill="none" xmlns="http://www.w3.org/2000/svg">
<path fill-rule="evenodd" clip-rule="evenodd" d="M498.027 351.13C280.162 337.989 -150.748 442.987 53.5332 482.914C257.814 522.841 646.747 526.505 749.983 481.019C853.219 435.533 715.979 364.207 498.027 351.13Z" fill="#F4F3EA"/>
<path d="M359.633 98C365.087 -22.5 58.1983 -35.0001 55.2236 113.5V438" stroke="#313131" stroke-width="8"/>
<path fill-rule="evenodd" clip-rule="evenodd" d="M77.4197 438.2L32.9367 438C31.5466 438 30.4346 439.4 30.4346 441.2V442.3C30.4346 444 31.5466 445.5 32.9367 445.5L77.4197 445.7C78.8089 445.7 79.9214 444.3 79.9214 442.5V441.4C79.9214 439.7 78.8089 438.2 77.4197 438.2Z" fill="#313131"/>
<path fill-rule="evenodd" clip-rule="evenodd" d="M366.524 91.607C328.363 92.555 294.065 107.246 289.79 124.497L427.716 121.168C427.52 115.709 411.428 93.644 366.524 91.607Z" fill="#313131"/>
<path d="M358.255 116.896C320.089 117.935 289.413 121.495 289.737 124.847C290.06 128.2 321.26 130.075 359.426 129.036C397.591 127.998 428.267 124.438 427.944 121.085C427.62 117.733 396.419 115.857 358.255 116.896Z" fill="#E0D253"/>
<path fill-rule="evenodd" clip-rule="evenodd" d="M192.941 171.649C190.319 166.089 189.205 159.843 191.289 153.744C197.294 136.171 220.966 146.791 223.373 157.129C225.78 167.468 219.117 190.241 212.473 190.178C209.824 190.152 204.963 187.147 200.458 182.429L197.437 207.405L177.522 202.023L192.941 171.649Z" fill="#D4A181"/>
<path fill-rule="evenodd" clip-rule="evenodd" d="M200.167 172.252C196.428 176.365 192.056 179.042 188.643 178.12C182.162 176.369 179.876 166.384 182.373 156.989C182.46 156.658 182.553 156.332 182.653 156.01C174.536 158.902 166.767 166.827 157.696 164.376C145.354 161.04 147.123 134.61 164.366 139.27C176.093 142.439 181.403 145.722 185.696 149.615C187.418 147.093 189.536 145.153 191.798 144.01C192.371 143.63 193.173 143.334 194.16 143.126C194.77 142.977 195.384 142.886 195.997 142.859C199.291 142.558 203.841 142.948 208.737 144.088C209.651 144.301 210.543 144.532 211.407 144.778C212.647 140.172 217.348 137.442 221.922 138.679C226.505 139.917 229.225 144.668 227.996 149.289C226.809 153.759 222.364 156.471 217.928 155.525C215.219 155.627 211.853 155.33 208.224 154.608C208.221 156.014 208.013 157.557 207.565 159.242C207.169 160.73 206.587 162.264 205.862 163.785C205.335 162.65 204.462 161.765 203.412 161.482C200.477 160.688 197.786 162.572 197.099 165.157C196.228 168.439 197.476 171.321 200.167 172.252Z" fill="#191847"/>
<path fill-rule="evenodd" clip-rule="evenodd" d="M152.12 278.612L183.588 387.972L198.389 470.081H213.245L198.415 278.612H152.12Z" fill="#BA8B72"/>
<path fill-rule="evenodd" clip-rule="evenodd" d="M137.977 278.612C140.173 335.424 139.307 366.411 138.815 371.572C138.324 376.734 135.534 411.303 116.523 471.814H131.974C157.152 413.764 165.941 379.195 168.829 371.572C171.716 363.95 180.245 332.963 192.696 278.612H137.977Z" fill="#D4A181"/>
<path fill-rule="evenodd" clip-rule="evenodd" d="M151.444 278.612C159.629 316.243 173.787 376.312 193.915 458.818H215.644C217.249 374.133 210.422 318.396 198.598 278.612H151.444Z" fill="#AB69AC"/>
<path fill-rule="evenodd" clip-rule="evenodd" d="M137.867 278.612C140.018 335.424 134.445 391.394 117.181 459.703H140.365C165.588 402.519 183.667 346.825 196.022 278.612H137.867Z" fill="#CC89C9"/>
<path fill-rule="evenodd" clip-rule="evenodd" d="M114.321 483.077L115.173 469.215C120.165 470.687 126.417 470.109 133.93 467.482C142.007 473.252 152.177 477.193 164.436 479.303C165.371 479.464 166.001 480.359 165.841 481.302C165.83 481.363 165.816 481.424 165.801 481.484L164.622 485.676H133.93H116.026L114.321 483.077Z" fill="#191847"/>
<path fill-rule="evenodd" clip-rule="evenodd" d="M195.072 483.077L195.925 469.215C200.917 470.687 207.168 470.109 214.682 467.482C222.759 473.252 232.928 477.193 245.188 479.303C246.124 479.464 246.753 480.359 246.593 481.302C246.582 481.363 246.569 481.424 246.552 481.484L245.373 485.676H214.682H196.778L195.072 483.077Z" fill="#191847"/>
<path fill-rule="evenodd" clip-rule="evenodd" d="M213.587 229.907L245.788 218.909C251.694 213.93 257.299 210.243 262.604 207.85C264.158 207.498 266.755 207.579 263.646 211.398C260.536 215.216 257.436 219.373 258.414 220.894C259.392 222.415 262.72 221.125 263.781 223.551C264.487 225.169 258.947 226.54 247.16 227.665L222.378 243.574L213.587 229.907ZM257.185 251.771L271.333 246.919C274.358 240.295 277.132 237.185 279.657 237.589C281.749 237.026 276.846 245.203 280.645 245.094C284.444 244.985 294.565 239.865 295.868 241.502C297.796 243.923 294.68 249.751 291.746 252.404C286.261 257.362 282.21 258.671 272.595 259.618C267.567 260.113 261.916 261.893 255.637 264.956L257.185 251.771Z" fill="#D4A181"/>
<path fill-rule="evenodd" clip-rule="evenodd" d="M199.917 223.751C210.223 225.471 224.321 225.719 240.594 218.953L244.081 232.901C232.22 241.209 216.574 246.986 204.225 244.428C194.492 242.411 191.58 229.591 199.917 223.751Z" fill="#20A22D"/>
<path fill-rule="evenodd" clip-rule="evenodd" d="M210.142 246.943C220.581 251.632 239.459 251.649 266.774 246.996C270.824 261.431 272.113 271.438 270.641 277.017C246.562 284.712 226.759 286.53 211.129 284.103C209.994 293.508 207.32 302.174 202.126 309.602C191.449 324.875 148.673 301.366 132.853 301.682C128.761 268.62 149.502 259.168 153.025 239.105C156.883 217.134 180.292 186.422 182.866 186.879L206.341 191.054C204.701 208.066 207.987 227.72 210.142 246.943Z" fill="#41B11A"/>
<path fill-rule="evenodd" clip-rule="evenodd" d="M409.676 224.625C413.856 219.676 416.686 213.611 416.213 206.815C414.851 187.234 387.824 191.542 382.567 201.425C377.309 211.308 377.934 236.376 384.728 238.142C387.438 238.847 393.211 237.121 399.086 233.55L395.399 259.861H417.172L409.676 224.625Z" fill="#B28B67"/>
<path fill-rule="evenodd" clip-rule="evenodd" d="M387.473 194.908C387.972 194.608 389.016 193.974 389.544 193.745C389.669 193.69 390.545 193.06 390.569 193.067C391.232 193.293 393.152 194.126 393.317 194.846C393.342 194.901 393.368 194.952 393.392 194.996C393.664 195.495 393.914 196.007 394.152 196.524C394.675 197.66 395.126 198.847 395.556 200.025C396.396 202.319 397.125 204.667 397.795 207.02C398.478 209.415 399.057 211.838 399.706 214.243C400.639 217.704 401.833 221.079 402.76 224.539C403.352 226.748 403.68 228.982 403.525 231.256C403.523 231.283 403.522 231.31 403.52 231.338C403.519 231.349 403.517 231.36 403.516 231.372C403.491 231.721 403.453 232.072 403.402 232.423C403.359 232.723 403.314 233.025 403.268 233.326C402.421 231.624 401.775 229.749 401.089 227.968C401.022 227.794 400.958 227.618 400.896 227.442C400.675 227.081 400.449 226.723 400.221 226.366C398.783 224.114 397.34 221.871 395.961 219.578C393.481 215.455 391.025 211.244 388.085 207.458C387.216 206.34 386.329 205.239 385.471 204.112C384.983 203.47 384.508 202.818 384.048 202.154C383.72 201.68 382.291 200.025 382.809 199.031C383.073 198.523 386.179 195.687 387.473 194.908Z" fill="#2C2C2C"/>
<path fill-rule="evenodd" clip-rule="evenodd" d="M389.387 193.828C388.902 193.992 389.138 192.974 389.608 192.616C391.783 190.957 400.104 190.355 407.345 191.871C412.196 192.886 417.838 195.414 421.712 198.663C425.204 201.592 427.606 206.288 428.843 210.825C430.141 215.589 430.338 220.555 429.614 225.441C429.456 226.514 429.114 227.536 428.924 228.586C428.71 229.769 428.6 230.908 428.217 232.059C427.984 232.763 427.587 233.454 427.386 234.162C427.159 234.971 427.298 235.719 427.464 236.541C427.734 237.881 428.071 239.219 428.547 240.499C429.263 242.421 430.133 244.221 430.678 246.216C431.403 248.87 434.437 257.507 432.22 259.861H390.016C391.078 256.937 394.269 253.496 394.915 250.367C395.294 248.523 395.476 244.497 395.516 244.351C396.466 237.739 398.324 234.581 399.487 233.435C400.65 232.29 402.199 231.937 402.279 230.943C402.609 226.832 400.988 222.893 399.799 219.057C398.383 214.484 397.345 209.798 395.884 205.241C395.238 203.223 391.905 192.974 389.387 193.828Z" fill="#8991DC"/>
<path fill-rule="evenodd" clip-rule="evenodd" d="M404.184 198.557C405.775 203.65 406.117 206.368 405.775 213.327H406.557C408.014 206.76 406.716 200.578 405.165 198.557H404.184ZM425.535 211.7C422.569 218.958 421.217 223.244 412.935 229.117L413.575 229.568C421.797 224.869 424.19 219.264 426.159 212.003L425.535 211.7ZM413.35 204.315C412.002 214.616 411.61 220.5 404.592 231.769L405.339 231.999C412.56 222.188 413.706 214.18 414.047 204.371L413.35 204.315ZM421.101 234.915L420.462 234.132C411.746 236.885 412.717 242.57 401.739 248.327L402.656 248.887C412.269 244.886 414.516 236.305 421.101 234.915Z" fill="black" fill-opacity="0.2"/>
<path fill-rule="evenodd" clip-rule="evenodd" d="M458.055 374.148H387.966L378.782 487.605H483.116L458.055 374.148Z" fill="#C5CFD6"/>
<path fill-rule="evenodd" clip-rule="evenodd" d="M458.055 374.148H436.499L423.598 487.605H483.116L458.055 374.148Z" fill="black" fill-opacity="0.1"/>
<path fill-rule="evenodd" clip-rule="evenodd" d="M308.059 354.71C300.585 350.185 288.048 355.999 288.057 362.471C288.083 381.836 305.606 473.103 306.521 478.873C307.436 484.642 317.237 486.166 317.808 478.892C318.716 467.317 320.403 427.247 318.715 408.7C318.018 401.044 317.267 393.753 316.529 387.248C325.724 403.995 339.945 427.972 359.192 459.18L369.64 454.366C361.436 427.103 354.708 407.856 349.457 396.626C340.466 377.396 332.036 360.928 328.488 355.127C322.906 346.003 313.192 349.186 308.059 354.71Z" fill="#B28B67"/>
<path fill-rule="evenodd" clip-rule="evenodd" d="M368.893 439.226L333.031 353.549C324.44 339.612 300.353 356.385 303.283 364.469C309.935 382.821 343.762 442.235 345.744 447.703L368.893 439.226Z" fill="#222447"/>
<path fill-rule="evenodd" clip-rule="evenodd" d="M370.885 448.963C373.118 450.818 374.572 452.332 375.244 453.507C376.062 454.936 377.02 457.159 378.118 460.175C376.474 461.132 361.702 469.733 333.802 485.978C330.452 482.809 329.931 480.349 332.236 478.598C334.542 476.847 336.445 475.371 337.946 474.169L353.241 452.915C353.535 452.506 354.103 452.415 354.508 452.712C354.514 452.717 354.521 452.722 354.528 452.728L357.707 455.196C360.623 454.939 362.798 454.393 364.235 453.557C365.401 452.877 366.74 451.464 368.252 449.316C368.832 448.492 369.965 448.298 370.782 448.883C370.817 448.909 370.851 448.935 370.885 448.963Z" fill="#E4E4E4"/>
<path fill-rule="evenodd" clip-rule="evenodd" d="M320.102 474.248C321.118 476.981 321.625 479.025 321.625 480.382C321.625 482.032 321.353 484.439 320.807 487.605C318.909 487.605 301.853 487.605 269.637 487.605C268.307 483.171 269.075 480.778 271.939 480.424C274.804 480.071 277.185 479.752 279.079 479.467L302.863 468.774C303.321 468.568 303.857 468.775 304.061 469.237C304.065 469.245 304.068 469.253 304.071 469.261L305.6 473.001C308.252 474.249 310.408 474.873 312.066 474.873C313.413 474.873 315.273 474.324 317.647 473.226C318.558 472.805 319.635 473.209 320.053 474.127C320.071 474.167 320.087 474.207 320.102 474.248Z" fill="#E4E4E4"/>
<path fill-rule="evenodd" clip-rule="evenodd" d="M285.543 369.054C285.543 393.362 296.99 450.064 296.997 455.416L321.625 455.435C318.02 404.841 316.742 379.272 317.79 378.726C319.363 377.909 382.251 385.059 401.113 385.059C428.311 385.059 439.563 367.762 440.476 335.719H386.596C375.627 336.903 318.406 348.542 297.155 352.544C288.057 354.257 285.543 362.358 285.543 369.054Z" fill="#2B44FF"/>
<path fill-rule="evenodd" clip-rule="evenodd" d="M343.947 323.854L318.247 349.14C310.769 352.357 304.642 355.909 299.866 359.796C298.792 361.103 297.622 363.606 302.676 362.486C307.73 361.366 313.095 360.416 314.045 362.074C314.995 363.731 312.196 366.271 313.952 368.44C315.122 369.887 319.057 365.287 325.758 354.641L352.484 338.75L343.947 323.854ZM469.624 300.97L449.757 301.045C464.888 350.485 472.92 376.371 473.853 378.703C475.952 383.95 471.51 391.941 469.61 396.235C475.797 399.027 475.138 388.686 482.943 392.349C490.068 395.691 495.488 401.748 503.719 396.626C504.731 395.996 505.84 393.625 503.16 391.772C496.485 387.156 486.865 379.077 485.565 376.418C483.793 372.791 478.479 347.642 469.624 300.97Z" fill="#B28B67"/>
<path fill-rule="evenodd" clip-rule="evenodd" d="M406.277 244.525L398.432 243.168C386.073 287.226 322.575 317.257 318.677 333.727C317.248 339.767 321.558 342.82 319.332 344.66L329.529 352.188C331.255 350.156 334.94 353.873 342.636 351.273C350.331 348.673 406.277 296.693 406.277 244.525Z" fill="#2134DB"/>
<path fill-rule="evenodd" clip-rule="evenodd" d="M397.3 251.065C398.205 309.394 364.771 324.273 372.218 347.672C378.367 366.995 437.231 387.767 447.418 368.826C451.541 361.159 453.412 351.886 453.624 341.805C456.228 349.55 458.286 356.218 459.8 361.808C462.414 371.452 472.543 372.985 472.543 376.7L485.888 372.985C484.983 367.938 491.275 365.48 489.588 354.204C482.029 303.681 461.722 267.059 428.665 244.337L428.323 239.405C428.183 237.389 426.449 235.868 424.45 236.009L400.014 237.733C398.014 237.874 396.507 239.623 396.647 241.639L397.3 251.065Z" fill="#336CFF"/>
<path fill-rule="evenodd" clip-rule="evenodd" d="M599.14 144.429C596.07 155.839 592.069 181.485 596.151 185.508H621.981C621.983 185.462 621.986 185.416 621.988 185.37C631.562 184.302 639.008 176.116 639.008 166.176V147.313C639.008 136.647 630.435 128 619.859 128H618.077C608.473 128 600.52 135.131 599.14 144.429Z" fill="#191847"/>
<path fill-rule="evenodd" clip-rule="evenodd" d="M628.977 162.574C633.081 157.716 635.858 151.762 635.394 145.09C634.058 125.867 607.524 130.096 602.362 139.798C597.201 149.5 597.815 174.11 604.485 175.844C607.146 176.536 612.813 174.842 618.58 171.336L614.96 197.166H636.336L628.977 162.574Z" fill="#D4A181"/>
<path fill-rule="evenodd" clip-rule="evenodd" d="M623.198 159.327C622.214 169.996 622.608 182.18 625.543 185.073H651.372C652.812 159.855 638.904 169.621 638.904 145.878C638.036 145.023 637.217 144.178 636.406 143.448L636.435 142.75C631.963 133.516 626.288 128.898 619.411 128.898C609.098 128.898 605.842 133.739 603.07 137.848C605.143 145.02 613.187 146.084 620.335 150.555C621.176 149.865 622.251 149.451 623.421 149.451C626.126 149.451 628.32 151.663 628.32 154.391C628.32 157.12 626.126 159.332 623.421 159.332C623.347 159.332 623.273 159.33 623.198 159.327Z" fill="#191847"/>
<path fill-rule="evenodd" clip-rule="evenodd" d="M670.709 359.828C649.343 365.855 630.908 368.869 615.405 368.869C599.903 368.869 585.504 364.228 572.208 354.946C593.117 348.76 610.337 345.667 623.867 345.667C637.396 345.667 653.01 350.387 670.709 359.828Z" fill="#544B1A"/>
<path fill-rule="evenodd" clip-rule="evenodd" d="M596.909 377.556C597.115 377.244 597.289 376.904 597.426 376.536C600.283 368.919 646.029 286.744 650.587 271.72H599.082C595.618 283.143 580.022 354.826 577.826 369.128C570.901 391.688 556.643 464.75 554.823 469.812C552.908 475.136 563.682 480.683 566.553 474.137C571.121 463.721 582.007 434.901 586.852 417.304C591.397 400.806 595.096 385.964 596.909 377.556Z" fill="#BA8B72"/>
<path fill-rule="evenodd" clip-rule="evenodd" d="M639.046 387.589C659.96 392.92 736.461 402.557 741.712 404.069C747.112 405.624 751.847 394.398 745.172 391.966C734.551 388.097 705.284 379.156 687.539 375.508C673.266 372.573 660.243 370.179 651.498 368.776C652.239 344.006 655.625 284.559 653.406 271.72H607.835C609.963 284.032 627.955 373.867 631.299 382.859C632.36 386.07 635.526 387.488 639.046 387.589Z" fill="#D4A181"/>
<path fill-rule="evenodd" clip-rule="evenodd" d="M744.687 388.977C747.48 388.453 749.526 388.307 750.827 388.538C752.409 388.819 754.67 389.496 757.611 390.567C757.288 392.417 754.381 409.048 748.889 440.46C744.412 441.001 742.248 439.844 742.398 436.99C742.546 434.137 742.647 431.762 742.696 429.866L736.5 404.853C736.381 404.371 736.671 403.884 737.148 403.764C737.156 403.762 737.164 403.76 737.173 403.758L741.018 402.905C742.667 400.531 743.633 398.536 743.916 396.92C744.146 395.606 743.937 393.698 743.289 391.197C743.04 390.237 743.611 389.255 744.563 389.005C744.604 388.994 744.646 388.985 744.687 388.977Z" fill="#EACBCB"/>
<path fill-rule="evenodd" clip-rule="evenodd" d="M569.822 473.289C570.819 475.972 571.317 477.979 571.317 479.311C571.317 480.931 571.049 483.295 570.515 486.402C568.651 486.402 551.906 486.402 520.279 486.402C518.973 482.05 519.727 479.7 522.54 479.353C525.352 479.006 527.689 478.693 529.549 478.413L552.897 467.915C553.348 467.713 553.874 467.917 554.074 468.37C554.077 468.378 554.08 468.385 554.084 468.393L555.585 472.065C558.188 473.29 560.304 473.903 561.933 473.903C563.255 473.903 565.082 473.364 567.412 472.287C568.306 471.873 569.363 472.269 569.774 473.171C569.791 473.21 569.808 473.249 569.822 473.289Z" fill="#EACBCB"/>
<path fill-rule="evenodd" clip-rule="evenodd" d="M653.258 271.72C633.177 265.926 614.176 265.926 596.256 271.72C590.022 300.408 574.871 311.794 572.208 355.778C602.49 370.952 639.899 344.955 671.072 359.754C679.979 339.054 667.509 289.204 653.258 271.72Z" fill="#FF772B"/>
<path fill-rule="evenodd" clip-rule="evenodd" d="M566.864 236.069L531.698 231.232C524.663 227.286 518.191 224.614 512.283 223.217C510.62 223.168 507.975 223.778 511.915 227.091C515.856 230.404 519.854 234.069 519.152 235.837C518.45 237.605 514.785 236.947 514.178 239.666C513.773 241.479 519.721 241.774 532.02 240.55L560.554 251.959L566.864 236.069ZM677.333 244.278L657.83 244.352C679.216 292.888 690.367 318.301 691.284 320.59C693.344 325.741 688.983 333.586 687.118 337.802C693.192 340.543 692.545 330.391 700.208 333.987C707.202 337.268 712.522 343.214 720.603 338.186C721.597 337.568 722.685 335.24 720.055 333.421C713.502 328.889 704.058 320.958 702.782 318.347C701.042 314.787 692.559 290.097 677.333 244.278Z" fill="#D4A181"/>
<path fill-rule="evenodd" clip-rule="evenodd" d="M623.911 181.895L608.641 182.921C604.88 217.235 584.395 238.91 538.531 231.572L532.438 275.761C575.305 281.349 612.9 264.04 620.604 217.177C622.599 205.046 624.174 192.421 623.911 181.895Z" fill="#AFB9C5"/>
<path fill-rule="evenodd" clip-rule="evenodd" d="M631.445 177.418L608.309 182.762C608.309 222.895 595.633 248.501 589.13 278.008H651.616C652.497 288.204 653.037 298.684 653.319 309.447H700.107C689.504 252.555 667.126 208.541 632.973 177.404H631.458L631.445 177.418Z" fill="#C5CFD6"/>
<path fill-rule="evenodd" clip-rule="evenodd" d="M641.758 220.753C643.369 245.761 642.422 264.846 638.916 278.008H651.616C649.873 257.81 646.796 238.725 641.758 220.753Z" fill="black" fill-opacity="0.1"/>
</svg>
