<svg width="791" height="627" viewBox="0 0 791 627" fill="none" xmlns="http://www.w3.org/2000/svg">
<path d="M292.861 131.5C296.261 133.9 298.361 138 298.361 142.4V145.4H380.761C384.361 145.4 387.361 142.3 387.361 138.4C387.361 134.5 384.461 131.4 380.761 131.4H292.861V131.5Z" fill="#E6E6E6"/>
<path d="M299.261 108.9C299.261 105.1 302.161 101.9 305.861 101.9H333.761C337.361 101.9 340.361 105 340.361 108.9C340.361 112.8 337.461 115.9 333.761 115.9H305.861C302.261 115.8 299.261 112.7 299.261 108.9Z" fill="#E6E6E6"/>
<path d="M361.761 59.2C361.761 55.4 364.661 52.2 368.361 52.2H476.561C480.161 52.2 483.161 55.3 483.161 59.2C483.161 63.1 480.261 66.2 476.561 66.2H368.361C364.761 66.2 361.761 63 361.761 59.2Z" fill="#E6E6E6"/>
<path d="M408.861 29.6C408.861 25.8 411.761 22.6 415.461 22.6H429.361C432.961 22.6 435.961 25.7 435.961 29.6C435.961 33.5 433.061 36.6 429.361 36.6H415.461C411.861 36.5 408.861 33.4 408.861 29.6Z" fill="#E6E6E6"/>
<path d="M299.261 271.7H401.261C408.961 271.7 415.161 265.1 415.161 256.9V85.4C415.161 77.2 408.961 70.6 401.261 70.6H238.361C230.661 70.6 224.461 77.2 224.461 85.4V127.9H226.061V85.4C226.061 78.2 231.561 72.3 238.361 72.3H401.261C408.061 72.3 413.561 78.2 413.561 85.4V256.9C413.561 264.1 408.061 270 401.261 270H299.261V271.7V271.7Z" fill="#CCCCCC"/>
<path d="M414.361 169.1H488.661C496.361 169.1 502.561 162.5 502.561 154.3V14.8C502.561 6.6 496.361 0 488.661 0H356.161C348.461 0 342.261 6.6 342.261 14.8V71.5H343.861V14.8C343.861 7.6 349.361 1.7 356.161 1.7H488.661C495.461 1.7 500.961 7.6 500.961 14.8V154.3C500.961 161.5 495.461 167.4 488.661 167.4H414.361V169.1V169.1Z" fill="#CCCCCC"/>
<path d="M287.661 127.6H116.861C110.161 127.6 104.761 134.2 104.761 142.4V349.4C104.761 357.6 110.161 364.2 116.861 364.2H287.661C294.361 364.2 299.761 357.6 299.761 349.4V142.4C299.761 134.3 294.261 127.6 287.661 127.6ZM298.261 349.4C298.261 356.6 293.461 362.5 287.561 362.5H116.861C110.961 362.5 106.161 356.6 106.161 349.4V142.4C106.161 135.2 110.961 129.3 116.861 129.3H287.661C293.561 129.3 298.361 135.2 298.361 142.4V349.4H298.261Z" fill="#3F3D56"/>
<path d="M274.161 208.2H130.261C127.161 208.2 124.561 205.1 124.561 201.2C124.561 197.3 127.161 194.2 130.261 194.2H274.161C277.261 194.2 279.861 197.3 279.861 201.2C279.861 205.1 277.361 208.2 274.161 208.2Z" fill="#CCCCCC"/>
<path d="M233.261 178.6H171.261C168.161 178.6 165.561 175.5 165.561 171.6C165.561 167.7 168.161 164.6 171.261 164.6H233.261C236.361 164.6 238.961 167.7 238.961 171.6C238.961 175.5 236.361 178.6 233.261 178.6Z" fill="#314455"/>
<path d="M191.861 250H129.861C126.761 250 124.161 246.9 124.161 243C124.161 239.1 126.761 236 129.861 236H191.861C194.961 236 197.561 239.1 197.561 243C197.561 246.9 195.061 250 191.861 250Z" fill="#CCCCCC"/>
<path d="M191.861 280.5H129.861C126.761 280.5 124.161 277.4 124.161 273.5C124.161 269.6 126.761 266.5 129.861 266.5H191.861C194.961 266.5 197.561 269.6 197.561 273.5C197.561 277.4 195.061 280.5 191.861 280.5Z" fill="#CCCCCC"/>
<path d="M191.861 311H129.861C126.761 311 124.161 307.9 124.161 304C124.161 300.1 126.761 297 129.861 297H191.861C194.961 297 197.561 300.1 197.561 304C197.561 307.9 195.061 311 191.861 311Z" fill="#CCCCCC"/>
<path d="M264.561 256C271.299 256 276.761 250.18 276.761 243C276.761 235.82 271.299 230 264.561 230C257.823 230 252.361 235.82 252.361 243C252.361 250.18 257.823 256 264.561 256Z" fill="#314455"/>
<path d="M263.361 248C263.061 248 262.861 247.9 262.561 247.7L259.661 245.4C259.061 244.9 258.961 244.1 259.461 243.5C259.861 242.9 260.661 242.8 261.261 243.2L263.161 244.7L267.561 238.6C267.961 238 268.761 237.9 269.361 238.3C269.961 238.8 270.061 239.6 269.561 240.2L264.361 247.4C264.161 247.8 263.761 248 263.361 248Z" fill="white"/>
<path d="M264.561 286.5C271.299 286.5 276.761 280.68 276.761 273.5C276.761 266.32 271.299 260.5 264.561 260.5C257.823 260.5 252.361 266.32 252.361 273.5C252.361 280.68 257.823 286.5 264.561 286.5Z" fill="#314455"/>
<path d="M263.361 278.5C263.061 278.5 262.861 278.4 262.561 278.2L259.661 275.9C259.061 275.4 258.961 274.6 259.461 274C259.861 273.4 260.661 273.3 261.261 273.7L263.161 275.2L267.561 269.1C267.961 268.5 268.761 268.4 269.361 268.8C269.961 269.3 270.061 270.1 269.561 270.7L264.361 277.9C264.161 278.3 263.761 278.5 263.361 278.5Z" fill="white"/>
<path d="M264.561 317.1C271.299 317.1 276.761 311.28 276.761 304.1C276.761 296.92 271.299 291.1 264.561 291.1C257.823 291.1 252.361 296.92 252.361 304.1C252.361 311.28 257.823 317.1 264.561 317.1Z" fill="#314455"/>
<path d="M263.361 309C263.061 309 262.861 308.9 262.561 308.7L259.661 306.4C259.061 305.9 258.961 305.1 259.461 304.5C259.861 303.9 260.661 303.8 261.261 304.2L263.161 305.7L267.561 299.6C267.961 299 268.761 298.9 269.361 299.3C269.961 299.8 270.061 300.6 269.561 301.2L264.361 308.4C264.161 308.8 263.761 309 263.361 309Z" fill="white"/>
<path d="M55.1608 465.5C53.5608 461.1 55.1608 455.9 58.7608 453.9C59.1608 453.7 59.5608 453.5 59.9608 453.4L62.1608 422.4L72.5608 432.4L68.9608 460.3C69.6608 465.1 67.0608 469.7 63.1608 470.6C59.8608 471.3 56.5608 469.2 55.1608 465.5Z" fill="#FFB8B8"/>
<path d="M61.8608 450.2C60.3608 450 59.1608 448.4 59.0608 446.5L57.8608 411.3C57.4608 398.6 59.5608 386.1 63.9608 374.6L74.6608 347.3C76.0608 344 78.7608 341.7 81.8608 341.2C84.8608 340.7 87.8608 342 89.8608 344.7C90.3608 345.4 90.8608 346.1 91.2608 346.9C92.8608 350.1 93.0608 354.2 91.7608 357.6L75.4608 412.2L74.1608 447.8C74.0608 450 72.5608 451.6 70.8608 451.5C70.7608 451.5 70.6608 451.5 70.6608 451.5L61.8608 450.2Z" fill="#314455"/>
<path d="M31.2608 604L39.2608 608.3L56.6608 572.6L44.8608 566.3L31.2608 604Z" fill="#FFB8B8"/>
<path d="M30.3608 599.7L46.0608 608.2C51.5608 611.2 54.1608 619.1 51.6608 625.9L51.5608 626.3L25.7608 612.5L30.3608 599.7Z" fill="#2F2E41"/>
<path d="M138.661 615.9H147.361L151.561 574.7H138.661V615.9Z" fill="#FFB8B8"/>
<path d="M136.361 612.4H153.561C159.661 612.4 164.561 618.4 164.561 625.8V626.2H136.361V612.4Z" fill="#2F2E41"/>
<path d="M50.6608 604.2C50.3608 604.2 49.9608 604.1 49.6608 604L34.8608 598.2C33.1608 597.5 32.2608 595.4 32.7608 593.3L81.8608 402L118.661 393.2L118.761 393.5C143.061 441.9 151.161 515.8 156.361 594.2C156.461 596.3 155.261 598.2 153.461 598.4L137.261 600.4C135.661 600.6 134.261 599.4 133.861 597.5L104.261 469.2C104.061 468.5 103.561 468.1 102.961 468.3C102.661 468.4 102.361 468.7 102.261 469L53.6608 601.8C53.1608 603.2 51.9608 604.2 50.6608 604.2Z" fill="#2F2E41"/>
<path d="M100.861 325.4C110.526 325.4 118.361 315.819 118.361 304C118.361 292.181 110.526 282.6 100.861 282.6C91.1958 282.6 83.3607 292.181 83.3607 304C83.3607 315.819 91.1958 325.4 100.861 325.4Z" fill="#FFB8B8"/>
<path d="M78.7608 407.6L78.6608 407.3C78.5608 407.1 70.5608 386.2 71.2608 362C71.7608 345.6 82.6608 332.5 96.1608 332.1C108.461 331.8 119.161 342.4 121.561 357.2C123.761 371.2 123.761 384.5 121.361 396.7L121.261 397L121.061 397.1L78.7608 407.6Z" fill="#314455"/>
<path d="M167.961 437.8C164.061 437.1 161.361 432.6 161.961 427.9C162.061 427.4 162.161 426.9 162.261 426.4L142.161 407.4L154.661 402.1L171.861 421C175.561 422.8 177.261 428 175.761 432.5C174.461 436.2 171.261 438.5 167.961 437.8Z" fill="#FFB8B8"/>
<path d="M118.561 395.9L97.2607 353.7C95.7607 350.4 95.6607 346.4 96.9607 343C98.2607 339.7 100.761 337.3 103.661 336.7C104.361 336.5 105.161 336.5 105.861 336.5C108.961 336.6 111.861 338.6 113.461 341.8L142.161 388.2L165.961 408.8C167.361 410.1 167.761 412.5 166.761 414.3C166.761 414.4 166.661 414.5 166.661 414.5L161.161 422.7C160.161 424.2 158.461 424.6 157.061 423.6L118.561 395.9Z" fill="#314455"/>
<path d="M97.7608 302.6C99.0608 300 101.861 299.3 104.361 299.6C106.861 299.9 109.261 301 111.761 300.9C118.661 300.8 123.961 290.6 121.061 282.9C118.661 276.6 112.761 273.9 107.361 271.7C96.0608 267.2 83.1608 262.8 72.9608 270.2C66.3608 275.1 62.3608 284 62.6608 293.5C62.8608 299.3 64.6608 305.2 63.1608 310.7C61.3608 317 55.7608 320.4 50.4608 322.1C41.1608 325 31.3608 324.5 22.0608 327.1C12.7608 329.7 3.26077 336.5 0.660773 347.8C-1.03923 355.2 0.760773 363.2 3.56077 370.1C15.4608 398.5 43.8608 409.7 67.0608 395.3C67.8608 394.8 68.6608 394.3 69.4608 393.7C80.7608 385.6 88.8608 372 93.7608 357.2C96.5608 348.5 98.4608 339.5 99.5608 330.3C100.661 321.7 99.7608 313 97.7608 304.6C97.4608 303.9 97.5608 303.2 97.7608 302.6Z" fill="#2F2E41"/>
<path d="M451.361 339.9V120.1C451.361 114.9 455.461 110.7 460.661 110.7H631.461C636.561 110.7 640.761 114.9 640.761 120.1V340C640.761 345.2 636.661 349.4 631.461 349.4H460.661C455.561 349.3 451.361 345.1 451.361 339.9ZM460.661 112.7C456.661 112.7 453.461 116 453.461 120V339.9C453.461 343.9 456.661 347.2 460.661 347.2H631.461C635.461 347.2 638.661 343.9 638.661 339.9V120.1C638.661 116.1 635.461 112.8 631.461 112.8H460.661V112.7Z" fill="#E6E6E6"/>
<path d="M555.661 211.6V166.5C555.661 163.9 557.761 161.8 560.261 161.8H597.861C600.461 161.8 602.461 163.9 602.461 166.5V211.6C602.461 214.2 600.361 216.3 597.861 216.3H560.261C557.761 216.3 555.661 214.2 555.661 211.6Z" fill="#314455"/>
<path d="M482.561 232.6V187.5C482.561 184.9 484.661 182.8 487.161 182.8H524.761C527.361 182.8 529.361 184.9 529.361 187.5V232.6C529.361 235.2 527.261 237.3 524.761 237.3H487.161C484.661 237.3 482.561 235.2 482.561 232.6Z" fill="#CCCCCC"/>
<path d="M541.261 296.4V251.3C541.261 248.7 543.361 246.6 545.861 246.6H583.461C586.061 246.6 588.061 248.7 588.061 251.3V296.4C588.061 299 585.961 301.1 583.461 301.1H545.861C543.261 301.1 541.261 299 541.261 296.4Z" fill="#FF6584"/>
<path d="M353.861 350C357.23 350 359.961 347.314 359.961 344C359.961 340.686 357.23 338 353.861 338C350.492 338 347.761 340.686 347.761 344C347.761 347.314 350.492 350 353.861 350Z" fill="#F2F2F2"/>
<path d="M364.761 375.1C368.13 375.1 370.861 372.414 370.861 369.1C370.861 365.786 368.13 363.1 364.761 363.1C361.392 363.1 358.661 365.786 358.661 369.1C358.661 372.414 361.392 375.1 364.761 375.1Z" fill="#F2F2F2"/>
<path d="M340.261 375.1C343.63 375.1 346.361 372.414 346.361 369.1C346.361 365.786 343.63 363.1 340.261 363.1C336.892 363.1 334.161 365.786 334.161 369.1C334.161 372.414 336.892 375.1 340.261 375.1Z" fill="#F2F2F2"/>
<path d="M315.861 375.1C319.23 375.1 321.961 372.414 321.961 369.1C321.961 365.786 319.23 363.1 315.861 363.1C312.492 363.1 309.761 365.786 309.761 369.1C309.761 372.414 312.492 375.1 315.861 375.1Z" fill="#F2F2F2"/>
<path d="M291.361 375.1C294.73 375.1 297.461 372.414 297.461 369.1C297.461 365.786 294.73 363.1 291.361 363.1C287.992 363.1 285.261 365.786 285.261 369.1C285.261 372.414 287.992 375.1 291.361 375.1Z" fill="#F2F2F2"/>
<path d="M310.861 533.3V535.2C310.861 541.6 316.161 546.8 322.761 546.8H408.061C414.561 546.8 419.961 541.6 419.961 535.2V533.3C419.961 530.6 418.961 527.9 417.161 525.9C416.561 525.2 415.861 524.6 415.161 524C415.161 524 368.261 523 368.261 521.7H322.761C316.161 521.7 310.861 526.9 310.861 533.3Z" fill="#CCCCCC"/>
<path d="M372.161 546.4H359.861V624.6H372.161V546.4Z" fill="#CCCCCC"/>
<path d="M407.261 624.1C407.261 625.4 388.561 624.6 365.561 624.6C342.561 624.6 323.861 625.4 323.861 624.1C323.861 622.8 342.561 612.4 365.561 612.4C388.661 612.4 407.261 622.8 407.261 624.1Z" fill="#CCCCCC"/>
<path d="M390.361 531.7C393.761 527.3 392.761 521 388.261 517.7C387.761 517.3 387.261 517 386.761 516.8L360.661 429.4L340.761 439L372.661 521.9C370.461 527 372.961 532.9 378.161 535.1C382.461 536.9 387.561 535.5 390.361 531.7Z" fill="#A0616A"/>
<path d="M366.561 444L344.261 449.9C341.861 450.5 339.361 449.1 338.661 446.7C338.561 446.5 338.561 446.3 338.561 446.1L335.861 423.7C334.061 417.1 338.061 410.2 344.861 408.5C351.561 406.7 358.561 410.7 360.361 417.3L369.561 437.9C370.561 440.2 369.561 442.8 367.161 443.8C366.961 443.9 366.761 444 366.561 444Z" fill="#314455"/>
<path d="M396.161 614.9H407.761L413.361 585.3H396.161V614.9Z" fill="#A0616A"/>
<path d="M393.161 611.2H416.061C424.161 611.2 430.661 617.6 430.661 625.5V626H393.161V611.2Z" fill="#2F2E41"/>
<path d="M409.661 599.1C409.561 599.1 409.361 599.1 409.261 599.1L393.161 598C390.861 597.8 389.061 595.7 389.261 593.4C389.261 593 389.361 592.7 389.461 592.3L410.961 544.8C411.261 543.9 411.161 543 410.761 542.2C410.361 541.4 409.561 540.8 408.661 540.6C398.561 538 372.561 531.1 350.061 523C340.461 519.5 334.361 514.5 332.061 508.1C328.961 499.6 333.561 491.9 333.761 491.6L333.961 491.3L355.161 493.2L378.061 495.1L428.361 521.6C437.061 526.2 440.761 536.7 436.761 545.6L413.561 596.6C412.861 598.1 411.361 599.1 409.661 599.1Z" fill="#2F2E41"/>
<path d="M358.861 399.3C371.729 399.3 382.161 389.047 382.161 376.4C382.161 363.753 371.729 353.5 358.861 353.5C345.993 353.5 335.561 363.753 335.561 376.4C335.561 389.047 345.993 399.3 358.861 399.3Z" fill="#A0616A"/>
<path d="M389.561 614H401.161L406.661 584.4H389.561V614Z" fill="#A0616A"/>
<path d="M386.561 610.3H409.461C417.561 610.3 424.061 616.7 424.061 624.6V625.1H386.561V610.3Z" fill="#2F2E41"/>
<path d="M403.061 601.9C402.961 601.9 402.761 601.9 402.661 601.9L386.561 600.8C384.261 600.6 382.461 598.5 382.661 596.2C382.661 595.8 382.761 595.5 382.861 595.1L404.361 547.6C404.661 546.7 404.561 545.8 404.161 545C403.761 544.2 402.961 543.6 402.061 543.4C391.961 540.8 365.961 533.9 343.461 525.8C333.861 522.3 327.761 517.3 325.461 510.9C322.361 502.4 326.961 494.7 327.161 494.4L327.361 494.1L348.561 496L371.461 497.9L421.761 524.4C430.461 529 434.161 539.5 430.161 548.4L406.961 599.4C406.261 600.9 404.661 601.9 403.061 601.9Z" fill="#2F2E41"/>
<path d="M366.061 412.2L341.361 403.8C341.361 403.8 325.861 415.5 333.361 444.4C337.261 459.3 336.161 475.1 330.161 489.4C329.461 491.2 328.661 492.9 327.661 494.5C327.661 494.5 355.161 527.1 380.761 502.9L370.761 455.9C370.761 456 386.361 424.8 366.061 412.2Z" fill="#2F2E41"/>
<path d="M361.761 400.1C358.461 395.2 355.861 388.5 359.461 383.8C363.061 379.2 370.161 379.9 375.661 377.9C383.361 375.1 387.761 366.2 386.461 358.3C385.061 350.4 378.561 343.8 370.861 341.1C363.161 338.4 354.361 339.3 346.861 342.4C337.561 346.2 329.561 353.6 326.161 362.9C322.761 372.2 324.561 383.5 331.561 390.7C339.061 398.4 350.761 400.5 361.561 400.3" fill="#2F2E41"/>
<path d="M340.061 358.5C335.861 361.8 329.461 360.4 325.061 357.4C320.561 354.5 316.961 350.3 312.061 348C303.461 344 293.161 346.6 284.861 351.1C276.561 355.6 269.161 361.8 260.361 365.3C251.561 368.8 240.361 369 233.661 362.3C229.261 374.8 236.061 388.4 248.761 392.8C255.661 395.1 263.161 394.3 269.461 390.6C279.061 384.8 284.461 372.8 295.261 369.6C301.261 367.8 307.661 369.3 313.661 370.8C319.661 372.3 325.961 374 332.061 372.7C338.161 371.4 343.861 366 343.061 359.9L340.061 358.5Z" fill="#2F2E41"/>
<path d="M415.861 573.9C413.361 558.2 413.361 542.2 415.861 526.5C416.161 524.6 417.861 523.1 419.861 523.1H457.661C458.861 523.1 460.061 523.7 460.861 524.6C461.661 525.6 461.961 526.8 461.661 528C458.161 542.5 458.161 557.7 461.661 572.2C461.961 573.4 461.661 574.7 460.861 575.6C460.061 576.6 458.961 577.1 457.661 577.1H419.861C417.861 577.3 416.161 575.8 415.861 573.9Z" fill="#314455"/>
<path d="M446.061 546.1H426.261C424.661 546.1 423.461 544.8 423.461 543.3V542.2C423.461 540.7 424.761 539.4 426.261 539.4H446.061C447.661 539.4 448.861 540.7 448.861 542.2V543.3C448.961 544.8 447.661 546.1 446.061 546.1Z" fill="white"/>
<path d="M446.061 557.6H426.261C424.661 557.6 423.461 556.3 423.461 554.8V553.7C423.461 552.2 424.761 550.9 426.261 550.9H446.061C447.661 550.9 448.861 552.2 448.861 553.7V554.8C448.961 556.3 447.661 557.6 446.061 557.6Z" fill="white"/>
<path d="M425.861 527.6C427.961 522.5 425.461 516.7 420.261 514.6C419.661 514.4 419.161 514.2 418.561 514.1L371.061 435.9L354.261 450L406.261 522.4C405.461 527.9 409.361 533 414.961 533.8C419.561 534.4 424.061 531.9 425.861 527.6Z" fill="#A0616A"/>
<path d="M380.461 448.5L360.361 459.7C358.161 460.9 355.361 460.2 354.161 458C354.061 457.8 353.961 457.6 353.861 457.4L345.561 436.4C342.161 430.4 344.261 422.8 350.461 419.5C356.561 416.2 364.261 418.3 367.661 424.2L381.761 441.9C383.361 443.9 382.961 446.7 380.961 448.2C380.861 448.2 380.661 448.4 380.461 448.5Z" fill="#2F2E41"/>
<path d="M593.861 475.9H208.861C205.461 475.9 202.661 478.6 202.661 481.9C202.661 485.2 205.461 487.9 208.861 487.9H219.761V619.6C219.761 622.9 222.561 625.6 225.961 625.6C229.361 625.6 232.161 622.9 232.161 619.6V499.7L301.261 622.6C302.961 625.5 306.761 626.5 309.661 624.8C312.561 623.1 313.561 619.4 311.961 616.6L239.761 488.1H569.861V488.2L497.461 616.5C495.761 619.4 496.761 623.1 499.761 624.8C502.661 626.5 506.461 625.5 508.161 622.6L569.661 513.2V619.8C569.661 623.1 572.461 625.8 575.861 625.8C579.261 625.8 582.061 623.1 582.061 619.8V491.2L583.861 488H593.961C597.361 488 600.161 485.3 600.161 482C600.161 478.7 597.261 475.9 593.861 475.9Z" fill="#3F3D56"/>
<path d="M359.561 472.2H434.461C436.261 472.2 437.761 473.7 437.761 475.5C437.761 477.3 436.261 478.8 434.461 478.8H359.561C357.761 478.8 356.261 477.3 356.261 475.5C356.261 473.7 357.761 472.2 359.561 472.2Z" fill="#CCCCCC"/>
<path d="M484.761 478.7H400.361C396.961 478.7 394.161 476 394.161 472.7V427.1C394.161 423.8 396.961 421.1 400.361 421.1H484.761C488.161 421.1 490.961 423.8 490.961 427.1V472.7C490.961 476 488.161 478.7 484.761 478.7Z" fill="#CCCCCC"/>
<path d="M442.561 455.5C445.709 455.5 448.261 452.993 448.261 449.9C448.261 446.807 445.709 444.3 442.561 444.3C439.413 444.3 436.861 446.807 436.861 449.9C436.861 452.993 439.413 455.5 442.561 455.5Z" fill="white"/>
<path d="M729.961 285C733.33 285 736.061 282.314 736.061 279C736.061 275.686 733.33 273 729.961 273C726.592 273 723.861 275.686 723.861 279C723.861 282.314 726.592 285 729.961 285Z" fill="#F2F2F2"/>
<path d="M704.361 285C707.73 285 710.461 282.314 710.461 279C710.461 275.686 707.73 273 704.361 273C700.992 273 698.261 275.686 698.261 279C698.261 282.314 700.992 285 704.361 285Z" fill="#F2F2F2"/>
<path d="M703.461 420.6C701.461 415.3 704.261 409.4 709.661 407.5C710.061 407.4 710.361 407.3 710.761 407.2C711.261 407.1 711.661 407 712.161 407L735.161 367.4L729.361 357.6L743.861 346.6L754.961 361.7C757.661 365.4 757.561 370.5 754.761 374.1L723.061 413.7C723.161 414 723.261 414.3 723.361 414.7C724.661 420.2 721.261 425.7 715.661 427C715.261 427.1 714.861 427.2 714.461 427.2C714.061 427.3 713.561 427.3 713.161 427.3C708.861 427.3 704.961 424.6 703.461 420.6Z" fill="#FFB8B8"/>
<path d="M658.461 615.7H646.861L641.261 571.7H658.461V615.7Z" fill="#FFB8B8"/>
<path d="M638.561 612.4H660.961V626.3H624.461C624.361 618.6 630.761 612.4 638.561 612.4Z" fill="#2F2E41"/>
<path d="M754.261 615.7H742.661L737.061 571.7H754.261V615.7Z" fill="#FFB8B8"/>
<path d="M734.361 612.4H756.761V626.3H720.261C720.161 618.6 726.561 612.4 734.361 612.4Z" fill="#2F2E41"/>
<path d="M747.061 348.6L720.961 358.3L714.561 340.9C712.861 336.1 714.861 330.8 719.261 328.3C723.761 325.8 729.561 326.9 732.761 330.9L747.061 348.6Z" fill="#314455"/>
<path d="M659.461 580L637.561 575.1C635.161 574.6 633.561 572.3 633.961 569.9C642.761 515.3 651.161 483.3 672.961 442.6C673.261 441.8 676.661 426.5 678.861 416.3C678.761 414 680.561 412 682.861 411.6L723.661 405.4C724.261 405.2 724.961 405.1 725.561 405.1L725.961 405.2V405.6C725.961 406 725.561 406.1 725.361 406.1L724.861 406.2C725.461 406.5 726.061 406.9 726.561 407.3C744.461 428.4 753.761 497.6 765.561 574.1C765.661 575.4 765.261 576.6 764.361 577.5C763.461 578.4 762.261 579 760.961 579L734.861 579.6C732.461 579.7 730.461 578 730.061 575.7L712.461 476.1C712.161 474.1 710.261 472.7 708.161 473C706.961 473.2 705.861 473.9 705.361 475C691.161 503.3 677.961 527.8 664.961 576.7C664.461 578.7 662.561 580.2 660.461 580.2C660.161 580.1 659.761 580.1 659.461 580Z" fill="#2F2E41"/>
<path d="M680.761 417.4C679.661 416.6 678.961 415.4 678.761 414.1C675.461 383.5 677.761 359.5 685.861 340.8C688.761 334.3 694.561 329.4 701.561 327.6L722.661 326.6L722.761 326.7C732.561 331.4 738.061 341.8 736.261 352.4C729.461 370 723.761 388.2 728.161 403C728.561 404.2 728.361 405.6 727.661 406.7C727.061 407.8 725.961 408.6 724.661 408.8L684.461 418.2C683.161 418.5 681.861 418.2 680.761 417.4Z" fill="#314455"/>
<path d="M671.661 373.5L631.161 342.2C630.861 342.3 630.461 342.4 630.161 342.5C627.261 343.2 624.261 342.6 621.761 340.9C619.261 339.2 617.661 336.6 617.361 333.7C616.761 329 619.661 324.5 624.161 322.9C629.561 321 635.561 323.8 637.461 329.1C637.561 329.5 637.661 329.8 637.761 330.2C637.861 330.6 637.961 331.1 637.961 331.6L678.261 354.4L688.261 348.7L699.361 363L684.061 373.8C680.261 376.4 675.261 376.3 671.661 373.5Z" fill="#FFB8B8"/>
<path d="M704.561 367.3L681.461 351.9L692.361 336.8C695.361 332.7 700.961 331.2 705.561 333.4C710.261 335.6 712.661 340.9 711.161 345.8L704.561 367.3Z" fill="#314455"/>
<path d="M715.661 318.9C728.529 318.9 738.961 308.647 738.961 296C738.961 283.353 728.529 273.1 715.661 273.1C702.792 273.1 692.361 283.353 692.361 296C692.361 308.647 702.792 318.9 715.661 318.9Z" fill="#FFB8B8"/>
<path d="M707.061 292.6C701.061 296.6 693.261 300.8 687.061 296.5C683.061 293.7 681.761 288.5 683.361 283.9C686.261 275.7 694.361 272.1 702.061 269.3C712.061 265.7 722.961 262.8 733.261 265.4C743.561 268 752.661 277.8 750.861 288.1C749.361 296.4 741.361 303.3 742.561 311.6C743.661 320 753.261 324.4 761.761 325.9C770.261 327.4 779.761 327.9 785.861 333.9C793.661 341.5 791.661 355.2 784.361 363.2C777.061 371.3 765.961 374.9 755.261 377.4C741.061 380.7 725.761 382.4 712.261 377C698.761 371.6 688.261 356.8 692.161 343.1C693.761 337.3 697.661 332.4 701.461 327.6C705.261 322.8 709.061 317.8 710.461 311.9C711.661 307 710.761 301.3 707.461 297.6C706.361 296.2 706.161 294.3 707.061 292.6Z" fill="#2F2E41"/>
<path d="M639.861 177.4H714.161C721.861 177.4 728.061 172.9 728.061 167.3V72.2C728.061 66.6 721.861 62.1 714.161 62.1H581.761C574.061 62.1 567.861 66.6 567.861 72.2V110.9H569.461V72.2C569.461 67.3 574.961 63.3 581.761 63.3H714.261C721.061 63.3 726.561 67.3 726.561 72.2V167.3C726.561 172.2 721.061 176.2 714.261 176.2H639.961V177.4H639.861Z" fill="#CCCCCC"/>
</svg>
