<?xml version="1.0" encoding="utf-8"?>
<!-- Generator: Adobe Illustrator 25.2.1, SVG Export Plug-In . SVG Version: 6.00 Build 0)  -->
<svg version="1.1" id="Layer_1" xmlns="http://www.w3.org/2000/svg" xmlns:xlink="http://www.w3.org/1999/xlink" x="0px" y="0px"
	 viewBox="0 0 900 900" style="enable-background:new 0 0 900 900;" xml:space="preserve">
<style type="text/css">
	.st0{opacity:0.3;fill:#314455;enable-background:new    ;}
	.st1{fill:none;stroke:#3F3D56;stroke-miterlimit:10;}
	.st2{fill:#314455;}
	.st3{fill:#F2F2F2;}
	.st4{fill:#47465A;}
	.st5{opacity:0.1;enable-background:new    ;}
	.st6{fill:#B5C1CB;}
	.st7{fill:#9493B6;}
	.st8{fill:#9E5A63;}
	.st9{fill:#FBBEBE;}
	.st10{fill:#FFFFFF;}
</style>
<rect x="448.3" y="73" class="st0" width="82.6" height="31.7"/>
<rect x="585.6" y="18.9" class="st0" width="82.6" height="31.7"/>
<rect x="591.3" y="117" class="st0" width="82.6" height="31.7"/>
<rect x="326.9" y="153.3" class="st0" width="82.6" height="31.7"/>
<rect x="300.7" y="283.6" class="st0" width="82.6" height="31.7"/>
<rect x="425.5" y="280.7" class="st0" width="82.6" height="31.7"/>
<polyline class="st1" points="585.6,34.6 530.9,88 591.3,132.8 "/>
<line class="st1" x1="448.3" y1="88" x2="368.2" y2="153.3"/>
<polyline class="st1" points="342,283.6 368.2,185 466.8,280.7 "/>
<rect x="753" y="50.3" class="st0" width="82.6" height="31.7"/>
<rect x="28.2" y="51.6" class="st0" width="82.6" height="31.7"/>
<rect x="34" y="149.6" class="st0" width="82.6" height="31.7"/>
<rect x="736.3" y="198.2" class="st0" width="82.6" height="31.7"/>
<rect x="14.4" y="279.6" class="st0" width="82.6" height="31.7"/>
<rect x="139.2" y="276.6" class="st0" width="82.6" height="31.7"/>
<line class="st1" x1="672.9" y1="130.8" x2="736.3" y2="213.3"/>
<polyline class="st1" points="55.7,279.6 81.9,181 180.5,276.6 "/>
<line class="st1" x1="116.6" y1="165.4" x2="210.3" y2="165.4"/>
<rect x="168.2" y="149.2" class="st2" width="97.2" height="31.6"/>
<line class="st1" x1="265.5" y1="165" x2="326.9" y2="165"/>
<line class="st1" x1="167.7" y1="165" x2="110.9" y2="67.3"/>
<ellipse class="st3" cx="450" cy="771.2" rx="450" ry="103.2"/>
<polygon class="st4" points="658.6,431.4 614.8,657.8 605.2,657.8 604.2,656.1 601.2,651.3 639.2,439.8 644.9,437.3 "/>
<polygon class="st5" points="644.9,437.3 604.2,656.1 601.2,651.3 639.2,439.8 "/>
<polygon class="st4" points="724.7,739.8 713.4,743.6 710.7,744.5 707,736.1 644.9,444.4 651.4,442.9 665,439.8 "/>
<polygon class="st5" points="713.4,743.6 710.7,744.5 707,736.1 644.9,444.4 651.4,442.9 "/>
<polygon class="st4" points="186.8,431.4 176.8,724.9 165.5,727.6 164.7,727.7 161.5,721.7 167.8,434.2 173.9,433.3 "/>
<polygon class="st5" points="173.9,433.3 165.5,727.6 164.7,727.7 161.5,721.7 167.8,434.2 "/>
<polygon class="st4" points="246.1,828.8 234.2,830.9 233,831.1 229.3,823.2 171.8,439.8 173.6,439.3 182.3,436.5 "/>
<polygon class="st5" points="234.2,830.9 233,831.1 229.3,823.2 171.8,439.8 173.6,439.3 "/>
<path class="st6" d="M495.7,407.7l44,57.8c3.1,4,8,6.1,12.9,5.5l180.3-21.7c7.2-0.8,12.6-7.2,12.6-14.5v-43L495.7,407.7z"/>
<path class="st4" d="M643.7,417h12.2l0,0v18.1c0,2.6-2,4.6-4.5,4.6l0,0h-3.2c-2.6,0-4.5-2.1-4.5-4.6l0,0V417L643.7,417z"/>
<path class="st6" d="M171.8,444.4l44,57.8c3.1,4,8,6.1,12.9,5.5L409,486.1c7.2-0.8,12.6-7.2,12.6-14.5v-42.9L171.8,444.4z"/>
<path class="st4" d="M319.8,453.7H332l0,0v18.1c0,2.6-2,4.6-4.5,4.6l0,0h-3.2c-2.6,0-4.5-2.1-4.5-4.6l0,0V453.7L319.8,453.7z"/>
<path class="st4" d="M222.3,473.7l536.4-64.4c4.3-0.5,7.5-4.5,7-9.1c-0.3-2.7-1.9-5.1-4.3-6.3l-96-49.6
	c-18.9-9.8-40.1-13.8-61.2-11.6l-476.5,50c-5,0.5-8.7,5.2-8.1,10.3c0.2,2.1,1.1,4.1,2.6,5.6l55.5,58.7
	C189.2,469.6,205.8,475.6,222.3,473.7z"/>
<path class="st4" d="M817.7,400.6l-5.7-3.3c0,0-6.2,4.7-11.2,24.4c-5,19.7,9.4,0.2,9.4,0.2l6.3-13.5L817.7,400.6z"/>
<path class="st4" d="M756.3,581.9c0,0-5.9,28.4-8.6,36.3c-1.3,3.9-7.8,7.4-14.8,10.1c-6.3,2.4-12.9,4.2-19.5,5.3
	c-7.7,0.9-106.3-15-154.2-25.6c-32.3-7.3-36.5-15.5-35.8-20.1c0.2-1.4,0.9-2.6,1.8-3.7c0,0,47.5-33.1,64.2-48.9
	c16.8-15.8,49.8-3.3,85.9,3.3C711.4,545.1,756.3,581.9,756.3,581.9z"/>
<path class="st4" d="M811.9,397.4c0,0,22.2,15-52.5,45.6c0,0-40.6,23.6-35.3,120.6c0.2,4.3,1.5,8.6,3.8,12.3
	c7.7,13.1,24.2,46-3.3,50.1v7.5c0,0,49.8-25.6,55.2-47.5c5.4-21.9,23.5-143.5,32.5-154.7C821.5,420,827.4,402.5,811.9,397.4z"/>
<path class="st5" d="M732.9,628.3c-6.3,2.4-12.9,4.2-19.5,5.3c-7.7,0.9-106.3-15-154.2-25.6c-32.3-7.3-36.5-15.5-35.8-20.1
	c21.3,7.5,90.2,31.2,115,33.2c29.5,2.3,85.6,8.8,89.8,4.4C729.7,623.7,731.5,625.5,732.9,628.3z"/>
<path class="st4" d="M474.5,822.2l43-202.2c0,0,7.7-21.4,25.4-20.5l16.3,8.4c0,0-27.1-6.5-33,15s-43.5,199.4-43.5,199.4H474.5z"/>
<polygon class="st4" points="577.6,730 594.8,606.5 602.5,606.5 584.9,730 "/>
<path class="st4" d="M742.3,850.7L726,657.8c0,0,0-16.3,8.2-24.2s34.5-30.5,34.5-30.5s6.8-1.7,12.2,14.2c5.4,15.9,43,174.2,43,174.2
	l-7.3,3.3l-46.6-182.6l-32.1,31.2c0,0-6.3,11.7-3.2,22.3c3.2,10.6,14.9,184.9,14.9,184.9h-7.3V850.7z"/>
<polygon class="st4" points="692.1,629 732.8,641.1 741.9,632.2 718.4,629 "/>
<path class="st6" d="M330.1,288.9l6.6,102l144.3-14.4l-5.7-99.6c-0.3-5.5-4.9-9.8-10.3-9.4c-0.1,0-0.2,0-0.2,0l-125.7,10.8
	C333.7,278.7,329.8,283.4,330.1,288.9z"/>
<polygon class="st6" points="529.5,405.8 385.6,421.9 380.1,422.5 338.1,394.6 338.1,388.5 481.1,375.2 "/>
<polygon class="st5" points="385.6,421.9 380.1,422.5 338.1,394.6 338.1,389.2 "/>
<polygon class="st7" points="340,287.9 344.9,378.7 471.6,366.6 467.1,278.1 "/>
<polygon class="st5" points="415.4,403.9 430.9,414.6 477.4,410 461.6,399.7 "/>
<polygon class="st7" points="352.5,390.8 372.1,405.8 496.4,393.7 474.2,378.7 "/>
<rect x="573.3" y="253.2" class="st8" width="91.8" height="94.6"/>
<path class="st9" d="M604.9,297c0,0,13,36.1,0,42.8c-13,6.6,46.4,0,46.4,0l16.8-13.9c0,0-37.7-11.2-32.4-36.7
	C641,263.7,604.9,297,604.9,297z"/>
<path class="st5" d="M604.9,297c0,0,13,36.1,0,42.8c-13,6.6,46.4,0,46.4,0l16.8-13.9c0,0-37.7-11.2-32.4-36.7
	C641,263.7,604.9,297,604.9,297z"/>
<path class="st9" d="M498.7,659.4c0,0,48.6,70.6,40.5,90.1c-8.1,19.5-3.8,31.7-19.9,38.3c-16.2,6.6-20.6,18.9-6.4,18.3
	c14.1-0.5,32.4-4.4,35.1-9.5s9.2-28.9,18.3-32.2c9.1-3.4,26.5-16.1,14-31.7c-12.5-15.6-43.7-72.9-41.3-78.7
	C541.2,648.2,498.7,659.4,498.7,659.4z"/>
<path class="st6" d="M600.1,519.9c0,0-100.4,6.6-126.3,31.7c-25.9,25.1,22.7,118.4,28,119.5c5.3,1.2,47.5-3.4,45.9-15.6
	c-1.5-12.2-30.3-62.2-30.3-62.2s37.2-13.9,57.8-17.3c20.6-3.4,43.2-18.9,43.2-18.9L600.1,519.9z"/>
<path class="st9" d="M554.2,504.3c0,0,1.6,61.7,16.8,63.9s0-47.3,0-47.3l-0.5-18.9L554.2,504.3z"/>
<path class="st2" d="M600.1,342.6c0,0-28-8.3-33.4,13.9c-5.4,22.2-7.1,98.9-7.1,98.9l-9.7,61.2c0,0,17.8-5.6,21.6-2.7l22.7-29.5
	L600.1,342.6z"/>
<path class="st5" d="M600.1,342.6c0,0-28-8.3-33.4,13.9c-5.4,22.2-7.1,98.9-7.1,98.9l-9.7,61.2c0,0,17.8-5.6,21.6-2.7l22.7-29.5
	L600.1,342.6z"/>
<path class="st9" d="M638.5,671.2c0,0,18.8,38.2,30.2,37.6c11.4-0.6,22.1-7.8,27.5,15.1c5.4,22.9-1.1,16.6,5.4,30
	c6.5,13.4,7.6,36.7-4.9,42.2s-23.7,6.1-24.3,0c-0.6-6.1,10.8-6.1-2.1-27.8c-13-21.7-40.5-61.2-51.9-65.1
	C607,699.3,638.5,671.2,638.5,671.2z"/>
<path class="st6" d="M687.6,497.1c0,0,38.9,66.7,13.5,86.2c-25.4,19.5-100.9,56.7-100.9,56.7s40.5,28.3,42.6,37.8
	s-19.4,35.1-27,35.6c-7.6,0.5-29.7-25.6-53.5-32.2c-23.8-6.6-38.4-54.5-12.4-72.3s50.2-47.3,50.2-47.3l-7.6-42.8L687.6,497.1z"/>
<path class="st9" d="M653.8,274.7c0,23.6-23.5,43.2-46.4,43.2s-41.5-19.2-41.5-42.8s18.6-42.8,41.5-42.8
	C630.3,232.2,653.8,251,653.8,274.7z"/>
<path class="st2" d="M617.9,336.4c0,0,37.2-16.6,37.2-18.9c0-2.2,21.6,5.1,26.5,9.5c4.9,4.4,7.6,3.9,10.8,12.7
	c3.3,8.8-16.2,91.7-16.2,91.7s10.8,63.9,16.8,70S645,516.6,645,516.6s-35.6,6.6-41.5,9.5s-16.8,6.6-14.6,0s11.4-11.7-4.3-20
	c0,0,5.4-27.3,0-39.5c-5.4-12.2-30.3-56.7-10.2-88.9c20-32.2,29.1-43.9,29.1-43.9S610.4,339.8,617.9,336.4z"/>
<path class="st9" d="M629.8,488.2c0,0-42.1,19.3-54.8,21c-12.7,1.7-51,11.8-30,20.6c21.1,8.8,52.9-4.4,52.9-4.4l44.8-19.5
	L629.8,488.2z"/>
<path class="st5" d="M675.1,334.7c0,0,15.5-7.8,19.8,19.5c4.3,27.3,19.4,113.4,0,126.2c-19.4,12.7-64.2,33.4-64.2,33.4
	s-26.5-18.3-14-25.1s42.1-25.6,46.4-32.2c4.3-6.6,8.7-81.1,1.1-93.3C656.7,350.9,675.1,334.7,675.1,334.7z"/>
<path class="st2" d="M674.1,328.1c0,0,21.6-1.2,25.9,26.1c4.3,27.3,19.4,113.4,0,126.2c-19.4,12.7-64.2,33.4-64.2,33.4
	s-26.5-18.3-14-25.1s42.1-25.6,46.4-32.2c4.3-6.6-3.3-76.1-10.8-88.4C649.7,355.9,674.1,328.1,674.1,328.1z"/>
<path class="st8" d="M597.2,202.9c-6.6,0.9-13.7,3.5-17.1,9.4c-1.6,2.9-2.1,6.3-3.4,9.5c-3.5,8.6-11.9,13.7-18,20.5
	c-7.9,9-11.9,22.4-7.2,33.6c1.8,4.3,4.7,8,7,12.1c6.2,11.4,6.5,25.2,6.7,38.2l0.3,25.7c0.1,3.9,0.1,7.9-1,11.7
	c-1.1,3.8-3.7,7.3-7.4,8.4c8.3,2.9,17.4-0.3,22.2-7.8c1,6.6-1.2,13.3-5.9,17.8c9.9-2.4,18.2-9.8,23.4-18.7c5.2-9,7.7-19.4,8.7-29.8
	c0.6-5.5,0.8-11.2-0.9-16.4c-1.2-3.7-3.3-7.1-5.2-10.3c-5.1-8.6-9.6-17.7-11.2-27.6c-1.6-9.9,0-20.7,6.2-28.5
	c4.9-6,12.2-9.5,19.7-9.4c7.7,0.3,14.6,4.6,18.3,11.6c1.4,2.8,3.5,6.6,6.4,5.6c0.5-0.2,1-0.5,1.5-0.8c3.3-1.6,7,1.5,8.4,4.8
	c4.5,10.6-3.8,22.3-4.7,33.9c-0.8,10.8,5,21,12.1,29.1c12.1,13.9,27.8,23.9,45.4,28.6c-2.6-0.6-4.9-2.1-6.5-4.2
	c7.2,0.3,14.2-0.3,21.3-1.8c-7.6-5.9-15.2-11.8-21.6-19.2c-6.3-7.4-11.4-16.1-12.7-25.8c-1.8-13,2.9-27.1-2.6-39
	c-4.9-10.8-17.1-17-21.6-28.1c-4.5-11.3-7.5-21.1-19.4-26C625.4,204.7,611.3,200.9,597.2,202.9z"/>
<path class="st2" d="M96.1,116.7c0,11.8-20.9,38.1-20.9,38.1s-20.9-26.3-20.9-38.1s9.3-21.4,20.9-21.4
	C86.8,95.4,96.1,104.9,96.1,116.7z"/>
<path class="st10" d="M84.8,115.8c0,5.4-4.3,9.8-9.5,9.8c-5.2,0-9.5-4.4-9.5-9.8c0-5.4,4.3-9.8,9.5-9.8
	C80.5,106,84.8,110.4,84.8,115.8C84.8,115.7,84.8,115.8,84.8,115.8z"/>
<ellipse class="st2" cx="75.3" cy="164.5" rx="5.6" ry="5.8"/>
<path class="st2" d="M798.5,161.5c0,11.8-20.9,38.1-20.9,38.1s-20.9-26.3-20.9-38.1s9.3-21.4,20.9-21.4
	C789.2,140.3,798.5,149.8,798.5,161.5z"/>
<path class="st10" d="M787.3,160.7c0,5.4-4.3,9.8-9.5,9.8c-5.2,0-9.5-4.4-9.5-9.8c0-5.4,4.3-9.8,9.5-9.8
	C783,150.9,787.3,155.2,787.3,160.7C787.3,160.6,787.3,160.7,787.3,160.7z"/>
<ellipse class="st2" cx="777.6" cy="209.4" rx="5.6" ry="5.8"/>
<path class="st2" d="M656.5,79.5c0,11.8-20.9,38.1-20.9,38.1s-20.9-26.3-20.9-38.1s9.3-21.4,20.9-21.4
	C647.2,58.2,656.5,67.7,656.5,79.5z"/>
<path class="st10" d="M645.1,78.7c0,5.4-4.3,9.8-9.5,9.8s-9.5-4.4-9.5-9.8c0-5.4,4.3-9.8,9.5-9.8S645.1,73.2,645.1,78.7
	C645.1,78.6,645.1,78.6,645.1,78.7z"/>
<ellipse class="st2" cx="635.6" cy="127.3" rx="5.6" ry="5.8"/>
<path class="st2" d="M389,121.2c0,11.8-20.9,38.1-20.9,38.1s-20.9-26.3-20.9-38.1s9.3-21.4,20.9-21.4
	C379.7,99.8,389,109.4,389,121.2z"/>
<path class="st10" d="M377.8,120.3c0,5.4-4.3,9.8-9.5,9.8s-9.5-4.4-9.5-9.8c0-5.4,4.3-9.8,9.5-9.8
	C373.5,110.5,377.8,114.9,377.8,120.3L377.8,120.3z"/>
<ellipse class="st2" cx="368.2" cy="168.9" rx="5.6" ry="5.8"/>
<line class="st1" x1="672.9" y1="131.4" x2="753" y2="66.1"/>
</svg>
