<?xml version="1.0" encoding="utf-8"?>
<!-- Generator: Adobe Illustrator 25.2.1, SVG Export Plug-In . SVG Version: 6.00 Build 0)  -->
<svg version="1.1" id="Layer_1" xmlns="http://www.w3.org/2000/svg" xmlns:xlink="http://www.w3.org/1999/xlink" x="0px" y="0px"
	 viewBox="0 0 900 900" style="enable-background:new 0 0 900 900;" xml:space="preserve">
<style type="text/css">
	.st0{clip-path:url(#SVGID_2_);}
	.st1{clip-path:url(#SVGID_4_);}
	.st2{clip-path:url(#SVGID_6_);}
	.st3{clip-path:url(#SVGID_8_);}
	.st4{fill:#E8E9EB;}
	.st5{fill:#314455;}
	.st6{fill:#FFFFFF;}
	.st7{fill:#3F3D56;}
	.st8{fill:#F2F2F2;}
	.st9{fill:#9E5A63;}
	.st10{fill:#CCCCCC;}
	.st11{fill:#CBCBCB;}
	.st12{fill:#9F616A;}
	.st13{fill:#2F2E41;}
	.st14{opacity:0.1;enable-background:new    ;}
	.st15{fill:#031445;}
	.st16{fill:#D0CDE1;}
	.st17{fill:#FFB8B8;}
	.st18{opacity:0.2;enable-background:new    ;}
</style>
<g id="surface1">
	<g>
		<defs>
			<rect id="SVGID_1_" x="18.6" y="167.9" width="862.9" height="639.6"/>
		</defs>
		<clipPath id="SVGID_2_">
			<use xlink:href="#SVGID_1_"  style="overflow:visible;"/>
		</clipPath>
		<g class="st0">
			<g>
				<defs>
					<polygon id="SVGID_3_" points="1017.4,664.4 294.9,1007.5 -120.4,87 602.1,-256.1 					"/>
				</defs>
				<clipPath id="SVGID_4_">
					<use xlink:href="#SVGID_3_"  style="overflow:visible;"/>
				</clipPath>
				<g class="st1">
					<g>
						<defs>
							<polygon id="SVGID_5_" points="1017.4,664.4 294.9,1007.5 -120.4,87 602.1,-256.1 							"/>
						</defs>
						<clipPath id="SVGID_6_">
							<use xlink:href="#SVGID_5_"  style="overflow:visible;"/>
						</clipPath>
						<g class="st2">
							<g>
								<defs>
									<path id="SVGID_7_" d="M91.1,555.7c56.9,126.1,406.5,330.8,666.3,220s69.4-422.9-200.7-519.8
										C-30.8,45-48.8,245.5,91.1,555.7z"/>
								</defs>
								<clipPath id="SVGID_8_">
									<use xlink:href="#SVGID_7_"  style="overflow:visible;"/>
								</clipPath>
								<g class="st3">
									<path class="st4" d="M-322.6,193.5l1067.8-507L1219.6,738L151.8,1245L-322.6,193.5z"/>
								</g>
							</g>
						</g>
					</g>
				</g>
			</g>
		</g>
	</g>
</g>
<path class="st5" d="M571.8,629.6H376.4c-1.4,0-2.6-1.2-2.6-2.7V405.1c0-1.5,1.2-2.7,2.6-2.7h195.4c1.4,0,2.6,1.2,2.6,2.7V627
	C574.4,628.4,573.2,629.6,571.8,629.6z"/>
<path class="st5" d="M520.7,575.5H325.3c-1.4,0-2.6-1.2-2.6-2.7V351c0-1.5,1.2-2.7,2.6-2.7h195.4c1.4,0,2.6,1.2,2.6,2.7v221.8
	C523.3,574.3,522.1,575.5,520.7,575.5z"/>
<path class="st6" d="M545.7,604.5H350.3c-1.4,0-2.6-1.2-2.6-2.7V380c0-1.5,1.2-2.7,2.6-2.7h195.4c1.4,0,2.6,1.2,2.6,2.7v221.8
	C548.3,603.3,547.1,604.5,545.7,604.5z"/>
<path class="st7" d="M545.7,604.5H350.3c-1.4,0-2.6-1.2-2.6-2.7V380c0-1.5,1.2-2.7,2.6-2.7h195.4c1.4,0,2.6,1.2,2.6,2.7v221.8
	C548.3,603.3,547.1,604.5,545.7,604.5z M350.3,378.4c-0.9,0-1.5,0.7-1.5,1.6v221.8c0,0.9,0.7,1.6,1.5,1.6h195.4
	c0.9,0,1.5-0.7,1.5-1.6V380c0-0.9-0.7-1.6-1.5-1.6L350.3,378.4z"/>
<path class="st8" d="M434.6,461.9h-48.5c-1.4,0-2.6-1.2-2.6-2.7v-50c0-1.5,1.2-2.7,2.6-2.7h48.5c1.4,0,2.6,1.2,2.6,2.7v50
	C437.2,460.7,436,461.9,434.6,461.9z M386.2,407.7c-0.9,0-1.5,0.7-1.5,1.6v50c0,0.9,0.7,1.6,1.5,1.6h48.5c0.9,0,1.5-0.7,1.5-1.6v-50
	c0-0.9-0.7-1.6-1.5-1.6H386.2z"/>
<path class="st9" d="M420.7,468.1h-48.5c-1.3,0-2.3-1.1-2.3-2.4v-50c0-1.3,1-2.4,2.3-2.4h48.5c1.3,0,2.3,1.1,2.3,2.4v50
	C423,467,422,468.1,420.7,468.1z"/>
<path class="st10" d="M523.8,492.5H372.2c-1.3,0-2.3-1.1-2.3-2.4s1-2.4,2.3-2.4c0,0,0,0,0,0h151.6c1.3,0,2.3,1.1,2.3,2.4
	C526.1,491.5,525.1,492.5,523.8,492.5L523.8,492.5L523.8,492.5z"/>
<path class="st10" d="M487.2,509h-115c-1.3,0-2.3-1.1-2.3-2.4c0-1.3,1-2.4,2.3-2.4c0,0,0,0,0,0h115c1.3,0,2.3,1.1,2.3,2.4
	C489.5,507.9,488.5,509,487.2,509L487.2,509z"/>
<path class="st9" d="M523.3,431.9h-67c-1.3,0-2.3-1.1-2.3-2.4c0-1.3,1-2.4,2.3-2.4h67c1.3,0,2.3,1.1,2.3,2.4
	C525.6,430.8,524.6,431.9,523.3,431.9C523.3,431.9,523.3,431.9,523.3,431.9L523.3,431.9z"/>
<path class="st9" d="M506.6,448.4h-50.3c-1.3,0-2.3-1.1-2.3-2.4c0-1.3,1-2.4,2.3-2.4h50.3c1.3,0,2.3,1.1,2.3,2.4
	C508.9,447.3,507.8,448.4,506.6,448.4L506.6,448.4z"/>
<path class="st10" d="M523.8,525.5H372.2c-1.3,0-2.3-1.1-2.3-2.4s1-2.4,2.3-2.4h151.6c1.3,0,2.3,1.1,2.3,2.4
	C526.1,524.4,525.1,525.5,523.8,525.5C523.8,525.5,523.8,525.5,523.8,525.5L523.8,525.5z"/>
<path class="st10" d="M487.2,542h-115c-1.3,0-2.3-1.1-2.3-2.4c0-1.3,1-2.4,2.3-2.4h115c1.3,0,2.3,1.1,2.3,2.4
	C489.5,540.9,488.5,542,487.2,542C487.2,542,487.2,542,487.2,542z"/>
<path class="st10" d="M523.8,558.5H372.2c-1.3,0-2.3-1.1-2.3-2.4c0-1.3,1-2.4,2.3-2.4c0,0,0,0,0,0h151.6c1.3,0,2.3,1.1,2.3,2.4
	C526.1,557.4,525.1,558.5,523.8,558.5z"/>
<path class="st10" d="M523.8,575H372.2c-1.3,0-2.3-1.1-2.3-2.4s1-2.4,2.3-2.4h151.6c1.3,0,2.3,1.1,2.3,2.4
	C526.1,573.9,525.1,575,523.8,575z"/>
<path class="st6" d="M307,702.8c0,63.9-37.9,121.4-95.6,144.8c-2.2,0.9-4.5,1.8-6.7,2.6c-2.5,0.9-5.1,1.7-7.7,2.5
	c-1.8,0.5-3.6,1-5.4,1.5c-27.5,6.8-56.3,5.5-83.1-3.7c-2.1-0.7-4.2-1.5-6.3-2.3c-2.8-1.1-5.5-2.3-8.2-3.6c-0.2-0.1-0.4-0.2-0.6-0.3
	c-1.1-0.5-2.1-1-3.1-1.5h0c-1.4-0.7-2.9-1.5-4.3-2.2c-3.2-1.8-6.4-3.6-9.5-5.6c-1.6-1-3.2-2.1-4.8-3.2
	c-69-48.1-87.2-144.7-40.6-215.9c22-33.7,56-57.1,94.6-65.3c2.7-0.6,5.3-1.1,8.1-1.5c1.7-0.3,3.4-0.5,5.1-0.7
	c1.2-0.1,2.5-0.3,3.7-0.4h0c3.4-0.3,6.7-0.5,10.1-0.6c0.5,0,0.9,0,1.4,0c0.3,0,0.5,0,0.8,0h0c0.4,0,0.8,0,1.2,0c1.7,0,3.4,0,5.1,0.1
	c3.7,0.1,7.5,0.4,11.1,0.8c2.1,0.2,4.2,0.5,6.3,0.8c0.2,0,0.5,0.1,0.7,0.1c0.7,0.1,1.4,0.2,2.1,0.4c1.5,0.2,2.9,0.5,4.4,0.8
	c1.4,0.3,2.7,0.6,4.1,0.9c5,1.2,10,2.6,14.8,4.3c32.9,11.6,61,34.6,79.4,65.1c0.5,0.9,1,1.7,1.5,2.6c0.4,0.7,0.8,1.3,1.1,2
	c0.1,0.2,0.3,0.4,0.4,0.7c0.1,0.1,0.1,0.3,0.2,0.4c0.7,1.2,1.3,2.4,2,3.7C301,652.3,307,677.3,307,702.8z"/>
<path class="st11" d="M156.2,859.4c-16.3,0-32.6-2.7-48.1-8c-2-0.7-4.1-1.4-6.3-2.3c-2.8-1.1-5.6-2.3-8.3-3.6
	c-0.2-0.1-0.4-0.2-0.6-0.3c-1-0.5-2-1-3-1.5l-0.1-0.1c-1.4-0.7-2.9-1.5-4.3-2.2c-3.2-1.8-6.5-3.7-9.6-5.7c-1.6-1-3.2-2.1-4.8-3.2
	C1.7,784.1-16.6,686.7,30.3,615.1c22.2-33.9,56.4-57.5,95.2-65.7c2.7-0.6,5.4-1.1,8.1-1.5c1.6-0.3,3.4-0.5,5.2-0.7
	c1.2-0.1,2.5-0.3,3.7-0.4c3.4-0.3,6.8-0.5,10.2-0.6l1.7,0c0.2,0,0.4,0,0.6,0c0.4,0,0.8,0,1.2,0c1.7,0,3.5,0,5.2,0.1
	c3.8,0.1,7.5,0.4,11.2,0.8c1.9,0.2,4,0.5,6.3,0.8l1,0.2c0.6,0.1,1.2,0.2,1.9,0.3c1.3,0.2,2.7,0.5,4.4,0.8c1.4,0.3,2.7,0.6,4.1,0.9
	c5,1.2,10,2.6,14.9,4.4c33.1,11.7,61.4,34.9,79.9,65.5c0.5,0.9,1,1.7,1.5,2.6c0.4,0.6,0.8,1.3,1.1,2c0.1,0.2,0.2,0.4,0.4,0.7
	c0.1,0.1,0.1,0.2,0.2,0.3l0.1,0.1c0.6,1.2,1.3,2.4,2,3.7c39.3,76.4,11.1,171.3-63,211.8c-5.1,2.8-10.2,5.2-15.6,7.4
	c-2.2,0.9-4.4,1.8-6.8,2.6c-2.5,0.9-5.1,1.7-7.7,2.5c-1.8,0.5-3.6,1-5.5,1.5C180.2,857.9,168.2,859.4,156.2,859.4z M90.5,841.6
	L90.5,841.6l0.2,0.1c1,0.5,2.1,1,3.1,1.5c0.2,0.1,0.4,0.2,0.5,0.3c2.7,1.3,5.4,2.5,8.2,3.6c2.2,0.9,4.3,1.6,6.2,2.3
	c26.7,9.1,55.3,10.4,82.6,3.6c1.8-0.4,3.6-0.9,5.4-1.4c2.6-0.7,5.1-1.6,7.6-2.4c2.3-0.8,4.5-1.7,6.7-2.5
	c57.4-23,95.2-80.2,94.9-143.8v0c0-25.3-6-50.1-17.5-72.5c-0.7-1.3-1.3-2.5-1.9-3.6l-0.1-0.1c0-0.1-0.1-0.1-0.1-0.2l-0.1-0.1
	c-0.1-0.2-0.2-0.4-0.3-0.6c-0.4-0.7-0.7-1.3-1.1-2c-0.5-0.9-1-1.7-1.5-2.6c-18.3-30.3-46.2-53.1-78.9-64.7
	c-4.8-1.7-9.7-3.1-14.7-4.3c-1.3-0.3-2.7-0.6-4-0.9c-1.7-0.3-3-0.6-4.3-0.8c-0.6-0.1-1.2-0.2-1.8-0.3l-1-0.2
	c-2.3-0.3-4.3-0.6-6.2-0.8c-3.6-0.4-7.3-0.7-11.1-0.8c-1.7-0.1-3.4-0.1-5.1-0.1c-0.4,0-0.8,0-1.2,0c-0.2,0-0.4,0-0.6,0l-1.7,0
	c-3.4,0.1-6.8,0.3-10.1,0.6l-0.1,0c-1.2,0.1-2.4,0.2-3.6,0.4c-1.8,0.2-3.5,0.4-5.1,0.7c-2.7,0.4-5.4,0.9-8,1.5
	C44.9,568.6-7.2,650.2,9.4,733.8c7.9,39.5,30.4,74.3,62.9,96.9c1.5,1.1,3.1,2.2,4.7,3.2c3.1,2,6.2,3.9,9.4,5.6
	C87.8,840.2,89.1,840.9,90.5,841.6z"/>
<path class="st12" d="M285.3,669c-6.2,8.4-17.8,10-26,3.5c-0.9-0.7-1.7-1.4-2.4-2.3l-39.8,14.9l-14.6-22.7l56.5-20.2
	c8-6.6,19.7-5.3,26.2,3C290.5,652.1,290.5,662,285.3,669z"/>
<polygon class="st10" points="161,671.1 242.9,643.1 256.7,674.2 180.3,698.4 "/>
<path class="st13" d="M191.6,854c-27.5,6.8-56.3,5.5-83.1-3.7l1.8-17.9l1.7-16.7l25.5-40.7l8.2-13l33.7,12.6l3.4,22.3l5.5,35.6
	L191.6,854z"/>
<path class="st5" d="M211.4,847.5c-2.2,0.9-4.5,1.8-6.7,2.6c-2.5,0.9-5.1,1.7-7.7,2.5c-1.8,0.5-3.6,1-5.4,1.5
	c-27.5,6.8-56.3,5.5-83.1-3.7c-2.1-0.7-4.2-1.5-6.3-2.3c0.3,6.2,0.1,12.5-0.6,18.7c-2.9-7.3-5.5-14.7-7.7-22.2
	c-0.2-0.5-0.3-1-0.4-1.5c-0.7-2.5-1.3-5-1.9-7.3c-0.7-2.6-1.2-5.1-1.7-7.3c-1.9-8.8-2.5-14.2-2.5-14.2l19.9-42.7l4,0.5l1.7,0.2
	l10,1.2l14.5,1.7l23.5,2.8l21.8,19.2l19.5,17.2c0,0,1.6,5.7,4.2,15.2C208,834.4,209.6,840.6,211.4,847.5z"/>
<path class="st10" d="M172.8,603.9c0,0-8.5-27-28.4-27c-5,0-13,0.4-19.5,4.8c-26.3,17.7-42.3,47.8-43.5,80.2l-6.1,161.8
	c0,0,33.7,12.6,46,7.9s24.5-36.4,24.5-36.4s-3.1,42.7,9.2,41.1c12.3-1.6,58.2-4.7,59.8-11.1c1.5-6.3-23.5-142.3-23.5-142.3
	L172.8,603.9z"/>
<polygon class="st14" points="146,651.8 110,706.4 98.4,833.2 "/>
<ellipse transform="matrix(0.5649 -0.8252 0.8252 0.5649 -380.0498 514.8491)" class="st7" cx="298.2" cy="617.8" rx="2.7" ry="1"/>
<path class="st15" d="M250.9,677.2L250.9,677.2c-2.1-1.6-2.6-4.6-1.1-6.8l0,0l41-59.4c1.5-2.2,4.5-2.7,6.6-1.1l0,0L250.9,677.2
	L250.9,677.2z"/>
<path class="st13" d="M252.5,683.2l-2.4-1.7c-1.7-1.3-2.1-3.7-0.9-5.5l0,0l46.7-67.6c1-1.5,3-1.8,4.5-0.8l0,0l2.9,2.1l0,0
	L252.5,683.2L252.5,683.2L252.5,683.2z"/>
<polygon class="st16" points="291.5,619.7 294.6,615.2 295.7,616 292.6,620.5 "/>
<polygon class="st16" points="287.2,625.9 290.3,621.4 291.4,622.2 288.3,626.7 "/>
<path class="st12" d="M106.6,874.6c6-8.6,4.1-20.5-4.2-26.7c-0.9-0.7-1.8-1.2-2.8-1.7l2.3-43.6l-25.3-7.9l-2.4,61.6
	c-3.8,9.8,0.8,21,10.4,25C92.5,884.6,101.6,881.8,106.6,874.6z"/>
<path class="st10" d="M106.5,838.7H69.8L59.7,722.3l0-0.1l34.3-103.9c4.8-14.6,20.1-22.3,34.2-17.4s21.7,20.8,16.8,35.3
	c-0.5,1.6-1.2,3.1-2,4.5l-40.4,75L106.5,838.7z"/>
<path class="st6" d="M890.8,333.6c0.1,86-67.4,155.8-150.8,155.9c-83.3,0.1-151-69.6-151.1-155.6c-0.1-84.7,65.5-154,147.6-155.8
	c0.5,0,0.9,0,1.4,0c0.7,0,1.4,0,2,0c1.7,0,3.4,0,5.1,0.1c3.7,0.1,7.5,0.4,11.1,0.8c2.1,0.2,4.2,0.5,6.3,0.8c0.2,0,0.5,0.1,0.7,0.1
	c8.6,1.4,17.1,3.5,25.4,6.4C849.7,207.8,890.8,267,890.8,333.6z"/>
<path class="st11" d="M739.8,490.5c-83.7,0-151.9-70.2-151.9-156.6c-0.1-85.3,65.9-155,148.6-156.9l1.4,0c2.4,0,4.8,0,7.2,0.1
	c3.8,0.1,7.5,0.4,11.2,0.8c1.9,0.2,4,0.5,6.3,0.8l0.7,0.1c73.9,11.8,128.4,77.6,128.4,154.8v0c0.1,86.4-68,156.8-151.8,156.9
	L739.8,490.5z M740,179.1c-0.7,0-1.3,0-2,0l-1.4,0c-80.9,1.8-146.7,71.3-146.6,154.8c0.1,85.2,67.3,154.5,149.9,154.5h0.1
	c82.7-0.1,149.8-69.5,149.8-154.8v0c0.1-76.2-53.7-141-126.7-152.7l-0.7-0.1c-2.3-0.3-4.3-0.6-6.2-0.8c-3.6-0.4-7.3-0.7-11.1-0.8
	C743.4,179.1,741.7,179.1,740,179.1L740,179.1z"/>
<ellipse transform="matrix(0.551 -0.8345 0.8345 0.551 -4.7431 672.2725)" class="st7" cx="622.3" cy="340.5" rx="1" ry="2.7"/>
<path class="st5" d="M620.2,333L620.2,333c1.4-2.3,4.3-2.9,6.5-1.5l0,0l59.7,39c2.2,1.4,2.9,4.4,1.5,6.7v0l0,0L620.2,333z"/>
<path class="st13" d="M614.6,335l1.9-3.1c1-1.5,2.9-2,4.4-1l0,0l68,44.4c1.8,1.2,2.3,3.6,1.2,5.4v0l-1.6,2.5l0,0L614.6,335
	L614.6,335z"/>
<polygon class="st16" points="624,337.9 624.7,336.7 629.2,339.7 628.5,340.9 "/>
<polygon class="st16" points="630.2,342 630.9,340.8 635.5,343.8 634.8,345 "/>
<ellipse class="st17" cx="740.4" cy="150.3" rx="42.4" ry="43.8"/>
<path class="st5" d="M780.8,483.4c-34.4,9.9-71.1,7-103.7-8.4l3.3-89.9l0.2-7l0.1-2.3l0.1-3.3l0.1-2.1c0,0,0.1,0,0.4,0
	c0.7-0.1,2.3-0.2,4.6-0.3c2.7-0.2,6.2-0.4,10.4-0.5c1,0,2-0.1,3.1-0.1c21.9-0.8,56.2-1,60.7,5.8l0.6,4l0.9,6.5l1.9,13.3
	C763.5,399,784.8,442.8,780.8,483.4z"/>
<path class="st10" d="M791.6,256.8l-8.4,79.7l-15.9,36.3l-5.9,13.5l-85.4-1.1l8.8-61.4c-12.4-33.1,17.1-46.5,17.1-46.5l30.6-64.7
	c0,0,8.2-4.2,29.4-5.3c19.8-1,4.2,2.1,4.2,2.1C792,206.8,791.6,256.8,791.6,256.8z"/>
<path class="st18" d="M765.9,340.6L750,377c-5.1-9.9-9-21-9-27.6c0-18.2,17.6-8.5,17.6-8.5s-14.2-80.4-14.2-104.4
	C744.3,220.4,757.2,291.3,765.9,340.6z"/>
<path class="st13" d="M789.3,123.6c-2.8-7-7-13.2-12.5-18.1c2.2-0.8,4.1-2.4,5.2-4.5c1.6-3.3,0.8-7.5-1.5-10.5
	c-2-2.5-4.6-4.5-7.6-5.6c2.2,1,4.5,1.5,6.9,1.4c2.9-0.3,5.8-2.6,5.6-5.5c-0.2-2.8-2.8-4.6-5.2-6.1c-1.5-0.9-3.1-1.9-4.6-2.8
	c0.5-0.9,0.9-1.8,1.2-2.8c2.7-7.1,1.1-15.2-4.1-20.7c5,5.3,3.7,13.4-1.2,20.1c-0.2,0.2-0.3,0.4-0.5,0.6c-1-0.6-2-1.2-2.9-1.8
	c-2.5-1.5-5-3-7.8-3.4c-2.8-0.4-6.1,0.8-7.3,3.4c-1.2,2.8,0.2,6.4-1.5,9c-1.4,2.3-4.5,2.8-7.2,2.7c-2.7-0.1-5.5-0.5-7.9,0.7
	c-3.3,1.7-4.4,6.3-2.9,9.7c0.7,1.5,1.6,2.7,2.9,3.8c-7.1,1-14.1,3.2-21,5.4c-8.1,2.6-16.4,5.4-23.2,10.7
	c-6.8,5.3-11.9,13.6-11.3,22.4s9.1,22.5,17.5,21.1l1.3-4.1c10.4-5.1,22.8-2.8,30.8,5.7c0.1-5.5,8.2-7.3,12.3-3.7
	c4,3.6,4.8,9.7,5.1,15.2c0.3,5.5,0.6,11.5,4.1,15.6c3.4,4,9.1,5.2,14.1,4c5-1.2,9.3-4.5,12.9-8.2C792,163.2,796.2,141.4,789.3,123.6
	z"/>
<path class="st17" d="M653.9,379.9c8.3,6.2,19.9,4.2,25.8-4.3c0.6-0.9,1.2-1.9,1.7-2.9L797,375l7.7-26.1l-133.1-2.5
	c-9.5-3.9-20.4,0.8-24.2,10.7C644.2,365.3,646.9,374.8,653.9,379.9L653.9,379.9z"/>
<path class="st10" d="M766.3,205.2c0,0-26.9,2.1-26.9,26.2s24.3,109.5,24.3,109.5s-17.6-9.6-17.6,8.5c0,18.2,29.5,71,32.6,35.8
	c0,0,44.5,22.4,41.9-19.8c-2.6-42.2-30.5-131.3-30.5-131.3S787,203.6,766.3,205.2z"/>
<path class="st13" d="M187.3,551.6v-39.5c0-29.2-19.9-52.9-44.5-52.8c-24.5,0-44.4,23.7-44.4,52.8v39.5c0,3.9,2.7,7.1,6,7.1h77
	C184.6,558.7,187.3,555.5,187.3,551.6z"/>
<ellipse class="st12" cx="152" cy="519" rx="32.6" ry="38.8"/>
<path class="st13" d="M197.8,515.3c0-23.1-15.8-41.8-35.2-41.8H156c-19.4,0-35.1,18.7-35.2,41.8v0.8h14l4.8-15.9l1,15.9h7.2l2.4-8
	l0.5,8h47.1V515.3z"/>
<path class="st13" d="M155.2,563.1c1.3-2.2,1.5-5.1,0.5-7.4c-7-15.9-16.9-45.3-3.8-63.4l0.9-1.3h-37.9v67.8l34.5,7.2
	c0.3,0.1,0.7,0.1,1.1,0.1C152.3,566,154.1,565,155.2,563.1z"/>
<path class="st5" d="M374.5,518.7c4.1-2.3,8-5,11.7-7.9c3.3-2.7,6.6-5.6,8.5-9.5c1.7-3.3,1.8-7.2,0.2-10.6c-1.6-3.2-5.1-4.9-8.7-4.4
	c-3.6,0.6-6.5,3.1-7.6,6.5c-1.1,3.8-0.5,7.9,1.8,11.1c4.5,6.6,14.1,9.9,21.8,8.9c8.7-1.1,16.1-9.6,12.9-18.5c-0.7-1.8-3.2-1-3.5,0.6
	c-0.8,4.7,2.4,9.3,7.1,10.1c4.4,0.7,8.6-1.9,9.8-6.1l-3.1,0.6c5.4,5.2,13.2,7.2,20.4,5.1c1.8-0.5,3.4-1.2,5-2.2
	c1.9-1.2,4.4-1.5,6.5-2l15.5-4c2.3-0.6,1.7-4.2-0.6-3.6l-14.1,3.6c-2.3,0.6-4.7,1.2-7,1.8c-1.7,0.4-3,1.7-4.7,2.3
	c-6.2,2.5-13.3,1.2-18.2-3.4c-0.7-0.8-1.9-0.8-2.6-0.2c-0.2,0.2-0.4,0.4-0.5,0.7c-0.7,2.7-3.4,4.4-6.1,3.7c-2.7-0.7-4.3-3.3-3.7-6
	l-3.5,0.6c2.1,5.7-2.8,11.5-8.2,12.9c-6,1.5-13.2-0.5-17.9-4.5c-2.3-1.9-3.8-4.7-4-7.7c-0.2-2.8,1.4-5.3,3.9-6.4
	c2.3-1,4.9-0.1,6.1,2.2c1.1,2.5,0.9,5.4-0.5,7.8c-1.8,3.3-4.9,5.8-7.8,8.1c-3.3,2.6-6.8,5-10.4,7.1
	C370.8,516.6,372.4,519.9,374.5,518.7L374.5,518.7z"/>
</svg>
