<?xml version="1.0" encoding="utf-8"?>
<!-- Generator: Adobe Illustrator 25.2.1, SVG Export Plug-In . SVG Version: 6.00 Build 0)  -->
<svg version="1.1" id="Layer_1" xmlns="http://www.w3.org/2000/svg" xmlns:xlink="http://www.w3.org/1999/xlink" x="0px" y="0px"
	 viewBox="0 0 900 900" style="enable-background:new 0 0 900 900;" xml:space="preserve">
<style type="text/css">
	.st0{fill:#E6E6E6;}
	.st1{fill:#FFFFFF;}
	.st2{fill:#314455;}
	.st3{fill:#F2F2F2;}
	.st4{fill:#CCCCCC;}
	.st5{fill:#A0616A;}
	.st6{fill:#2F2E41;}
	.st7{fill:#3F3D56;}
	.st8{fill:#9E5A63;}
	.st9{fill:#FFB8B8;}
</style>
<path class="st0" d="M641,415.1H110.5c-4,0-7.2-3.2-7.2-7.1V84.5h544.8v323.5C648.2,412,645,415.1,641,415.1z"/>
<path class="st1" d="M625.5,394.9H126.1c-4,0-7.2-3.2-7.2-7.1V121.3c0-3.9,3.2-7.1,7.2-7.1h499.4c4,0,7.2,3.2,7.2,7.1v266.4
	C632.7,391.7,629.5,394.9,625.5,394.9z"/>
<path class="st2" d="M648,94.5H103.1V78c0-3.9,3.2-7.1,7.2-7.1h530.5c4,0,7.2,3.2,7.2,7.1L648,94.5z"/>
<ellipse class="st1" cx="120.7" cy="83" rx="4.3" ry="4.2"/>
<ellipse class="st1" cx="137" cy="83" rx="4.3" ry="4.2"/>
<ellipse class="st1" cx="153.3" cy="83" rx="4.3" ry="4.2"/>
<rect x="170.2" y="162" class="st0" width="51.5" height="22.4"/>
<rect x="273.1" y="208.5" class="st0" width="51.5" height="22.4"/>
<rect x="170.2" y="278.3" class="st2" width="51.5" height="22.4"/>
<rect x="273.1" y="324.8" class="st2" width="51.5" height="22.4"/>
<rect x="529.6" y="348.1" class="st2" width="51.5" height="22.4"/>
<rect x="478.2" y="255" class="st0" width="51.5" height="22.4"/>
<rect x="324.6" y="255" class="st2" width="102.9" height="22.4"/>
<rect x="324.6" y="137.9" class="st2" width="102.9" height="22.4"/>
<path class="st0" d="M118.7,113.8v281.6h514.7V113.8L118.7,113.8z M631.7,137.1h-49.6v-21.7h49.6L631.7,137.1z M325.6,300.4v-21.7
	h100.9v21.7H325.6z M426.5,302.1v21.7H325.6v-21.7H426.5z M426.5,208.8v21.7H325.6v-21.7H426.5z M325.6,207.1v-21.7h100.9v21.7
	H325.6z M325.6,253.8v-21.7h100.9v21.7H325.6z M426.5,255.4v21.7H325.6v-21.7H426.5z M323.9,230.4h-49.6v-21.7h49.6V230.4z
	 M323.9,232.1v21.7h-49.6v-21.7L323.9,232.1z M323.9,255.4v21.7h-49.6v-21.7L323.9,255.4z M323.9,278.8v21.7h-49.6v-21.7H323.9z
	 M428.2,278.8h49.6v21.7h-49.6L428.2,278.8z M428.2,277.1v-21.7h49.6v21.7L428.2,277.1z M428.2,253.8v-21.7h49.6v21.7L428.2,253.8z
	 M428.2,230.4v-21.7h49.6v21.7H428.2z M428.2,207.1v-21.7h49.6v21.7H428.2z M428.2,183.8v-21.7h49.6v21.7H428.2z M426.5,183.8H325.6
	v-21.7h100.9L426.5,183.8z M323.9,183.8h-49.6v-21.7h49.6V183.8z M323.9,185.4v21.7h-49.6v-21.7H323.9z M272.6,207.1H223v-21.7h49.6
	L272.6,207.1z M272.6,208.8v21.7H223v-21.7H272.6z M272.6,232.1v21.7H223v-21.7L272.6,232.1z M272.6,255.4v21.7H223v-21.7
	L272.6,255.4z M272.6,278.8v21.7H223v-21.7H272.6z M272.6,302.1v21.7H223v-21.7L272.6,302.1z M274.3,302.1h49.6v21.7h-49.6V302.1z
	 M323.9,325.4v21.7h-49.6v-21.7L323.9,325.4z M325.6,325.4h100.9v21.7H325.6V325.4z M428.2,325.4h49.6v21.7h-49.6L428.2,325.4z
	 M428.2,323.8v-21.7h49.6v21.7L428.2,323.8z M479.5,302.1h49.6v21.7h-49.6L479.5,302.1z M479.5,300.4v-21.7h49.6v21.7L479.5,300.4z
	 M479.5,277.1v-21.7h49.6v21.7L479.5,277.1z M479.5,253.8v-21.7h49.6v21.7L479.5,253.8z M479.5,230.4v-21.7h49.6v21.7H479.5z
	 M479.5,207.1v-21.7h49.6v21.7H479.5z M479.5,183.8v-21.7h49.6v21.7H479.5z M479.5,160.4v-21.7h49.6v21.7H479.5z M477.8,160.4h-49.6
	v-21.7h49.6L477.8,160.4z M426.5,160.4H325.6v-21.7h100.9L426.5,160.4z M323.9,160.4h-49.6v-21.7h49.6V160.4z M272.6,160.4H223
	v-21.7h49.6L272.6,160.4z M272.6,162.1v21.7H223v-21.7H272.6z M221.3,183.8h-49.6v-21.7h49.6V183.8z M221.3,185.4v21.7h-49.6v-21.7
	H221.3z M221.3,208.8v21.7h-49.6v-21.7H221.3z M221.3,232.1v21.7h-49.6v-21.7L221.3,232.1z M221.3,255.4v21.7h-49.6v-21.7
	L221.3,255.4z M221.3,278.8v21.7h-49.6v-21.7H221.3z M221.3,302.1v21.7h-49.6v-21.7L221.3,302.1z M221.3,325.4v21.7h-49.6v-21.7
	L221.3,325.4z M223,325.4h49.6v21.7H223L223,325.4z M272.6,348.8v21.7H223v-21.7L272.6,348.8z M274.3,348.8h49.6v21.7h-49.6V348.8z
	 M325.6,348.8h100.9v21.7H325.6V348.8z M428.2,348.8h49.6v21.7h-49.6L428.2,348.8z M479.5,348.8h49.6v21.7h-49.6L479.5,348.8z
	 M479.5,347.1v-21.7h49.6v21.7L479.5,347.1z M530.8,325.4h49.6v21.7h-49.6V325.4z M530.8,323.8v-21.7h49.6v21.7H530.8z M530.8,300.4
	v-21.7h49.6v21.7H530.8z M530.8,277.1v-21.7h49.6v21.7H530.8z M530.8,253.8v-21.7h49.6v21.7H530.8z M530.8,230.4v-21.7h49.6v21.7
	L530.8,230.4z M530.8,207.1v-21.7h49.6v21.7L530.8,207.1z M530.8,183.8v-21.7h49.6v21.7L530.8,183.8z M530.8,160.4v-21.7h49.6v21.7
	L530.8,160.4z M530.8,137.1v-21.7h49.6v21.7L530.8,137.1z M529.1,137.1h-49.6v-21.7h49.6L529.1,137.1z M477.8,137.1h-49.6v-21.7
	h49.6L477.8,137.1z M426.5,137.1H325.6v-21.7h100.9L426.5,137.1z M323.9,137.1h-49.6v-21.7h49.6L323.9,137.1z M272.6,137.1H223
	v-21.7h49.6L272.6,137.1z M221.3,137.1h-49.6v-21.7h49.6L221.3,137.1z M221.3,138.8v21.7h-49.6v-21.7L221.3,138.8z M170,160.4h-49.6
	v-21.7H170L170,160.4z M170,162.1v21.7h-49.6v-21.7L170,162.1z M170,185.4v21.7h-49.6v-21.7L170,185.4z M170,208.8v21.7h-49.6v-21.7
	L170,208.8z M170,232.1v21.7h-49.6v-21.7H170z M170,255.4v21.7h-49.6v-21.7H170z M170,278.8v21.7h-49.6v-21.7L170,278.8z M170,302.1
	v21.7h-49.6v-21.7H170z M170,325.4v21.7h-49.6v-21.7H170z M170,348.8v21.7h-49.6v-21.7H170z M171.7,348.8h49.6v21.7h-49.6
	L171.7,348.8z M221.3,372.1v21.7h-49.6v-21.7H221.3z M223,372.1h49.6v21.7H223L223,372.1z M274.3,372.1h49.6v21.7h-49.6L274.3,372.1
	z M325.6,372.1h100.9v21.7H325.6L325.6,372.1z M428.2,372.1h49.6v21.7h-49.6L428.2,372.1z M479.5,372.1h49.6v21.7h-49.6L479.5,372.1
	z M530.8,372.1h49.6v21.7h-49.6L530.8,372.1z M530.8,370.4v-21.7h49.6v21.7H530.8z M582.1,348.8h49.6v21.7h-49.6L582.1,348.8z
	 M582.1,347.1v-21.7h49.6v21.7L582.1,347.1z M582.1,323.8v-21.7h49.6v21.7L582.1,323.8z M582.1,300.4v-21.7h49.6v21.7L582.1,300.4z
	 M582.1,277.1v-21.7h49.6v21.7L582.1,277.1z M582.1,253.8v-21.7h49.6v21.7L582.1,253.8z M582.1,230.4v-21.7h49.6v21.7L582.1,230.4z
	 M582.1,207.1v-21.7h49.6v21.7L582.1,207.1z M582.1,183.8v-21.7h49.6v21.7L582.1,183.8z M582.1,160.4v-21.7h49.6v21.7L582.1,160.4z
	 M170,115.4v21.7h-49.6v-21.7H170z M120.4,372.1H170v21.7h-49.6V372.1z M582.1,393.8v-21.7h49.6v21.7H582.1z"/>
<ellipse class="st3" cx="235" cy="382.5" rx="8.9" ry="9.8"/>
<ellipse class="st3" cx="235" cy="423.3" rx="8.9" ry="9.8"/>
<ellipse class="st3" cx="199.5" cy="423.3" rx="8.9" ry="9.8"/>
<ellipse class="st3" cx="164.1" cy="423.3" rx="8.9" ry="9.8"/>
<ellipse class="st3" cx="128.6" cy="423.3" rx="8.9" ry="9.8"/>
<path class="st4" d="M156.8,689.4v3c0,10.4,7.7,18.8,17.2,18.9h123.7c9.5,0,17.2-8.4,17.2-18.9v-3c0-4.4-1.4-8.7-4-12.1
	c-0.9-1.1-1.8-2.1-2.9-3c0,0-68-1.7-68-3.8h-66C164.5,670.6,156.8,679,156.8,689.4z"/>
<rect x="227.9" y="710.5" class="st4" width="17.9" height="126.7"/>
<path class="st4" d="M296.7,836.6c0,2.1-27.1,0.8-60.5,0.8s-60.5,1.3-60.5-0.8c0-2.1,27.1-18.9,60.5-18.9S296.7,834.5,296.7,836.6z"
	/>
<path class="st5" d="M272.1,686.9c4.9-7.2,3.5-17.3-3-22.7c-0.7-0.6-1.4-1.1-2.2-1.5L229,521l-28.8,15.5l46.3,134.3
	c-3.2,8.3,0.4,17.8,7.9,21.3C260.7,695.1,268,692.9,272.1,686.9L272.1,686.9z"/>
<path class="st2" d="M237.6,544.7l-32.3,9.6c-3.5,1-7.2-1.2-8.1-5.1c-0.1-0.3-0.1-0.7-0.2-1l-3.9-36.3c-2.6-10.8,3.3-21.8,13.1-24.7
	c9.8-2.8,19.8,3.5,22.5,14.2l13.3,33.4c1.5,3.7-0.1,8-3.4,9.6C238.2,544.5,237.9,544.6,237.6,544.7L237.6,544.7z"/>
<polygon class="st5" points="280.6,821.7 297.4,821.7 305.4,773.8 280.6,773.8 "/>
<path class="st6" d="M276.3,815.7l33.2,0h0c11.7,0,21.2,10.4,21.2,23.2c0,0,0,0,0,0v0.8l-54.4,0L276.3,815.7z"/>
<path class="st6" d="M300.1,796c-0.2,0-0.4,0-0.6,0l-23.3-1.9c-3.4-0.3-5.9-3.7-5.6-7.4c0-0.6,0.2-1.2,0.4-1.7l31.2-77
	c0.5-1.4,0.4-2.9-0.3-4.2c-0.6-1.3-1.7-2.3-3-2.7c-14.7-4.2-52.3-15.4-85-28.5c-14-5.6-22.8-13.7-26.1-24.1
	c-4.5-13.7,2.1-26.2,2.4-26.7l0.2-0.4l30.7,3.1l33.3,3.1l72.9,42.9c12.7,7.5,17.9,24.4,12.1,38.9L305.8,792
	C304.8,794.4,302.6,796,300.1,796z"/>
<ellipse class="st5" cx="226.4" cy="435.1" rx="33.8" ry="37.1"/>
<polygon class="st5" points="270.9,820.2 287.8,820.2 295.8,772.2 270.9,772.2 "/>
<path class="st6" d="M266.6,814.2l33.2,0h0c11.7,0,21.2,10.4,21.2,23.2c0,0,0,0,0,0v0.8l-54.4,0L266.6,814.2z"/>
<path class="st6" d="M290.5,800.5c-0.2,0-0.4,0-0.6,0l-23.3-1.9c-3.4-0.3-5.9-3.7-5.6-7.4c0-0.6,0.2-1.2,0.4-1.7l31.2-77
	c0.5-1.4,0.4-2.9-0.3-4.2c-0.6-1.3-1.7-2.3-3-2.7c-14.7-4.2-52.3-15.4-85-28.5c-14-5.6-22.8-13.7-26.1-24.1
	c-4.5-13.7,2.1-26.2,2.4-26.7l0.2-0.4l30.7,3.1l33.3,3.1l72.9,42.9c12.7,7.5,17.9,24.4,12.1,38.9l-33.6,82.7
	C295.1,798.9,292.9,800.5,290.5,800.5z"/>
<path class="st6" d="M236.8,493.2l-35.7-13.6c0,0-22.4,18.9-11.7,65.8c5.6,24.2,4,49.8-4.7,72.9c-1,2.9-2.2,5.6-3.6,8.3
	c0,0,39.9,52.8,77,13.6l-14.4-76.2C243.7,564.1,266.4,513.5,236.8,493.2z"/>
<path class="st6" d="M230.6,473.4c-4.8-7.9-8.6-18.8-3.3-26.3c5.2-7.4,15.5-6.3,23.5-9.6c11.1-4.6,17.6-18.9,15.6-31.8
	c-2-12.9-11.4-23.5-22.6-27.9c-11.2-4.4-23.9-2.9-34.8,2.1c-13.5,6.2-25.1,18.1-30,33.3c-4.9,15.2-2.3,33.4,7.8,45
	c10.8,12.5,27.8,15.8,43.5,15.6"/>
<path class="st6" d="M199.2,406.1c-6.1,5.4-15.3,3-21.8-1.7c-6.5-4.7-11.8-11.5-18.8-15.2c-12.4-6.6-27.4-2.2-39.5,5.1
	s-22.8,17.3-35.5,23s-29,6-38.7-4.8c-6.4,20.3,3.4,42.4,21.9,49.4c10,3.8,20.9,2.5,29.9-3.5c14-9.3,21.7-28.9,37.4-34.1
	c8.7-2.9,18-0.6,26.7,1.9c8.8,2.5,17.9,5.2,26.7,3.1c8.8-2.1,17.1-10.8,16-20.7L199.2,406.1z"/>
<path class="st2" d="M309.1,755.2c-3.6-25.5-3.6-51.4,0-76.9c0.5-3.1,2.9-5.4,5.8-5.4h54.8c1.8,0,3.5,0.9,4.6,2.5
	c1.1,1.6,1.5,3.6,1.1,5.6c-5.1,23.6-5.1,48.1,0,71.7c0.4,2,0,4-1.1,5.6c-1.1,1.6-2.8,2.5-4.6,2.5H315
	C312.1,760.6,309.6,758.3,309.1,755.2z"/>
<path class="st1" d="M352.9,710.1h-28.8c-2.3,0-4.1-2-4.1-4.5v-1.8c0-2.5,1.8-4.5,4.1-4.5h28.8c2.3,0,4.1,2,4.1,4.5v1.8
	C357,708.1,355.2,710.1,352.9,710.1z"/>
<path class="st1" d="M352.9,728.7h-28.8c-2.3,0-4.1-2-4.1-4.5v-1.8c0-2.5,1.8-4.5,4.1-4.5h28.8c2.3,0,4.1,2,4.1,4.5v1.8
	C357,726.7,355.2,728.7,352.9,728.7z"/>
<path class="st5" d="M323.6,680.1c3.1-8.3-0.5-17.7-8.1-21.1c-0.8-0.4-1.6-0.6-2.5-0.8L244,531.3l-24.4,22.9l75.4,117.4
	c-1.2,8.9,4.4,17.2,12.5,18.5C314.4,691.2,321,687.1,323.6,680.1L323.6,680.1z"/>
<path class="st6" d="M257.7,551.9L228.7,570c-3.2,2-7.2,0.8-9-2.7c-0.2-0.3-0.3-0.6-0.4-1l-12.1-34.1c-5-9.7-1.8-22,7-27.5
	c8.8-5.4,20-2,25,7.6l20.5,28.7c2.3,3.2,1.7,7.7-1.1,10.2C258.3,551.5,258,551.7,257.7,551.9L257.7,551.9z"/>
<path class="st7" d="M567.2,596.4H8.9c-4.9,0-8.9,4.4-8.9,9.8c0,5.4,4,9.8,8.9,9.8h15.8v213.5c0,5.4,4,9.8,8.9,9.8s8.9-4.4,8.9-9.8
	V634.9l100.2,199.2c2.5,4.7,7.9,6.3,12.2,3.6c4.3-2.7,5.7-8.7,3.3-13.4L53.6,616h478.5v0.1L427.4,824.3c-2.5,4.7-1,10.7,3.3,13.4
	c4.3,2.7,9.7,1.1,12.2-3.6l89.2-177.4v172.7c0,5.4,4,9.8,8.9,9.8s8.9-4.4,8.9-9.8V621.2l2.6-5.2h14.6c4.9,0,8.9-4.4,8.9-9.8
	C576.1,600.8,572.1,596.4,567.2,596.4z"/>
<path class="st4" d="M227.6,590.4h108.6c2.7,0,4.8,2.4,4.8,5.3l0,0c0,2.9-2.2,5.3-4.8,5.3H227.6c-2.7,0-4.8-2.4-4.8-5.3l0,0
	C222.7,592.7,224.9,590.4,227.6,590.4z"/>
<path class="st4" d="M409,600.9H286.7c-4.9,0-8.9-4.4-8.9-9.8v-73.9c0-5.4,4-9.8,8.9-9.8H409c4.9,0,8.9,4.4,8.9,9.8v73.9
	C418,596.5,414,600.9,409,600.9z"/>
<ellipse class="st1" cx="347.9" cy="554.2" rx="8.2" ry="9.1"/>
<path class="st0" d="M502.4,418.8V154.1c0-6.3,4.6-11.3,10.3-11.3h190.7c5.7,0,10.3,5.1,10.3,11.3v264.8c0,6.3-4.6,11.3-10.3,11.3
	H512.8C507.1,430.1,502.4,425.1,502.4,418.8z M512.8,145.2c-4.4,0-8,4-8,8.8v264.8c0,4.9,3.6,8.8,8,8.8h190.7c4.4,0,8-4,8-8.8V154.1
	c0-4.9-3.6-8.8-8-8.8H512.8z"/>
<path class="st2" d="M618.8,264.3v-54.4c0-3.1,2.3-5.7,5.2-5.7h42c2.9,0,5.2,2.5,5.2,5.7v54.4c0,3.1-2.3,5.7-5.2,5.7h-42
	C621.2,270,618.8,267.4,618.8,264.3z"/>
<path class="st4" d="M537.3,289.5v-54.4c0-3.1,2.3-5.7,5.2-5.7h42c2.9,0,5.2,2.5,5.2,5.7v54.4c0,3.1-2.3,5.7-5.2,5.7h-42
	C539.6,295.2,537.3,292.6,537.3,289.5z"/>
<path class="st8" d="M602.8,366.4v-54.4c0-3.1,2.3-5.7,5.2-5.7h42c2.9,0,5.2,2.5,5.2,5.7v54.4c0,3.1-2.3,5.7-5.2,5.7h-42
	C605.1,372.1,602.8,369.5,602.8,366.4z"/>
<ellipse class="st3" cx="811.6" cy="277.2" rx="8.9" ry="9.8"/>
<ellipse class="st3" cx="774.5" cy="277.2" rx="8.9" ry="9.8"/>
<path class="st9" d="M773.2,506.7c-2.9-8.6,1.2-18.1,9-21.3c0.5-0.2,1.1-0.4,1.6-0.5c0.7-0.2,1.3-0.3,2-0.4l33.4-64.3l-8.4-15.9
	l21-17.8l16.1,24.5c3.9,6,3.8,14.2-0.4,20.1l-45.9,64.4c0.2,0.5,0.3,1,0.4,1.6c2,8.9-3.1,17.9-11.2,20c-0.6,0.1-1.1,0.3-1.7,0.3
	c-0.6,0.1-1.2,0.1-1.9,0.1C781,517.6,775.3,513.2,773.2,506.7z"/>
<polygon class="st9" points="708,822.9 691.1,822.9 683.1,751.6 708,751.6 "/>
<path class="st6" d="M679.1,817.6h32.5l0,0v22.5l0,0h-53l0,0l0,0C658.6,827.7,667.8,817.6,679.1,817.6z"/>
<polygon class="st9" points="846.8,822.9 830,822.9 822,751.6 846.8,751.6 "/>
<path class="st6" d="M817.9,817.6h32.5l0,0v22.5l0,0h-53l0,0l0,0C797.5,827.7,806.6,817.6,817.9,817.6z"/>
<path class="st2" d="M836.5,390l-37.8,15.8l-9.2-28.2c-2.5-7.7,0.4-16.3,6.9-20.4l0,0c6.6-4.1,14.9-2.3,19.6,4.2L836.5,390z"/>
<path class="st6" d="M709.4,765.1l-31.7-7.9c-3.5-0.9-5.8-4.6-5.2-8.5c12.7-88.6,25-140.4,56.6-206.3c0.4-1.2,5.4-26.2,8.6-42.7
	c-0.1-3.8,2.4-7,5.8-7.6l59.2-10c0.9-0.3,1.8-0.5,2.8-0.5l0.6,0.1l0,0.6c0,0.7-0.6,0.8-0.8,0.8l-0.8,0.1c0.9,0.5,1.7,1.1,2.4,1.8
	c25.9,34.2,39.4,146.4,56.5,270.3c0.2,2-0.5,4.1-1.8,5.5c-1.3,1.5-3,2.4-4.9,2.4l-37.8,1c-3.4,0.1-6.4-2.6-6.9-6.4l-25.5-161.5
	c-0.5-3.3-3.2-5.5-6.2-5c-1.8,0.3-3.3,1.5-4.1,3.3c-20.5,45.9-39.7,85.6-58.6,164.8c-0.8,3.3-3.5,5.6-6.6,5.6
	C710.4,765.3,709.9,765.3,709.4,765.1z"/>
<path class="st2" d="M740.2,501.6c-1.6-1.3-2.7-3.2-2.9-5.4c-4.8-49.6-1.5-88.5,10.3-118.8c4.2-10.6,12.6-18.5,22.8-21.4l30.6-1.7
	l0.2,0.1c14.2,7.6,22.1,24.5,19.6,41.6c-9.8,28.5-18.1,58.1-11.8,82c0.5,2,0.3,4.2-0.7,6c-0.9,1.8-2.5,3-4.3,3.5l-58.3,15.2
	C743.8,503.3,741.8,502.8,740.2,501.6z"/>
<path class="st9" d="M727.1,430.3l-58.7-50.8c-0.5,0.2-0.9,0.3-1.4,0.5c-4.2,1.1-8.6,0.1-12.1-2.6c-3.6-2.7-5.9-7-6.4-11.7
	c-0.8-7.7,3.3-14.9,9.9-17.6c7.9-3.1,16.5,1.4,19.3,10c0.2,0.6,0.4,1.2,0.5,1.8c0.2,0.7,0.3,1.5,0.3,2.2l58.4,37l14.5-9.2l16.1,23.1
	L745,430.8C739.6,435,732.3,434.8,727.1,430.3z"/>
<path class="st2" d="M774.7,420.4l-33.5-25l15.7-24.4c4.3-6.7,12.4-9,19.2-5.5l0,0c6.8,3.6,10.3,12.1,8.1,20L774.7,420.4z"/>
<ellipse class="st9" cx="790.8" cy="304.8" rx="33.8" ry="37.1"/>
<path class="st6" d="M778.5,299.3c-8.7,6.5-20.1,13.2-28.9,6.3c-5.8-4.6-7.7-13-5.3-20.4c4.2-13.3,15.9-19.2,27.1-23.7
	c14.5-5.8,30.3-10.5,45.3-6.3s28.2,20.1,25.5,36.8c-2.2,13.4-13.7,24.6-12.1,38.1c1.6,13.6,15.6,20.8,27.9,23.2
	c12.3,2.4,26.1,3.2,34.9,12.9c11.3,12.4,8.5,34.5-2.2,47.5c-10.6,13.1-26.6,19-42.1,23c-20.6,5.3-42.8,8.1-62.3-0.7
	c-19.5-8.8-34.7-32.7-29.1-55c2.4-9.4,8-17.4,13.5-25.2s10.9-15.9,13-25.4c1.7-7.9,0.4-17.2-4.3-23.1c-1.8-2.1-2.1-5.3-0.8-7.8
	L778.5,299.3z"/>
</svg>
