<svg width="301" height="258" viewBox="0 0 301 258" fill="none" xmlns="http://www.w3.org/2000/svg">
<path d="M158.378 57.8682L152.339 74.4912H150.249L145.206 60.4562L140.129 74.4912H138.006L132 57.8682H134.157L139.067 72.0691L144.243 57.8682H146.267L151.277 72.0691L156.321 57.8682H158.378ZM168.711 74.7235C167.184 74.7235 165.835 74.3696 164.663 73.6618C163.512 72.9539 162.617 71.9475 161.975 70.6424C161.356 69.3373 161.046 67.8221 161.046 66.0968C161.046 64.3714 161.356 62.8562 161.975 61.5512C162.617 60.2461 163.512 59.2396 164.663 58.5318C165.835 57.824 167.184 57.47 168.711 57.47C170.215 57.47 171.542 57.824 172.692 58.5318C173.842 59.2396 174.727 60.2461 175.347 61.5512C175.988 62.8562 176.309 64.3714 176.309 66.0968C176.309 67.8221 175.988 69.3373 175.347 70.6424C174.727 71.9475 173.842 72.9539 172.692 73.6618C171.542 74.3696 170.215 74.7235 168.711 74.7235ZM168.677 72.9318C170.447 72.9318 171.807 72.3456 172.759 71.1733C173.732 69.9788 174.218 68.2866 174.218 66.0968C174.218 63.929 173.732 62.2479 172.759 61.0535C171.785 59.8369 170.436 59.2286 168.711 59.2286C166.963 59.2286 165.603 59.8369 164.629 61.0535C163.656 62.2479 163.17 63.929 163.17 66.0968C163.17 68.3088 163.645 70.0009 164.596 71.1733C165.547 72.3456 166.908 72.9318 168.677 72.9318ZM198.655 57.47C202.327 57.47 204.163 59.6157 204.163 63.9069V74.4912H202.139V64.0396C202.139 62.3585 201.841 61.1419 201.243 60.3899C200.646 59.6157 199.695 59.2286 198.39 59.2286C196.864 59.2286 195.658 59.7373 194.773 60.7548C193.911 61.7724 193.479 63.1548 193.479 64.9023V74.4912H191.455V64.0396C191.455 62.3585 191.146 61.1419 190.526 60.3899C189.929 59.6157 188.978 59.2286 187.673 59.2286C186.169 59.2286 184.963 59.7373 184.056 60.7548C183.171 61.7724 182.729 63.1548 182.729 64.9023V74.4912H180.738V62.4802C180.738 60.7548 180.65 59.2175 180.473 57.8682H182.397L182.663 60.8544C183.127 59.7484 183.813 58.9078 184.72 58.3327C185.649 57.7576 186.722 57.47 187.938 57.47C190.615 57.47 192.329 58.5539 193.081 60.7217C193.546 59.7041 194.265 58.9078 195.238 58.3327C196.233 57.7576 197.372 57.47 198.655 57.47ZM210.639 65.9309V66.0304C210.639 68.2645 211.147 69.9788 212.165 71.1733C213.205 72.3456 214.709 72.9318 216.677 72.9318C218.668 72.9318 220.493 72.2461 222.152 70.8747L222.948 72.4673C222.218 73.153 221.289 73.706 220.161 74.1263C219.033 74.5244 217.872 74.7235 216.677 74.7235C214.156 74.7235 212.165 73.9604 210.705 72.4341C209.245 70.9078 208.515 68.8065 208.515 66.13C208.515 64.4267 208.836 62.9226 209.477 61.6175C210.141 60.2903 211.059 59.2728 212.231 58.565C213.404 57.835 214.753 57.47 216.279 57.47C218.469 57.47 220.172 58.1779 221.389 59.5935C222.628 61.0092 223.247 62.9779 223.247 65.4995V65.9309H210.639ZM216.279 59.129C214.753 59.129 213.514 59.5935 212.563 60.5226C211.612 61.4295 211.015 62.7124 210.771 64.3714H221.323C221.19 62.6682 220.692 61.3742 219.829 60.4894C218.967 59.5825 217.783 59.129 216.279 59.129ZM235.323 57.47C239.327 57.47 241.329 59.6157 241.329 63.9069V74.4912H239.305V64.0396C239.305 62.3806 238.962 61.1641 238.276 60.3899C237.612 59.6157 236.562 59.2286 235.124 59.2286C233.465 59.2286 232.127 59.7373 231.109 60.7548C230.092 61.7724 229.583 63.1438 229.583 64.8691V74.4912H227.592V62.4802C227.592 60.7548 227.504 59.2175 227.327 57.8682H229.251L229.517 60.9207C230.025 59.7926 230.788 58.941 231.806 58.3659C232.824 57.7687 233.996 57.47 235.323 57.47ZM255.231 57.8682H257.222V74.4912H255.231V57.8682ZM257.62 51V53.588H254.932V51H257.62ZM270.512 57.47C274.515 57.47 276.517 59.6157 276.517 63.9069V74.4912H274.493V64.0396C274.493 62.3806 274.15 61.1641 273.465 60.3899C272.801 59.6157 271.75 59.2286 270.312 59.2286C268.653 59.2286 267.315 59.7373 266.298 60.7548C265.28 61.7724 264.771 63.1438 264.771 64.8691V74.4912H262.781V62.4802C262.781 60.7548 262.692 59.2175 262.515 57.8682H264.44L264.705 60.9207C265.214 59.7926 265.977 58.941 266.994 58.3659C268.012 57.7687 269.184 57.47 270.512 57.47ZM134.688 107.406V107.505C134.688 109.739 135.196 111.453 136.214 112.648C137.253 113.82 138.758 114.406 140.726 114.406C142.717 114.406 144.542 113.721 146.201 112.349L146.997 113.942C146.267 114.628 145.338 115.181 144.21 115.601C143.082 115.999 141.921 116.198 140.726 116.198C138.205 116.198 136.214 115.435 134.754 113.909C133.294 112.382 132.564 110.281 132.564 107.605C132.564 105.901 132.885 104.397 133.526 103.092C134.19 101.765 135.108 100.747 136.28 100.04C137.453 99.3097 138.802 98.9447 140.328 98.9447C142.518 98.9447 144.221 99.6525 145.438 101.068C146.676 102.484 147.296 104.453 147.296 106.974V107.406H134.688ZM140.328 100.604C138.802 100.604 137.563 101.068 136.612 101.997C135.661 102.904 135.064 104.187 134.82 105.846H145.371C145.239 104.143 144.741 102.849 143.878 101.964C143.016 101.057 141.832 100.604 140.328 100.604ZM154.429 100.969V110.856C154.429 112.183 154.684 113.101 155.193 113.61C155.701 114.119 156.453 114.373 157.449 114.373C158.068 114.373 158.665 114.274 159.241 114.075V115.9C158.533 116.077 157.814 116.165 157.084 116.165C155.624 116.165 154.474 115.756 153.633 114.937C152.815 114.119 152.406 112.891 152.406 111.254V100.969H149.121V99.3429H152.406V94.93L154.429 94.1668V99.3429H159.34V100.969H154.429ZM170.519 98.9447C174.523 98.9447 176.524 101.09 176.524 105.382V115.966H174.5V105.514C174.5 103.855 174.158 102.639 173.472 101.865C172.808 101.09 171.758 100.703 170.32 100.703C168.661 100.703 167.323 101.212 166.305 102.229C165.288 103.247 164.779 104.618 164.779 106.344V115.966H162.788V91.5456H164.779V102.229C165.31 101.146 166.073 100.327 167.068 99.7742C168.064 99.2212 169.214 98.9447 170.519 98.9447ZM181.97 99.3429H183.961V115.966H181.97V99.3429ZM184.359 92.4747V95.0627H181.671V92.4747H184.359ZM196.255 116.198C194.685 116.198 193.313 115.844 192.141 115.136C190.969 114.429 190.062 113.433 189.42 112.15C188.779 110.845 188.458 109.341 188.458 107.638C188.458 105.912 188.779 104.397 189.42 103.092C190.062 101.765 190.98 100.747 192.174 100.04C193.369 99.3097 194.751 98.9447 196.322 98.9447C197.45 98.9447 198.523 99.1438 199.54 99.5419C200.58 99.918 201.431 100.449 202.095 101.135L201.299 102.727C200.436 102.019 199.606 101.511 198.81 101.201C198.036 100.869 197.229 100.703 196.388 100.703C194.596 100.703 193.181 101.323 192.141 102.561C191.101 103.778 190.582 105.47 190.582 107.638C190.582 109.761 191.09 111.42 192.108 112.615C193.147 113.809 194.574 114.406 196.388 114.406C197.229 114.406 198.036 114.252 198.81 113.942C199.606 113.61 200.436 113.101 201.299 112.416L202.095 113.975C201.387 114.661 200.502 115.203 199.441 115.601C198.401 115.999 197.339 116.198 196.255 116.198ZM211.193 116.198C208.494 116.198 206.36 115.457 204.789 113.975L205.519 112.416C206.404 113.146 207.289 113.665 208.174 113.975C209.081 114.285 210.12 114.44 211.293 114.44C212.664 114.44 213.704 114.207 214.412 113.743C215.141 113.256 215.506 112.559 215.506 111.653C215.506 110.9 215.263 110.314 214.776 109.894C214.312 109.452 213.538 109.098 212.454 108.832L209.634 108.202C208.306 107.892 207.256 107.339 206.482 106.543C205.729 105.747 205.353 104.818 205.353 103.756C205.353 102.296 205.906 101.135 207.012 100.272C208.141 99.3871 209.634 98.9447 211.492 98.9447C212.664 98.9447 213.748 99.1327 214.743 99.5088C215.761 99.8848 216.601 100.427 217.265 101.135L216.502 102.694C214.976 101.367 213.306 100.703 211.492 100.703C210.209 100.703 209.213 100.958 208.506 101.466C207.798 101.975 207.444 102.683 207.444 103.59C207.444 104.342 207.665 104.95 208.107 105.415C208.572 105.879 209.28 106.222 210.231 106.443L213.084 107.14C216.07 107.804 217.564 109.275 217.564 111.553C217.564 112.947 216.988 114.075 215.838 114.937C214.688 115.778 213.14 116.198 211.193 116.198ZM245.403 111.42C246.575 112.725 248.112 113.865 250.015 114.838L248.82 116.231C247.006 115.302 245.502 114.207 244.308 112.947C243.379 114.008 242.317 114.816 241.123 115.369C239.928 115.922 238.612 116.198 237.174 116.198C235.736 116.198 234.453 115.955 233.325 115.468C232.219 114.959 231.357 114.252 230.737 113.345C230.14 112.416 229.841 111.354 229.841 110.159C229.841 108.744 230.273 107.461 231.135 106.311C232.02 105.16 233.469 103.966 235.482 102.727C234.398 101.422 233.646 100.371 233.226 99.5751C232.828 98.7788 232.629 97.9493 232.629 97.0866C232.629 95.5825 233.126 94.377 234.122 93.47C235.139 92.5631 236.477 92.1097 238.136 92.1097C239.685 92.1097 240.912 92.5189 241.819 93.3373C242.726 94.1558 243.18 95.2728 243.18 96.6885C243.18 97.8387 242.826 98.8673 242.118 99.7742C241.41 100.659 240.116 101.732 238.236 102.993L244.175 109.96C245.259 107.925 245.834 105.359 245.9 102.263H247.825C247.736 105.912 246.929 108.965 245.403 111.42ZM234.686 97.0866C234.686 97.7724 234.852 98.4249 235.183 99.0442C235.515 99.6636 236.157 100.548 237.108 101.699C238.7 100.659 239.784 99.7963 240.359 99.1106C240.957 98.4028 241.255 97.6396 241.255 96.8212C241.255 95.9143 240.968 95.1843 240.393 94.6313C239.84 94.0783 239.088 93.8018 238.136 93.8018C237.097 93.8018 236.256 94.1115 235.615 94.7309C234.995 95.3281 234.686 96.1134 234.686 97.0866ZM237.274 114.473C239.641 114.473 241.598 113.522 243.147 111.619L236.643 104.021C234.874 105.149 233.635 106.167 232.927 107.074C232.219 107.981 231.865 108.998 231.865 110.126C231.865 111.453 232.352 112.515 233.325 113.312C234.299 114.086 235.615 114.473 237.274 114.473ZM140.361 157.673C138.791 157.673 137.419 157.319 136.247 156.611C135.075 155.903 134.168 154.908 133.526 153.625C132.885 152.32 132.564 150.816 132.564 149.112C132.564 147.387 132.885 145.872 133.526 144.567C134.168 143.24 135.086 142.222 136.28 141.514C137.475 140.784 138.857 140.419 140.428 140.419C141.556 140.419 142.629 140.618 143.646 141.017C144.686 141.393 145.537 141.924 146.201 142.609L145.405 144.202C144.542 143.494 143.712 142.985 142.916 142.676C142.142 142.344 141.335 142.178 140.494 142.178C138.702 142.178 137.287 142.797 136.247 144.036C135.207 145.253 134.688 146.945 134.688 149.112C134.688 151.236 135.196 152.895 136.214 154.089C137.253 155.284 138.68 155.881 140.494 155.881C141.335 155.881 142.142 155.726 142.916 155.417C143.712 155.085 144.542 154.576 145.405 153.89L146.201 155.45C145.493 156.135 144.608 156.677 143.547 157.076C142.507 157.474 141.445 157.673 140.361 157.673ZM156.495 157.673C154.969 157.673 153.619 157.319 152.447 156.611C151.297 155.903 150.401 154.897 149.759 153.592C149.14 152.287 148.83 150.771 148.83 149.046C148.83 147.321 149.14 145.806 149.759 144.5C150.401 143.195 151.297 142.189 152.447 141.481C153.619 140.773 154.969 140.419 156.495 140.419C157.999 140.419 159.326 140.773 160.476 141.481C161.627 142.189 162.512 143.195 163.131 144.5C163.772 145.806 164.093 147.321 164.093 149.046C164.093 150.771 163.772 152.287 163.131 153.592C162.512 154.897 161.627 155.903 160.476 156.611C159.326 157.319 157.999 157.673 156.495 157.673ZM156.462 155.881C158.231 155.881 159.592 155.295 160.543 154.123C161.516 152.928 162.003 151.236 162.003 149.046C162.003 146.878 161.516 145.197 160.543 144.003C159.57 142.786 158.22 142.178 156.495 142.178C154.747 142.178 153.387 142.786 152.414 144.003C151.441 145.197 150.954 146.878 150.954 149.046C150.954 151.258 151.429 152.95 152.381 154.123C153.332 155.295 154.692 155.881 156.462 155.881ZM186.44 140.419C190.112 140.419 191.947 142.565 191.947 146.856V157.441H189.924V146.989C189.924 145.308 189.625 144.091 189.028 143.339C188.43 142.565 187.479 142.178 186.174 142.178C184.648 142.178 183.442 142.687 182.558 143.704C181.695 144.722 181.264 146.104 181.264 147.852V157.441H179.24V146.989C179.24 145.308 178.93 144.091 178.311 143.339C177.713 142.565 176.762 142.178 175.457 142.178C173.953 142.178 172.747 142.687 171.841 143.704C170.956 144.722 170.513 146.104 170.513 147.852V157.441H168.523V145.429C168.523 143.704 168.434 142.167 168.257 140.818H170.182L170.447 143.804C170.912 142.698 171.597 141.857 172.504 141.282C173.433 140.707 174.506 140.419 175.723 140.419C178.399 140.419 180.113 141.503 180.865 143.671C181.33 142.653 182.049 141.857 183.022 141.282C184.018 140.707 185.157 140.419 186.44 140.419ZM205.125 140.419C206.585 140.419 207.868 140.784 208.974 141.514C210.102 142.222 210.976 143.24 211.595 144.567C212.215 145.872 212.524 147.387 212.524 149.112C212.524 150.838 212.215 152.342 211.595 153.625C210.998 154.908 210.135 155.903 209.007 156.611C207.879 157.319 206.585 157.673 205.125 157.673C203.732 157.673 202.537 157.374 201.542 156.777C200.569 156.158 199.839 155.273 199.352 154.123V164.607H197.361V145.429C197.361 143.704 197.273 142.167 197.096 140.818H199.02L199.286 144.069C199.772 142.897 200.513 142.001 201.509 141.382C202.526 140.74 203.732 140.419 205.125 140.419ZM204.86 155.881C206.607 155.881 207.968 155.295 208.941 154.123C209.914 152.928 210.401 151.258 210.401 149.112C210.401 146.945 209.914 145.253 208.941 144.036C207.968 142.797 206.618 142.178 204.893 142.178C203.124 142.178 201.763 142.775 200.812 143.97C199.861 145.164 199.385 146.856 199.385 149.046C199.385 151.214 199.861 152.895 200.812 154.089C201.763 155.284 203.112 155.881 204.86 155.881ZM216.964 133.02H218.954V157.441H216.964V133.02ZM224.513 140.818H226.504V157.441H224.513V140.818ZM226.902 133.949V136.537H224.215V133.949H226.902ZM246.165 140.818V157.441H244.141V154.255C243.654 155.361 242.913 156.213 241.918 156.81C240.944 157.385 239.772 157.673 238.4 157.673C236.918 157.673 235.613 157.33 234.485 156.644C233.379 155.936 232.517 154.941 231.897 153.658C231.3 152.353 231.001 150.838 231.001 149.112C231.001 147.387 231.311 145.872 231.93 144.567C232.55 143.24 233.412 142.222 234.518 141.514C235.647 140.784 236.941 140.419 238.4 140.419C239.75 140.419 240.911 140.707 241.884 141.282C242.88 141.857 243.632 142.698 244.141 143.804V140.818H246.165ZM238.699 155.881C240.424 155.881 241.763 155.284 242.714 154.089C243.665 152.895 244.141 151.214 244.141 149.046C244.141 146.856 243.665 145.164 242.714 143.97C241.763 142.775 240.413 142.178 238.666 142.178C236.918 142.178 235.558 142.797 234.585 144.036C233.612 145.253 233.125 146.945 233.125 149.112C233.125 151.258 233.612 152.928 234.585 154.123C235.558 155.295 236.929 155.881 238.699 155.881ZM259.398 140.419C263.401 140.419 265.403 142.565 265.403 146.856V157.441H263.379V146.989C263.379 145.33 263.036 144.113 262.351 143.339C261.687 142.565 260.636 142.178 259.199 142.178C257.54 142.178 256.201 142.687 255.184 143.704C254.166 144.722 253.658 146.093 253.658 147.818V157.441H251.667V145.429C251.667 143.704 251.578 142.167 251.401 140.818H253.326L253.591 143.87C254.1 142.742 254.863 141.89 255.881 141.315C256.898 140.718 258.07 140.419 259.398 140.419ZM277.584 157.673C276.014 157.673 274.642 157.319 273.47 156.611C272.298 155.903 271.391 154.908 270.749 153.625C270.108 152.32 269.787 150.816 269.787 149.112C269.787 147.387 270.108 145.872 270.749 144.567C271.391 143.24 272.309 142.222 273.503 141.514C274.698 140.784 276.08 140.419 277.651 140.419C278.779 140.419 279.852 140.618 280.869 141.017C281.909 141.393 282.76 141.924 283.424 142.609L282.628 144.202C281.765 143.494 280.935 142.985 280.139 142.676C279.365 142.344 278.558 142.178 277.717 142.178C275.925 142.178 274.51 142.797 273.47 144.036C272.43 145.253 271.911 146.945 271.911 149.112C271.911 151.236 272.419 152.895 273.437 154.089C274.476 155.284 275.903 155.881 277.717 155.881C278.558 155.881 279.365 155.726 280.139 155.417C280.935 155.085 281.765 154.576 282.628 153.89L283.424 155.45C282.716 156.135 281.831 156.677 280.77 157.076C279.73 157.474 278.668 157.673 277.584 157.673ZM288.176 148.88V148.98C288.176 151.214 288.684 152.928 289.702 154.123C290.741 155.295 292.246 155.881 294.214 155.881C296.205 155.881 298.03 155.195 299.689 153.824L300.485 155.417C299.755 156.102 298.826 156.655 297.698 157.076C296.57 157.474 295.409 157.673 294.214 157.673C291.693 157.673 289.702 156.91 288.242 155.383C286.782 153.857 286.052 151.756 286.052 149.079C286.052 147.376 286.373 145.872 287.014 144.567C287.678 143.24 288.596 142.222 289.768 141.514C290.941 140.784 292.29 140.419 293.816 140.419C296.006 140.419 297.709 141.127 298.926 142.543C300.165 143.959 300.784 145.927 300.784 148.449V148.88H288.176ZM293.816 142.078C292.29 142.078 291.051 142.543 290.1 143.472C289.149 144.379 288.552 145.662 288.308 147.321H298.859C298.727 145.618 298.229 144.324 297.366 143.439C296.504 142.532 295.32 142.078 293.816 142.078Z" fill="#9E5A63"/>
<path d="M147.859 182.292V198.982C147.859 201.393 147.262 203.217 146.068 204.456C144.873 205.695 143.115 206.314 140.792 206.314C138.315 206.314 136.158 205.717 134.322 204.523L134.72 202.764C135.804 203.406 136.799 203.859 137.706 204.124C138.613 204.39 139.653 204.523 140.825 204.523C142.484 204.523 143.734 204.069 144.575 203.162C145.437 202.255 145.869 200.928 145.869 199.181V194.9C145.36 196.029 144.608 196.902 143.612 197.522C142.617 198.119 141.422 198.417 140.029 198.417C138.569 198.417 137.275 198.075 136.147 197.389C135.019 196.681 134.134 195.708 133.493 194.469C132.873 193.208 132.563 191.77 132.563 190.156C132.563 188.519 132.873 187.081 133.493 185.842C134.134 184.582 135.019 183.608 136.147 182.923C137.275 182.237 138.569 181.894 140.029 181.894C141.422 181.894 142.606 182.182 143.579 182.757C144.575 183.332 145.327 184.172 145.835 185.278V182.292H147.859ZM140.294 196.593C142.02 196.593 143.369 196.017 144.342 194.867C145.338 193.717 145.835 192.147 145.835 190.156C145.835 188.143 145.338 186.561 144.342 185.411C143.369 184.239 142.02 183.652 140.294 183.652C138.547 183.652 137.175 184.239 136.18 185.411C135.185 186.561 134.687 188.143 134.687 190.156C134.687 192.169 135.185 193.75 136.18 194.9C137.175 196.029 138.547 196.593 140.294 196.593ZM153.357 174.495H155.348V198.915H153.357V174.495ZM167.51 199.147C165.984 199.147 164.634 198.794 163.462 198.086C162.312 197.378 161.416 196.371 160.775 195.066C160.155 193.761 159.846 192.246 159.846 190.521C159.846 188.795 160.155 187.28 160.775 185.975C161.416 184.67 162.312 183.664 163.462 182.956C164.634 182.248 165.984 181.894 167.51 181.894C169.014 181.894 170.341 182.248 171.492 182.956C172.642 183.664 173.527 184.67 174.146 185.975C174.787 187.28 175.108 188.795 175.108 190.521C175.108 192.246 174.787 193.761 174.146 195.066C173.527 196.371 172.642 197.378 171.492 198.086C170.341 198.794 169.014 199.147 167.51 199.147ZM167.477 197.356C169.246 197.356 170.607 196.77 171.558 195.597C172.531 194.403 173.018 192.711 173.018 190.521C173.018 188.353 172.531 186.672 171.558 185.477C170.585 184.261 169.235 183.652 167.51 183.652C165.763 183.652 164.402 184.261 163.429 185.477C162.456 186.672 161.969 188.353 161.969 190.521C161.969 192.733 162.445 194.425 163.396 195.597C164.347 196.77 165.707 197.356 167.477 197.356ZM187.303 181.894C188.763 181.894 190.057 182.248 191.185 182.956C192.313 183.664 193.176 184.659 193.773 185.942C194.393 187.225 194.702 188.729 194.702 190.454C194.702 192.18 194.393 193.706 193.773 195.033C193.154 196.338 192.28 197.356 191.152 198.086C190.046 198.794 188.763 199.147 187.303 199.147C185.932 199.147 184.748 198.849 183.753 198.252C182.78 197.654 182.05 196.792 181.563 195.664V198.915H179.539V174.495H181.53V185.411C182.016 184.261 182.757 183.387 183.753 182.79C184.748 182.193 185.932 181.894 187.303 181.894ZM187.071 197.356C188.796 197.356 190.146 196.747 191.119 195.531C192.092 194.314 192.579 192.622 192.579 190.454C192.579 188.309 192.092 186.639 191.119 185.444C190.146 184.25 188.785 183.652 187.038 183.652C185.29 183.652 183.941 184.25 182.99 185.444C182.039 186.639 181.563 188.331 181.563 190.521C181.563 192.711 182.039 194.403 182.99 195.597C183.941 196.77 185.301 197.356 187.071 197.356ZM213.244 182.292V198.915H211.22V195.73C210.734 196.836 209.993 197.688 208.997 198.285C208.024 198.86 206.851 199.147 205.48 199.147C203.998 199.147 202.693 198.805 201.565 198.119C200.459 197.411 199.596 196.416 198.977 195.133C198.38 193.828 198.081 192.312 198.081 190.587C198.081 188.862 198.391 187.347 199.01 186.041C199.629 184.714 200.492 183.697 201.598 182.989C202.726 182.259 204.02 181.894 205.48 181.894C206.829 181.894 207.991 182.182 208.964 182.757C209.959 183.332 210.711 184.172 211.22 185.278V182.292H213.244ZM205.779 197.356C207.504 197.356 208.842 196.758 209.793 195.564C210.745 194.37 211.22 192.688 211.22 190.521C211.22 188.331 210.745 186.639 209.793 185.444C208.842 184.25 207.493 183.652 205.745 183.652C203.998 183.652 202.638 184.272 201.664 185.511C200.691 186.727 200.204 188.419 200.204 190.587C200.204 192.733 200.691 194.403 201.664 195.597C202.638 196.77 204.009 197.356 205.779 197.356ZM218.745 174.495H220.736V198.915H218.745V174.495Z" fill="#B5C1CB"/>
<path d="M107.871 244.584C106.074 244.584 104.254 244.123 102.586 243.15L0 183.486L101.922 113.592C106.715 110.303 113.262 111.521 116.555 116.303C119.848 121.088 118.629 127.631 113.84 130.916L39.3086 182.029L113.18 224.99C118.199 227.912 119.902 234.346 116.977 239.361C115.023 242.717 111.496 244.584 107.871 244.584Z" fill="#314455"/>
<path d="M107.871 132.842C106.074 132.842 104.254 132.385 102.586 131.412L0 71.7481L101.922 1.84967C106.715 -1.43939 113.262 -0.224552 116.555 4.56061C119.848 9.34576 118.629 15.8848 113.84 19.1739L39.3086 70.2872L113.18 113.248C118.199 116.17 119.902 122.6 116.977 127.619C115.023 130.971 111.496 132.842 107.871 132.842Z" fill="#314455"/>
<path d="M107.871 257.795C106.074 257.795 104.254 257.334 102.586 256.361L0 196.697L101.922 126.803C106.715 123.514 113.262 124.732 116.555 129.514C119.848 134.299 118.629 140.838 113.84 144.127L39.3086 195.24L113.18 238.201C118.199 241.123 119.902 247.553 116.977 252.572C115.023 255.928 111.496 257.795 107.871 257.795Z" fill="#B5C1CB"/>
<path d="M107.871 146.053C106.074 146.053 104.254 145.592 102.586 144.623L0 84.959L101.922 15.0606C106.715 11.7715 113.262 12.9864 116.555 17.7715C119.848 22.5567 118.629 29.0958 113.84 32.3848L39.3086 83.4981L113.18 126.459C118.199 129.381 119.902 135.811 116.977 140.83C115.023 144.182 111.496 146.053 107.871 146.053Z" fill="#9E5A63"/>
</svg>
