<svg width="513" height="258" viewBox="0 0 513 258" fill="none" xmlns="http://www.w3.org/2000/svg">
<path d="M107.871 244.584C106.074 244.584 104.254 244.123 102.586 243.15L0 183.486L101.922 113.592C106.715 110.303 113.262 111.522 116.555 116.303C119.848 121.088 118.629 127.631 113.84 130.916L39.3086 182.029L113.18 224.99C118.199 227.912 119.902 234.346 116.977 239.361C115.023 242.717 111.496 244.584 107.871 244.584Z" fill="#314455"/>
<path d="M107.871 132.842C106.074 132.842 104.254 132.385 102.586 131.412L0 71.7481L101.922 1.84967C106.715 -1.43939 113.262 -0.224555 116.555 4.56061C119.848 9.34576 118.629 15.8848 113.84 19.1739L39.3086 70.2872L113.18 113.248C118.199 116.17 119.902 122.6 116.977 127.619C115.023 130.971 111.496 132.842 107.871 132.842Z" fill="#314455"/>
<path d="M107.871 257.795C106.074 257.795 104.254 257.334 102.586 256.361L0 196.697L101.922 126.803C106.715 123.514 113.262 124.732 116.555 129.514C119.848 134.299 118.629 140.838 113.84 144.127L39.3086 195.24L113.18 238.201C118.199 241.123 119.902 247.553 116.977 252.572C115.023 255.928 111.496 257.795 107.871 257.795Z" fill="#B5C1CB"/>
<path d="M107.871 146.053C106.074 146.053 104.254 145.592 102.586 144.623L0 84.959L101.922 15.0606C106.715 11.7715 113.262 12.9864 116.555 17.7715C119.848 22.5567 118.629 29.0958 113.84 32.3848L39.3086 83.4981L113.18 126.459C118.199 129.381 119.902 135.811 116.977 140.83C115.023 144.182 111.496 146.053 107.871 146.053Z" fill="#9E5A63"/>
<path d="M172.792 58.9521L164.056 83.0001H161.032L153.736 62.6961L146.392 83.0001H143.32L134.632 58.9521H137.752L144.856 79.4961L152.344 58.9521H155.272L162.52 79.4961L169.816 58.9521H172.792ZM189.659 83.3361C187.451 83.3361 185.499 82.8241 183.803 81.8001C182.139 80.7761 180.843 79.3201 179.915 77.4321C179.019 75.5441 178.571 73.3521 178.571 70.8561C178.571 68.3601 179.019 66.1681 179.915 64.2801C180.843 62.3921 182.139 60.9361 183.803 59.9121C185.499 58.8881 187.451 58.3761 189.659 58.3761C191.835 58.3761 193.755 58.8881 195.419 59.9121C197.083 60.9361 198.363 62.3921 199.259 64.2801C200.187 66.1681 200.651 68.3601 200.651 70.8561C200.651 73.3521 200.187 75.5441 199.259 77.4321C198.363 79.3201 197.083 80.7761 195.419 81.8001C193.755 82.8241 191.835 83.3361 189.659 83.3361ZM189.611 80.7441C192.171 80.7441 194.139 79.8961 195.515 78.2001C196.923 76.4721 197.627 74.0241 197.627 70.8561C197.627 67.7201 196.923 65.2881 195.515 63.5601C194.107 61.8001 192.155 60.9201 189.659 60.9201C187.131 60.9201 185.163 61.8001 183.755 63.5601C182.347 65.2881 181.643 67.7201 181.643 70.8561C181.643 74.0561 182.331 76.5041 183.707 78.2001C185.083 79.8961 187.051 80.7441 189.611 80.7441ZM234.9 58.3761C240.212 58.3761 242.868 61.4801 242.868 67.6881V83.0001H239.94V67.8801C239.94 65.4481 239.508 63.6881 238.644 62.6001C237.78 61.4801 236.404 60.9201 234.516 60.9201C232.308 60.9201 230.564 61.6561 229.284 63.1281C228.036 64.6001 227.412 66.6001 227.412 69.1281V83.0001H224.484V67.8801C224.484 65.4481 224.036 63.6881 223.14 62.6001C222.276 61.4801 220.9 60.9201 219.012 60.9201C216.836 60.9201 215.092 61.6561 213.78 63.1281C212.5 64.6001 211.86 66.6001 211.86 69.1281V83.0001H208.98V65.6241C208.98 63.1281 208.852 60.9041 208.596 58.9521H211.38L211.764 63.2721C212.436 61.6721 213.428 60.4561 214.74 59.6241C216.084 58.7921 217.636 58.3761 219.396 58.3761C223.268 58.3761 225.748 59.9441 226.836 63.0801C227.508 61.6081 228.548 60.4561 229.956 59.6241C231.396 58.7921 233.044 58.3761 234.9 58.3761ZM254.155 70.6161V70.7601C254.155 73.9921 254.891 76.4721 256.363 78.2001C257.867 79.8961 260.043 80.7441 262.891 80.7441C265.771 80.7441 268.411 79.7521 270.811 77.7681L271.963 80.0721C270.907 81.0641 269.563 81.8641 267.931 82.4721C266.299 83.0481 264.619 83.3361 262.891 83.3361C259.243 83.3361 256.363 82.2321 254.251 80.0241C252.139 77.8161 251.083 74.7761 251.083 70.9041C251.083 68.4401 251.547 66.2641 252.475 64.3761C253.435 62.4561 254.763 60.9841 256.459 59.9601C258.155 58.9041 260.107 58.3761 262.315 58.3761C265.483 58.3761 267.947 59.4001 269.707 61.4481C271.499 63.4961 272.395 66.3441 272.395 69.9921V70.6161H254.155ZM262.315 60.7761C260.107 60.7761 258.315 61.4481 256.939 62.7921C255.563 64.1041 254.699 65.9601 254.347 68.3601H269.611C269.419 65.8961 268.699 64.0241 267.451 62.7441C266.203 61.4321 264.491 60.7761 262.315 60.7761ZM291.785 58.3761C297.577 58.3761 300.473 61.4801 300.473 67.6881V83.0001H297.545V67.8801C297.545 65.4801 297.049 63.7201 296.057 62.6001C295.097 61.4801 293.577 60.9201 291.497 60.9201C289.097 60.9201 287.161 61.6561 285.689 63.1281C284.217 64.6001 283.481 66.5841 283.481 69.0801V83.0001H280.601V65.6241C280.601 63.1281 280.473 60.9041 280.217 58.9521H283.001L283.385 63.3681C284.121 61.7361 285.225 60.5041 286.697 59.6721C288.169 58.8081 289.865 58.3761 291.785 58.3761ZM324.426 58.9521H327.306V83.0001H324.426V58.9521ZM327.882 49.0161V52.7601H323.994V49.0161H327.882ZM348.452 58.3761C354.244 58.3761 357.14 61.4801 357.14 67.6881V83.0001H354.212V67.8801C354.212 65.4801 353.716 63.7201 352.724 62.6001C351.764 61.4801 350.244 60.9201 348.164 60.9201C345.764 60.9201 343.828 61.6561 342.356 63.1281C340.884 64.6001 340.148 66.5841 340.148 69.0801V83.0001H337.268V65.6241C337.268 63.1281 337.14 60.9041 336.884 58.9521H339.668L340.052 63.3681C340.788 61.7361 341.892 60.5041 343.364 59.6721C344.836 58.8081 346.532 58.3761 348.452 58.3761ZM382.628 70.6161V70.7601C382.628 73.9921 383.364 76.4721 384.836 78.2001C386.34 79.8961 388.516 80.7441 391.364 80.7441C394.244 80.7441 396.884 79.7521 399.284 77.7681L400.436 80.0721C399.38 81.0641 398.036 81.8641 396.404 82.4721C394.772 83.0481 393.092 83.3361 391.364 83.3361C387.716 83.3361 384.836 82.2321 382.724 80.0241C380.612 77.8161 379.556 74.7761 379.556 70.9041C379.556 68.4401 380.02 66.2641 380.948 64.3761C381.908 62.4561 383.236 60.9841 384.932 59.9601C386.628 58.9041 388.58 58.3761 390.788 58.3761C393.956 58.3761 396.42 59.4001 398.18 61.4481C399.972 63.4961 400.868 66.3441 400.868 69.9921V70.6161H382.628ZM390.788 60.7761C388.58 60.7761 386.788 61.4481 385.412 62.7921C384.036 64.1041 383.172 65.9601 382.82 68.3601H398.084C397.892 65.8961 397.172 64.0241 395.924 62.7441C394.676 61.4321 392.964 60.7761 390.788 60.7761ZM413.108 61.3041V75.6081C413.108 77.5281 413.476 78.8561 414.212 79.5921C414.948 80.3281 416.036 80.6961 417.476 80.6961C418.372 80.6961 419.236 80.5521 420.068 80.2641V82.9041C419.044 83.1601 418.004 83.2881 416.948 83.2881C414.836 83.2881 413.172 82.6961 411.956 81.5121C410.772 80.3281 410.18 78.5521 410.18 76.1841V61.3041H405.428V58.9521H410.18V52.5681L413.108 51.4641V58.9521H420.212V61.3041H413.108ZM438.304 58.3761C444.096 58.3761 446.992 61.4801 446.992 67.6881V83.0001H444.064V67.8801C444.064 65.4801 443.568 63.7201 442.576 62.6001C441.616 61.4801 440.096 60.9201 438.016 60.9201C435.616 60.9201 433.68 61.6561 432.208 63.1281C430.736 64.6001 430 66.5841 430 69.0801V83.0001H427.12V47.6721H430V63.1281C430.768 61.5601 431.872 60.3761 433.312 59.5761C434.752 58.7761 436.416 58.3761 438.304 58.3761ZM456.79 58.9521H459.67V83.0001H456.79V58.9521ZM460.246 49.0161V52.7601H456.358V49.0161H460.246ZM479.375 83.3361C477.103 83.3361 475.119 82.8241 473.423 81.8001C471.727 80.7761 470.415 79.3361 469.487 77.4801C468.559 75.5921 468.095 73.4161 468.095 70.9521C468.095 68.4561 468.559 66.2641 469.487 64.3761C470.415 62.4561 471.743 60.9841 473.471 59.9601C475.199 58.9041 477.199 58.3761 479.471 58.3761C481.103 58.3761 482.655 58.6641 484.127 59.2401C485.631 59.7841 486.863 60.5521 487.823 61.5441L486.671 63.8481C485.423 62.8241 484.223 62.0881 483.071 61.6401C481.951 61.1601 480.783 60.9201 479.567 60.9201C476.975 60.9201 474.927 61.8161 473.423 63.6081C471.919 65.3681 471.167 67.8161 471.167 70.9521C471.167 74.0241 471.903 76.4241 473.375 78.1521C474.879 79.8801 476.943 80.7441 479.567 80.7441C480.783 80.7441 481.951 80.5201 483.071 80.0721C484.223 79.5921 485.423 78.8561 486.671 77.8641L487.823 80.1201C486.799 81.1121 485.519 81.8961 483.983 82.4721C482.479 83.0481 480.943 83.3361 479.375 83.3361ZM502.907 83.3361C499.003 83.3361 495.915 82.2641 493.643 80.1201L494.699 77.8641C495.979 78.9201 497.259 79.6721 498.539 80.1201C499.851 80.5681 501.355 80.7921 503.051 80.7921C505.035 80.7921 506.539 80.4561 507.563 79.7841C508.619 79.0801 509.147 78.0721 509.147 76.7601C509.147 75.6721 508.795 74.8241 508.091 74.2161C507.419 73.5761 506.299 73.0641 504.731 72.6801L500.651 71.7681C498.731 71.3201 497.211 70.5201 496.091 69.3681C495.003 68.2161 494.459 66.8721 494.459 65.3361C494.459 63.2241 495.259 61.5441 496.859 60.2961C498.491 59.0161 500.651 58.3761 503.339 58.3761C505.035 58.3761 506.603 58.6481 508.043 59.1921C509.515 59.7361 510.731 60.5201 511.691 61.5441L510.587 63.8001C508.379 61.8801 505.963 60.9201 503.339 60.9201C501.483 60.9201 500.043 61.2881 499.019 62.0241C497.995 62.7601 497.483 63.7841 497.483 65.0961C497.483 66.1841 497.803 67.0641 498.443 67.7361C499.115 68.4081 500.139 68.9041 501.515 69.2241L505.643 70.2321C509.963 71.1921 512.123 73.3201 512.123 76.6161C512.123 78.6321 511.291 80.2641 509.627 81.5121C507.963 82.7281 505.723 83.3361 502.907 83.3361ZM158.344 140.424C160.04 142.312 162.264 143.96 165.016 145.368L163.288 147.384C160.664 146.04 158.488 144.456 156.76 142.632C155.416 144.168 153.88 145.336 152.152 146.136C150.424 146.936 148.52 147.336 146.44 147.336C144.36 147.336 142.504 146.984 140.872 146.28C139.272 145.544 138.024 144.52 137.128 143.208C136.264 141.864 135.832 140.328 135.832 138.6C135.832 136.552 136.456 134.696 137.704 133.032C138.984 131.368 141.08 129.64 143.992 127.848C142.424 125.96 141.336 124.44 140.728 123.288C140.152 122.136 139.864 120.936 139.864 119.688C139.864 117.512 140.584 115.768 142.024 114.456C143.496 113.144 145.432 112.488 147.832 112.488C150.072 112.488 151.848 113.08 153.16 114.264C154.472 115.448 155.128 117.064 155.128 119.112C155.128 120.776 154.616 122.264 153.592 123.576C152.568 124.856 150.696 126.408 147.976 128.232L156.568 138.312C158.136 135.368 158.968 131.656 159.064 127.176H161.848C161.72 132.456 160.552 136.872 158.344 140.424ZM142.84 119.688C142.84 120.68 143.08 121.624 143.56 122.52C144.04 123.416 144.968 124.696 146.344 126.36C148.648 124.856 150.216 123.608 151.048 122.616C151.912 121.592 152.344 120.488 152.344 119.304C152.344 117.992 151.928 116.936 151.096 116.136C150.296 115.336 149.208 114.936 147.832 114.936C146.328 114.936 145.112 115.384 144.184 116.28C143.288 117.144 142.84 118.28 142.84 119.688ZM146.584 144.84C150.008 144.84 152.84 143.464 155.08 140.712L145.672 129.72C143.112 131.352 141.32 132.824 140.296 134.136C139.272 135.448 138.76 136.92 138.76 138.552C138.76 140.472 139.464 142.008 140.872 143.16C142.28 144.28 144.184 144.84 146.584 144.84ZM194.631 147.336C192.359 147.336 190.375 146.824 188.679 145.8C186.983 144.776 185.671 143.336 184.743 141.48C183.815 139.592 183.351 137.416 183.351 134.952C183.351 132.456 183.815 130.264 184.743 128.376C185.671 126.456 186.999 124.984 188.727 123.96C190.455 122.904 192.455 122.376 194.727 122.376C196.359 122.376 197.911 122.664 199.383 123.24C200.887 123.784 202.119 124.552 203.079 125.544L201.927 127.848C200.679 126.824 199.479 126.088 198.327 125.64C197.207 125.16 196.039 124.92 194.823 124.92C192.231 124.92 190.183 125.816 188.679 127.608C187.175 129.368 186.423 131.816 186.423 134.952C186.423 138.024 187.159 140.424 188.631 142.152C190.135 143.88 192.199 144.744 194.823 144.744C196.039 144.744 197.207 144.52 198.327 144.072C199.479 143.592 200.679 142.856 201.927 141.864L203.079 144.12C202.055 145.112 200.775 145.896 199.239 146.472C197.735 147.048 196.199 147.336 194.631 147.336ZM219.89 147.336C217.682 147.336 215.73 146.824 214.034 145.8C212.37 144.776 211.074 143.32 210.146 141.432C209.25 139.544 208.802 137.352 208.802 134.856C208.802 132.36 209.25 130.168 210.146 128.28C211.074 126.392 212.37 124.936 214.034 123.912C215.73 122.888 217.682 122.376 219.89 122.376C222.066 122.376 223.986 122.888 225.65 123.912C227.314 124.936 228.594 126.392 229.49 128.28C230.418 130.168 230.882 132.36 230.882 134.856C230.882 137.352 230.418 139.544 229.49 141.432C228.594 143.32 227.314 144.776 225.65 145.8C223.986 146.824 222.066 147.336 219.89 147.336ZM219.842 144.744C222.402 144.744 224.37 143.896 225.746 142.2C227.154 140.472 227.858 138.024 227.858 134.856C227.858 131.72 227.154 129.288 225.746 127.56C224.338 125.8 222.386 124.92 219.89 124.92C217.362 124.92 215.394 125.8 213.986 127.56C212.578 129.288 211.874 131.72 211.874 134.856C211.874 138.056 212.562 140.504 213.938 142.2C215.314 143.896 217.282 144.744 219.842 144.744ZM265.131 122.376C270.443 122.376 273.099 125.48 273.099 131.688V147H270.171V131.88C270.171 129.448 269.739 127.688 268.875 126.6C268.011 125.48 266.635 124.92 264.747 124.92C262.539 124.92 260.795 125.656 259.515 127.128C258.267 128.6 257.643 130.6 257.643 133.128V147H254.715V131.88C254.715 129.448 254.267 127.688 253.371 126.6C252.507 125.48 251.131 124.92 249.243 124.92C247.067 124.92 245.323 125.656 244.011 127.128C242.731 128.6 242.091 130.6 242.091 133.128V147H239.211V129.624C239.211 127.128 239.083 124.904 238.827 122.952H241.611L241.995 127.272C242.667 125.672 243.659 124.456 244.971 123.624C246.315 122.792 247.867 122.376 249.627 122.376C253.499 122.376 255.979 123.944 257.067 127.08C257.739 125.608 258.779 124.456 260.187 123.624C261.627 122.792 263.275 122.376 265.131 122.376ZM294.082 122.376C296.194 122.376 298.05 122.904 299.65 123.96C301.282 124.984 302.546 126.456 303.442 128.376C304.338 130.264 304.786 132.456 304.786 134.952C304.786 137.448 304.338 139.624 303.442 141.48C302.578 143.336 301.33 144.776 299.698 145.8C298.066 146.824 296.194 147.336 294.082 147.336C292.066 147.336 290.338 146.904 288.898 146.04C287.49 145.144 286.434 143.864 285.73 142.2V157.368H282.85V129.624C282.85 127.128 282.722 124.904 282.466 122.952H285.25L285.634 127.656C286.338 125.96 287.41 124.664 288.85 123.768C290.322 122.84 292.066 122.376 294.082 122.376ZM293.698 144.744C296.226 144.744 298.194 143.896 299.602 142.2C301.01 140.472 301.714 138.056 301.714 134.952C301.714 131.816 301.01 129.368 299.602 127.608C298.194 125.816 296.242 124.92 293.746 124.92C291.186 124.92 289.218 125.784 287.842 127.512C286.466 129.24 285.778 131.688 285.778 134.856C285.778 137.992 286.466 140.424 287.842 142.152C289.218 143.88 291.17 144.744 293.698 144.744ZM313.129 111.672H316.009V147H313.129V111.672ZM325.971 122.952H328.851V147H325.971V122.952ZM329.427 113.016V116.76H325.539V113.016H329.427ZM359.213 122.952V147H356.285V142.392C355.581 143.992 354.509 145.224 353.069 146.088C351.661 146.92 349.965 147.336 347.981 147.336C345.837 147.336 343.949 146.84 342.317 145.848C340.717 144.824 339.469 143.384 338.573 141.528C337.709 139.64 337.277 137.448 337.277 134.952C337.277 132.456 337.725 130.264 338.621 128.376C339.517 126.456 340.765 124.984 342.365 123.96C343.997 122.904 345.869 122.376 347.981 122.376C349.933 122.376 351.613 122.792 353.021 123.624C354.461 124.456 355.549 125.672 356.285 127.272V122.952H359.213ZM348.413 144.744C350.909 144.744 352.845 143.88 354.221 142.152C355.597 140.424 356.285 137.992 356.285 134.856C356.285 131.688 355.597 129.24 354.221 127.512C352.845 125.784 350.893 124.92 348.365 124.92C345.837 124.92 343.869 125.816 342.461 127.608C341.053 129.368 340.349 131.816 340.349 134.952C340.349 138.056 341.053 140.472 342.461 142.2C343.869 143.896 345.853 144.744 348.413 144.744ZM380.276 122.376C386.068 122.376 388.964 125.48 388.964 131.688V147H386.036V131.88C386.036 129.48 385.54 127.72 384.548 126.6C383.588 125.48 382.068 124.92 379.988 124.92C377.588 124.92 375.652 125.656 374.18 127.128C372.708 128.6 371.972 130.584 371.972 133.08V147H369.092V129.624C369.092 127.128 368.964 124.904 368.708 122.952H371.492L371.876 127.368C372.612 125.736 373.716 124.504 375.188 123.672C376.66 122.808 378.356 122.376 380.276 122.376ZM408.506 147.336C406.234 147.336 404.25 146.824 402.554 145.8C400.858 144.776 399.546 143.336 398.618 141.48C397.69 139.592 397.226 137.416 397.226 134.952C397.226 132.456 397.69 130.264 398.618 128.376C399.546 126.456 400.874 124.984 402.602 123.96C404.33 122.904 406.33 122.376 408.602 122.376C410.234 122.376 411.786 122.664 413.258 123.24C414.762 123.784 415.994 124.552 416.954 125.544L415.802 127.848C414.554 126.824 413.354 126.088 412.202 125.64C411.082 125.16 409.914 124.92 408.698 124.92C406.106 124.92 404.058 125.816 402.554 127.608C401.05 129.368 400.298 131.816 400.298 134.952C400.298 138.024 401.034 140.424 402.506 142.152C404.01 143.88 406.074 144.744 408.698 144.744C409.914 144.744 411.082 144.52 412.202 144.072C413.354 143.592 414.554 142.856 415.802 141.864L416.954 144.12C415.93 145.112 414.65 145.896 413.114 146.472C411.61 147.048 410.074 147.336 408.506 147.336ZM425.749 134.616V134.76C425.749 137.992 426.485 140.472 427.957 142.2C429.461 143.896 431.637 144.744 434.485 144.744C437.365 144.744 440.005 143.752 442.405 141.768L443.557 144.072C442.501 145.064 441.157 145.864 439.525 146.472C437.893 147.048 436.213 147.336 434.485 147.336C430.837 147.336 427.957 146.232 425.845 144.024C423.733 141.816 422.677 138.776 422.677 134.904C422.677 132.44 423.141 130.264 424.069 128.376C425.029 126.456 426.357 124.984 428.053 123.96C429.749 122.904 431.701 122.376 433.909 122.376C437.077 122.376 439.541 123.4 441.301 125.448C443.093 127.496 443.989 130.344 443.989 133.992V134.616H425.749ZM433.909 124.776C431.701 124.776 429.909 125.448 428.533 126.792C427.157 128.104 426.293 129.96 425.941 132.36H441.205C441.013 129.896 440.293 128.024 439.045 126.744C437.797 125.432 436.085 124.776 433.909 124.776Z" fill="#9E5A63"/>
<path d="M157.576 186.952V211.096C157.576 214.584 156.712 217.224 154.984 219.016C153.256 220.808 150.712 221.704 147.352 221.704C143.768 221.704 140.648 220.84 137.992 219.112L138.568 216.568C140.136 217.496 141.576 218.152 142.888 218.536C144.2 218.92 145.704 219.112 147.4 219.112C149.8 219.112 151.608 218.456 152.824 217.144C154.072 215.832 154.696 213.912 154.696 211.384V205.192C153.96 206.824 152.872 208.088 151.432 208.984C149.992 209.848 148.264 210.28 146.248 210.28C144.136 210.28 142.264 209.784 140.632 208.792C139 207.768 137.72 206.36 136.792 204.568C135.896 202.744 135.448 200.664 135.448 198.328C135.448 195.96 135.896 193.88 136.792 192.088C137.72 190.264 139 188.856 140.632 187.864C142.264 186.872 144.136 186.376 146.248 186.376C148.264 186.376 149.976 186.792 151.384 187.624C152.824 188.456 153.912 189.672 154.648 191.272V186.952H157.576ZM146.632 207.64C149.128 207.64 151.08 206.808 152.488 205.144C153.928 203.48 154.648 201.208 154.648 198.328C154.648 195.416 153.928 193.128 152.488 191.464C151.08 189.768 149.128 188.92 146.632 188.92C144.104 188.92 142.12 189.768 140.68 191.464C139.24 193.128 138.52 195.416 138.52 198.328C138.52 201.24 139.24 203.528 140.68 205.192C142.12 206.824 144.104 207.64 146.632 207.64ZM167.451 175.672H170.331V211H167.451V175.672ZM189.845 211.336C187.637 211.336 185.685 210.824 183.989 209.8C182.325 208.776 181.029 207.32 180.101 205.432C179.205 203.544 178.757 201.352 178.757 198.856C178.757 196.36 179.205 194.168 180.101 192.28C181.029 190.392 182.325 188.936 183.989 187.912C185.685 186.888 187.637 186.376 189.845 186.376C192.021 186.376 193.941 186.888 195.605 187.912C197.269 188.936 198.549 190.392 199.445 192.28C200.373 194.168 200.837 196.36 200.837 198.856C200.837 201.352 200.373 203.544 199.445 205.432C198.549 207.32 197.269 208.776 195.605 209.8C193.941 210.824 192.021 211.336 189.845 211.336ZM189.797 208.744C192.357 208.744 194.325 207.896 195.701 206.2C197.109 204.472 197.813 202.024 197.813 198.856C197.813 195.72 197.109 193.288 195.701 191.56C194.293 189.8 192.341 188.92 189.845 188.92C187.317 188.92 185.349 189.8 183.941 191.56C182.533 193.288 181.829 195.72 181.829 198.856C181.829 202.056 182.517 204.504 183.893 206.2C185.269 207.896 187.237 208.744 189.797 208.744ZM220.398 186.376C222.51 186.376 224.382 186.888 226.014 187.912C227.646 188.936 228.894 190.376 229.758 192.232C230.654 194.088 231.102 196.264 231.102 198.76C231.102 201.256 230.654 203.464 229.758 205.384C228.862 207.272 227.598 208.744 225.966 209.8C224.366 210.824 222.51 211.336 220.398 211.336C218.414 211.336 216.702 210.904 215.262 210.04C213.854 209.176 212.798 207.928 212.094 206.296V211H209.166V175.672H212.046V191.464C212.75 189.8 213.822 188.536 215.262 187.672C216.702 186.808 218.414 186.376 220.398 186.376ZM220.062 208.744C222.558 208.744 224.51 207.864 225.918 206.104C227.326 204.344 228.03 201.896 228.03 198.76C228.03 195.656 227.326 193.24 225.918 191.512C224.51 189.784 222.542 188.92 220.014 188.92C217.486 188.92 215.534 189.784 214.158 191.512C212.782 193.24 212.094 195.688 212.094 198.856C212.094 202.024 212.782 204.472 214.158 206.2C215.534 207.896 217.502 208.744 220.062 208.744ZM259.845 186.952V211H256.917V206.392C256.213 207.992 255.141 209.224 253.701 210.088C252.293 210.92 250.597 211.336 248.613 211.336C246.469 211.336 244.581 210.84 242.949 209.848C241.349 208.824 240.101 207.384 239.205 205.528C238.341 203.64 237.909 201.448 237.909 198.952C237.909 196.456 238.357 194.264 239.253 192.376C240.149 190.456 241.397 188.984 242.997 187.96C244.629 186.904 246.501 186.376 248.613 186.376C250.565 186.376 252.245 186.792 253.653 187.624C255.093 188.456 256.181 189.672 256.917 191.272V186.952H259.845ZM249.045 208.744C251.541 208.744 253.477 207.88 254.853 206.152C256.229 204.424 256.917 201.992 256.917 198.856C256.917 195.688 256.229 193.24 254.853 191.512C253.477 189.784 251.525 188.92 248.997 188.92C246.469 188.92 244.501 189.816 243.093 191.608C241.685 193.368 240.981 195.816 240.981 198.952C240.981 202.056 241.685 204.472 243.093 206.2C244.501 207.896 246.485 208.744 249.045 208.744ZM269.725 175.672H272.605V211H269.725V175.672Z" fill="#B5C1CB"/>
</svg>
