<svg width="948" height="533" viewBox="0 0 948 533" fill="none" xmlns="http://www.w3.org/2000/svg">
<path fill-rule="evenodd" clip-rule="evenodd" d="M570.28 125.825C320.837 92.9741 -172.623 355.466 61.2982 455.275C295.219 555.085 740.701 564.28 858.91 450.56C977.118 336.84 819.941 158.518 570.28 125.825Z" fill="#F4F3EA"/>
<path fill-rule="evenodd" clip-rule="evenodd" d="M123.9 33.1088L244.7 14.9088C258.3 12.8088 270.9 23.7088 272.6 39.0088L312.4 378.209C314.2 393.509 304.7 407.809 291 409.809L170.2 428.009C156.6 430.109 144 419.209 142.3 403.909L102.5 64.8088C100.6 49.3088 110.2 35.1088 123.9 33.1088Z" fill="#314455"/>
<path fill-rule="evenodd" clip-rule="evenodd" d="M143.9 41.8089C144.6 47.5089 149.2 51.6089 154.3 51.0089H154.6L219.3 41.2089C224.4 40.4089 227.9 35.3089 227.4 29.6089V29.3089L227.1 26.2089L246.1 23.4089C255.2 22.0089 263.6 29.2089 264.8 39.5089L304.8 379.909C306 390.209 299.6 399.609 290.5 401.009L168.7 419.309C159.6 420.709 151.2 413.509 150 403.209L109.8 62.7089C108.6 52.4089 115 43.0089 124.1 41.6089L143.6 38.6089L143.9 41.8089Z" fill="white"/>
<path fill-rule="evenodd" clip-rule="evenodd" d="M307.4 68.6089C304.9 84.5089 284.3 112.309 276 108.009C272.6 106.409 268.3 99.2089 265.2 89.8089L248 122.809L226.1 103.109L261.7 70.1089C261.4 60.7089 263.3 51.4089 269.2 44.0089C286 23.3089 309.9 52.7089 307.4 68.6089Z" fill="#E7AEB6"/>
<path fill-rule="evenodd" clip-rule="evenodd" d="M307.3 48.7089C296.5 28.5089 275.8 30.3089 272.8 30.8089C269.5 31.5089 266.6 33.2089 263.8 35.2089C260.8 37.4089 258 40.0089 255.7 43.0089C253.4 45.8089 251.1 49.0089 249.7 52.5089C248.4 55.8089 248 59.2089 249.1 62.5089C249.6 63.9089 250.3 65.5089 251 66.8089C251.7 68.1089 252.4 69.5089 253.3 70.6089C255 72.9089 257.5 74.9089 260.2 74.4089C261.2 74.3089 262.3 74.0089 263.5 73.5089C263.8 73.3089 264.1 73.3089 264.1 72.7089C264.2 72.2089 263.9 71.6089 263.9 71.2089C263.4 68.4089 263.8 65.4089 265.2 62.8089C266.7 60.2089 269.4 57.5089 272.3 58.3089C275.8 59.3089 277.6 63.3089 278.9 66.8089C282.7 63.8089 287 62.1089 291.4 63.2089C296.3 64.3089 300.4 67.7089 305.2 69.2089C306.4 69.6089 307.7 69.9089 309.1 69.6089C309.6 69.5089 310.3 69.3089 310.8 68.8089C311.4 68.3089 311.4 67.4089 311.5 66.6089C311.5 63.0089 311.4 56.3089 307.3 48.7089Z" fill="#18212A"/>
<path d="M271.8 40.8089C280.7 48.1089 293.5 45.9089 300.5 35.9089C307.4 25.8089 305.9 11.7089 296.9 4.30887C288 -2.99113 275.2 -0.791138 268.2 9.20886C261.3 19.3089 263 33.4089 271.8 40.8089Z" fill="#18212A"/>
<path fill-rule="evenodd" clip-rule="evenodd" d="M251.7 62.5089C237.5 71.3089 226.7 76.0089 219.5 76.6089C218.3 82.6089 222.6 89.7088 232.8 97.9088L258.7 73.8089L251.7 62.5089Z" fill="#18212A"/>
<path fill-rule="evenodd" clip-rule="evenodd" d="M141 196.309C139.9 228.809 265.4 341.009 266 343.909C266.2 345.109 248.5 380.909 212.7 451.209L224 457.909C275.3 385.309 300.3 344.509 298.9 336.109C296.9 323.709 265.9 280.109 205.9 205.109L141 196.309Z" fill="#E7AEB6"/>
<path fill-rule="evenodd" clip-rule="evenodd" d="M141 196.309C139.9 228.809 265.4 341.009 266 343.909C266.2 345.109 248.5 380.909 212.7 451.209L224 457.909C275.3 385.309 300.3 344.509 298.9 336.109C296.9 323.709 265.9 280.109 205.9 205.109L141 196.309Z" fill="black" fill-opacity="0.1"/>
<path fill-rule="evenodd" clip-rule="evenodd" d="M217.5 434.709L236 445.109C281.8 398.409 302 357.809 301.3 335.609C300.8 320.809 269.9 277.209 208.6 204.909L139.7 196.109C134.5 271.209 254.2 342.609 255.5 346.009C256.9 349.309 237.3 378.509 217.5 434.709Z" fill="#F8665D"/>
<path fill-rule="evenodd" clip-rule="evenodd" d="M208.6 447.909C205.9 450.709 204.1 453.209 203.3 454.809C202.4 456.909 201.3 460.209 200.2 464.709C202.4 465.909 222 477.009 259.3 497.909C263.4 493.109 263.9 489.509 260.7 487.209C257.7 484.909 255 482.909 253 481.309L231.7 452.209C231.3 451.709 230.5 451.509 230.1 452.009L226.2 455.809C222.4 455.709 219.6 455.109 217.7 454.009C216.2 453.109 214.2 451.309 212.1 448.309C211.3 447.209 209.9 447.009 208.7 447.909C208.6 447.809 208.6 447.809 208.6 447.909Z" fill="black"/>
<path fill-rule="evenodd" clip-rule="evenodd" d="M129.5 229.5L142 335C169.9 298.3 190.3 279.409 209 204.909L140 196.109C97.7 246.309 156.4 191.9 129.5 229.5Z" fill="#EC776F"/>
<path fill-rule="evenodd" clip-rule="evenodd" d="M150.3 149.209L173 162.609C118.9 211.309 90.7 236.809 88.3 239.209C82.8 244.609 83.2 257.709 82.9 264.509C74.2 264.009 81 251.109 69.9 250.609C59.7 250.209 50 254.209 43.6 242.209C42.8 240.809 43 236.909 47.2 236.409C57.6 235.009 73.3 231.009 76.4 228.509C80.3 225.009 105 198.509 150.3 149.209ZM353.5 239.709C346.9 241.309 340 243.309 339.8 246.209C339.6 249.009 344.3 250.709 343.3 254.609C342.7 257.209 335.6 253.609 322 243.609L281.9 239.009L284 214.009L327.9 231.809C338.5 231.509 347.6 232.309 355.3 234.509C357.3 235.409 360.1 238.009 353.5 239.709Z" fill="#E7AEB6"/>
<path fill-rule="evenodd" clip-rule="evenodd" d="M246.005 91.3145L263.205 103.014C246.905 150.214 257.905 192.514 315.705 214.314L296.305 276.014C243.005 254.114 209.505 205.814 228.605 139.514C233.505 122.414 239.405 104.814 246.005 91.3145Z" fill="#F26CBD"/>
<path fill-rule="evenodd" clip-rule="evenodd" d="M234.329 79.7145L258.129 102.514C234.229 154.314 233.529 196.114 223.729 238.514L223.429 239.714L150.629 197.114C143.529 209.814 136.529 223.114 129.829 237.014L75.229 205.114C121.729 138.314 174.229 96.1145 232.729 78.8145L234.329 79.7145Z" fill="#F486C8"/>
<path fill-rule="evenodd" clip-rule="evenodd" d="M194.029 128.814C177.129 160.414 166.829 185.914 163.029 205.414L148.229 196.614C162.029 172.114 176.729 149.714 192.929 130.014L194.029 128.814Z" fill="black" fill-opacity="0.1"/>
<path fill-rule="evenodd" clip-rule="evenodd" d="M776.329 276.5C792.329 305.8 810.829 334.2 822.129 366.1C821.629 362.3 821.229 358.5 820.729 354.7C817.929 334.8 814.329 314.8 810.629 295.2C808.729 285 806.729 275 804.729 265.1C803.429 259.6 802.329 254.1 801.229 248.9C800.829 247.5 800.729 245.3 800.329 243C811.229 281.9 821.529 320.9 829.329 360.9C830.329 366.2 831.229 371.3 831.829 376.5L832.529 372.9C835.529 358.7 840.329 344.5 845.729 331.2C848.329 324.8 851.529 318.6 855.029 312.8C857.229 309.2 862.529 304.9 864.629 301.1C853.529 323.3 849.429 351.4 843.129 375.6C841.629 381.5 840.029 387.4 838.429 393.4C848.129 372.1 863.229 354.6 884.029 347.1C858.729 365.5 843.629 397.4 833.229 430.2C833.229 430.6 833.129 431 833.129 431.4C836.129 425.2 839.829 419.5 845.129 415.5C856.129 407.1 868.429 409.5 879.029 416.7C870.629 411 855.529 416.3 848.429 422.2C843.329 426.5 839.129 432.1 835.229 437.6C834.329 439 833.029 440.4 831.729 442.2C829.929 455 827.029 467.7 822.829 480.6C823.429 477 823.029 471.2 823.229 468.5V467.3C822.629 470 821.929 472.8 821.429 475.5C822.529 470.4 823.229 464.9 823.629 459.6C823.729 457.3 823.829 454.9 824.029 452.6C824.029 448.2 823.829 443.7 823.529 439.2C822.529 434.8 821.329 430.8 820.529 427.4C817.129 415.1 812.429 403.4 806.229 392.3C800.729 382.3 794.129 373.2 786.529 365C782.429 360.6 778.129 356.3 773.929 352.2C772.429 350.7 769.629 346.9 767.229 345C784.529 355.3 802.029 366.6 814.629 383.4C813.129 377.2 811.629 371.1 809.929 365.2C801.829 335.1 790.929 303.6 776.329 276.5Z" fill="#314455"/>
<path fill-rule="evenodd" clip-rule="evenodd" d="M790.229 460C790.229 494.7 792.629 522.7 825.329 522.7C857.929 522.7 860.429 494.6 860.429 460H790.229Z" fill="#B5C1CB"/>
<path fill-rule="evenodd" clip-rule="evenodd" d="M631.135 207.959C635.641 203.519 638.921 197.882 639.034 191.255C639.361 172.158 612.575 174.025 606.599 183.155C600.623 192.286 599.11 216.638 605.602 218.93C608.192 219.845 613.981 218.665 620.026 215.705L614.193 240.893L635.478 242.753L631.135 207.959Z" fill="#57331F"/>
<path fill-rule="evenodd" clip-rule="evenodd" d="M623.885 205.981C626.082 211.278 629.399 215.412 633.046 215.731C639.973 216.336 645.708 207.505 646.578 197.548C646.608 197.198 646.632 196.85 646.648 196.503C653.537 202.172 658.318 212.577 668.014 213.425C681.205 214.577 688.769 188.429 670.339 186.818C657.805 185.723 651.48 187.012 645.931 189.25C645.141 186.204 643.76 183.58 641.958 181.675C641.534 181.105 640.857 180.535 639.969 179.985C639.427 179.624 638.861 179.319 638.273 179.076C635.172 177.618 630.603 176.382 625.435 175.748C624.47 175.63 623.52 175.537 622.591 175.468C623.003 170.582 619.383 166.28 614.495 165.852C609.597 165.424 605.279 169.048 604.851 173.946C604.437 178.683 607.812 182.877 612.465 183.535C615.067 184.594 618.45 185.5 622.238 186.089C621.747 187.448 621.408 189.011 621.252 190.796C621.114 192.374 621.142 194.061 621.314 195.787C622.226 194.877 623.387 194.333 624.509 194.431C627.646 194.705 629.604 197.477 629.365 200.217C629.061 203.695 626.833 206.036 623.885 205.981Z" fill="#191847"/>
<path fill-rule="evenodd" clip-rule="evenodd" d="M695.226 407.306C673.869 413.28 655.443 416.266 639.948 416.266C624.453 416.266 610.06 411.667 596.77 402.468C617.669 396.336 634.881 393.271 648.405 393.271C661.929 393.271 677.536 397.949 695.226 407.306Z" fill="#589707"/>
<path fill-rule="evenodd" clip-rule="evenodd" d="M621.46 424.877C621.666 424.567 621.84 424.23 621.977 423.865C624.832 416.316 670.558 334.872 675.113 319.982H623.633C620.169 331.303 604.58 402.349 602.386 416.524C595.464 438.883 581.212 511.296 579.393 516.312C577.479 521.589 588.248 527.087 591.118 520.599C595.684 510.276 606.564 481.712 611.408 464.271C615.95 447.92 619.648 433.21 621.46 424.877Z" fill="#3D2216"/>
<path fill-rule="evenodd" clip-rule="evenodd" d="M663.578 434.82C684.483 440.104 760.949 449.656 766.197 451.154C771.594 452.695 776.327 441.569 769.655 439.158C759.039 435.323 729.785 426.462 712.049 422.847C697.783 419.938 684.764 417.565 676.024 416.175C676.765 391.624 680.15 332.707 677.931 319.982H632.38C634.508 332.184 652.491 421.221 655.834 430.133C656.895 433.315 660.06 434.721 663.578 434.82Z" fill="#57331F"/>
<path fill-rule="evenodd" clip-rule="evenodd" d="M769.171 436.196C771.962 435.677 774.008 435.532 775.308 435.761C776.889 436.04 779.149 436.71 782.09 437.771C781.766 439.606 778.86 456.089 773.37 487.221C768.896 487.757 766.733 486.611 766.882 483.783C767.032 480.954 767.131 478.601 767.181 476.721L760.988 451.931C760.869 451.454 761.159 450.97 761.636 450.851C761.644 450.849 761.652 450.847 761.66 450.845L765.504 450C767.152 447.648 768.117 445.67 768.4 444.068C768.63 442.766 768.421 440.875 767.774 438.396L767.774 438.396C767.525 437.445 768.095 436.472 769.047 436.224C769.088 436.213 769.129 436.204 769.171 436.196Z" fill="#E4E4E4"/>
<path fill-rule="evenodd" clip-rule="evenodd" d="M594.385 519.759C595.381 522.418 595.879 524.407 595.879 525.727C595.879 527.333 595.612 529.675 595.077 532.755C593.215 532.755 576.477 532.755 544.864 532.755C543.56 528.441 544.313 526.113 547.124 525.769C549.935 525.425 552.271 525.114 554.13 524.837L577.469 514.433C577.918 514.232 578.444 514.434 578.644 514.883C578.648 514.891 578.651 514.899 578.654 514.906L580.154 518.545C582.757 519.76 584.872 520.367 586.499 520.367C587.821 520.367 589.647 519.833 591.976 518.765L591.976 518.765C592.87 518.355 593.927 518.748 594.337 519.642C594.354 519.68 594.371 519.719 594.385 519.759Z" fill="#E4E4E4"/>
<path fill-rule="evenodd" clip-rule="evenodd" d="M677.784 319.981C657.711 314.239 638.719 314.239 620.807 319.981C614.575 348.414 599.433 359.699 596.77 403.292C627.039 418.332 664.43 392.565 695.589 407.232C704.492 386.717 692.028 337.31 677.784 319.981Z" fill="#74C809"/>
<path fill-rule="evenodd" clip-rule="evenodd" d="M579.793 312.328L544.873 307.091C537.944 303.147 531.552 300.45 525.696 299.002C524.042 298.93 521.397 299.482 525.256 302.764C529.116 306.046 533.026 309.671 532.293 311.38C531.56 313.089 527.924 312.394 527.268 315.029C526.83 316.787 532.746 317.163 545.015 316.159L573.206 327.687L579.793 312.328ZM707.226 282.203L690.473 290.421C717.064 318.518 731.269 333.38 733.088 335.006C737.18 338.665 736.65 347.522 736.796 352.072C743.463 351.838 738.476 343.132 746.946 342.96C754.676 342.802 762.053 345.737 767.16 337.745C767.787 336.762 767.76 334.224 764.599 333.765C756.723 332.623 744.767 329.736 742.484 327.983C739.371 325.593 727.618 310.333 707.226 282.203Z" fill="#57331F"/>
<path fill-rule="evenodd" clip-rule="evenodd" d="M623.895 234.216L616.092 234.947C604.027 254.936 607.457 294.273 597.957 302.147C588.975 309.592 573.238 308.933 554.334 307.416L552.187 320.54C572.373 333.158 609.585 338.417 620.952 326.677C639.125 307.906 631.71 260.243 623.895 234.216Z" fill="#21C5DB"/>
<path fill-rule="evenodd" clip-rule="evenodd" d="M681.343 318.486C651.42 326.504 629.409 332.402 615.311 336.179C612.293 336.988 611.705 332.516 611.557 330.219C609.85 303.712 622.234 271.328 612.638 235.517L630.891 227.452C653.377 248.352 667.113 277.822 681.343 318.486Z" fill="#DDE3E9"/>
<path fill-rule="evenodd" clip-rule="evenodd" d="M681.104 291.25C701.016 311.718 716.975 326.019 728.981 334.153L742.102 327.756C718.496 275.322 681.836 241.778 632.12 227.122L628.682 228.044L624.579 229.143C622.965 291.516 628.569 331.285 641.39 348.451L700.829 332.525C696.12 318.712 689.12 304.646 681.104 291.25L681.104 291.25Z" fill="#33E7FF"/>
</svg>
