<svg width="782" height="510" viewBox="0 0 782 510" fill="none" xmlns="http://www.w3.org/2000/svg">
<path fill-rule="evenodd" clip-rule="evenodd" d="M781.832 303.203C789.766 428.156 515.149 498.698 282.184 432.865C49.2195 367.032 -52.5115 141.376 62.5251 27.7461C177.561 -85.8837 773.981 178.15 781.832 303.203Z" fill="#F4F3EA"/>
<path fill-rule="evenodd" clip-rule="evenodd" d="M380.7 400H299.6L289 509.1H409.7L380.7 400Z" fill="#4BC7A9"/>
<path fill-rule="evenodd" clip-rule="evenodd" d="M161.6 177.773C167.8 189.236 167.1 218.251 159 220.279C155.8 221.091 148.9 219.062 142 215.004L146.4 245.439H120.6L129.5 204.657C124.5 198.975 121.2 191.874 121.8 184.063C123.3 161.338 155.4 166.309 161.6 177.773Z" fill="#EFAEB7"/>
<path fill-rule="evenodd" clip-rule="evenodd" d="M147.6 166.614C154.8 167.222 161.3 169.353 163.1 170.672C163.1 177.469 161.8 179.396 150.4 179.295C147.6 180.715 145.5 183.251 143.2 186.497C144.2 200.091 146.8 206.787 151 206.787C157.4 206.787 162.8 202.83 165.5 202.83C167.5 202.83 167.1 205.367 165.7 207.193C164.6 208.714 159.2 210.236 159.2 212.569C159.2 214.903 163.5 213.077 163.5 214.497C163.5 216.83 164.3 221.193 160.1 221.193C155.9 221.193 144 219.671 142 213.584C140.7 209.627 139.8 201.512 139.4 189.236C139.1 189.236 138.9 189.236 138.6 189.236C135 189.236 132.1 192.077 132.1 195.628C132.1 197.454 132.8 198.975 134 200.193C132.5 202.222 130.8 204.454 128.9 206.685C121.7 202.425 115.3 188.932 122.3 176.961C124.2 171.077 129.7 169.048 134.9 167.527C139.5 165.802 143.9 165.599 147.6 166.614Z" fill="#787878"/>
<path d="M96.5 508.894C149.795 508.894 193 475.964 193 435.344C193 394.724 149.795 361.794 96.5 361.794C43.2045 361.794 0 394.724 0 435.344C0 475.964 43.2045 508.894 96.5 508.894Z" fill="#4BC7A9"/>
<path fill-rule="evenodd" clip-rule="evenodd" d="M251.7 355.205L252 355.002C260.9 350.133 275.4 356.727 275.4 364.132C275.4 386.552 254.6 492.16 253.5 498.855C252.4 505.551 240.8 507.275 240.1 498.855C239 485.464 237 439.102 239 417.595C239.8 408.769 240.7 400.248 241.6 392.741C230.7 412.117 213.9 439.914 191 476.029L178.6 470.45C188.3 438.899 196.3 416.581 202.5 403.596C213.2 381.379 223.1 362.306 227.3 355.611C234.1 345.162 245.6 348.814 251.7 355.205Z" fill="#EFAEB7"/>
<path fill-rule="evenodd" clip-rule="evenodd" d="M179.6 453.102L222.1 353.988C232.3 337.857 260.8 357.234 257.4 366.669C249.5 387.871 209.4 456.653 207.1 462.943L179.6 453.102Z" fill="#0F1A24"/>
<path fill-rule="evenodd" clip-rule="evenodd" d="M177.2 464.363C174.6 466.493 172.8 468.218 172 469.638C171 471.261 169.9 473.899 168.6 477.348C170.5 478.464 188.1 488.406 221.1 507.174C225.1 503.522 225.7 500.681 223 498.652C220.3 496.623 218 494.899 216.2 493.478L198.1 468.928C197.8 468.421 197.1 468.319 196.6 468.725L192.8 471.566C189.3 471.261 186.8 470.653 185.1 469.638C183.7 468.827 182.1 467.203 180.3 464.769C179.6 463.856 178.3 463.551 177.3 464.261C177.3 464.261 177.3 464.261 177.2 464.363Z" fill="#262B49"/>
<path fill-rule="evenodd" clip-rule="evenodd" d="M237.4 493.58C236.2 496.725 235.6 499.058 235.6 500.681C235.6 502.609 235.9 505.348 236.6 509C238.8 509 259.1 509 297.2 509C298.8 503.826 297.9 501.087 294.5 500.681C291.1 500.275 288.3 499.87 286 499.565L257.8 487.189C257.3 486.986 256.6 487.189 256.4 487.696L254.6 492.058C251.5 493.478 248.9 494.189 246.9 494.189C245.3 494.189 243.1 493.58 240.3 492.261C239.2 491.754 237.9 492.261 237.4 493.276C237.5 493.478 237.4 493.58 237.4 493.58Z" fill="#262B49"/>
<path fill-rule="evenodd" clip-rule="evenodd" d="M278.4 371.843C278.4 399.944 264.8 465.58 264.8 471.769H235.6C239.9 413.233 241.4 383.61 240.1 383.002C238.2 382.089 163.7 390.306 141.4 390.306C109.2 390.306 95.8 370.321 94.8 333.191H158.6C171.6 334.611 239.4 348.002 264.6 352.669C275.4 354.698 278.4 364.132 278.4 371.843Z" fill="#404548"/>
<path fill-rule="evenodd" clip-rule="evenodd" d="M71.5 320.611L94 320.713C80.1 364.843 72.6 388.176 71.5 390.915C69 397.002 74.3 406.233 76.5 411.204C69.2 414.451 69.9 402.48 60.7 406.741C52.3 410.596 45.8 417.595 36.1 411.711C34.9 411.001 33.6 408.262 36.8 406.132C44.7 400.755 56.1 391.422 57.6 388.378C59.7 384.016 64.3 361.495 71.5 320.611ZM206.6 316.452L237.1 345.669C246 349.423 253.2 353.48 258.9 358.046C260.2 359.567 261.6 362.408 255.6 361.19C249.6 359.872 243.3 358.756 242.1 360.683C241 362.611 244.3 365.553 242.2 368.089C240.8 369.712 236.1 364.437 228.2 352.162L196.5 333.698L206.6 316.452Z" fill="#EFAEB7"/>
<path fill-rule="evenodd" clip-rule="evenodd" d="M135.3 227.787L144.6 226.265C160.6 265.627 188.5 301.438 228.4 333.597L198.3 369.611C158.4 323.756 133.8 276.482 135.3 227.787Z" fill="#1C67AA"/>
<path fill-rule="evenodd" clip-rule="evenodd" d="M94.8 342.828H177.6C158.4 296.873 148.8 257.917 148.8 225.758L123.8 222.106C104.2 253.149 98.7 291.496 94.8 342.828Z" fill="#C8D1D8"/>
<path fill-rule="evenodd" clip-rule="evenodd" d="M124.9 222.106C126.9 222.207 129.8 222.308 133.8 222.511L139.8 239.453C140.4 260.148 144.2 301.843 151 364.64H96.7C96.8 369.002 97.1 373.364 97.4 377.726H57.1C63.1 310.669 85.2 258.83 123.2 222.106H124.9Z" fill="#5AA1DF"/>
<path fill-rule="evenodd" clip-rule="evenodd" d="M112 365.045H96.7999C96.0999 345.568 97.2999 327.003 100.4 309.148C101.9 336.133 105.8 354.799 112 365.045Z" fill="black" fill-opacity="0.1"/>
<path fill-rule="evenodd" clip-rule="evenodd" d="M108.9 332.176L135.6 320.003V332.176H108.9Z" fill="white" fill-opacity="0.2"/>
<path fill-rule="evenodd" clip-rule="evenodd" d="M527.706 196.1C521.906 206.9 522.606 234.3 530.106 236.2C533.106 237 539.506 235.1 546.006 231.2L541.906 260H566.106L557.806 221.5C562.406 216.1 565.606 209.5 565.106 202C563.506 180.6 533.506 185.3 527.706 196.1Z" fill="#96555E"/>
<path fill-rule="evenodd" clip-rule="evenodd" d="M537.206 184.4C554.006 178.2 567.106 190.2 568.906 192.2C570.706 194.3 572.006 196.9 572.906 199.6C573.906 202.5 574.506 205.5 574.706 208.6C574.906 211.5 574.906 214.6 574.206 217.5C573.606 220.2 572.206 222.4 569.906 223.7C568.806 224.3 567.706 224.8 566.606 225.3C565.506 225.7 564.406 226.1 563.206 226.4C561.006 226.9 558.406 226.8 556.706 225C556.106 224.4 555.406 223.6 555.006 222.8C554.806 222.5 554.706 222.3 554.906 222.1C555.106 221.8 555.506 221.5 555.806 221.3C557.506 219.8 558.606 217.9 558.906 215.6C559.206 213.3 558.506 210.2 556.206 209.2C553.406 207.9 550.306 209.4 547.706 210.7C546.606 207 544.406 203.6 541.006 201.9C537.206 200 532.806 199.8 528.906 198.1C527.906 197.7 526.806 197.2 526.106 196.3C525.806 195.9 525.406 195.5 525.306 195C525.106 194.4 525.506 193.8 525.906 193.4C527.606 190.6 530.806 186.7 537.206 184.4Z" fill="#18212A"/>
<path d="M565.106 196C573.446 196 580.206 189.284 580.206 181C580.206 172.716 573.446 166 565.106 166C556.767 166 550.006 172.716 550.006 181C550.006 189.284 556.767 196 565.106 196Z" fill="#18212A"/>
<path fill-rule="evenodd" clip-rule="evenodd" d="M568.206 222.1C573.606 234.9 578.606 243.4 583.206 247.6C581.206 251.8 574.806 253.7 564.206 253.2L558.206 225.1L568.206 222.1Z" fill="#18212A"/>
<path fill-rule="evenodd" clip-rule="evenodd" d="M609.706 385H532.006L521.806 509H637.506L609.706 385Z" fill="#4BC7A9"/>
<path fill-rule="evenodd" clip-rule="evenodd" d="M609.706 385H585.806L571.506 509H637.506L609.706 385Z" fill="black" fill-opacity="0.1"/>
<path fill-rule="evenodd" clip-rule="evenodd" d="M443.406 363.7L443.106 363.5C434.806 358.9 421.206 365.2 421.206 372.1C421.206 393.3 440.706 493 441.706 499.3C442.706 505.6 453.606 507.3 454.206 499.3C455.206 486.6 457.106 442.9 455.206 422.6C454.406 414.2 453.606 406.3 452.806 399.2C463.006 417.5 478.806 443.7 500.106 477.8L511.706 472.5C502.606 442.7 495.106 421.7 489.306 409.4C479.306 388.4 470.006 370.4 466.006 364C459.806 354.2 449.006 357.7 443.406 363.7Z" fill="#96555E"/>
<path fill-rule="evenodd" clip-rule="evenodd" d="M510.806 456.1L471.006 362.5C461.506 347.3 434.806 365.6 438.006 374.4C445.406 394.5 482.906 459.4 485.106 465.4L510.806 456.1Z" fill="#C8D1D8"/>
<path fill-rule="evenodd" clip-rule="evenodd" d="M513.006 466.8C515.506 468.8 517.106 470.5 517.806 471.8C518.706 473.4 519.806 475.8 521.006 479.1C519.206 480.1 502.806 489.5 471.806 507.3C468.106 503.8 467.506 501.1 470.106 499.2C472.706 497.3 474.806 495.7 476.406 494.4L493.406 471.2C493.706 470.8 494.406 470.7 494.806 471L498.306 473.7C501.506 473.4 503.906 472.8 505.506 471.9C506.806 471.2 508.306 469.6 510.006 467.3C510.606 466.4 511.906 466.2 512.806 466.8C513.006 466.7 513.006 466.7 513.006 466.8Z" fill="#766900"/>
<path fill-rule="evenodd" clip-rule="evenodd" d="M456.706 494.4C457.806 497.4 458.406 499.6 458.406 501.1C458.406 502.9 458.106 505.5 457.506 509C455.406 509 436.506 509 400.706 509C399.206 504.2 400.106 501.5 403.306 501.2C406.506 500.8 409.106 500.5 411.206 500.2L437.606 488.5C438.106 488.3 438.706 488.5 438.906 489L440.606 493.1C443.506 494.5 445.906 495.1 447.806 495.1C449.306 495.1 451.406 494.5 454.006 493.3C455.006 492.8 456.206 493.3 456.706 494.3C456.706 494.3 456.706 494.3 456.706 494.4Z" fill="#766900"/>
<path fill-rule="evenodd" clip-rule="evenodd" d="M418.406 379.4C418.406 406 431.106 467.9 431.106 473.8H458.406C454.406 418.5 453.006 390.6 454.106 390C455.806 389.1 525.606 396.9 546.506 396.9C576.706 396.9 589.106 378 590.206 343H530.406C518.206 344.3 454.806 357 431.206 361.4C421.206 363.3 418.406 372.1 418.406 379.4Z" fill="#BBB794"/>
<path fill-rule="evenodd" clip-rule="evenodd" d="M612.406 312.4L590.406 312.5C614.606 366.5 627.206 394.8 628.206 397.4C630.506 403.1 625.606 411.9 623.506 416.6C630.406 419.7 629.606 408.3 638.306 412.4C646.206 416.1 652.206 422.7 661.306 417.1C662.406 416.4 663.706 413.8 660.706 411.8C653.306 406.8 642.606 397.9 641.206 395C639.206 390.9 629.606 363.4 612.406 312.4ZM425.506 293.3C430.006 297 434.506 301.1 433.706 303C432.906 305 428.806 304.2 428.106 307.3C427.606 309.3 434.406 309.6 448.306 308.3L480.506 321L487.606 303.3L447.906 297.9C440.006 293.5 432.606 290.5 426.006 289C424.006 288.9 421.106 289.6 425.506 293.3Z" fill="#7A454C"/>
<path fill-rule="evenodd" clip-rule="evenodd" d="M552.006 243L534.706 244.1C530.506 282.3 507.306 306.4 455.506 298.3L448.606 347.5C497.006 353.7 539.506 334.5 548.206 282.3C550.606 268.8 552.306 254.7 552.006 243Z" fill="#DAD67D"/>
<path fill-rule="evenodd" clip-rule="evenodd" d="M560.606 238L534.406 244C534.406 288.2 520.406 316.6 513.006 349.1L512.806 350.1H583.406C584.406 361.5 585.006 373.1 585.306 385.1H638.206C626.206 321.8 600.906 272.8 562.406 238.1H560.606V238Z" fill="#DCFA87"/>
<path fill-rule="evenodd" clip-rule="evenodd" d="M572.206 286.2C574.006 314 572.906 335.3 569.006 349.9H583.306C581.406 327.9 578.006 307.1 572.506 287.5L572.206 286.2Z" fill="black" fill-opacity="0.1"/>
</svg>
