<?xml version="1.0" encoding="UTF-8"?>
<svg xmlns="http://www.w3.org/2000/svg" xmlns:xlink="http://www.w3.org/1999/xlink" width="1500pt" height="1499.999933pt" viewBox="0 0 1500 1499.999933" version="1.2">
<g id="surface1">
<path style=" stroke:none;fill-rule:nonzero;fill:rgb(100%,100%,100%);fill-opacity:1;" d="M 1485.210938 749.917969 C 1485.210938 343.820312 1156.011719 14.621094 749.917969 14.621094 C 343.820312 14.621094 14.621094 343.820312 14.621094 749.917969 C 14.621094 1156.011719 343.820312 1485.210938 749.917969 1485.210938 C 1156.011719 1485.210938 1485.210938 1156.011719 1485.210938 749.917969 "/>
<path style=" stroke:none;fill-rule:nonzero;fill:rgb(19.219971%,26.669312%,33.329773%);fill-opacity:1;" d="M 749.917969 29.246094 C 352.542969 29.246094 29.246094 352.542969 29.246094 749.917969 C 29.246094 1147.292969 352.542969 1470.589844 749.917969 1470.589844 C 1147.292969 1470.589844 1470.589844 1147.292969 1470.589844 749.917969 C 1470.589844 352.542969 1147.292969 29.246094 749.917969 29.246094 Z M 749.917969 1499.832031 C 549.605469 1499.832031 361.289062 1421.824219 219.648438 1280.183594 C 78.007812 1138.542969 0 950.230469 0 749.917969 C 0 549.605469 78.007812 361.289062 219.648438 219.648438 C 361.289062 78.007812 549.605469 0 749.917969 0 C 950.230469 0 1138.542969 78.007812 1280.183594 219.648438 C 1421.824219 361.289062 1499.832031 549.605469 1499.832031 749.917969 C 1499.832031 950.230469 1421.824219 1138.542969 1280.183594 1280.183594 C 1138.542969 1421.824219 950.230469 1499.832031 749.917969 1499.832031 "/>
<path style=" stroke:none;fill-rule:nonzero;fill:rgb(100%,100%,100%);fill-opacity:1;" d="M 1423.378906 749.917969 C 1423.378906 377.972656 1121.859375 76.453125 749.917969 76.453125 C 377.972656 76.453125 76.453125 377.972656 76.453125 749.917969 C 76.453125 1121.859375 377.972656 1423.378906 749.917969 1423.378906 C 1121.859375 1423.378906 1423.378906 1121.859375 1423.378906 749.917969 "/>
<path style=" stroke:none;fill-rule:nonzero;fill:rgb(100%,100%,100%);fill-opacity:1;" d="M 1374.917969 749.917969 C 1374.917969 404.738281 1095.09375 124.917969 749.917969 124.917969 C 404.738281 124.917969 124.917969 404.738281 124.917969 749.917969 C 124.917969 1095.09375 404.738281 1374.917969 749.917969 1374.917969 C 1095.09375 1374.917969 1374.917969 1095.09375 1374.917969 749.917969 "/>
<path style=" stroke:none;fill-rule:nonzero;fill:rgb(61.959839%,35.289001%,38.819885%);fill-opacity:1;" d="M 751.808594 1150.347656 C 748.714844 1142.890625 740.175781 1139.351562 732.710938 1142.433594 L 705.03125 1153.898438 L 678.136719 1100.878906 C 673.34375 1091.414062 663.359375 1085.785156 652.585938 1086.582031 C 644.453125 1087.167969 636.292969 1087.195312 628.355469 1086.648438 C 617.6875 1085.902344 607.636719 1091.503906 602.859375 1100.929688 L 575.988281 1153.898438 L 517.617188 1129.71875 L 536.078125 1073.265625 C 539.367188 1063.226562 536.246094 1052.179688 528.152344 1045.128906 C 522.132812 1039.910156 516.390625 1034.136719 511.0625 1027.960938 C 504.027344 1019.828125 492.96875 1016.707031 482.890625 1020 L 426.371094 1038.472656 L 402.207031 980.113281 L 455.222656 953.207031 C 464.675781 948.414062 470.289062 938.386719 469.507812 927.65625 C 468.917969 919.523438 468.90625 911.375 469.453125 903.4375 C 470.199219 892.730469 464.597656 882.71875 455.171875 877.941406 L 402.207031 851.058594 L 426.371094 792.699219 L 482.824219 811.148438 C 492.875 814.4375 503.910156 811.332031 510.957031 803.222656 C 516.179688 797.21875 521.953125 791.472656 528.128906 786.132812 C 536.261719 779.097656 539.394531 768.050781 536.105469 757.972656 L 517.617188 701.453125 L 575.988281 677.273438 L 602.898438 730.308594 C 607.6875 739.757812 617.6875 745.398438 628.433594 744.578125 C 636.566406 744.003906 644.726562 743.976562 652.664062 744.523438 C 663.398438 745.292969 673.382812 739.667969 678.164062 730.242188 L 705.03125 677.273438 L 730.605469 687.863281 C 738.0625 690.945312 746.625 687.417969 749.707031 679.949219 C 752.789062 672.484375 749.25 663.933594 741.78125 660.851562 L 713.675781 649.207031 C 701.0625 643.984375 686.363281 649.414062 680.199219 661.582031 L 652.976562 715.242188 C 644.777344 714.746094 636.421875 714.757812 628.066406 715.292969 L 600.820312 661.582031 C 594.644531 649.414062 579.933594 643.984375 567.347656 649.207031 L 503.882812 675.484375 C 491.285156 680.707031 484.730469 694.953125 488.972656 707.917969 L 507.683594 765.164062 C 501.402344 770.699219 495.476562 776.589844 490.03125 782.738281 L 432.832031 764.042969 C 419.871094 759.8125 405.625 766.351562 400.417969 778.953125 L 374.121094 842.414062 C 368.898438 855.015625 374.34375 869.726562 386.511719 875.890625 L 440.171875 903.125 C 439.675781 911.324219 439.6875 919.679688 440.222656 928.019531 L 386.511719 955.269531 C 374.34375 961.445312 368.898438 976.144531 374.121094 988.757812 L 400.417969 1052.207031 C 405.625 1064.820312 419.882812 1071.371094 432.847656 1067.128906 L 490.097656 1048.421875 C 495.605469 1054.6875 501.507812 1060.628906 507.667969 1066.070312 L 488.972656 1123.253906 C 484.730469 1136.21875 491.285156 1150.464844 503.882812 1155.6875 L 567.347656 1181.96875 C 570.585938 1183.3125 573.964844 1183.953125 577.292969 1183.953125 C 586.941406 1183.953125 596.238281 1178.625 600.820312 1169.589844 L 628.042969 1115.929688 C 636.242188 1116.425781 644.597656 1116.402344 652.953125 1115.878906 L 680.199219 1169.589844 C 686.363281 1181.757812 701.0625 1187.1875 713.675781 1181.96875 L 743.898438 1169.445312 C 751.367188 1166.367188 754.902344 1157.800781 751.808594 1150.347656 "/>
<path style=" stroke:none;fill-rule:nonzero;fill:rgb(61.959839%,35.289001%,38.819885%);fill-opacity:1;" d="M 705.175781 942.371094 C 698.019531 959.640625 684.574219 973.089844 667.300781 980.242188 C 650.027344 987.398438 631.003906 987.410156 613.734375 980.242188 C 596.460938 973.089844 583 959.640625 575.84375 942.371094 C 561.078125 906.714844 578.066406 865.695312 613.734375 850.929688 C 622.453125 847.3125 631.5 845.601562 640.417969 845.601562 C 667.902344 845.601562 694.023438 861.867188 705.175781 888.800781 C 712.328125 906.074219 712.328125 925.097656 705.175781 942.371094 Z M 732.1875 877.613281 C 711.257812 827.050781 653.082031 802.960938 602.53125 823.902344 C 551.980469 844.84375 527.890625 903.007812 548.832031 953.558594 C 558.976562 978.050781 578.039062 997.125 602.53125 1007.269531 C 614.777344 1012.347656 627.648438 1014.878906 640.511719 1014.878906 C 653.371094 1014.878906 666.242188 1012.347656 678.488281 1007.269531 C 702.980469 997.125 722.054688 978.050781 732.1875 953.558594 C 742.332031 929.078125 742.332031 902.09375 732.1875 877.601562 L 732.1875 877.613281 "/>
<path style=" stroke:none;fill-rule:nonzero;fill:rgb(19.219971%,26.669312%,33.329773%);fill-opacity:1;" d="M 915.449219 284.925781 C 960.921875 284.925781 997.910156 321.914062 997.910156 367.386719 C 997.910156 412.859375 960.921875 449.84375 915.449219 449.84375 C 869.976562 449.84375 832.976562 412.859375 832.976562 367.386719 C 832.976562 321.914062 869.976562 284.925781 915.449219 284.925781 Z M 915.449219 479.089844 C 977.046875 479.089844 1027.152344 428.984375 1027.152344 367.386719 C 1027.152344 305.789062 977.046875 255.683594 915.449219 255.683594 C 853.851562 255.683594 803.730469 305.789062 803.730469 367.386719 C 803.730469 428.984375 853.851562 479.089844 915.449219 479.089844 "/>
<path style=" stroke:none;fill-rule:nonzero;fill:rgb(19.219971%,26.669312%,33.329773%);fill-opacity:1;" d="M 1094.820312 842.675781 C 1094.820312 856.488281 1087.261719 871.332031 1070.667969 871.332031 C 1055.496094 871.332031 1043.121094 858.722656 1042.886719 843.121094 L 1042.886719 628.382812 C 1042.886719 620.300781 1036.34375 613.757812 1028.261719 613.757812 C 1020.195312 613.757812 1013.640625 620.300781 1013.640625 628.382812 L 1013.640625 683.28125 C 1013.640625 683.398438 1013.640625 683.503906 1013.640625 683.605469 L 1013.640625 842.675781 C 1013.640625 842.886719 1013.640625 843.09375 1013.640625 843.304688 L 1013.640625 1159.367188 C 1013.640625 1174.851562 1005.113281 1191.511719 986.378906 1191.511719 C 969.171875 1191.511719 955.175781 1177.097656 955.175781 1159.367188 L 955.175781 922.015625 C 955.175781 900.109375 937.355469 882.273438 915.4375 882.273438 C 893.527344 882.273438 875.707031 900.109375 875.707031 922.015625 L 875.695312 1159.367188 C 875.695312 1177.097656 861.699219 1191.511719 844.503906 1191.511719 C 825.769531 1191.511719 817.246094 1174.851562 817.246094 1159.367188 L 817.246094 874.703125 C 817.246094 874.597656 817.246094 874.492188 817.246094 874.390625 L 817.246094 678.59375 C 817.246094 646.921875 804.878906 617.113281 782.4375 594.671875 L 619.882812 432.117188 C 610.128906 422.363281 604.960938 406.511719 616.695312 394.777344 C 621.90625 389.566406 628.761719 386.746094 636.371094 386.8125 C 643.96875 386.890625 651.164062 389.945312 656.609375 395.390625 L 777.828125 516.613281 C 792.4375 531.222656 811.867188 539.261719 832.53125 539.261719 L 1019.242188 539.261719 C 1060.914062 539.261719 1094.820312 573.183594 1094.820312 614.855469 Z M 1019.242188 510.019531 L 832.53125 510.019531 C 819.671875 510.019531 807.597656 505.019531 798.507812 495.933594 L 677.289062 374.710938 C 654.714844 352.136719 618.25 351.863281 596.015625 374.097656 C 574.488281 395.625 575.859375 429.453125 599.203125 452.808594 L 761.757812 615.351562 C 778.679688 632.273438 788 654.726562 788 678.59375 L 788 874.636719 C 788 874.742188 788 874.847656 788 874.949219 L 788 1159.367188 C 788 1194.371094 812.285156 1220.753906 844.503906 1220.753906 C 877.835938 1220.753906 904.9375 1193.222656 904.9375 1159.367188 L 904.953125 922.015625 C 904.953125 916.230469 909.652344 911.519531 915.4375 911.519531 C 921.234375 911.519531 925.933594 916.230469 925.933594 922.015625 L 925.933594 1159.367188 C 925.933594 1193.222656 953.050781 1220.753906 986.378906 1220.753906 C 1018.601562 1220.753906 1042.886719 1194.371094 1042.886719 1159.367188 L 1042.886719 893.242188 C 1051.109375 897.914062 1060.589844 900.578125 1070.667969 900.578125 C 1101.113281 900.578125 1124.066406 875.695312 1124.066406 842.675781 L 1124.066406 614.855469 C 1124.066406 557.058594 1077.039062 510.019531 1019.242188 510.019531 "/>
<path style=" stroke:none;fill-rule:nonzero;fill:rgb(19.219971%,26.669312%,33.329773%);fill-opacity:1;" d="M 441.164062 503.113281 L 430.886719 513.386719 C 425.171875 519.105469 425.171875 528.363281 430.886719 534.066406 C 433.734375 536.925781 437.480469 538.347656 441.230469 538.347656 C 444.960938 538.347656 448.710938 536.925781 451.570312 534.066406 L 461.84375 523.792969 C 467.5625 518.085938 467.5625 508.816406 461.84375 503.113281 C 456.136719 497.40625 446.882812 497.40625 441.164062 503.113281 "/>
<path style=" stroke:none;fill-rule:nonzero;fill:rgb(19.219971%,26.669312%,33.329773%);fill-opacity:1;" d="M 496.636719 447.640625 L 486.363281 457.925781 C 480.644531 463.632812 480.644531 472.886719 486.363281 478.59375 C 489.207031 481.453125 492.957031 482.890625 496.703125 482.890625 C 500.4375 482.890625 504.183594 481.453125 507.042969 478.59375 L 517.316406 468.320312 C 523.023438 462.613281 523.023438 453.34375 517.316406 447.640625 C 511.613281 441.933594 502.355469 441.933594 496.636719 447.640625 "/>
<path style=" stroke:none;fill-rule:nonzero;fill:rgb(19.219971%,26.669312%,33.329773%);fill-opacity:1;" d="M 507.042969 503.113281 C 501.324219 497.40625 492.066406 497.40625 486.363281 503.113281 C 480.644531 508.816406 480.644531 518.085938 486.363281 523.792969 L 496.636719 534.066406 C 499.496094 536.925781 503.230469 538.347656 506.976562 538.347656 C 510.722656 538.347656 514.457031 536.925781 517.316406 534.066406 C 523.023438 528.363281 523.023438 519.105469 517.316406 513.386719 L 507.042969 503.113281 "/>
<path style=" stroke:none;fill-rule:nonzero;fill:rgb(19.219971%,26.669312%,33.329773%);fill-opacity:1;" d="M 451.570312 447.640625 C 445.851562 441.933594 436.59375 441.933594 430.886719 447.640625 C 425.171875 453.34375 425.171875 462.613281 430.886719 468.320312 L 441.164062 478.59375 C 444.023438 481.453125 447.769531 482.890625 451.503906 482.890625 C 455.25 482.890625 458.984375 481.453125 461.84375 478.59375 C 467.5625 472.886719 467.5625 463.632812 461.84375 457.925781 L 451.570312 447.640625 "/>
<path style=" stroke:none;fill-rule:nonzero;fill:rgb(19.219971%,26.669312%,33.329773%);fill-opacity:1;" d="M 353.9375 613.902344 C 348.21875 608.199219 338.964844 608.199219 333.257812 613.902344 C 327.539062 619.621094 327.539062 628.878906 333.257812 634.582031 L 336.078125 637.402344 C 338.9375 640.261719 342.671875 641.683594 346.417969 641.683594 C 350.164062 641.683594 353.898438 640.261719 356.757812 637.402344 C 362.464844 631.699219 362.464844 622.441406 356.757812 616.722656 L 353.9375 613.902344 "/>
<path style=" stroke:none;fill-rule:nonzero;fill:rgb(19.219971%,26.669312%,33.329773%);fill-opacity:1;" d="M 394.320312 654.285156 C 388.601562 648.578125 379.34375 648.578125 373.625 654.285156 C 367.921875 659.988281 367.921875 669.246094 373.625 674.964844 L 376.460938 677.785156 C 379.304688 680.644531 383.050781 682.066406 386.800781 682.066406 C 390.535156 682.066406 394.28125 680.644531 397.140625 677.785156 C 402.84375 672.078125 402.84375 662.808594 397.140625 657.105469 L 394.320312 654.285156 "/>
<path style=" stroke:none;fill-rule:nonzero;fill:rgb(19.219971%,26.669312%,33.329773%);fill-opacity:1;" d="M 336.078125 654.285156 L 333.257812 657.105469 C 327.539062 662.808594 327.539062 672.078125 333.257812 677.785156 C 336.105469 680.644531 339.851562 682.066406 343.597656 682.066406 C 347.332031 682.066406 351.078125 680.644531 353.9375 677.785156 L 356.757812 674.964844 C 362.464844 669.246094 362.464844 659.988281 356.757812 654.285156 C 351.039062 648.578125 341.785156 648.578125 336.078125 654.285156 "/>
<path style=" stroke:none;fill-rule:nonzero;fill:rgb(19.219971%,26.669312%,33.329773%);fill-opacity:1;" d="M 376.460938 613.902344 L 373.625 616.722656 C 367.921875 622.441406 367.921875 631.699219 373.625 637.402344 C 376.484375 640.261719 380.234375 641.683594 383.980469 641.683594 C 387.714844 641.683594 391.460938 640.261719 394.320312 637.402344 L 397.140625 634.582031 C 402.84375 628.878906 402.84375 619.621094 397.140625 613.902344 C 391.421875 608.199219 382.164062 608.199219 376.460938 613.902344 "/>
</g>
</svg>
