<?xml version="1.0" encoding="UTF-8"?>
<svg xmlns="http://www.w3.org/2000/svg" xmlns:xlink="http://www.w3.org/1999/xlink" width="1500pt" height="1499.999933pt" viewBox="0 0 1500 1499.999933" version="1.2">
<g id="surface1">
<path style=" stroke:none;fill-rule:nonzero;fill:rgb(100%,100%,100%);fill-opacity:1;" d="M 1485.210938 749.917969 C 1485.210938 343.820312 1156.011719 14.621094 749.917969 14.621094 C 343.820312 14.621094 14.621094 343.820312 14.621094 749.917969 C 14.621094 1156.011719 343.820312 1485.210938 749.917969 1485.210938 C 1156.011719 1485.210938 1485.210938 1156.011719 1485.210938 749.917969 "/>
<path style=" stroke:none;fill-rule:nonzero;fill:rgb(19.219971%,26.669312%,33.329773%);fill-opacity:1;" d="M 749.917969 29.246094 C 352.542969 29.246094 29.246094 352.542969 29.246094 749.917969 C 29.246094 1147.292969 352.542969 1470.589844 749.917969 1470.589844 C 1147.292969 1470.589844 1470.589844 1147.292969 1470.589844 749.917969 C 1470.589844 352.542969 1147.292969 29.246094 749.917969 29.246094 Z M 749.917969 1499.832031 C 549.605469 1499.832031 361.289062 1421.824219 219.648438 1280.183594 C 78.007812 1138.542969 0 950.230469 0 749.917969 C 0 549.605469 78.007812 361.289062 219.648438 219.648438 C 361.289062 78.007812 549.605469 0 749.917969 0 C 950.230469 0 1138.542969 78.007812 1280.183594 219.648438 C 1421.824219 361.289062 1499.832031 549.605469 1499.832031 749.917969 C 1499.832031 950.230469 1421.824219 1138.542969 1280.183594 1280.183594 C 1138.542969 1421.824219 950.230469 1499.832031 749.917969 1499.832031 "/>
<path style=" stroke:none;fill-rule:nonzero;fill:rgb(100%,100%,100%);fill-opacity:1;" d="M 1423.378906 749.917969 C 1423.378906 377.972656 1121.859375 76.453125 749.917969 76.453125 C 377.972656 76.453125 76.453125 377.972656 76.453125 749.917969 C 76.453125 1121.859375 377.972656 1423.378906 749.917969 1423.378906 C 1121.859375 1423.378906 1423.378906 1121.859375 1423.378906 749.917969 "/>
<path style=" stroke:none;fill-rule:nonzero;fill:rgb(100%,100%,100%);fill-opacity:1;" d="M 1374.917969 749.917969 C 1374.917969 404.738281 1095.09375 124.917969 749.917969 124.917969 C 404.738281 124.917969 124.917969 404.738281 124.917969 749.917969 C 124.917969 1095.09375 404.738281 1374.917969 749.917969 1374.917969 C 1095.09375 1374.917969 1374.917969 1095.09375 1374.917969 749.917969 "/>
<path style=" stroke:none;fill-rule:nonzero;fill:rgb(61.959839%,35.289001%,38.819885%);fill-opacity:1;" d="M 472.261719 509.875 C 427.964844 509.875 391.917969 473.839844 391.917969 429.542969 C 391.917969 385.246094 427.964844 349.210938 472.261719 349.210938 C 516.558594 349.210938 552.59375 385.246094 552.59375 429.542969 C 552.59375 473.839844 516.558594 509.875 472.261719 509.875 Z M 472.261719 319.96875 C 411.828125 319.96875 362.671875 369.121094 362.671875 429.542969 C 362.671875 489.964844 411.828125 539.121094 472.261719 539.121094 C 532.683594 539.121094 581.839844 489.964844 581.839844 429.542969 C 581.839844 369.121094 532.683594 319.96875 472.261719 319.96875 "/>
<path style=" stroke:none;fill-rule:nonzero;fill:rgb(61.959839%,35.289001%,38.819885%);fill-opacity:1;" d="M 751.128906 509.875 C 706.832031 509.875 670.785156 473.839844 670.785156 429.542969 C 670.785156 385.246094 706.832031 349.210938 751.128906 349.210938 C 795.429688 349.210938 831.460938 385.246094 831.460938 429.542969 C 831.460938 473.839844 795.429688 509.875 751.128906 509.875 Z M 751.128906 319.96875 C 690.695312 319.96875 641.542969 369.121094 641.542969 429.542969 C 641.542969 489.964844 690.695312 539.121094 751.128906 539.121094 C 811.550781 539.121094 860.707031 489.964844 860.707031 429.542969 C 860.707031 369.121094 811.550781 319.96875 751.128906 319.96875 "/>
<path style=" stroke:none;fill-rule:nonzero;fill:rgb(61.959839%,35.289001%,38.819885%);fill-opacity:1;" d="M 1027.570312 509.875 C 983.273438 509.875 947.226562 473.839844 947.226562 429.542969 C 947.226562 385.246094 983.273438 349.210938 1027.570312 349.210938 C 1071.867188 349.210938 1107.902344 385.246094 1107.902344 429.542969 C 1107.902344 473.839844 1071.867188 509.875 1027.570312 509.875 Z M 1027.570312 319.96875 C 967.148438 319.96875 917.980469 369.121094 917.980469 429.542969 C 917.980469 489.964844 967.148438 539.121094 1027.570312 539.121094 C 1087.992188 539.121094 1137.148438 489.964844 1137.148438 429.542969 C 1137.148438 369.121094 1087.992188 319.96875 1027.570312 319.96875 "/>
<path style=" stroke:none;fill-rule:nonzero;fill:rgb(19.219971%,26.669312%,33.329773%);fill-opacity:1;" d="M 861.476562 658.355469 C 853.394531 658.355469 846.855469 664.910156 846.855469 672.980469 L 846.855469 868.8125 C 846.855469 868.917969 846.855469 869.023438 846.855469 869.128906 L 846.855469 1119.507812 C 846.855469 1134.496094 838.601562 1150.621094 820.496094 1150.621094 C 803.863281 1150.621094 790.3125 1136.664062 790.3125 1119.507812 L 790.3125 915.410156 C 790.3125 893.800781 772.722656 876.214844 751.117188 876.214844 C 729.511719 876.214844 711.9375 893.800781 711.9375 915.410156 L 711.925781 1119.507812 C 711.925781 1136.664062 698.386719 1150.621094 681.738281 1150.621094 C 663.644531 1150.621094 655.394531 1134.496094 655.394531 1119.507812 L 655.394531 869.128906 C 655.394531 869.050781 655.394531 868.984375 655.394531 868.917969 L 655.394531 672.980469 C 655.394531 664.898438 648.839844 658.355469 640.769531 658.355469 C 632.691406 658.355469 626.148438 664.898438 626.148438 672.980469 L 626.148438 869.074219 C 626.148438 869.140625 626.148438 869.21875 626.148438 869.285156 L 626.148438 1119.507812 C 626.148438 1153.921875 650.039062 1179.863281 681.738281 1179.863281 C 714.507812 1179.863281 741.167969 1152.789062 741.167969 1119.507812 L 741.183594 915.410156 C 741.183594 909.925781 745.632812 905.460938 751.117188 905.460938 C 756.601562 905.460938 761.066406 909.925781 761.066406 915.410156 L 761.066406 1119.507812 C 761.066406 1152.789062 787.726562 1179.863281 820.496094 1179.863281 C 852.195312 1179.863281 876.097656 1153.921875 876.097656 1119.507812 L 876.097656 869.375 C 876.097656 869.285156 876.097656 869.179688 876.097656 869.074219 L 876.097656 672.980469 C 876.097656 664.910156 869.546875 658.355469 861.476562 658.355469 "/>
<path style=" stroke:none;fill-rule:nonzero;fill:rgb(19.219971%,26.669312%,33.329773%);fill-opacity:1;" d="M 1121.050781 556.902344 L 378.785156 556.902344 C 317.355469 556.902344 267.378906 606.878906 267.378906 668.320312 L 267.378906 837.808594 C 267.378906 870.277344 289.964844 894.769531 319.929688 894.769531 C 329.863281 894.769531 339.171875 892.105469 347.28125 887.496094 L 347.28125 1119.507812 C 347.28125 1153.921875 371.171875 1179.863281 402.871094 1179.863281 C 435.640625 1179.863281 462.300781 1152.789062 462.300781 1119.507812 L 462.300781 915.410156 C 462.300781 909.925781 466.765625 905.460938 472.25 905.460938 C 477.730469 905.460938 482.199219 909.925781 482.199219 915.410156 L 482.199219 1119.507812 C 482.199219 1152.789062 508.855469 1179.863281 541.625 1179.863281 C 573.324219 1179.863281 597.21875 1153.921875 597.21875 1119.507812 L 597.21875 869.285156 C 597.21875 869.21875 597.21875 869.140625 597.21875 869.074219 L 597.21875 672.980469 C 597.21875 664.910156 590.675781 658.355469 582.59375 658.355469 C 574.527344 658.355469 567.972656 664.910156 567.972656 672.980469 L 567.972656 868.90625 C 567.972656 868.984375 567.972656 869.050781 567.972656 869.128906 L 567.972656 1119.507812 C 567.972656 1134.496094 559.734375 1150.621094 541.625 1150.621094 C 524.980469 1150.621094 511.441406 1136.664062 511.441406 1119.507812 L 511.441406 915.410156 C 511.441406 893.800781 493.855469 876.214844 472.25 876.214844 C 450.640625 876.214844 433.054688 893.800781 433.054688 915.410156 L 433.054688 1119.507812 C 433.054688 1136.664062 419.515625 1150.621094 402.871094 1150.621094 C 384.761719 1150.621094 376.523438 1134.496094 376.523438 1119.507812 L 376.523438 869.128906 C 376.523438 869.023438 376.523438 868.917969 376.523438 868.8125 L 376.523438 672.980469 C 376.523438 664.898438 369.972656 658.355469 361.902344 658.355469 C 353.820312 658.355469 347.28125 664.898438 347.28125 672.980469 L 347.28125 834.242188 C 346.980469 835.390625 346.785156 836.566406 346.785156 837.808594 C 346.785156 853.09375 334.734375 865.523438 319.929688 865.523438 C 303.910156 865.523438 296.625 851.148438 296.625 837.808594 L 296.625 668.320312 C 296.625 623.003906 333.480469 586.144531 378.785156 586.144531 L 1121.050781 586.144531 C 1166.351562 586.144531 1203.207031 623.003906 1203.207031 668.320312 L 1203.207031 837.808594 C 1203.207031 851.148438 1195.910156 865.523438 1179.902344 865.523438 C 1165.097656 865.523438 1153.046875 853.09375 1153.046875 837.808594 C 1153.046875 836.554688 1152.839844 835.351562 1152.539062 834.191406 L 1152.539062 672.980469 C 1152.539062 664.910156 1146 658.355469 1137.917969 658.355469 C 1129.847656 658.355469 1123.292969 664.910156 1123.292969 672.980469 L 1123.292969 868.8125 C 1123.292969 868.917969 1123.292969 869.023438 1123.292969 869.128906 L 1123.292969 1119.507812 C 1123.292969 1134.496094 1115.042969 1150.621094 1096.949219 1150.621094 C 1080.300781 1150.621094 1066.765625 1136.664062 1066.765625 1119.507812 L 1066.765625 915.410156 C 1066.765625 893.800781 1049.179688 876.214844 1027.570312 876.214844 C 1005.949219 876.214844 988.378906 893.800781 988.378906 915.410156 L 988.378906 1119.507812 C 988.378906 1136.664062 974.839844 1150.621094 958.191406 1150.621094 C 940.085938 1150.621094 931.847656 1134.496094 931.847656 1119.507812 L 931.847656 869.128906 C 931.847656 869.023438 931.847656 868.917969 931.832031 868.8125 L 931.832031 672.980469 C 931.832031 664.898438 925.292969 658.355469 917.210938 658.355469 C 909.144531 658.355469 902.589844 664.898438 902.589844 672.980469 L 902.589844 869.074219 C 902.589844 869.179688 902.589844 869.285156 902.601562 869.375 L 902.601562 1119.507812 C 902.601562 1153.921875 926.492188 1179.863281 958.191406 1179.863281 C 990.960938 1179.863281 1017.621094 1152.789062 1017.621094 1119.507812 L 1017.621094 915.410156 C 1017.621094 909.925781 1022.085938 905.460938 1027.570312 905.460938 C 1033.054688 905.460938 1037.519531 909.925781 1037.519531 915.410156 L 1037.519531 1119.507812 C 1037.519531 1152.789062 1064.179688 1179.863281 1096.949219 1179.863281 C 1128.632812 1179.863281 1152.539062 1153.921875 1152.539062 1119.507812 L 1152.539062 887.484375 C 1160.648438 892.105469 1169.96875 894.769531 1179.902344 894.769531 C 1209.867188 894.769531 1232.453125 870.277344 1232.453125 837.808594 L 1232.453125 668.320312 C 1232.453125 606.878906 1182.476562 556.902344 1121.050781 556.902344 "/>
</g>
</svg>
