<?xml version="1.0" encoding="UTF-8"?>
<svg xmlns="http://www.w3.org/2000/svg" xmlns:xlink="http://www.w3.org/1999/xlink" width="375pt" height="374.999991pt" viewBox="0 0 375 374.999991" version="1.2">
<g id="surface1">
<rect x="0" y="0" width="375" height="374.999991" style="fill:rgb(100%,100%,100%);fill-opacity:1;stroke:none;"/>
<rect x="0" y="0" width="375" height="374.999991" style="fill:rgb(100%,100%,100%);fill-opacity:1;stroke:none;"/>
<rect x="0" y="0" width="375" height="374.999991" style="fill:rgb(19.219971%,26.669312%,33.329773%);fill-opacity:1;stroke:none;"/>
<path style=" stroke:none;fill-rule:nonzero;fill:rgb(95.689392%,95.289612%,91.758728%);fill-opacity:1;" d="M 248.433594 337.6875 C 246.09375 337.6875 243.726562 337.089844 241.554688 335.824219 L 108.113281 258.0625 L 240.695312 166.96875 C 246.925781 162.683594 255.449219 164.269531 259.730469 170.503906 C 264.011719 176.738281 262.429688 185.261719 256.195312 189.546875 L 159.246094 256.164062 L 255.335938 312.15625 C 261.867188 315.964844 264.085938 324.34375 260.277344 330.886719 C 257.734375 335.253906 253.144531 337.6875 248.433594 337.6875 Z M 248.433594 337.6875 "/>
<path style=" stroke:none;fill-rule:nonzero;fill:rgb(95.689392%,95.289612%,91.758728%);fill-opacity:1;" d="M 248.433594 192.058594 C 246.09375 192.058594 243.726562 191.457031 241.554688 190.191406 L 108.113281 112.429688 L 240.695312 21.332031 C 246.925781 17.046875 255.449219 18.632812 259.730469 24.867188 C 264.011719 31.101562 262.429688 39.625 256.195312 43.910156 L 159.246094 110.527344 L 255.335938 166.519531 C 261.867188 170.328125 264.085938 178.707031 260.277344 185.25 C 257.734375 189.617188 253.144531 192.058594 248.433594 192.058594 Z M 248.433594 192.058594 "/>
<path style=" stroke:none;fill-rule:nonzero;fill:rgb(70.979309%,75.689697%,79.60968%);fill-opacity:1;" d="M 248.433594 354.886719 C 246.09375 354.886719 243.726562 354.285156 241.554688 353.023438 L 108.113281 275.257812 L 240.695312 184.167969 C 246.925781 179.882812 255.449219 181.464844 259.730469 187.703125 C 264.011719 193.9375 262.429688 202.460938 256.195312 206.746094 L 159.246094 273.363281 L 255.335938 329.351562 C 261.867188 333.160156 264.085938 341.542969 260.277344 348.085938 C 257.734375 352.453125 253.144531 354.886719 248.433594 354.886719 Z M 248.433594 354.886719 "/>
<path style=" stroke:none;fill-rule:nonzero;fill:rgb(61.959839%,35.289001%,38.819885%);fill-opacity:1;" d="M 248.433594 209.257812 C 246.09375 209.257812 243.726562 208.65625 241.554688 207.390625 L 108.113281 129.628906 L 240.695312 38.53125 C 246.925781 34.246094 255.449219 35.828125 259.730469 42.066406 C 264.011719 48.300781 262.429688 56.824219 256.195312 61.109375 L 159.246094 127.726562 L 255.335938 183.714844 C 261.867188 187.523438 264.085938 195.90625 260.277344 202.449219 C 257.734375 206.816406 253.144531 209.257812 248.433594 209.257812 Z M 248.433594 209.257812 "/>
</g>
</svg>
