<svg width="826" height="546" viewBox="0 0 826 546" fill="none" xmlns="http://www.w3.org/2000/svg">
<path fill-rule="evenodd" clip-rule="evenodd" d="M322.658 0.518017C550.666 -15.7051 966.271 353.788 745.146 453.682C524.021 553.577 122.279 521.819 28.1848 370.896C-65.909 219.972 94.5519 16.5444 322.658 0.518017Z" fill="#F4F3EA"/>
<path fill-rule="evenodd" clip-rule="evenodd" d="M326.6 545.187L369.2 334.687L382.1 336.887L425.4 544.787L416.9 544.887L375.6 339.787L334.5 545.187H326.6Z" fill="#B2BEC8"/>
<path fill-rule="evenodd" clip-rule="evenodd" d="M337.3 346.987L409.4 346.887V339.187L337.3 339.287V346.987Z" fill="#CED6DD"/>
<path fill-rule="evenodd" clip-rule="evenodd" d="M656.841 544.538L699.641 334.038L712.441 336.238L755.841 544.238H747.241L705.941 339.138L664.841 544.538H656.841Z" fill="#B2BEC8"/>
<path fill-rule="evenodd" clip-rule="evenodd" d="M667.741 346.438L739.741 346.338V338.738L667.741 338.838V346.438Z" fill="#CED6DD"/>
<path fill-rule="evenodd" clip-rule="evenodd" d="M821.9 338.7L260.6 339.5C258.5 339.5 256.7 337.6 256.7 335.3V314.9C256.7 312.5 258.5 310.7 260.6 310.7L821.9 309.9C824 309.9 825.8 311.8 825.8 314.1V334.5C825.7 336.8 824 338.7 821.9 338.7Z" fill="#CED6DD"/>
<path fill-rule="evenodd" clip-rule="evenodd" d="M825.4 204.1C825.4 204.1 823.4 206.5 820.8 208.5C818.2 210.5 815.3 208.9 815.3 208.9L797.6 193.3L798.3 192.7L783.3 181.2L783.5 303H807.5C811.9 303 815.5 306 815.5 309.6L745.4 309.7C745.4 307.9 746.3 306.2 747.7 305C749.2 303.8 751.2 303.1 753.4 303.1H777.4L777.2 176.5L725.3 136.8L725.1 137.9C725.1 137.9 731.3 143.4 736.9 148.1C742.4 152.8 741.9 158.2 741.9 158.2L715.5 154L688.3 149.4C688.3 149.4 690.2 144.2 697.5 141.7C704.8 139.2 713.1 136 713.1 136L715.2 128.1L718.8 128.7L720.1 124.1L722.1 124.5L724.1 124.9L723.2 129.6L726.8 130.2L726.5 131.5L802.2 189.2L803 188.5C803 188.5 820.9 198.8 823.7 200.5C826.2 202.2 825.4 204.1 825.4 204.1Z" fill="#CED6DD"/>
<path fill-rule="evenodd" clip-rule="evenodd" d="M687.9 149.3C687.9 149.3 698.9 146.6 715.5 149.6C732.1 152.6 741.4 158.1 741.4 158.1C741.4 158.1 730.4 160.6 714.4 158.1C698.2 155.8 687.9 149.3 687.9 149.3Z" fill="#B2BEC8"/>
<path fill-rule="evenodd" clip-rule="evenodd" d="M709.9 148.9C709.9 148.9 709.6 152.3 714.7 153.5C719.7 154.7 720.9 150.9 720.9 150.9C720.9 150.9 716 149.6 709.9 148.9Z" fill="#F0EFE6"/>
<path fill-rule="evenodd" clip-rule="evenodd" d="M263.4 405.9C261.1 417.4 238.1 540.9 238.1 540.9C238.1 540.9 238.7 544 242.4 544.5C246.1 545 248.1 542.1 248.1 542.1L280.4 408.8L263.4 405.9Z" fill="#B2BEC8"/>
<path fill-rule="evenodd" clip-rule="evenodd" d="M339.2 408.6C341.8 420 371.8 542.6 371.8 542.6C371.8 542.6 373.6 545.4 377.3 544.8C381 544.2 381.7 541 381.7 541L356.4 406.7L339.2 408.6Z" fill="#B2BEC8"/>
<path fill-rule="evenodd" clip-rule="evenodd" d="M377.2 408.2C379.8 419.6 409.8 542.2 409.8 542.2C409.8 542.2 411.6 545 415.3 544.4C419 543.8 419.7 540.6 419.7 540.6L394.4 406.3L377.2 408.2Z" fill="#B2BEC8"/>
<path fill-rule="evenodd" clip-rule="evenodd" d="M397.4 410.8L258.9 411C253.6 411 249.4 407.5 249.4 403.1C249.4 398.8 253.7 395.2 258.9 395.2L397.4 395C402.7 395 406.9 398.5 406.9 402.9C406.8 407.3 402.6 410.8 397.4 410.8Z" fill="#CED6DD"/>
<path fill-rule="evenodd" clip-rule="evenodd" d="M337.7 310.7L276.2 310.8C275 310.8 274 310 274 309V298.9C274 297.9 275 297.1 276.2 297.1L337.7 297C338.9 297 339.9 297.8 339.9 298.8V308.9C339.8 309.9 338.9 310.7 337.7 310.7Z" fill="#CED6DD"/>
<path fill-rule="evenodd" clip-rule="evenodd" d="M338.7 297L281.6 297.1C280.4 297.1 279.4 296.3 279.4 295.3V292.5C279.4 291.5 280.4 290.7 281.6 290.7L338.7 290.6C339.9 290.6 340.9 291.4 340.9 292.4V295.2C340.9 296.2 339.9 297 338.7 297Z" fill="#D6D5CD"/>
<path fill-rule="evenodd" clip-rule="evenodd" d="M335.3 284.2L279.7 284.3C278.1 284.3 276.8 283.2 276.8 281.9V275.8C276.8 274.5 278.1 273.4 279.7 273.4L335.3 273.3C336.9 273.3 338.2 274.4 338.2 275.7V281.8C338.2 283.1 336.9 284.2 335.3 284.2Z" fill="#D6D5CD"/>
<path fill-rule="evenodd" clip-rule="evenodd" d="M336.9 264.5L280 264.6C278.8 264.6 277.8 263.8 277.8 262.7V259.7C277.8 258.6 278.8 257.8 280 257.8L336.9 257.7C338.1 257.7 339.1 258.5 339.1 259.6V262.6C339.2 263.7 338.2 264.5 336.9 264.5Z" fill="#D6D5CD"/>
<path fill-rule="evenodd" clip-rule="evenodd" d="M333.3 290.7L276.2 290.8C275 290.8 274 290 274 289V286.2C274 285.2 275 284.4 276.2 284.4L333.3 284.3C334.5 284.3 335.5 285.1 335.5 286.1V288.9C335.4 289.8 334.5 290.7 333.3 290.7Z" fill="#CED6DD"/>
<path fill-rule="evenodd" clip-rule="evenodd" d="M334.7 273.3L278.4 273.4C276.9 273.4 275.8 272.4 275.8 271.2V266.8C275.8 265.6 276.9 264.6 278.4 264.6L334.7 264.5C336.2 264.5 337.3 265.5 337.3 266.7V271.1C337.3 272.3 336.2 273.3 334.7 273.3Z" fill="#CED6DD"/>
<path fill-rule="evenodd" clip-rule="evenodd" d="M659.8 276.4L417 276.7C412.7 276.7 409.4 273.2 409.4 268.9L409.2 116.7C409.2 112.4 412.7 108.9 416.8 108.9L659.6 108.6C663.9 108.6 667.2 112.1 667.2 116.4L667.4 268.6C667.6 272.9 664.1 276.4 659.8 276.4Z" fill="#455666"/>
<path fill-rule="evenodd" clip-rule="evenodd" d="M656.6 242.8L419.3 243.1L419.1 125C419.1 121.9 421.7 119.2 424.7 119.2L651 118.9C654.1 118.9 656.6 121.4 656.6 124.7L656.8 242.5C656.9 242.7 656.7 242.8 656.6 242.8Z" fill="#F0EFE6"/>
<path fill-rule="evenodd" clip-rule="evenodd" d="M667.5 241.5V270.9C667.5 274 664.9 276.7 661.9 276.7L577 276.8V297.9C583.3 298.3 588.2 303.6 588.2 310.1L490.6 310.2C490.6 306.8 491.9 303.7 494.1 301.6C496.1 299.4 499 298.1 502.2 298V276.9L414.9 277C411.8 277 409.3 274.5 409.3 271.2V241.6L667.3 241.2C667.4 241.1 667.5 241.3 667.5 241.5Z" fill="#455666"/>
<path fill-rule="evenodd" clip-rule="evenodd" d="M545.3 259.4C545.3 262.9 542.5 265.8 539 265.8C535.5 265.8 532.7 262.9 532.7 259.4C532.7 255.9 535.5 253 539 253C542.4 253.1 545.3 255.9 545.3 259.4Z" fill="#9DA7B0"/>
<path fill-rule="evenodd" clip-rule="evenodd" d="M641.3 131.1C641.3 132.2 640.4 133.1 639.3 133.1C638.2 133.1 637.3 132.1 637.3 131.1C637.3 130.1 638.2 129.1 639.3 129.1C640.4 129.1 641.3 130 641.3 131.1Z" fill="white"/>
<path fill-rule="evenodd" clip-rule="evenodd" d="M437.6 131.6C437.6 132.7 436.7 133.6 435.6 133.6C434.5 133.6 433.6 132.6 433.6 131.6C433.6 130.6 434.5 129.6 435.6 129.6C436.7 129.6 437.6 130.4 437.6 131.6Z" fill="#A86C74"/>
<path fill-rule="evenodd" clip-rule="evenodd" d="M445.8 131.5C445.8 132.6 444.9 133.5 443.8 133.5C442.7 133.5 441.8 132.5 441.8 131.5C441.8 130.4 442.7 129.5 443.8 129.5C444.9 129.5 445.8 130.4 445.8 131.5Z" fill="#CFCEC6"/>
<path fill-rule="evenodd" clip-rule="evenodd" d="M454.2 131.5C454.2 132.6 453.3 133.5 452.2 133.5C451.1 133.5 450.2 132.5 450.2 131.5C450.2 130.5 451.1 129.5 452.2 129.5C453.3 129.5 454.2 130.4 454.2 131.5Z" fill="#A6B1BA"/>
<path fill-rule="evenodd" clip-rule="evenodd" d="M636.4 147.6L435.4 147.9C432.7 147.9 430.5 145.6 430.5 142.9C430.5 140.1 432.7 137.9 435.4 137.9L636.4 137.6C639.1 137.6 641.3 139.9 641.3 142.6C641.4 145.3 639.1 147.6 636.4 147.6Z" fill="white"/>
<path fill-rule="evenodd" clip-rule="evenodd" d="M636.3 234L521.3 234.2C518.9 234.2 517 232.3 517 229.9L516.9 158.3C516.9 155.9 518.8 154 521.2 154L636.2 153.8C638.6 153.8 640.5 155.7 640.5 158.1L640.6 229.7C640.7 232.1 638.7 234 636.3 234Z" fill="white"/>
<path fill-rule="evenodd" clip-rule="evenodd" d="M495.5 233.9L441.2 234C435.3 234 430.5 229.5 430.5 223.9L430.4 165.1C430.4 159.6 435.2 155 441 155L495.3 154.9C501.2 154.9 506 159.4 506 165L506.1 223.8C506.3 229.5 501.5 233.9 495.5 233.9Z" fill="white"/>
<path fill-rule="evenodd" clip-rule="evenodd" d="M632.5 211.7L529.5 211.8C528.8 211.8 528.3 211.3 528.3 210.7C528.3 210.1 528.9 209.6 529.5 209.6L632.5 209.5C633.2 209.5 633.7 210 633.7 210.6C633.7 211.2 633.1 211.7 632.5 211.7Z" fill="#A6B1BA"/>
<path fill-rule="evenodd" clip-rule="evenodd" d="M632 221.7L529 221.8C528.3 221.8 527.8 221.3 527.8 220.7C527.8 220.1 528.4 219.6 529 219.6L632 219.5C632.7 219.5 633.2 220 633.2 220.6C633.3 221.1 632.7 221.7 632 221.7Z" fill="#A6B1BA"/>
<path fill-rule="evenodd" clip-rule="evenodd" d="M632 198.7L529 198.8C528.3 198.8 527.8 198.3 527.8 197.7C527.8 197.1 528.4 196.6 529 196.6L632 196.5C632.7 196.5 633.2 197 633.2 197.6C633.2 198.2 632.7 198.7 632 198.7Z" fill="#A6B1BA"/>
<path fill-rule="evenodd" clip-rule="evenodd" d="M632.4 186.9L529.4 187C528.7 187 528.2 186.5 528.2 185.9C528.2 185.3 528.8 184.8 529.4 184.8L632.4 184.7C633.1 184.7 633.6 185.2 633.6 185.8C633.7 186.5 633.1 186.9 632.4 186.9Z" fill="#A6B1BA"/>
<path fill-rule="evenodd" clip-rule="evenodd" d="M632.4 174.6L529.4 174.7C528.7 174.7 528.2 174.2 528.2 173.6C528.2 173 528.8 172.5 529.4 172.5L632.4 172.4C633.1 172.4 633.6 172.9 633.6 173.5C633.6 174.1 633.1 174.6 632.4 174.6Z" fill="#A6B1BA"/>
<path fill-rule="evenodd" clip-rule="evenodd" d="M632.4 165.1L529.4 165.2C528.7 165.2 528.2 164.7 528.2 164.1C528.2 163.5 528.8 163 529.4 163L632.4 162.9C633.1 162.9 633.6 163.4 633.6 164C633.6 164.6 633.1 165.1 632.4 165.1Z" fill="#A6B1BA"/>
<path fill-rule="evenodd" clip-rule="evenodd" d="M362.8 139.7C369.3 153.7 368.6 189.1 360.1 191.7C356.7 192.7 349.6 190.3 342.2 185.2L346.8 222.4H319.7L329 172.6C323.8 165.6 320.2 157.1 320.8 147.5C322.6 119.7 356.3 125.7 362.8 139.7Z" fill="#B8858C"/>
<path fill-rule="evenodd" clip-rule="evenodd" d="M352.1 124.5C333.3 116.4 318.4 132 316.5 134.6C314.4 137.4 313 140.7 312 144.2C310.9 147.9 310.2 151.9 310 155.9C309.8 159.6 309.8 163.7 310.6 167.3C311.3 170.8 312.8 173.6 315.4 175.4C316.6 176.2 317.9 176.8 319.1 177.4C320.3 178 321.7 178.5 322.9 178.8C325.4 179.4 328.3 179.3 330.2 177C330.9 176.2 331.7 175.2 332.2 174.1C332.4 173.7 332.5 173.5 332.3 173.1C332.1 172.6 331.6 172.4 331.3 172C329.4 170.1 328.2 167.5 327.8 164.7C327.5 161.7 328.2 157.7 330.8 156.4C333.9 154.7 337.5 156.6 340.3 158.4C341.5 153.6 344 149.1 347.8 147C352.1 144.6 357 144.2 361.4 142.2C362.5 141.6 363.8 141 364.5 139.9C364.8 139.4 365.3 138.8 365.4 138.2C365.6 137.4 365.2 136.8 364.7 136C362.9 132.5 359.2 127.6 352.1 124.5Z" fill="#18212A"/>
<path d="M320.8 139.5C330.134 139.5 337.7 130.814 337.7 120.1C337.7 109.386 330.134 100.7 320.8 100.7C311.466 100.7 303.9 109.386 303.9 120.1C303.9 130.814 311.466 139.5 320.8 139.5Z" fill="#18212A"/>
<path fill-rule="evenodd" clip-rule="evenodd" d="M317.3 173.3C311.2 189.8 305.5 200.8 300.4 206.3C302.6 211.8 309.8 214.2 321.8 213.5L328.5 177.2L317.3 173.3Z" fill="#18212A"/>
<path fill-rule="evenodd" clip-rule="evenodd" d="M457.7 356.6L458 356.4C467.3 350.4 482.7 358.6 482.6 367.6C482.6 395 460.7 524.1 459.6 532.3C458.5 540.5 446.3 542.6 445.6 532.3C444.5 515.9 442.3 459.3 444.5 433.1C445.4 422.3 446.3 411.9 447.2 402.8C435.8 426.5 418 460.4 394 504.5L381 497.6C391.2 459 399.6 431.8 406.1 415.9C417.3 388.7 427.9 365.4 432.2 357.2C439.1 344.3 451.2 348.8 457.7 356.6Z" fill="#B8858C"/>
<path fill-rule="evenodd" clip-rule="evenodd" d="M381.8 476.1L426.5 355C437.3 335.3 467.2 359 463.6 370.4C455.3 396.4 413.1 480.3 410.7 488.1L381.8 476.1Z" fill="#8E5159"/>
<path fill-rule="evenodd" clip-rule="evenodd" d="M379.3 489.8C376.5 492.4 374.7 494.6 373.9 496.2C372.9 498.2 371.7 501.4 370.3 505.6C372.3 506.9 390.8 519.1 425.6 542C429.8 537.5 430.4 534.1 427.5 531.5C424.6 529 422.2 526.9 420.4 525.2L401.3 495.1C401 494.5 400.2 494.4 399.7 494.9L395.8 498.4C392.2 498 389.4 497.3 387.6 496.1C386.1 495.1 384.5 493.1 382.6 490.1C381.9 488.9 380.5 488.7 379.5 489.5C379.4 489.8 379.3 489.8 379.3 489.8Z" fill="#E5E4DC"/>
<path fill-rule="evenodd" clip-rule="evenodd" d="M442.7 525.7C441.5 529.5 440.8 532.4 440.8 534.4C440.8 536.7 441.1 540.2 441.8 544.6C444.2 544.6 465.5 544.6 505.6 544.6C507.3 538.3 506.3 535 502.7 534.5C499.1 534 496.2 533.5 493.8 533.2L464.2 518C463.6 517.8 463 518 462.7 518.6L460.8 523.9C457.5 525.7 454.9 526.5 452.7 526.5C451 526.5 448.7 525.8 445.7 524.2C444.6 523.6 443.2 524.2 442.7 525.5C442.7 525.6 442.7 525.6 442.7 525.7Z" fill="#E5E4DC"/>
<path fill-rule="evenodd" clip-rule="evenodd" d="M485.8 376.9C485.8 411.3 471.6 491.5 471.6 499H440.9C445.4 427.4 447 391.2 445.7 390.5C443.8 389.3 365.3 399.4 341.8 399.4C307.9 399.4 293.8 375 292.7 329.6H359.9C373.6 331.3 444.9 347.8 471.4 353.4C482.6 356 485.8 367.4 485.8 376.9Z" fill="#B27B82"/>
<path fill-rule="evenodd" clip-rule="evenodd" d="M267.9 314.3L291.6 314.4C277 368.3 269.2 396.9 267.9 400.2C265.3 407.7 270.8 419 273.2 425C265.5 429 266.4 414.3 256.6 419.5C247.7 424.2 241 432.9 230.7 425.5C229.5 424.7 228 421.3 231.4 418.6C239.7 412.1 251.7 400.7 253.4 396.8C255.6 391.7 260.4 364.2 267.9 314.3ZM406.6 313.2L442.7 343.5C452.5 346.5 460.6 350.2 467.3 354.8C468.9 356.4 470.8 359.7 464.3 359.1C457.9 358.5 451.1 358.3 450.2 360.8C449.3 363.3 453.2 366.3 451.4 369.7C450.2 372 444.6 366.3 434.5 352.7L398.7 335.7L406.6 313.2Z" fill="#B8858C"/>
<path fill-rule="evenodd" clip-rule="evenodd" d="M335.1 200.7L344.9 198.8C381.2 234.6 396.2 303.6 440.6 340L429.9 355.2C352.7 344.3 333.7 260.2 335.1 200.7Z" fill="#8C969D"/>
<path fill-rule="evenodd" clip-rule="evenodd" d="M292.5 341.3C331.8 341.3 360.6 341.3 379.1 341.3C383 341.3 382.4 334.8 381.8 331.4C375.2 293.4 349.4 252.4 349.4 198.1L324.4 193.6C303.7 231.9 296.6 278.7 292.5 341.3Z" fill="#C8D1D8"/>
<path fill-rule="evenodd" clip-rule="evenodd" d="M322.6 193.9C323.5 193.9 324.2 194 325 194.1L332.9 194.6C355.3 281.6 361.5 339.5 351.4 368.6H283.3C279.3 379.4 275.4 388.4 271.7 395.8H253C251.2 331.2 264.7 276.4 293.3 231.3C289.7 230.1 286.8 227.3 284.7 223C275.6 204.1 278.9 193.8 288.6 190.4C298.3 186.9 307 193.9 322.6 193.9Z" fill="#AFBAC4"/>
<path fill-rule="evenodd" clip-rule="evenodd" d="M308.3 368.5H283.1C287.8 356 292.7 341.1 297.9 323.9C300 344.4 303.5 359.2 308.3 368.5Z" fill="black" fill-opacity="0.1"/>
</svg>
