<svg width="929" height="516" viewBox="0 0 929 516" fill="none" xmlns="http://www.w3.org/2000/svg">
<path fill-rule="evenodd" clip-rule="evenodd" d="M928.6 155.4C938.2 30.7 605.9 -39.7 324 26C42.1 91.7 -81 316.9 58.2 430.3C197.4 543.7 919.1 280.2 928.6 155.4Z" fill="#F4F3EA"/>
<path fill-rule="evenodd" clip-rule="evenodd" d="M492.1 349.2H411L400.4 510.3H521.1L492.1 349.2Z" fill="#C5CFD7"/>
<path fill-rule="evenodd" clip-rule="evenodd" d="M267.3 180.3C273.5 191.6 272.8 220.2 264.7 222.2C261.5 223 254.6 221 247.7 217L252.1 247H226.3L235.2 206.8C230.2 201.2 226.9 194.2 227.5 186.5C229 164.1 261.1 169 267.3 180.3Z" fill="#B8858C"/>
<path fill-rule="evenodd" clip-rule="evenodd" d="M253.3 169.3C260.5 169.9 267 172 268.8 173.3C268.8 180 267.5 181.9 256.1 181.8C253.3 183.2 251.2 185.7 248.9 188.9C249.9 202.3 252.5 208.9 256.7 208.9C263.1 208.9 268.5 205 271.2 205C273.2 205 272.8 207.5 271.4 209.3C270.3 210.8 264.9 212.3 264.9 214.6C264.9 216.9 269.2 215.1 269.2 216.5C269.2 218.8 270 223.1 265.8 223.1C261.6 223.1 249.7 221.6 247.7 215.6C246.4 211.7 245.5 203.7 245.1 191.6C244.8 191.6 244.6 191.6 244.3 191.6C240.7 191.6 237.8 194.4 237.8 197.9C237.8 199.7 238.5 201.2 239.7 202.4C238.2 204.4 236.5 206.6 234.6 208.8C227.4 204.6 221 191.3 228 179.5C229.9 173.7 235.4 171.7 240.6 170.2C245.2 168.5 249.6 168.3 253.3 169.3Z" fill="#DFDED6"/>
<path d="M215.5 515.2C261.229 515.2 298.3 480.86 298.3 438.5C298.3 396.14 261.229 361.8 215.5 361.8C169.771 361.8 132.7 396.14 132.7 438.5C132.7 480.86 169.771 515.2 215.5 515.2Z" fill="#C5CFD7"/>
<path fill-rule="evenodd" clip-rule="evenodd" d="M357.4 355.2L357.7 355C366.6 350.2 381.1 356.7 381.1 364C381.1 386.1 360.3 490.2 359.2 496.8C358.1 503.4 346.5 505.1 345.8 496.8C344.7 483.6 342.7 437.9 344.7 416.7C345.5 408 346.4 399.6 347.3 392.2C336.4 411.3 319.6 438.7 296.7 474.3L284.3 468.8C294 437.7 302 415.7 308.2 402.9C318.9 381 328.8 362.2 333 355.6C339.8 345.3 351.3 348.9 357.4 355.2Z" fill="#B8858C"/>
<path fill-rule="evenodd" clip-rule="evenodd" d="M285.3 451.7L327.8 354C338 338.1 366.5 357.2 363.1 366.5C355.2 387.4 315.1 455.2 312.8 461.4L285.3 451.7Z" fill="#171F27"/>
<path fill-rule="evenodd" clip-rule="evenodd" d="M282.9 462.8C280.3 464.9 278.5 466.6 277.7 468C276.7 469.6 275.6 472.2 274.3 475.6C276.2 476.7 293.8 486.5 326.8 505C330.8 501.4 331.4 498.6 328.7 496.6C326 494.6 323.7 492.9 321.9 491.5L303.8 467.3C303.5 466.8 302.8 466.7 302.3 467.1L298.5 469.9C295 469.6 292.5 469 290.8 468C289.4 467.2 287.8 465.6 286 463.2C285.3 462.3 284 462 283 462.7C283 462.7 283 462.7 282.9 462.8Z" fill="#E5E4DC"/>
<path fill-rule="evenodd" clip-rule="evenodd" d="M343.1 491.6C341.9 494.7 341.3 497 341.3 498.6C341.3 500.5 341.6 503.2 342.3 506.8C344.5 506.8 364.8 506.8 402.9 506.8C404.5 501.7 403.6 499 400.2 498.6C396.8 498.2 394 497.8 391.7 497.5L363.5 485.3C363 485.1 362.3 485.3 362.1 485.8L360.3 490.1C357.2 491.5 354.6 492.2 352.6 492.2C351 492.2 348.8 491.6 346 490.3C344.9 489.8 343.6 490.3 343.1 491.3C343.2 491.5 343.1 491.6 343.1 491.6Z" fill="#E5E4DC"/>
<path fill-rule="evenodd" clip-rule="evenodd" d="M384.1 371.6C384.1 399.3 370.5 464 370.5 470.1H341.3C345.6 412.4 347.1 383.2 345.8 382.6C343.9 381.7 269.4 389.8 247.1 389.8C214.9 389.8 201.5 370.1 200.5 333.5H264.3C277.3 334.9 345.1 348.1 370.3 352.7C381.1 354.7 384.1 364 384.1 371.6Z" fill="#354858"/>
<path fill-rule="evenodd" clip-rule="evenodd" d="M177.2 321.1L199.7 321.2C185.8 364.7 178.3 387.7 177.2 390.4C174.7 396.4 180 405.5 182.2 410.4C174.9 413.6 175.6 401.8 166.4 406C158 409.8 151.5 416.7 141.8 410.9C140.6 410.2 139.3 407.5 142.5 405.4C150.4 400.1 161.8 390.9 163.3 387.9C165.4 383.6 170 361.4 177.2 321.1ZM312.3 317L342.8 345.8C351.7 349.5 358.9 353.5 364.6 358C365.9 359.5 367.3 362.3 361.3 361.1C355.3 359.8 349 358.7 347.8 360.6C346.7 362.5 350 365.4 347.9 367.9C346.5 369.5 341.8 364.3 333.9 352.2L302.2 334L312.3 317Z" fill="#B8858C"/>
<path fill-rule="evenodd" clip-rule="evenodd" d="M241 229.6L250.3 228.1C266.3 266.9 294.2 302.2 334.1 333.9L304 369.4C264.1 324.2 239.5 277.6 241 229.6Z" fill="#2F4151"/>
<path fill-rule="evenodd" clip-rule="evenodd" d="M200.5 343H283.3C264.1 297.7 254.5 259.3 254.5 227.6L229.5 224C209.9 254.6 204.4 292.4 200.5 343Z" fill="#C8D1D8"/>
<path fill-rule="evenodd" clip-rule="evenodd" d="M230.6 224C232.6 224.1 235.5 224.2 239.5 224.4L245.5 241.1C246.1 261.5 249.9 302.6 256.7 364.5H202.4C202.5 368.8 202.8 373.1 203.1 377.4H162.8C168.8 311.3 190.9 260.2 228.9 224H230.6V224Z" fill="#536371"/>
<path fill-rule="evenodd" clip-rule="evenodd" d="M217.7 364.9H202.5C201.8 345.7 203 327.4 206.1 309.8C207.6 336.4 211.5 354.8 217.7 364.9Z" fill="black" fill-opacity="0.1"/>
<path fill-rule="evenodd" clip-rule="evenodd" d="M214.6 332.5L241.3 320.5V332.5H214.6Z" fill="white" fill-opacity="0.2"/>
<path fill-rule="evenodd" clip-rule="evenodd" d="M654.8 198.8C649 209.6 649.7 237 657.2 238.9C660.2 239.7 666.6 237.8 673.1 233.9L669 262.7H693.2L684.9 224.2C689.5 218.8 692.7 212.2 692.2 204.7C690.6 183.3 660.6 188 654.8 198.8Z" fill="#96555E"/>
<path fill-rule="evenodd" clip-rule="evenodd" d="M664.3 187.1C681.1 180.9 694.2 192.9 696 194.9C697.8 197 699.1 199.6 700 202.3C701 205.2 701.6 208.2 701.8 211.3C702 214.2 702 217.3 701.3 220.2C700.7 222.9 699.3 225.1 697 226.4C695.9 227 694.8 227.5 693.7 228C692.6 228.4 691.5 228.8 690.3 229.1C688.1 229.6 685.5 229.5 683.8 227.7C683.2 227.1 682.5 226.3 682.1 225.5C681.9 225.2 681.8 225 682 224.8C682.2 224.5 682.6 224.2 682.9 224C684.6 222.5 685.7 220.6 686 218.3C686.3 216 685.6 212.9 683.3 211.9C680.5 210.6 677.4 212.1 674.8 213.4C673.7 209.7 671.5 206.3 668.1 204.6C664.3 202.7 659.9 202.5 656 200.8C655 200.4 653.9 199.9 653.2 199C652.9 198.6 652.5 198.2 652.4 197.7C652.2 197.1 652.6 196.5 653 196.1C654.7 193.3 657.9 189.4 664.3 187.1Z" fill="#18212A"/>
<path d="M692.2 198.7C700.54 198.7 707.3 191.984 707.3 183.7C707.3 175.416 700.54 168.7 692.2 168.7C683.861 168.7 677.1 175.416 677.1 183.7C677.1 191.984 683.861 198.7 692.2 198.7Z" fill="#18212A"/>
<path fill-rule="evenodd" clip-rule="evenodd" d="M695.3 224.8C700.7 237.6 705.7 246.1 710.3 250.3C708.3 254.5 701.9 256.4 691.3 255.9L685.3 227.8L695.3 224.8Z" fill="#18212A"/>
<path fill-rule="evenodd" clip-rule="evenodd" d="M736.8 387.7H659.1L648.9 511.7H764.6L736.8 387.7Z" fill="#C5CFD7"/>
<path fill-rule="evenodd" clip-rule="evenodd" d="M736.8 387.7H712.9L698.6 511.7H764.6L736.8 387.7Z" fill="black" fill-opacity="0.1"/>
<path fill-rule="evenodd" clip-rule="evenodd" d="M570.5 366.4L570.2 366.2C561.9 361.6 548.3 367.9 548.3 374.8C548.3 396 567.8 495.7 568.8 502C569.8 508.3 580.7 510 581.3 502C582.3 489.3 584.2 445.6 582.3 425.3C581.5 416.9 580.7 409 579.9 401.9C590.1 420.2 605.9 446.4 627.2 480.5L638.8 475.2C629.7 445.4 622.2 424.4 616.4 412.1C606.4 391.1 597.1 373.1 593.1 366.7C586.9 356.9 576.1 360.4 570.5 366.4Z" fill="#96555E"/>
<path fill-rule="evenodd" clip-rule="evenodd" d="M637.9 458.8L598.1 365.2C588.6 350 561.9 368.3 565.1 377.1C572.5 397.2 610 462.1 612.2 468.1L637.9 458.8Z" fill="#C8D1D8"/>
<path fill-rule="evenodd" clip-rule="evenodd" d="M640.1 469.5C642.6 471.5 644.2 473.2 644.9 474.5C645.8 476.1 646.9 478.5 648.1 481.8C646.3 482.8 629.9 492.2 598.9 510C595.2 506.5 594.6 503.8 597.2 501.9C599.8 500 601.9 498.4 603.5 497.1L620.5 473.9C620.8 473.5 621.5 473.4 621.9 473.7L625.4 476.4C628.6 476.1 631 475.5 632.6 474.6C633.9 473.9 635.4 472.3 637.1 470C637.7 469.1 639 468.9 639.9 469.5C640.1 469.4 640.1 469.4 640.1 469.5Z" fill="#E5E4DC"/>
<path fill-rule="evenodd" clip-rule="evenodd" d="M583.8 497.1C584.9 500.1 585.5 502.3 585.5 503.8C585.5 505.6 585.2 508.2 584.6 511.7C582.5 511.7 563.6 511.7 527.8 511.7C526.3 506.9 527.2 504.2 530.4 503.9C533.6 503.5 536.2 503.2 538.3 502.9L564.7 491.2C565.2 491 565.8 491.2 566 491.7L567.7 495.8C570.6 497.2 573 497.8 574.9 497.8C576.4 497.8 578.5 497.2 581.1 496C582.1 495.5 583.3 496 583.8 497C583.8 497 583.8 497 583.8 497.1Z" fill="#E5E4DC"/>
<path fill-rule="evenodd" clip-rule="evenodd" d="M545.5 382.1C545.5 408.7 558.2 470.6 558.2 476.5H585.5C581.5 421.2 580.1 393.3 581.2 392.7C582.9 391.8 652.7 399.6 673.6 399.6C703.8 399.6 716.2 380.7 717.3 345.7H657.5C645.3 347 581.9 359.7 558.3 364.1C548.3 366 545.5 374.8 545.5 382.1Z" fill="#F3F2E9"/>
<path fill-rule="evenodd" clip-rule="evenodd" d="M739.5 315.1L717.5 315.2C741.7 369.2 754.3 397.5 755.3 400.1C757.6 405.8 752.7 414.6 750.6 419.3C757.5 422.4 756.7 411 765.4 415.1C773.3 418.8 779.3 425.4 788.4 419.8C789.5 419.1 790.8 416.5 787.8 414.5C780.4 409.5 769.7 400.6 768.3 397.7C766.3 393.6 756.7 366.1 739.5 315.1ZM552.6 296C557.1 299.7 561.6 303.8 560.8 305.7C560 307.7 555.9 306.9 555.2 310C554.7 312 561.5 312.3 575.4 311L607.6 323.7L614.7 306L575 300.6C567.1 296.2 559.7 293.2 553.1 291.7C551.1 291.6 548.2 292.3 552.6 296Z" fill="#7A454C"/>
<path fill-rule="evenodd" clip-rule="evenodd" d="M679.1 245.7L661.8 246.8C657.6 285 634.4 309.1 582.6 301L575.7 350.2C624.1 356.4 666.6 337.2 675.3 285C677.7 271.5 679.4 257.4 679.1 245.7Z" fill="#8C969D"/>
<path fill-rule="evenodd" clip-rule="evenodd" d="M687.7 240.7L661.5 246.7C661.5 290.9 647.5 319.3 640.1 351.8L639.9 352.8H710.5C711.5 364.2 712.1 375.8 712.4 387.8H765.3C753.3 324.5 728 275.5 689.5 240.8H687.7V240.7Z" fill="#AFBAC4"/>
<path fill-rule="evenodd" clip-rule="evenodd" d="M699.3 288.9C701.1 316.7 700 338 696.1 352.6H710.4C708.5 330.6 705.1 309.8 699.6 290.2L699.3 288.9Z" fill="black" fill-opacity="0.1"/>
</svg>
