<svg width="829" height="511" viewBox="0 0 829 511" fill="none" xmlns="http://www.w3.org/2000/svg">
<path fill-rule="evenodd" clip-rule="evenodd" d="M562.094 451.743C607.486 406.794 245.064 317.896 107.283 360.048C-30.4982 402.199 -43.1616 482.507 113.793 503.783C270.747 525.058 516.97 496.791 562.094 451.743Z" fill="#F4F3EA"/>
<path fill-rule="evenodd" clip-rule="evenodd" d="M66.3 106H78.5C79.6 106 80.5 107 80.5 108.2C80.5 109.4 79.6 110.4 78.5 110.4H66.3C65.2 110.4 64.3 109.4 64.3 108.2C64.1 106.9 65.1 106 66.3 106Z" fill="#CB521E"/>
<path opacity="0.3" fill-rule="evenodd" clip-rule="evenodd" d="M90.8 106H103C104.1 106 105 107 105 108.2C105 109.4 104.1 110.4 103 110.4H90.8C89.7 110.4 88.8 109.4 88.8 108.2C88.6 106.9 89.6 106 90.8 106Z" fill="#C66A15"/>
<path opacity="0.3" fill-rule="evenodd" clip-rule="evenodd" d="M115.2 106H127.4C128.5 106 129.4 107 129.4 108.2C129.4 109.4 128.5 110.4 127.4 110.4H115.2C114.1 110.4 113.2 109.4 113.2 108.2C113.1 106.9 114 106 115.2 106Z" fill="#C66A15"/>
<path fill-rule="evenodd" clip-rule="evenodd" d="M150.6 154H158.7C159.9 154 160.7 155 160.7 156.2C160.7 157.4 159.8 158.4 158.7 158.4H150.6C149.4 158.4 148.6 157.4 148.6 156.2C148.6 155 149.6 154 150.6 154Z" fill="#C66A15"/>
<path fill-rule="evenodd" clip-rule="evenodd" d="M146.5 167.2H158.8C160 167.2 160.8 168.2 160.8 169.4C160.8 170.6 159.9 171.6 158.8 171.6H146.6C145.4 171.6 144.6 170.6 144.6 169.4C144.5 168.2 145.5 167.2 146.5 167.2Z" fill="#C66A15"/>
<path fill-rule="evenodd" clip-rule="evenodd" d="M154.8 180.2H158.9C160.1 180.2 160.9 181.2 160.9 182.4C160.9 183.6 160 184.6 158.9 184.6H154.8C153.6 184.6 152.8 183.6 152.8 182.4C152.8 181.2 153.6 180.2 154.8 180.2Z" fill="#C66A15"/>
<path fill-rule="evenodd" clip-rule="evenodd" d="M158.9 193.4C160 193.4 160.9 194.4 160.9 195.6C160.9 196.8 160 197.8 158.9 197.8C157.8 197.8 156.9 196.8 156.9 195.6C156.8 194.4 157.7 193.4 158.9 193.4Z" fill="#C66A15"/>
<path fill-rule="evenodd" clip-rule="evenodd" d="M150.6 206.5H158.7C159.9 206.5 160.7 207.5 160.7 208.7C160.7 209.9 159.8 210.9 158.7 210.9H150.6C149.4 210.9 148.6 209.9 148.6 208.7C148.6 207.5 149.6 206.5 150.6 206.5Z" fill="#C66A15"/>
<path fill-rule="evenodd" clip-rule="evenodd" d="M154.8 219.7H158.9C160.1 219.7 160.9 220.7 160.9 221.9C160.9 223.1 160 224.1 158.9 224.1H154.8C153.6 224.1 152.8 223.1 152.8 221.9C152.6 220.7 153.6 219.7 154.8 219.7Z" fill="#C66A15"/>
<path fill-rule="evenodd" clip-rule="evenodd" d="M158.9 232.7C160 232.7 160.9 233.7 160.9 234.9C160.9 236.1 160 237.1 158.9 237.1C157.8 237.1 156.9 236.1 156.9 234.9C156.8 233.7 157.7 232.7 158.9 232.7Z" fill="#CB521E"/>
<path fill-rule="evenodd" clip-rule="evenodd" d="M34.1001 285.2H103.6C104.8 285.2 105.6 286.2 105.6 287.4C105.6 288.6 104.7 289.6 103.6 289.6H34.1001C32.9001 289.6 32.1001 288.6 32.1001 287.4C32.1001 286.3 33.0001 285.2 34.1001 285.2Z" fill="#C66A15"/>
<path fill-rule="evenodd" clip-rule="evenodd" d="M154.8 245.9H158.9C160.1 245.9 160.9 246.9 160.9 248.1C160.9 249.3 160 250.3 158.9 250.3H154.8C153.6 250.3 152.8 249.3 152.8 248.1C152.8 246.9 153.6 245.9 154.8 245.9Z" fill="#CB521E"/>
<path fill-rule="evenodd" clip-rule="evenodd" d="M150.6 259H158.7C159.9 259 160.7 260 160.7 261.2C160.7 262.4 159.8 263.4 158.7 263.4H150.6C149.4 263.4 148.6 262.4 148.6 261.2C148.6 260.1 149.6 259 150.6 259Z" fill="#C66A15"/>
<path fill-rule="evenodd" clip-rule="evenodd" d="M34.1001 272.2H62.7001C63.9001 272.2 64.7001 273.2 64.7001 274.4C64.7001 275.6 63.8001 276.6 62.7001 276.6H34.1001C32.9001 276.6 32.1001 275.6 32.1001 274.4C32.1001 273.1 33.0001 272.2 34.1001 272.2Z" fill="#C66A15"/>
<path fill-rule="evenodd" clip-rule="evenodd" d="M34.1001 259H50.5001C51.7001 259 52.5001 260 52.5001 261.2C52.5001 262.4 51.6001 263.4 50.5001 263.4H34.1001C32.9001 263.4 32.1001 262.4 32.1001 261.2C32.1001 260.1 33.0001 259 34.1001 259Z" fill="#CB521E"/>
<path fill-rule="evenodd" clip-rule="evenodd" d="M34.1001 245.9H46.3001C47.5001 245.9 48.3001 246.9 48.3001 248.1C48.3001 249.3 47.4001 250.3 46.3001 250.3H34.1001C32.9001 250.3 32.1001 249.3 32.1001 248.1C32.1001 246.9 33.0001 245.9 34.1001 245.9Z" fill="#C66A15"/>
<path fill-rule="evenodd" clip-rule="evenodd" d="M34.1001 180.2H62.7001C63.9001 180.2 64.7001 181.2 64.7001 182.4C64.7001 183.6 63.8001 184.6 62.7001 184.6H34.1001C32.9001 184.6 32.1001 183.6 32.1001 182.4C32.1001 181.2 33.0001 180.2 34.1001 180.2Z" fill="#C66A15"/>
<path fill-rule="evenodd" clip-rule="evenodd" d="M34.1001 167.2H79.1001C80.3001 167.2 81.1001 168.2 81.1001 169.4C81.1001 170.6 80.2001 171.6 79.1001 171.6H34.1001C32.9001 171.6 32.1001 170.6 32.1001 169.4C32.1001 168.2 33.0001 167.2 34.1001 167.2Z" fill="#C66A15"/>
<path fill-rule="evenodd" clip-rule="evenodd" d="M34.1001 154H50.5001C51.7001 154 52.5001 155 52.5001 156.2C52.5001 157.4 51.6001 158.4 50.5001 158.4H34.1001C32.9001 158.4 32.1001 157.4 32.1001 156.2C32.1001 155 33.0001 154 34.1001 154Z" fill="#C66A15"/>
<path fill-rule="evenodd" clip-rule="evenodd" d="M40.2001 128H152.7C157.2 128 160.8 131.9 160.8 136.6C160.8 141.3 157.2 145.2 152.7 145.2H40.2001C35.7001 145.2 32.1001 141.3 32.1001 136.6C32.1001 131.9 35.7001 128 40.2001 128Z" fill="#CB521E"/>
<path fill-rule="evenodd" clip-rule="evenodd" d="M42.4 325.5H81.1C86.8 325.5 91.5 330.5 91.5 336.5C91.5 342.6 86.8 347.5 81.1 347.5H42.4C36.7 347.5 32 342.5 32 336.5C32.1 330.5 36.7 325.5 42.4 325.5Z" fill="#C66A15"/>
<path fill-rule="evenodd" clip-rule="evenodd" d="M358 338V15.743C358 7.0791 363.11 0 369.221 0H817.779C823.89 0 829 7.0791 829 15.743V337.155C829 337.577 828.699 337.894 828.499 337.894L358 338Z" fill="#C66A15"/>
<path fill-rule="evenodd" clip-rule="evenodd" d="M801.425 352L821 333H782L801.425 352Z" fill="#C66A15"/>
<path fill-rule="evenodd" clip-rule="evenodd" d="M378 14C378 16.2 375.907 18 373.5 18C370.988 18 369 16.2 369 14C369 11.8 371.093 10 373.5 10C375.907 10 378 11.8 378 14Z" fill="#172028"/>
<path fill-rule="evenodd" clip-rule="evenodd" d="M395 14C395 16.2 393.14 18 391 18C388.86 18 387 16.2 387 14C387 11.8 388.86 10 391 10C393.326 10 395 11.8 395 14Z" fill="white"/>
<path fill-rule="evenodd" clip-rule="evenodd" d="M414 14C414 16.2 411.907 18 409.5 18C406.988 18 405 16.2 405 14C405 11.8 407.093 10 409.5 10C411.907 10 414 11.8 414 14Z" fill="white"/>
<path d="M593 24H358V161H593V24Z" fill="#F4F3EA"/>
<path d="M593 161H358V298H593V161Z" fill="#E6E7D8"/>
<path d="M829 24H593V161H829V24Z" fill="#E6E7D8"/>
<path d="M829 298H358V338H829V298Z" fill="#C66A15"/>
<path d="M378.904 324.189H376V329.253H378.904V324.189Z" fill="white"/>
<path fill-rule="evenodd" clip-rule="evenodd" d="M374.698 327.702H380.306C380.707 327.702 381.007 328.012 381.007 328.426C381.007 328.839 380.707 329.149 380.306 329.149H374.698C374.297 329.149 373.997 328.839 373.997 328.426C373.897 328.116 374.297 327.702 374.698 327.702Z" fill="white"/>
<path fill-rule="evenodd" clip-rule="evenodd" d="M377.402 311.581C379.004 311.581 380.206 312.821 380.206 314.474V319.538C380.206 321.088 379.004 322.432 377.402 322.432C375.799 322.432 374.598 321.192 374.598 319.538V314.474C374.698 312.924 375.899 311.581 377.402 311.581Z" fill="white"/>
<path d="M372.695 318.505C373.095 318.505 373.396 318.815 373.396 319.228C373.696 322.122 374.998 323.569 377.402 323.569C379.805 323.569 381.107 322.432 381.308 319.848C381.308 319.435 381.608 319.125 382.009 319.125C382.409 319.125 382.71 319.435 382.71 319.848C382.409 323.155 380.707 324.912 377.502 324.912C374.297 324.912 372.394 322.949 372.194 319.332C371.994 318.918 372.294 318.608 372.695 318.505Z" fill="white"/>
<path fill-rule="evenodd" clip-rule="evenodd" d="M802.861 318.918C806.767 318.918 810.072 321.812 810.773 325.222C808.77 327.186 806.066 328.529 802.861 328.529C799.757 328.529 796.852 327.289 794.949 325.222C795.651 321.502 798.955 318.918 802.861 318.918Z" fill="white"/>
<path d="M802.861 319.745C805.461 319.745 807.568 317.709 807.568 315.198C807.568 312.687 805.461 310.651 802.861 310.651C800.262 310.651 798.154 312.687 798.154 315.198C798.154 317.709 800.262 319.745 802.861 319.745Z" fill="white"/>
<path d="M817.082 314.164H815.079V322.225H817.082V314.164Z" fill="white"/>
<path fill-rule="evenodd" clip-rule="evenodd" d="M820.287 317.161V319.228H811.975V317.161H820.287Z" fill="white"/>
<path fill-rule="evenodd" clip-rule="evenodd" d="M577.727 309.927H609.274C611.177 309.927 612.579 311.374 612.579 313.234V324.705C612.579 326.566 610.976 328.012 609.274 328.012H577.727C575.824 328.012 574.422 326.566 574.422 324.705V313.234C574.422 311.374 575.824 309.927 577.727 309.927Z" fill="white"/>
<path fill-rule="evenodd" clip-rule="evenodd" d="M593.55 312.924L599.159 318.918H587.842L593.55 312.924Z" fill="#B2BEC8"/>
<path d="M596.054 318.918H590.947V323.982H596.054V318.918Z" fill="#B2BEC8"/>
<path fill-rule="evenodd" clip-rule="evenodd" d="M488.835 45.2584C486.532 54.043 491.239 73.368 496.546 73.368C498.65 73.368 502.656 70.888 506.561 67.064L508.164 88.249L524.388 84.116L513.171 58.176C515.475 53.629 516.476 48.255 515.174 43.0882C510.567 28.2067 491.239 36.6809 488.835 45.2584Z" fill="#B8858C"/>
<path fill-rule="evenodd" clip-rule="evenodd" d="M488.434 40.8146C487.934 39.9879 485.33 37.8176 488.334 34.2006C488.835 33.4772 489.937 33.7872 490.838 33.1672C491.539 32.7538 491.539 31.617 492.34 31.307C493.141 30.8936 494.243 31.617 495.144 31.2037C495.645 30.8936 496.346 29.9635 497.047 29.6535C498.149 29.3435 499.351 30.0669 500.352 29.9635C501.053 29.8602 501.454 28.7234 501.955 28.4134C503.457 27.7933 504.859 28.31 506.261 28.1034C507.463 28 508.564 30.3769 509.566 30.7903C512.67 31.9271 514.874 31.9271 517.478 33.2705C520.582 34.8207 521.383 36.5775 522.785 37.7143C524.288 38.9544 525.99 44.1216 526.09 47.7386C526.19 49.909 526.391 55.593 524.588 58.383C522.185 62.103 516.276 64.377 515.775 64.274C512.871 63.137 505.259 54.559 500.552 51.976C496.947 50.322 491.439 45.8784 488.434 40.8146Z" fill="#B9B9B2"/>
<path fill-rule="evenodd" clip-rule="evenodd" d="M498.049 28.5167C502.355 37.8176 505.56 44.1216 507.663 47.7386C509.766 51.356 511.369 54.456 512.871 57.04C510.167 53.319 506.862 48.565 503.557 43.7082C501.153 40.0912 498.65 35.5441 495.645 29.9635L493.642 30.5836C498.85 39.3678 502.656 45.3617 504.959 48.669C508.865 54.146 511.669 58.28 513.772 60.967C510.467 57.763 505.36 52.492 499.651 45.155C497.548 42.2614 494.544 38.0243 491.139 31.9271L489.536 33.1672C494.443 40.6079 498.049 45.7751 500.452 48.565C508.364 57.763 514.974 62.723 517.277 64.17C517.678 64.48 517.778 64.48 517.678 64.274C517.678 64.274 517.678 64.274 517.678 64.17C517.978 64.48 517.978 64.48 518.179 64.584C520.582 66.444 512.971 54.973 506.762 42.6748C504.759 38.9544 502.656 34.0973 500.252 28L498.049 28.5167Z" fill="black" fill-opacity="0.2"/>
<path fill-rule="evenodd" clip-rule="evenodd" d="M550.727 121.733L540.211 117.702C542.214 143.125 543.316 156.559 543.516 158.213C544.217 161.623 540.211 165.137 538.308 167.1C541.914 170.304 543.015 164.207 547.522 168.237C551.628 171.958 554.332 176.711 560.341 175.885C561.042 175.781 562.244 174.748 560.642 172.991C556.936 168.651 551.929 161.83 551.428 159.97C550.927 157.489 550.727 144.675 550.727 121.733ZM470.307 131.757L449.376 150.565C443.468 152.736 438.56 155.113 434.855 158.006C433.953 159.04 432.852 160.9 436.858 160.28C440.764 159.556 444.97 159.143 445.571 160.59C446.272 162.037 443.968 163.897 445.17 165.654C445.971 166.79 449.276 163.38 454.885 155.319L476.116 144.158L470.307 131.757Z" fill="#B8858C"/>
<path fill-rule="evenodd" clip-rule="evenodd" d="M513.972 70.991L506.361 68.304C495.946 95.38 480.623 121.836 454.785 144.055L461.194 155.526C483.828 141.471 505.159 130.517 513.972 109.435C516.877 102.511 514.173 79.258 513.972 70.991Z" fill="#171F27"/>
<path fill-rule="evenodd" clip-rule="evenodd" d="M543 159.885C519.863 162.705 501.677 162.705 488.543 159.885C486.926 159.559 486.623 156.413 487.432 154.135C499.253 120.722 507.436 91.324 507.436 68C509.558 69.193 513.498 69.519 518.853 68.651C533.402 92.734 540.171 120.289 543 159.885Z" fill="#172028"/>
<path fill-rule="evenodd" clip-rule="evenodd" d="M516.977 68.821L511.769 70.991C525.89 94.967 537.207 120.906 541.313 149.635L551.929 154.182C552.229 132.79 553.932 114.189 543.216 95.07C539.911 88.869 522.986 74.505 516.977 68.821Z" fill="#171F27"/>
<path d="M829 161H593V298H829V161Z" fill="#F4F3EA"/>
<path fill-rule="evenodd" clip-rule="evenodd" d="M452.521 166.564L477.374 162.149C477.374 162.149 478.98 161.161 474.475 160.879C469.969 160.597 422.803 159.561 422.803 159.561L452.521 166.564Z" fill="#455666"/>
<path fill-rule="evenodd" clip-rule="evenodd" d="M382.517 166.304L451.82 166.562C453.122 166.567 454.228 165.434 454.233 164.09L448.096 117.563C448.101 116.323 447.004 115.078 445.702 115.074L376.499 114.816C375.198 114.812 374.092 115.944 374.087 117.288L380.223 163.815C380.118 165.159 381.216 166.299 382.517 166.304Z" fill="#5D6C7A"/>
<path fill-rule="evenodd" clip-rule="evenodd" d="M730.657 184.986C727.553 193.047 729.956 212.269 735.164 213.096C737.167 213.406 741.173 211.649 745.179 208.548L744.478 229.114L760.301 227.564L751.989 200.901C754.693 196.767 756.295 192.013 755.294 186.846C753.091 171.861 733.762 177.132 730.657 184.986Z" fill="#D4A181"/>
<path fill-rule="evenodd" clip-rule="evenodd" d="M736.165 176.099C746.681 170.621 756.195 178.269 757.497 179.509C758.799 180.956 759.901 182.713 760.702 184.573C761.503 186.536 762.204 188.706 762.605 190.877C762.905 192.84 763.306 195.01 762.905 197.181C762.605 199.144 762.004 200.798 760.502 201.728C759.801 202.348 759.2 202.761 758.499 202.968C757.798 203.278 756.996 203.691 756.395 204.001C754.893 204.415 753.291 204.621 751.989 203.381C751.588 202.968 751.088 202.348 750.687 201.934C750.587 201.624 750.387 201.624 750.587 201.314C750.687 201.004 750.987 200.901 751.088 200.591C752.189 199.454 752.69 198.007 752.69 196.457C752.69 194.907 751.989 192.737 750.587 192.117C748.584 191.393 746.681 192.737 745.079 193.667C744.177 191.083 742.375 188.81 739.971 187.776C737.267 186.64 734.363 186.743 731.659 185.916C730.958 185.606 730.157 185.296 729.656 184.779C729.355 184.469 729.155 184.159 728.955 183.953C728.855 183.539 729.055 183.126 729.255 182.816C730.257 181.162 732.16 178.165 736.165 176.099Z" fill="#18212A"/>
<path d="M755.672 182.58C761.087 181.735 764.786 176.338 763.934 170.525C763.082 164.712 758.003 160.685 752.588 161.53C747.174 162.374 743.475 167.771 744.327 173.584C745.178 179.397 750.258 183.425 755.672 182.58Z" fill="#18212A"/>
<path fill-rule="evenodd" clip-rule="evenodd" d="M759.2 200.798C763.706 209.375 767.612 215.162 770.917 217.849C769.815 221.053 765.809 222.706 758.799 223.016L752.79 203.691L759.2 200.798Z" fill="#18212A"/>
<path fill-rule="evenodd" clip-rule="evenodd" d="M708.231 274.4L685.326 290.945C679.208 292.605 674.03 294.422 669.878 296.904C668.912 297.801 667.59 299.596 671.643 299.541C675.662 299.282 680.029 299.279 680.368 300.689C680.922 302.168 678.445 303.738 679.48 305.66C680.215 307.003 683.735 303.789 690.291 296.291L712.836 287.248L708.231 274.4Z" fill="#D4A181"/>
<path fill-rule="evenodd" clip-rule="evenodd" d="M750.387 216.299C738.369 238.518 722.946 259.807 700.713 277.168C697.808 276.755 694.704 277.065 691.299 277.995C689.696 278.409 688.595 280.475 688.995 282.129C689.296 283.266 689.897 283.989 690.698 284.403C689.997 284.816 689.396 285.229 688.695 285.849L693.402 298.457C717.838 287.4 740.572 279.545 752.189 259.29C756.095 252.573 756.596 228.7 757.497 220.123L750.387 216.299Z" fill="#92C722"/>
<path fill-rule="evenodd" clip-rule="evenodd" d="M786.54 298.251C760.001 300.834 739.07 300.834 723.747 298.251C721.844 297.941 721.844 290.81 722.846 288.95C736.466 258.567 745.379 236.451 745.379 215.369C747.783 216.506 752.289 216.609 758.599 215.989C775.424 237.381 783.235 262.39 786.54 298.251Z" fill="#92C722"/>
<path fill-rule="evenodd" clip-rule="evenodd" d="M760.902 215.886L764.508 227.357L757.197 236.141L763.706 242.962L747.883 271.381L767.312 242.962L760.902 236.141L767.312 228.494L760.902 215.886Z" fill="#8C969D" fill-opacity="0.1"/>
<path fill-rule="evenodd" clip-rule="evenodd" d="M650.566 297.927L611.401 297.972C610.637 297.972 610 297.611 610 297.159V292.6C610 292.148 610.637 291.787 611.401 291.787L650.566 291.742C651.331 291.742 651.967 292.103 651.967 292.555V297.114C651.904 297.566 651.331 297.927 650.566 297.927Z" fill="#173C5A"/>
<path fill-rule="evenodd" clip-rule="evenodd" d="M651.203 291.742L614.84 291.787C614.076 291.787 613.439 291.426 613.439 290.975V289.71C613.439 289.259 614.076 288.898 614.84 288.898L651.203 288.853C651.968 288.853 652.604 289.214 652.604 289.665V290.929C652.604 291.381 651.968 291.742 651.203 291.742Z" fill="#9DA7B0"/>
<path fill-rule="evenodd" clip-rule="evenodd" d="M649.038 285.963L613.63 286.009C612.611 286.009 611.783 285.512 611.783 284.925V282.171C611.783 281.584 612.611 281.088 613.63 281.088L649.038 281.043C650.057 281.043 650.885 281.539 650.885 282.126V284.88C650.885 285.467 650.057 285.963 649.038 285.963Z" fill="#9DA7B0"/>
<path fill-rule="evenodd" clip-rule="evenodd" d="M650.057 277.07L613.821 277.115C613.057 277.115 612.42 276.754 612.42 276.257V274.903C612.42 274.406 613.057 274.045 613.821 274.045L650.057 274C650.821 274 651.458 274.361 651.458 274.858V276.212C651.522 276.709 650.885 277.07 650.057 277.07Z" fill="#9DA7B0"/>
<path fill-rule="evenodd" clip-rule="evenodd" d="M647.764 288.898L611.401 288.943C610.637 288.943 610 288.582 610 288.13V286.866C610 286.415 610.637 286.054 611.401 286.054L647.764 286.009C648.529 286.009 649.165 286.37 649.165 286.821V288.085C649.102 288.492 648.529 288.898 647.764 288.898Z" fill="#173C5A"/>
<path fill-rule="evenodd" clip-rule="evenodd" d="M648.656 281.043L612.802 281.088C611.847 281.088 611.146 280.636 611.146 280.095V278.108C611.146 277.567 611.847 277.115 612.802 277.115L648.656 277.07C649.611 277.07 650.312 277.521 650.312 278.063V280.049C650.312 280.591 649.611 281.043 648.656 281.043Z" fill="#173C5A"/>
<path fill-rule="evenodd" clip-rule="evenodd" d="M262.568 118.221C270.648 126.46 276.841 151.71 270.669 155.547C268.162 157.056 261.893 157.132 255.118 155.503L266.098 180.624L244.481 187.481L242.078 149.908C236.573 146.247 232.139 141.116 230.646 134.14C226.54 114.177 254.488 109.983 262.568 118.221Z" fill="#573136"/>
<path fill-rule="evenodd" clip-rule="evenodd" d="M220.259 107.563C227.657 105.179 235.5 109.381 237.558 116.992L237.512 116.901C247.364 109.571 262.675 109.622 263.321 119.223C263.771 125.344 257.92 130.289 252.259 135.367C250.84 134.012 248.695 133.373 246.629 134.079C243.602 135.044 241.743 138.3 242.567 141.345C242.888 142.451 243.594 143.362 244.161 143.997C242.597 146.641 241.558 149.364 242.046 152.465C238.587 153.534 229.985 144.984 229.111 134.46C228.63 134.705 228.198 134.81 227.62 135.104C220.222 137.488 212.379 133.286 210.32 125.675C208.358 118.014 212.621 109.953 220.259 107.563Z" fill="#39080E"/>
<path fill-rule="evenodd" clip-rule="evenodd" d="M245.61 261.229L279.63 383.465L304.47 473.742H322.614L296.154 261.229H245.61Z" fill="#BE3FEA"/>
<path fill-rule="evenodd" clip-rule="evenodd" d="M236.43 261.229C235.674 324.319 232.974 358.665 232.11 364.373C231.246 370.183 218.718 406.605 194.634 473.742H213.426C244.206 409.303 261.378 372.881 265.05 364.373C268.614 355.864 279.738 321.621 296.37 261.229H236.43Z" fill="#9830BC"/>
<path fill-rule="evenodd" clip-rule="evenodd" d="M193.014 490.967L193.986 470.836H213.642C223.038 477.581 235.242 483.081 250.254 487.127V490.967H214.614L202.41 489.099V490.967H193.014Z" fill="#171F27"/>
<path fill-rule="evenodd" clip-rule="evenodd" d="M301.878 490.967L302.85 470.836H322.506C331.902 477.581 344.106 483.081 359.118 487.127V490.967H323.478L311.274 489.099V490.967H301.878Z" fill="#171F27"/>
<path fill-rule="evenodd" clip-rule="evenodd" d="M187.453 252.346L207.114 253.826C191.707 292.663 183.477 313.329 182.377 315.625C179.776 320.847 183.648 329.668 185.346 334.243C178.722 336.746 180.264 325.937 171.93 329.185C164.281 332.05 158.19 338.036 150.018 332.096C148.928 331.304 148.069 328.752 150.994 327.066C158.294 322.799 168.854 315.061 170.535 312.408C172.54 308.823 178.225 288.685 187.453 252.346ZM373.905 200.008L373.585 200.514C371.174 205.157 368.918 209.974 370.288 211.441C371.657 212.908 375.007 210.69 376.601 213.058C377.786 214.677 371.996 217.397 359.597 221.339L336.425 244.242L323.99 231.494L356.2 212.188C361.436 205.457 366.682 200.108 371.907 196.465C373.697 195.593 376.396 195.239 373.905 200.008Z" fill="#573136"/>
<path fill-rule="evenodd" clip-rule="evenodd" d="M250.894 170.9L258.774 168.51C278.271 183.646 290.003 224.438 302.225 228.73C313.797 232.652 329.086 225.543 347.12 216.473L354.221 228.849C339.318 249.584 304.768 269.792 289.153 262.623C264.145 250.882 253.266 200.091 250.894 170.9Z" fill="#9830BC"/>
<path fill-rule="evenodd" clip-rule="evenodd" d="M226.709 278.298C259.155 274.251 283.002 271.496 298.254 269.608C301.609 269.197 300.435 264.49 299.731 262.113C291.24 234.766 266.787 207.357 262.448 167.593L241.522 166.854C227.346 196.768 225.172 231.88 226.709 278.298Z" fill="#C8D1D8"/>
<path fill-rule="evenodd" clip-rule="evenodd" d="M248.256 166.133C273.735 228.068 283.332 270.138 277.412 292.462L212.916 300.352C212.215 284.571 213.675 267.614 216.439 250.97C204.688 279.428 194.494 300.265 185.912 313.254L170.565 312.081C173.716 250.028 196.905 201.699 239.897 167.047L248.256 166.133Z" fill="#BE3FEA"/>
</svg>
