<svg width="854" height="526" viewBox="0 0 854 526" fill="none" xmlns="http://www.w3.org/2000/svg">
<path fill-rule="evenodd" clip-rule="evenodd" d="M541.638 407.815C305.272 398.303 -162.369 474.497 59.2966 503.418C280.962 532.34 702.963 535.03 814.997 502.073C927.031 469.116 778.101 417.231 541.638 407.815Z" fill="#F4F3EA"/>
<path d="M263.4 36.106C263.1 33.906 262.6 31.806 261.8 29.706C261.6 28.906 261.1 28.306 260.4 27.906C259.9 27.806 259.5 27.806 259 27.906L252 29.106C251.4 29.106 250.9 29.406 250.4 29.806C249.5 30.806 250.4 32.506 250.4 33.906C250.4 35.506 249 36.806 247.6 37.206C246.1 37.506 244.6 37.506 243.1 37.106L233.3 35.506C236.3 34.506 238.7 32.706 240.7 30.206C242 28.606 242.7 25.506 240.8 24.706C240.2 24.506 239.7 24.506 239.1 24.606C234.6 24.606 231.1 20.706 227 19.006C221.7 16.906 215.3 19.006 211.9 23.806L217.1 24.106C217.6 24.106 218.1 24.206 218.5 24.506C219.6 25.506 218.2 27.406 218.4 29.006C218.6 31.106 221.2 31.506 223.1 31.706C225 31.906 227.5 33.606 226.5 35.406C216.8 39.006 207 28.406 196.9 29.706C194.3 30.006 191.9 31.106 189.4 31.806C174.1 35.906 158.2 24.906 142.6 27.206C139.1 27.806 135.7 28.806 132.4 30.106C130.3 30.806 128.1 31.706 126.5 33.406C125 35.106 124.4 38.106 125.8 39.906C121.7 40.306 117.7 39.806 113.8 38.706C115.9 39.906 117.3 42.506 117.3 45.006C111 46.106 104.9 48.106 99 51.006C100.1 52.906 101.3 54.706 102.8 56.406L94.8 61.906C97.5 62.606 98.9 66.606 97.3 69.006C100.1 67.706 101.8 64.206 104.8 63.506C108.8 62.606 112.5 66.906 116.4 65.706C118.3 65.106 119.7 62.406 118.5 60.706C126.8 58.106 135.2 56.706 143.8 56.506C144.5 56.406 145.1 56.506 145.7 56.906C146.8 57.706 146.5 59.506 146.5 61.006C146.4 62.406 147.5 64.406 148.7 63.706C145.7 67.306 153.7 70.406 152 74.006C151.8 74.506 151.4 74.806 151.2 75.306C150.6 76.706 151.6 78.306 152.7 79.306C153.9 80.206 155.3 80.906 156.1 82.206C156.9 83.506 156.5 85.806 155.1 85.906L151 80.306C149.6 81.906 148.6 83.806 148.2 85.906C152.6 89.706 153.2 97.506 149.6 102.006C147.7 104.306 145.1 105.806 142.8 107.606C140.5 109.406 138.3 112.006 138.4 115.106C138.4 120.406 138 125.306 139.9 130.306C143.3 139.406 147.3 148.206 151.8 156.806C153 159.006 154.5 161.506 156.9 161.906C153.9 154.106 151.2 146.106 148.8 138.106C152.9 138.006 153.7 139.606 153.9 143.606C154.2 144.906 154.7 146.206 155.4 147.306L169.7 174.606C170.9 176.906 172.3 179.306 174.5 180.206C176 180.806 177.6 180.706 179 181.506C180.1 182.206 180.8 183.306 181.8 184.006C184.8 185.806 189 182.406 191.8 184.506C192.6 185.106 193.1 186.106 193.9 186.706C196.5 189.106 200.8 187.506 203.8 189.306C205.7 190.506 206.7 192.806 207.8 194.906C210.4 200.206 214.6 205.306 220.1 205.806C223.1 205.806 228.5 205.106 228.4 209.906C227.9 213.106 229.4 216.506 229 219.706C228.3 225.506 220.6 228.006 219.9 233.806C219.8 235.106 220 236.406 219.7 237.606C219.4 239.106 218.3 240.406 217.9 241.906C216.6 248.406 224.9 250.806 227 255.906C228.2 258.806 227.6 262.106 228 265.206C228.9 272.006 234.3 277.006 240 280.306C241.7 281.306 243.6 282.306 244.7 284.006C246.2 286.206 246 289.206 246.5 291.906C247.7 298.506 252.8 303.906 253 310.506C253.1 315.206 250.6 319.506 249.2 324.006C247.8 328.306 247.3 332.906 247.7 337.406C248 344.406 251.8 350.206 254.8 356.206C256.2 360.106 255.7 364.406 257 368.306C258.7 373.406 263.4 377.706 262.9 383.106C266.2 390.606 276.1 391.806 282.8 394.006C285.6 395.206 290.7 395.206 290.9 391.006C283.2 389.706 272.3 384.606 274.7 374.506C275.3 372.506 276.6 370.206 275.4 368.506C274.7 367.506 273.4 367.306 272.7 366.406C270.1 363.006 274.6 359.506 275.3 356.306C275.7 354.206 274.8 352.006 273.1 351.006C274.7 350.406 276.1 349.406 277.3 348.106C278.4 346.806 278.9 344.706 278 343.206C283.6 344.306 287.7 341.806 286 335.306C285.5 333.206 284.6 331.106 284.5 328.906C290.4 329.206 296.3 329.006 302.2 328.306C301.4 325.306 299.4 322.606 296.8 321.106C302.5 319.506 304.2 311.506 302.8 305.906C302.6 305.206 302.6 304.406 302.7 303.706C303 302.706 303.9 302.106 304.8 301.506L318 293.406C318.8 293.006 319.5 292.406 320.1 291.706C323 287.706 319 282.906 318.4 278.706C317.6 271.906 324.4 267.106 326.6 260.706C327.5 258.206 327.7 255.506 327.9 252.806C328.1 249.906 328.1 246.606 326 244.806C324 243.006 320.9 243.406 318.9 241.806C317 240.306 316.4 237.406 314.3 236.106C312.4 235.006 310.1 235.706 308 235.206C304.3 234.306 302 229.706 298.3 229.306C292.7 229.506 290.8 230.406 290.2 223.406C289.2 217.206 284.4 212.006 278.6 211.006C276.4 210.606 274 210.806 272.2 209.506C270.3 208.206 269.5 205.806 268 204.006C265.6 201.106 261.9 200.106 258.3 199.206L244 195.606C241.5 195.006 238.2 194.606 236.8 197.006C236.4 197.906 236.1 198.906 236 199.906C235 203.506 231.7 206.106 228.2 206.206C226.2 202.006 222.1 201.706 218.4 200.606C215.3 199.106 214 194.606 215.7 191.506C217.4 188.406 216.8 184.106 214.4 181.606C212 179.306 208.4 178.706 205.2 178.906C203.6 174.206 210.5 172.206 211.1 168.206C211.6 164.806 207.6 162.206 204.5 163.206C201.4 164.206 199.5 167.406 198.1 170.606C196.9 174.006 194.8 178.906 190.7 178.006C188.2 177.306 187.2 174.106 186.6 171.306C185.8 167.606 185.1 163.906 185.2 160.106C185.6 147.606 195.5 145.206 205.5 146.906C204.2 145.306 204.5 142.506 205.9 141.006C207.4 139.506 209.6 139.006 211.6 139.506C216.4 140.306 217.6 145.606 219.3 149.706C222.6 155.806 228.8 153.506 227.3 146.606C226.8 144.306 225.8 142.106 226 139.706C227 130.206 242 131.106 243.4 121.906C243.4 121.006 243.6 120.206 243.9 119.306C244.3 118.606 244.9 118.006 245.6 117.606C257.2 109.706 268.9 100.506 282.4 97.206C283.4 96.606 282.7 95.006 281.8 94.306C280.9 93.606 279.7 93.106 279.4 92.006C279.2 91.206 279.7 90.306 279.8 89.506C280.1 87.406 277.7 85.506 275.9 86.306C273.5 81.506 290.8 80.306 293.7 80.006C294.3 79.906 294.9 80.006 295.4 80.306C297.3 82.206 294.6 84.406 293.2 85.506C291.5 87.206 290.9 89.906 291.6 92.306C294.3 93.706 297.2 95.206 300.1 94.706C303.1 94.206 305.7 90.606 304.3 87.806C303 85.206 299.1 84.606 298.5 81.706C297.7 78.306 302.2 75.306 301.2 72.006C300.8 70.506 299.4 69.706 298.4 68.606C295.9 66.006 295.1 61.906 296.5 58.506C293.1 59.206 289.5 58.006 287.1 55.306C284.8 52.906 283 49.006 279.8 49.106C276.9 49.206 274.3 52.906 271.6 51.706C270.9 51.406 270.2 50.906 269.5 51.206C269 51.506 268.8 52.006 268.7 52.606C268 56.206 269.2 60.206 267.4 63.306C265.4 66.706 260.8 67.106 258.4 70.206C257.1 71.806 256.6 74.106 255.4 75.806C254.2 77.506 251.7 78.606 250.2 77.106C251.7 74.006 250.8 70.006 248.3 67.806C247 66.906 245.5 66.106 244 65.606C242.3 64.806 240.7 63.906 239.2 62.706C238.4 62.206 237.9 61.506 237.4 60.706C237.1 59.606 237.1 58.606 237.5 57.506C238.9 53.006 242.8 49.606 247.2 48.906C249.1 48.606 251.3 48.706 252.6 47.206C253.3 46.406 253.6 45.106 254.6 44.806C255.2 44.706 255.9 44.706 256.4 45.006L263.5 47.706C264.3 48.106 265.2 48.206 266 48.106C266.9 48.006 267.6 47.106 267.5 46.206C267.3 44.906 265.4 44.306 265.6 43.006C265.7 42.606 265.9 42.206 266.2 41.906C271.3 36.006 279 32.806 286.5 33.306C287.4 34.906 286 36.806 284.8 38.106C283.6 39.406 282.7 41.906 284.1 42.906C284.7 43.206 285.3 43.406 286 43.406C287.8 43.706 289.5 44.206 291.1 45.006C293.6 46.206 296 47.406 298.4 48.806C298.2 47.106 298 45.406 298.6 43.806C299.2 42.206 300.9 41.006 302.4 41.606C303.8 42.206 304.6 44.206 306.1 44.406C308.1 44.606 308.9 41.506 308.1 39.506C307.3 37.506 305.6 35.906 305.5 33.706C305.4 32.206 305.9 30.406 304.8 29.506C304.4 29.206 304 29.106 303.5 29.006L276.2 23.606C274.6 23.306 272.2 23.506 272.2 25.306C272.2 26.306 273 27.306 272.6 28.206C272.2 29.206 270.9 29.106 270 29.406C268.6 29.906 267.8 31.806 268 33.406C268.3 35.006 268.8 36.506 269.7 37.906C267.9 37.106 265.2 36.906 263.4 36.106Z" fill="#F4F3EA"/>
<path d="M241.6 11.306C238.2 10.006 234.1 11.306 231.9 14.406C230.3 16.806 232.2 17.806 234.4 16.806C235.9 16.206 237.5 16.206 239 16.706C240 17.106 240.8 17.706 241.8 18.006C242.7 18.406 243.9 18.306 244.6 17.606C245.3 16.906 245.3 15.806 245.3 14.806C245.4 14.106 245.2 13.506 244.8 12.906C244.4 12.706 244 12.506 243.5 12.506C242.5 12.306 241.6 11.806 241 10.906" fill="#F4F3EA"/>
<path d="M251.5 8.40594C251.1 8.40594 250.7 8.50594 250.4 8.60594C250.2 8.70594 250.1 8.80594 249.9 8.90594C249.6 9.20594 249.4 9.50594 249.3 9.90594C249.1 10.5059 249.1 11.1059 249.4 11.7059C250.6 12.0059 251.8 12.1059 253 12.0059C254.2 11.8059 255.3 10.8059 255.5 9.50594C254 9.80594 252.6 9.50595 251.4 8.70595" fill="#F4F3EA"/>
<path d="M284.5 3.50593C281.3 4.20593 278.2 5.40593 275.2 6.90593C278 8.00593 279.9 11.2059 279.7 14.4059C279.6 15.0059 279.6 15.6059 279.7 16.3059C280 17.2059 281 17.5059 281.9 17.7059C284.9 18.6059 289 19.1059 290.7 15.7059C290.9 15.0059 291.2 14.3059 291.5 13.6059C293.6 10.2059 299.8 14.3059 302 11.0059C302.8 9.80593 302.7 8.10594 303.7 7.20594C304.2 6.80594 304.8 6.50593 305.5 6.50593C310 5.50593 314.6 4.80593 319.1 4.40593C321.3 4.20593 324.1 3.40593 324.1 1.00593C316 -0.694067 307.4 0.505933 300 4.50593C297.3 5.90593 293.8 9.00593 291.2 7.10593C290.2 6.40593 290.3 4.50594 288.9 3.70594C287.7 2.90594 285.9 3.20593 284.5 3.50593Z" fill="#F4F3EA"/>
<path d="M311.2 8.90596L315 9.70597C312.1 9.50597 309.5 12.406 309.8 15.506C313.4 16.806 317.3 15.506 321.1 15.706C324.9 15.906 329.3 18.806 328.6 22.806C328.4 24.006 327.8 25.206 328.1 26.406C328.3 27.206 329 27.806 329.4 28.606C331 32.306 327 35.006 325.3 37.706C323.1 41.506 324.4 46.406 325.7 50.606C326.1 52.206 326.8 53.706 327.7 55.006C329.6 57.206 332.8 57.406 335.6 57.406C337.7 57.406 340 57.306 341.3 55.606C343 53.406 341.8 49.906 342.9 47.306C343.9 44.906 346.5 43.906 348.8 43.206C353.1 41.906 357.5 40.806 361.5 38.806C366.5 36.306 371.2 32.506 376.8 32.106C379.5 32.106 384.2 32.206 384.2 28.206C384.1 25.606 379.7 23.606 381.3 20.806L395.8 17.906C394.8 14.906 394 11.006 396.3 9.00596C397.1 8.30596 398.3 8.00597 399 7.20597C400.2 5.80597 399.6 3.30596 398.2 2.00596C396.8 0.805962 394.8 0.505965 393 0.305965C386.6 -0.294035 380.2 0.105962 373.9 0.505962C361.4 1.20596 349 2.00597 336.5 2.70597C334 2.80597 331.1 2.60596 328.8 3.50596C326.9 4.30596 325.5 5.70597 323.2 6.20597C319.4 7.00597 314.9 6.40596 311.2 8.90596Z" fill="#F4F3EA"/>
<path d="M379.9 41.3059C379.5 41.2059 379.1 41.3059 378.8 41.6059C378.6 41.9059 378.5 42.2059 378.4 42.5059C377.8 45.5059 379.8 49.1059 382.9 48.7059C384.6 48.5059 385.9 46.9059 387.5 46.1059C390 44.9059 400.3 43.1059 393.2 38.9059C390.7 37.5059 389.1 38.7059 387.2 39.7059C384.8 41.0059 382.4 41.5059 379.9 41.3059Z" fill="#F4F3EA"/>
<path d="M442.9 6.50595C442 6.90595 441.4 7.50595 440.9 8.40595C440.5 9.30595 440.8 10.4059 441.6 10.9059C441.9 11.0059 442.2 11.1059 442.6 11.1059C444.6 11.4059 448.8 10.5059 449.7 13.1059C450 14.2059 449.3 15.6059 450.1 16.4059C450.4 16.7059 450.8 16.8059 451.3 16.9059C452.4 17.2059 453.6 17.2059 454.7 17.0059C457.2 16.3059 455.9 14.7059 456.7 13.2059C457.9 11.0059 457.7 12.3059 459.8 11.1059C461.4 10.2059 463.4 8.50594 462.1 6.10594C459.7 1.90594 446.2 4.70595 442.9 6.50595Z" fill="#F4F3EA"/>
<path d="M510.2 4.40599C505.1 5.10599 499.9 5.80599 494.9 7.40599C496.8 8.20599 498.7 8.70599 500.7 8.90599C501.8 9.00599 502.9 9.10599 504 9.40599C505.9 10.006 507.8 11.606 509.7 10.806C510.8 10.306 511.2 9.00599 512.2 8.40599C512.9 7.90599 515.3 7.20599 515.6 6.70599C517.8 2.90599 512 4.20599 510.2 4.40599Z" fill="#F4F3EA"/>
<path d="M518.9 14.1059C515 16.7059 504.4 23.2059 513.3 26.9059L519.6 29.8059C520.4 28.6059 519.7 27.0059 518.9 25.9059C516.3 22.7059 517.3 20.3059 521.2 19.7059C523.6 19.3059 530.2 19.3059 529.4 15.1059C528.5 10.1059 521.4 12.6059 518.9 14.1059Z" fill="#F4F3EA"/>
<path d="M517.7 294.106C516 298.606 519.1 302.906 523.6 301.906C525.7 301.306 527.4 300.106 528.7 298.406C529.9 296.906 530.9 295.306 531.7 293.506C532.7 290.706 533.5 287.906 533.9 284.906L535.9 273.806C536.3 271.306 536.3 263.806 532.1 266.206C530.9 266.906 528.3 272.206 527 273.706C524.8 276.406 524.5 279.106 523.4 282.406C521.9 286.506 519 290.006 517.7 294.106Z" fill="#F4F3EA"/>
<path d="M741.8 350.706C740.4 350.106 739.1 349.406 737.8 348.606C736.5 352.506 735.8 356.406 735.8 360.506L745.3 354.706C746.7 353.806 748.4 352.606 748.3 350.906C748.3 350.406 748.2 350.106 747.8 349.806C747.6 349.706 747.4 349.706 747.1 349.706C744.4 349.906 741.7 352.706 739 351.106" fill="#F4F3EA"/>
<path d="M791.9 354.106C790.9 354.406 789.8 354.806 788.9 355.306C786.7 356.506 785.2 358.706 783.3 360.306C781.4 361.806 779.2 362.606 776.9 363.406C776.2 364.006 776.5 365.306 777.3 365.806C778.1 366.306 778.9 366.506 779.8 366.406C782.1 366.506 784.5 366.506 786.6 365.306C787.7 364.506 788.8 363.606 789.8 362.606C792.2 360.506 795 359.106 797.8 357.806C798.8 357.406 799.8 356.806 800.6 356.006C802.4 354.106 802.5 351.306 799.9 350.606C797.7 350.106 793.8 353.406 791.9 354.106Z" fill="#F4F3EA"/>
<path d="M814 338.606C814.2 336.006 813.3 333.406 811.6 331.706C811.6 334.306 811.5 337.006 810.2 339.106C808.5 341.506 803.8 344.606 806.4 348.006C807.2 348.706 808.1 349.006 809.1 349.006C811.6 349.306 814.4 349.506 816.1 347.606C817 346.606 817.5 345.006 818.6 344.306C819 344.106 819.4 343.806 819.7 343.506C820.2 342.706 819.4 341.606 818.6 341.306C817.8 341.006 816.8 341.106 816 340.906C815.2 340.606 814.4 339.606 814.8 338.806" fill="#F4F3EA"/>
<path d="M774.7 244.806C773.4 245.106 772.1 245.206 770.8 245.106C768.6 244.706 766.9 242.906 765.2 241.506C761 238.106 755.9 236.206 750.7 236.106C745.9 236.006 741.1 237.406 736.4 236.406C737.2 240.406 741.6 241.006 744.6 242.406C748.9 244.306 749.9 248.406 751.8 252.406C756.1 257.906 763.8 252.606 769.1 255.006C773.5 256.906 777.1 264.406 782.5 261.906C777.6 260.306 774.1 255.106 774.3 249.606C776.6 249.806 783.2 249.706 782.8 245.606C782.2 242.006 776.6 244.406 774.7 244.806Z" fill="#F4F3EA"/>
<path d="M744.8 273.406C745.2 271.006 747.4 268.906 746.7 266.606C745.4 263.006 741 264.506 738.3 264.706C737.3 264.606 736.3 264.706 735.2 264.806C732.1 265.306 730.2 268.806 727.3 270.106C725.5 270.806 723.5 270.706 721.7 271.206C717.5 272.406 714.9 276.606 711.9 280.006C709.5 282.806 706.8 285.106 703.8 286.906C700.8 288.806 697.6 290.206 694.2 291.006C691.8 291.606 689.3 292.006 687.4 293.606C684.9 295.806 684.3 299.606 683.7 303.006C682.2 312.506 679.8 321.706 676.7 330.706L686.7 332.106C688.6 332.406 690.6 332.606 692.4 332.006C693.7 331.506 695 330.806 696.1 329.906C702.8 325.306 720.7 318.706 723.2 331.106C727.9 329.506 731.7 334.406 732.2 338.906C732.8 342.706 733.9 343.406 737.3 342.606C741.1 342.306 744.3 347.006 748.1 346.206C752.1 345.306 753.1 338.806 757.1 337.606C759.4 336.906 762.5 337.806 763.6 335.506C764.6 333.506 762.6 331.206 762.8 329.006C763 326.306 766.1 325.106 768.4 323.906C776.4 319.906 780.2 308.306 776.3 299.806C774 294.806 769.5 290.806 768.6 285.206C768 280.906 769.5 276.006 767 272.606C765.7 270.906 763.5 270.006 762.8 267.906C762.3 266.606 762.5 265.206 762.2 263.806C761.9 262.406 760.8 261.006 759.6 261.406C756 262.406 754.8 274.406 752.9 277.306C750 281.806 743.9 278.906 744.8 273.406Z" fill="#F4F3EA"/>
<path d="M677.8 249.306C676.6 248.906 675.2 248.606 674 249.106C672.8 249.606 672.1 251.506 673.1 252.406C680.6 252.106 688.1 251.806 695.5 252.906C704 254.106 712.4 257.206 721 256.306C716.1 254.806 711.1 253.506 706.1 252.606L697.7 250.906C695.5 250.406 693.2 250.006 690.9 249.806C686.1 249.406 682.5 250.706 677.8 249.306Z" fill="#F4F3EA"/>
<path d="M685.2 221.506C684.6 221.406 683.8 221.406 683.5 222.006C683.2 222.506 683.5 223.306 683.4 223.906C683.2 224.706 682.2 225.006 681.4 224.806C680.6 224.706 679.7 224.406 679 224.806C677.3 226.006 678.4 228.406 679.6 229.606C680.7 231.006 681.8 232.306 683.2 233.406C685.8 235.406 689.2 236.406 690.9 239.306C691.1 239.906 691.5 240.406 691.9 240.806C693.3 241.706 696.1 239.606 697.5 239.106C698 238.906 698.5 238.606 698.9 238.106C699.6 237.106 699.2 235.806 698.6 234.706C695.7 230.106 698.9 229.806 701.3 226.606C702.4 224.806 701.7 222.406 701.8 220.206C701.9 217.706 703.4 214.406 701 212.506C699 210.906 697 212.406 695.6 214.206C692.3 218.006 690.9 222.006 685.2 221.506Z" fill="#F4F3EA"/>
<path d="M703 183.806C704 185.806 706.1 187.106 707.2 189.106C708.4 191.306 708.2 194.106 709.5 196.106C710.8 198.306 713.5 199.406 714.2 201.806C715 204.506 713.2 207.706 714.6 210.006C715.7 211.606 718 211.806 719.3 210.506C720.6 209.106 720.5 206.606 719.2 205.306C718.3 204.506 717.1 204.106 716.4 203.106C716 202.506 715.8 201.906 715.7 201.206C715.3 199.206 715.4 197.206 715.9 195.206C716.1 194.706 716.1 194.206 716 193.606C715.7 192.606 714.4 192.506 713.5 192.106C711.5 191.006 711.5 188.006 711.9 185.606C711.7 187.206 706.4 184.506 705.8 183.606C704.7 181.806 705.3 178.406 705.1 176.406C702.7 177.606 701.8 181.306 703 183.806Z" fill="#F4F3EA"/>
<path d="M649.7 215.206C647.7 212.406 644.2 212.706 645.1 216.606C645.6 217.706 646.3 218.606 647.2 219.306C649.9 221.706 652.9 223.906 655.3 226.706C659.6 231.706 661.8 238.506 666.4 243.106C667.4 244.206 668.5 244.906 669.9 245.106C671.3 245.206 672.8 244.306 672.9 242.906C673 241.706 672.3 240.706 671.5 239.806C669.7 237.706 667.7 235.806 666 233.606C665.2 232.706 664.7 231.706 664.6 230.506C664.6 229.306 665.6 228.106 666.7 228.406C665.4 228.006 664.4 225.706 662.5 225.306C660.9 224.906 660.5 226.006 658.6 225.106C655 223.406 652.2 218.306 649.7 215.206Z" fill="#F4F3EA"/>
<path d="M734.6 101.306C733.6 101.006 732.5 100.606 731.5 100.106C728.8 99.206 725.3 101.406 725.6 104.306C725.8 106.306 727.6 107.606 728.5 109.306C729.9 111.806 729.5 115.106 728.8 117.906C728.6 118.806 728.3 119.606 727.8 120.306C727.1 121.106 726.3 121.706 725.4 122.206C721.7 124.406 718.6 127.206 716 130.806C715.7 131.106 715.5 131.506 715.4 131.906C715.3 132.906 716.2 133.606 716.7 134.506C717.9 136.406 717 138.906 717.1 141.106C717.1 141.806 717.3 142.306 717.8 142.706C718.5 143.106 719.4 142.406 719.7 141.706C721 139.206 720 135.206 722.4 134.006C722.9 133.806 723.4 133.706 723.7 133.306C724.2 132.606 723.7 131.606 724 130.806C724.4 129.606 725.9 129.506 727.1 129.606C729.2 129.706 731.2 129.406 733.2 128.706C734 128.506 734.7 128.106 735.2 127.506C735.9 126.506 735.9 125.206 735.7 123.906C735 117.806 733.2 112.006 730.4 106.506C732.5 106.806 734.8 107.006 736.6 105.906C737.6 105.206 738.8 103.306 738.3 101.906C737.8 99.806 736.4 101.606 734.6 101.306Z" fill="#F4F3EA"/>
<path d="M463.3 134.806C463.6 136.206 463.8 137.806 463.4 139.206C463 140.606 461.6 141.806 460.2 141.306C459.2 141.006 458.6 139.906 457.8 139.006C453.8 134.306 444.6 137.006 442.1 131.206C441.1 128.806 441.8 126.006 441.1 123.506C440.3 120.606 437.5 118.606 434.6 118.806C433.3 119.006 432.1 119.406 430.9 120.006C423 123.406 414.7 125.606 406.2 126.606C404.6 126.706 403 127.006 401.5 127.506C394.2 130.506 393.1 140.306 388.7 146.306C386.3 149.606 383 151.906 379.9 154.406C378.7 155.206 377.7 156.306 377 157.706C376.3 159.206 376.4 160.906 376.4 162.606L377 182.606C377.1 185.206 377.2 187.806 378.3 190.206C379.6 193.106 382.3 195.006 384.1 197.506C386 200.206 387 203.206 386.9 206.606C386.9 207.906 386.7 209.506 387.7 210.306C388.3 210.706 389 210.906 389.7 210.906L415 213.106C419.5 213.506 424.4 214.106 427.3 217.806C428.7 219.506 429.8 222.006 431.9 222.206C432.8 222.306 433.7 221.906 434.6 221.806C440.6 222.106 443.1 230.506 442.6 236.006C437.4 257.106 456.3 260.306 443.7 283.106C447.3 289.006 444.4 296.906 445.8 303.806C447.2 310.406 452.3 315.506 453.6 322.106C454.2 325.106 454.2 328.806 456.7 330.406C457.8 331.006 459 331.206 460.2 331.106C468 331.306 486 327.806 488 318.306C488.4 315.406 487 312.106 488.5 309.606C490.2 306.606 494.4 306.806 496.9 304.506C500.9 300.806 497.8 293.606 499.4 288.206C500.8 283.406 505.8 280.806 508.3 276.406C509.3 274.506 510 272.506 510.4 270.406C511.5 265.406 512.2 260.306 512.5 255.206C512.6 252.106 512.8 249.006 513.1 245.906C515.8 228.306 532.1 216.406 537.4 199.506C537.9 197.906 538.1 195.706 536.8 194.806C536 194.406 535.1 194.306 534.2 194.506L522.5 196.106C521.1 196.306 519.5 196.506 518.2 195.806C516.9 195.206 515.9 193.406 516.6 192.006C518.6 188.206 514.5 183.306 512.7 179.406C507.8 168.806 502 158.706 495.3 149.306C494.9 148.806 494.6 148.206 494.5 147.506L497.8 147.606C495.8 139.306 492.1 135.306 484 136.606C477.1 137.006 469.9 135.906 463.3 134.806Z" fill="#F4F3EA"/>
<path d="M483.9 38.006C490.2 46.106 496.1 42.306 499.9 33.806C500 34.906 500.5 35.906 501.2 36.706C502 37.406 503 37.806 504 37.806C505.1 37.606 506.2 37.206 507.1 36.506C516.1 31.206 525.8 28.506 536.1 28.506C535.9 26.806 537 25.206 538.5 24.806C543.4 24.206 543.8 31.406 546.6 34.006C548.2 35.506 551.2 35.406 551.9 33.306C553.1 29.106 544.3 27.406 546.5 23.006C555 21.006 563.6 19.006 572.3 18.606C573.8 18.706 575.3 18.406 576.6 17.806C577.9 17.106 579 15.506 578.6 14.006C574.8 15.006 570.6 13.306 568.3 9.90599C580.4 8.80599 593.3 7.90599 604 14.006C605.3 17.006 598.7 19.406 600.5 22.106C601.1 22.906 602.2 23.106 603.2 23.106C610.6 23.306 618.1 23.406 625.5 22.206C628.2 21.806 630.9 21.106 633.6 21.506C639.6 22.006 645.6 29.106 651.7 25.706C653.2 24.606 653.9 22.006 652.6 20.606C662.5 11.806 675.1 24.506 685.7 25.306C689.9 25.606 694.1 24.406 698.2 25.206C700.8 25.706 703.2 26.906 705.7 27.706C710.5 29.106 715.6 28.806 720.5 28.906C733.3 29.106 745.7 31.706 757.6 36.806C759.2 37.306 760.5 38.206 761.7 39.406C762.8 40.706 763.4 42.606 762.6 44.106L750.4 42.206C751.5 44.606 754.5 45.006 756.9 45.906C759.3 46.706 761.8 49.606 760.4 51.806C754.3 50.306 753.8 61.806 748.4 62.106C745.9 62.206 743 60.006 741.4 62.006C745 67.506 751.4 76.106 747.6 82.806C747.3 83.406 746.8 83.806 746.2 84.006C744.5 84.506 743.3 82.206 742.1 80.806C740.5 79.106 738.1 78.606 736 77.706C733.9 76.906 731.6 75.306 731.5 72.906C731.4 71.406 732.1 70.006 732.7 68.606C733.6 66.206 734 63.706 733.9 61.206C734 57.206 730.5 52.306 726.7 55.006C726 55.606 725.5 56.606 724.6 56.606C723 56.706 721.8 53.706 720.6 54.706C720.7 55.806 720.6 56.806 720 57.806C716.2 61.306 710.4 59.806 705.5 61.106C703.2 61.806 701 62.806 698.9 64.206C698.1 64.606 697.5 65.106 697 65.906C696.4 67.206 697.1 68.806 698.1 69.606C699.3 70.306 700.5 70.806 701.8 71.006C713.2 72.606 727.6 81.106 724.8 95.306L713.1 83.306C713.5 88.306 713.8 93.406 713.9 98.406C714 99.406 713.9 100.406 713.5 101.306C712.7 103.306 710.4 103.906 708.4 104.406C702.2 106.506 706.3 113.006 709.4 116.106C711 118.006 712.6 120.206 712.8 122.706C713 125.306 711.2 128.206 708.8 128.006C704.8 127.506 704.6 121.906 702.5 119.106C699 114.606 691.1 116.506 687.9 111.706C686.3 113.606 685.7 116.506 686.4 119.006C690.2 117.106 692.2 122.406 693.5 125.206C694.7 127.406 696.5 129.306 696.7 131.806C696.7 132.706 696.7 133.706 696.7 134.606C697 136.106 698.2 137.206 699 138.506C703 145.106 698.2 152.706 693.9 157.706C690 162.406 686.1 167.106 681.5 171.006C679 172.806 675.7 176.706 678.4 179.706C677.5 179.806 675.9 180.206 675 180.306C674.7 176.506 674.6 172.606 674.8 168.706C671.3 166.906 667.5 171.706 667.9 175.906C668.7 183.006 676.4 188.106 675.2 195.706C674.7 198.706 672.2 201.506 669.3 201.206C664.8 200.806 662.9 193.806 658.4 193.006C658 192.906 657.6 192.906 657.2 193.106C656.5 193.506 656.4 194.406 656.4 195.306C656.2 199.306 656.1 203.406 657.5 207.106C659.6 212.506 665.1 217.006 664 222.706C650.6 215.506 653.6 196.206 648.7 183.506C646.7 186.206 642.5 184.006 640.7 181.106C635.7 171.206 631.5 160.906 620.4 171.506C618.4 173.306 616.3 175.306 615.1 177.806C613.4 181.506 613.8 185.906 613.7 190.006C613.6 194.506 612.7 199.206 609.9 202.506C607 205.806 601.8 206.906 598.6 204.006C597 202.506 596.2 200.206 595.5 198.006C592.1 187.306 589.2 176.506 587 165.506C586.5 168.006 584.4 171.206 582.4 169.806C582 169.406 581.6 168.906 581.4 168.406C570.7 150.606 547.1 155.106 532.4 143.506C530.6 146.206 530.4 149.906 531.9 152.806C533.4 155.706 536.8 157.306 539.7 156.306C542.2 155.306 546.1 151.906 548.1 155.406C548.7 156.906 547.8 158.706 548.2 160.206C548.9 162.506 552.2 162.706 553.4 164.906C554.3 166.506 553.6 168.606 552.3 169.906C551.1 171.206 549.4 171.906 547.9 172.806C539.1 178.206 531.7 193.506 520 188.706C521.2 182.206 513.9 177.306 512.6 170.806C512.2 168.706 512.4 166.406 511.8 164.306C510.9 161.306 508.4 159.206 506.3 156.906C501.3 151.306 498.5 143.506 498.9 135.806C499 133.106 499.5 130.406 498.9 127.706C498.3 125.106 496.3 122.506 493.8 122.706C488 123.006 480.8 123.406 477.8 118.206C476.7 116.306 476.3 113.606 477.8 112.206C478.9 111.206 480.5 111.306 482 111.406L495 112.806C498 113.106 501.3 113.406 503.9 111.706C506.5 110.006 507.6 105.506 505.2 103.506C503.4 102.006 500.3 102.106 499.8 99.806C499.4 97.906 501.4 95.706 500.3 94.106C499.5 92.906 497.8 93.306 496.7 94.106C495.6 95.006 494.9 96.206 493.7 96.906C491.6 98.106 489.2 97.006 486.9 96.206C484.6 95.406 481.7 95.406 480.6 97.606C479.4 100.106 481.7 103.306 480.5 105.806C478.9 109.106 473.6 107.206 471.3 110.006C468.8 113.206 473 118.006 472.2 122.206C470 123.406 467.3 123.206 465.2 121.806C463.1 120.306 462 117.706 462.3 115.006C463.2 110.906 463.9 108.706 459.8 106.506L447.2 99.106C444.9 104.806 452.6 107.406 454.7 111.406C456.3 114.606 455.2 118.906 452.2 120.706C451.8 121.006 451.4 121.106 450.9 120.906C450.5 120.606 450.2 120.306 450.1 119.706C447.9 113.606 444.5 107.606 439.2 104.406C433.9 101.206 426.2 101.906 422.7 107.206C418.8 116.806 410.7 121.906 400.8 121.606C400 121.706 399.3 121.506 398.6 121.106C397.4 120.206 397.4 118.206 397.6 116.606L398.4 109.806C398.8 104.906 401.3 105.206 405.1 105.606C407.9 105.506 410.4 103.406 411.2 100.606C412 97.706 411.1 94.606 409.1 92.506C408.3 91.706 407.2 90.606 407.6 89.506C408 88.806 408.5 88.406 409.2 88.306C415.2 86.606 424.2 86.406 426.2 78.606C426.4 77.506 426.5 76.206 427.5 75.706C428 75.506 428.4 75.406 428.9 75.406C432.4 74.906 435.2 71.306 434.9 67.606C438.6 65.306 441.4 70.906 444.7 71.906C448.1 72.906 451.3 69.706 454.8 69.706C456.3 69.706 457.8 70.206 459.2 69.706C460.6 69.206 461.4 67.706 462.5 66.606C463.6 65.506 465.5 64.806 466.5 66.006L465.7 59.306C469.1 60.206 472.8 59.506 475.7 57.406L464.8 53.406C464.4 53.306 464.1 53.106 463.8 52.806C463 51.906 463.8 50.506 464.4 49.406C465.9 46.906 466.2 42.806 463.7 41.606C462 40.806 460 41.806 458.3 42.806L450.3 47.606C450 49.206 451.9 50.106 453.1 51.206C456.3 54.006 454.2 59.906 450.1 59.806C451.2 61.306 451.5 63.206 451.1 65.006L445.7 65.406C445.1 65.506 444.5 65.406 444 65.006C443.4 64.506 443.5 63.506 443.4 62.706C442.4 58.306 437.2 58.506 434 59.606C433.2 59.906 432.4 59.906 431.6 59.506C431.2 59.206 430.8 58.806 430.7 58.206C429.1 53.506 433.5 50.106 436.5 47.506C440.3 43.906 443 39.506 444.4 34.306C447.4 33.006 450.4 31.206 453.4 29.906C458 27.406 463 26.406 468.2 26.806L478.2 27.006C483.7 26.806 491.6 28.306 492.3 35.306C492.4 36.106 492.2 36.706 491.7 37.306C491.3 37.506 490.9 37.606 490.4 37.606C487.8 37.206 486.6 37.906 483.9 38.006Z" fill="#F4F3EA"/>
<path d="M404.1 71.606C404.9 70.806 405.2 69.606 404.9 68.406C403 67.606 400.7 68.106 399.2 69.506C398.6 70.106 398.1 70.906 397.7 71.706C396.4 74.006 395.2 76.706 396 79.306C396.1 79.906 396.4 80.306 396.9 80.706C397.2 80.806 397.6 80.906 398 80.906C400 80.706 403.4 81.306 404.6 79.406C405 78.206 404 76.906 404.3 75.706C404.5 75.206 404.8 74.706 405.2 74.306C405.6 73.906 405.8 73.306 405.7 72.706C405.6 72.106 404.8 71.806 404.5 72.306" fill="#F4F3EA"/>
<path d="M411.6 61.1059C410.3 60.8059 409 60.7059 407.7 60.8059C407.4 60.8059 407.1 60.9059 406.9 61.0059C406 61.9059 406.1 63.6059 406.6 64.7059C407 65.6059 407.7 66.3059 408.6 66.7059C409.1 66.8059 409.5 67.0059 409.9 67.3059C411 68.2059 410.3 70.1059 410.5 71.6059C410.7 73.3059 412.2 74.7059 412 76.3059C411.8 77.6059 410.5 78.6059 410.7 80.0059C410.9 81.4059 412.6 81.8059 413.9 81.9059C414.7 82.0059 415.4 82.0059 416.1 81.6059C416.8 81.1059 417.3 80.3059 417.5 79.4059C418 77.7059 418.3 75.9059 418.2 74.1059C418.2 73.3059 418 72.5059 417.6 71.8059C417.2 71.2059 416.8 70.7059 416.3 70.2059C413.7 67.2059 416.3 62.6059 411.6 61.1059Z" fill="#F4F3EA"/>
<path fill-rule="evenodd" clip-rule="evenodd" d="M226.1 210.3C233.9 210.3 240.4 216.3 241.6 224.1C244.1 233.7 247.4 255.2 244 258.6H223V258.5C215.2 257.6 209.1 250.7 209.1 242.4V226.6C209.1 217.6 216.1 210.4 224.7 210.4H226.1V210.3Z" fill="#E4E3DB"/>
<path fill-rule="evenodd" clip-rule="evenodd" d="M239 220.2C243.2 228.3 242.7 249 237.3 250.5C235.1 251.1 230.5 249.7 225.8 246.7L228.8 268.4H211.4L217.4 239.4C214.1 235.3 211.8 230.3 212.2 224.7C213.1 208.5 234.8 212 239 220.2Z" fill="#96555E"/>
<path fill-rule="evenodd" clip-rule="evenodd" d="M225.1 211C233.5 211 236.2 215.1 238.4 218.5C236.7 224.5 230.1 225.4 224.3 229.2C223.6 228.6 222.7 228.3 221.8 228.3C219.6 228.3 217.8 230.2 217.8 232.4C217.8 234.7 219.6 236.5 221.8 236.5C221.9 236.5 221.9 236.5 222 236.5C222.8 245.5 222.5 255.7 220.1 258.1H199C197.8 236.9 209.2 245.1 209.2 225.2C209.9 224.5 210.6 223.8 211.2 223.2V222.6C214.8 214.9 219.4 211 225.1 211Z" fill="#E4E3DB"/>
<path fill-rule="evenodd" clip-rule="evenodd" d="M205.4 331L240.4 426.9L264.9 497.6H278.8L245.2 331H205.4Z" fill="#B9898F"/>
<path fill-rule="evenodd" clip-rule="evenodd" d="M196.8 331C196.4 363.9 196.7 408.3 195.8 410.3C195.2 411.7 176.9 427.3 140.7 457.1L147.9 469.8C190.8 441.1 213.3 424.8 215.5 421C218.8 415.3 235.3 362.5 243.9 331H196.8Z" fill="#B9B9B2"/>
<path fill-rule="evenodd" clip-rule="evenodd" d="M128.1 465.6L140.3 456L150.1 468.1C150.9 477.2 153.8 487.5 158.9 498.9L156.7 500.8L138.9 478.8L133.9 470.3L132.8 471.3L128.1 465.6Z" fill="#171F27"/>
<path fill-rule="evenodd" clip-rule="evenodd" d="M263.6 511.2L264.3 495.4H279.6C286.8 500.7 296.3 505 307.9 508.2V511.2H280.3L270.9 509.7V511.2H263.6Z" fill="#171F27"/>
<path fill-rule="evenodd" clip-rule="evenodd" d="M165.8 313.6L180.7 316.7C165.7 345.7 157.7 361 156.6 362.8C154.2 366.7 156.4 373.9 157.3 377.7C152 379 154.1 370.7 147.4 372.4C141.3 374 136.1 378 130.4 372.6C129.7 371.9 129.2 369.8 131.6 368.8C137.5 366.1 146.3 361.1 147.8 359.2C149.7 356.4 155.7 341.2 165.8 313.6ZM313.1 290.4L312.8 290.8C310.6 294.2 308.5 297.8 309.4 299C310.3 300.2 313 298.9 314.1 300.9C314.8 302.2 310.2 303.9 300.4 305.7L280.7 321.4L272.3 310.2L298.6 298.2C303.2 293.4 307.7 289.8 312 287.3C313.3 287 315.5 286.9 313.1 290.4Z" fill="#96555E"/>
<path fill-rule="evenodd" clip-rule="evenodd" d="M221.2 255.8L227.5 254.7C241.2 268.5 246.8 301.6 255.9 306C264.5 310.1 276.7 306.1 291.3 300.7L295.8 311C282.6 325.8 254.5 338.4 243.1 331.2C224.7 319.7 220.5 278.9 221.2 255.8Z" fill="#C8D1D8"/>
<path fill-rule="evenodd" clip-rule="evenodd" d="M193.8 337.7C219 337.7 237.5 337.7 249.4 337.7C251.9 337.7 251.5 333.9 251.1 332C246.9 309.8 230.3 285.9 230.3 254.4L214.3 251.8C201 273.9 196.4 301.2 193.8 337.7Z" fill="#C8D1D8"/>
<path fill-rule="evenodd" clip-rule="evenodd" d="M219.6 251.8C234 302.7 238 336.7 231.5 353.6H181.4C182.2 341.2 184.7 328.1 188.2 315.3C176.9 336.5 167.3 351.8 159.6 361.1L147.9 358.7C155.4 310.4 177.1 274.7 213.1 251.7H219.6V251.8Z" fill="#F3F2E9"/>
<path fill-rule="evenodd" clip-rule="evenodd" d="M354.2 223.2C358.2 231.3 357.7 251.8 352.5 253.3C350.4 253.9 346 252.5 341.5 249.5L344.3 271H327.7L333.4 242.1C330.2 238 328 233.1 328.4 227.5C329.5 211.6 350.2 215.1 354.2 223.2Z" fill="#573136"/>
<path fill-rule="evenodd" clip-rule="evenodd" d="M349.2 208.1C353 208.1 356.1 211.5 356.1 215.6C356.1 219.6 353.2 222.9 349.5 223.1C347.4 223.8 344.7 224.3 341.7 224.5C342 225.7 342.1 227 342.1 228.5C342.1 229.8 342 231.2 341.7 232.7C341.1 231.9 340.2 231.3 339.3 231.3C336.8 231.3 335.1 233.5 335.1 235.8C335.1 238.7 336.7 240.9 339 241C336.9 245.3 334.1 248.5 331.2 248.5C325.8 248.5 321.9 240.7 321.9 232.3C321.9 232 321.9 231.7 321.9 231.4C316.2 235.6 311.8 244 304.2 244C293.9 244 289.8 221.5 304.2 221.5C314 221.5 318.8 223 323 225.3C323.8 222.8 325.1 220.7 326.6 219.2C327 218.8 327.5 218.3 328.3 217.9L328.5 217.8C328.9 217.6 329.3 217.4 329.7 217.3C332.2 216.3 335.8 215.6 339.9 215.4C340.7 215.4 341.4 215.4 342.1 215.4C342.3 211.4 345.4 208.1 349.2 208.1Z" fill="#B9B8B1"/>
<path fill-rule="evenodd" clip-rule="evenodd" d="M322.2 333.2L348.3 425.4L360.9 503.8H370.8L357.5 333.2H322.2Z" fill="#573136"/>
<path fill-rule="evenodd" clip-rule="evenodd" d="M322.2 333.2L348.3 425.4L360.9 503.8H370.8L357.5 333.2H322.2Z" fill="black" fill-opacity="0.1"/>
<path fill-rule="evenodd" clip-rule="evenodd" d="M312.9 333.2C314.7 383.8 312.6 409.9 312.2 414.5C311.8 419.1 306.4 448.9 293.5 505.3L304.1 501.4C324.4 449.7 331.3 422.8 333.7 416C336 409.2 342.2 381.6 352.3 333.2H312.9Z" fill="#573136"/>
<path fill-rule="evenodd" clip-rule="evenodd" d="M293.5 501.3C292.7 503.5 292.3 505.2 292.3 506.3C292.3 507.7 292.5 509.6 292.9 512.2C294.4 512.2 307.4 512.2 332 512.2C333 508.6 332.4 506.6 330.2 506.3C328 506 326.2 505.7 324.7 505.5L306.5 496.7C306.2 496.5 305.7 496.7 305.6 497.1L304.4 500.2C302.4 501.2 300.7 501.7 299.5 501.7C298.5 501.7 297 501.3 295.2 500.4C294.7 500.2 293.9 500.5 293.5 501.3C293.6 501.3 293.5 501.3 293.5 501.3Z" fill="#E5E4DC"/>
<path fill-rule="evenodd" clip-rule="evenodd" d="M358.7 501.3C357.9 503.5 357.5 505.2 357.5 506.3C357.5 507.7 357.7 509.6 358.1 512.2C359.6 512.2 372.6 512.2 397.2 512.2C398.2 508.6 397.6 506.6 395.4 506.3C393.2 506 391.4 505.7 389.9 505.5L371.7 496.7C371.4 496.5 370.9 496.7 370.8 497.1L369.6 500.2C367.6 501.2 365.9 501.7 364.7 501.7C363.7 501.7 362.2 501.3 360.4 500.4C359.9 500.2 359.1 500.5 358.7 501.3Z" fill="#E5E4DC"/>
<path fill-rule="evenodd" clip-rule="evenodd" d="M318.7 333.2L329.8 380.2H363.7L358.6 333.2H318.7Z" fill="#818990"/>
<path fill-rule="evenodd" clip-rule="evenodd" d="M312.5 333.2C308.8 345 308.2 360.7 310.4 380.2H345L354.5 333.2H312.5Z" fill="#B1BDC6"/>
<path fill-rule="evenodd" clip-rule="evenodd" d="M285.9 312.6L298.2 314.5C285 345.4 278 361.7 277 363.5C274.9 367.5 277.4 374.5 278.4 378.2C273.4 379.8 275 371.4 268.7 373.5C263 375.4 258.2 379.7 252.5 374.6C251.8 374 251.2 371.9 253.4 370.7C258.9 367.7 267.1 362.3 268.3 360.3C270.1 357.7 275.9 341.7 285.9 312.6ZM382.1 319.5L401.5 341.4C407.2 344.3 411.8 347.4 415.4 350.8C416.2 351.9 417.1 354.1 413.2 353C409.3 351.9 405.3 351.1 404.5 352.5C403.8 353.9 405.9 356.1 404.5 357.9C403.6 359.1 400.6 355.1 395.6 346L375.3 332L382.1 319.5Z" fill="#573136"/>
<path fill-rule="evenodd" clip-rule="evenodd" d="M337.2 258.5L344.8 255.8C355.1 283.7 370.5 310.6 396.2 333.4L389.8 345.3C367.2 330.9 345.8 319.7 337.1 298.1C334.3 290.9 337 267.2 337.2 258.5Z" fill="#2F4151"/>
<path fill-rule="evenodd" clip-rule="evenodd" d="M311.1 337C332.9 339.5 350.1 339.5 362.6 337C364.2 336.7 364.4 333.9 363.7 332C352.5 302.3 344.8 276.5 344.8 255.9C342.7 257 339.1 257.2 334 256.4C320.2 277.5 313.8 301.9 311.1 337Z" fill="#172028"/>
<path fill-rule="evenodd" clip-rule="evenodd" d="M330.6 254.2V254.6H336.4C337.7 263 341.9 376.1 354.6 415L355 416.2H284.4C285.9 381.6 298 340.1 310.2 305.4C299.4 316.1 290 334.2 281.9 359.8L268.7 356.1C278.5 310.3 298.7 276.7 329.3 255.2L329.5 254.7H330L330.6 254.2Z" fill="#536371"/>
<path fill-rule="evenodd" clip-rule="evenodd" d="M464.3 227.9C460.7 235.9 461.1 256.1 465.8 257.5C467.6 258.1 471.6 256.7 475.6 253.8L473.1 275H487.9L482.8 246.6C485.6 242.6 487.6 237.7 487.2 232.3C486.3 216.4 467.9 219.9 464.3 227.9Z" fill="#ADACA6"/>
<path fill-rule="evenodd" clip-rule="evenodd" d="M467.7 222.6C468 222.4 468.7 221.8 469.1 221.7C469.2 221.7 469.8 221.1 469.8 221.2C470.3 221.4 471.6 222.1 471.7 222.6C471.7 222.6 471.7 222.7 471.8 222.7C472 223.1 472.2 223.5 472.3 223.9C472.7 224.8 473 225.8 473.3 226.7C473.9 228.5 474.4 230.4 474.8 232.3C475.3 234.2 475.7 236.2 476.1 238.1C476.7 240.9 477.5 243.6 478.2 246.4C478.6 248.2 478.8 250 478.7 251.8C478.7 251.8 478.7 251.8 478.7 251.9C478.7 252.2 478.7 252.5 478.6 252.7C478.6 252.9 478.5 253.2 478.5 253.4C477.9 252 477.5 250.5 477 249.1C477 249 476.9 248.8 476.9 248.7C476.7 248.4 476.6 248.1 476.4 247.8C475.4 246 474.4 244.2 473.5 242.3C471.8 239 470.1 235.6 468.1 232.5C467.5 231.6 466.9 230.7 466.3 229.8C466 229.3 465.6 228.8 465.3 228.2C465.1 227.8 464.1 226.5 464.5 225.7C464.7 225.5 466.8 223.2 467.7 222.6Z" fill="#212D39"/>
<path fill-rule="evenodd" clip-rule="evenodd" d="M469 221.7C468.7 221.8 468.8 221 469.2 220.7C470.7 219.4 476.3 218.9 481.3 220.1C484.6 220.9 488.4 223 491.1 225.6C493.5 228 495.1 231.7 495.9 235.4C496.8 239.2 496.9 243.2 496.4 247.2C496.3 248.1 496.1 248.9 495.9 249.7C495.8 250.7 495.7 251.6 495.4 252.5C495.2 253.1 495 253.6 494.8 254.2C494.6 254.9 494.7 255.5 494.9 256.1C495.1 257.2 495.3 258.3 495.6 259.3C496.1 260.8 496.7 262.3 497 263.9C497.5 266 499.6 273 498 274.9H469.3C470 272.5 472.2 269.8 472.6 267.3C472.9 265.8 473 262.6 473 262.5C473.6 257.2 474.9 254.6 475.7 253.7C476.5 252.8 477.5 252.5 477.6 251.7C477.8 248.4 476.7 245.2 475.9 242.1C474.9 238.4 474.2 234.6 473.2 231C472.9 229.3 470.7 221.1 469 221.7Z" fill="#8E98A0"/>
<path fill-rule="evenodd" clip-rule="evenodd" d="M490.1 254.2C484.2 256.4 484.8 261 477.4 265.6L478 266.1C484.5 262.9 486.1 256 490.5 254.8L490.1 254.2ZM485.3 230.2C484.4 238.5 484.1 243.2 479.3 252.3L479.8 252.5C484.7 244.6 485.5 238.1 485.7 230.2H485.3ZM493.5 236.1C491.5 241.9 490.6 245.4 484.9 250.1L485.3 250.5C490.9 246.7 492.5 242.2 493.9 236.3L493.5 236.1ZM479 225.6C480.1 229.7 480.3 231.9 480.1 237.5H480.6C481.6 232.2 480.7 227.2 479.7 225.6H479Z" fill="black" fill-opacity="0.2"/>
<path fill-rule="evenodd" clip-rule="evenodd" d="M499.8 336.1C498.7 354.2 427 407.6 426.6 409.1C426.4 409.8 433.8 430.8 448.9 472.3L442.6 475.2C419.5 431.3 408.6 407 409.7 402.4C411.4 395.7 429.9 373.7 465.3 336.3L499.8 336.1Z" fill="#ADACA6"/>
<path fill-rule="evenodd" clip-rule="evenodd" d="M499.8 336.1C498.7 354.2 427 407.6 426.6 409.1C426.4 409.8 433.8 430.8 448.9 472.3L442.6 475.2C419.5 431.3 408.6 407 409.7 402.4C411.4 395.7 429.9 373.7 465.3 336.3L499.8 336.1Z" fill="black" fill-opacity="0.1"/>
<path fill-rule="evenodd" clip-rule="evenodd" d="M447.3 462.9L437.1 467.3C415.5 438.2 407.1 414.2 408.6 402C409.6 393.9 428.1 371.9 464 336H500.6C499.4 378 432.9 409.2 432 410.9C431.1 412.9 439.8 430.4 447.3 462.9Z" fill="#8E5159"/>
<path fill-rule="evenodd" clip-rule="evenodd" d="M451.203 470.868C452.484 472.611 453.236 474.055 453.62 475.046C454.03 476.259 454.388 478.199 454.729 480.771C453.482 481.274 442.596 486.038 422.011 494.935C420.133 491.91 420.091 489.979 421.766 488.886C423.534 487.827 424.919 486.947 426.141 486.222L438.849 471.479C439.046 471.231 439.49 471.18 439.704 471.471L441.6 473.864C443.556 474.044 445.077 473.959 446.196 473.515C447.059 473.19 448.162 472.208 449.341 470.722C449.862 470.167 450.682 470.252 451.203 470.868Z" fill="#E5E4DC"/>
<path fill-rule="evenodd" clip-rule="evenodd" d="M491.6 336.1L523.5 427.7L554.9 505.1H547.4L466.5 336.1H491.6Z" fill="#ADACA6"/>
<path fill-rule="evenodd" clip-rule="evenodd" d="M555.3 501.5C556 503.7 556.3 505.3 556.3 506.4C556.3 507.7 556.1 509.7 555.7 512.2C554.4 512.2 542.8 512.2 520.9 512.2C520 508.6 520.5 506.7 522.5 506.4C524.4 506.1 526.1 505.9 527.4 505.6L543.6 497C543.9 496.8 544.3 497 544.4 497.4L545.4 500.4C547.2 501.4 548.7 501.9 549.8 501.9C550.7 501.9 552 501.5 553.6 500.6C554.2 500.4 555 500.7 555.3 501.5C555.3 501.4 555.3 501.5 555.3 501.5Z" fill="#E5E4DC"/>
<path fill-rule="evenodd" clip-rule="evenodd" d="M552 489L535.6 492.7C522.9 470.4 469.7 378.8 463.8 336.1H500.4C519.9 366.9 539.9 466.3 552 489Z" fill="#B27B82"/>
<path fill-rule="evenodd" clip-rule="evenodd" d="M516 327.3L503.1 327.4C511.1 358.1 515.4 374.4 516 376.3C517.4 380.5 514.4 387 513.1 390.4C517.3 392.6 516.9 384.3 522.2 387.3C527 390 530.7 394.9 536.3 390.7C537 390.2 537.7 388.3 535.9 386.8C531.4 383.1 524.8 376.6 523.9 374.4C522.8 371.5 520.1 355.8 516 327.3ZM440.5 326.7L420.8 344C415.5 345.7 411 347.9 407.4 350.4C406.6 351.3 405.5 353.2 409 352.9C412.5 352.6 416.2 352.4 416.7 353.9C417.2 355.4 415.1 357 416 359C416.7 360.3 419.7 357.1 425.2 349.3L444.7 339.6L440.5 326.7Z" fill="#ADACA6"/>
<path fill-rule="evenodd" clip-rule="evenodd" d="M479.4 262.7L474.1 261.6C454.3 282 446.2 321.3 421.9 342.1L427.7 350.7C469.8 344.4 480.2 296.6 479.4 262.7Z" fill="#C8D1D8"/>
<path fill-rule="evenodd" clip-rule="evenodd" d="M502.7 342.7C481.3 342.7 465.6 342.7 455.5 342.7C453.3 342.7 453.7 339 454.1 337.1C457.7 315.4 471.7 292.1 471.7 261.2L485.3 258.6C496.5 280.4 500.4 307 502.7 342.7Z" fill="#C8D1D8"/>
<path fill-rule="evenodd" clip-rule="evenodd" d="M486.3 258.7C485.8 258.7 485.4 258.7 485 258.8L480.7 259.1C468.5 308.6 465.1 341.7 470.6 358.2H507.8C510 364.3 512.1 369.5 514.1 373.7H524.2C525.2 336.9 517.8 305.7 502.2 280C504.2 279.3 505.7 277.7 506.9 275.2C511.9 264.5 510.1 258.6 504.8 256.6C499.5 254.7 494.8 258.7 486.3 258.7Z" fill="#F3F2E9"/>
<path fill-rule="evenodd" clip-rule="evenodd" d="M494 358.2H507.8C505.2 351 502.5 342.6 499.7 332.8C498.5 344.5 496.6 353 494 358.2Z" fill="black" fill-opacity="0.1"/>
<path fill-rule="evenodd" clip-rule="evenodd" d="M124.8 236.1C128.9 243.8 128.4 263.5 123.1 264.8C121 265.4 116.4 264 111.8 261.2L114.7 281.8H97.6L103.5 254.2C100.2 250.3 98 245.6 98.4 240.3C99.4 225 120.7 228.3 124.8 236.1Z" fill="#96555E"/>
<path fill-rule="evenodd" clip-rule="evenodd" d="M90.9 235.2C90.3 234.6 90 233.9 89.8 233.1C89.5 232.3 89.3 231.5 89.1 230.7C88.7 229.1 88.7 227.2 89.9 226C90.8 225 92.2 224.5 93.5 224.4C94.3 224.3 95.2 224.5 96 224.7C96.8 225 97.5 225.5 98.3 225.8C98.3 224.1 98.6 222.2 99.5 220.8C100.3 219.4 101.7 218.6 103.2 218.4C104.8 218.2 106.3 218.6 107.7 219.3C108.1 219.5 108.4 219.7 108.7 219.9C109 220.1 109.3 220.3 109.6 220.4C110 220.5 110.1 220.3 110.4 220C110.7 219.7 111 219.4 111.3 219.2C112.8 218.1 114.7 217.7 116.4 218.3C117.2 218.6 117.9 219.1 118.5 219.8C119 220.4 119.3 221.4 120 221.9C120.3 222.1 120.5 221.8 120.7 221.7C121.1 221.4 121.4 221.1 121.8 220.9C122.3 220.5 122.9 220.3 123.6 220.1C124.5 219.9 125.8 219.9 126 221.1C126.1 221.6 126 222 126 222.5C126 223.1 125.9 223.8 125.9 224.4C125.9 224.9 125.8 225.3 125.7 225.8C125.7 226 125.5 226.5 125.6 226.8C125.7 227.1 126.3 226.9 126.6 226.9C127.1 226.9 127.6 227 128.1 227.2C128.5 227.4 128.9 227.6 129 228.1C129.1 228.4 129.1 228.6 129 228.9C128.9 229.2 129 229.4 129 229.7C129.7 229.4 132.1 228.6 132.4 229.8C132.5 230.2 132.3 230.7 132.1 231C131.8 231.6 131.4 232.2 131 232.7C130.1 233.8 129.1 234.8 128 235.6C129.3 236.2 129.6 237.9 128.5 238.9C128 239.3 127.3 239.4 126.7 239.4C126.5 239.4 126.1 239.3 126 239.3C125.9 239.3 125.8 239.4 125.7 239.4C124.8 239.5 123.8 239.2 123 239.1C121.5 238.8 120 238 118.8 236.9C118.5 236.6 118.2 236.5 117.8 236.5C117.4 236.5 117.1 236.6 116.7 236.6C115.8 236.6 114.9 236.2 114 235.8C113.9 237 113.6 238.3 113.1 239.4C112.7 240.3 111.9 240.4 111.1 240.5C108.5 240.7 105.9 240.5 103.3 240.5C105.8 241.1 108.4 241.3 110.9 242C112 242.3 111.2 243.1 110.7 243.6C109.9 244.5 109.3 245.6 108.9 246.7C107.7 245.1 105.5 244 103.6 244.5C101.5 245 100 247.9 101.3 250C102.1 251.2 103.5 251.7 104.7 252.2C103.8 253.2 103.5 254.6 103 255.8C102.7 256.4 102.3 257.1 101.7 257.3C101.5 257.4 101.2 257.4 101 257.6C100.8 257.8 100.7 258.1 100.4 258.3C99.3 259.1 97.5 259 96.5 258C95.6 257.1 95.8 255.6 96.6 254.6C95.4 254.1 93.2 253.4 93.7 251.5C91.1 251.3 84.7 247.1 88.2 243.9C86.3 242.8 84.5 240.1 85.7 237.8C86.8 236.1 89.1 235.3 90.9 235.2Z" fill="#18212A"/>
<path fill-rule="evenodd" clip-rule="evenodd" d="M70.1 411.5C87.2 416.3 102 418.7 114.4 418.7C126.8 418.7 138.3 415 149 407.6C132.3 402.7 118.5 400.2 107.6 400.2C96.7 400.2 84.2 403.9 70.1 411.5Z" fill="#B9898F"/>
<path fill-rule="evenodd" clip-rule="evenodd" d="M129.2 425.6C129 425.4 128.9 425.1 128.8 424.8C126.5 418.7 89.9 353.2 86.2 341.3H127.4C130.2 350.4 142.7 407.5 144.4 418.9C149.9 436.9 161.4 495.1 162.8 499.2C164.3 503.4 155.7 507.9 153.4 502.6C149.7 494.3 141 471.3 137.1 457.3C133.6 444.1 130.6 432.3 129.2 425.6Z" fill="#96555E"/>
<path fill-rule="evenodd" clip-rule="evenodd" d="M129.2 425.6C129 425.4 128.9 425.1 128.8 424.8C126.5 418.7 89.9 353.2 86.2 341.3H127.4C130.2 350.4 142.7 407.5 144.4 418.9C149.9 436.9 161.4 495.1 162.8 499.2C164.3 503.4 155.7 507.9 153.4 502.6C149.7 494.3 141 471.3 137.1 457.3C133.6 444.1 130.6 432.3 129.2 425.6Z" fill="black" fill-opacity="0.1"/>
<path fill-rule="evenodd" clip-rule="evenodd" d="M95.4 433.6C78.7 437.8 17.4 445.5 13.2 446.7C8.89999 447.9 5.1 439 10.4 437.1C18.9 434 42.3 426.9 56.5 424C67.9 421.7 78.4 419.8 85.4 418.6C84.8 398.9 82.1 351.5 83.9 341.2H120.4C118.7 351 104.3 422.6 101.6 429.8C100.8 432.4 98.2 433.5 95.4 433.6Z" fill="#96555E"/>
<path fill-rule="evenodd" clip-rule="evenodd" d="M10.8324 434.716C8.62536 434.292 6.98021 434.176 5.89693 434.367C4.61668 434.593 2.78027 435.12 0.486192 435.931C0.746665 437.408 3.09091 450.703 7.50158 475.717C11.1221 476.094 12.7905 475.19 12.7039 472.972C12.6174 470.753 12.4844 468.847 12.5194 467.318L17.4287 447.362C17.5562 446.934 17.2897 446.574 16.8785 446.545L13.8141 445.867C12.4647 443.973 11.6771 442.385 11.4513 441.105C11.2603 440.022 11.4111 438.574 11.9675 436.546C12.124 435.706 11.6897 434.971 10.8324 434.716C10.9309 434.698 10.8324 434.716 10.8324 434.716Z" fill="#E5E4DC"/>
<path fill-rule="evenodd" clip-rule="evenodd" d="M150.8 501.9C150 504 149.6 505.6 149.6 506.7C149.6 508 149.8 509.9 150.2 512.4C151.7 512.4 165.1 512.4 190.4 512.4C191.4 508.9 190.8 507.1 188.6 506.8C186.4 506.5 184.5 506.3 183 506.1L164.3 497.7C163.9 497.5 163.5 497.7 163.4 498.1L162.2 501C160.1 502 158.4 502.5 157.1 502.5C156 502.5 154.6 502.1 152.7 501.2C152.1 500.8 151.2 501.1 150.8 501.9C150.9 501.8 150.9 501.9 150.8 501.9Z" fill="#E5E4DC"/>
<path fill-rule="evenodd" clip-rule="evenodd" d="M84 341.2C100.1 336.6 115.3 336.6 129.6 341.2C134.6 364.1 146.7 373.1 148.9 408.2C124.7 420.3 94.7 399.6 69.7 411.4C62.6 394.9 72.6 355.2 84 341.2Z" fill="#B9B9B2"/>
<path fill-rule="evenodd" clip-rule="evenodd" d="M53 320L65.6 322.3C51 351.3 43.2 366.7 42.2 368.4C39.9 372.2 42.2 378.9 43.1 382.5C37.9 383.8 39.8 375.9 33.3 377.7C27.3 379.3 22.3 383.2 16.6 378.1C15.9 377.5 15.4 375.5 17.7 374.4C23.5 371.8 32 366.8 33.4 365C35.3 362.5 41.8 347.5 53 320ZM156 327L178.7 343.8C184.9 345.5 190 347.6 194.2 350C195.2 350.9 196.4 352.7 192.3 352.4C188.2 352.1 184 351.9 183.4 353.3C182.8 354.7 185.3 356.3 184.2 358.2C183.4 359.4 179.9 356.3 173.5 348.8L151 339.4L156 327Z" fill="#96555E"/>
<path fill-rule="evenodd" clip-rule="evenodd" d="M114.9 267.5C125.5 289.6 139.9 310.7 161.3 328.8C164.2 328.6 167.4 329.1 170.8 330.2C172.5 330.8 173.4 332.6 172.8 334.3C172.5 335.3 171.7 336 170.8 336.3C171.5 336.8 172.1 337.3 172.8 337.7L167.1 349.5C143 337.4 120.3 328.3 109.9 308.3C106.4 301.6 107.6 278.8 107.3 270.6L114.9 267.5Z" fill="#354858"/>
<path fill-rule="evenodd" clip-rule="evenodd" d="M79.5 347.6C101.9 350.1 119.6 350.1 132.4 347.6C134 347.3 133.9 340.4 133.2 338.5C121.7 309.1 114.1 287.6 114.1 267.3C112 268.4 108.3 268.6 103 267.8C88.9 288.8 82.3 312.9 79.5 347.6Z" fill="#B9B8B1"/>
<path fill-rule="evenodd" clip-rule="evenodd" d="M106.4 266.1C104 297.8 137 367 125.5 426.1C104.3 430.8 74.1 416.1 44.7 427.9C45.8 404.1 67.7 376.1 76.3 351.1C75.5 350.4 75.1 349.3 75.3 348.2L75.7 346.1C76 344.7 77.1 343.6 78.5 343.5C78.7 342.4 78.9 341.4 79.1 340.3C80.5 331.4 78.1 322.6 78.2 314C66.7 323.8 56.4 340.8 47.3 364.9L33.8 360.9C34.3 359 34.8 357.1 35.4 355.2C33.8 354.3 32 350.3 33.3 349.6C34.7 348.9 36.1 348.4 37.6 348.1C50 310.8 70.1 283.4 98.2 266.2H106.4V266.1Z" fill="#354858"/>
<path fill-rule="evenodd" clip-rule="evenodd" d="M101.2 266.8L97.6 278.1L105 286.7L98.3 293.3L114.5 321.2L94.7 293.4L101.2 286.7L94.7 279.1L101.2 266.8Z" fill="black" fill-opacity="0.1"/>
<path fill-rule="evenodd" clip-rule="evenodd" d="M114 359.1C115.6 359.1 116.9 360.4 116.9 362C116.9 363.6 115.6 364.9 114 364.9C112.4 364.9 111.1 363.6 111.1 362C111.1 360.4 112.4 359.1 114 359.1ZM113.3 342.7C114.9 342.7 116.2 344 116.2 345.6C116.2 347.2 114.9 348.5 113.3 348.5C111.7 348.5 110.4 347.2 110.4 345.6C110.4 344 111.7 342.7 113.3 342.7ZM109.7 326.2C111.3 326.2 112.6 327.5 112.6 329.1C112.6 330.7 111.3 332 109.7 332C108.1 332 106.8 330.7 106.8 329.1C106.8 327.5 108.1 326.2 109.7 326.2Z" fill="black" fill-opacity="0.4"/>
<path fill-rule="evenodd" clip-rule="evenodd" d="M736.4 220.5C732.3 228.6 732.8 249.3 738.1 250.8C740.2 251.4 744.8 250 749.4 247L746.5 268.7H763.6L757.7 239.7C761 235.6 763.2 230.6 762.8 225C761.7 208.8 740.5 212.4 736.4 220.5Z" fill="#B8858C"/>
<path fill-rule="evenodd" clip-rule="evenodd" d="M746.1 211.1C748.3 210.7 754.4 210.4 755.5 210.4C756.2 210.4 757 210.6 757.4 209.9C757.7 209.3 757.6 208.4 757.7 207.7C757.8 206.9 758 206.2 758.2 205.4C758.7 203.3 759.4 201.2 760.5 199.3C762.4 195.7 765.3 192.9 768.9 191.2C772.9 189.4 777.4 189 781.7 189.3C786.3 189.7 790.4 191.3 794.7 192.8C798.8 194.2 803.1 194.8 807.4 194.1C811.7 193.4 815 190.9 818.7 188.5C822.4 186.1 826.7 184.5 831.2 184.9C835.3 185.2 839.1 187.1 842.6 189.5C845.8 191.8 848.4 194.5 849.9 198.3C851.5 202.4 851.5 206.9 848.9 210.6C845.1 215.9 838 217.2 832.1 217.1C828.7 217 825.3 216.4 822.1 215.2C817.8 213.6 814.1 210.9 810.1 208.7C808.2 207.7 806.3 206.8 804.2 206.2C802.2 205.6 800.3 205.3 798.5 206.6C796.6 207.9 794.9 209.3 792.7 210.1C790.6 210.9 788.4 211.4 786.2 211.3C781.9 211.3 777.6 209.8 773.4 208.9C770 208.1 766.3 207.3 762.8 208.1C761.3 208.4 759.2 209.1 758.7 210.7C767.6 212.4 771 224 768.5 232.5C767.2 237.1 759 242.5 755.9 240.1C753.9 238.6 755.1 236.6 755.9 235.2C757.4 232.7 757.9 229.4 755.1 227.6C752.7 226.1 750.2 229.7 750.1 229.7C749.4 229.6 743.7 226.2 739.8 221.3C735.9 221.5 735.3 218.8 736.3 216.6C737.3 214.4 743 211.7 746.1 211.1Z" fill="#18212A"/>
<path fill-rule="evenodd" clip-rule="evenodd" d="M765 331.2L730.1 424.9L706.6 504H697.4L734.6 331.2H765Z" fill="#B8858C"/>
<path fill-rule="evenodd" clip-rule="evenodd" d="M772 331.2C772.4 364.1 777.8 408.4 778.7 410.5C779.3 411.9 799.2 429.3 838.5 462.7L832.1 469.9C785.7 441.3 761.5 425 759.3 421.2C756.1 415.5 745.6 362.7 737.2 331.2H772Z" fill="#B8858C"/>
<path fill-rule="evenodd" clip-rule="evenodd" d="M839.316 460.243C841.444 461.068 842.944 461.767 843.728 462.545C844.717 463.413 846.015 464.804 847.609 466.86C846.653 468.054 838.035 478.941 821.831 499.456C818.484 497.957 817.505 496.168 818.74 494.217C819.976 492.267 820.981 490.509 821.809 489.162L827.461 468.362C827.563 468.016 827.946 467.695 828.356 467.873L831.317 468.913C833.401 467.817 834.831 466.878 835.711 465.748C836.425 464.888 836.983 463.375 837.514 461.363C837.665 460.453 838.483 460.028 839.316 460.243C839.251 460.166 839.316 460.243 839.316 460.243Z" fill="#E5E4DC"/>
<path fill-rule="evenodd" clip-rule="evenodd" d="M710.4 500.4C711.2 502.7 711.6 504.3 711.6 505.5C711.6 506.9 711.4 508.8 711 511.5C709.5 511.5 696.1 511.5 670.9 511.5C669.9 507.8 670.5 505.9 672.7 505.6C674.9 505.3 676.8 505 678.3 504.8L696.9 496C697.3 495.8 697.7 496 697.8 496.4L699 499.5C701.1 500.5 702.8 501 704.1 501C705.2 501 706.6 500.5 708.5 499.6C709.2 499.2 710.1 499.5 710.4 500.4C710.4 500.3 710.4 500.4 710.4 500.4Z" fill="#E5E4DC"/>
<path fill-rule="evenodd" clip-rule="evenodd" d="M741.5 495.9L697.5 490.8L733 331.2H769.5L741.5 495.9Z" fill="#C8D1D8"/>
<path fill-rule="evenodd" clip-rule="evenodd" d="M829.4 451L800.6 487.2C770.2 452 752.5 429.1 747.5 418.4C742.5 407.7 737.9 378.6 733.9 331.3H778.2C780.4 373 781.9 394.8 782.6 396.7C783.3 398.6 798.9 416.7 829.4 451Z" fill="#F3F2E9"/>
<path fill-rule="evenodd" clip-rule="evenodd" d="M796 322.2L781.1 322.3C790.3 353.7 795.2 370.4 796 372.3C797.6 376.6 794.2 383.2 792.7 386.7C797.6 389 797 380.5 803.2 383.5C808.8 386.3 813 391.2 819.5 387C820.3 386.5 821.2 384.5 819.1 383C813.9 379.2 806.3 372.5 805.3 370.3C803.8 367.4 800.8 351.3 796 322.2ZM709.8 322.4L686.1 339C679.8 340.5 674.6 342.4 670.3 344.8C669.3 345.7 668 347.5 672 347.4C676.1 347.3 680.3 347.3 680.8 348.8C681.3 350.3 678.7 351.9 679.7 353.9C680.4 355.2 684.1 352.1 690.9 344.5L713.9 335.7L709.8 322.4Z" fill="#B8858C"/>
<path fill-rule="evenodd" clip-rule="evenodd" d="M753.8 256.1L747.6 255C737 283 718.5 308.5 692.1 331.4L712 357.1C738.5 324.4 754.8 290.8 753.8 256.1Z" fill="#2F4151"/>
<path fill-rule="evenodd" clip-rule="evenodd" d="M780.6 338H725.8C738.5 305.3 744.8 277.5 744.8 254.7L761.3 252.1C774.4 274.2 778 301.5 780.6 338Z" fill="#C8D1D8"/>
<path fill-rule="evenodd" clip-rule="evenodd" d="M760.7 252.1C759.4 252.1 757.4 252.2 754.8 252.4L750.8 264.5C750.4 279.2 747.9 309 743.4 353.6H779.3C779.2 356.7 779.1 359.8 778.8 362.9H805.5C801.5 315.2 786.9 278.2 761.8 252.1H760.7Z" fill="#536371"/>
<path fill-rule="evenodd" clip-rule="evenodd" d="M769.2 353.8H779.2C779.6 340 778.9 326.7 776.8 314C775.9 333.3 773.3 346.6 769.2 353.8Z" fill="black" fill-opacity="0.1"/>
<path fill-rule="evenodd" clip-rule="evenodd" d="M771.3 330.5L753.6 321.7V330.5H771.3Z" fill="white" fill-opacity="0.2"/>
<path fill-rule="evenodd" clip-rule="evenodd" d="M635.9 312.4C627.5 312.4 624.4 302.6 619.6 297.2C616.2 293.3 610.3 294.5 608.6 289.1C604.2 275.5 615.9 266 631.1 266C646.3 266 656.5 274.4 658.8 287C661 299.5 651.1 312.4 635.9 312.4Z" fill="#9B5861"/>
<path fill-rule="evenodd" clip-rule="evenodd" d="M612.9 285.4C608.6 293.2 609.1 312.8 614.7 314.2C616.9 314.8 621.6 313.4 626.4 310.6L623.4 331.2H641L634.9 303.6C638.3 299.7 640.6 295 640.2 289.6C639.2 274.3 617.2 277.6 612.9 285.4Z" fill="#573136"/>
<path fill-rule="evenodd" clip-rule="evenodd" d="M611.9 285.4C615.3 286 622.1 289.2 627.5 293.7C628.1 293.4 628.9 293.2 629.7 293.2C632.2 293.2 634.2 295.1 634.2 297.5C634.2 298.5 633.9 299.4 633.3 300.1C634.4 301.8 635.1 303.6 635.4 305.5C639.1 305.5 652.7 291.8 639.2 278.9C625.7 266 606 284.4 611.9 285.4Z" fill="#9B5861"/>
<path fill-rule="evenodd" clip-rule="evenodd" d="M534.9 407.2C534.9 422.4 549.2 494.5 549.9 499C550.6 503.6 558.6 505 559.1 499.4C559.8 490.3 561.2 459 559.8 444.4C559.4 440.1 559 436 558.6 432.2C566.1 445.3 577.5 463.8 592.7 487.7L601.2 483.9C594.5 462.5 589.1 447.4 584.8 438.6C577.5 423.5 570.6 410.6 567.8 406.1C564 400.1 557.8 400.9 553.5 403.9C548.1 396.8 534.8 401.4 534.9 407.2Z" fill="#573136"/>
<path fill-rule="evenodd" clip-rule="evenodd" d="M600.6 472L571.5 404.8C564.5 393.9 544.9 407 547.3 413.4C552.7 427.8 580.2 474.4 581.8 478.7L600.6 472Z" fill="#171F27"/>
<path fill-rule="evenodd" clip-rule="evenodd" d="M534.1 412.4C534.1 431.4 542.7 476.2 542.7 480.4L563.5 479.7C559.9 440.8 558.3 421.2 558.9 420.9C560.2 420.3 611.4 427.8 626.7 428.4C648.8 429.2 658 416 658.7 390.9H615.8C579.1 395.2 555 398.1 543.5 399.8C536.2 400.9 534.1 407.2 534.1 412.4Z" fill="#354858"/>
<path fill-rule="evenodd" clip-rule="evenodd" d="M602.269 481.724C603.556 483.591 604.43 485.046 604.673 486.137C604.989 487.349 605.233 489.265 605.429 491.788C603.901 492.128 590.515 495.386 565.053 501.612C563.159 498.46 563.23 496.519 565.485 495.742C567.644 494.94 569.462 494.26 570.941 493.701L587.595 481.054C587.959 480.836 588.371 480.836 588.59 481.199L590.532 483.745C592.885 484.228 594.728 484.276 595.94 483.96C597.032 483.716 598.365 482.915 600.014 481.677C600.814 480.949 601.711 481.07 602.269 481.724Z" fill="#E5E4DC"/>
<path fill-rule="evenodd" clip-rule="evenodd" d="M560.2 488.7C561 490.8 561.4 492.4 561.4 493.5C561.4 494.8 561.2 496.7 560.7 499.2C559.2 499.2 545.3 499.2 519.1 499.2C518 495.7 518.6 493.8 521 493.6C523.4 493.4 525.3 493.1 526.8 492.8L546.1 484.4C546.5 484.2 546.9 484.4 547.1 484.8L548.3 487.7C550.5 488.7 552.2 489.2 553.6 489.2C554.7 489.2 556.2 488.8 558.1 487.9C558.9 487.5 559.8 487.9 560.2 488.7C560.1 488.6 560.2 488.6 560.2 488.7Z" fill="#E5E4DC"/>
<path fill-rule="evenodd" clip-rule="evenodd" d="M558.1 499.2H524.2C522.8 499.2 521.6 500.3 521.6 501.7C521.6 503.1 522.8 504.2 524.2 504.2H558.1C559.5 504.2 560.7 503.1 560.7 501.7C560.7 500.3 559.5 499.2 558.1 499.2Z" fill="#354858"/>
<path fill-rule="evenodd" clip-rule="evenodd" d="M661 395.1H582.1C578 395.1 574.7 398.3 574.7 402.3V437.5H665.4C667 437.5 668.3 436.2 668.3 434.6V402.3C668.3 398.3 665 395.1 661 395.1Z" fill="#354858"/>
<path fill-rule="evenodd" clip-rule="evenodd" d="M582.1 395.1H580.5C576.9 395.1 573.8 397.6 573.2 401.1L557 497H564.9" fill="#354858"/>
<path d="M560.7 511.3C568.045 511.3 574 505.524 574 498.4C574 491.276 568.045 485.5 560.7 485.5C553.355 485.5 547.4 491.276 547.4 498.4C547.4 505.524 553.355 511.3 560.7 511.3Z" fill="#171F27"/>
<path fill-rule="evenodd" clip-rule="evenodd" d="M658.7 400.8C627.7 400.8 602.7 425.2 602.7 455.3C602.7 485.4 627.8 509.8 658.7 509.8C689.6 509.8 714.7 485.4 714.7 455.3C714.7 425.2 689.7 400.8 658.7 400.8ZM658.7 410.9C684 410.9 704.4 430.8 704.4 455.4C704.4 480 683.9 499.9 658.7 499.9C633.5 499.9 613 479.9 613 455.4C613 430.9 633.5 410.9 658.7 410.9Z" fill="#171F27"/>
<path d="M661.7 408H655.8V502.7H661.7V408Z" fill="#171F27"/>
<path fill-rule="evenodd" clip-rule="evenodd" d="M625.4 420.9L623.3 422.9C622.7 423.5 622.7 424.4 623.3 424.9L690 489.9C690.6 490.5 691.5 490.5 692.1 489.9L694.2 487.9C694.8 487.3 694.8 486.4 694.2 485.9L627.5 420.9C626.9 420.3 625.9 420.3 625.4 420.9Z" fill="#171F27"/>
<path fill-rule="evenodd" clip-rule="evenodd" d="M610.1 453.9V456.8C610.1 457.6 610.8 458.2 611.6 458.2H706C706.8 458.2 707.5 457.6 707.5 456.8V453.9C707.5 453.1 706.8 452.5 706 452.5H611.6C610.7 452.5 610.1 453.1 610.1 453.9Z" fill="#171F27"/>
<path fill-rule="evenodd" clip-rule="evenodd" d="M623.3 487.9L625.4 489.9C626 490.5 626.9 490.5 627.5 489.9L694.2 424.9C694.8 424.3 694.8 423.4 694.2 422.9L692.1 420.9C691.5 420.3 690.6 420.3 690 420.9L623.3 485.9C622.7 486.4 622.7 487.3 623.3 487.9Z" fill="#171F27"/>
<path fill-rule="evenodd" clip-rule="evenodd" d="M685.5 371.1L672.4 372.9C686.4 402.5 693.9 418.2 694.9 419.9C697.2 423.7 694.5 430.4 693.5 434C698.8 435.5 697.1 427.5 703.8 429.5C709.9 431.3 715 435.4 721 430.5C721.7 429.9 722.4 427.9 720 426.8C714.1 423.9 705.5 418.7 704.1 416.8C702.4 414.2 696.1 399 685.5 371.1ZM584.7 379L562.4 397.4C556.2 399.5 551 401.9 546.9 404.7C546 405.7 544.9 407.6 549 407C553.1 406.4 557.6 406 558.2 407.3C558.9 408.6 556.5 410.5 557.8 412.3C558.7 413.5 562.1 410.1 568.1 402.2L590.7 391.2L584.7 379Z" fill="#573136"/>
<path fill-rule="evenodd" clip-rule="evenodd" d="M630.9 319.3L622.8 316.7C611.8 343.4 595.4 369.2 568.1 391L574.9 402.4C598.9 388.6 621.7 377.9 630.9 357.2C634 350.2 631.2 327.6 630.9 319.3Z" fill="#2F4151"/>
<path fill-rule="evenodd" clip-rule="evenodd" d="M658.7 394.4C635.5 396.8 617.3 396.8 604 394.4C602.4 394.1 602.1 391.4 602.9 389.6C614.8 361.2 623 336.4 623 316.7C625.2 317.8 629 317.9 634.5 317.2C649.1 337.5 655.8 360.8 658.7 394.4Z" fill="#172028"/>
<path fill-rule="evenodd" clip-rule="evenodd" d="M638 315.1V315.5H631.9C630.5 323.6 626.1 431.9 612.5 469.1L612.1 470.2H687.2C685.6 437.1 672.7 397.3 659.7 364.1C671.2 374.3 681.2 391.7 689.8 416.2L703.9 412.7C693.4 368.9 671.9 336.6 639.4 316L639.2 315.5H638.7L638 315.1Z" fill="#536371"/>
</svg>
