<svg width="806" height="517" viewBox="0 0 806 517" fill="none" xmlns="http://www.w3.org/2000/svg">
<path fill-rule="evenodd" clip-rule="evenodd" d="M805.81 142.265C814.784 27.4282 504.147 -37.4034 240.624 23.0999C-22.898 83.603 -56.1842 354.179 73.9412 458.61C204.067 563.04 796.93 257.194 805.81 142.265Z" fill="#F4F3EA"/>
<path fill-rule="evenodd" clip-rule="evenodd" d="M422.1 401H341L330.4 516.3H451.1L422.1 401Z" fill="#4F4C4D"/>
<path fill-rule="evenodd" clip-rule="evenodd" d="M146.262 228.49C141.654 223.081 138.536 216.453 139.057 209.025C140.558 187.625 170.349 192.333 176.143 203.134C181.938 213.935 181.25 241.333 173.76 243.263C170.774 244.033 164.411 242.147 157.935 238.244L162 267H138L146.262 228.49Z" fill="#B28B67"/>
<path fill-rule="evenodd" clip-rule="evenodd" d="M128.593 201.902C127.818 201.134 127.395 200.037 127.03 198.996C126.65 197.914 126.281 196.822 126.028 195.696C125.525 193.447 125.52 190.86 127.124 189.114C128.411 187.713 130.342 187.085 132.124 186.948C133.311 186.857 134.531 187.024 135.669 187.398C136.798 187.769 137.771 188.509 138.866 188.968C138.908 186.544 139.323 184.008 140.553 181.938C141.736 179.947 143.622 178.829 145.771 178.534C147.976 178.23 150.154 178.746 152.128 179.814C152.622 180.081 153.112 180.361 153.581 180.678C153.973 180.944 154.381 181.264 154.841 181.372C155.355 181.492 155.609 181.196 155.942 180.821C156.334 180.382 156.774 179.996 157.24 179.653C159.302 178.137 162.007 177.514 164.396 178.423C165.496 178.841 166.567 179.552 167.313 180.531C167.979 181.404 168.454 182.789 169.372 183.398C169.762 183.656 170.037 183.314 170.392 183.061C170.925 182.681 171.434 182.262 171.973 181.892C172.731 181.373 173.552 180.985 174.43 180.781C175.717 180.484 177.494 180.553 177.862 182.238C178 182.871 177.894 183.548 177.85 184.186C177.789 185.061 177.725 185.936 177.649 186.811C177.591 187.474 177.518 188.115 177.393 188.767C177.326 189.115 177.117 189.763 177.266 190.111C177.452 190.546 178.311 190.298 178.679 190.313C179.404 190.343 180.132 190.47 180.803 190.78C181.322 191.021 181.869 191.374 182.088 191.969C182.223 192.335 182.187 192.711 182.124 193.088C182.047 193.539 182.135 193.779 182.192 194.235C183.166 193.755 186.541 192.69 186.965 194.435C187.107 195.016 186.785 195.673 186.539 196.163C186.108 197.023 185.543 197.809 184.966 198.558C183.761 200.121 182.323 201.47 180.776 202.623C182.589 203.429 183.062 205.806 181.493 207.222C180.8 207.848 179.868 207.987 178.994 207.947C178.674 207.932 178.213 207.809 177.961 207.865C177.825 207.895 177.68 208.01 177.493 208.022C176.259 208.107 174.866 207.81 173.66 207.536C171.512 207.048 169.477 206.03 167.816 204.48C167.39 204.082 167.038 203.853 166.464 203.859C165.962 203.864 165.468 204.002 164.966 204.015C163.638 204.048 162.44 203.399 161.206 202.967C161.13 204.633 160.655 206.469 159.974 207.969C159.418 209.191 158.257 209.369 157.116 209.476C153.467 209.82 149.806 209.437 146.152 209.442C149.689 210.241 153.343 210.571 156.848 211.511C158.432 211.936 157.222 213.004 156.545 213.744C155.43 214.963 154.6 216.474 154.025 218.065C152.295 215.81 149.237 214.324 146.528 215.017C143.535 215.782 141.427 219.83 143.341 222.74C144.453 224.429 146.459 225.081 148.129 225.807C146.827 227.161 146.511 229.161 145.727 230.846C145.341 231.677 144.798 232.617 143.933 232.906C143.613 233.013 143.238 233.022 142.986 233.283C142.673 233.606 142.599 233.967 142.199 234.245C140.606 235.352 138.117 235.267 136.705 233.821C135.428 232.514 135.76 230.445 136.827 229.12C135.129 228.412 132.036 227.502 132.711 224.857C129.032 224.613 120.1 218.646 125.037 214.286C122.327 212.755 119.838 209.012 121.578 205.713C122.919 203.172 126.036 202.036 128.593 201.902Z" fill="#191847"/>
<path fill-rule="evenodd" clip-rule="evenodd" d="M94.6226 392H171.877L182 516H67L94.6226 392Z" fill="#4F4C4D"/>
<path fill-rule="evenodd" clip-rule="evenodd" d="M94.6226 392H118.383L132.604 516H67L94.6226 392Z" fill="black" fill-opacity="0.1"/>
<path fill-rule="evenodd" clip-rule="evenodd" d="M259.953 370.756C268.19 365.81 282.009 372.165 282 379.238C281.972 400.403 262.657 500.151 261.648 506.457C260.64 512.762 249.837 514.428 249.208 506.477C248.207 493.827 246.347 450.033 248.208 429.763C248.976 421.395 249.803 413.427 250.617 406.318C240.482 424.621 224.807 450.826 203.593 484.934L192.077 479.672C201.12 449.876 208.536 428.841 214.323 416.566C224.233 395.55 233.525 377.552 237.436 371.212C243.588 361.24 254.295 364.719 259.953 370.756Z" fill="#B28B67"/>
<path fill-rule="evenodd" clip-rule="evenodd" d="M192.9 463.125L232.427 369.487C241.897 354.255 268.446 372.587 265.217 381.422C257.885 401.479 220.6 466.414 218.415 472.39L192.9 463.125Z" fill="#A4C90F"/>
<path fill-rule="evenodd" clip-rule="evenodd" d="M190.705 473.767C188.242 475.794 186.641 477.45 185.899 478.734C184.998 480.296 183.942 482.725 182.733 486.021C184.544 487.067 200.826 496.467 231.578 514.222C235.27 510.759 235.845 508.07 233.304 506.157C230.762 504.243 228.665 502.629 227.012 501.315L210.152 478.087C209.828 477.64 209.202 477.54 208.756 477.865C208.748 477.87 208.74 477.876 208.733 477.882L205.23 480.579C202.016 480.299 199.618 479.702 198.035 478.788C196.749 478.045 195.273 476.501 193.607 474.154C192.967 473.253 191.719 473.041 190.818 473.681C190.779 473.708 190.741 473.737 190.705 473.767Z" fill="#7D894F"/>
<path fill-rule="evenodd" clip-rule="evenodd" d="M246.678 501.402C245.559 504.388 245 506.623 245 508.106C245 509.909 245.3 512.54 245.901 516C247.993 516 266.794 516 302.303 516C303.769 511.154 302.923 508.539 299.765 508.152C296.607 507.766 293.984 507.417 291.895 507.106L265.68 495.419C265.176 495.194 264.584 495.421 264.359 495.925C264.356 495.934 264.352 495.942 264.348 495.951L262.663 500.039C259.74 501.403 257.364 502.085 255.537 502.085C254.052 502.085 252.001 501.485 249.384 500.285C248.38 499.825 247.193 500.266 246.733 501.27C246.713 501.313 246.695 501.357 246.678 501.402Z" fill="#7D894F"/>
<path fill-rule="evenodd" clip-rule="evenodd" d="M284.77 386.433C284.77 413 272.154 474.97 272.146 480.82L245 480.841C248.973 425.545 250.382 397.6 249.227 397.004C247.493 396.111 178.176 403.925 157.386 403.925C127.408 403.925 115.006 385.02 114 350H173.386C185.478 351.294 248.549 364.015 271.972 368.388C282 370.261 284.77 379.115 284.77 386.433Z" fill="#C8EB3B"/>
<path fill-rule="evenodd" clip-rule="evenodd" d="M182.638 287.7L217.348 268.69C223.12 261.836 228.807 256.512 234.409 252.72C236.121 252.005 239.114 251.573 236.315 256.542C233.515 261.51 230.794 266.863 232.22 268.394C233.647 269.924 237.203 267.786 238.905 270.329C240.039 272.025 233.963 274.704 220.677 278.365L195.456 301.458L182.638 287.7ZM237 303.74L252.247 295.364C254.386 287.224 256.943 283.128 259.918 283.077C262.204 282.014 258.224 292.3 262.556 291.408C266.889 290.516 277.464 282.651 279.286 284.248C281.982 286.61 279.579 293.864 276.746 297.473C271.453 304.218 267.071 306.524 256.238 309.544C250.575 311.123 244.451 314.289 237.868 319.04L237 303.74Z" fill="#997659"/>
<path fill-rule="evenodd" clip-rule="evenodd" d="M165.734 283.465C177.892 283.337 194.104 280.769 211.402 269.789L218.196 284.939C206.264 296.78 189.486 306.51 174.816 306.098C163.255 305.773 157.347 291.789 165.734 283.465Z" fill="#D54141"/>
<path fill-rule="evenodd" clip-rule="evenodd" d="M182.104 307.761C195.011 310.98 216.655 307.184 247.036 296.373C254.572 311.964 258.055 323.078 257.487 329.717C231.424 343.331 209.087 349.401 190.683 349.802C191.268 360.721 189.939 371.112 185.474 380.606C176.295 400.124 122.545 382.048 104.473 385.606C93.1554 348.851 115.038 333.914 115.056 310.397C115.075 284.642 135.754 245 138.797 245H166.544C168.075 264.669 175.78 286.346 182.104 307.761Z" fill="#DE7159"/>
<path fill-rule="evenodd" clip-rule="evenodd" d="M599.738 222.49C604.346 217.082 607.464 210.453 606.943 203.026C605.442 181.625 575.651 186.333 569.857 197.134C564.062 207.935 564.75 235.333 572.24 237.264C575.226 238.034 581.589 236.148 588.065 232.245L584 261H608L599.738 222.49Z" fill="#B28B67"/>
<path fill-rule="evenodd" clip-rule="evenodd" d="M559.224 182.161C559.721 180.414 561.058 178.918 562.86 178.474C563.296 178.367 563.748 178.323 564.197 178.341C564.358 178.348 564.404 178.394 564.479 178.282C564.535 178.198 564.536 177.994 564.559 177.895C564.631 177.59 564.72 177.288 564.831 176.994C565.208 175.992 565.841 175.105 566.605 174.358C568.033 172.96 569.963 171.995 571.968 171.82C573.066 171.725 574.155 171.903 575.193 172.26C575.73 172.445 576.251 172.675 576.758 172.929C576.911 173.006 577.406 173.381 577.559 173.357C577.729 173.33 578.069 172.909 578.207 172.804C579.908 171.498 582.009 170.985 584.128 171C586.52 171.018 588.823 171.138 590.818 172.596C591.241 172.905 591.643 173.243 592.026 173.599C592.228 173.786 592.423 173.98 592.609 174.183C592.722 174.305 592.831 174.43 592.936 174.558C593.115 174.776 593.086 174.847 593.337 174.696C594.297 174.112 595.409 173.839 596.53 173.977C597.195 174.059 597.843 174.259 598.458 174.522C598.667 174.611 599.151 174.968 599.374 174.972C599.596 174.975 600.073 174.644 600.301 174.56C601.533 174.106 602.86 173.993 604.154 174.204C605.489 174.42 606.8 174.953 607.931 175.689C608.475 176.043 608.95 176.435 609.331 176.962C609.496 177.189 609.644 177.429 609.831 177.64C609.94 177.763 610.156 177.89 610.215 178.046C610.18 177.953 611.675 177.376 611.816 177.339C612.568 177.143 613.333 177.183 614.069 177.425C615.453 177.881 616.643 178.902 617.621 179.949C618.123 180.487 618.563 181.081 618.936 181.715C619.115 182.018 619.279 182.33 619.428 182.649C619.501 182.803 619.549 182.997 619.644 183.136C619.768 183.315 619.85 183.318 620.073 183.396C621.206 183.793 622.238 184.465 623.025 185.372C623.82 186.291 624.336 187.421 624.552 188.612C624.565 188.682 624.573 188.973 624.614 189.011C624.67 189.063 624.898 189.04 624.984 189.05C625.282 189.085 625.579 189.137 625.871 189.206C626.41 189.334 626.934 189.521 627.43 189.767C629.364 190.724 630.747 192.518 631.424 194.536C632.135 196.655 632.122 199.082 631.273 201.161C631.136 201.497 630.973 201.823 630.781 202.131C630.664 202.32 630.626 202.321 630.702 202.519C630.787 202.74 630.943 202.955 631.044 203.171C631.374 203.875 631.604 204.622 631.75 205.385C631.989 206.637 632.108 207.953 631.872 209.214C631.762 209.8 631.572 210.372 631.281 210.894C631.132 211.16 630.958 211.412 630.762 211.645C630.661 211.766 630.553 211.882 630.439 211.993C630.375 212.056 630.29 212.112 630.235 212.182C630.101 212.355 630.073 212.213 630.142 212.466C630.239 212.82 630.458 213.17 630.592 213.514C630.731 213.869 630.856 214.229 630.97 214.593C631.202 215.329 631.398 216.078 631.521 216.84C631.756 218.303 631.715 219.862 631.023 221.205C630.727 221.78 630.302 222.283 629.787 222.675C629.535 222.867 629.262 223.033 628.976 223.168C628.829 223.238 628.641 223.268 628.574 223.41C628.501 223.563 628.609 223.867 628.633 224.038C628.846 225.527 628.953 227.089 628.51 228.548C628.103 229.891 627.206 231.077 626.041 231.862C623.781 233.386 620.735 233.3 618.361 232.08C617.742 231.762 617.163 231.368 616.647 230.902C615.331 232.673 612.625 232.617 610.703 232.112C608.308 231.484 606.386 229.818 605.279 227.63C603.765 229.473 600.588 228.875 599.538 226.876C599.281 226.387 599.129 225.847 599.054 225.302C599.014 225.015 599.039 224.725 599.01 224.441C598.972 224.078 598.73 223.725 598.59 223.374C598.319 222.691 598.151 221.986 598.143 221.249C598.14 220.864 598.188 220.49 598.225 220.108C598.258 219.765 598.163 219.445 598.108 219.106C598.723 219.207 599.471 219.041 600.05 218.863C600.617 218.688 601.149 218.228 601.55 217.808C602.481 216.831 603.049 215.552 603.438 214.278C604.292 211.483 603.942 208.129 601.13 206.595C599.82 205.881 595.897 205.883 594.337 206.236C592.696 206.607 590.837 210.227 590.745 210.567C590.689 210.777 590.717 211.038 590.524 211.178C590.099 211.487 589.398 210.951 589.084 210.687C588.543 210.231 588.157 209.625 587.823 209.01C587.095 207.67 586.508 206.233 586.093 204.767C585.773 203.636 585.569 202.47 585.151 201.368C584.735 200.272 584.08 199.291 583.06 198.67C581.952 197.995 580.681 197.639 579.464 197.214C578.257 196.793 577.071 196.279 576.136 195.386C575.93 195.19 575.731 194.981 575.565 194.75C575.435 194.567 575.305 194.218 575.106 194.102C574.797 193.922 574.345 194.39 574.077 194.56C572.757 195.399 571.655 196.569 570.767 197.846C569.883 199.117 569.158 200.34 568.569 201.759C568.132 202.811 567.859 204.159 567.091 205.021C566.748 205.407 564.197 205.64 563.371 205.303C562.545 204.967 561.619 204.094 561.342 203.547C561.058 202.987 560.99 202.372 561.111 201.759C561.183 201.398 561.328 201.061 561.408 200.707C561.475 200.409 561.536 200.128 561.681 199.856C561.955 199.339 562.424 198.968 562.99 198.812C562.401 198.27 561.914 197.621 561.576 196.895C561.226 196.141 560.928 195.224 560.844 194.397C560.776 193.725 560.881 193.028 561.249 192.451C561.635 191.845 562.319 191.45 562.911 191.072C562.007 190.365 561.233 189.505 560.598 188.553C559.361 186.701 558.596 184.368 559.224 182.161Z" fill="#02005C"/>
<path fill-rule="evenodd" clip-rule="evenodd" d="M675 386H560C551.163 386 544 393.51 544 402.775V499.226C544 508.49 551.163 516 560 516H675C683.837 516 691 508.49 691 499.226V402.775C691 393.51 683.837 386 675 386ZM659 415.355C661.209 415.355 663 417.233 663 419.549V482.452C663 484.768 661.209 486.646 659 486.646H576C573.791 486.646 572 484.768 572 482.452V419.549C572 417.233 573.791 415.355 576 415.355H659Z" fill="#4F4C4D"/>
<path fill-rule="evenodd" clip-rule="evenodd" d="M472.491 506.66C485.303 478.302 494.57 453.609 498.289 440.58C504.657 418.273 509.502 398.644 510.727 391.313C513.647 373.833 488.265 372.815 484.91 381.502C479.832 394.651 470.967 437.853 460.315 503.108L472.491 506.66ZM621.112 417.664C609.356 413.017 568.188 398.475 548.333 394.362C542.627 393.18 537.097 392.081 531.898 391.089C516.444 388.138 508.437 416.018 523.321 418.16C560.388 423.495 612.937 429.004 617.434 429.622C623.737 430.488 628.5 420.584 621.112 417.664Z" fill="#B28B67"/>
<path fill-rule="evenodd" clip-rule="evenodd" d="M522.413 383.417L586 351.047V344H578.438C516.92 359.676 485.485 369.722 484.131 374.138C484.117 374.186 484.103 374.233 484.091 374.281C484.06 374.322 484.03 374.362 484 374.404C471.808 391.17 464.507 473.027 462.111 479.157L485.472 482.642C494.409 449.504 523 426.418 522.241 386.729C522.446 385.565 522.497 384.461 522.413 383.417Z" fill="#305DFF"/>
<path fill-rule="evenodd" clip-rule="evenodd" d="M580.717 402.641C586.535 401.476 591.893 400.437 596.477 399.633C626.091 394.438 634.726 378.587 629.62 344H575.058C566.145 346.561 519.826 365.985 495.793 376.317C479.887 383.155 484.901 407.805 493.909 414.22C493.958 414.613 494.12 414.881 494.409 415C542.863 435.083 581.195 424.546 594 427.913L599.923 409.229L580.717 402.641Z" fill="#101C74"/>
<path fill-rule="evenodd" clip-rule="evenodd" d="M617.092 414.694C620.267 414.998 622.521 415.475 623.853 416.125C625.474 416.915 627.707 418.339 630.554 420.395C629.636 422.275 621.395 439.173 605.829 471.089C600.831 470.282 598.851 468.375 599.888 465.367C600.925 462.36 601.761 459.849 602.397 457.835L603.385 429.15C603.404 428.598 603.867 428.166 604.419 428.185C604.428 428.185 604.438 428.186 604.447 428.186L608.86 428.464C611.367 426.434 613.021 424.598 613.823 422.955C614.474 421.621 614.833 419.515 614.902 416.637C614.929 415.533 615.846 414.659 616.95 414.686C616.997 414.687 617.045 414.69 617.092 414.694Z" fill="#05027D"/>
<path fill-rule="evenodd" clip-rule="evenodd" d="M478.322 501.402C479.441 504.389 480 506.623 480 508.106C480 509.909 479.7 512.541 479.099 516C477.007 516 458.206 516 422.697 516C421.231 511.155 422.077 508.539 425.235 508.153C428.393 507.766 431.016 507.417 433.105 507.106L459.32 495.419C459.824 495.194 460.416 495.421 460.641 495.925C460.644 495.934 460.648 495.943 460.652 495.951L462.337 500.039C465.26 501.403 467.636 502.085 469.463 502.085C470.948 502.085 472.999 501.485 475.616 500.286C476.62 499.825 477.807 500.266 478.267 501.27C478.287 501.314 478.305 501.358 478.322 501.402Z" fill="#05027D"/>
<path fill-rule="evenodd" clip-rule="evenodd" d="M527.956 328.123L499.628 355.758C491.385 359.274 484.632 363.156 479.367 367.404C478.183 368.832 476.894 371.569 482.465 370.344C488.035 369.12 493.949 368.082 494.996 369.894C496.043 371.705 492.958 374.481 494.893 376.852C496.183 378.433 500.521 373.405 507.907 361.77L537.364 344.403L527.956 328.123ZM653.692 332.02L632.795 332.102C645.698 373.756 652.664 395.857 653.692 398.406C656.006 404.14 651.109 412.874 649.015 417.567C655.835 420.619 655.109 409.317 663.712 413.32C671.565 416.973 677.538 423.593 686.611 417.995C687.726 417.306 688.949 414.715 685.995 412.69C678.638 407.645 668.035 398.815 666.602 395.909C664.648 391.945 660.345 370.649 653.692 332.02Z" fill="#B28B67"/>
<path fill-rule="evenodd" clip-rule="evenodd" d="M594.305 244.332L585.658 242.849C570.77 280.039 544.778 313.832 507.681 344.225L535.713 378.282C572.806 335.005 595.67 290.355 594.305 244.332Z" fill="#D76CCC"/>
<path fill-rule="evenodd" clip-rule="evenodd" d="M632 353H555C572.839 309.626 581.759 272.779 581.759 242.461L604.986 239C623.24 268.359 628.395 304.505 632 353Z" fill="#DDE3E9"/>
<path fill-rule="evenodd" clip-rule="evenodd" d="M605.478 239.017C605.475 239.011 605.471 239.006 605.468 239H603.952C602.138 239.063 599.375 239.175 595.662 239.338L590.05 255.377C589.456 274.933 585.989 314.342 579.649 373.606H630.124C629.992 377.699 629.773 381.831 629.469 386H667C661.386 322.664 640.885 273.664 605.496 239L605.478 239.017Z" fill="#D76CCC"/>
<path fill-rule="evenodd" clip-rule="evenodd" d="M626.79 321.233C625.353 346.748 621.757 364.337 616 374H630.111C630.729 355.643 629.622 338.054 626.79 321.233Z" fill="black" fill-opacity="0.1"/>
<path fill-rule="evenodd" clip-rule="evenodd" d="M618.889 343L594 331.43V343H618.889Z" fill="white" fill-opacity="0.2"/>
</svg>
