<svg width="702" height="421" viewBox="0 0 702 421" fill="none" xmlns="http://www.w3.org/2000/svg">
<path fill-rule="evenodd" clip-rule="evenodd" d="M701.846 125.727C709.107 24.2397 457.764 -33.0554 244.542 20.4146C31.3197 73.8846 -61.7901 257.164 43.4974 349.454C148.785 441.745 694.661 227.296 701.846 125.727Z" fill="#F4F3EA"/>
<path fill-rule="evenodd" clip-rule="evenodd" d="M479.7 139.2C474.8 148.9 475.3 173.4 481.7 175.1C484.3 175.8 489.6 174.1 495.1 170.6L491.7 196.4H512L505 161.9C508.9 157.1 511.5 151.2 511.1 144.5C509.8 125.3 484.7 129.5 479.7 139.2Z" fill="#573136"/>
<path fill-rule="evenodd" clip-rule="evenodd" d="M491.3 128.1C493.9 127.7 501.2 127.3 502.5 127.3C503.4 127.3 504.3 127.5 504.8 126.7C505.2 126 505.1 124.9 505.1 124.1C505.3 123.2 505.4 122.3 505.6 121.4C506.2 118.8 507.1 116.4 508.3 114.2C510.6 109.9 514 106.6 518.3 104.6C523 102.5 528.4 101.9 533.4 102.4C538.9 102.8 543.7 104.7 548.9 106.5C553.8 108.2 558.9 108.9 564 108C569.1 107.2 573.1 104.2 577.4 101.4C581.8 98.5 587 96.7 592.2 97.1C597.2 97.5 601.7 99.7 605.7 102.6C609.5 105.3 612.6 108.5 614.4 113.1C616.3 118 616.3 123.4 613.2 127.7C608.7 134 600.2 135.6 593.2 135.4C589.2 135.3 585.2 134.5 581.3 133.1C576.2 131.2 571.8 128 567 125.3C564.8 124 562.5 123.1 560 122.3C557.6 121.6 555.3 121.3 553.2 122.7C551 124.3 548.9 125.8 546.4 126.9C543.9 127.9 541.3 128.4 538.6 128.3C533.5 128.3 528.4 126.6 523.4 125.4C519.3 124.5 514.9 123.5 510.8 124.4C509.1 124.8 506.5 125.6 505.9 127.4C516.4 129.5 520.6 143.2 517.6 153.3C516 158.8 506.4 165.1 502.7 162.2C500.3 160.4 501.8 158 502.7 156.4C504.5 153.4 505.1 149.5 501.8 147.4C499 145.6 496 149.9 495.9 149.9C495.1 149.8 488.4 145.8 483.7 139.9C479.1 140.2 478.4 136.9 479.5 134.4C480.7 132 487.7 128.7 491.3 128.1Z" fill="#9C5961"/>
<path fill-rule="evenodd" clip-rule="evenodd" d="M372.9 258.9H291.8L281.2 420H401.9L372.9 258.9Z" fill="#C5CFD7"/>
<path fill-rule="evenodd" clip-rule="evenodd" d="M548.6 308.2H483.4L474.8 419.2H572L548.6 308.2Z" fill="#C5CFD7"/>
<path fill-rule="evenodd" clip-rule="evenodd" d="M548.6 308.2H528.6L516.5 419.2H572L548.6 308.2Z" fill="black" fill-opacity="0.1"/>
<path fill-rule="evenodd" clip-rule="evenodd" d="M408.9 289.1L408.6 288.9C401.6 284.8 390.2 290.4 390.2 296.6C390.2 315.6 406.5 404.8 407.4 410.4C408.3 416 417.4 417.6 417.9 410.4C418.8 399 420.3 359.9 418.8 341.8C418.1 334.3 417.4 327.2 416.8 320.9C425.3 337.3 438.6 360.7 456.5 391.2L466.2 386.5C458.6 359.8 452.3 341 447.4 330C439 311.2 431.2 295.1 427.8 289.4C422.8 280.6 413.7 283.8 408.9 289.1Z" fill="#573136"/>
<path fill-rule="evenodd" clip-rule="evenodd" d="M465.6 371.8L432.2 288C424.2 274.4 401.8 290.8 404.5 298.6C410.7 316.6 442.2 374.7 444 380L465.6 371.8Z" fill="#C8D1D8"/>
<path fill-rule="evenodd" clip-rule="evenodd" d="M467.4 381.3C469.4 383.1 470.8 384.6 471.5 385.8C472.3 387.2 473.1 389.4 474.1 392.3C472.6 393.2 458.8 401.6 432.9 417.5C429.7 414.4 429.3 412 431.4 410.3C433.5 408.6 435.3 407.2 436.7 406L451 385.2C451.3 384.8 451.8 384.8 452.2 385L455.2 387.4C457.9 387.1 460 386.6 461.3 385.8C462.4 385.2 463.6 383.7 465.1 381.7C465.5 381 466.7 380.8 467.4 381.3Z" fill="#E5E4DC"/>
<path fill-rule="evenodd" clip-rule="evenodd" d="M420.2 407.1C421.1 409.8 421.7 411.8 421.7 413.1C421.7 414.7 421.4 417 420.9 420.2C419.1 420.2 403.2 420.2 373.2 420.2C372 415.9 372.7 413.5 375.3 413.2C377.9 412.9 380.2 412.6 382 412.3L404.1 401.8C404.5 401.6 405 401.8 405.2 402.2L406.7 405.9C409.2 407.2 411.1 407.7 412.7 407.7C414 407.7 415.7 407.2 417.9 406.1C418.7 405.7 419.8 406.1 420.2 407.1C420.1 407 420.1 407 420.2 407.1Z" fill="#E5E4DC"/>
<path fill-rule="evenodd" clip-rule="evenodd" d="M388 303.2C388 327 398.7 382.4 398.7 387.7H421.7C418.4 338.2 417.2 313.3 418.1 312.7C419.6 311.9 478.1 318.9 495.7 318.9C521.1 318.9 531.5 302 532.3 270.7H482.2C472 271.9 418.7 283.2 398.9 287.2C390.3 288.7 388 296.7 388 303.2Z" fill="#F3F2E9"/>
<path fill-rule="evenodd" clip-rule="evenodd" d="M550.9 243.2L532.4 243.3C552.7 291.6 563.2 316.9 564.2 319.3C566.2 324.4 562 332.3 560.3 336.5C566 339.3 565.4 329.1 572.7 332.7C579.4 336 584.4 341.9 592.1 336.9C593 336.3 594.1 333.9 591.6 332.2C585.4 327.7 576.4 319.8 575.2 317.2C573.3 313.5 565.3 288.9 550.9 243.2ZM394 226.2C397.8 229.5 401.5 233.2 400.8 234.9C400.1 236.6 396.7 236 396.1 238.7C395.8 240.5 401.4 240.8 413 239.6L440.1 251L446.1 235.2L412.7 230.4C406 226.5 399.9 223.8 394.3 222.4C392.7 222.2 390.2 222.8 394 226.2Z" fill="#1E2A35"/>
<path fill-rule="evenodd" clip-rule="evenodd" d="M500.2 181.1L485.7 182.1C482.1 216.3 462.7 237.8 419.2 230.6L413.4 274.6C454.1 280.1 489.8 263 497 216.3C498.9 204.2 500.5 191.6 500.2 181.1Z" fill="#8C969D"/>
<path fill-rule="evenodd" clip-rule="evenodd" d="M507.4 176.7L485.5 182.1C485.5 221.7 473.7 247.1 467.5 276.1L467.3 277H526.6C527.5 287.2 528 297.6 528.2 308.3H572.6C562.5 251.7 541.3 207.8 508.9 176.8L507.4 176.7Z" fill="#AFBAC4"/>
<path fill-rule="evenodd" clip-rule="evenodd" d="M517.1 219.8C518.6 244.7 517.7 263.7 514.4 276.8H526.4C524.8 257.1 522 238.5 517.3 221L517.1 219.8Z" fill="black" fill-opacity="0.1"/>
<path fill-rule="evenodd" clip-rule="evenodd" d="M192.6 133.8C197.6 143.5 197 168 190.6 169.7C188 170.4 182.7 168.7 177.1 165.2L180.6 191H160.1L167.2 156.5C163.3 151.7 160.6 145.8 161.1 139.1C162.2 119.9 187.6 124.1 192.6 133.8Z" fill="#ADACA6"/>
<path fill-rule="evenodd" clip-rule="evenodd" d="M201.7 120.4C201.3 118.9 200.2 117.5 198.6 117.1C198.3 117 197.8 116.9 197.5 117C197.3 117 197.3 117.1 197.2 116.9C197.1 116.8 197.1 116.6 197.1 116.5C197 116.2 196.9 116 196.8 115.7C196.5 114.8 195.9 114 195.3 113.4C194.1 112.1 192.4 111.3 190.7 111.2C189.8 111.1 188.8 111.3 188 111.6C187.6 111.8 187.1 112 186.6 112.2C186.4 112.3 186.1 112.6 185.9 112.6C185.7 112.6 185.5 112.2 185.4 112.1C183.9 110.9 182.2 110.5 180.4 110.5C178.4 110.5 176.4 110.6 174.7 111.9C174.4 112.2 174 112.4 173.7 112.8C173.5 113 173.4 113.2 173.2 113.3C173.1 113.4 173 113.5 172.9 113.7C172.7 113.9 172.7 114 172.6 113.8C171.7 113.3 170.8 113 169.9 113.2C169.3 113.3 168.8 113.5 168.3 113.6C168.1 113.7 167.7 114 167.5 114C167.3 114 166.9 113.7 166.7 113.6C165.7 113.2 164.5 113.1 163.4 113.2C162.3 113.4 161.2 113.8 160.2 114.5C159.8 114.9 159.3 115.1 159 115.7C158.8 115.9 158.7 116.1 158.6 116.3C158.5 116.4 158.3 116.6 158.3 116.7C158.3 116.6 157 116.1 156.9 116.1C156.2 115.9 155.6 115.9 154.9 116.2C153.7 116.6 152.7 117.5 151.8 118.4C151.4 118.8 151 119.4 150.7 120C150.5 120.3 150.4 120.5 150.3 120.8C150.2 121 150.2 121.1 150.1 121.2C150 121.4 149.9 121.4 149.8 121.5C148.9 121.9 147.9 122.5 147.2 123.3C146.5 124.1 146.1 125.1 145.9 126.2C145.9 126.3 145.9 126.6 145.8 126.6C145.7 126.7 145.5 126.6 145.5 126.6C145.2 126.6 145 126.7 144.7 126.8C144.3 126.9 143.8 127.1 143.3 127.3C141.7 128.2 140.5 129.8 139.9 131.6C139.3 133.5 139.3 135.6 140.1 137.5C140.2 137.8 140.4 138.1 140.5 138.4C140.6 138.6 140.7 138.6 140.6 138.8C140.5 139 140.4 139.2 140.3 139.4C140 140 139.8 140.7 139.7 141.4C139.5 142.6 139.4 143.7 139.6 144.8C139.7 145.3 139.9 145.9 140.1 146.3C140.2 146.6 140.4 146.7 140.5 147C140.6 147.1 140.7 147.2 140.8 147.3C140.9 147.4 140.9 147.4 141 147.5C141.1 147.7 141.2 147.5 141.1 147.8C141 148.2 140.8 148.4 140.7 148.7C140.6 149.1 140.4 149.3 140.4 149.7C140.2 150.3 140.1 151 139.9 151.7C139.7 153 139.7 154.4 140.3 155.6C140.6 156.1 140.9 156.6 141.3 156.9C141.6 157.1 141.7 157.3 142 157.3C142.1 157.4 142.3 157.4 142.3 157.5C142.4 157.7 142.3 157.9 142.2 158C142 159.3 141.9 160.8 142.3 162C142.6 163.2 143.4 164.2 144.4 165C146.4 166.3 148.9 166.3 151 165.2C151.5 164.9 152 164.6 152.5 164.1C153.6 165.7 155.9 165.6 157.5 165.2C159.5 164.7 161.2 163.1 162.1 161.2C163.4 162.8 166.1 162.3 167 160.5C167.3 160.1 167.3 159.6 167.4 159.1C167.4 158.8 167.4 158.6 167.4 158.3C167.4 157.9 167.7 157.7 167.7 157.3C168 156.7 168 156 168 155.4C168 155 168 154.7 167.9 154.4C167.9 154.1 168 153.8 168 153.5C167.5 153.6 166.8 153.4 166.4 153.3C165.9 153.1 165.5 152.8 165.1 152.3C164.3 151.4 163.8 150.2 163.5 149.2C162.7 146.7 163.1 143.7 165.5 142.3C166.6 141.7 169.9 141.7 171.3 141.9C172.7 142.3 174.3 145.5 174.4 145.7C174.5 145.9 174.4 146.1 174.6 146.2C174.9 146.5 175.5 146 175.8 145.8C176.2 145.4 176.6 144.8 176.9 144.3C177.5 143.1 178 141.8 178.4 140.5C178.7 139.5 178.8 138.4 179.2 137.5C179.5 136.5 180.1 135.6 181 135.1C181.9 134.5 183 134.2 184.1 133.8C185.1 133.4 186.1 133 186.9 132.2C187.1 132 187.2 131.8 187.4 131.7C187.5 131.5 187.7 131.3 187.8 131.2C188.1 131 188.5 131.5 188.7 131.6C189.8 132.3 190.7 133.4 191.5 134.6C192.3 135.8 192.9 136.8 193.4 138.1C193.7 139.1 194 140.2 194.7 141.1C195 141.5 197.2 141.6 197.9 141.4C198.6 141.2 199.4 140.3 199.6 139.8C199.9 139.3 199.9 138.7 199.8 138.2C199.7 137.8 199.6 137.6 199.5 137.2C199.4 136.9 199.4 136.7 199.2 136.4C198.9 136 198.6 135.6 198.1 135.5C198.6 135.1 199 134.4 199.3 133.8C199.6 133.1 199.8 132.3 199.9 131.6C200 131 199.9 130.3 199.6 129.9C199.3 129.4 198.7 129 198.1 128.6C198.9 128 199.6 127.2 200.1 126.4C201.6 124.5 202.2 122.4 201.7 120.4Z" fill="#E4E3DB"/>
<path fill-rule="evenodd" clip-rule="evenodd" d="M201 302.8C208.5 302.8 214.7 309.5 214.7 317.8V404.2C214.7 412.5 208.6 419.2 201 419.2H102.8C95.3 419.2 89.1 412.5 89.1 404.2V317.8C89.1 309.5 95.2 302.8 102.8 302.8H201ZM187.3 329.1H116.4C114.5 329.1 113 330.8 113 332.9V389.2C113 391.3 114.5 393 116.4 393H187.3C189.2 393 190.7 391.3 190.7 389.2V332.9C190.7 330.8 189.2 329.1 187.3 329.1Z" fill="#C5CFD7"/>
<path fill-rule="evenodd" clip-rule="evenodd" d="M198 389.2C198 389.2 208.7 362.4 212.3 363.7C215.5 365 230.3 373.5 229.7 375.2C229.1 377 225.2 382.3 225.2 382.3C225.2 382.3 233.9 389.9 238.5 396.3C241 399.7 244.1 407.5 241.6 409C239 410.3 194.8 394.9 198 389.2Z" fill="#9C5961"/>
<path fill-rule="evenodd" clip-rule="evenodd" d="M252.2 411.7C252 403.2 252.1 388.6 254.8 388.3C258.1 387.9 275.1 389 275.3 390.7C275.5 392.6 277.5 400.9 277.5 400.9C277.5 400.9 289.3 402.1 296.1 405.7C299.7 407.7 301.5 413.3 299.8 415.7C298.1 418.1 251.9 424.2 252.3 417.6C252.5 417.7 252.3 415.2 252.2 411.7Z" fill="#9C5961"/>
<path fill-rule="evenodd" clip-rule="evenodd" d="M202.8 372.2C207.8 383.1 220.1 384.1 228 384.1C231 384.1 243.4 357.3 245.4 353.8C256.6 334.6 270.4 310.6 270.4 310.6C270.4 310.6 247.2 294.8 230.9 300.6C230.9 300.5 197.8 361.3 202.8 372.2Z" fill="#C8D1D8"/>
<path fill-rule="evenodd" clip-rule="evenodd" d="M139.6 265.302C139.6 265.302 139 301.602 157.1 308.602C175.2 315.602 220.9 321.102 248.1 313.802C242.5 333.402 246.1 396.802 251.5 407.302C253.2 410.602 273 404.602 279.7 401.202C286.4 397.702 298.3 292.902 285.3 284.102C272.4 275.202 190.2 265.402 190.2 265.402L139.6 265.302Z" fill="#F3F2E9"/>
<path fill-rule="evenodd" clip-rule="evenodd" d="M108.5 240.6L123.6 242.9C107.4 279.8 98.7 299.4 97.5 301.4C94.9 306.2 97.9 314.6 99.2 318.9C93.1 320.8 95 310.8 87.2 313.3C80.1 315.5 74.3 320.6 67.3 314.6C66.4 313.9 65.7 311.4 68.4 309.9C75.2 306.3 85.2 299.9 86.8 297.5C89 294.4 96.2 275.4 108.5 240.6ZM225.2 250.6L251 273.5C258.3 276.1 264.2 279.1 268.9 282.6C270 283.8 271.3 286.2 266.4 285.4C261.6 284.7 256.5 284.1 255.7 285.8C254.9 287.5 257.7 289.7 256.2 292C255.2 293.5 251.2 289.3 244.2 279.4L218 265.8L225.2 250.6Z" fill="#ADACA6"/>
<path fill-rule="evenodd" clip-rule="evenodd" d="M171.7 176L181.1 172.8C193.8 206.1 212.8 238.3 244.5 265.5L236.6 279.6C208.8 262.4 182.4 249.1 171.7 223.3C168.1 214.7 171.4 186.4 171.7 176Z" fill="#171F27"/>
<path fill-rule="evenodd" clip-rule="evenodd" d="M139.5 269.7C166.3 272.7 187.5 272.7 202.9 269.7C204.8 269.3 205.1 265.9 204.3 263.7C190.5 228.3 181.1 197.4 181.1 172.8C178.5 174.1 174.1 174.3 167.8 173.4C150.7 198.8 142.8 227.9 139.5 269.7Z" fill="#172028"/>
<path fill-rule="evenodd" clip-rule="evenodd" d="M163.5 170.8V171.2H170.6C172.2 181.3 177.3 316.3 193.1 362.8L193.6 364.1H106.6C108.5 322.8 123.3 273.3 138.5 231.8C125.2 244.6 113.6 266.3 103.7 296.7L87.4 292.3C99.5 237.6 124.4 197.4 162.1 171.8L162.4 171.2H163L163.5 170.8Z" fill="#354858"/>
</svg>
