<svg width="664" height="418" viewBox="0 0 664 418" fill="none" xmlns="http://www.w3.org/2000/svg">
<path fill-rule="evenodd" clip-rule="evenodd" d="M1.21529 367.3C-18.4927 293.124 205.133 172.874 407.925 147.667C610.716 122.459 719.875 231.863 635.009 333.621C550.144 435.38 21.0038 441.475 1.21529 367.3Z" fill="#F4F3EA"/>
<g opacity="0.5">
<path opacity="0.5" fill-rule="evenodd" clip-rule="evenodd" d="M273.1 7.29999C268.2 7.29999 263.2 7.19999 258.3 7.59999C257.5 7.69999 254.3 7.49999 253.9 8.49999C253.1 10.4 256.3 9.49999 256.8 9.39999C266.5 8.19999 276.8 8.89999 286.6 9.19999C294.6 9.49999 302.6 9.59999 310.6 10.1C312.7 10.2 314.8 10.4 317 10.5C317.7 10.6 319.4 11.1 319.6 9.69999C319.8 8.39999 317.5 8.79999 317 8.69999C312.7 8.39999 308.5 8.09999 304.2 7.79999C293.8 7.29999 283.4 7.29999 273.1 7.29999Z" fill="#B1BDC6"/>
<path opacity="0.5" fill-rule="evenodd" clip-rule="evenodd" d="M253.7 9.39999C252.8 10.5 253.2 14.7 253.2 16.2C253.1 18.6 253 21.1 253 23.6C252.9 26.2 253 28.8 253.2 31.3C253.3 32.3 254 37.6 255.2 34.6C255.7 33.3 255.2 29.5 255.2 28.1C255.2 25.4 255.4 22.6 255.5 19.9C255.6 17.5 255.6 15.2 255.7 12.9C255.5 12 255.6 7.09999 253.7 9.39999Z" fill="#B1BDC6"/>
<path opacity="0.5" fill-rule="evenodd" clip-rule="evenodd" d="M320.3 31.3C315.5 31.9 310.7 31.6 305.8 32.1C301.7 32.4 297.5 32.7 293.4 32.7C284 33 274.6 33.2 265.2 34.2C263 34.4 260.9 34.6 258.8 34.8C257.8 34.9 253.2 34.2 252.9 35.6C252.3 38 257.1 37.1 258.2 37C260.5 36.9 262.8 36.7 265.1 36.5C274.7 35.6 284.3 35.3 293.9 35C299.2 34.8 304.2 34.3 309.5 34C312.1 33.8 314.8 33.8 317.2 33.6C317.9 33.5 320.3 33.7 320.8 33C321 32.4 321.1 31.2 320.3 31.3Z" fill="#B1BDC6"/>
<path opacity="0.5" fill-rule="evenodd" clip-rule="evenodd" d="M318.7 9.7C318.9 15.3 319.1 21 319.3 26.5C319.4 28.2 319 31.1 319.7 32.7C320.9 35.1 321.9 32.6 322.1 31.1C322.8 26.5 322 21.2 321.8 16.5C321.7 14.7 322.1 10.7 321.5 9.1C320.9 7.6 318.6 7.7 318.7 9.7Z" fill="#B1BDC6"/>
<path opacity="0.5" fill-rule="evenodd" clip-rule="evenodd" d="M310.7 17.7C312.5 18.3 312.8 23.2 310.8 23.5C307.6 24.1 309 18.8 310.7 17.7ZM310.2 15.8C309.6 15.8 308.4 15.6 308 16.1C307.7 16.5 308 17.6 307.9 18C307.8 19.5 306.7 20.5 307.2 22.4C307.5 23.7 308.4 24.8 309.4 25.3C315 27.6 314.9 14.6 310.2 15.8Z" fill="#B1BDC6"/>
<path opacity="0.5" fill-rule="evenodd" clip-rule="evenodd" d="M264.7 13.9C264.7 13.6 264.6 13.5 264.6 13.2C267.5 14.9 269.9 18.1 269 22.4C268.2 25.7 265.6 26.9 263 26C260.2 25.1 258.8 22.2 259.6 18.8C259.9 17.2 261.1 15 262.4 14.5C263.1 14.3 264.5 14.9 264.7 13.9ZM263 12.5C262.2 12.6 261.5 12.9 260.9 13.5C261.4 12.8 262.2 12.6 263 12.5ZM263 10.3C261.1 10.4 259.9 11.8 258.8 13.4C258.5 13.9 257.3 15.3 257.4 16C257.5 16.6 257.8 17.4 258.4 16.8C255 24.9 263.7 31.8 268.9 26.2C273.9 21 269 10.1 263 10.3Z" fill="#B1BDC6"/>
<path opacity="0.5" fill-rule="evenodd" clip-rule="evenodd" d="M261.4 17.9C261.4 18.9 262.8 18.9 262.8 17.9C262.7 16.8 261.4 16.8 261.4 17.9Z" fill="#B1BDC6"/>
<path opacity="0.5" fill-rule="evenodd" clip-rule="evenodd" d="M263.7 18.1C263.7 19.2 265.1 19.2 265.1 18.1C265.1 17 263.7 17 263.7 18.1Z" fill="#B1BDC6"/>
<path opacity="0.5" fill-rule="evenodd" clip-rule="evenodd" d="M264.7 21.9C264 22 261.7 21.7 261.3 22.4C260.6 23.6 261.7 23.6 262.2 23.7C262.7 23.8 264.9 23.8 265.1 23.2C265.4 22.8 265.3 21.9 264.7 21.9Z" fill="#B1BDC6"/>
<path opacity="0.5" fill-rule="evenodd" clip-rule="evenodd" d="M293.4 18.9C293.2 19 293.2 19 293.4 18.9V18.9ZM284.4 18.1C282.9 18.2 281.7 19.3 280.4 19.6C278.9 20 278.2 19.3 276.9 18.7C275.4 18.1 274.5 18.4 273.3 19.6C272.6 20.3 271.2 21.7 271.7 23C272.6 25.7 274.7 21.3 275.7 21.1C277.2 20.8 278.6 22.4 280.3 22C281.9 21.6 283.3 20.3 285 20.2C286.4 20.2 287.7 21.1 289 21.3C291.1 21.6 292.4 20.7 294.4 20C296.1 19.4 297.2 20.2 298.9 20.8C299.6 21.1 302.1 22.2 301.6 20.2C301.5 19.6 298.2 18.7 297.7 18.5C296 17.8 294.9 18.1 293.2 18.8C291.8 19.4 290.6 19.7 289.2 19.4C287.6 19.2 286.1 17.9 284.4 18.1Z" fill="#B1BDC6"/>
</g>
<g opacity="0.5">
<path opacity="0.5" fill-rule="evenodd" clip-rule="evenodd" d="M333.9 38.4C334.1 32.5 334.4 26.7 334.5 20.7C334.6 17.8 334.6 14.8 334.6 12C334.6 11.3 334.7 10.7 334.7 10C334.8 7.80001 334.6 7.60001 336.1 7.40001C343 6.50001 349.8 6.20001 356.7 5.40001C365 4.40001 373.3 3.80001 381.5 3.50001C385.1 3.40001 388.9 3.10001 392.6 3.30001C393.4 3.40001 395 3.00001 395.4 4.00001C395.5 4.40001 395.3 5.80001 395.2 6.30001C395.1 7.70001 395 9.10001 394.9 10.6C394.5 19.1 394.8 27.8 395.9 36.1C393.2 33.9 389.8 32.1 386.8 32.4C383.6 32.7 381.3 35.4 378.8 37.9C377.4 39.3 376.9 39.6 375.4 38.3C374.2 37.2 373 35.9 371.8 34.6C370 32.6 368.4 30.5 366.6 28.3C363.4 24.5 359 19 354.6 20.7C351.4 21.8 348.5 24.4 345.8 26.8C341.6 30.4 338 34.8 333.9 38.4ZM388.7 0.800012C373 0.800012 357.4 3.00001 341.8 4.10001C340.1 4.20001 338.6 4.40001 336.9 4.70001C335.8 4.90001 333.1 4.20001 332.4 5.60001C331.9 6.50001 332.3 6.60001 332.4 7.50001C332.5 8.60001 332.5 9.90001 332.4 11C332.3 13.7 332.3 16.5 332.3 19.2C332.2 29.5 332 39.9 332.4 50.2C332.5 52.5 333 55.6 332.7 57.8C332.4 59.4 331.7 60.3 333.5 60.6C335.2 60.9 337.3 60.1 339 59.9C340.7 59.7 342.4 59.4 344.2 59.2C351.7 58.3 359.2 58.5 366.8 58.1C374.4 57.8 381.9 57.8 389.5 57.8C392.7 57.8 396.3 58 399.4 56.8C400.5 56.3 400.6 56.1 400.4 54.5C400.3 54.2 400.1 54.1 399.9 53.5C399.8 52.8 399.8 51.9 399.8 51.1C399.7 48.7 399.7 46.1 399.6 43.7C399.5 39.6 399 35.6 398.6 31.5C398.2 26.8 398.2 22 398.2 17.2C398.2 14.5 398.3 11.9 398.4 9.30001C398.5 7.60001 399 5.10001 398.7 3.50001C398.6 2.80001 398.4 2.10001 397.7 1.70001C397.4 1.50001 397.1 1.60001 396.7 1.60001C396.3 1.50001 396 1.40001 395.5 1.30001C393.1 0.700012 390.9 0.800012 388.7 0.800012Z" fill="#818990"/>
<path opacity="0.5" fill-rule="evenodd" clip-rule="evenodd" d="M380 12C380 13.6 379.9 16.1 380.3 17.6C380.9 19.6 381.8 19 382 17.1C382.1 16 382.1 12.9 381.9 12C381.6 10.7 380 9.8 380 12Z" fill="#B1BDC6"/>
<path opacity="0.5" fill-rule="evenodd" clip-rule="evenodd" d="M381.9 12.7C380.9 12.8 377.7 12.4 377 13.7C375.8 15.8 378 16.1 378.9 16.1C379.9 16 383.2 16.3 384 15C385.2 12.9 382.7 12.6 381.9 12.7Z" fill="#B1BDC6"/>
<path opacity="0.5" fill-rule="evenodd" clip-rule="evenodd" d="M340.5 67.6C345.2 68.8 343.7 79.2 339.3 76.7C337.7 75.9 335.4 73.4 336.3 70.6C336.9 68.6 339 67.4 340.5 67.6ZM338.5 64.4C335.4 65.1 333.3 69.9 334.4 74.1C335.4 78.1 339.3 81.1 342.1 79.6C344.8 78.2 346.2 73 345.3 69.2C344.2 65.3 341.1 63.8 338.5 64.4Z" fill="#B1BDC6"/>
<path opacity="0.5" fill-rule="evenodd" clip-rule="evenodd" d="M367.1 68.9C365.9 69 365 70.2 363.7 70.4C362.6 70.6 361.7 70.1 360.6 69.7C359.4 69.1 358.3 69 357 69.4C356 69.7 355.1 70.7 354 70.8C352 71 349.7 67.7 348.2 71.5C347.4 73.3 348.5 74.4 349.6 73.5C350.8 72.6 350.2 72.3 351.7 72.8C352.9 73.2 353.8 73.5 355.1 72.9C356.2 72.3 357.2 71.4 358.3 71.3C359.5 71.2 360.4 72 361.5 72.3C362.9 72.7 364 72.4 365.4 71.7C366.6 71.1 367.1 70.8 368.4 71.3C369.2 71.6 370.9 72.7 371.6 71.9C372.9 70.4 371.1 70.2 370.4 70C369.4 69.6 368.2 68.7 367.1 68.9Z" fill="#B1BDC6"/>
<path opacity="0.5" fill-rule="evenodd" clip-rule="evenodd" d="M392.6 67.5C394.3 67.7 396.2 72.1 393.9 72.4C392.4 72.5 390.6 68.5 392.6 67.5ZM392.4 63.9C387 66.1 389.4 77.1 394.7 75.9C397 75.3 397.9 71.3 397 68.4C396.7 67.2 396 66.1 395.2 65.3C394.7 64.7 393.1 63.5 392.4 63.9Z" fill="#B1BDC6"/>
<path opacity="0.5" fill-rule="evenodd" clip-rule="evenodd" d="M334.1 91.5C336.9 89.2 335.8 97.4 335.7 98.7C335.6 102.9 335.8 107 336 111.2C336.3 115 335.9 118.9 335.9 122.8C335.8 124.8 335.8 126.9 335.7 128.9C335.6 129.6 335.7 132.5 335.5 133.9C336.1 133.8 336.7 133.9 336.9 133.9C339.1 133.8 341.4 133.7 343.6 133.6C352.1 133.1 360.7 133.4 369.2 132.8C377.2 132.2 385.3 132.1 393.4 132C394.1 132.1 394.4 133.2 394 134C393.5 134.8 391.5 134.7 390.8 134.7C388.5 134.9 386.3 135 384 135.1C379.2 135.2 374.4 135.4 369.6 135.8C361.1 136.5 352.6 136.5 344 136.9C341.9 137 339.9 137.1 337.8 137.2C336.7 137.3 333.8 138.2 333.3 136.3C333 134.9 333.4 134.3 334.3 134C334.2 133 334.2 131.4 334.2 131.1C334.1 129.4 334.1 127.7 334.1 126.1C334 122.1 334 118 333.7 114C333.5 110.2 332.9 106.4 332.9 102.5C333 99.9 332.5 93.2 334.1 91.5ZM393.5 90.6C393.5 88.9 394.9 88.6 395.6 89.7C396.2 90.8 395.8 94.3 395.9 95.6C396 100 396.2 104.4 396.5 108.9C396.8 113.3 397 117.6 397.2 122C397.3 124 398.4 132.1 396.8 133.3C394.8 134.8 395.1 127.2 395.1 125.7C395 121.2 394.7 116.8 394.4 112.3C393.8 104.9 393.5 97.9 393.5 90.6ZM381.5 86.3C384 86.2 386.7 86.4 389.2 86.5C390.4 86.6 391.5 86.7 392.6 86.7C393.2 86.8 394.7 86.4 395.4 86.9C397.7 88.6 393.1 88.9 392.4 88.8C390.1 88.7 387.7 88.5 385.3 88.4C376.6 88.1 367.9 88.9 359.2 89.4C355 89.6 350.9 89.7 346.7 90.1C344.4 90.3 342.2 90.5 339.8 90.7C338.8 90.8 337.7 90.9 336.6 90.9C336 90.9 334.7 91.3 334.1 91C333.5 90.7 333.1 90.3 333.5 89.4C333.8 88.4 335.2 88.8 335.6 88.8C337.6 88.7 339.6 88.6 341.7 88.4C346.2 88 350.8 87.5 355.4 87.4C364.1 87.1 372.8 86.4 381.5 86.3Z" fill="#818990"/>
<path opacity="0.5" fill-rule="evenodd" clip-rule="evenodd" d="M386 97.5C386.5 97.3 386.8 98 386.6 98.6C386.5 99.3 384.8 100 384.4 100.2C382.6 101.4 380.8 102.5 379 103.6C375.1 106.1 371.2 108.6 367.3 111.1C367.2 111.2 367.2 111.2 367 111.3C369.8 112.7 372.5 114.2 375.2 115.7C376.6 116.5 378.1 117.3 379.5 118.1C380.3 118.5 383.2 119.5 383.4 120.5C383.7 122 380.4 120.2 380 119.9C378.6 119.2 377.1 118.5 375.7 117.8C372.5 116.2 369.3 114.5 366.1 112.8C365.8 112.6 365.5 112.5 365.2 112.3C361.8 114.5 358.4 116.7 355 119C353.2 120.2 351.4 121.4 349.6 122.7C348.2 123.7 345.8 126.3 344.4 126.3C343.8 126.3 343.4 126.1 343.4 125.1C343.3 123.9 344.7 123.3 345.3 122.9C347.2 121.5 349.2 120.2 351.1 118.8C355 116.1 358.8 113.6 362.7 111.2C362.8 111.2 362.8 111.2 362.8 111.1C360.7 110 358.5 109.1 356.3 108C355.1 107.4 346.4 104.3 346.7 102.6C347 100.7 354.7 105.1 355.9 105.7C359.1 107.2 362.4 108.8 365.7 110.4L364.7 109.8C371.7 105.7 378.8 100.8 386 97.5Z" fill="#B1BDC6"/>
<path opacity="0.5" fill-rule="evenodd" clip-rule="evenodd" d="M341.5 142.9C343.3 143.4 344.5 145.8 344.3 148.4C344 151.9 341.6 153.4 339.4 153C336.9 152.4 336.3 149.4 337.5 146.4C337.8 145.7 338.1 145 338.5 144.6C338.8 144.4 339.3 144.6 339.5 144.4C340.7 143.8 340.1 142.8 341.5 142.9ZM340.7 140.7C338.6 141.1 334.5 144.7 334.7 148.3C334.8 148.7 335.2 148.9 335.5 148.9C335.4 149.6 335.4 150.4 335.6 151.3C335.8 152.3 336.2 153.1 336.8 153.7C338 155.1 339.5 155.3 340.9 155.1C343.6 154.7 345.6 152 345.8 148.1C345.8 144.2 343.5 140.2 340.7 140.7Z" fill="#B1BDC6"/>
<path opacity="0.5" fill-rule="evenodd" clip-rule="evenodd" d="M351.2 145.4C350.2 146.1 348.7 147.3 348.1 148.7C347.5 150.2 348.2 151.8 349.4 151.1C350.4 150.5 351.1 148.7 352.2 148.2C353.2 147.6 353.6 148 354.5 148.4C355.5 149 356.4 149.4 357.6 149.3C359 149.1 360.2 147.9 361.6 147.7C362.8 147.5 363.7 148.1 364.8 148.4C366 148.7 366.9 148 368.2 147.7C369 147.5 370.5 148.4 371.1 148.1C372.5 147.3 371 146.2 370.3 145.8C369.1 145.2 368.2 145.7 367.1 146.2C365.8 146.8 365.2 146.3 364 145.9C361.5 144.9 359.6 147.3 357.2 146.9C354.8 146.4 353.5 143.6 351.2 145.4Z" fill="#B1BDC6"/>
<path opacity="0.5" fill-rule="evenodd" clip-rule="evenodd" d="M392 143.7C394.4 147 391.7 151.6 389 149C388 148 388 146.6 388.8 145.3C389.5 144.1 390.9 143.6 392 143.7ZM391.1 141.1C388.8 141.8 386.8 143.2 386.6 147C386.4 150.7 389 152.4 391.1 152.1C396 151.5 395.7 139.8 391.1 141.1Z" fill="#B1BDC6"/>
</g>
<g opacity="0.5">
<path opacity="0.5" fill-rule="evenodd" clip-rule="evenodd" d="M253.4 53.3C253.4 58.8 253.2 64.4 253.9 69.8C254.1 71.4 254.2 74.6 255.4 75.4C256.6 76.3 257.7 75.3 258.1 73.5C258.4 71.4 257.7 68.3 257.6 66.1C257.5 63.1 257.5 60.2 257.5 57.2C257.5 55.1 258 51.6 256.2 50.5C255 49.7 253.4 51.2 253.4 53.3Z" fill="#D2DAE0"/>
<path opacity="0.5" fill-rule="evenodd" clip-rule="evenodd" d="M313.1 44.6C300.6 46.4 287.9 46.7 275.3 47.8C269.4 48.2 262.5 47.7 257 50.9C256 51.5 252.4 54.9 255.3 56.2C256.2 56.6 257.1 55.2 257.9 54.7C259.2 53.9 260.6 53.7 261.9 53.3C273.3 50.6 285.2 51.2 296.8 49.9C299.7 49.6 302.7 49.3 305.7 48.9C307.8 48.6 312.2 46.4 314.2 47.5C317.6 49.4 317.4 61.9 317.6 66.2C317.7 68.4 316.1 76.4 319.1 75.7C321.4 75.1 320.6 66.8 320.4 64.4C319.9 58.5 319.1 43.8 313.1 44.6Z" fill="#D2DAE0"/>
<path opacity="0.5" fill-rule="evenodd" clip-rule="evenodd" d="M317.8 75.4C307 76.9 295.8 75.4 284.9 76C279.2 76.3 273.4 76.8 267.8 77C265.4 77.1 262.8 77.1 260.4 77.1C259.2 77.1 253.8 78.1 257.2 81.6C258.7 83.1 263.4 81.9 265 81.9C267.6 81.8 270.1 81.7 272.6 81.6C278.5 81.3 284.3 80.8 290.3 80.6C295.9 80.3 301.6 80.3 307.2 80.1C310 80 312.8 79.8 315.6 79.3C316.2 79.2 318.3 79 318.7 78C319.1 76.9 318.8 75.2 317.8 75.4Z" fill="#B1BDC6"/>
<path opacity="0.5" fill-rule="evenodd" clip-rule="evenodd" d="M264.4 63.5C264.3 63.7 264.3 63.7 264.4 63.5V63.5ZM269 61.5C269.2 61.6 269.2 61.6 269 61.5V61.5ZM268.9 61.4C271.5 65.2 267.5 69.6 265.2 66C262.6 62.1 267.2 61.4 268.9 61.4ZM266.1 55.7C257.4 57.9 260.5 74.9 268.6 72.4C272.2 71.4 274.2 66.1 273 61.1C272.6 59.1 271.5 57 270 56.4C269.3 56.1 268.6 56.6 267.9 56.5C267.3 56.2 267 55.5 266.1 55.7Z" fill="#D2DAE0"/>
<path opacity="0.5" fill-rule="evenodd" clip-rule="evenodd" d="M299.5 60.4C294.2 60.4 289 60.7 283.7 60.9C282.1 61 277.9 59.9 277.9 63.6C277.9 67.6 282.5 66.1 284 66C289.3 65.8 294.5 65.5 299.7 64.7C301 64.5 305.6 64.8 305.6 62.3C305.7 59.7 300.6 60.4 299.5 60.4Z" fill="#D2DAE0"/>
<path opacity="0.5" fill-rule="evenodd" clip-rule="evenodd" d="M312.1 86.3C299.1 86.8 286 87 273.1 87.9C268.3 88.2 263.4 88.5 258.5 88.5C257.6 88.5 255.7 88 254.8 88.8C252.4 91.1 255.1 93.1 256.7 93.3C267.4 94.2 278.2 92 288.9 91.6C295.1 91.3 301.4 91.3 307.7 90.8C309.4 90.7 311.1 90.5 312.8 90.4C313.7 90.3 316.4 90.6 317.1 89.8C320.6 86 313.3 86.2 312.1 86.3Z" fill="#B1BDC6"/>
<path opacity="0.5" fill-rule="evenodd" clip-rule="evenodd" d="M252.4 95.5C252.3 100.4 252.2 105.2 252.7 110.1C252.9 112 253 114.2 254.5 114.7C256 115.1 256.6 113.6 256.9 111.9C257.6 107.7 257 101.7 257 97.4C257 95.3 257 92.8 255.2 92.3C253.7 91.9 252.4 93.3 252.4 95.5Z" fill="#B1BDC6"/>
<path opacity="0.5" fill-rule="evenodd" clip-rule="evenodd" d="M325.9 107.3C304.8 108.9 283.7 110.3 262.6 111.6C261 111.7 248.2 111.5 252.6 118C254 120 257.6 118.6 259.3 118.5C262 118.3 264.6 118.2 267.4 117.9C278 117.1 288.7 116.9 299.3 116C305.2 115.5 311 114.7 316.9 113.8C319.7 113.3 323.1 113.4 325.7 111.8C327.1 111 328.5 107.1 325.9 107.3Z" fill="#B1BDC6"/>
<path opacity="0.5" fill-rule="evenodd" clip-rule="evenodd" d="M313.8 82.4C312.3 84.7 313 89.4 313.1 92.2C313.3 96.2 313.4 100.1 313.8 104C314 106.6 313.9 110.4 314.8 112.8C315.8 115.4 318.3 115.1 319.3 112.6C320.2 110.5 319.7 105.7 319.7 103.3C319.6 99.9 319.5 96.6 319.4 93.2C319.3 90.4 319.7 85.9 318.6 83.5C317.7 81 315.4 80.3 313.8 82.4Z" fill="#B1BDC6"/>
<path opacity="0.5" fill-rule="evenodd" clip-rule="evenodd" d="M265.6 100.4C265.4 100.6 265.4 100.6 265.6 100.4V100.4ZM269.4 99.7C272.8 100.7 267.2 106.7 265.4 102.5C265.1 101.9 265 101 265.4 100.5C265.8 100 266.1 100.8 266.4 100.6C267.1 100.4 268.7 99.7 269.4 99.7ZM268.9 94.9C266.5 95.2 263.2 95.4 262 98.9C260.5 103.5 263.1 108.1 266.2 108.8C269.2 109.5 273.7 107.1 273.9 101.9C274.3 97.8 271.5 94.5 268.9 94.9Z" fill="#B1BDC6"/>
<path opacity="0.5" fill-rule="evenodd" clip-rule="evenodd" d="M288.8 97.4C286.4 97.5 281.5 96.4 279.3 98.2C277.1 99.9 278.1 103 280.1 103.8C281.4 104.3 283.5 103.5 284.8 103.5C286.5 103.4 288.3 103.4 290.1 103.3C293 103.2 296 103.3 299 103.3C302 103.3 305.1 103.4 308.1 103.1C312 102.7 311.8 98.5 308.1 98C301.7 97 295.1 97.2 288.8 97.4Z" fill="#B1BDC6"/>
<path opacity="0.5" fill-rule="evenodd" clip-rule="evenodd" d="M282.5 143.8C282.5 145.8 283.7 143.8 283.7 143.8C283.7 143.8 282.5 141.9 282.5 143.8Z" fill="#B1BDC6"/>
<path opacity="0.5" fill-rule="evenodd" clip-rule="evenodd" d="M255.2 128C255.3 133.8 255.4 139.5 255.5 145.2C255.6 147 255.2 150.5 256.7 151.5C258.4 152.5 258.9 150 259.1 148.2C259.7 142.7 259.1 136.4 259 130.8C259 128.9 259.3 126.3 257.8 125.4C256.7 124.7 255.2 126.1 255.2 128Z" fill="#B1BDC6"/>
<path opacity="0.5" fill-rule="evenodd" clip-rule="evenodd" d="M320.2 128.1C320.3 128.4 320.3 128.4 320.2 128.1V128.1ZM320.3 128C320.4 128.1 320.7 128.2 320.3 128V128ZM288.4 123.3C282.3 123.4 276.3 123.6 270.2 123.9C267.6 124.1 264.9 124.2 262.5 124.5C260.7 124.8 256.1 124.8 254.9 127C252.5 131.5 257.7 130.3 258.8 129.8C260.9 129.1 262.8 128.9 265 128.8C269.5 128.5 274 128.3 278.5 128.1C290.7 127.8 303 127.8 315.2 127.8C316.4 127.8 318.6 127.1 319.6 127.8C320.6 128.5 320.6 130.2 320.7 132.3C320.9 134.9 319.7 139.9 320.5 142.2C322 145.6 323.9 142.7 324.3 140.2C324.7 136.7 324 132.6 323.4 129.2C322.5 124.6 321.1 124.3 318 124C314.4 123.6 310.7 123.3 307.1 123.2C300.8 123.2 294.6 123.2 288.4 123.3Z" fill="#B1BDC6"/>
<path opacity="0.5" fill-rule="evenodd" clip-rule="evenodd" d="M312.3 147C299.1 149.2 285.6 147.9 272.4 148C269.2 148 265.9 148.1 262.8 148.3C261.1 148.4 257.1 147.7 255.9 149.6C253.5 153.6 257.9 154.2 259.5 154.1C262.8 153.8 266 153.6 269.3 153.6C280.8 153.5 292.4 154.2 303.8 153.4C308.6 153.1 313.3 151.9 318.1 150.6C319.1 150.3 326.4 148.4 322.2 146C319.8 144.5 314.9 146.6 312.3 147Z" fill="#B1BDC6"/>
<path opacity="0.5" fill-rule="evenodd" clip-rule="evenodd" d="M274 139.7C273.9 139.9 273.9 139.9 274 139.7V139.7ZM273.9 139.7C273.9 139.8 273.8 140.2 273.9 139.7V139.7ZM273.1 138.1C273.1 138.2 273.2 138.4 273.1 138.1V138.1ZM273 138.1C273.3 138.7 273.5 139.3 273.7 139.9C271 141 269.9 137.9 273 138.1ZM272.9 137.9C272.9 137.9 273.2 138.2 272.9 137.9V137.9ZM268.3 133.2C266.6 136.4 265.1 140.2 267.3 143.8C269.3 147.1 273.2 147.5 275.7 145.3C278.3 143.1 278 138.3 276.3 135.2C275.1 133.2 274.2 133.3 272.5 133C271.4 132.8 269.4 131.5 268.3 133.2Z" fill="#B1BDC6"/>
<path opacity="0.5" fill-rule="evenodd" clip-rule="evenodd" d="M286.6 139.1C286.6 143.3 299.3 141.5 301.5 141.5C303.4 141.5 314.8 143 313.9 138.7C313.2 135.1 302 136.9 299.6 136.9C297.6 136.8 286.6 134.8 286.6 139.1Z" fill="#B1BDC6"/>
</g>
<g opacity="0.5">
<path opacity="0.5" fill-rule="evenodd" clip-rule="evenodd" d="M443.1 14C444.6 14 446.5 13.7 448 14.1C450.8 14.9 450.7 20.9 450.7 23.7C450.8 28.9 450.8 34.3 450.4 39.5C450.3 41.3 449.2 43.5 448 41C447.3 39.6 447.7 36.4 447.7 34.9C447.7 29.6 448.4 24 447.8 18.7C447.6 17 447.6 16.8 446.2 16.9C445 16.9 443.9 17 442.8 17C440.5 17.1 438.1 17.1 435.7 17.2C434.8 17.3 431.6 18 429.1 18V18.1C429.2 20.2 428.3 22.7 428.2 24.9C427.9 30.1 428.3 35.5 427.9 40.7C427.9 40.9 427.9 41 427.8 41.2C427.9 41.2 428 41.2 428 41.2C429.9 41.1 431.8 41.1 433.7 41.1C437.6 41 441.5 41.2 445.3 40.8C446.1 40.7 446.3 41.9 446 42.5C445.6 43.2 444.4 43.2 443.8 43.3C442.1 43.6 440.4 43.7 438.7 43.8C436.9 43.9 435.1 44 433.3 44.1C431.7 44.2 428.3 45 426.8 44.2C425.7 43.6 425.8 42.9 426.1 42.3C425.8 41.5 425.8 40.3 425.8 39.7C425.5 37.3 425.4 34.8 425.4 32.3C425.4 27.4 425.4 22.4 426.5 17.7C426.1 17.4 425.8 17.1 425.8 16.7C425.8 13.7 434.8 14.5 436.6 14.4C438.6 14 440.8 14 443.1 14Z" fill="#B1BDC6"/>
<path opacity="0.5" fill-rule="evenodd" clip-rule="evenodd" d="M483.4 44.2C480.7 45.1 474.9 44.5 473.8 44.5C471.8 44.5 461.2 46 461.2 43.2C461.2 43 461.3 42.8 461.4 42.6C461.1 42.3 460.8 41.7 460.7 41.1C460.1 38.7 460 36.1 460 33.6C459.9 28.3 459.9 22.9 459.9 17.5V17.7C459.5 17.1 459.7 16.3 460.2 15.8C461.5 14.4 465.4 14.8 467.1 14.7C469.5 14.5 471.9 14.5 474.4 14.5C477 14.5 479.6 14.6 482.1 14.6C483 14.7 489.7 14.9 486.7 16.7C486.5 16.8 486.4 16.9 486.1 17C486.2 17.9 486.3 18.8 486.2 19.2C486.1 22 486 24.9 485.9 27.7C485.8 30.9 485.7 34 485.6 37.2C485.5 38.9 486 42.8 484.9 43.9C484.3 44.8 483.8 44.6 483.4 44.2ZM479 17.1C476.5 17.1 474 17 471.5 17.1C468.7 17.2 466.1 17.3 463.4 17.7C463.2 17.7 463.1 17.8 462.9 17.8C463.3 19.9 462.8 23.2 462.8 25.1C462.8 30.4 463 35.8 463.1 41.2C463.1 41.4 463.1 41.5 463.1 41.7C466 40.9 471.6 41.4 472.7 41.4C474.9 41.4 477 41.4 479.2 41.5C479.9 41.6 481.5 41.4 482.8 41.6C482.8 41.5 482.8 41.3 482.8 41.3C482.7 38.5 482.8 35.5 482.9 32.8C483 30 483.1 27 483.2 24.2C483.3 22.7 482.9 19.6 483.3 17.5C481.7 17.4 480 17.1 479 17.1Z" fill="#B1BDC6"/>
<path opacity="0.5" fill-rule="evenodd" clip-rule="evenodd" d="M436.4 43.7C434.9 44.8 435.7 49.4 436.2 51C437.1 53.6 439 55.6 440.9 57C444.9 59.7 450.7 59 453.8 63.7C453.9 63.8 454.8 65 455.1 63.4C455.3 62 453.3 60 452.5 59.3C450.3 57.4 447.5 56.7 445 55.8C442.3 54.8 439.4 52.9 438.3 49.5C438.1 48.2 438.8 42 436.4 43.7Z" fill="#D2DAE0"/>
<path opacity="0.5" fill-rule="evenodd" clip-rule="evenodd" d="M473 45.9C471.5 46.4 472.5 48.8 472.5 50.1C472.5 51.6 472.1 53.2 471.3 54.5C469.3 57.6 465.4 58 462.6 59C460.5 59.6 455.5 61.1 455.3 64.5C455.1 68.4 459.5 63.7 459.9 63.5C464 61.6 469.4 61.4 472.6 57.2C473.9 55.5 474.7 53.2 474.8 50.9C474.8 49.6 474.9 45.2 473 45.9Z" fill="#D2DAE0"/>
<path opacity="0.5" fill-rule="evenodd" clip-rule="evenodd" d="M453.4 67.1C459.5 65.2 465.1 70.4 465.9 77.8C466.7 85.7 461.8 92.1 455.3 92.5C449.6 92.8 442.8 87.9 442.7 80.2C442.7 73 448.3 68.7 453.4 67.1ZM456.3 70.5C456.6 71.1 456.9 72 456.2 72.4C455.2 73.2 455 71.2 454.2 70.9C453.4 70.6 452.2 71.6 451.6 72.2C450.6 73.1 447.6 78.6 446.3 75.6C442 84.5 452.7 91.3 458.7 88C465.4 84.2 464.1 70.6 456.3 70.5Z" fill="#B1BDC6"/>
<path opacity="0.5" fill-rule="evenodd" clip-rule="evenodd" d="M450.7 77.8C450.7 79.4 452.9 79.4 452.9 77.8C452.9 76.2 450.7 76.1 450.7 77.8Z" fill="#B1BDC6"/>
<path opacity="0.5" fill-rule="evenodd" clip-rule="evenodd" d="M454.5 77.5C454.5 79.5 457.1 79.5 457.1 77.5C457.1 75.5 454.5 75.4 454.5 77.5Z" fill="#B1BDC6"/>
<path opacity="0.5" fill-rule="evenodd" clip-rule="evenodd" d="M451.8 82.2C449.6 83.7 455.8 86.8 456 83.7C456.1 82.4 455.1 82.7 454.3 82.7C453.6 82.4 452.4 81.7 451.8 82.2Z" fill="#B1BDC6"/>
<path opacity="0.5" fill-rule="evenodd" clip-rule="evenodd" d="M450.9 93C451 97 451 100.8 451.6 104.7C451.7 105.5 451.8 108.1 452.3 108.7C453.5 110 453.5 107.4 453.5 106.6C453.7 103.1 453.3 99.5 453.3 95.9C453.3 95.1 453.5 93.6 453.1 92.8C452.6 91.5 450.9 91.2 450.9 93Z" fill="#D2DAE0"/>
<path opacity="0.5" fill-rule="evenodd" clip-rule="evenodd" d="M448.6 89.8C444 96.2 437.5 95.7 431 96.2C427.6 96.5 424.1 97.1 421.4 99.8C420.1 101.1 419 102.6 418.3 104.4C418 105.2 416.5 109.7 418.7 108.6C419.5 108.3 420.3 105.2 420.9 104.4C421.9 102.7 423.2 101.3 424.8 100.4C427.7 98.7 431.3 98.7 434.6 98.5C438 98.2 441.6 98.1 444.8 96.3C446.3 95.4 447.6 94.4 448.8 93C449.2 92.5 450.1 91.7 450.2 90.9C450.1 90.3 449.5 88.7 448.6 89.8Z" fill="#D2DAE0"/>
<path opacity="0.5" fill-rule="evenodd" clip-rule="evenodd" d="M425.1 109.5C420.7 109.7 416.4 109.8 411.9 110.3C411 110.4 408 110.2 408.8 112.4C409.4 114.2 413 113 414.2 112.9C418.8 112.6 423.3 112.5 427.9 112C428.9 111.9 433.5 111.9 431.6 109.7C430.7 108.6 426.3 109.4 425.1 109.5Z" fill="#B1BDC6"/>
<path opacity="0.5" fill-rule="evenodd" clip-rule="evenodd" d="M406 112.1C404.6 114.3 405.2 119.7 405.3 122.4C405.4 125 405 129.7 407.7 130C406.8 129.9 408.4 130.1 408.6 130.1C409.2 130.2 409.7 130.2 410.3 130.2C411.6 130.2 412.9 130.2 414.2 130.1C417.1 130 420.1 129.9 423 129.8C424.2 129.7 430.9 129.8 431.2 128.3C431.5 126.3 425.1 127.4 424 127.5C421.2 127.7 418.4 127.7 415.6 127.8C414.2 127.8 412.8 127.9 411.5 127.8C410.9 127.8 408.7 128.1 408.3 127.6C408 127.3 408.2 123.6 408.2 123C408.2 121.2 408.2 119.4 408.3 117.5C408.4 116.2 408.9 114 408.5 112.9C408 111.5 406.7 111.1 406 112.1Z" fill="#B1BDC6"/>
<path opacity="0.5" fill-rule="evenodd" clip-rule="evenodd" d="M428.6 112.2C428.7 116.2 428.7 120.4 429.5 124.4C429.8 125.7 430.1 128.4 431.2 129.1C432.3 129.8 433.4 128.8 433.4 127.4C433.5 125.7 432.7 123.4 432.6 121.6C432.4 119.5 432.3 117.4 432.3 115.3C432.2 113.8 432.6 111.3 431.4 110.4C430.2 109.5 428.5 110.4 428.6 112.2Z" fill="#B1BDC6"/>
<path opacity="0.5" fill-rule="evenodd" clip-rule="evenodd" d="M437.3 111.2C435.9 112.9 436.5 118.2 436.7 120.2C436.8 121.7 438.2 129.4 440.3 125.4C441.2 123.7 440 119 440 116.9C440 115.6 440.4 113.9 440.2 112.7C440 111 438.6 109.7 437.3 111.2Z" fill="#B1BDC6"/>
<path opacity="0.5" fill-rule="evenodd" clip-rule="evenodd" d="M459.1 108.9C461.9 108.9 466.7 108.6 468.7 111.4C469.9 113.1 470.3 115.9 470.9 117.8C471.2 119.4 472.3 122.3 471.6 124C471.3 124.8 470.8 125.4 470 125.1C469.8 125 469.7 125 469.6 124.8C469.9 125.1 470 125.7 469.9 126.3C469.5 127.6 467.7 127.3 466.8 127.4C463.7 127.7 460.5 128 457.4 128C454.4 128.1 451.3 127.9 448.3 128C445.8 128 443.1 128.7 440.6 128.5C439.6 128.4 438.4 128 438.7 126.4C439 124.9 440.2 124.9 441.1 124.8C444 124.5 447 124.3 450 124.3C456.2 124.3 462.5 124.3 468.8 124.2C469.1 124.2 469.3 124.3 469.5 124.5C469.2 124 469.3 123.3 469.2 122.6C469 120.7 468.9 118.8 468.6 117C468.3 115.5 468.2 113 467.1 111.9C465.9 110.9 463.1 111.2 461.6 111.1C457.6 111 453.5 111.4 449.5 111.8C447.7 112 445.8 112.1 444.1 112.6C443.1 112.9 440.1 114.6 439.4 113.5C437.4 110.8 445.9 109.7 447.1 109.5C450.9 109.2 454.9 108.9 459.1 108.9Z" fill="#B1BDC6"/>
<path opacity="0.5" fill-rule="evenodd" clip-rule="evenodd" d="M490.3 103.7C490.5 104 490.5 104 490.3 103.7V103.7ZM462.6 87.2C460.1 89 464.7 94.2 465.9 95C468.6 96.8 472.2 97.1 475.1 97.6C478.8 98.2 482.8 98.5 486.5 100C488 100.6 489 101.6 489.9 103.2C490.4 104 491.6 107.3 492.7 106.5C494.9 105 488.9 98.3 487.6 97.6C484.6 96 481 95.5 477.8 94.9C474.8 94.3 471.7 93.9 468.8 92.8C467.2 92.2 466 91.3 465.1 89.5C464.6 88.4 464.1 86.1 462.6 87.2Z" fill="#D2DAE0"/>
<path opacity="0.5" fill-rule="evenodd" clip-rule="evenodd" d="M500.7 107.7C502 107.6 503.8 107.5 504.9 108.7C506.1 110.1 506.4 113.5 506.7 115.3C507.1 117.3 507.6 119.3 507.7 121.3C507.8 121.8 507.9 122.6 507.8 123.4C508.4 123.5 508.7 124.2 508.6 124.9C508.5 126.2 507 126.4 506.1 126.6C503.2 127.3 500 127.2 497 127.2C490.7 127.4 484 128.7 477.8 127.9C476.8 127.8 475.6 127.3 475.8 125.7C475 124 474.8 120.5 474.6 119.9C474.3 117.1 474.3 114.2 474.3 111.4C474.3 109.9 475.8 109.1 476.7 109.9C478 109.3 480.1 109.1 481.3 109C483.2 108.7 485.2 108.7 487 108.6C491.8 108.4 496.3 107.8 500.7 107.7ZM504 111.6C503.3 109.7 502.7 110.1 501 110.3C499.2 110.4 497.4 110.6 495.6 110.9C491.6 111.2 487.7 111.5 483.7 111.9C481.6 112.1 479.6 112.8 477.5 113.1H477.7C477.6 114 477.5 114.8 477.6 115.5C477.6 116.9 477.7 118.2 477.8 119.5L477.9 121.1C478 121.9 478.2 123.2 478.2 124.4C478.5 124.4 478.7 124.4 478.9 124.4C482.1 124.3 485.2 124.2 488.4 124.1C491.6 124 494.9 123.8 498 123.8C500.6 123.7 503.3 124.1 505.7 123.9C505.1 122.2 505.3 119.3 504.9 117.5C504.7 115.4 504.6 113.2 504 111.6Z" fill="#B1BDC6"/>
</g>
<path fill-rule="evenodd" clip-rule="evenodd" d="M150.748 305.577L107.348 305.177C107.248 305.177 107.048 304.377 107.048 303.377L107.148 294.677C107.148 293.677 107.248 292.877 107.548 292.877L150.948 293.277C151.048 293.277 151.248 294.077 151.248 295.077L151.148 303.777C150.948 304.677 150.848 305.577 150.748 305.577Z" fill="#B5C1CB"/>
<path fill-rule="evenodd" clip-rule="evenodd" d="M108.648 304.977H109.948L107.348 392.177H106.148L108.648 304.977Z" fill="#B5C1CB"/>
<path fill-rule="evenodd" clip-rule="evenodd" d="M149.148 305.577H147.848L148.948 392.677H150.148L149.148 305.577Z" fill="#B5C1CB"/>
<path fill-rule="evenodd" clip-rule="evenodd" d="M138.7 88.3C147.1 88.4 154 95.7 155.1 105.1C157.7 116.6 160.9 142.6 157.3 146.7L134.8 146.4V146.3C126.4 145.1 120 136.7 120.1 126.7L120.2 107.6C120.3 96.7 127.8 88.1 137.1 88.2L138.7 88.3Z" fill="#293947"/>
<path fill-rule="evenodd" clip-rule="evenodd" d="M152.3 100.3C156.7 110.1 156 135 150.1 136.7C147.8 137.3 142.8 135.6 137.9 132L140.8 158.2L122.1 158.1L128.9 123.2C125.4 118.2 123 112.2 123.5 105.4C124.7 85.9 147.8 90.4 152.3 100.3Z" fill="#96555E"/>
<path fill-rule="evenodd" clip-rule="evenodd" d="M137.5 89.2C146.5 89.3 149.3 94.3 151.7 98.4C149.9 105.6 142.8 106.6 136.5 111.1C135.8 110.4 134.8 109.9 133.8 109.9C131.4 109.9 129.5 112.1 129.5 114.9C129.5 117.7 131.3 120 133.7 120C133.8 120 133.8 120 133.8 120C134.6 130.9 134.2 143.1 131.5 146.1L109 145.8C108 120.2 120 130.3 120.2 106.2C121 105.4 121.7 104.5 122.4 103.7V103C126.5 93.7 131.5 89.1 137.5 89.2Z" fill="#293947"/>
<path fill-rule="evenodd" clip-rule="evenodd" d="M216.8 268.7C220.7 280.7 227.2 320.1 234.9 379.6L225.4 382.7C215.6 356.8 208.7 334.2 205.9 322.4C201.1 302.1 197.5 284.1 196.6 277.4C194.6 261.5 214.3 260.8 216.8 268.7ZM186.6 301.8C157.7 306.3 116.9 310.9 113.3 311.5C108.4 312.2 104.8 303.2 110.6 300.6C119.7 296.4 152 283.6 167.4 280C171.9 279 176.2 278 180.3 277.2C192.3 274.5 198.2 299.9 186.6 301.8Z" fill="#96555E"/>
<path fill-rule="evenodd" clip-rule="evenodd" d="M144.4 233.9C192.1 248.7 216.4 258.1 217.5 262.1V262.2L217.6 262.3C226.9 277.6 231.9 352.1 233.8 357.7L215.6 360.7C208.9 330.4 186.9 309.2 187.8 273.2C187.7 272.1 187.7 271.1 187.7 270.2L138.5 240.2L138.6 233.8L144.4 233.9Z" fill="#8E5159"/>
<path fill-rule="evenodd" clip-rule="evenodd" d="M147 233.9C154 236.4 189.8 254.4 208.4 263.9C220.7 270.2 216.6 292.6 209.6 298.4C209.6 298.8 209.5 299 209.2 299.1C171.4 316.9 141.7 307.1 131.6 310L127.1 293L142.1 287.1C137.6 286 133.4 285 129.9 284.2C107 279.2 100.4 264.7 104.5 233.3L147 233.9Z" fill="#B27B82"/>
<path fill-rule="evenodd" clip-rule="evenodd" d="M113.702 297.813C111.241 298.012 109.581 298.487 108.413 299.057C107.198 299.761 105.486 301.041 103.143 302.852C103.886 304.603 110.084 320.049 121.962 349.192C125.859 348.515 127.352 346.785 126.664 344.006C125.886 341.27 125.237 339.027 124.72 337.054L124.127 310.975C124.042 310.571 123.779 310.032 123.242 310.071L119.796 310.306C117.891 308.453 116.521 306.785 116.089 305.215C115.609 304.003 115.359 302.122 115.296 299.483C115.261 298.499 114.509 297.642 113.748 297.679C113.926 297.815 113.882 297.725 113.702 297.813Z" fill="#E5E4DC"/>
<path fill-rule="evenodd" clip-rule="evenodd" d="M221 377.8C220.1 380.5 219.7 382.5 219.7 383.8C219.7 385.4 219.8 387.9 220.3 391C221.9 391 236.5 391.1 264.2 391.4C265.4 387 264.7 384.6 262.3 384.3C259.8 383.9 257.8 383.6 256.2 383.3L235.8 372.4C235.4 372.3 234.9 372.4 234.8 372.8L233.5 376.5C231.2 377.7 229.4 378.3 228 378.3C226.8 378.3 225.3 377.8 223.2 376.6C222.4 376.2 221.5 376.6 221.1 377.5C221 377.7 221 377.8 221 377.8Z" fill="#E5E4DC"/>
<path fill-rule="evenodd" clip-rule="evenodd" d="M73.1 206.1L86.8 209.1C70.6 245.8 61.9 265.2 60.8 267.3C58.2 272.1 60.7 280.7 61.6 285.1C55.9 286.7 58.1 276.7 50.9 278.9C44.4 280.9 38.8 285.7 32.7 279.3C31.9 278.5 31.4 276 33.9 274.7C40.2 271.4 49.6 265.3 51.2 262.9C53.3 259.7 60.6 240.8 73.1 206.1ZM187.7 208.3L216.7 222.2C223.8 222.5 229.8 223.5 234.9 225.2C236.2 226 238 227.9 233.6 228.7C229.2 229.5 224.6 230.6 224.5 232.5C224.4 234.4 227.4 235.6 226.8 238.4C226.4 240.1 221.7 237.3 212.7 230L186.1 225.1L187.7 208.3Z" fill="#96555E"/>
<path fill-rule="evenodd" clip-rule="evenodd" d="M131.8 141.8C148.3 166.9 168.5 190 195.5 207.6C198.6 206.7 202.1 206.5 206.1 207.2C208 207.6 209.4 209.7 209.2 211.8C209.1 213.1 208.4 214.2 207.5 214.8C208.3 215.2 209.1 215.7 210 216.1L206.5 232.1C177.9 222.5 151.5 216.3 135.9 193.8C130.6 186.2 126.6 157.6 124.4 147.4L131.8 141.8Z" fill="#C8D1D8"/>
<path fill-rule="evenodd" clip-rule="evenodd" d="M102.7 241.5C127.2 244.9 146.3 245.1 160.4 242.1C162.2 241.7 162.2 233 161.4 230.6C149.2 193.1 141.2 165.8 141.3 139.9C139 141.2 135 141.5 129.2 140.4C113.5 166.9 106.2 197.4 102.7 241.5Z" fill="#171F27"/>
<path fill-rule="evenodd" clip-rule="evenodd" d="M131.8 138.2C128.8 178.4 164 266.8 150.9 341.7C127.8 347.5 95 328.3 62.8 343C64.3 312.7 88.5 277.5 98.1 245.9C97.3 245 96.9 243.7 97.1 242.2L97.5 239.5C97.8 237.7 99.1 236.4 100.6 236.2C100.9 234.9 101.1 233.5 101.3 232.1C103 220.7 100.4 209.6 100.6 198.6C88 210.9 76.6 232.4 66.4 262.8L51.8 257.6C52.4 255.1 53 252.8 53.6 250.4C51.9 249.2 50 244.1 51.4 243.3C52.9 242.4 54.5 241.9 56 241.5C69.9 194.2 92.2 159.7 123 138.2H131.8Z" fill="#F3F2E9"/>
<path fill-rule="evenodd" clip-rule="evenodd" d="M126.2 139.1L122.1 153.4L130.1 164.4L122.7 172.8L140.1 208.3L118.7 172.8L126 164.3L118.9 154.7L126.2 139.1Z" fill="black" fill-opacity="0.1"/>
<path fill-rule="evenodd" clip-rule="evenodd" d="M139.2 256.5C141 256.5 142.3 258.1 142.3 260.2C142.3 262.3 140.9 263.8 139.1 263.8C137.3 263.8 136 262.2 136 260.1C135.9 258.1 137.4 256.5 139.2 256.5ZM138.5 235.6C140.3 235.6 141.6 237.2 141.6 239.3C141.6 241.3 140.2 242.9 138.4 242.9C136.6 242.9 135.3 241.3 135.3 239.2C135.4 237.1 136.7 235.6 138.5 235.6ZM134.8 214.6C136.6 214.6 137.9 216.2 137.9 218.3C137.9 220.4 136.5 221.9 134.7 221.9C132.9 221.9 131.6 220.3 131.6 218.2C131.7 216.2 133.1 214.6 134.8 214.6Z" fill="black" fill-opacity="0.4"/>
<path fill-rule="evenodd" clip-rule="evenodd" d="M537.1 78.6C533.4 86.1 533.9 104.9 538.6 106.3C540.5 106.8 544.6 105.5 548.6 102.9L546 122.8H561.3L556 96.3C558.9 92.6 560.9 88 560.6 82.8C559.7 67.9 540.7 71.2 537.1 78.6Z" fill="#573136"/>
<path fill-rule="evenodd" clip-rule="evenodd" d="M541.5 64.8C538 64.8 535.2 67.8 535.2 71.6C535.2 75.3 537.8 78.3 541.2 78.4C543.1 79 545.6 79.5 548.3 79.7C548 80.8 547.9 82.1 547.9 83.4C547.9 84.7 548 85.9 548.3 87.3C548.9 86.6 549.7 86 550.5 86C552.8 86 554.2 88 554.2 90.2C554.2 92.9 552.8 94.9 550.7 95C552.6 98.9 555.2 101.9 557.8 101.9C562.7 101.9 566.3 94.7 566.3 86.9C566.3 86.6 566.3 86.4 566.3 86.1C571.6 90 575.6 97.8 582.5 97.8C592 97.8 595.7 77.1 582.5 77.1C573.5 77.1 569.1 78.5 565.2 80.6C564.4 78.4 563.3 76.4 562 75C561.6 74.6 561.1 74.2 560.5 73.8L560.4 73.7C560 73.6 559.7 73.3 559.2 73.2C556.9 72.3 553.5 71.6 549.9 71.5C549.2 71.5 548.5 71.5 547.8 71.5C547.9 67.8 545.1 64.8 541.5 64.8Z" fill="#9C5961"/>
<path fill-rule="evenodd" clip-rule="evenodd" d="M566.3 179.8L542.4 264.7L530.8 336.8H521.8L534 179.8H566.3Z" fill="#573136"/>
<path fill-rule="evenodd" clip-rule="evenodd" d="M566.3 179.8L542.4 264.7L530.8 336.8H521.8L534 179.8H566.3Z" fill="black" fill-opacity="0.1"/>
<path fill-rule="evenodd" clip-rule="evenodd" d="M575 179.8C573.4 226.3 575.3 250.4 575.6 254.6C576 258.8 581 286.3 592.7 338.2L583 334.6C564.3 287 558 262.3 555.9 256C553.8 249.7 548 224.3 538.9 179.8C538.9 179.8 575 179.8 575 179.8Z" fill="#573136"/>
<path fill-rule="evenodd" clip-rule="evenodd" d="M592.6 334.6C593.3 336.7 593.6 338.2 593.6 339.2C593.6 340.5 593.5 342.2 593 344.6C591.7 344.6 579.7 344.6 557.1 344.6C556.1 341.3 556.7 339.5 558.7 339.2C560.8 338.9 562.4 338.7 563.7 338.5L580.4 330.5C580.8 330.4 581.1 330.5 581.3 330.9L582.3 333.7C584.1 334.6 585.6 335.1 586.9 335.1C587.9 335.1 589.2 334.7 590.8 333.8C591.4 333.4 592.2 333.8 592.6 334.6C592.6 334.5 592.6 334.5 592.6 334.6Z" fill="#E5E4DC"/>
<path fill-rule="evenodd" clip-rule="evenodd" d="M532.8 334.6C533.5 336.7 533.8 338.2 533.8 339.2C533.8 340.5 533.7 342.2 533.2 344.6C531.9 344.6 519.9 344.6 497.3 344.6C496.3 341.3 496.9 339.5 498.9 339.2C501 338.9 502.6 338.7 503.9 338.5L520.6 330.5C521 330.4 521.3 330.5 521.5 330.9L522.5 333.7C524.3 334.6 525.8 335.1 527.1 335.1C528.1 335.1 529.4 334.7 531 333.8C531.6 333.4 532.4 333.8 532.8 334.6C532.8 334.5 532.8 334.5 532.8 334.6Z" fill="#E5E4DC"/>
<path fill-rule="evenodd" clip-rule="evenodd" d="M569.5 179.8L559.4 223.1H528.2L532.9 179.8H569.5Z" fill="#171F27"/>
<path fill-rule="evenodd" clip-rule="evenodd" d="M575.3 179.8C578.6 190.7 579.3 205.1 577.2 223H545.5L536.8 179.8C536.8 179.8 575.3 179.8 575.3 179.8Z" fill="#354858"/>
<path fill-rule="evenodd" clip-rule="evenodd" d="M514.2 155.2L493.8 171.3C488.3 172.9 483.7 174.9 480 177.3C479.1 178.2 478.1 179.9 481.7 179.7C485.3 179.4 489.1 179.3 489.6 180.6C490.1 181.9 487.9 183.6 488.9 185.4C489.6 186.6 492.8 183.6 498.4 176.4L518.5 167.4L514.2 155.2ZM474.5 95.8C476.9 98.8 479.3 102 478.6 103.2C477.9 104.4 475.4 103.5 474.7 105.4C474.3 106.7 478.4 107.6 487.1 108.2L505.8 120.1L512 109L488 101.2C483.5 97.4 479.3 94.6 475.2 92.9C474.1 92.7 472.1 92.8 474.5 95.8Z" fill="#573136"/>
<path fill-rule="evenodd" clip-rule="evenodd" d="M545.7 111.7C534.6 134 518.7 151.1 495.6 169L504.4 179.7C530.3 169.3 543.9 163 550.5 141.9C552.2 136.5 553.3 119.7 554.4 110.8L545.7 111.7Z" fill="#2F4151"/>
<path fill-rule="evenodd" clip-rule="evenodd" d="M576.5 186.1H527.5C538.6 149.4 544.3 124.2 544.5 110.6C544.5 109.9 545.7 108.7 546.3 108.8C550.2 110 554.2 109.5 558.6 107.5C570.2 127.7 574.2 152.7 576.5 186.1Z" fill="#F3F2E9"/>
<path fill-rule="evenodd" clip-rule="evenodd" d="M491.4 101.2L488.8 115.3C508.7 129.1 528.7 139.8 546.3 138.3C538.7 173.8 539 203 555.9 203H582.1C586.2 172.7 575.3 130.9 565.2 109.8C564.8 109 564 107.4 562 107.4H554.4C540.4 107.6 517.6 110.5 491.4 101.2Z" fill="#536371"/>
<path fill-rule="evenodd" clip-rule="evenodd" d="M241.948 295.977L198.548 295.577C198.448 295.577 198.248 294.677 198.248 293.577L198.348 284.177C198.348 283.077 198.448 282.177 198.748 282.177L242.148 282.577C242.248 282.577 242.448 283.477 242.448 284.577L242.348 293.977C242.148 295.077 242.048 295.977 241.948 295.977Z" fill="#B5C1CB"/>
<path fill-rule="evenodd" clip-rule="evenodd" d="M199.948 295.477H201.248L198.548 390.777H197.248L199.948 295.477Z" fill="#B5C1CB"/>
<path fill-rule="evenodd" clip-rule="evenodd" d="M240.348 295.977H239.148L240.048 391.277L241.248 391.377L240.348 295.977Z" fill="#B5C1CB"/>
<path fill-rule="evenodd" clip-rule="evenodd" d="M246.108 115.794C250.955 125.182 250.405 149.037 244.126 150.804C241.592 151.466 236.305 149.81 230.797 146.497L234.212 171.566H214.053L220.883 137.993C217.027 133.354 214.383 127.611 214.934 121.096C216.256 102.321 241.372 106.407 246.108 115.794Z" fill="#573136"/>
<path fill-rule="evenodd" clip-rule="evenodd" d="M238.177 105.524C224.297 100.223 213.282 110.604 211.85 112.371C210.308 114.138 209.316 116.457 208.545 118.887C207.774 121.316 207.223 124.077 207.003 126.728C206.893 129.158 206.893 131.919 207.444 134.348C207.994 136.668 209.096 138.545 210.969 139.87C211.85 140.422 212.841 140.864 213.833 141.306C214.824 141.748 215.705 141.969 216.697 142.3C218.569 142.742 220.662 142.631 222.094 141.085C222.535 140.533 223.196 139.76 223.526 139.208C223.637 139.097 223.637 138.766 223.637 138.655C223.526 138.324 223.196 138.214 222.865 137.993C221.433 136.668 220.552 135.011 220.332 133.023C220.222 131.035 220.662 128.385 222.645 127.391C224.958 126.286 227.602 127.501 229.695 128.716C230.576 125.403 232.449 122.531 235.313 121.096C238.508 119.329 242.143 119.218 245.337 117.782C246.219 117.341 247.1 117.009 247.651 116.236C247.981 115.905 248.201 115.574 248.312 115.132C248.422 114.58 248.201 114.138 247.871 113.696C246.219 111.046 243.465 107.732 238.177 105.524Z" fill="#9C5961"/>
<path d="M215.044 117.12C222.71 117.12 228.924 110.642 228.924 102.652C228.924 94.662 222.71 88.1846 215.044 88.1846C207.379 88.1846 201.165 94.662 201.165 102.652C201.165 110.642 207.379 117.12 215.044 117.12Z" fill="#9C5961"/>
<path fill-rule="evenodd" clip-rule="evenodd" d="M212.401 138.545C207.884 149.699 203.698 157.099 199.843 160.743C201.495 164.388 206.783 166.044 215.595 165.603L220.662 141.196L212.401 138.545Z" fill="#9C5961"/>
<path fill-rule="evenodd" clip-rule="evenodd" d="M350.867 384.163C334.454 363.179 323.218 347.718 317.38 337.557C307.466 320.218 299.204 304.757 296.67 298.903C290.391 284.877 310.881 278.251 315.397 284.877C322.337 294.817 337.208 325.961 360.01 378.53L350.867 384.163Z" fill="#573136"/>
<path fill-rule="evenodd" clip-rule="evenodd" d="M317.049 378.089L286.426 297.578C279.816 283 311.652 273.281 316.499 280.129C327.404 295.701 353.511 356.774 356.816 361.523L317.049 378.089Z" fill="#B9898F"/>
<path fill-rule="evenodd" clip-rule="evenodd" d="M235.203 361.854C241.152 352.798 263.073 322.206 274.859 309.505C278.274 305.861 281.689 302.437 284.774 299.124C294.137 289.405 312.753 305.64 303.39 314.475C280.037 336.453 246.109 365.94 243.465 368.591C239.389 372.456 231.348 367.707 235.203 361.854Z" fill="#573136"/>
<path fill-rule="evenodd" clip-rule="evenodd" d="M236.54 357.93C234.415 359.632 233.193 361.093 232.532 362.24C231.76 363.579 230.89 365.754 229.88 368.612C231.406 369.496 244.978 377.734 270.802 393.192C273.944 390.165 274.433 387.77 272.309 386.158C270.239 384.45 268.497 383.058 267.025 382.079L252.837 361.879C252.565 361.467 251.978 361.382 251.663 361.709L248.755 364.107C246.106 363.849 244.113 363.333 242.778 362.56C241.633 361.898 240.477 360.591 239.12 358.53C238.577 357.706 237.498 357.591 236.731 358.04C236.595 357.834 236.54 357.93 236.54 357.93Z" fill="#E5E4DC"/>
<path fill-rule="evenodd" clip-rule="evenodd" d="M343.817 381.07C342.826 383.721 342.385 385.709 342.385 387.034C342.385 388.58 342.716 390.9 343.156 393.881C344.919 393.881 360.671 393.881 390.413 393.881C391.735 389.685 390.854 387.366 388.32 387.034C385.677 386.703 383.474 386.482 381.711 386.151L359.68 375.99C359.239 375.88 358.799 375.99 358.578 376.432L357.146 380.076C354.723 381.291 352.74 381.844 351.198 381.844C349.876 381.844 348.224 381.402 346.131 380.297C345.249 379.745 344.258 380.076 343.817 381.07Z" fill="#E5E4DC"/>
<path fill-rule="evenodd" clip-rule="evenodd" d="M275.19 301.664C249.523 297.357 232.449 294.265 223.857 292.719C199.182 288.08 191.912 274.275 196.208 244.125H241.813C247.761 245.892 272.987 257.157 317.38 277.809C325.311 281.896 323.879 294.044 322.447 298.02C322.337 298.13 308.898 322.206 282.02 369.916L244.787 345.178L275.3 304.536C276.071 302.879 276.071 301.775 275.19 301.664Z" fill="#B9B9B2"/>
<path fill-rule="evenodd" clip-rule="evenodd" d="M318.591 192.771C322.116 191.998 331.039 185.151 332.691 186.476C335.005 188.574 333.022 194.98 330.598 198.072C326.192 204.036 322.447 205.913 313.414 208.674C308.677 210.11 303.5 212.76 297.992 216.957L297.221 203.594L309.999 196.305C311.872 189.237 313.965 185.592 316.388 185.592C318.261 184.598 314.846 193.544 318.591 192.771ZM296.56 162.4C294.247 166.707 291.934 171.346 293.145 172.781C294.247 174.107 297.221 172.34 298.763 174.548C299.755 175.874 294.688 178.193 283.452 181.396L262.302 201.496L251.506 189.679L280.587 173.113C285.434 167.149 290.171 162.51 294.908 159.197C296.45 158.535 298.984 158.093 296.56 162.4Z" fill="#1E2A35"/>
<path fill-rule="evenodd" clip-rule="evenodd" d="M227.583 198.157C237.684 196.442 250.578 191.934 263.55 180.146L271.149 192.246C262.868 204.071 250.269 214.682 238.048 216.399C228.422 217.592 221.74 206.353 227.583 198.157Z" fill="#171F27"/>
<path fill-rule="evenodd" clip-rule="evenodd" d="M238.067 152.35C239.389 169.468 245.888 188.353 251.176 207.018C261.971 209.779 280.147 206.576 305.703 197.078C311.982 210.662 314.956 220.381 314.405 226.124C292.484 238.051 273.758 243.352 258.336 243.684C258.777 253.181 257.785 262.237 253.93 270.52C246.219 287.638 201.275 271.846 186.073 274.827C176.6 242.8 194.886 229.768 194.996 209.226C194.996 186.807 212.291 152.24 214.824 152.24C214.824 152.35 238.067 152.35 238.067 152.35Z" fill="#354858"/>
</svg>
