<svg width="948" height="533" viewBox="0 0 948 533" fill="none" xmlns="http://www.w3.org/2000/svg">
<path fill-rule="evenodd" clip-rule="evenodd" d="M323.179 9.83332C314.505 9.83332 305.654 9.68218 296.98 10.2867C295.564 10.4379 289.899 10.1356 289.191 11.647C287.775 14.5186 293.439 13.1583 294.325 13.0072C311.495 11.1936 329.728 12.2515 347.076 12.7049C361.238 13.1583 375.4 13.3095 389.561 14.0652C393.279 14.2163 396.996 14.5186 400.89 14.6697C402.13 14.8208 405.139 15.5765 405.493 13.4606C405.847 11.4958 401.775 12.1004 400.89 11.9492C393.279 11.4958 385.844 11.0424 378.232 10.589C359.822 9.83332 341.412 9.83332 323.179 9.83332Z" fill="#00255E"/>
<path fill-rule="evenodd" clip-rule="evenodd" d="M288.837 13.0071C287.244 14.6696 287.952 21.0174 287.952 23.2844C287.775 26.9117 287.598 30.6902 287.598 34.4686C287.421 38.3981 287.598 42.3277 287.952 46.1061C288.129 47.6175 289.368 55.6278 291.492 51.0937C292.377 49.1289 291.492 43.3857 291.492 41.2697C291.492 37.189 291.846 32.9572 292.023 28.8765C292.2 25.2492 292.2 21.7731 292.377 18.2969C292.023 16.9367 292.2 9.53097 288.837 13.0071Z" fill="#00255E"/>
<path fill-rule="evenodd" clip-rule="evenodd" d="M406.732 46.1062C398.235 47.0131 389.738 46.5596 381.064 47.3153C373.806 47.7687 366.372 48.2222 359.114 48.2222C342.474 48.6756 325.834 48.9778 309.194 50.4892C305.3 50.7915 301.582 51.0938 297.865 51.396C296.095 51.5472 287.952 50.4892 287.421 52.6051C286.359 56.2324 294.856 54.8722 296.803 54.721C300.874 54.5699 304.946 54.2676 309.017 53.9654C326.011 52.6051 343.005 52.1517 359.999 51.6983C369.381 51.396 378.232 50.6403 387.614 50.1869C392.217 49.8847 396.996 49.8847 401.245 49.5824C402.484 49.4312 406.732 49.7335 407.617 48.6756C407.971 47.7687 408.148 45.9551 406.732 46.1062Z" fill="#00255E"/>
<path fill-rule="evenodd" clip-rule="evenodd" d="M403.9 13.4606C404.254 21.9243 404.608 30.5391 404.962 38.8517C405.139 41.421 404.431 45.804 405.67 48.2222C407.794 51.8495 409.564 48.071 409.918 45.804C411.158 38.8517 409.741 30.8414 409.387 23.738C409.21 21.0175 409.918 14.972 408.856 12.5538C407.794 10.2868 403.723 10.4379 403.9 13.4606Z" fill="#00255E"/>
<path fill-rule="evenodd" clip-rule="evenodd" d="M431.092 68.4631C431.446 57.722 431.978 47.163 432.155 36.2398C432.332 30.9603 432.332 25.4987 432.332 20.4013C432.332 19.1269 432.509 18.0346 432.509 16.7602C432.686 12.7551 432.332 12.391 434.988 12.0268C447.207 10.3884 459.249 9.84222 471.467 8.3858C486.165 6.56527 500.863 5.47295 515.384 4.92679C521.759 4.74474 528.489 4.19859 535.041 4.56269C536.457 4.74475 539.291 4.01653 539.999 5.83706C540.176 6.56527 539.822 9.11401 539.645 10.0243C539.468 12.573 539.291 15.1217 539.114 17.8525C538.405 33.327 538.937 49.1656 540.884 64.2759C536.103 60.2708 530.082 56.9938 524.77 57.54C519.103 58.0861 515.03 63.0016 510.603 67.5529C508.124 70.1016 507.238 70.6478 504.582 68.2811C502.457 66.2785 500.332 63.9118 498.207 61.5452C495.02 57.9041 492.186 54.081 488.999 50.0758C483.332 43.1578 475.54 33.1449 467.749 36.2398C462.082 38.2424 456.946 42.9758 452.165 47.3451C444.728 53.899 438.353 61.9092 431.092 68.4631ZM528.134 0.0113783C500.332 0.0113783 472.707 4.01653 445.082 6.01911C442.071 6.20116 439.415 6.56526 436.405 7.11142C434.457 7.47552 429.675 6.20116 428.436 8.7499C427.55 10.3884 428.259 10.5704 428.436 12.2089C428.613 14.2115 428.613 16.5782 428.436 18.5807C428.259 23.4962 428.259 28.5936 428.259 33.509C428.082 52.2605 427.728 71.1939 428.436 89.9454C428.613 94.1326 429.498 99.7762 428.967 103.781C428.436 106.694 427.196 108.333 430.384 108.879C433.394 109.425 437.113 107.969 440.123 107.604C443.134 107.24 446.144 106.694 449.332 106.33C462.613 104.692 475.895 105.056 489.353 104.328C502.811 103.781 516.093 103.781 529.551 103.781C535.218 103.781 541.593 104.145 547.082 101.961C549.03 101.051 549.207 100.686 548.853 97.7736C548.676 97.2275 548.322 97.0454 547.968 95.9531C547.791 94.6787 547.791 93.0403 547.791 91.5838C547.614 87.2146 547.614 82.4812 547.437 78.1119C547.259 70.6478 546.374 63.3657 545.666 55.9015C544.957 47.345 544.957 38.6065 544.957 29.868C544.957 24.9526 545.134 20.2192 545.312 15.4859C545.489 12.391 546.374 7.83963 545.843 4.92679C545.666 3.65242 545.312 2.37805 544.072 1.64984C543.541 1.28574 543.009 1.46779 542.301 1.46779C541.593 1.28574 541.062 1.10369 540.176 0.921641C535.926 -0.170674 532.03 0.0113783 528.134 0.0113783Z" fill="#00255E"/>
<path fill-rule="evenodd" clip-rule="evenodd" d="M431.131 122.592C436.103 118.371 434.15 133.418 433.972 135.804C433.795 143.51 434.15 151.034 434.505 158.741C435.038 165.713 434.327 172.87 434.327 180.026C434.15 183.696 434.15 187.549 433.972 191.219C433.795 192.504 433.972 197.825 433.617 200.394C434.682 200.211 435.748 200.394 436.103 200.394C440.01 200.211 444.094 200.027 448.001 199.844C463.094 198.926 478.366 199.477 493.46 198.376C507.666 197.275 522.049 197.091 536.433 196.908C537.676 197.091 538.209 199.11 537.498 200.578C536.61 202.046 533.059 201.862 531.816 201.862C527.732 202.229 523.825 202.413 519.741 202.596C511.217 202.78 502.694 203.147 494.17 203.881C479.076 205.165 463.982 205.165 448.711 205.899C444.982 206.083 441.43 206.266 437.701 206.45C435.748 206.633 430.598 208.284 429.71 204.798C429.178 202.229 429.888 201.128 431.486 200.578C431.308 198.743 431.308 195.807 431.308 195.256C431.131 192.137 431.131 189.017 431.131 186.081C430.953 178.742 430.953 171.218 430.421 163.878C430.065 156.906 429 149.933 429 142.776C429.178 138.005 428.29 125.711 431.131 122.592ZM536.61 120.94C536.61 117.821 539.096 117.27 540.339 119.289C541.405 121.307 540.695 127.73 540.872 130.115C541.05 138.189 541.405 146.263 541.938 154.52C542.47 162.594 542.825 170.484 543.181 178.558C543.358 182.228 545.312 197.091 542.47 199.293C538.919 202.046 539.452 188.1 539.452 185.347C539.274 177.09 538.741 169.016 538.209 160.759C537.143 147.18 536.61 134.336 536.61 120.94ZM515.301 113.05C519.741 112.867 524.535 113.234 528.975 113.417C531.106 113.6 533.059 113.784 535.012 113.784C536.078 113.967 538.741 113.233 539.984 114.151C544.068 117.27 535.9 117.821 534.657 117.637C530.573 117.454 526.311 117.087 522.049 116.903C506.6 116.353 491.151 117.821 475.702 118.738C468.244 119.105 460.963 119.289 453.505 120.023C449.421 120.39 445.514 120.757 441.253 121.124C439.477 121.307 437.524 121.491 435.57 121.491C434.505 121.491 432.196 122.225 431.131 121.674C430.065 121.124 429.355 120.39 430.065 118.738C430.598 116.903 433.084 117.637 433.795 117.637C437.346 117.454 440.898 117.27 444.627 116.903C452.617 116.169 460.786 115.252 468.954 115.068C484.403 114.518 499.852 113.234 515.301 113.05Z" fill="#00255E"/>
<path fill-rule="evenodd" clip-rule="evenodd" d="M523.034 146.159C523.919 145.857 524.45 146.915 524.096 147.822C523.919 148.879 520.91 149.937 520.202 150.24C517.015 152.053 513.829 153.716 510.643 155.378C503.739 159.157 496.835 162.935 489.931 166.714C489.754 166.865 489.754 166.865 489.4 167.016C494.357 169.132 499.136 171.399 503.916 173.666C506.394 174.875 509.049 176.084 511.528 177.293C512.944 177.898 518.077 179.409 518.432 180.921C518.963 183.188 513.121 180.467 512.413 180.014C509.935 178.956 507.279 177.898 504.801 176.84C499.136 174.422 493.472 171.852 487.807 169.283C487.276 168.981 486.745 168.83 486.214 168.527C480.195 171.852 474.177 175.177 468.158 178.653C464.972 180.467 461.785 182.281 458.599 184.246C456.121 185.757 451.872 189.686 449.394 189.686C448.332 189.686 447.624 189.384 447.624 187.873C447.447 186.059 449.925 185.152 450.987 184.548C454.35 182.432 457.891 180.467 461.254 178.351C468.158 174.27 474.885 170.492 481.788 166.865C481.965 166.865 481.965 166.865 481.965 166.714C478.248 165.051 474.354 163.691 470.459 162.028C468.335 161.122 452.934 156.436 453.465 153.867C453.996 150.995 467.627 157.645 469.751 158.552C475.416 160.819 481.257 163.237 487.099 165.656L485.329 164.749C497.72 158.552 510.289 151.147 523.034 146.159Z" fill="#00255E"/>
<path fill-rule="evenodd" clip-rule="evenodd" d="M288.306 79.3564C288.306 87.6689 287.952 96.1326 289.191 104.294C289.545 106.712 289.722 111.549 291.846 112.758C293.97 114.118 295.918 112.607 296.626 109.886C297.157 106.712 295.918 102.027 295.741 98.702C295.564 94.1678 295.564 89.7848 295.564 85.2507C295.564 82.0769 296.449 76.7871 293.262 75.1246C291.138 73.9155 288.306 76.1825 288.306 79.3564Z" fill="#00255E"/>
<path fill-rule="evenodd" clip-rule="evenodd" d="M393.987 66.2074C371.859 68.9279 349.378 69.3813 327.073 71.0438C316.629 71.6484 304.415 70.8927 294.679 75.729C292.908 76.6359 286.536 81.7745 291.669 83.7393C293.262 84.3439 294.856 82.2279 296.272 81.4723C298.573 80.2632 301.051 79.9609 303.353 79.3563C323.533 75.2756 344.598 76.1825 365.132 74.2177C370.266 73.7643 375.577 73.3109 380.887 72.7063C384.605 72.2529 392.394 68.9279 395.934 70.5904C401.953 73.462 401.599 92.3541 401.953 98.853C402.13 102.178 399.297 114.269 404.608 113.211C408.679 112.304 407.263 99.7598 406.909 96.1325C406.024 87.2155 404.608 64.9983 393.987 66.2074Z" fill="#00255E"/>
<path fill-rule="evenodd" clip-rule="evenodd" d="M402.307 112.758C383.188 115.025 363.362 112.758 344.067 113.665C333.977 114.118 323.71 114.874 313.797 115.176C309.548 115.327 304.946 115.327 300.697 115.327C298.573 115.327 289.014 116.838 295.033 122.128C297.688 124.395 306.008 122.582 308.84 122.582C313.443 122.43 317.868 122.279 322.294 122.128C332.738 121.675 343.005 120.919 353.626 120.617C363.539 120.163 373.629 120.163 383.543 119.861C388.499 119.71 393.456 119.408 398.412 118.652C399.474 118.501 403.192 118.199 403.9 116.687C404.608 115.025 404.077 112.455 402.307 112.758Z" fill="#00255E"/>
<path fill-rule="evenodd" clip-rule="evenodd" d="M307.778 94.7725C307.601 95.0747 307.601 95.0747 307.778 94.7725V94.7725ZM315.921 91.7497C316.275 91.9009 316.275 91.9009 315.921 91.7497V91.7497ZM315.744 91.5986C320.346 97.3418 313.266 103.992 309.194 98.5509C304.592 92.6565 312.735 91.5986 315.744 91.5986ZM310.787 82.9838C295.387 86.3088 300.874 112.002 315.213 108.224C321.586 106.712 325.126 98.702 323.002 91.1452C322.294 88.1224 320.346 84.9485 317.691 84.0417C316.452 83.5883 315.213 84.344 313.974 84.1929C312.912 83.7395 312.381 82.6815 310.787 82.9838Z" fill="#00255E"/>
<path fill-rule="evenodd" clip-rule="evenodd" d="M369.912 90.0871C360.53 90.0871 351.325 90.5405 341.943 90.8428C339.111 90.9939 331.676 89.3314 331.676 94.9235C331.676 100.969 339.819 98.7019 342.474 98.5508C351.856 98.2485 361.061 97.7951 370.266 96.586C372.567 96.2837 380.71 96.7372 380.71 92.9587C380.887 89.0292 371.859 90.0871 369.912 90.0871Z" fill="#00255E"/>
<path fill-rule="evenodd" clip-rule="evenodd" d="M392.216 129.232C369.204 129.987 346.014 130.29 323.179 131.65C314.682 132.103 306.008 132.557 297.334 132.557C295.741 132.557 292.377 131.801 290.784 133.01C286.536 136.486 291.315 139.509 294.148 139.811C313.089 141.172 332.207 137.846 351.148 137.242C362.123 136.789 373.275 136.789 384.428 136.033C387.437 135.882 390.446 135.579 393.456 135.428C395.049 135.277 399.828 135.731 401.067 134.521C407.263 128.778 394.341 129.081 392.216 129.232Z" fill="#00255E"/>
<path fill-rule="evenodd" clip-rule="evenodd" d="M286.536 143.136C286.359 150.542 286.182 157.797 287.067 165.202C287.421 168.074 287.598 171.399 290.253 172.155C292.908 172.759 293.97 170.492 294.502 167.923C295.741 161.575 294.679 152.507 294.679 146.008C294.679 142.834 294.679 139.056 291.492 138.3C288.837 137.695 286.536 139.811 286.536 143.136Z" fill="#00255E"/>
<path fill-rule="evenodd" clip-rule="evenodd" d="M416.645 160.97C379.294 163.389 341.943 165.504 304.592 167.469C301.759 167.62 279.101 167.318 286.89 177.142C289.368 180.165 295.741 178.049 298.75 177.898C303.53 177.595 308.132 177.444 313.089 176.991C331.853 175.782 350.794 175.48 369.558 174.119C380.002 173.364 390.269 172.155 400.713 170.794C405.67 170.039 411.689 170.19 416.291 167.772C418.769 166.562 421.248 160.668 416.645 160.97Z" fill="#00255E"/>
<path fill-rule="evenodd" clip-rule="evenodd" d="M395.226 123.337C392.571 126.813 393.81 133.917 393.987 138.149C394.341 144.194 394.518 150.089 395.226 155.983C395.58 159.912 395.403 165.656 396.996 169.283C398.766 173.212 403.192 172.759 404.962 168.981C406.555 165.807 405.67 158.552 405.67 154.925C405.493 149.786 405.316 144.799 405.139 139.66C404.962 135.428 405.67 128.627 403.723 125C402.13 121.221 398.058 120.163 395.226 123.337Z" fill="#00255E"/>
<path fill-rule="evenodd" clip-rule="evenodd" d="M309.902 150.542C309.548 150.844 309.548 150.844 309.902 150.542V150.542ZM316.629 149.484C322.648 150.995 312.735 160.064 309.548 153.716C309.017 152.809 308.84 151.449 309.548 150.693C310.256 149.937 310.787 151.147 311.318 150.844C312.558 150.542 315.39 149.484 316.629 149.484ZM315.744 142.229C311.496 142.683 305.654 142.985 303.53 148.275C300.874 155.227 305.477 162.18 310.964 163.237C316.275 164.295 324.241 160.668 324.595 152.809C325.303 146.612 320.346 141.625 315.744 142.229Z" fill="#00255E"/>
<path fill-rule="evenodd" clip-rule="evenodd" d="M350.971 146.008C346.722 146.159 338.048 144.497 334.154 147.217C330.26 149.786 332.03 154.472 335.57 155.681C337.871 156.436 341.589 155.227 343.89 155.227C346.899 155.076 350.086 155.076 353.272 154.925C358.406 154.774 363.716 154.925 369.027 154.925C374.338 154.925 379.825 155.076 385.136 154.623C392.039 154.018 391.685 147.67 385.136 146.915C373.806 145.403 362.123 145.706 350.971 146.008Z" fill="#00255E"/>
<path fill-rule="evenodd" clip-rule="evenodd" d="M339.819 216.136C339.819 219.158 341.943 216.136 341.943 216.136C341.943 216.136 339.819 213.264 339.819 216.136Z" fill="#00255E"/>
<path fill-rule="evenodd" clip-rule="evenodd" d="M291.492 192.256C291.669 201.022 291.846 209.637 292.023 218.251C292.2 220.972 291.492 226.262 294.148 227.773C297.157 229.284 298.042 225.506 298.396 222.785C299.458 214.473 298.396 204.951 298.219 196.488C298.219 193.616 298.75 189.686 296.095 188.326C294.148 187.268 291.492 189.384 291.492 192.256Z" fill="#00255E"/>
<path fill-rule="evenodd" clip-rule="evenodd" d="M406.555 192.407C406.732 192.86 406.732 192.86 406.555 192.407V192.407ZM406.732 192.256C406.909 192.407 407.44 192.558 406.732 192.256V192.256ZM350.263 185.152C339.465 185.304 328.843 185.606 318.045 186.059C313.443 186.361 308.663 186.513 304.415 186.966C301.228 187.419 293.085 187.419 290.961 190.744C286.713 197.546 295.918 195.732 297.865 194.976C301.582 193.918 304.946 193.616 308.84 193.465C316.806 193.011 324.772 192.709 332.738 192.407C354.334 191.954 376.108 191.954 397.704 191.954C399.828 191.954 403.723 190.896 405.493 191.954C407.263 193.011 407.263 195.581 407.44 198.755C407.794 202.684 405.67 210.241 407.086 213.717C409.741 218.856 413.105 214.473 413.813 210.695C414.521 205.405 413.282 199.208 412.22 194.069C410.627 187.117 408.148 186.664 402.661 186.21C396.288 185.606 389.738 185.152 383.366 185.001C372.213 185.001 361.238 185.001 350.263 185.152Z" fill="#00255E"/>
<path fill-rule="evenodd" clip-rule="evenodd" d="M392.57 220.972C369.204 224.297 345.306 222.332 321.94 222.483C316.275 222.483 310.433 222.634 304.946 222.937C301.936 223.088 294.856 222.03 292.731 224.901C288.483 230.947 296.272 231.854 299.104 231.703C304.946 231.249 310.61 230.947 316.452 230.947C336.809 230.796 357.344 231.854 377.524 230.645C386.021 230.191 394.341 228.378 402.838 226.413C404.608 225.959 417.53 223.088 410.095 219.461C405.847 217.193 397.173 220.367 392.57 220.972Z" fill="#00255E"/>
<path fill-rule="evenodd" clip-rule="evenodd" d="M624.112 19.9595C626.767 19.9595 630.131 19.5061 632.786 20.1106C637.743 21.3197 637.566 30.388 637.566 34.6198C637.743 42.4789 637.743 50.6403 637.035 58.4995C636.858 61.2199 634.91 64.5449 632.786 60.7665C631.547 58.6506 632.255 53.8142 632.255 51.5471C632.255 43.5369 633.494 35.0732 632.432 27.0629C632.078 24.4936 632.078 24.1913 629.6 24.3425C627.476 24.3425 625.528 24.4936 623.581 24.4936C619.51 24.6447 615.261 24.6447 611.013 24.7959C609.42 24.947 603.755 26.005 599.329 26.005V26.1561C599.506 29.33 597.913 33.1084 597.736 36.4334C597.205 44.2926 597.913 52.454 597.205 60.3131C597.205 60.6154 597.205 60.7665 597.028 61.0688C597.205 61.0688 597.382 61.0688 597.382 61.0688C600.746 60.9176 604.109 60.9176 607.472 60.9176C614.376 60.7665 621.28 61.0688 628.007 60.4642C629.423 60.3131 629.777 62.1267 629.246 63.0336C628.538 64.0915 626.413 64.0915 625.351 64.2427C622.342 64.6961 619.333 64.8472 616.323 64.9983C613.137 65.1495 609.951 65.3006 606.764 65.4518C603.932 65.6029 597.913 66.812 595.258 65.6029C593.311 64.6961 593.488 63.6381 594.019 62.7313C593.488 61.5222 593.488 59.7085 593.488 58.8017C592.957 55.1744 592.78 51.396 592.78 47.6176C592.78 40.2119 592.78 32.655 594.727 25.5516C594.019 25.0982 593.488 24.6447 593.488 24.0402C593.488 19.5061 609.42 20.7152 612.606 20.564C616.146 19.9595 620.041 19.9595 624.112 19.9595Z" fill="#00255E"/>
<path fill-rule="evenodd" clip-rule="evenodd" d="M695.451 65.6029C690.672 66.9631 680.405 66.0563 678.457 66.0563C674.917 66.0563 656.153 68.3234 656.153 64.0915C656.153 63.7893 656.33 63.487 656.507 63.1847C655.976 62.7313 655.445 61.8245 655.268 60.9177C654.206 57.2904 654.029 53.3608 654.029 49.5824C653.852 41.5721 653.852 33.4107 653.852 25.2493V25.5516C653.143 24.6448 653.497 23.4357 654.383 22.68C656.684 20.5641 663.588 21.1686 666.597 21.0175C670.845 20.7152 675.094 20.7152 679.519 20.7152C684.122 20.7152 688.724 20.8663 693.15 20.8663C694.743 21.0175 706.603 21.3198 701.293 24.0402C700.939 24.1914 700.762 24.3425 700.231 24.4936C700.408 25.8539 700.585 27.2141 700.408 27.8187C700.231 32.0505 700.054 36.4335 699.877 40.6653C699.7 45.5017 699.523 50.1869 699.346 55.0233C699.169 57.5927 700.054 63.487 698.106 65.1495C697.044 66.5097 696.159 66.2075 695.451 65.6029ZM687.662 24.6448C683.237 24.6448 678.811 24.4936 674.386 24.6448C669.429 24.7959 664.827 24.947 660.047 25.5516C659.693 25.5516 659.516 25.7027 659.162 25.7027C659.87 28.8766 658.985 33.8641 658.985 36.7357C658.985 44.746 659.339 52.9074 659.516 61.0688C659.516 61.3711 659.516 61.5222 659.516 61.8245C664.65 60.6154 674.563 61.3711 676.51 61.3711C680.404 61.3711 684.122 61.3711 688.016 61.5222C689.255 61.6734 692.088 61.3711 694.389 61.6733C694.389 61.5222 694.389 61.2199 694.389 61.2199C694.212 56.9881 694.389 52.454 694.566 48.3733C694.743 44.1415 694.92 39.6073 695.097 35.3755C695.274 33.1084 694.566 28.4232 695.274 25.2493C692.442 25.0982 689.433 24.6448 687.662 24.6448Z" fill="#00255E"/>
<path fill-rule="evenodd" clip-rule="evenodd" d="M612.252 64.8472C609.597 66.5097 611.013 73.462 611.898 75.8802C613.491 79.8098 616.854 82.8325 620.218 84.9484C627.299 89.0291 637.566 87.9712 643.053 95.0746C643.23 95.2258 644.824 97.0394 645.355 94.6212C645.709 92.5053 642.168 89.4826 640.752 88.4246C636.858 85.553 631.901 84.495 627.476 83.1348C622.696 81.6234 617.563 78.7518 615.615 73.6132C615.261 71.6484 616.5 62.2779 612.252 64.8472Z" fill="#00255E"/>
<path fill-rule="evenodd" clip-rule="evenodd" d="M677.041 68.1721C674.386 68.9278 676.156 72.5551 676.156 74.5199C676.156 76.7869 675.448 79.2051 674.032 81.1699C670.491 85.8552 663.588 86.4597 658.631 87.9711C654.914 88.8779 646.063 91.145 645.709 96.2836C645.355 102.178 653.143 95.0745 653.851 94.7722C661.109 91.9006 670.668 91.5984 676.333 85.2506C678.634 82.6813 680.05 79.2051 680.227 75.729C680.227 73.7642 680.404 67.1142 677.041 68.1721Z" fill="#00255E"/>
<path fill-rule="evenodd" clip-rule="evenodd" d="M637.977 100.458C660.768 98.2493 681.691 104.294 684.68 112.896C687.669 122.08 669.361 129.52 645.076 129.985C623.78 130.334 598.374 124.637 598 115.686C598 107.317 618.923 102.318 637.977 100.458ZM648.812 104.41C649.933 105.108 651.054 106.154 648.439 106.619C644.703 107.549 643.955 105.224 640.966 104.875C637.977 104.527 633.494 105.689 631.252 106.387C627.516 107.433 616.307 113.826 611.45 110.339C595.385 120.685 635.362 128.59 657.779 124.754C682.812 120.336 677.955 104.527 648.812 104.41Z" fill="#00255E"/>
<path fill-rule="evenodd" clip-rule="evenodd" d="M637.92 139.358C638.097 145.403 638.097 151.146 639.159 157.041C639.336 158.25 639.513 162.179 640.398 163.086C642.522 165.051 642.522 161.121 642.522 159.912C642.876 154.623 642.168 149.182 642.168 143.741C642.168 142.532 642.522 140.265 641.814 139.055C640.929 137.091 637.92 136.637 637.92 139.358Z" fill="#00255E"/>
<path fill-rule="evenodd" clip-rule="evenodd" d="M633.848 134.521C625.705 144.194 614.199 143.439 602.693 144.194C596.674 144.648 590.478 145.554 585.699 149.635C583.398 151.6 581.45 153.867 580.211 156.587C579.68 157.797 577.025 164.598 580.919 162.935C582.336 162.482 583.752 157.797 584.814 156.587C586.584 154.018 588.885 151.902 591.718 150.542C596.851 147.973 603.224 147.973 609.066 147.67C615.084 147.217 621.457 147.066 627.122 144.345C629.777 142.985 632.078 141.474 634.202 139.358C634.91 138.602 636.504 137.393 636.681 136.184C636.504 135.277 635.441 132.859 633.848 134.521Z" fill="#00255E"/>
<path fill-rule="evenodd" clip-rule="evenodd" d="M592.249 164.295C584.46 164.598 576.848 164.749 568.882 165.504C567.289 165.656 561.978 165.353 563.395 168.678C564.457 171.399 570.829 169.585 572.954 169.434C581.097 168.981 589.062 168.829 597.205 168.074C598.976 167.923 607.118 167.923 603.755 164.598C602.162 162.935 594.373 164.144 592.249 164.295Z" fill="#00255E"/>
<path fill-rule="evenodd" clip-rule="evenodd" d="M558.438 168.225C555.96 171.55 557.022 179.711 557.199 183.792C557.376 187.722 556.668 194.825 561.447 195.278C559.854 195.127 562.686 195.43 563.04 195.43C564.103 195.581 564.988 195.581 566.05 195.581C568.351 195.581 570.652 195.581 572.954 195.43C578.087 195.278 583.398 195.127 588.531 194.976C590.656 194.825 602.516 194.976 603.047 192.709C603.578 189.686 592.249 191.349 590.302 191.5C585.345 191.802 580.388 191.802 575.432 191.953C572.954 191.953 570.475 192.105 568.174 191.953C567.112 191.953 563.218 192.407 562.509 191.651C561.978 191.198 562.332 185.606 562.332 184.699C562.332 181.978 562.332 179.258 562.509 176.386C562.686 174.422 563.572 171.097 562.863 169.434C561.978 167.318 559.677 166.714 558.438 168.225Z" fill="#00255E"/>
<path fill-rule="evenodd" clip-rule="evenodd" d="M598.444 168.376C598.621 174.422 598.621 180.769 600.038 186.815C600.569 188.78 601.1 192.86 603.047 193.918C604.994 194.976 606.941 193.465 606.941 191.349C607.118 188.78 605.702 185.303 605.525 182.583C605.171 179.409 604.994 176.235 604.994 173.061C604.817 170.794 605.525 167.016 603.401 165.656C601.277 164.295 598.267 165.656 598.444 168.376Z" fill="#00255E"/>
<path fill-rule="evenodd" clip-rule="evenodd" d="M613.845 166.865C611.367 169.434 612.429 177.444 612.783 180.467C612.96 182.734 615.438 194.372 619.156 188.326C620.749 185.757 618.625 178.653 618.625 175.479C618.625 173.515 619.333 170.945 618.979 169.132C618.625 166.562 616.146 164.598 613.845 166.865Z" fill="#00255E"/>
<path fill-rule="evenodd" clip-rule="evenodd" d="M652.435 163.389C657.392 163.389 665.889 162.935 669.429 167.167C671.554 169.736 672.262 173.968 673.324 176.84C673.855 179.258 675.802 183.641 674.563 186.21C674.032 187.419 673.147 188.326 671.731 187.873C671.377 187.722 671.2 187.722 671.023 187.419C671.554 187.873 671.731 188.78 671.554 189.686C670.846 191.651 667.659 191.198 666.066 191.349C660.578 191.802 654.914 192.256 649.426 192.256C644.116 192.407 638.628 192.105 633.317 192.256C628.892 192.256 624.112 193.314 619.687 193.012C617.917 192.86 615.792 192.256 616.323 189.838C616.854 187.571 618.979 187.571 620.572 187.419C625.705 186.966 631.016 186.664 636.327 186.664C647.302 186.664 658.454 186.664 669.606 186.513C670.137 186.513 670.491 186.664 670.846 186.966C670.314 186.21 670.491 185.152 670.314 184.094C669.96 181.223 669.783 178.351 669.252 175.631C668.721 173.364 668.544 169.585 666.597 167.923C664.473 166.411 659.516 166.865 656.861 166.714C649.78 166.563 642.522 167.167 635.442 167.772C632.255 168.074 628.892 168.225 625.883 168.981C624.112 169.434 618.802 172.003 617.563 170.341C614.022 166.26 629.069 164.598 631.193 164.295C637.92 163.842 645.001 163.389 652.435 163.389Z" fill="#00255E"/>
<path fill-rule="evenodd" clip-rule="evenodd" d="M707.666 155.529C708.02 155.983 708.02 155.983 707.666 155.529V155.529ZM658.631 130.592C654.206 133.312 662.349 141.171 664.473 142.381C669.252 145.101 675.625 145.554 680.759 146.31C687.308 147.217 694.389 147.67 700.939 149.937C703.594 150.844 705.364 152.356 706.957 154.774C707.843 155.983 709.967 160.97 711.914 159.761C715.808 157.494 705.187 147.368 702.886 146.31C697.575 143.892 691.203 143.136 685.538 142.229C680.228 141.323 674.74 140.718 669.606 139.055C666.774 138.149 664.65 136.788 663.057 134.068C662.172 132.405 661.286 128.929 658.631 130.592Z" fill="#00255E"/>
<path fill-rule="evenodd" clip-rule="evenodd" d="M726.076 161.575C728.377 161.424 731.563 161.273 733.51 163.086C735.635 165.202 736.166 170.341 736.697 173.061C737.405 176.084 738.29 179.107 738.467 182.13C738.644 182.885 738.821 184.094 738.644 185.303C739.706 185.455 740.237 186.513 740.06 187.57C739.883 189.535 737.228 189.838 735.635 190.14C730.501 191.198 724.836 191.047 719.526 191.047C708.374 191.349 696.513 193.314 685.538 192.105C683.768 191.953 681.644 191.198 681.998 188.78C680.582 186.21 680.228 180.92 679.873 180.014C679.342 175.782 679.342 171.399 679.342 167.167C679.342 164.9 681.998 163.691 683.591 164.9C685.892 163.993 689.61 163.691 691.734 163.54C695.097 163.086 698.638 163.086 701.824 162.935C710.321 162.633 718.287 161.726 726.076 161.575ZM731.917 167.469C730.678 164.598 729.616 165.202 726.607 165.504C723.42 165.656 720.234 165.958 717.048 166.411C709.967 166.865 703.063 167.318 695.982 167.923C692.265 168.225 688.724 169.283 685.007 169.736H685.361C685.184 171.097 685.007 172.306 685.184 173.364C685.184 175.48 685.361 177.444 685.538 179.409L685.715 181.827C685.892 183.036 686.246 185.001 686.246 186.815C686.777 186.815 687.131 186.815 687.485 186.815C693.15 186.664 698.638 186.513 704.302 186.361C709.967 186.21 715.808 185.908 721.296 185.908C725.899 185.757 730.678 186.361 734.927 186.059C733.864 183.49 734.219 179.107 733.51 176.386C733.156 173.212 732.979 169.887 731.917 167.469Z" fill="#00255E"/>
<path fill-rule="evenodd" clip-rule="evenodd" d="M1.60147 479.412C-24.3692 399.885 270.318 270.957 537.551 243.931C804.784 216.905 948.63 334.202 836.797 443.303C724.964 552.404 27.6781 558.939 1.60147 479.412Z" fill="#F4F3EA"/>
<path fill-rule="evenodd" clip-rule="evenodd" d="M85.9014 421.425C84.1171 429.899 66.275 520.908 66.275 520.908C66.275 520.908 66.7405 523.193 69.6108 523.561C72.481 523.93 74.0325 521.793 74.0325 521.793L99.089 423.562L85.9014 421.425Z" fill="#173C5A"/>
<path fill-rule="evenodd" clip-rule="evenodd" d="M144.703 423.414C146.72 431.815 169.992 522.161 169.992 522.161C169.992 522.161 171.388 524.224 174.258 523.782C177.129 523.34 177.672 520.982 177.672 520.982L158.045 422.014L144.703 423.414Z" fill="#173C5A"/>
<path fill-rule="evenodd" clip-rule="evenodd" d="M174.181 423.12C176.198 431.521 199.47 521.866 199.47 521.866C199.47 521.866 200.866 523.93 203.737 523.487C206.607 523.045 207.15 520.687 207.15 520.687L187.524 421.72L174.181 423.12Z" fill="#173C5A"/>
<path fill-rule="evenodd" clip-rule="evenodd" d="M189.851 425.036L82.4105 425.183C78.2991 425.183 75.041 422.604 75.041 419.361C75.041 416.193 78.3767 413.54 82.4105 413.54L189.851 413.392C193.962 413.392 197.221 415.972 197.221 419.214C197.143 422.457 193.885 425.036 189.851 425.036Z" fill="#CED6DD"/>
<path fill-rule="evenodd" clip-rule="evenodd" d="M126.914 238.9C122.277 233.461 119.139 226.795 119.663 219.326C121.174 197.804 151.151 202.538 156.982 213.401C162.813 224.263 162.12 251.816 154.584 253.757C151.578 254.532 145.176 252.635 138.66 248.71L142.75 277.628H118.6L126.914 238.9Z" fill="#B28B67"/>
<path fill-rule="evenodd" clip-rule="evenodd" d="M109.135 212.162C108.355 211.389 107.929 210.286 107.561 209.239C107.179 208.152 106.807 207.053 106.554 205.921C106.047 203.659 106.042 201.057 107.656 199.301C108.951 197.893 110.894 197.261 112.687 197.124C113.882 197.032 115.109 197.199 116.254 197.575C117.39 197.949 118.37 198.693 119.471 199.154C119.513 196.717 119.931 194.166 121.169 192.085C122.359 190.082 124.258 188.959 126.42 188.661C128.639 188.356 130.83 188.875 132.816 189.949C133.314 190.218 133.806 190.499 134.278 190.818C134.673 191.085 135.083 191.407 135.547 191.515C136.063 191.636 136.319 191.338 136.655 190.962C137.048 190.52 137.492 190.131 137.961 189.787C140.035 188.263 142.757 187.636 145.161 188.549C146.268 188.97 147.345 189.685 148.096 190.67C148.766 191.548 149.244 192.941 150.168 193.553C150.56 193.812 150.837 193.468 151.195 193.214C151.731 192.832 152.243 192.41 152.786 192.039C153.548 191.516 154.374 191.126 155.258 190.921C156.553 190.622 158.341 190.692 158.711 192.387C158.85 193.023 158.744 193.704 158.699 194.345C158.637 195.226 158.573 196.106 158.497 196.985C158.438 197.653 158.365 198.297 158.239 198.953C158.172 199.302 157.961 199.954 158.111 200.304C158.299 200.741 159.163 200.492 159.533 200.508C160.263 200.538 160.995 200.666 161.67 200.977C162.193 201.219 162.743 201.574 162.963 202.173C163.099 202.541 163.063 202.919 162.999 203.298C162.922 203.752 163.01 203.993 163.068 204.451C164.048 203.969 167.444 202.897 167.871 204.653C168.014 205.237 167.69 205.898 167.443 206.391C167.009 207.255 166.441 208.045 165.86 208.799C164.647 210.371 163.2 211.727 161.643 212.887C163.468 213.697 163.944 216.088 162.364 217.512C161.667 218.141 160.73 218.281 159.85 218.241C159.528 218.226 159.064 218.102 158.811 218.158C158.674 218.189 158.528 218.304 158.339 218.317C157.098 218.402 155.697 218.103 154.483 217.828C152.321 217.337 150.274 216.313 148.602 214.754C148.174 214.354 147.819 214.124 147.242 214.13C146.736 214.135 146.24 214.273 145.735 214.286C144.398 214.32 143.192 213.667 141.951 213.232C141.875 214.909 141.397 216.755 140.711 218.263C140.151 219.493 138.983 219.671 137.835 219.779C134.164 220.124 130.479 219.739 126.803 219.744C130.362 220.548 134.039 220.879 137.566 221.825C139.16 222.253 137.943 223.327 137.261 224.071C136.139 225.297 135.304 226.816 134.725 228.416C132.984 226.148 129.908 224.654 127.182 225.351C124.17 226.12 122.049 230.191 123.975 233.117C125.093 234.816 127.112 235.472 128.792 236.202C127.482 237.564 127.165 239.575 126.376 241.27C125.987 242.105 125.441 243.05 124.57 243.341C124.248 243.449 123.871 243.458 123.617 243.721C123.302 244.045 123.227 244.408 122.826 244.688C121.222 245.801 118.718 245.716 117.297 244.262C116.012 242.947 116.346 240.867 117.42 239.534C115.711 238.822 112.599 237.907 113.278 235.247C109.576 235.001 100.588 229.001 105.556 224.616C102.829 223.076 100.324 219.312 102.076 215.994C103.425 213.439 106.561 212.297 109.135 212.162Z" fill="#191847"/>
<path fill-rule="evenodd" clip-rule="evenodd" d="M248.359 381.972C256.648 376.998 270.553 383.388 270.544 390.502C270.515 411.786 251.08 512.099 250.065 518.44C249.05 524.782 238.179 526.457 237.546 518.461C236.539 505.739 234.668 461.697 236.54 441.312C237.313 432.898 238.145 424.884 238.965 417.734C228.766 436.141 212.994 462.495 191.647 496.796L180.058 491.504C189.158 461.54 196.62 440.385 202.444 428.041C212.416 406.906 221.766 388.806 225.701 382.43C231.891 372.401 242.666 375.901 248.359 381.972Z" fill="#B28B67"/>
<path fill-rule="evenodd" clip-rule="evenodd" d="M180.887 474.864L220.661 380.696C230.19 365.377 256.905 383.813 253.656 392.698C246.279 412.869 208.76 478.171 206.562 484.181L180.887 474.864Z" fill="#1F28CF"/>
<path fill-rule="evenodd" clip-rule="evenodd" d="M178.678 485.566C176.2 487.604 174.588 489.269 173.843 490.561C172.935 492.131 171.873 494.574 170.656 497.889C172.479 498.941 188.863 508.395 219.807 526.25C223.522 522.767 224.101 520.063 221.543 518.139C218.986 516.214 216.875 514.591 215.212 513.27L198.247 489.91C197.92 489.46 197.291 489.36 196.841 489.687C196.834 489.692 196.826 489.698 196.819 489.704L193.294 492.416C190.06 492.134 187.647 491.534 186.054 490.615C184.76 489.868 183.275 488.315 181.598 485.954L181.598 485.954C180.954 485.049 179.698 484.836 178.792 485.479C178.753 485.506 178.715 485.536 178.678 485.566Z" fill="#E4E4E4"/>
<path fill-rule="evenodd" clip-rule="evenodd" d="M235.001 513.357C233.875 516.36 233.312 518.608 233.312 520.099C233.312 521.912 233.615 524.559 234.219 528.038C236.324 528.038 255.242 528.038 290.974 528.038C292.449 523.165 291.597 520.534 288.42 520.145C285.242 519.757 282.602 519.406 280.501 519.093L254.122 507.34C253.614 507.114 253.019 507.342 252.793 507.849C252.789 507.858 252.785 507.867 252.782 507.875L251.086 511.986C248.145 513.358 245.754 514.044 243.915 514.044C242.421 514.044 240.357 513.44 237.724 512.234L237.724 512.234C236.714 511.771 235.519 512.215 235.056 513.224C235.036 513.268 235.018 513.312 235.001 513.357Z" fill="#E4E4E4"/>
<path fill-rule="evenodd" clip-rule="evenodd" d="M273.331 397.737C273.331 424.455 260.636 486.776 260.628 492.659L233.313 492.68C237.311 437.071 238.728 408.967 237.566 408.368C235.822 407.47 166.071 415.328 145.151 415.328C114.985 415.328 102.506 396.317 101.494 361.098H161.251C173.418 362.399 236.884 375.193 260.453 379.591C270.544 381.473 273.331 390.377 273.331 397.737Z" fill="#2B44FF"/>
<path fill-rule="evenodd" clip-rule="evenodd" d="M118.904 262.832C119.139 262.068 119.377 261.301 119.619 260.532L120.513 260.952C120.652 260.808 120.793 260.668 120.934 260.532L149.1 264.885C149.1 280.714 161.702 295.526 169.675 308.269C182.068 328.078 204.121 350.036 189.981 379.465C177.241 405.983 144.056 410.289 90.425 392.384C90.425 378.101 102.171 363.743 102.546 346.376C102.902 329.843 105.995 279.753 118.904 262.832Z" fill="#C1DEE2"/>
<path fill-rule="evenodd" clip-rule="evenodd" d="M153.891 371.946C155.774 362.231 156.996 355.746 157.557 352.489C172.562 369.435 181.23 378.007 183.562 378.203C187.948 378.573 191.189 374.686 192.112 375.779C193.637 380.304 189.329 391.632 181.095 393.279C177.163 394.066 171.079 385.962 168.572 383.091C167.586 381.962 162.692 378.247 153.891 371.946ZM179.81 320.15C183.7 320.15 185.789 321.757 188.089 325C190.389 328.242 192.565 343.534 188.873 343.534C185.18 343.534 169.71 337.623 169.71 333.649C169.71 329.674 180.266 327.991 180.266 325C180.266 322.008 175.92 320.15 179.81 320.15Z" fill="#B28B67"/>
<path fill-rule="evenodd" clip-rule="evenodd" d="M146.038 386.73C145.807 387.557 145.572 388.399 145.332 389.257C101.262 358.474 101.241 321.17 114.347 279.357C104.468 320.521 108.493 355.238 146.038 386.73Z" fill="black" fill-opacity="0.2"/>
<path fill-rule="evenodd" clip-rule="evenodd" d="M288.158 405.334C286.373 413.809 268.531 504.818 268.531 504.818C268.531 504.818 268.997 507.102 271.867 507.471C274.737 507.839 276.289 505.702 276.289 505.702L301.345 407.471L288.158 405.334Z" fill="#173C5A"/>
<path fill-rule="evenodd" clip-rule="evenodd" d="M346.959 407.324C348.976 415.725 372.248 506.07 372.248 506.07C372.248 506.07 373.644 508.134 376.515 507.692C379.385 507.25 379.928 504.891 379.928 504.891L360.302 405.924L346.959 407.324Z" fill="#173C5A"/>
<path fill-rule="evenodd" clip-rule="evenodd" d="M376.437 407.029C378.454 415.43 401.726 505.776 401.726 505.776C401.726 505.776 403.123 507.839 405.993 507.397C408.863 506.955 409.406 504.597 409.406 504.597L389.78 405.629L376.437 407.029Z" fill="#173C5A"/>
<path fill-rule="evenodd" clip-rule="evenodd" d="M392.107 408.945L284.667 409.092C280.555 409.092 277.297 406.513 277.297 403.271C277.297 400.102 280.633 397.449 284.667 397.449L392.107 397.302C396.219 397.302 399.477 399.881 399.477 403.124C399.399 406.366 396.141 408.945 392.107 408.945Z" fill="#CED6DD"/>
<path fill-rule="evenodd" clip-rule="evenodd" d="M331.138 234.25C326.891 229.157 324.017 222.917 324.497 215.924C325.881 195.775 353.335 200.207 358.675 210.377C364.016 220.546 363.381 246.341 356.479 248.159C353.727 248.884 347.863 247.108 341.895 243.433L345.641 270.507H323.523L331.138 234.25Z" fill="#B28B67"/>
<path fill-rule="evenodd" clip-rule="evenodd" d="M346.069 198.656C343.154 198.168 335.305 197.832 333.857 197.832C332.932 197.832 331.93 198.048 331.382 197.181C330.933 196.47 331.098 195.268 330.964 194.444C330.808 193.486 330.587 192.54 330.364 191.597C329.728 188.913 328.767 186.36 327.422 183.963C324.899 179.465 321.202 175.942 316.535 173.892C311.381 171.629 305.549 171.111 300.005 171.57C294.072 172.061 288.702 174.062 283.101 175.945C277.763 177.739 272.172 178.445 266.59 177.569C260.965 176.686 256.715 173.572 251.971 170.616C247.114 167.589 241.563 165.61 235.821 166.065C230.462 166.49 225.522 168.751 221.09 171.771C216.943 174.597 213.522 177.996 211.59 182.781C209.512 187.928 209.514 193.578 212.931 198.127C217.884 204.721 227.08 206.426 234.73 206.256C239.155 206.159 243.501 205.333 247.678 203.832C253.25 201.83 258.064 198.437 263.277 195.684C265.723 194.392 268.251 193.331 270.902 192.566C273.473 191.824 276.006 191.484 278.335 193.071C280.798 194.75 283.005 196.4 285.823 197.451C288.527 198.459 291.39 199.023 294.27 199C299.874 198.956 305.398 197.172 310.841 195.978C315.279 195.004 320.028 194.033 324.553 194.969C326.441 195.36 329.199 196.167 329.881 198.171C318.403 200.297 313.895 214.798 317.131 225.444C318.877 231.19 329.375 237.907 333.457 234.886C336.043 232.972 334.473 230.46 333.457 228.801C331.511 225.625 330.846 221.546 334.446 219.334C337.551 217.427 340.816 221.956 340.878 221.951C341.732 221.882 349.107 217.621 354.188 211.403C359.201 211.707 359.961 208.33 358.765 205.568C357.568 202.807 350.097 199.331 346.069 198.656Z" fill="#191847"/>
<path fill-rule="evenodd" clip-rule="evenodd" d="M448.406 501.796C436.598 475.097 428.059 451.848 424.631 439.582C418.762 418.579 414.297 400.098 413.169 393.197C410.478 376.739 433.869 375.78 436.961 383.96C441.641 396.339 449.81 437.014 459.627 498.452L448.406 501.796ZM311.44 418.006C322.274 413.631 360.213 399.94 378.511 396.067C383.77 394.954 388.866 393.92 393.658 392.985C407.9 390.208 415.278 416.456 401.561 418.473C367.401 423.496 318.973 428.682 314.829 429.264C309.02 430.08 304.631 420.755 311.44 418.006Z" fill="#B28B67"/>
<path fill-rule="evenodd" clip-rule="evenodd" d="M402.399 385.762L343.798 355.286V348.652H350.767C407.461 363.41 436.431 372.869 437.678 377.026C437.692 377.071 437.704 377.116 437.715 377.161C437.744 377.199 437.772 377.238 437.799 377.276C449.035 393.062 455.764 470.131 457.972 475.901L436.443 479.183C428.207 447.983 401.858 426.248 402.558 388.881C402.369 387.785 402.321 386.745 402.399 385.762Z" fill="#4E9543"/>
<path fill-rule="evenodd" clip-rule="evenodd" d="M348.667 403.862C343.305 402.765 338.367 401.787 334.142 401.029C306.851 396.139 298.893 381.215 303.598 348.651H353.882C362.096 351.062 404.783 369.35 426.931 379.077C441.59 385.515 436.969 408.724 428.667 414.763C428.622 415.134 428.473 415.386 428.207 415.498C383.552 434.406 348.226 424.485 336.425 427.655L330.967 410.064L348.667 403.862Z" fill="#76E265"/>
<path fill-rule="evenodd" clip-rule="evenodd" d="M315.144 415.21C312.218 415.496 310.141 415.945 308.913 416.557C307.42 417.301 305.361 418.641 302.738 420.577C303.584 422.348 311.179 438.257 325.524 468.306C330.13 467.546 331.955 465.75 330.999 462.919C330.044 460.087 329.273 457.723 328.687 455.827L327.777 428.82C327.759 428.301 327.332 427.894 326.824 427.912C326.815 427.912 326.806 427.912 326.798 427.913L322.731 428.174C320.42 426.263 318.896 424.534 318.157 422.988C317.557 421.731 317.226 419.748 317.162 417.039L317.162 417.039C317.138 416 316.293 415.177 315.275 415.202C315.232 415.203 315.188 415.206 315.144 415.21Z" fill="#E4E4E4"/>
<path fill-rule="evenodd" clip-rule="evenodd" d="M443.032 496.846C442.001 499.658 441.486 501.761 441.486 503.157C441.486 504.855 441.763 507.333 442.316 510.59C444.244 510.59 461.57 510.59 494.295 510.59C495.646 506.028 494.866 503.565 491.956 503.201C489.046 502.838 486.628 502.509 484.703 502.216L460.544 491.213C460.079 491.001 459.534 491.214 459.327 491.689C459.324 491.697 459.32 491.706 459.317 491.714L457.764 495.562C455.07 496.847 452.88 497.489 451.196 497.489C449.828 497.489 447.938 496.924 445.526 495.795L445.526 495.795C444.601 495.361 443.507 495.776 443.083 496.722C443.064 496.762 443.048 496.804 443.032 496.846Z" fill="#E4E4E4"/>
<path fill-rule="evenodd" clip-rule="evenodd" d="M400.936 322.87L434.329 307.888C440.179 301.933 445.828 297.407 451.275 294.31C452.904 293.78 455.687 293.62 452.718 298.051C449.749 302.481 446.821 307.278 448.007 308.831C449.194 310.384 452.63 308.67 453.988 311.195C454.893 312.878 449.1 314.892 436.608 317.236L411.599 336.826L400.936 322.87ZM265.932 326.997L284.817 330.825C265.825 366.984 255.64 386.148 254.262 388.317C251.161 393.199 254.054 402.145 255.123 406.856C248.418 408.451 251.062 398.142 242.578 400.294C234.834 402.259 228.268 407.301 221.047 400.501C220.159 399.665 219.509 397.052 222.536 395.711C230.077 392.372 241.219 386.12 243.025 383.692C245.489 380.382 253.124 361.484 265.932 326.997Z" fill="#B28B67"/>
<path fill-rule="evenodd" clip-rule="evenodd" d="M336.144 254.814L344.113 253.417C361.471 270.619 368.554 311.945 380.121 317.415C391.058 322.587 406.561 317.582 424.989 310.824L430.633 323.706C413.889 342.212 378.218 357.847 363.76 348.921C340.643 334.651 335.306 283.682 336.144 254.814Z" fill="#E3110A"/>
<path fill-rule="evenodd" clip-rule="evenodd" d="M301.405 357.125C333.358 357.125 356.862 357.125 371.917 357.125C375.139 357.125 374.532 352.372 374.066 349.974C368.691 322.293 347.707 292.455 347.707 253.052L327.368 249.794C310.545 277.435 304.727 311.466 301.405 357.125Z" fill="#DDE3E9"/>
<path fill-rule="evenodd" clip-rule="evenodd" d="M294.373 329.099C279.998 355.588 267.916 374.659 258.126 386.312L243.346 383.354C252.866 323.034 280.436 278.514 326.056 249.794H329.727L334.109 249.794C352.368 313.38 357.401 355.748 349.21 376.897H285.738C286.743 361.422 289.962 345.056 294.373 329.099H294.373Z" fill="#FF4133"/>
<path fill-rule="evenodd" clip-rule="evenodd" d="M774.471 135.349C777.726 131.531 779.929 126.852 779.561 121.608C778.5 106.501 757.458 109.824 753.365 117.449C749.272 125.074 749.758 144.415 755.048 145.778C757.158 146.322 761.652 144.99 766.226 142.235L763.355 162.535H780.307L774.471 135.349Z" fill="#B28B67"/>
<path fill-rule="evenodd" clip-rule="evenodd" d="M745.855 106.879C746.206 105.646 747.15 104.59 748.422 104.276C748.731 104.2 749.05 104.17 749.367 104.183C749.481 104.187 749.513 104.22 749.566 104.14C749.606 104.081 749.607 103.937 749.623 103.868C749.673 103.652 749.737 103.439 749.815 103.232C750.081 102.524 750.528 101.898 751.068 101.37C752.077 100.383 753.44 99.7022 754.856 99.579C755.631 99.5116 756.401 99.6375 757.134 99.8895C757.513 100.02 757.881 100.182 758.239 100.362C758.347 100.416 758.697 100.681 758.806 100.664C758.925 100.645 759.166 100.348 759.263 100.273C760.465 99.3517 761.949 98.9894 763.445 99.0002C765.135 99.013 766.762 99.0973 768.171 100.127C768.469 100.345 768.754 100.583 769.024 100.834C769.167 100.967 769.304 101.104 769.436 101.247C769.515 101.333 769.593 101.421 769.667 101.512C769.793 101.666 769.773 101.716 769.95 101.609C770.628 101.197 771.414 101.004 772.206 101.102C772.676 101.159 773.133 101.3 773.567 101.486C773.715 101.549 774.057 101.801 774.215 101.804C774.371 101.806 774.708 101.573 774.869 101.513C775.739 101.192 776.677 101.113 777.591 101.261C778.534 101.414 779.46 101.79 780.259 102.31C780.643 102.56 780.978 102.837 781.248 103.208C781.364 103.369 781.469 103.539 781.601 103.687C781.678 103.775 781.831 103.864 781.872 103.974C781.847 103.908 782.903 103.501 783.003 103.475C783.534 103.337 784.074 103.365 784.594 103.536C785.572 103.857 786.412 104.578 787.103 105.317C787.458 105.697 787.769 106.117 788.032 106.564C788.159 106.778 788.274 106.999 788.38 107.224C788.431 107.332 788.465 107.469 788.533 107.567C788.619 107.694 788.678 107.696 788.835 107.751C789.635 108.031 790.365 108.505 790.92 109.146C791.482 109.794 791.846 110.592 791.999 111.433C792.008 111.482 792.014 111.688 792.043 111.714C792.082 111.751 792.243 111.735 792.304 111.742C792.515 111.767 792.724 111.804 792.931 111.852C793.311 111.943 793.682 112.075 794.032 112.248C795.398 112.924 796.375 114.19 796.853 115.615C797.355 117.111 797.346 118.824 796.746 120.292C796.65 120.529 796.534 120.759 796.399 120.976C796.316 121.11 796.289 121.11 796.343 121.251C796.403 121.407 796.513 121.558 796.585 121.711C796.818 122.208 796.98 122.735 797.083 123.274C797.252 124.158 797.336 125.086 797.169 125.977C797.092 126.39 796.957 126.794 796.752 127.163C796.647 127.35 796.524 127.528 796.386 127.693C796.314 127.779 796.237 127.86 796.158 127.939C796.112 127.983 796.052 128.022 796.013 128.072C795.918 128.194 795.898 128.094 795.947 128.273C796.016 128.523 796.171 128.769 796.266 129.012C796.363 129.263 796.452 129.517 796.533 129.774C796.696 130.293 796.835 130.822 796.921 131.36C797.088 132.393 797.058 133.494 796.569 134.442C796.36 134.847 796.061 135.203 795.697 135.48C795.519 135.615 795.326 135.732 795.124 135.828C795.02 135.877 794.887 135.898 794.84 135.999C794.789 136.107 794.864 136.321 794.882 136.442C795.032 137.492 795.107 138.596 794.795 139.625C794.507 140.573 793.873 141.411 793.051 141.965C791.455 143.04 789.303 142.98 787.626 142.119C787.189 141.894 786.78 141.616 786.415 141.287C785.486 142.537 783.574 142.497 782.217 142.141C780.525 141.698 779.168 140.522 778.386 138.978C777.316 140.279 775.072 139.856 774.33 138.445C774.149 138.1 774.041 137.719 773.988 137.334C773.96 137.131 773.978 136.927 773.957 136.726C773.93 136.47 773.759 136.221 773.661 135.973C773.469 135.491 773.35 134.993 773.345 134.473C773.343 134.201 773.377 133.937 773.403 133.667C773.426 133.425 773.359 133.199 773.321 132.96C773.754 133.031 774.283 132.914 774.692 132.788C775.093 132.665 775.468 132.34 775.752 132.043C776.409 131.354 776.81 130.451 777.085 129.552C777.688 127.578 777.441 125.211 775.455 124.128C774.53 123.624 771.758 123.625 770.656 123.875C769.498 124.137 768.184 126.692 768.12 126.932C768.08 127.08 768.1 127.264 767.963 127.363C767.663 127.581 767.168 127.203 766.946 127.017C766.564 126.695 766.292 126.267 766.055 125.832C765.541 124.887 765.126 123.873 764.833 122.837C764.608 122.039 764.463 121.216 764.168 120.438C763.874 119.664 763.411 118.972 762.691 118.534C761.908 118.057 761.01 117.805 760.151 117.506C759.298 117.208 758.461 116.845 757.8 116.215C757.655 116.076 757.514 115.929 757.397 115.766C757.305 115.637 757.214 115.39 757.073 115.309C756.854 115.182 756.535 115.512 756.346 115.632C755.413 116.224 754.635 117.05 754.008 117.952C753.384 118.849 752.872 119.712 752.455 120.714C752.147 121.457 751.954 122.408 751.411 123.017C751.169 123.289 749.367 123.453 748.784 123.216C748.2 122.979 747.546 122.362 747.35 121.976C747.15 121.581 747.102 121.147 747.188 120.714C747.238 120.459 747.341 120.221 747.397 119.971C747.445 119.761 747.488 119.563 747.59 119.37C747.784 119.006 748.115 118.743 748.514 118.634C748.099 118.251 747.754 117.792 747.516 117.28C747.268 116.748 747.058 116.101 746.999 115.517C746.95 115.042 747.025 114.551 747.285 114.143C747.558 113.715 748.041 113.436 748.458 113.169C747.82 112.67 747.274 112.063 746.825 111.391C745.951 110.084 745.411 108.437 745.855 106.879Z" fill="#CECED0"/>
<path fill-rule="evenodd" clip-rule="evenodd" d="M785.951 221.144L751.988 310.958L728.183 377.156H714.609L747.332 221.144L785.951 221.144Z" fill="#DD9744"/>
<path fill-rule="evenodd" clip-rule="evenodd" d="M794.345 221.144C794.714 251.961 794.447 293.451 795.307 295.372C795.88 296.653 813.717 311.244 848.816 339.146L841.82 351.036C800.149 324.179 778.248 308.962 776.118 305.384C772.922 300.016 756.867 250.626 748.514 221.144H794.345Z" fill="#FFD02B"/>
<path fill-rule="evenodd" clip-rule="evenodd" d="M861.125 347.148L849.308 338.159L839.773 349.516C839.04 358.077 836.203 367.678 831.264 378.32L833.429 380.135L850.682 359.585L855.502 351.648L856.585 352.555L861.125 347.148Z" fill="#CECED0"/>
<path fill-rule="evenodd" clip-rule="evenodd" d="M729.443 389.863L728.736 375.038H713.903C706.869 379.98 697.687 383.98 686.355 387.039V389.863H713.196L722.379 388.451V389.863H729.443Z" fill="#CECED0"/>
<path fill-rule="evenodd" clip-rule="evenodd" d="M725.207 193.117L697.318 189.315C691.739 186.213 686.606 184.114 681.921 183.016C680.602 182.978 678.505 183.457 681.629 186.06C684.754 188.664 687.925 191.544 687.368 192.933C686.812 194.323 683.905 193.806 683.424 195.943C683.103 197.368 687.819 197.599 697.573 196.638L720.203 205.604L725.207 193.117ZM812.816 199.568L797.348 199.626C814.309 237.771 823.152 257.742 823.878 259.542C825.513 263.59 822.054 269.755 820.575 273.068C825.392 275.223 824.879 267.244 830.956 270.07C836.503 272.649 840.722 277.322 847.131 273.37C847.919 272.884 848.782 271.055 846.696 269.625C841.499 266.064 834.009 259.83 832.997 257.779C831.617 254.981 824.89 235.577 812.816 199.568Z" fill="#997659"/>
<path fill-rule="evenodd" clip-rule="evenodd" d="M770.449 150.541L758.338 151.347C755.356 178.315 739.11 195.349 702.737 189.582L697.904 224.31C731.901 228.702 761.716 215.099 767.826 178.269C769.408 168.735 770.657 158.813 770.449 150.541Z" fill="#8C2081"/>
<path fill-rule="evenodd" clip-rule="evenodd" d="M776.423 147.022L758.075 151.222C758.075 182.763 748.022 202.887 742.865 226.076H792.42C793.118 234.089 793.547 242.325 793.77 250.784H830.875C822.467 206.073 804.72 171.482 777.635 147.011H776.433L776.423 147.022Z" fill="#C03075"/>
<path fill-rule="evenodd" clip-rule="evenodd" d="M784.602 181.079C785.879 200.733 785.128 215.732 782.349 226.076H792.42C791.038 210.202 788.597 195.203 784.602 181.079L784.602 181.079Z" fill="black" fill-opacity="0.1"/>
</svg>
