<?xml version="1.0" encoding="utf-8"?>
<!-- Generator: Adobe Illustrator 25.2.1, SVG Export Plug-In . SVG Version: 6.00 Build 0)  -->
<svg version="1.1" id="Layer_1" xmlns="http://www.w3.org/2000/svg" xmlns:xlink="http://www.w3.org/1999/xlink" x="0px" y="0px"
	 viewBox="0 0 900 900" style="enable-background:new 0 0 900 900;" xml:space="preserve">
<style type="text/css">
	.st0{fill:#E6E6E6;}
	.st1{fill:#314455;}
	.st2{clip-path:url(#SVGID_2_);}
	.st3{clip-path:url(#SVGID_4_);}
	.st4{clip-path:url(#SVGID_6_);}
	.st5{clip-path:url(#SVGID_8_);}
	.st6{fill:#E8E9EB;}
	.st7{fill:#9F616A;}
	.st8{fill:#2F2E41;}
	.st9{opacity:0.25;enable-background:new    ;}
	.st10{fill:#FFB8B8;}
	.st11{fill:#F1F1F1;}
	.st12{fill:#3F3D56;}
	.st13{fill:#FFB7B7;}
	.st14{fill:#CBCBCB;}
</style>
<path id="Path_39" class="st0" d="M611.7,98.9H329.8c-2.9,0-5.2-1.5-5.2-3.3V50.5c0-1.9,2.3-3.3,5.2-3.3h281.8
	c2.9,0,5.2,1.5,5.2,3.3v45C616.9,97.4,614.5,98.9,611.7,98.9L611.7,98.9z M329.8,48.4c-1.7,0-3.1,0.9-3.1,2v45.1c0,1.1,1.4,2,3.1,2
	h281.8c1.7,0,3.1-0.9,3.1-2V50.4c0-1.1-1.4-2-3.1-2C611.7,48.4,329.8,48.4,329.8,48.4z"/>
<ellipse id="Ellipse_5" class="st1" cx="357.4" cy="73" rx="17.2" ry="14.1"/>
<path id="Path_40" class="st0" d="M416.9,63.5c-2,0-3.7,1.1-3.7,2.3s1.6,2.3,3.7,2.3h172.2c2,0.1,3.7-1,3.8-2.2
	c0.1-1.3-1.5-2.4-3.5-2.4h-0.1H416.9L416.9,63.5z"/>
<path id="Path_41" class="st0" d="M416.9,77.6c-2,0-3.7,1.1-3.7,2.3c0,1.3,1.6,2.3,3.7,2.3h172.2c2,0.1,3.7-1,3.8-2.2
	c0.1-1.3-1.5-2.4-3.5-2.4h-0.1L416.9,77.6L416.9,77.6z"/>
<path id="Path_42" class="st0" d="M611.7,174.3H329.8c-2.9,0-5.2-1.5-5.2-3.3v-45.1c0-1.9,2.3-3.3,5.2-3.3h281.8
	c2.9,0,5.2,1.5,5.2,3.3V171C616.9,172.8,614.5,174.2,611.7,174.3z M329.8,123.8c-1.7,0-3.1,0.9-3.1,2v45.1c0,1.1,1.4,2,3.1,2h281.8
	c1.7,0,3.1-0.9,3.1-2v-45.1c0-1.1-1.4-2-3.1-2L329.8,123.8L329.8,123.8z"/>
<ellipse id="Ellipse_6" class="st1" cx="357.4" cy="148.4" rx="17.2" ry="14.1"/>
<path id="Path_43" class="st0" d="M416.9,138.9c-2,0-3.7,1.1-3.7,2.3s1.6,2.3,3.7,2.3h172.2c2,0,3.7-1.1,3.6-2.3
	c0-1.3-1.6-2.2-3.5-2.3H416.9L416.9,138.9z"/>
<path id="Path_44" class="st0" d="M416.9,153.1c-2,0-3.7,1.1-3.7,2.3c0,1.3,1.6,2.3,3.7,2.3h172.2c2,0,3.7-1.1,3.6-2.3
	c0-1.3-1.6-2.2-3.5-2.3H416.9L416.9,153.1z"/>
<path id="Path_39-2" class="st0" d="M611.7,249.6H329.8c-2.9,0-5.2-1.5-5.2-3.3v-45.1c0-1.9,2.3-3.3,5.2-3.3h281.8
	c2.9,0,5.2,1.5,5.2,3.3v45.1C616.9,248.1,614.5,249.6,611.7,249.6L611.7,249.6z M329.8,199.1c-1.7,0-3.1,0.9-3.1,2v45.1
	c0,1.1,1.4,2,3.1,2h281.8c1.7,0,3.1-0.9,3.1-2v-45.1c0-1.1-1.4-2-3.1-2H329.8z"/>
<ellipse id="Ellipse_5-2" class="st1" cx="357.4" cy="223.7" rx="17.2" ry="14.1"/>
<path id="Path_40-2" class="st0" d="M416.9,214.3c-2,0-3.7,1.1-3.7,2.3c0,1.3,1.6,2.3,3.7,2.3h172.2c2,0.1,3.7-1,3.8-2.2
	c0.1-1.3-1.5-2.4-3.5-2.4h-0.1H416.9L416.9,214.3z"/>
<path id="Path_41-2" class="st0" d="M416.9,228.5c-2,0-3.7,1.1-3.7,2.3c0,1.3,1.6,2.3,3.7,2.3h172.2c2,0.1,3.7-1,3.8-2.2
	c0.1-1.3-1.5-2.4-3.5-2.4h-0.1H416.9L416.9,228.5z"/>
<g>
	<g>
		<defs>
			<polygon id="SVGID_1_" points="70.7,585.2 893.9,690.9 855.7,928.4 32.4,822.7 			"/>
		</defs>
		<clipPath id="SVGID_2_">
			<use xlink:href="#SVGID_1_"  style="overflow:visible;"/>
		</clipPath>
		<g class="st2">
			<g>
				<g>
					<defs>
						<polygon id="SVGID_3_" points="885.9,657.7 912.2,921.4 -140.6,812 -166.9,548.3 						"/>
					</defs>
					<clipPath id="SVGID_4_">
						<use xlink:href="#SVGID_3_"  style="overflow:visible;"/>
					</clipPath>
					<g class="st3">
						<g>
							<g>
								<defs>
									<polygon id="SVGID_5_" points="885.9,657.7 912.2,921.4 -140.6,812 -166.9,548.3 									"/>
								</defs>
								<clipPath id="SVGID_6_">
									<use xlink:href="#SVGID_5_"  style="overflow:visible;"/>
								</clipPath>
								<g class="st4">
									<g>
										<g>
											<defs>
												<path id="SVGID_7_" d="M395.5,867.6c144.2,15,485.8-26.1,488.3-117.9c2.5-91.9-375-116.4-580.4-70.4
													C-143.3,779.4,40.7,830.8,395.5,867.6z"/>
											</defs>
											<clipPath id="SVGID_8_">
												<use xlink:href="#SVGID_7_"  style="overflow:visible;"/>
											</clipPath>
											<g class="st5">
												<path class="st6" d="M-10.5,845.7L-39.9,550l946.6,98.4L936,944.1L-10.5,845.7z"/>
											</g>
										</g>
									</g>
								</g>
							</g>
						</g>
					</g>
				</g>
			</g>
		</g>
	</g>
</g>
<path class="st0" d="M628.4,467.5l-1.3-5.9c0,0-19.6-5.9-21.8,5.9H628.4z"/>
<polygon class="st7" points="590.4,791.1 577.5,791.1 571.5,747.4 590.4,747.4 "/>
<path class="st8" d="M593.7,787.4h-25.3l0,0c-8.9,0-16.1,6.3-16.2,14.2v0.4h41.4L593.7,787.4z"/>
<polygon class="st7" points="652.3,791.2 639.4,791.1 633.5,747.5 652.3,747.5 "/>
<path class="st8" d="M655.6,787.4h-25.3l0,0c-8.9,0-16.1,6.3-16.2,14.2v0.4h41.4L655.6,787.4z"/>
<polygon class="st8" points="647.1,492.3 661.7,491.1 671,529.8 669.6,565.2 654.9,612.2 634.9,601.5 645.6,553.4 "/>
<polygon class="st8" points="656.2,608.1 652.8,632.8 649.6,690.3 656.7,776.2 631.3,774.9 619,685.6 611.5,644.5 600.8,691.5 
	594,779.6 568.1,777.7 568.2,691.1 567.7,627.9 577,603.2 "/>
<path class="st8" d="M601.8,468.7c0,0,9.4-11.7,26.6-3.5l8,9.4l25.3,16.4l-5.4,55.3l6.6,69.4l-94.5-1.3l16.1-69.4l0.1-74
	L601.8,468.7z"/>
<polygon class="st9" points="653,510.5 660.5,591.2 650.9,547.6 "/>
<path class="st7" d="M494,578c5.2,1.6,10.7-0.8,12.4-5.4c0.2-0.5,0.4-0.9,0.5-1.5l21.8-4.7V554l-30.6,7.1
	c-5.4-0.4-10.2,3.2-10.7,7.9C486.8,573,489.7,576.8,494,578L494,578z"/>
<polygon class="st0" points="520.5,572.3 516.9,553.8 507.6,555.3 511.2,573.8 "/>
<ellipse class="st7" cx="616.7" cy="431.6" rx="26.7" ry="23.6"/>
<path class="st8" d="M614.7,452.3c14.5,3.1,29.2-4.9,32.7-17.6c3-11.1-3.2-22.6-14.9-27.3c-4.7-1.9-9.9-2.6-15-2.4
	c-8,0.3-15.7,3-23.8,2.7l-1.2,1.7l-4.3-0.9l-0.9,3.1h-1.2c-2.1,3.4,1.3,8.2,5.6,8.2c1.8,0,3.4-0.6,5-0.9c1.6-0.3,3.6-0.2,4.8,0.8
	c1.5,1.5,0.8,3.7,0.6,5.7c-0.4,2,0.5,4.6,2.7,4.6c1.2,0,2.2-0.7,3.4-0.5c1.3,0.2,2,1.6,1.8,2.7c-0.4,1.2-0.8,2.2-1.5,3.3
	c-3.3,5.7-0.5,13.5,5.9,16.6"/>
<path class="st8" d="M590.9,475.5l-6.3-4.5c0,0-12.8-0.8-12.7,11.2l-20.6,56.6L511.8,551l5.3,24.3l55.7-18.7l28.4-41.3L590.9,475.5z
	"/>
<ellipse transform="matrix(1 -5.087473e-03 5.087473e-03 1 -2.2797 3.9585)" class="st10" cx="776.9" cy="450.1" rx="25.9" ry="25"/>
<ellipse transform="matrix(1 -4.054825e-03 4.054825e-03 1 -1.6928 3.3187)" class="st8" cx="817.6" cy="419.1" rx="23" ry="22"/>
<path class="st8" d="M837.4,437.5c-10.3,7.2-24.6,4.9-32-5c-1.5-2-2.7-4.2-3.4-6.6c1.5,12.1,13,20.7,25.6,19.2
	c12.5-1.5,21.5-12.5,19.9-24.7c-0.1-1.2-0.5-2.4-0.8-3.6C847.7,424.8,844.2,432.7,837.4,437.5z"/>
<path class="st8" d="M746.7,437.4c4-6.9,5.5-9.8,10.7-13.9c4.6-3.7,10.2-4.7,14.8-1.3c13.7-5.7,29.8,0.4,35.7,13.6
	c6,13.3-0.5,28.6-14.2,34.3c-13.7,5.7-29.8-0.4-35.7-13.6c-1.4-3.3-2.2-6.7-2.2-10.3c0-0.9,0.1-2,0.2-3
	C752.1,442.6,750.7,437.9,746.7,437.4z"/>
<polygon class="st10" points="713.6,790.7 701.7,787.4 709.5,741.8 726.9,746.7 "/>
<path class="st8" d="M692.4,781.3l24.6,6.9l0,0l-4.2,13.8l0,0l-37.3-10.4l0,0l0.5-1.7C678.1,783.2,685.5,779.3,692.4,781.3z"/>
<polygon class="st10" points="836.2,791.1 823.8,791.1 818.1,745.3 836.2,745.3 "/>
<path class="st8" d="M813.3,787.8h25.7l0,0v14.4l0,0h-38.8l0,0v-1.7C800,793.3,806,787.8,813.3,787.8L813.3,787.8z"/>
<path class="st10" d="M807.4,631.5c-3.5-4.1-2.9-10.3,1.4-13.7c0.5-0.3,0.9-0.7,1.5-0.9l-6.3-34.1l17.1,7l3.4,31.3
	c2.5,4.9,0.2,10.8-4.8,13.1C815.4,636.1,810.3,635,807.4,631.5z"/>
<path class="st1" d="M816.7,549.9l-20.1-59c-0.5-0.6-5.4-8.3-16.4-5.1c-2.5,0.6-4.5,2.2-5.6,4.4c-3.2,5.9-0.2,15.1-0.2,15.1
	l24.7,53.7v0.1l7.7,55l17-3.3L816.7,549.9z"/>
<path class="st8" d="M682.1,767.9l30.5-89.6l35.3-77.5l-0.5-37.5l42-9.4l4.8,15.7c28.1,17.9,18.8,52.3,18.2,54.6l42.2,150.7
	l-46.3,4.9l-30.8-142.6l-28.7,57.9l-20.3,86.7L682.1,767.9z"/>
<path class="st1" d="M744.6,531.6c-8.3-15.3-2.2-21.2,6.8-29.9c3.8-3.5,7.2-7.2,10.4-11.1c14.2-17.5,30.6-8.9,30.8-8.9h0.1l4.1,5.9
	c13.4,13-7,48.6-8.6,51.2l0.9,25.5l-43.2,3.9L744.6,531.6z"/>
<path class="st10" d="M760.9,630.1c-2.3-4.9-0.1-10.6,4.9-13c0.6-0.2,1.1-0.4,1.6-0.6l2.8-34.6l14.8,11.1l-4.9,31.1
	c1.1,5.3-2.6,10.4-8.1,11.5C767.5,636.6,762.9,634.2,760.9,630.1z"/>
<path class="st1" d="M764.1,613.9l7-55.9l-9.9-57.9c0-0.4-0.5-10,4.5-15.2c1.9-2,4.5-3.2,7.3-3.2c12.4-0.5,15.4,9.5,15.4,9.6l4,62.2
	l-9.3,61.5L764.1,613.9z"/>
<path class="st11" d="M366.2,738.5H218.4c-2.5,0-4.5-8.8-4.5-19.5V500.7c0-10.7,2-19.5,4.5-19.5h147.8c2.5,0,4.5,8.8,4.5,19.5V719
	C370.6,729.8,368.6,738.5,366.2,738.5z"/>
<rect x="263.4" y="499.8" class="st1" width="66.1" height="6.2"/>
<path class="st12" d="M387.2,413.5l-0.2-0.2l0,0c-1.5-0.9-3.6-0.6-4.7,0.6l0,0l-56.2,62.3h-6.2v-1.2c0-0.6-0.6-1.1-1.3-1.1H315
	c-0.7,0-1.3,0.5-1.3,1.1v1.2h-2.1v-1.2c0-0.6-0.6-1.1-1.3-1.1h-3.6c-0.7,0-1.3,0.5-1.3,1.1v1.2h-2.1v-1.2c0-0.6-0.6-1.1-1.3-1.1
	h-4.1c-0.7,0-1.3,0.5-1.3,1.1v1.2h-2.1v-1.2c0-0.6-0.6-1.1-1.3-1.1h-3.6c-0.7,0-1.3,0.5-1.3,1.1v1.2h-2.1v-1.2
	c0-0.6-0.6-1.1-1.3-1.1h-3.6c-0.7,0-1.3,0.5-1.3,1.1l0,0v1.2h-2.1v-1.2c0-0.6-0.6-1.1-1.3-1.1h-3.6c-0.7,0-1.3,0.5-1.3,1.1v1.2h-2.1
	v-1.2c0-0.6-0.6-1.1-1.3-1.1h-4.3c-0.7,0-1.3,0.5-1.3,1.1v1.2h-2.1v-1.2c0-0.6-0.6-1.1-1.3-1.1h-3.6c-0.7,0-1.3,0.5-1.3,1.1v1.2H252
	v-1.2c0-0.6-0.6-1.1-1.3-1.1h-3.6c-0.7,0-1.3,0.5-1.3,1.1v1.2h-2.1v-1.2c0-0.6-0.6-1.1-1.3-1.1h-3.6c-0.7,0-1.3,0.5-1.3,1.1v1.2
	h-2.7c-1.9,0-3.4,1.2-3.4,2.8l0,0v2.7c0,1.5,1.5,2.8,3.4,2.8l0,0H326c2.3,0,4.5-1.3,4.9-3.3l0,0l57.5-63.7l0,0
	C389,416.2,388.7,414.4,387.2,413.5z"/>
<polygon class="st13" points="32.4,715.2 43.8,720 71.5,686.3 54.8,679.1 "/>
<path class="st8" d="M31.5,711l22.3,9.4l0,0c7.9,3.3,10.9,11.3,6.9,17.8l-0.2,0.4l-36.5-15.4L31.5,711z"/>
<polygon class="st13" points="163.4,728.3 176.2,728.3 182.2,687.8 163.4,687.8 "/>
<path class="st8" d="M160.1,724.9h25.1l0,0c8.8,0,16,5.9,16,13.2v0.4h-41.1L160.1,724.9z"/>
<path class="st8" d="M103.8,397.9c0,0-8.6-5.4-8.6,7.7L94,449.1l15,41.1l8.8-13.3l-3.6-28.9L103.8,397.9z"/>
<path class="st8" d="M195.2,517.3c0,0,9.6,40.7-2.6,74.2L186,720l-24.7-1.7l-8.7-95.3l-8.3-47.4L127,618.9l-57,91.5l-26.2-17.9
	c0,0,29.1-69.1,50.5-83.7L105.1,502L195.2,517.3z"/>
<ellipse class="st13" cx="164.9" cy="320.9" rx="28.9" ry="23.9"/>
<path class="st8" d="M162.9,326c3.5,0.4,6.1-2.6,7.3-5.3c1.2-2.7,2.1-5.9,5.2-7.3c4.1-2,9.4,0.4,14.1-0.2c5.3-0.7,8.8-5.4,9-9.8
	s-1.9-8.7-4-12.8l-0.7,5.1c0.2-3.5-1.9-6.8-5.4-8.8l0.9,7.4c-0.8-4.3-5.8-7.2-11-6.6l0,0l0.1,4.4c-6.1-0.6-12.3-1.2-18.6-0.7
	c-6.1,0.4-12.3,2.1-17,5.4c-7,5-9.5,13.2-8.7,20.9c0.8,7.6,4.7,14.8,8.6,21.7c0.9,1.8,2.3,3.7,4.7,3.9c2.1,0.2,4-1.2,4.6-2.9
	c0.5-1.7,0.5-3.4,0-5.2c-0.6-2.6-1.3-5.2-0.8-7.7c0.6-2.6,2.8-5.1,5.9-5.4c3.2-0.3,6.3,2.7,4.8,5L162.9,326z"/>
<polygon class="st14" points="196.9,527.5 100.2,522.3 107.5,497.4 195.8,513.8 "/>
<path class="st8" d="M137.3,353.8l6.1-7.2c0,0,6.8,2,24.9,9.7l1.3,6.7l31.5,166.2l-57.2-2.2l-15.6-0.3l-5.1-9.8l-6.3,9.6l-15.3-0.3
	l-15.5-7.7l15.3-40.1l4.9-36.6l-7.6-34.5c0,0-9.6-31.6,27.4-48.8L137.3,353.8z"/>
<path class="st13" d="M266.3,474.4c-5.3,1.1-10.7-1.5-12-5.9c-0.1-0.5-0.2-0.9-0.2-1.4l-34-7.5l13.6-10l30.2,8.7
	c5.5,0,10,3.6,10,8.2C273.8,470.2,270.8,473.5,266.3,474.4L266.3,474.4z"/>
<path class="st8" d="M251,470.2c-1.4,0.6-3.2,0.7-4.7,0.3L190.4,453c-13.6-4-25-11.9-32.1-22.3l-23.3-34.3c-6.8-6.3-6.2-16,1.4-21.7
	c7.6-5.7,19.5-5.2,26.3,1.2l0,0l40.3,52.7l50.8,24.5c2,1.1,3.1,3.1,2.5,5.1l-2.5,8.8c-0.2,0.9-0.9,1.8-1.8,2.5
	C251.9,469.8,251.5,470,251,470.2z"/>
</svg>
