<?xml version="1.0" encoding="utf-8"?>
<!-- Generator: Adobe Illustrator 25.2.1, SVG Export Plug-In . SVG Version: 6.00 Build 0)  -->
<svg version="1.1" id="Layer_1" xmlns="http://www.w3.org/2000/svg" xmlns:xlink="http://www.w3.org/1999/xlink" x="0px" y="0px"
	 viewBox="0 0 900 900" style="enable-background:new 0 0 900 900;" xml:space="preserve">
<style type="text/css">
	.st0{clip-path:url(#SVGID_2_);}
	.st1{clip-path:url(#SVGID_4_);}
	.st2{clip-path:url(#SVGID_6_);}
	.st3{clip-path:url(#SVGID_8_);}
	.st4{fill:#E8E9EB;}
	.st5{fill:#FFFFFF;}
	.st6{fill:#3F3D56;}
	.st7{fill:#F2F2F2;}
	.st8{fill:#314455;}
	.st9{fill:#CCCCCC;}
	.st10{fill:#9F616A;}
	.st11{fill:#2F2E41;}
	.st12{fill:#F1F1F1;}
	.st13{opacity:0.2;enable-background:new    ;}
</style>
<g id="surface1">
	<g>
		<g>
			<defs>
				<polygon id="SVGID_1_" points="-124.8,606.9 310.6,-83.4 964.9,299.6 529.4,989.9 				"/>
			</defs>
			<clipPath id="SVGID_2_">
				<use xlink:href="#SVGID_1_"  style="overflow:visible;"/>
			</clipPath>
			<g class="st0">
				<g>
					<g>
						<defs>
							<polygon id="SVGID_3_" points="56.8,909.8 -384.9,109.2 877.5,-82.6 1319.2,718 							"/>
						</defs>
						<clipPath id="SVGID_4_">
							<use xlink:href="#SVGID_3_"  style="overflow:visible;"/>
						</clipPath>
						<g class="st1">
							<g>
								<g>
									<defs>
										<polygon id="SVGID_5_" points="56.8,909.8 -384.9,109.2 877.5,-82.6 1319.2,718 										"/>
									</defs>
									<clipPath id="SVGID_6_">
										<use xlink:href="#SVGID_5_"  style="overflow:visible;"/>
									</clipPath>
									<g class="st2">
										<g>
											<g>
												<defs>
													<path id="SVGID_7_" d="M60.3,542.6C296.4,428,8.2,188.2,238.9,96c325.2-129.9,856.4,215.8,537.9,379.8
														c-172.4,88.7,54.7,307.7-262.7,360.1C196.5,888.3-102.3,621.6,60.3,542.6z"/>
												</defs>
												<clipPath id="SVGID_8_">
													<use xlink:href="#SVGID_7_"  style="overflow:visible;"/>
												</clipPath>
												<g class="st3">
													<path class="st4" d="M-575.5-43.3L93.4,1169.4l1353.9-205.6L778.4-248.9L-575.5-43.3z"/>
												</g>
											</g>
										</g>
									</g>
								</g>
							</g>
						</g>
					</g>
				</g>
			</g>
		</g>
	</g>
</g>
<path class="st5" d="M826.3,563.6L386,559.1c-3.3,0-5.8-2.6-5.8-5.9l5.1-479.8c0-3.2,2.7-5.7,5.9-5.7l440.3,4.5
	c3.3,0,5.8,2.6,5.8,5.9l-5.1,480C832.2,561.2,829.6,563.7,826.3,563.6z"/>
<path class="st6" d="M826.3,563.6L386,559.1c-3.3,0-5.8-2.6-5.8-5.9l5.1-479.8c0-3.2,2.7-5.7,5.9-5.7l440.3,4.5
	c3.3,0,5.8,2.6,5.8,5.9l-5.1,480C832.2,561.2,829.6,563.7,826.3,563.6z M391.2,70c-1.9,0-3.5,1.5-3.5,3.5l-5.1,479.8
	c0,1.9,1.5,3.5,3.5,3.5l440.3,4.5c1.9,0,3.5-1.5,3.5-3.5l4.9-479.7c0-1.9-1.5-3.5-3.5-3.5L391.2,70z"/>
<path class="st7" d="M579.5,229.8l-109.1-1.2c-3.3,0-5.8-2.6-5.8-5.9l1.2-108.1c0-3.2,2.7-5.7,5.9-5.7l109.1,1.2
	c3.3,0,5.8,2.6,5.8,5.9l-1.2,108.1C585.3,227.3,582.7,229.8,579.5,229.8z M471.5,111.3c-1.9,0-3.5,1.5-3.5,3.5l-1.2,108.1
	c0,1.9,1.5,3.5,3.5,3.5l109.1,1.2c1.9,0,3.5-1.5,3.5-3.5l1.3-108.1c0-1.9-1.5-3.5-3.5-3.5L471.5,111.3z"/>
<path class="st8" d="M548,242.7l-109.1-1.2c-2.8,0-5.2-2.4-5.1-5.2l1.2-108.1c0-2.8,2.4-5.2,5.2-5.1l109.1,1.2
	c2.8,0,5.2,2.4,5.1,5.2l-1.2,108.1C553.3,240.4,550.9,242.7,548,242.7z"/>
<path class="st9" d="M779.8,297.9l-341.6-3.6c-2.8,0-5.2-2.4-5.1-5.2c0-2.8,2.4-5.2,5.2-5.1l0,0l341.6,3.6c2.8,0,5.2,2.4,5.1,5.2
	C785.1,295.7,782.7,298.2,779.8,297.9L779.8,297.9z"/>
<path class="st9" d="M697,332.8l-259-2.6c-2.8,0-5.2-2.4-5.1-5.2c0.1-2.7,2.4-5.2,5.2-5.1l0,0l259,2.6c2.8,0,5.2,2.4,5.1,5.2
	C702.1,330.6,699.8,332.8,697,332.8L697,332.8z"/>
<path class="st9" d="M780.1,166.8l-151-1.6c-2.8,0-5.2-2.4-5.1-5.2c0-2.8,2.4-5.2,5.2-5.1l151,1.6c2.8,0,5.2,2.4,5.1,5.2
	C785.2,164.6,782.9,166.8,780.1,166.8z"/>
<path class="st9" d="M741.9,202.1l-113.4-1.2c-2.8,0-5.2-2.4-5.1-5.2c0-2.8,2.4-5.2,5.2-5.1l0,0l113.4,1.2c2.8,0,5.2,2.4,5.1,5.2
	C747.1,199.9,744.9,202.1,741.9,202.1z"/>
<path class="st9" d="M779,369.4l-341.6-3.6c-2.8,0-5.2-2.4-5.1-5.2c0-2.8,2.4-5.2,5.2-5.1l0,0l341.6,3.6c2.8,0,5.2,2.4,5.1,5.2
	C784.2,367,782,369.4,779,369.4L779,369.4z"/>
<path class="st9" d="M696.2,404.2l-259-2.6c-2.8,0-5.2-2.4-5.1-5.2c0-2.8,2.4-5.2,5.2-5.1l0,0l259,2.6c2.8,0,5.2,2.4,5.1,5.2
	C701.4,401.9,699,404.2,696.2,404.2L696.2,404.2z"/>
<path class="st9" d="M778.3,440.7l-341.6-3.6c-2.8,0-5.2-2.4-5.1-5.2c0-2.8,2.4-5.2,5.2-5.1l0,0l341.6,3.6c2.8,0,5.2,2.4,5.1,5.2
	C783.6,438.5,781.2,440.7,778.3,440.7z"/>
<path class="st9" d="M778,476.4l-341.6-3.6c-2.8,0-5.2-2.4-5.1-5.2c0-2.8,2.4-5.2,5.2-5.1l341.6,3.6c2.8,0,5.2,2.4,5.1,5.2
	C783.2,474.1,780.7,476.4,778,476.4L778,476.4z"/>
<path class="st8" d="M634,530.7c6-2,11.8-4.5,17.4-7.5c4.9-2.6,10.2-5.7,13.7-10.2c3.1-3.9,4.2-9.1,2.8-13.8
	c-1.3-4.5-5.5-7.7-10.4-7.9c-4.8-0.1-9.4,2.4-11.7,6.6c-2.4,4.6-2.5,10.2-0.4,15.1c4.3,9.9,16.2,16.5,26.5,17.1
	c11.7,0.6,23.6-8.5,21.7-21.1c-0.4-2.5-4-2.1-4.8,0c-2.3,6,0.8,12.6,6.9,15c5.5,2,11.8-0.4,14.5-5.6h-4.3
	c5.8,8.1,15.6,12.6,25.7,11.7c2.4-0.3,4.8-0.8,7.1-1.6c2.8-1.1,6.2-0.8,9.2-1.1l21.5-1.4c3.3-0.3,3.3-5.1,0-5l-19.5,1.2
	c-3.3,0.3-6.5,0.4-9.7,0.6c-2.3,0.1-4.5,1.5-6.7,1.9c-8.9,1.7-17.9-1.7-23.1-9c-0.7-1.2-2.3-1.6-3.5-0.8c-0.4,0.3-0.7,0.5-0.8,0.8
	c-1.6,3.4-5.7,4.8-9,3.4s-4.8-5.5-3.4-8.7H689c1.3,8-6.6,14.4-14,14.7c-8.3,0.5-17.4-4-22.4-10.4c-2.5-3.1-3.7-7.1-3.4-11.1
	c0.4-3.6,3.1-6.6,6.7-7.5c3.3-0.8,6.6,1.1,7.4,4.2c0.8,3.6-0.1,7.4-2.7,10c-3.3,3.9-8,6.2-12.4,8.6c-4.9,2.6-10.2,4.8-15.4,6.6
	C629.6,527,630.8,531.8,634,530.7L634,530.7z"/>
<polygon class="st10" points="125.6,843.3 145.9,850.4 183.4,777.6 153.6,767.3 "/>
<path class="st11" d="M113.5,860.8l9.3-25.5l40,13.9c14,4.9,21.4,20,16.4,33.6l-0.2,0.8L113.5,860.8z"/>
<polygon class="st10" points="257.5,862.9 279,862.9 289.2,782 257.5,782 "/>
<path class="st11" d="M251.9,856.1h42.4l0,0c14.9,0,27.1,11.8,27.1,26.3l0,0v0.9h-69.5L251.9,856.1L251.9,856.1z"/>
<path class="st12" d="M208.4,346.2l9.3-18.1c0,0,34.9,8.5,38,28.2L208.4,346.2z"/>
<polygon class="st11" points="169.8,552.3 195.2,690.7 127.6,807.1 167.9,822.5 236.4,709.6 245.3,678.8 250.6,839.6 287,838.5 
	303.7,688.4 276.9,548.8 "/>
<path class="st6" d="M218.1,585c-37.4,0-61.1-7-61.7-7.1l-0.9-0.1l19.4-88l0.9-81.1c0-34.4,23.2-59.8,26.4-62.1
	c1.1-4.2,4.1-7.7,8.1-9.7c7.7-3.4,17.2,0.6,17.6,0.9l28.4,10.4l0.1,0.4c0.4,1,37.7,120.7,37.7,120.7S291.9,574,291,577.4
	C291.4,577.3,238.9,585,218.1,585z"/>
<ellipse class="st10" cx="246.9" cy="285.2" rx="38.5" ry="37.4"/>
<polygon class="st13" points="204,415.2 271.2,506.6 281.2,463.9 "/>
<path class="st10" d="M414.7,477.4c-7.1,5.6-17.5,4.3-23.1-2.7c-0.6-0.8-1.1-1.5-1.6-2.4l-57.9,9l12.5-27l53-4.4
	c8.4-3.7,18.2-0.1,22,8C422.8,464.8,420.9,472.8,414.7,477.4z"/>
<polygon class="st12" points="347.7,452.8 368.5,450.9 374.3,479.1 348.1,479.6 "/>
<path class="st6" d="M364.7,488.9l-101.8-8.8l-51.4-79.6l-0.1-0.8c-3.3-14.8,6.3-29.4,21.5-32.6c12.5-2.7,25.2,3.2,31.1,14.3
	l30.2,57.4l60.9,9L364.7,488.9z"/>
<path class="st11" d="M226.3,324.9l31-7.3c2-0.4,1.7-21.5,1.2-25.8c-0.4-5.8,3.6-11,9.5-12.3c2.3-0.3,7-6.3,11.7-12.7
	c8.8-12.5,3.4-30.1-11.2-34.7c-0.5-0.2-0.8-0.2-1.1-0.3c-9-2.1-18.6-1-27.8,1.2c-8.2,2.1-16.4,5.4-22.6,11.1
	c-11.1,10.4-13.9,27-10.6,41.4s11.9,27.1,20.8,39"/>
</svg>
