<svg width="1011" height="928" viewBox="0 0 1011 928" fill="none" xmlns="http://www.w3.org/2000/svg">
<g filter="url(#filter0_d)">
<path d="M485.714 910.524L19.9829 651.513C5.15993 643.686 -7.56396 630.835 6.89618 622.374L474.311 368.777C481.334 364.68 491.985 361.998 499.111 365.9L988.009 633.006C1002.83 641.101 1005.5 663.73 990.601 671.85L547.182 910.109C537.861 915.206 527.287 917.926 516.506 917.998C505.726 918.071 495.112 915.495 485.714 910.524Z" fill="#9E5A63"/>
<path d="M445.793 637L442.538 634.479L445.297 595L462.207 595.623C462.207 595.623 461.351 612.616 464.965 616.637C468.579 620.659 478.758 618.761 479.696 619.158C480.634 619.554 487.42 618.082 490.178 621.452C492.937 624.822 479.144 632.95 472.11 634.111C467.278 634.747 462.378 634.575 457.6 633.601C457.6 633.601 456.8 623.378 454.317 624.199C451.834 625.02 450.897 635.697 450.897 635.697L445.793 637Z" fill="#053855"/>
<path d="M406.586 527.933C405.172 569.191 435.646 608.298 435.646 608.298C435.646 608.298 444.88 621.089 469.947 615.656C472.72 615.061 478.599 549.269 481.538 515.086C467.507 511.209 415.958 507.332 406.586 527.933Z" fill="#7EC971"/>
<path d="M491.191 684C491.98 684 499.194 681.208 493.135 676.545C489.116 673.444 484.909 670.591 480.538 668" fill="#FEC64B"/>
<path d="M491.538 646C491.538 646 485.518 668.525 491.538 680.408L409.604 728.837L328.538 776V741.142" fill="#FFE8BC"/>
<path d="M494.538 643C494.351 644.552 494.154 646.104 493.947 647.655L327.98 741.241V775.933L493.722 679.542C493.722 680.917 493.722 682.347 493.722 683.665L321.538 783V735.716L494.538 643Z" fill="#FEC64B"/>
<path d="M493.158 642.745L322.712 741L83.5381 599.588L250.34 503.253C252.855 501.777 255.713 501 258.623 501C261.533 501 264.391 501.777 266.906 503.253L493.214 638.314C493.618 638.527 493.956 638.848 494.189 639.242C494.423 639.636 494.544 640.088 494.538 640.547C494.532 641.006 494.4 641.455 494.156 641.843C493.913 642.231 493.567 642.543 493.158 642.745Z" fill="#FEC64B"/>
<path d="M321.614 783C321.614 783 82.7558 641.611 83.54 640.936C84.3243 640.26 83.54 600 83.54 600L322.538 741.051L321.614 783Z" fill="#FEC64B"/>
<path d="M492.97 639C493.683 639.489 494.278 640.116 494.718 640.84C495.157 641.564 495.431 642.368 495.52 643.2C495.806 645.927 492.655 647.4 491.538 648" fill="#FEC64B"/>
<path d="M491.191 637C491.98 637 499.194 634.208 493.135 629.545C489.116 626.444 484.909 623.591 480.538 621" fill="#58E6CA"/>
<path d="M491.538 598C491.538 598 485.518 620.713 491.538 632.695L409.604 681.529L328.538 729V693.936" fill="#FFE8BC"/>
<path d="M494.538 595C494.351 596.564 494.154 598.127 493.947 599.691L327.98 693.983V728.879L493.722 631.762C493.722 633.146 493.722 634.587 493.722 635.915L321.538 736V688.388L494.538 595Z" fill="#58E6CA"/>
<path d="M493.158 595.745L322.712 694L83.5381 552.588L250.34 456.253C252.855 454.777 255.713 454 258.623 454C261.533 454 264.391 454.777 266.906 456.253L493.214 591.314C493.618 591.527 493.956 591.848 494.189 592.242C494.423 592.636 494.544 593.088 494.538 593.547C494.532 594.006 494.4 594.455 494.156 594.843C493.913 595.231 493.567 595.543 493.158 595.745Z" fill="#58E6CA"/>
<path d="M321.614 736C321.614 736 82.7558 593.839 83.54 593.159C84.3243 592.48 83.54 552 83.54 552L322.538 693.822L321.614 736Z" fill="#46D1B6"/>
<path d="M492.97 591C493.683 591.543 494.278 592.24 494.718 593.044C495.157 593.849 495.431 594.742 495.52 595.667C495.806 598.697 492.655 600.333 491.538 601" fill="#58E6CA"/>
<path d="M489.861 671L486.538 668.479L489.354 629L506.616 629.623C506.616 629.623 505.743 646.616 509.432 650.637C513.121 654.659 523.513 652.761 524.47 653.158C525.427 653.554 532.355 652.082 535.171 655.452C537.987 658.822 523.907 666.95 516.726 668.111C511.794 668.747 506.791 668.575 501.914 667.601C501.914 667.601 501.097 657.378 498.563 658.199C496.028 659.02 495.071 669.697 495.071 669.697L489.861 671Z" fill="#053855"/>
<path d="M497.653 520.953C486.258 515.815 474.021 512.782 461.538 512C463.658 527.371 465.607 538.041 465.946 538.801C466.794 540.744 482.647 638.292 482.647 638.292C501.383 645.837 523.538 639.531 523.538 639.531C523.538 639.531 515.908 563.519 515.258 550.71C515.258 549.34 515.183 547.97 515.032 546.6C514.756 541.153 512.991 535.885 509.928 531.365C506.865 526.844 502.621 523.244 497.653 520.953Z" fill="#7EC971"/>
<path d="M788.532 123.99L784.819 399.533C784.784 401.906 784.128 404.23 782.915 406.274C781.703 408.319 779.976 410.014 777.905 411.193C775.834 412.373 773.489 412.995 771.103 413C768.716 413.005 766.37 412.391 764.294 411.22L584.472 309.455C582.366 308.26 580.616 306.533 579.398 304.449C578.181 302.364 577.539 299.996 577.538 297.585V7.70003C577.536 6.34635 577.894 5.01617 578.574 3.84393C579.255 2.6717 580.235 1.69895 581.415 1.02401C582.595 0.349061 583.933 -0.00416283 585.294 3.70195e-05C586.655 0.00423687 587.991 0.365711 589.166 1.04792L781.751 111.784C783.879 113.026 785.631 114.815 786.824 116.962C788.017 119.11 788.607 121.537 788.532 123.99Z" fill="#CFD2A8"/>
<path d="M631.538 26C631.877 26.1825 631.538 61.288 631.538 61.288L734.538 120V84.8032L631.538 26Z" fill="#723D49"/>
<path d="M599.538 44L765.538 139.257V369L599.538 278.425V44Z" fill="white"/>
<path d="M619.807 117.438L727.609 174.421C732.821 177.182 737.482 169.323 732.239 166.562L624.467 109.579C619.255 106.818 614.595 114.677 619.837 117.438H619.807Z" fill="#CCCCCC"/>
<path d="M619.807 160.358L727.609 217.42C732.821 220.185 737.482 212.315 732.239 209.551L624.467 152.58C619.255 149.815 614.595 157.685 619.837 160.45L619.807 160.358Z" fill="#CCCCCC"/>
<path d="M619.807 204.566L727.609 262.412C732.821 265.215 737.482 257.237 732.239 254.434L624.467 196.588C619.255 193.785 614.595 201.763 619.837 204.566H619.807Z" fill="#CCCCCC"/>
<path d="M619.807 248.438L727.609 305.421C732.821 308.182 737.482 300.323 732.239 297.562L624.467 240.579C619.255 237.818 614.595 245.677 619.837 248.438H619.807Z" fill="#CCCCCC"/>
<path d="M728.538 325.607C726.514 322.382 633.365 244 633.365 244L631.538 245.907L725.362 329L728.538 325.607Z" fill="#200904"/>
<path d="M741.538 333.759C741.538 333.759 734.545 324.647 734.161 323.886C733.777 323.124 726.783 315.902 723.959 317.143C721.134 318.384 715.457 321.798 715.539 323.886C715.621 325.973 721.189 325.07 724.315 323.519C723.735 325.951 723.706 328.487 724.229 330.932C724.752 333.378 725.813 335.667 727.332 337.624C730.909 341.245 735.584 343.496 740.578 344" fill="#F67770"/>
<path d="M808.612 610.116C808.885 611.521 808.85 612.969 808.509 614.358C808.167 615.748 807.528 617.045 806.635 618.16C803.613 621.428 792.092 631.717 790.99 633.934C789.889 636.151 788.364 642.233 790.99 644.336C793.617 646.439 798.728 646.667 805.11 644.336C813.784 640.335 821.908 635.224 829.283 629.131C832.107 626.089 829.283 594.768 829.283 594.768C829.283 594.768 813.102 590.789 807.68 594.768L808.612 610.116Z" fill="#42210B"/>
<path d="M850.612 630.793C850.885 632.172 850.85 633.592 850.509 634.955C850.167 636.319 849.528 637.592 848.635 638.685C845.613 641.892 834.092 651.986 832.99 654.161C831.889 656.337 830.364 662.304 832.99 664.368C835.617 666.431 840.728 666.654 847.11 664.368C855.784 660.442 863.908 655.427 871.283 649.449C874.107 646.465 871.283 615.735 871.283 615.735C871.283 615.735 855.102 611.831 849.68 615.735L850.612 630.793Z" fill="#42210B"/>
<path d="M806.398 409C801.373 432.352 798.425 456.103 797.587 479.977C797.051 514.263 801.089 606.399 801.089 606.399C801.089 606.399 810.577 615.537 831.417 612.312V484.446C831.417 484.446 838.674 487.275 838.674 492.565C838.674 497.855 845.31 628.776 845.31 628.776C845.31 628.776 849.037 635.707 876.372 625.098C876.372 625.098 885.691 451.773 865.67 418.166" fill="#CFD2A8"/>
<path d="M858.635 418.389C853.916 418.219 840.759 421.589 831.793 420.909C823.138 420.528 814.57 418.986 806.311 416.321C805.978 414.707 805.672 413.008 805.422 411.139C799.482 364.241 801.064 331.333 805.422 323.913C809.78 316.493 835.956 310.603 847.809 313.973C859.662 317.343 877.538 331.503 877.538 331.503C877.538 331.503 872.653 371.151 863.909 399.471C861.494 407.486 861.494 407.486 858.635 418.389Z" fill="#42210B"/>
<path d="M828.725 317.869C824.43 318.774 823.633 306.955 825.454 305.852C827.274 304.749 847.415 304.636 850.516 305.993C857.315 308.99 850.516 319 850.516 319" fill="#42210B"/>
<path d="M854.411 269.047C850.616 268.368 850.728 261.948 843.669 259.007C836.61 256.066 828.296 260.28 825.143 262.57C821.99 264.861 819.786 260.223 816.41 263.758C813.034 267.293 815.183 272.723 813.202 274.675L812.923 274.901C812.066 276.36 811.591 278.017 811.542 279.714C811.493 281.412 811.873 283.094 812.644 284.601C814.197 286.727 816.027 288.63 818.084 290.258L849.779 307C853.602 304.172 860.939 278.464 860.521 275.24C860.388 273.643 859.702 272.144 858.583 271.011C857.465 269.877 855.987 269.181 854.411 269.047Z" fill="#200904"/>
<path d="M818.799 278.887C817.329 280.44 822.134 310.819 831.576 311.929C841.017 313.039 852.126 300.832 853.115 297.142C854.104 293.452 853.511 274.032 849.695 272.173C845.879 270.314 827.647 269.51 818.799 278.887Z" fill="#F67770"/>
<path d="M822.117 268.855C822.117 268.855 822.705 276.294 833.781 273.833C844.856 271.371 846.426 273.588 848.972 276.907C853.765 283.11 864.068 288.736 859.332 266.72C858.982 265.702 846.469 253.824 837.826 255.539C829.182 257.254 822.117 268.855 822.117 268.855Z" fill="#200904"/>
<path d="M819.117 273.855C819.117 273.855 819.705 281.294 830.781 278.833C841.856 276.371 843.426 278.588 845.972 281.907C850.765 288.11 861.068 293.736 856.332 271.72C855.982 270.702 843.469 258.824 834.826 260.539C826.182 262.254 819.117 273.855 819.117 273.855Z" fill="#200904"/>
<path d="M847.538 290.099C847.538 290.099 850.81 283.825 853.349 286.801C855.888 289.778 854.056 296.811 850.731 299" fill="#F67770"/>
<path d="M810.044 319C810.044 319 797.517 321.024 780.871 350.978C780.871 350.978 742.954 329.859 740.096 330.343C737.238 330.828 726.364 338.466 725.552 342.599C724.739 346.731 760.834 377.483 779.554 382.5C798.274 387.516 812.538 353.172 812.538 353.172" fill="#42210B"/>
<path d="M858.665 407.297L848.761 410.63C848.761 410.63 840.222 413.246 839.568 415.587C838.913 417.928 849.301 415.807 851.464 415.587C853.627 415.367 841.901 426.301 841.958 428.146C842.015 429.991 843.894 430.239 845.26 429.716C846.626 429.193 843.381 432.856 846.057 433.627C846.92 433.788 847.814 433.701 848.628 433.378C849.441 433.056 850.14 432.51 850.639 431.809C850.639 431.809 850.895 435.472 853.485 434.949C856.075 434.426 868.342 421.178 869.423 416.386C870.505 411.594 863.731 405.589 858.665 407.297Z" fill="#F67770"/>
<path d="M869.501 417.88C869.501 417.88 864.815 432.193 862.038 431.998C859.261 431.803 858.538 425.745 858.538 425.745C858.538 425.745 866.146 414.934 868.026 414.101C869.906 413.267 869.501 417.88 869.501 417.88Z" fill="#F67770"/>
<path d="M877.663 331C877.663 331 907.209 366.789 910.364 379.528C913.518 392.267 872.818 423 872.818 423L858.003 407.21C858.003 407.21 884.338 382.212 880.536 378.398C876.733 374.585 856.538 355.518 856.538 355.518" fill="#42210B"/>
<path d="M651.39 679.042C637.803 696.643 631.169 718.713 632.774 740.974C635.254 777.148 655.403 787.649 655.403 787.649L679.398 789C679.398 789 707.936 779.598 704.201 732.557C700.718 688.388 686.477 678 686.477 678" fill="#CFD2A8"/>
<path d="M669.538 685C679.479 685 687.538 682.09 687.538 678.5C687.538 674.91 679.479 672 669.538 672C659.597 672 651.538 674.91 651.538 678.5C651.538 682.09 659.597 685 669.538 685Z" fill="#003B94"/>
<path d="M669.538 790C679.479 790 687.538 787.09 687.538 783.5C687.538 779.91 679.479 777 669.538 777C659.597 777 651.538 779.91 651.538 783.5C651.538 787.09 659.597 790 669.538 790Z" fill="#CFD2A8"/>
<path d="M662.503 680.327L640.723 556.588C640.24 553.776 636.094 555.042 636.577 557.713L658.357 681.452C658.812 684.152 662.958 683.027 662.503 680.327Z" fill="#007F68"/>
<path d="M665.538 680.649C666.224 680.518 666.93 680.518 667.616 680.649C668.498 680.875 669.291 681.344 669.898 682C671.693 647.389 672.014 612.759 670.864 578.11C670.864 575.297 666.328 575.297 666.445 578.11C667.655 612.234 667.352 646.413 665.538 680.649Z" fill="#007F68"/>
<path d="M714.263 560.44C698.179 599.32 684.26 639.063 672.572 679.484C672.478 680.01 672.583 680.552 672.868 681.003C673.153 681.454 673.597 681.783 674.111 681.924C674.626 682.065 675.175 682.008 675.65 681.765C676.125 681.522 676.492 681.11 676.679 680.61C688.368 640.189 702.286 600.446 718.371 561.565C719.411 558.948 715.304 557.935 714.263 560.44Z" fill="#007F68"/>
<path d="M644.922 607.396C644.922 607.396 642.649 607.113 632.736 596.329C622.824 585.544 635.474 577.449 629.614 565.193C623.755 552.937 631.969 537.143 633.804 525C634.918 533.498 637.896 541.621 642.512 548.748C649.987 559.815 654.15 569.779 653.465 583.818C652.906 592.683 651.428 601.461 649.056 610" fill="#007F68"/>
<path d="M667.166 626.361C667.166 626.361 664.958 625.515 657.627 612.597C650.295 599.679 664.845 594.996 662.014 581.824C659.183 568.652 671.185 555.282 675.969 544C674.98 552.483 675.948 561.078 678.8 569.132C683.612 581.683 685.367 592.401 681.178 605.799C678.462 614.227 674.846 622.341 670.393 630" fill="#007F68"/>
<path d="M696.917 603.743C696.917 603.743 694.929 602.474 690.384 588.35C685.839 574.225 701.092 572.59 701.036 559.142C700.979 545.694 715.522 535.065 722.538 525C719.855 533.12 719.077 541.741 720.266 550.204C722.396 563.483 721.913 574.309 715.039 586.517C710.64 594.21 705.421 601.412 699.473 608" fill="#007F68"/>
<path d="M447.664 492.021L422.779 474.248C421.777 473.535 421.051 472.493 420.727 471.299C420.402 470.105 420.499 468.835 421 467.705L438.627 428.143C438.937 427.449 439.391 426.829 439.957 426.327C440.524 425.824 441.19 425.45 441.912 425.229C442.634 425.008 443.394 424.946 444.141 425.047C444.889 425.147 445.606 425.408 446.246 425.812L474.05 443.305C475.179 444.016 476.001 445.131 476.351 446.427C476.702 447.723 476.555 449.105 475.941 450.297L455.393 490.14C455.044 490.814 454.556 491.404 453.963 491.872C453.369 492.339 452.683 492.673 451.951 492.852C451.219 493.03 450.458 493.048 449.719 492.905C448.979 492.761 448.279 492.46 447.664 492.021Z" fill="#1784AA"/>
<path d="M445.664 490.992L420.779 472.961C419.777 472.238 419.051 471.18 418.727 469.969C418.402 468.758 418.499 467.47 419 466.324L436.627 426.188C436.937 425.484 437.391 424.856 437.957 424.346C438.524 423.836 439.19 423.456 439.912 423.232C440.634 423.008 441.394 422.945 442.141 423.047C442.889 423.149 443.606 423.414 444.246 423.824L472.05 441.57C473.179 442.291 474.001 443.422 474.351 444.737C474.702 446.052 474.555 447.454 473.941 448.663L453.393 489.14C453.039 489.819 452.548 490.412 451.952 490.881C451.356 491.35 450.669 491.683 449.938 491.858C449.206 492.033 448.446 492.046 447.709 491.897C446.972 491.748 446.275 491.439 445.664 490.992Z" fill="#29ABE2"/>
<path d="M449.84 488L421.538 468.105L440.088 427L471.538 446.503L449.84 488Z" fill="#E4F5FD"/>
<path d="M436.854 444.275C427.569 449.489 413.043 455.477 403.395 462.382C401.834 463.499 399.492 467.31 401.053 466.765C400.384 467.539 406.769 470.117 406.183 470.977C405.988 471.263 410.31 468.799 410.561 468.914C414.233 470.91 418.497 471.431 422.523 470.375L424.14 469.143L424.53 468.914C424.599 468.789 424.695 468.681 424.809 468.599L425.06 468.427C425.103 468.187 425.232 467.972 425.422 467.825C427.569 466.078 432.281 465.161 432.783 462.239C432.702 461.466 432.475 460.716 432.114 460.033C432 459.859 431.953 459.647 431.984 459.44C432.015 459.233 432.122 459.045 432.282 458.915C432.461 458.043 432.47 457.143 432.307 456.267C432.145 455.392 431.814 454.558 431.333 453.816V453.672L431.891 453.013C434.431 451.184 436.835 449.163 439.085 446.968C439.332 446.725 439.49 446.401 439.531 446.051V445.88C439.54 445.784 439.54 445.688 439.531 445.593C439.496 445.291 439.388 445.003 439.215 444.755C439.043 444.507 438.813 444.309 438.546 444.177C438.278 444.046 437.983 443.986 437.688 444.003C437.392 444.02 437.105 444.114 436.854 444.275Z" fill="#E85454"/>
<path d="M431.594 454.595C430.891 452.791 429.852 452.706 428.251 453.411C424.981 454.886 421.858 456.67 418.925 458.74C418.447 459.079 418.925 459.868 419.402 459.53C421.228 458.289 429.122 452.424 430.639 454.99C432.155 457.556 426.931 459.332 425.442 460.122L419.824 463.167C419.29 463.449 419.824 464.239 420.301 463.957L423.953 462.067C423.925 462.159 423.925 462.258 423.953 462.349C424.259 462.753 424.618 463.114 425.021 463.421C424.697 463.888 424.492 464.428 424.423 464.993C424.355 465.558 424.425 466.132 424.627 466.663L424.796 466.861C423.224 468.519 421.142 469.598 418.885 469.925C416.628 470.252 414.327 469.809 412.352 468.665C411.874 468.299 411.228 468.976 411.706 469.342C415.414 472.162 422.942 471.344 425.751 467.199C426.34 467.121 426.91 466.94 427.436 466.663C429.112 466.096 430.625 465.128 431.846 463.844C432.18 463.276 432.356 462.628 432.356 461.969C432.356 461.309 432.18 460.662 431.846 460.094V459.925C432.066 459.707 432.24 459.448 432.358 459.162C432.477 458.877 432.538 458.57 432.538 458.261C432.538 457.951 432.477 457.645 432.358 457.36C432.24 457.074 432.066 456.815 431.846 456.597C431.957 455.919 431.869 455.224 431.594 454.595ZM431.2 463.054C430.591 463.904 429.767 464.576 428.813 465C428.223 465.338 426.762 466.382 426.144 466.241C424.964 465.93 425.667 464.351 426.144 463.675C426.809 463.411 427.426 463.04 427.97 462.575L430.245 461.137L431.004 460.573C431.219 460.94 431.349 461.352 431.383 461.777C431.417 462.202 431.354 462.629 431.2 463.026V463.054ZM428.391 461.306C427.099 462.124 426.06 463.139 424.824 461.701C426.65 460.77 428.448 459.84 430.161 458.881C430.691 458.577 431.15 458.164 431.509 457.669C432.38 459.163 429.262 460.714 428.307 461.278L428.391 461.306Z" fill="#653200"/>
<path d="M408.862 455C408.862 455 415.095 456.409 415.538 469.423L410.884 481L385.538 467.876C385.538 467.876 391.605 460.36 408.862 455Z" fill="#88D3D8"/>
<path d="M469.723 461C467.761 465.28 465.799 469.189 464.154 473.583C462.942 470.73 461.816 468.276 460.374 465.48C460.304 465.388 460.227 465.302 460.143 465.223C459.873 464.788 459.463 464.456 458.978 464.281C458.493 464.107 457.962 464.1 457.473 464.263C456.984 464.425 456.565 464.747 456.285 465.175C456.004 465.603 455.879 466.113 455.93 466.621C456.394 469.28 457.449 471.803 459.017 474.011C458.792 474.129 458.587 474.284 458.412 474.467C454.603 478.662 455.526 485.025 455.959 490.189C455.985 490.511 456.091 490.822 456.267 491.094C456.444 491.366 456.685 491.591 456.971 491.749C457.256 491.907 457.576 491.993 457.903 492C458.229 492.006 458.553 491.933 458.844 491.787C459.208 491.794 459.566 491.705 459.883 491.53C463.307 489.204 465.759 485.725 466.78 481.743C469.175 475.152 471.945 467.933 469.723 461Z" fill="#E85454"/>
<path d="M373.494 460.84L382.767 458C385.064 458.341 405.177 466.52 413.581 481.117C414.594 485.537 415.278 490.027 415.626 494.55C416.382 500.571 416.999 506.62 417.307 512.698C417.697 519.323 417.594 525.968 416.999 532.577C416.718 535.417 416.55 536.809 416.046 539.592C414.97 540.548 413.737 541.307 412.404 541.836C384.588 551.634 364.194 535.758 363.354 533.486C362.513 531.214 361.197 498.697 360.552 479.357C360.392 475.255 361.575 471.215 363.916 467.866C366.256 464.516 369.624 462.046 373.494 460.84Z" fill="#88D3D8"/>
<path d="M398.816 427.722C398.816 427.722 405.205 459.066 393.372 462.45C381.538 465.833 367.584 452.775 366.581 446.316C365.578 439.857 382.197 417.265 398.816 427.722Z" fill="#E85454"/>
<path d="M393.865 440.073C394.231 439.538 400.902 437.794 402.31 432.169C403.717 426.543 398.622 419.146 386.997 418.105C375.372 417.064 355.838 423.393 358.85 453.968C361.861 484.542 392.627 471.407 394.682 461.646C395.749 454.467 395.472 447.151 393.865 440.073Z" fill="#653200"/>
<path d="M394.328 440.087C394.328 440.087 396.274 450.59 400.533 455.079C404.791 459.569 408.204 467.813 403.015 474.053C397.825 480.293 403.015 483.709 410.376 489.695C417.737 495.681 413.196 520.047 386.628 514.061C360.061 508.076 347.538 492.038 347.538 492.038C347.538 492.038 354.363 444.209 361.64 433" fill="#653200"/>
<path d="M413.538 482C413.538 482 419.541 502.093 425.545 502.712C431.548 503.331 440.651 494.438 447.077 482.872C449.362 482.66 451.666 482.915 453.849 483.621C456.032 484.326 458.049 485.468 459.776 486.976C461.503 488.485 462.904 490.329 463.895 492.395C464.886 494.462 465.445 496.708 465.538 498.997C465.538 498.997 444.372 541.8 413.538 531.359" fill="#88D3D8"/>
<path d="M439.538 453.044L442.856 452L444.262 456.712L455.06 452.846L455.538 456.147L442.378 461L439.538 453.044Z" fill="#E4F5FD"/>
<path d="M364.002 533C364.002 533 359.121 565.192 381.018 578.582C402.915 591.972 437.03 578.046 455.803 563.839C474.576 549.632 416.472 539.061 416.472 539.061C416.472 539.061 387.601 546.474 364.002 533Z" fill="#7EC971"/>
<path d="M451.538 566.853L470.053 562L471.538 579L451.538 566.853Z" fill="#007F68"/>
</g>
<defs>
<filter id="filter0_d" x="0.538086" y="0" width="1010" height="928" filterUnits="userSpaceOnUse" color-interpolation-filters="sRGB">
<feFlood flood-opacity="0" result="BackgroundImageFix"/>
<feColorMatrix in="SourceAlpha" type="matrix" values="0 0 0 0 0 0 0 0 0 0 0 0 0 0 0 0 0 0 127 0" result="hardAlpha"/>
<feOffset dx="5" dy="5"/>
<feGaussianBlur stdDeviation="2.5"/>
<feColorMatrix type="matrix" values="0 0 0 0 0 0 0 0 0 0 0 0 0 0 0 0 0 0 0.25 0"/>
<feBlend mode="normal" in2="BackgroundImageFix" result="effect1_dropShadow"/>
<feBlend mode="normal" in="SourceGraphic" in2="effect1_dropShadow" result="shape"/>
</filter>
</defs>
</svg>
