<?xml version="1.0" encoding="utf-8"?>
<!-- Generator: Adobe Illustrator 25.2.1, SVG Export Plug-In . SVG Version: 6.00 Build 0)  -->
<svg version="1.1" id="Layer_1" xmlns="http://www.w3.org/2000/svg" xmlns:xlink="http://www.w3.org/1999/xlink" x="0px" y="0px"
	 viewBox="0 0 900 900" style="enable-background:new 0 0 900 900;" xml:space="preserve">
<style type="text/css">
	.st0{clip-path:url(#SVGID_2_);}
	.st1{clip-path:url(#SVGID_4_);}
	.st2{clip-path:url(#SVGID_6_);}
	.st3{clip-path:url(#SVGID_8_);}
	.st4{fill:#E8E9EB;}
	.st5{fill:#314455;}
	.st6{fill:#E6E6E6;}
	.st7{fill:#FFFFFF;}
	.st8{fill:#A0616A;}
	.st9{opacity:0.1;enable-background:new    ;}
	.st10{fill:#2F2E41;}
	.st11{fill:#FEB8B8;}
	.st12{fill:#CCCCCC;}
</style>
<g id="surface1">
	<g>
		<defs>
			<rect id="SVGID_1_" x="48" y="27" width="804.1" height="845.9"/>
		</defs>
		<clipPath id="SVGID_2_">
			<use xlink:href="#SVGID_1_"  style="overflow:visible;"/>
		</clipPath>
		<g class="st0">
			<g>
				<defs>
					<polygon id="SVGID_3_" points="-59.6,43 801.1,-31.5 892.5,1048.9 31.9,1123.4 					"/>
				</defs>
				<clipPath id="SVGID_4_">
					<use xlink:href="#SVGID_3_"  style="overflow:visible;"/>
				</clipPath>
				<g class="st1">
					<g>
						<defs>
							<polygon id="SVGID_5_" points="-59.6,43 801.1,-31.5 892.5,1048.9 31.9,1123.4 							"/>
						</defs>
						<clipPath id="SVGID_6_">
							<use xlink:href="#SVGID_5_"  style="overflow:visible;"/>
						</clipPath>
						<g class="st2">
							<g>
								<defs>
									<path id="SVGID_7_" d="M845.9,498.7c-12.5-148-295.3-484.5-600.2-470.3c-304.9,14.2-223.4,399,17.2,597.5
										C786,1057.6,876.7,862.8,845.9,498.7z"/>
								</defs>
								<clipPath id="SVGID_8_">
									<use xlink:href="#SVGID_7_"  style="overflow:visible;"/>
								</clipPath>
								<g class="st3">
									<path class="st4" d="M956.1,952.1l-983.4,85.1l-86-1016.2l983.4-85.1L956.1,952.1z"/>
								</g>
							</g>
						</g>
					</g>
				</g>
			</g>
		</g>
	</g>
	<path id="f8c762bc-b7e7-4c8e-b73e-f411c620c2bd" class="st5" d="M524.4,182.8H334.5v-3.9h-86.1v3.9H57.8c-7.1,0-12.8,5.8-12.8,12.8
		l0,0l0,0v260c0,7.1,5.8,12.8,12.8,12.8h466.6c7.1,0,12.8-5.8,12.8-12.8v-260C537.2,188.5,531.4,182.8,524.4,182.8z"/>
	<rect id="febd0196-f53d-4e2b-8506-d3dc9ab4b723" x="62.1" y="205.5" class="st6" width="457.8" height="258.3"/>
	<rect id="a687e43e-dc25-402c-aff7-aaf80cd82cec" x="81.6" y="219.1" class="st7" width="419.2" height="223.2"/>
	<circle id="fb392c0f-c18b-4dca-9f8d-a13ba02e8cd8" class="st5" cx="290.7" cy="193.7" r="4.7"/>
	<path id="a3b325e1-b438-4eea-a78d-99975bd1014d" class="st5" d="M550,459h-44.7v-3.2c0-0.4-0.3-0.6-0.6-0.6l0,0h-15.3
		c-0.4,0-0.6,0.3-0.6,0.6l0,0l0,0v3.2h-9.6v-3.2c0-0.4-0.3-0.6-0.6-0.6l0,0h-15.3c-0.4,0-0.6,0.3-0.6,0.6l0,0l0,0v3.2H453v-3.2
		c0-0.4-0.3-0.6-0.6-0.6l0,0h-15.3c-0.4,0-0.6,0.3-0.6,0.6l0,0l0,0v3.2h-9.6v-3.2c0-0.4-0.3-0.6-0.6-0.6l0,0h-15.3
		c-0.4,0-0.6,0.3-0.6,0.6l0,0l0,0v3.2h-9.6v-3.2c0-0.4-0.3-0.6-0.6-0.6l0,0h-15.3c-0.4,0-0.6,0.3-0.6,0.6l0,0l0,0v3.2h-9.6v-3.2
		c0-0.4-0.3-0.6-0.6-0.6l0,0h-15.3c-0.4,0-0.6,0.3-0.6,0.6l0,0l0,0v3.2h-9.6v-3.2c0-0.4-0.3-0.6-0.6-0.6l0,0h-120
		c-0.4,0-0.6,0.3-0.6,0.6l0,0l0,0v3.2h-9.6v-3.2c0-0.4-0.3-0.6-0.6-0.6l0,0h-15.3c-0.4,0-0.6,0.3-0.6,0.6l0,0l0,0v3.2h-9.6v-3.2
		c0-0.4-0.3-0.6-0.6-0.6l0,0h-15.3c-0.4,0-0.6,0.3-0.6,0.6l0,0l0,0v3.2h-9.6v-3.2c0-0.4-0.3-0.6-0.6-0.6l0,0h-15.3
		c-0.4,0-0.6,0.3-0.6,0.6l0,0l0,0v3.2H139v-3.2c0-0.4-0.3-0.6-0.6-0.6l0,0H123c-0.4,0-0.6,0.3-0.6,0.6l0,0l0,0v3.2h-9.6v-3.2
		c0-0.4-0.3-0.6-0.6-0.6l0,0H96.9c-0.4,0-0.6,0.3-0.6,0.6l0,0l0,0v3.2h-9.6v-3.2c0-0.4-0.3-0.6-0.6-0.6l0,0H70.7
		c-0.4,0-0.6,0.3-0.6,0.6l0,0l0,0v3.2H40.7c-8.5,0-15.3,6.9-15.3,15.3v6.9c0,8.5,6.9,15.3,15.3,15.3H550c8.5,0,15.3-6.9,15.3-15.3
		v-6.9C565.4,465.9,558.5,459,550,459L550,459z"/>
	<rect id="e8772b6c-5a9b-4fa1-81c9-662ac65893c6" x="198.5" y="234.8" class="st6" width="185.4" height="194.8"/>
	
		<ellipse id="b9fa2d1d-eaff-4f39-9574-6fdb852a47dd" transform="matrix(0.3827 -0.9239 0.9239 0.3827 -51.5693 453.4119)" class="st8" cx="313.5" cy="265.3" rx="24.6" ry="24.6"/>
	<path id="a3ede095-a03b-477f-a348-b0bb518c525f" class="st5" d="M256.8,430l15.9-100.1c3.3-20.7,22.7-34.8,43.5-31.5
		c1.6,0.3,3.2,0.6,4.7,1.1l0,0c18.7,5.4,30.3,24.2,26.7,43.4l-16.6,89.4L256.8,430z"/>
	<path id="a14f3686-8e71-4892-a260-94847064fbe5" class="st8" d="M320.3,447.9c4.6-3.1,5.9-9.3,2.9-14c-0.3-0.5-0.7-1-1.1-1.4
		l16.4-31.8l-18.5,2l-12.8,29.9c-3.8,4.1-3.5,10.5,0.6,14.3C311.3,450.1,316.4,450.5,320.3,447.9L320.3,447.9z"/>
	<path id="aefe090c-eadc-4acf-b060-d0ae14889076" class="st5" d="M323.8,426.9c-0.9-0.1-1.8-0.5-2.4-1.2l-6.3-5.8
		c-1.4-1.3-1.8-3.3-1.1-5.1l12.6-29.8l-1.8-58.9c1.1-8,8.4-13.5,16.4-12.4c8,1.1,13.5,8.4,12.4,16.4c0,0,0,0,0,0l0,0l3.1,37
		c0.9,11.2-2.3,22.4-9,31.5l-19.6,26.5c-0.8,1-1.9,1.7-3.2,1.8C324.5,427,324.2,427,323.8,426.9z"/>
	<path id="b24d83c7-6fd4-4d89-b0e2-e143511102b2" class="st8" d="M171.6,251.9c1,5.5,6.3,9.1,11.8,8.1c0.6-0.1,1.2-0.3,1.7-0.5
		L208,287l5.4-17.8l-22.6-23.4c-2.3-5.1-8.3-7.3-13.4-5C173.2,242.7,170.8,247.3,171.6,251.9L171.6,251.9z"/>
	<path id="a479cb15-9c48-424e-90d4-4868fd6ffd90" class="st5" d="M189.6,263.3c0.5-0.8,1.2-1.4,2-1.8l7.8-3.5c1.7-0.8,3.8-0.4,5.1,1
		l22.5,23.2l54.9,21.3c6.9,4.1,9.2,13,5.1,19.9c-4.1,6.9-13,9.2-19.9,5.1c0,0,0,0,0,0l0,0l-35.3-11.6c-10.7-3.5-19.8-10.8-25.5-20.5
		l-16.8-28.4c-0.7-1.1-0.8-2.4-0.4-3.7C189.3,263.9,189.4,263.6,189.6,263.3L189.6,263.3z"/>
	<path id="fbb91ec3-afe3-4815-be57-4aca5997223d" class="st9" d="M333.5,350.7l-1,32.1L314,414.9l15.4-35.8L333.5,350.7z"/>
	<path id="b3c0f84b-28f9-45ec-afed-9c3bdf0aec76" class="st10" d="M296.8,252.9c2.5,3,6.8,3.9,10.8,4.2c8.1,0.7,19.8-0.4,27.6-2.3
		c0.6,5.4-1,11.3,2.2,15.8c1.5-5.4,2.4-11,2.6-16.6c0.1-2.4,0.1-4.9-0.9-7.1c-1-2.2-3.1-4.1-5.6-4.1c1.8-1.4,4-2.3,6.2-2.7l-7.8-3.9
		l2-2.1l-14.1-0.9l4.1-2.6c-6.2-0.8-12.4-1-18.6-0.6c-2.9,0.2-5.9,0.6-8.2,2.3s-3.7,5-2.2,7.4c-3.7,0.6-6.8,3.1-8.2,6.5
		c-1,2.6-0.9,5.6-0.6,8.4c0.5,4.5,1.6,8.9,3.1,13.1"/>
	<path id="a138b9cb-cdfc-4f68-9e32-04b91bb430b4" class="st7" d="M402.1,191.2l-224.5,51.8c-2.3,0.5-4.6-0.9-5.1-3.2l-12.9-55.7
		c-0.5-2.3,0.9-4.6,3.2-5.1l224.5-51.8c2.3-0.5,4.6,0.9,5.1,3.2l12.9,55.7C405.9,188.4,404.4,190.7,402.1,191.2z"/>
	<path id="ae469d8c-20b4-445b-a76f-3c35ff3d2f47" class="st6" d="M402.1,191.2l-224.5,51.8c-2.3,0.5-4.6-0.9-5.1-3.2l-12.9-55.7
		c-0.5-2.3,0.9-4.6,3.2-5.1l224.5-51.8c2.3-0.5,4.6,0.9,5.1,3.2l12.9,55.7C405.9,188.4,404.4,190.7,402.1,191.2z M163.3,180.7
		c-1.4,0.3-2.2,1.7-1.9,3.1l12.9,55.7c0.3,1.4,1.7,2.2,3.1,1.9l224.5-51.8c1.4-0.3,2.2-1.7,1.9-3.1l-12.9-55.7
		c-0.3-1.4-1.7-2.2-3.1-1.9L163.3,180.7z"/>
	<path id="b1e356c5-36d3-4e1f-8361-52645d018384" class="st6" d="M241.2,180.6c-1.6,0.4-2.5,1.9-2.2,3.5c0.4,1.6,1.9,2.5,3.5,2.2
		c0,0,0,0,0,0l0,0l133-30.7c1.6-0.4,2.5-1.9,2.2-3.5c-0.4-1.6-1.9-2.5-3.5-2.2L241.2,180.6z"/>
	<path id="f47b3ab2-4a63-40b6-b578-ee0e1882dc1b" class="st6" d="M245.1,197.5c-1.6,0.4-2.5,1.9-2.2,3.5c0.4,1.6,1.9,2.5,3.5,2.2
		c0,0,0,0,0,0l0,0l57.2-13.2c1.6-0.4,2.5-1.9,2.2-3.5c-0.4-1.6-1.9-2.5-3.5-2.2l0,0L245.1,197.5z"/>
	<g id="ebccd953-b296-4a3a-b6cb-ab9b47d83c6a">
		<circle id="f502afc0-c552-46f8-b839-9472032a2f9d" class="st5" cx="204.8" cy="200.7" r="17.4"/>
		<path id="e70683fc-6315-4eed-926a-207d48de8bbe" class="st7" d="M204.3,210.7c-0.6,0.1-1.2,0.1-1.7-0.2l0,0l-7-3.2
			c-1.4-0.6-2-2.2-1.3-3.6c0.6-1.4,2.2-2,3.6-1.3l4.5,2.1l6.4-14c0.6-1.4,2.2-2,3.6-1.3l0,0l0,0.1l0-0.1c1.4,0.6,2,2.2,1.3,3.6
			l-7.5,16.4C205.8,210,205.1,210.5,204.3,210.7L204.3,210.7z"/>
	</g>
	<g id="Group_28" transform="translate(733.282 333.482)">
		<path id="Path_409" class="st11" d="M-99.3,523.2l-14.2,0.5l-8.5-51.1l21-0.7L-99.3,523.2z"/>
		<path id="Path_410" class="st10" d="M-95.3,536l-45.8,1.5l0-0.5c-0.3-9.2,7.4-17,17.3-17.3l28-0.9L-95.3,536z"/>
		<path id="Path_411" class="st11" d="M76.9,508.6l-13.7,3.5l-20.8-47.9l20.3-5.2L76.9,508.6z"/>
		<path id="Path_412" class="st10" d="M84,520.1l-44.3,11.3l-0.2-0.5c-2.6-8.9,3.1-18.1,12.6-20.5c0,0,0,0,0,0l0,0l27-6.9L84,520.1z
			"/>
		<path id="Path_413" class="st10" d="M-109.5,306.8c-0.1-2.7-1.3-65.9,16.3-90.3l0.3-0.4l64.7,6.1l-1,13.3
			c2.9,2.5,25.9,23.5,34.1,75L79,480.1l-31.7,3.8L-53.1,299.4L-96,505.1l-31.5,1.1L-109.5,306.8z"/>
		<path id="Path_414" class="st12" d="M-100.7,219l5.3-31.2c-1.3-1.4-7-8.4-6.1-16.8c0.6-5.5,3.9-10.4,9.9-14.6l15.1-36.2l0.2-0.1
			c1.1-0.6,26.6-15.6,41.2-2.8c0.4,0.2,36.1,25,23.3,60.4L-27.5,227L-100.7,219z"/>
		<path id="Path_415" class="st11" d="M-121.2,261.6c6.4-0.9,10.8-6.5,9.9-12.5c-0.1-0.6-0.3-1.3-0.5-1.9l32.9-23.9l-20.4-6.5
			l-28.1,23.7c-6,2.3-8.9,8.8-6.4,14.4C-131.7,259.7-126.5,262.4-121.2,261.6L-121.2,261.6z"/>
		<path id="Path_416" class="st12" d="M-116.2,224.6l50.2-39.7L-83,136.5c-1.6-4.6-1.1-9.7,1.4-14c2.3-4,6.4-7,11.1-8.1
			c8.7-2,16.9,2.3,24.2,12.9l0.1,0.1c1.2,2.6,30.1,63.7,10.1,77.7c-19.6,13.7-65.4,34.1-65.8,34.3l-0.5,0.2L-116.2,224.6z"/>
		
			<ellipse id="Ellipse_66" transform="matrix(0.9994 -3.372360e-02 3.372360e-02 0.9994 -2.5862 -1.7373)" class="st11" cx="-52.8" cy="75.8" rx="31.2" ry="29.2"/>
		
			<ellipse id="Ellipse_67" transform="matrix(0.9994 -3.372360e-02 3.372360e-02 0.9994 -1.2812 -0.1524)" class="st10" cx="-5.2" cy="37.9" rx="27.6" ry="25.8"/>
		<path id="Path_417" class="st10" d="M19.3,58.5C7.3,67.3-10,65.2-19.4,54c-1.9-2.3-3.4-4.9-4.3-7.6C-21.3,60.4-7.2,70,7.9,67.7
			c15-2.3,25.3-15.6,23-29.6c-0.2-1.4-0.6-2.8-1.1-4.1C31.3,43.3,27.3,52.7,19.3,58.5z"/>
		<path id="Path_418" class="st10" d="M-89.5,62.2c4.5-8.2,6.3-11.7,12.3-16.8c5.3-4.5,12-6,17.6-2.1c16.4-7.3,35.9-0.9,43.7,14.4
			C-8,73-15,91.4-31.4,98.7c-16.4,7.3-35.9,0.9-43.7-14.4c-2.5-4.9-3.5-10.3-3.1-15.8C-82.9,68.1-84.7,62.6-89.5,62.2z"/>
	</g>
</g>
</svg>
