<svg width="802" height="506" viewBox="0 0 802 506" fill="none" xmlns="http://www.w3.org/2000/svg">
<path fill-rule="evenodd" clip-rule="evenodd" d="M508.405 225.836C286 204.482 -153.889 375.107 54.6486 439.99C263.187 504.873 660.223 510.827 765.61 436.91C870.998 362.993 730.899 247.087 508.405 225.836Z" fill="#F4F3EA"/>
<path d="M223.1 33.5L185.6 9.90005C183.5 8.60005 180.9 8.60005 178.8 9.90005L88.5 65.7C83.8 68.6 80.8 74.3 80.8 80.5L79.4 422.7" stroke="#C3CCD5" stroke-width="8"/>
<path fill-rule="evenodd" clip-rule="evenodd" d="M103.9 421.8L55.9 421.6C54.4 421.6 53.2 423 53.2 424.8V425.9C53.2 427.6 54.4 429.1 55.9 429.1L103.9 429.3C105.4 429.3 106.6 427.9 106.6 426.1V425C106.6 423.3 105.4 421.8 103.9 421.8Z" fill="#AEB9C3"/>
<path fill-rule="evenodd" clip-rule="evenodd" d="M213.02 22.0166C201.282 35.593 201.212 57.584 212.879 71.2312L230.698 92.1616L273.195 43.159L255.376 22.2287C243.709 8.58153 224.758 8.4401 213.02 22.0166Z" fill="#C5CFD7"/>
<path d="M246.374 63.0054C234.742 76.6032 227.456 89.4601 230.1 91.7219C232.744 93.9837 244.317 84.794 255.949 71.1961C267.581 57.5982 274.867 44.7414 272.223 42.4796C269.579 40.2177 258.006 49.4075 246.374 63.0054Z" fill="#F3F2E9"/>
<path fill-rule="evenodd" clip-rule="evenodd" d="M604.2 160.3C599.3 169.5 599.9 192.7 606.2 194.4C608.7 195.1 614.1 193.5 619.6 190.1L616.2 214.5H636.5L629.5 181.8C633.4 177.2 636 171.6 635.6 165.3C634.3 147.1 609.1 151.1 604.2 160.3Z" fill="#ADACA6"/>
<path fill-rule="evenodd" clip-rule="evenodd" d="M638.2 139.8C631.2 139.8 625.5 145.5 625.5 152.5V152.3C615.3 148.8 602 152.9 603.8 161.2C604.9 166.5 611.1 169.2 617.2 172.1C618.1 170.5 619.8 169.5 621.7 169.5C624.6 169.5 626.9 171.8 626.9 174.6C626.9 175.6 626.6 176.6 626.1 177.3C628.1 179.1 629.6 181.2 629.9 184C633.2 184 638.5 174.3 636.7 165.1C637.2 165.2 637.6 165.2 638.1 165.2C645.1 165.2 650.8 159.5 650.8 152.5C650.8 145.5 645.2 139.8 638.2 139.8Z" fill="#DFDED6"/>
<path fill-rule="evenodd" clip-rule="evenodd" d="M638.2 284.9L596.6 390.3L568.8 479.5H557.8L602.1 284.9H638.2Z" fill="#ADACA6"/>
<path fill-rule="evenodd" clip-rule="evenodd" d="M646.5 284.9C646.9 321.9 653.4 371.8 654.4 374.1C655.1 375.6 678.8 395.2 725.5 432.8L717.9 440.9C662.8 408.6 633.9 390.4 631.4 386.1C627.6 379.6 615.1 320.3 605.1 284.8H646.5V284.9Z" fill="#ADACA6"/>
<path fill-rule="evenodd" clip-rule="evenodd" d="M726.586 430.223C729.08 431.141 730.857 431.979 731.853 432.815C733.002 433.779 734.571 435.487 736.471 437.734C735.314 439.113 725.094 451.293 705.822 474.415C701.91 472.699 700.675 470.749 702.104 468.423C703.61 466.162 704.794 464.284 705.721 462.712L712.331 439.278C712.575 438.831 712.973 438.512 713.485 438.681L717.066 439.858C719.516 438.65 721.261 437.503 722.225 436.354C723.061 435.358 723.77 433.735 724.418 431.407C724.691 430.46 725.64 429.951 726.586 430.223C726.51 430.159 726.51 430.159 726.586 430.223Z" fill="#E5E4DC"/>
<path fill-rule="evenodd" clip-rule="evenodd" d="M573.3 475.4C574.2 477.9 574.7 479.8 574.7 481.1C574.7 482.6 574.4 484.9 573.9 487.8C572.1 487.8 556.2 487.8 526.2 487.8C525 483.7 525.7 481.5 528.3 481.1C531 480.8 533.3 480.5 535 480.2L557.2 470.3C557.6 470.1 558.1 470.3 558.3 470.7L559.7 474.2C562.2 475.4 564.2 475.9 565.7 475.9C567 475.9 568.7 475.4 570.9 474.4C571.7 474 572.8 474.4 573.1 475.2C573.3 475.3 573.3 475.3 573.3 475.4Z" fill="#E5E4DC"/>
<path fill-rule="evenodd" clip-rule="evenodd" d="M610.2 470.3L557.9 464.6L600.1 284.9H643.5L610.2 470.3Z" fill="#171F27"/>
<path fill-rule="evenodd" clip-rule="evenodd" d="M714.8 419.8L680.5 460.5C644.4 420.9 623.3 395.1 617.3 383C611.3 370.9 605.9 338.2 601.1 284.9H653.8C656.4 331.8 658.2 356.4 659.1 358.6C660 360.8 678.6 381.2 714.8 419.8Z" fill="#354858"/>
<path fill-rule="evenodd" clip-rule="evenodd" d="M675.1 274.8L657.4 274.9C668.3 310.3 674.2 329 675.1 331.2C677.1 336.1 672.9 343.5 671.1 347.5C676.9 350.1 676.3 340.5 683.5 343.9C690.1 347 695.2 352.6 702.9 347.9C703.8 347.3 704.9 345.1 702.4 343.4C696.2 339.1 687.2 331.6 686 329.2C684.4 325.6 680.7 307.5 675.1 274.8ZM568.7 271.4L544.7 294.9C537.7 297.9 532 301.2 527.6 304.8C526.6 306 525.5 308.3 530.2 307.3C534.9 306.3 539.9 305.4 540.8 306.9C541.7 308.4 539.1 310.8 540.7 312.8C541.8 314.1 545.5 309.9 551.7 300L576.6 285.3L568.7 271.4Z" fill="#ADACA6"/>
<path fill-rule="evenodd" clip-rule="evenodd" d="M624.9 200.3L617.6 199C605 230.6 583 259.2 551.6 285L575.3 314C606.7 277.3 626 239.4 624.9 200.3Z" fill="#2F4151"/>
<path fill-rule="evenodd" clip-rule="evenodd" d="M656.8 292.6H591.7C606.7 255.7 614.3 224.5 614.3 198.7L633.9 195.8C649.4 220.7 653.7 251.4 656.8 292.6Z" fill="#C8D1D8"/>
<path fill-rule="evenodd" clip-rule="evenodd" d="M633 195.8C631.5 195.9 629.1 195.9 626 196.1L621.3 209.7C620.8 226.3 617.9 259.7 612.5 310H655.2C655.1 313.5 654.9 317 654.6 320.5H686.4C681.6 266.8 664.3 225.2 634.3 195.8H633Z" fill="#536371"/>
<path fill-rule="evenodd" clip-rule="evenodd" d="M643.2 310.4H655.1C655.6 294.8 654.7 279.9 652.3 265.6C651.1 287.3 648.1 302.2 643.2 310.4Z" fill="black" fill-opacity="0.1"/>
<path fill-rule="evenodd" clip-rule="evenodd" d="M645.7 284.1L624.6 274.2V284.1H645.7Z" fill="white" fill-opacity="0.2"/>
<path fill-rule="evenodd" clip-rule="evenodd" d="M423.4 217.4C430.4 224.9 435.5 247 429.8 250C427.5 251.2 421.8 251 415.7 249.2L425 271.4L405.2 276.2L404 243.7C399.1 240.3 395.1 235.6 394 229.6C390.8 212.2 416.3 209.9 423.4 217.4Z" fill="#ADACA6"/>
<path fill-rule="evenodd" clip-rule="evenodd" d="M413.1 209.9C410.2 209.8 406.2 210.4 404.6 211C405 208.6 404.7 206.1 403.8 203.8C402.9 201.6 401.3 199.9 399.8 198C399.1 197.2 398.3 196.3 397.4 195.8C396.4 195.3 395.3 195 394.2 195C393.1 195 392 195.3 391 195.8C390.6 196 390.2 196.3 389.8 196.5C389.4 196.7 389.1 196.5 388.6 196.3C387.6 195.8 386.3 195.8 385.2 195.9C384 196 382.8 196.5 381.8 197.2C380.8 197.8 379.9 198.7 379.4 199.7C379.1 200.2 378.9 200.7 378.9 201.2C378.9 201.4 378.9 201.5 378.7 201.7C378.5 201.8 378.3 201.9 378.1 202C376.4 203.1 375.2 204.9 374.7 206.9C374.5 208.1 374.7 210 375.3 212C375.9 214.1 379.2 219 381.5 220.5C383.6 221.9 386.2 222.5 388.7 222.4C387.6 224.5 387.2 226.8 387 229.1C386.8 231.6 386.9 234.2 387.4 236.7C387.8 239.1 388.5 241.5 389.6 243.7C390.7 245.7 392.3 247.2 394.4 247.8C395.4 248.1 396.4 248.3 397.4 248.4C398.4 248.5 399.4 248.6 400.4 248.6C402.3 248.5 404.4 247.9 405.4 246.2C405.8 245.6 406.2 244.8 406.4 244.1C406.5 243.8 406.5 243.7 406.3 243.5C406 243.3 405.7 243.2 405.4 243C403.7 242.2 402.4 240.8 401.7 239C401 237.2 400.9 234.6 402.6 233.4C404.7 231.8 407.5 232.4 409.9 232.9C410 229.7 411.1 226.5 413.6 224.5C416.3 222.2 419.9 221.2 422.7 219.1C423.4 218.6 424.2 218 424.6 217.1C424.8 216.7 425 216.3 425 215.9C425 215.4 424.6 215 424.2 214.7C422.3 213 416 210.1 413.1 209.9Z" fill="#171F27"/>
<path d="M331.464 448.197C342.929 479.699 379.822 495.192 413.867 482.802C447.913 470.411 466.217 434.829 454.752 403.327C443.287 371.824 406.394 356.331 372.349 368.722C338.303 381.113 319.999 416.695 331.464 448.197Z" fill="#C5CFD7"/>
<path fill-rule="evenodd" clip-rule="evenodd" d="M540.6 475.8C523.8 455.9 512.5 441.2 506.5 431.6C496.3 415.2 488 400.6 485.4 395C479.1 381.7 499.8 375.4 504.5 381.7C511.6 391.1 526.7 420.7 549.8 470.4L540.6 475.8Z" fill="#ADACA6"/>
<path fill-rule="evenodd" clip-rule="evenodd" d="M506.2 470L475 393.7C468.3 379.8 500.6 370.7 505.5 377.1C516.6 391.8 543.1 449.7 546.5 454.1L506.2 470Z" fill="#2F4151"/>
<path fill-rule="evenodd" clip-rule="evenodd" d="M423 454.7C429.1 446.1 451.2 417.1 463.3 405.2C466.8 401.8 470.1 398.5 473.3 395.4C482.8 386.2 501.7 401.6 492.2 410C468.6 430.8 434.1 458.8 431.2 461.3C427.2 464.7 419.2 460.1 423 454.7Z" fill="#ADACA6"/>
<path fill-rule="evenodd" clip-rule="evenodd" d="M424.491 450.798C422.375 452.463 420.992 453.858 420.392 454.898C419.642 456.197 418.715 458.202 417.698 460.963C419.257 461.863 433.127 469.64 459.307 484.294C462.433 481.48 462.927 479.224 460.739 477.615C458.551 476.005 456.745 474.732 455.423 473.622L441.071 454.481C440.824 454.108 440.291 454.031 439.918 454.278L436.919 456.472C434.154 456.261 432.122 455.781 430.823 455.031C429.697 454.381 428.475 453.098 427.019 451.218C426.527 450.472 425.374 450.268 424.628 450.761C424.541 450.711 424.491 450.798 424.491 450.798Z" fill="#E5E4DC"/>
<path fill-rule="evenodd" clip-rule="evenodd" d="M533.4 472.8C532.4 475.3 532 477.1 532 478.3C532 479.8 532.3 482 532.8 484.8C534.6 484.8 550.6 484.8 580.8 484.8C582 480.8 581.3 478.6 578.6 478.3C575.9 478 573.7 477.7 571.9 477.4L549.5 467.8C549.1 467.6 548.6 467.8 548.4 468.2L547 471.6C544.5 472.7 542.5 473.3 540.9 473.3C539.6 473.3 537.9 472.8 535.7 471.8C534.8 471.4 533.8 471.8 533.4 472.6C533.4 472.7 533.4 472.7 533.4 472.8Z" fill="#E5E4DC"/>
<path fill-rule="evenodd" clip-rule="evenodd" d="M463.7 397.5C437.7 393.4 420.3 390.6 411.5 389.1C386.4 384.8 379 371.7 383.4 343.1H429.7C435.8 344.8 461.4 355.4 506.5 374.9C514.6 378.8 513.1 390.3 511.6 394.1C511.5 394.3 497.9 417 470.6 462.3L432.7 438.9L463.7 400.3C464.6 398.7 464.6 397.8 463.7 397.5Z" fill="#536371"/>
<path fill-rule="evenodd" clip-rule="evenodd" d="M348.5 318.4L363.5 321C346.1 354.5 336.8 372.2 335.5 374.1C332.7 378.4 335.5 386.2 336.6 390.4C330.4 391.9 332.7 382.8 324.9 384.8C317.8 386.6 311.8 391.2 305 385.3C304.2 384.6 303.5 382.3 306.3 381.1C313.2 378.1 323.4 372.4 325 370.2C327.3 367.3 335.1 350 348.5 318.4ZM471.4 326.4L498.6 345.7C506 347.6 512.1 350 517.1 352.9C518.3 353.9 519.7 356 514.8 355.7C510 355.3 504.8 355.2 504.2 356.8C503.5 358.4 506.5 360.3 505.1 362.5C504.2 363.9 499.9 360.3 492.3 351.7L465.4 340.8L471.4 326.4Z" fill="#ADACA6"/>
<path fill-rule="evenodd" clip-rule="evenodd" d="M422.3 257.8C435 283.2 452.2 307.7 477.7 328.5C481.2 328.3 485 328.8 489.1 330.1C491.1 330.8 492.2 332.9 491.5 334.8C491.1 335.9 490.2 336.8 489.1 337.1C489.9 337.7 490.7 338.2 491.5 338.7L484.6 352.3C455.8 338.4 428.7 327.9 416.3 304.8C412.2 297.1 413.6 270.8 413.2 261.3L422.3 257.8Z" fill="#B9898F"/>
<path fill-rule="evenodd" clip-rule="evenodd" d="M381.2 350.2C408 353.1 429 353.1 444.4 350.2C446.3 349.8 446.2 341.9 445.3 339.7C431.5 305.8 422.5 281.1 422.5 257.5C420 258.8 415.6 259 409.3 258.1C392.4 282.4 384.6 310.2 381.2 350.2Z" fill="#171F27"/>
<path fill-rule="evenodd" clip-rule="evenodd" d="M412.2 256.1C409.3 292.7 448.7 372.5 435.1 440.6C409.8 446.1 373.7 429 338.6 442.6C339.9 415.1 366.1 382.9 376.3 354.1C375.4 353.3 374.9 352 375.1 350.7L375.5 348.3C375.8 346.6 377.2 345.4 378.8 345.3C379.1 344.1 379.3 342.8 379.5 341.6C381.2 331.3 378.3 321.2 378.4 311.2C364.7 322.5 352.4 342.1 341.6 369.9L325.5 365.3C326.1 363.1 326.7 360.9 327.4 358.7C325.5 357.7 323.4 353 324.9 352.2C326.5 351.4 328.2 350.8 330 350.5C344.7 307.4 368.9 275.9 402.3 256L412.2 256.1Z" fill="#B9B9B2"/>
<path fill-rule="evenodd" clip-rule="evenodd" d="M406 257L401.6 270.1L410.5 279.9L402.5 287.6L421.8 319.7L398.2 287.7L406 279.9L398.2 271.2L406 257Z" fill="black" fill-opacity="0.1"/>
<path fill-rule="evenodd" clip-rule="evenodd" d="M421.2 363.5C423.1 363.5 424.6 365 424.6 366.8C424.6 368.6 423.1 370.1 421.2 370.1C419.3 370.1 417.8 368.6 417.8 366.8C417.8 365 419.4 363.5 421.2 363.5ZM420.4 344.5C422.3 344.5 423.8 346 423.8 347.8C423.8 349.6 422.3 351.1 420.4 351.1C418.5 351.1 417 349.6 417 347.8C417 346 418.5 344.5 420.4 344.5ZM416.1 325.5C418 325.5 419.5 327 419.5 328.8C419.5 330.6 418 332.1 416.1 332.1C414.2 332.1 412.7 330.6 412.7 328.8C412.7 327 414.3 325.5 416.1 325.5Z" fill="black" fill-opacity="0.4"/>
<path fill-rule="evenodd" clip-rule="evenodd" d="M277.4 171.2C282.3 180.1 281.7 202.7 275.4 204.3C272.9 204.9 267.4 203.4 261.9 200.2L265.4 223.9H245L252 192.1C248.1 187.6 245.4 182.2 245.9 176C247.1 158.4 272.5 162.3 277.4 171.2Z" fill="#573136"/>
<path fill-rule="evenodd" clip-rule="evenodd" d="M286.5 158.9C286.1 157.5 284.9 156.2 283.4 155.9C283 155.8 282.6 155.8 282.3 155.8C282.2 155.8 282.1 155.8 282.1 155.8C282.1 155.7 282.1 155.6 282 155.5C281.9 155.2 281.9 155 281.8 154.8C281.5 154 280.9 153.2 280.3 152.6C279.1 151.4 277.4 150.6 275.7 150.5C274.8 150.4 273.8 150.6 273 150.9C272.5 151.1 272.1 151.2 271.7 151.5C271.6 151.6 271.1 151.9 271 151.9C270.9 151.9 270.6 151.5 270.4 151.4C269 150.3 267.2 149.9 265.4 149.9C263.4 149.9 261.4 150 259.7 151.2C259.3 151.5 259 151.7 258.7 152C258.5 152.2 258.4 152.3 258.2 152.5C258.1 152.6 258 152.7 257.9 152.8C257.7 153 257.8 153 257.6 152.9C256.8 152.4 255.8 152.2 254.9 152.3C254.3 152.4 253.8 152.5 253.3 152.7C253.1 152.8 252.7 153.1 252.5 153.1C252.3 153.1 251.9 152.8 251.7 152.8C250.7 152.4 249.5 152.3 248.4 152.5C247.3 152.7 246.1 153.1 245.2 153.7C244.7 154 244.3 154.3 244 154.8C243.9 155 243.7 155.2 243.6 155.4C243.5 155.5 243.3 155.6 243.3 155.7C243.3 155.6 242.1 155.1 241.9 155.1C241.3 154.9 240.6 155 240 155.2C238.8 155.6 237.8 156.4 237 157.3C236.6 157.7 236.2 158.2 235.9 158.8C235.7 159.1 235.6 159.3 235.5 159.6C235.4 159.7 235.4 159.9 235.3 160C235.2 160.1 235.1 160.2 234.9 160.2C233.9 160.5 233.1 161.1 232.4 161.8C231.7 162.6 231.3 163.5 231.1 164.5C231.1 164.6 231.1 164.8 231 164.8C231 164.8 230.8 164.8 230.7 164.8C230.4 164.8 230.2 164.9 229.9 164.9C229.4 165 229 165.2 228.6 165.4C227 166.2 225.8 167.7 225.2 169.3C224.6 171 224.6 173.1 225.3 174.8C225.4 175.1 225.6 175.3 225.7 175.6C225.8 175.8 225.8 175.8 225.8 175.9C225.7 176.1 225.6 176.3 225.5 176.4C225.2 177 225 177.6 224.9 178.2C224.7 179.2 224.6 180.3 224.8 181.4C224.9 181.9 225.1 182.4 225.3 182.8C225.4 183 225.6 183.2 225.7 183.4C225.8 183.5 225.9 183.6 226 183.7C226.1 183.8 226.1 183.8 226.2 183.9C226.3 184 226.3 183.9 226.3 184.1C226.2 184.4 226 184.7 225.9 185C225.8 185.3 225.7 185.6 225.6 185.9C225.4 186.5 225.2 187.1 225.1 187.8C224.9 189 224.9 190.3 225.5 191.4C225.8 191.9 226.1 192.3 226.6 192.6C226.8 192.8 227 192.9 227.3 193C227.4 193.1 227.6 193.1 227.6 193.2C227.7 193.3 227.6 193.6 227.5 193.7C227.3 194.9 227.2 196.2 227.6 197.4C227.9 198.5 228.7 199.5 229.7 200.1C231.6 201.4 234.2 201.3 236.2 200.3C236.7 200 237.2 199.7 237.7 199.3C238.8 200.8 241.1 200.7 242.8 200.3C244.8 199.8 246.5 198.4 247.4 196.6C248.7 198.1 251.4 197.6 252.3 196C252.5 195.6 252.6 195.2 252.7 194.7C252.7 194.5 252.7 194.2 252.7 194C252.7 193.7 252.9 193.4 253.1 193.1C253.3 192.5 253.5 192 253.5 191.3C253.5 191 253.5 190.7 253.4 190.4C253.4 190.1 253.5 189.9 253.5 189.6C253 189.7 252.3 189.5 251.8 189.4C251.3 189.3 250.9 188.9 250.5 188.5C249.7 187.7 249.2 186.6 248.9 185.6C248.2 183.3 248.5 180.5 250.9 179.3C252 178.7 255.4 178.7 256.7 179C258.1 179.3 259.7 182.3 259.8 182.6C259.8 182.8 259.8 183 260 183.1C260.4 183.4 261 182.9 261.2 182.7C261.7 182.3 262 181.8 262.3 181.3C262.9 180.2 263.4 179 263.8 177.8C264.1 176.9 264.2 175.9 264.6 175C265 174.1 265.5 173.3 266.4 172.8C267.3 172.2 268.4 171.9 269.5 171.6C270.5 171.3 271.5 170.8 272.3 170.1C272.5 169.9 272.6 169.8 272.8 169.6C272.9 169.4 273 169.2 273.2 169.1C273.5 169 273.8 169.3 274.1 169.5C275.2 170.2 276.2 171.2 276.9 172.2C277.7 173.2 278.3 174.3 278.8 175.4C279.2 176.3 279.4 177.4 280.1 178.1C280.4 178.4 282.6 178.6 283.3 178.3C284 178 284.8 177.3 285 176.8C285.2 176.3 285.3 175.8 285.2 175.3C285.1 175 285 174.7 284.9 174.4C284.8 174.2 284.8 173.9 284.7 173.7C284.5 173.3 284.1 173 283.6 172.8C284.1 172.4 284.5 171.8 284.8 171.2C285.1 170.6 285.4 169.8 285.4 169.1C285.5 168.5 285.4 168 285.1 167.5C284.8 167 284.2 166.7 283.7 166.4C284.5 165.8 285.1 165.1 285.7 164.3C286.3 162.6 287 160.7 286.5 158.9Z" fill="#293947"/>
<path fill-rule="evenodd" clip-rule="evenodd" d="M212.1 373.5C232.5 379 250.1 381.8 265 381.8C279.8 381.8 293.6 377.5 306.3 369C286.3 363.3 269.9 360.5 256.9 360.5C243.9 360.5 229 364.8 212.1 373.5Z" fill="#B9898F"/>
<path fill-rule="evenodd" clip-rule="evenodd" d="M282.6 389.7C282.4 389.4 282.2 389.1 282.1 388.8C279.4 381.8 235.6 306.3 231.3 292.5H280.5C283.8 303 298.7 368.9 300.8 382C307.4 402.7 321.1 469.9 322.8 474.5C324.6 479.4 314.3 484.5 311.6 478.5C307.2 468.9 296.8 442.4 292.2 426.3C287.9 411.1 284.4 397.5 282.6 389.7Z" fill="#573136"/>
<path fill-rule="evenodd" clip-rule="evenodd" d="M282.6 389.7C282.4 389.4 282.2 389.1 282.1 388.8C279.4 381.8 235.6 306.3 231.3 292.5H280.5C283.8 303 298.7 368.9 300.8 382C307.4 402.7 321.1 469.9 322.8 474.5C324.6 479.4 314.3 484.5 311.6 478.5C307.2 468.9 296.8 442.4 292.2 426.3C287.9 411.1 284.4 397.5 282.6 389.7Z" fill="black" fill-opacity="0.1"/>
<path fill-rule="evenodd" clip-rule="evenodd" d="M242.3 399C222.3 403.9 149.2 412.8 144.2 414.1C139 415.5 134.5 405.2 140.9 403C151.1 399.4 179 391.2 196 387.9C209.6 385.2 222.1 383 230.5 381.7C229.8 358.9 226.6 304.3 228.7 292.5H272.3C270.3 303.8 253.1 386.4 249.9 394.7C248.7 397.6 245.7 398.9 242.3 399Z" fill="#573136"/>
<path fill-rule="evenodd" clip-rule="evenodd" d="M141.405 400.216C138.787 399.764 136.829 399.601 135.549 399.827C134.072 400.087 131.841 400.684 129.072 401.68C129.368 403.354 132.175 418.7 137.361 447.537C141.607 448.007 143.652 446.936 143.595 444.306C143.439 441.693 143.352 439.474 143.352 437.748L149.253 414.774C149.38 414.346 149.096 413.888 148.668 413.761L144.978 412.99C143.379 410.835 142.441 408.969 142.181 407.492C141.972 406.31 142.17 404.549 142.772 402.209C143.027 401.352 142.46 400.436 141.602 400.181C141.405 400.216 141.405 400.216 141.405 400.216Z" fill="#E5E4DC"/>
<path fill-rule="evenodd" clip-rule="evenodd" d="M308.5 477.7C307.5 480.2 307.1 482 307.1 483.2C307.1 484.7 307.4 486.9 307.9 489.7C309.7 489.7 325.7 489.7 355.9 489.7C357.1 485.7 356.4 483.5 353.7 483.2C351 482.9 348.8 482.6 347 482.3L324.7 472.7C324.3 472.5 323.8 472.7 323.6 473.1L322.2 476.5C319.7 477.6 317.7 478.2 316.1 478.2C314.8 478.2 313.1 477.7 310.9 476.7C310 476.3 309 476.7 308.6 477.5C308.5 477.7 308.5 477.7 308.5 477.7Z" fill="#E5E4DC"/>
<path fill-rule="evenodd" clip-rule="evenodd" d="M228.8 292.5C248 287.2 266.2 287.2 283.3 292.5C289.3 318.9 303.7 329.3 306.3 369.8C277.4 383.7 241.6 359.9 211.8 373.5C203.2 354.4 215.1 308.5 228.8 292.5Z" fill="#B9B9B2"/>
<path fill-rule="evenodd" clip-rule="evenodd" d="M191.7 273.5L209.1 276.9C191.6 308.6 182.1 325.4 180.9 327.3C178 331.6 180.7 339.4 181.7 343.6C175.5 345 177.9 336 170.1 337.8C162.9 339.5 156.9 343.9 150.2 338C149.4 337.3 148.8 335 151.6 333.8C158.6 330.9 168.9 325.4 170.5 323.3C172.8 320.3 179.9 303.7 191.7 273.5ZM364.3 248.1L364 248.5C361.4 252.3 358.9 256.2 360 257.5C361.1 258.9 364.3 257.4 365.5 259.6C366.3 261.1 361 262.8 349.4 264.9L326.3 282.1L316.4 269.9L347.3 256.8C352.7 251.6 357.9 247.6 363 244.9C364.5 244.4 367 244.2 364.3 248.1Z" fill="#573136"/>
<path fill-rule="evenodd" clip-rule="evenodd" d="M256.6 210.2L264 209C280 224.1 286.6 260.3 297.3 265.1C307.4 269.6 321.7 265.2 338.8 259.3L344 270.6C328.5 286.8 295.6 300.5 282.2 292.7C260.8 280.2 255.8 235.5 256.6 210.2Z" fill="#8E5159"/>
<path fill-rule="evenodd" clip-rule="evenodd" d="M224.5 299.9C254 299.9 275.7 299.9 289.6 299.9C292.6 299.9 292 295.7 291.6 293.6C286.6 269.3 267.2 243.2 267.2 208.6L248.4 205.7C232.9 230 227.6 259.9 224.5 299.9Z" fill="#C8D1D8"/>
<path fill-rule="evenodd" clip-rule="evenodd" d="M254.7 205.8C271.6 261.6 276.2 298.7 268.7 317.3H210.1C211 303.7 214 289.4 218.1 275.4C204.8 298.6 193.7 315.4 184.6 325.6L170.9 323C179.7 270.1 205.2 231.1 247.3 205.9H254.7V205.8Z" fill="#B27B82"/>
</svg>
