<svg width="729" height="534" viewBox="0 0 729 534" fill="none" xmlns="http://www.w3.org/2000/svg">
<path fill-rule="evenodd" clip-rule="evenodd" d="M728.849 181.691C736.215 280.452 472.919 434.583 256.629 382.549C40.3404 330.516 -64.6295 118.056 42.1726 28.2449C148.974 -61.5659 721.56 82.8519 728.849 181.691Z" fill="#F4F3EA"/>
<path fill-rule="evenodd" clip-rule="evenodd" d="M232.807 533.312L274.582 327.284L287.232 329.437L329.694 532.92L321.358 533.018L280.858 332.275L240.554 533.312H232.807Z" fill="#313131"/>
<path fill-rule="evenodd" clip-rule="evenodd" d="M243.3 339.322L314.003 339.224V331.688L243.3 331.786V339.322Z" fill="#822323"/>
<path fill-rule="evenodd" clip-rule="evenodd" d="M556.652 532.677L598.623 326.649L611.175 328.802L653.734 532.383H645.301L604.801 331.64L564.497 532.677H556.652Z" fill="#313131"/>
<path fill-rule="evenodd" clip-rule="evenodd" d="M567.341 338.785L637.946 338.687V331.249L567.341 331.347V338.785Z" fill="#822323"/>
<path fill-rule="evenodd" clip-rule="evenodd" d="M718.514 331.212L168.085 331.995C166.026 331.995 164.261 330.135 164.261 327.884V307.917C164.261 305.568 166.026 303.806 168.085 303.806L718.514 303.023C720.573 303.023 722.339 304.883 722.339 307.134V327.101C722.24 329.352 720.573 331.212 718.514 331.212Z" fill="#822323"/>
<path fill-rule="evenodd" clip-rule="evenodd" d="M516.746 270.235L278.649 270.529C274.432 270.529 271.196 267.103 271.196 262.895L271 113.928C271 109.719 274.432 106.294 278.453 106.294L516.55 106C520.767 106 524.003 109.426 524.003 113.634L524.199 262.601C524.395 266.81 520.963 270.235 516.746 270.235Z" fill="#F5B14B"/>
<path fill-rule="evenodd" clip-rule="evenodd" d="M513.608 237.349L280.904 237.643L280.708 122.052C280.708 119.017 283.258 116.375 286.2 116.375L508.117 116.081C511.157 116.081 513.608 118.528 513.608 121.758L513.804 237.055C513.903 237.251 513.706 237.349 513.608 237.349Z" fill="white"/>
<path fill-rule="evenodd" clip-rule="evenodd" d="M524.297 236.077V264.852C524.297 267.886 521.747 270.529 518.805 270.529L435.55 270.627V291.279C441.728 291.67 446.533 296.857 446.533 303.219L350.823 303.317C350.823 299.989 352.098 296.955 354.256 294.9C356.217 292.747 359.061 291.474 362.199 291.376V270.725L276.589 270.822C273.549 270.822 271.098 268.376 271.098 265.146V236.174L524.101 235.783C524.199 235.685 524.297 235.881 524.297 236.077Z" fill="#F5B14B"/>
<path fill-rule="evenodd" clip-rule="evenodd" d="M498.605 128.022C498.605 129.099 497.722 129.98 496.643 129.98C495.565 129.98 494.682 129.001 494.682 128.022C494.682 127.043 495.565 126.064 496.643 126.064C497.722 126.064 498.605 126.945 498.605 128.022Z" fill="white"/>
<path fill-rule="evenodd" clip-rule="evenodd" d="M298.85 128.511C298.85 129.588 297.967 130.469 296.889 130.469C295.81 130.469 294.927 129.49 294.927 128.511C294.927 127.533 295.81 126.554 296.889 126.554C297.967 126.554 298.85 127.337 298.85 128.511Z" fill="#F5B14B"/>
<path fill-rule="evenodd" clip-rule="evenodd" d="M306.891 128.414C306.891 129.49 306.009 130.371 304.93 130.371C303.851 130.371 302.969 129.392 302.969 128.414C302.969 127.337 303.851 126.456 304.93 126.456C306.009 126.456 306.891 127.337 306.891 128.414Z" fill="#A6B1BA"/>
<path fill-rule="evenodd" clip-rule="evenodd" d="M315.128 128.414C315.128 129.49 314.246 130.371 313.167 130.371C312.088 130.371 311.206 129.392 311.206 128.414C311.206 127.435 312.088 126.456 313.167 126.456C314.246 126.456 315.128 127.337 315.128 128.414Z" fill="#A6B1BA"/>
<path fill-rule="evenodd" clip-rule="evenodd" d="M493.799 144.171L296.692 144.465C294.045 144.465 291.887 142.214 291.887 139.571C291.887 136.831 294.045 134.678 296.692 134.678L493.799 134.384C496.447 134.384 498.605 136.635 498.605 139.278C498.703 141.92 496.447 144.171 493.799 144.171Z" fill="white"/>
<path fill-rule="evenodd" clip-rule="evenodd" d="M492.953 216.913L302.413 217C301.118 217 300.193 216.565 300.193 216.044C300.193 215.522 301.303 215.087 302.413 215.087L492.953 215C494.248 215 495.173 215.435 495.173 215.957C495.358 216.391 494.248 216.913 492.953 216.913Z" fill="#A6B1BA"/>
<path fill-rule="evenodd" clip-rule="evenodd" d="M492.953 202.913L302.413 203C301.118 203 300.193 202.565 300.193 202.044C300.193 201.522 301.303 201.087 302.413 201.087L492.953 201C494.248 201 495.173 201.435 495.173 201.957C495.358 202.391 494.248 202.913 492.953 202.913Z" fill="#A6B1BA"/>
<path fill-rule="evenodd" clip-rule="evenodd" d="M492.953 174.913L302.413 175C301.118 175 300.193 174.565 300.193 174.044C300.193 173.522 301.303 173.087 302.413 173.087L492.953 173C494.248 173 495.173 173.435 495.173 173.957C495.358 174.391 494.248 174.913 492.953 174.913Z" fill="#A6B1BA"/>
<path fill-rule="evenodd" clip-rule="evenodd" d="M492.973 188.913L302.413 189C301.118 189 300.193 188.565 300.193 188.044C300.193 187.522 301.303 187.087 302.413 187.087L492.973 187C494.268 187 495.193 187.435 495.193 187.957C495.193 188.478 494.268 188.913 492.973 188.913Z" fill="#A6B1BA"/>
<path fill-rule="evenodd" clip-rule="evenodd" d="M492.972 160.913L302.413 161C301.118 161 300.193 160.565 300.193 160.043C300.193 159.522 301.303 159.087 302.413 159.087L492.972 159C494.267 159 495.193 159.435 495.193 159.957C495.193 160.478 494.267 160.913 492.972 160.913Z" fill="#A6B1BA"/>
<path fill-rule="evenodd" clip-rule="evenodd" d="M68.7956 403.154C66.5414 413.867 44 528.913 44 528.913C44 528.913 44.5881 531.801 48.2143 532.267C51.8405 532.732 53.8006 530.031 53.8006 530.031L85.4566 405.855L68.7956 403.154Z" fill="#313131"/>
<path fill-rule="evenodd" clip-rule="evenodd" d="M143.084 405.669C145.632 416.289 175.034 530.497 175.034 530.497C175.034 530.497 176.798 533.105 180.424 532.546C184.051 531.987 184.737 529.006 184.737 529.006L159.941 403.899L143.084 405.669Z" fill="#313131"/>
<path fill-rule="evenodd" clip-rule="evenodd" d="M180.326 405.296C182.875 415.916 212.276 530.124 212.276 530.124C212.276 530.124 214.04 532.733 217.667 532.174C221.293 531.615 221.979 528.634 221.979 528.634L197.183 403.527L180.326 405.296Z" fill="#313131"/>
<path fill-rule="evenodd" clip-rule="evenodd" d="M200.124 407.718L64.3853 407.905C59.191 407.905 55.0747 404.644 55.0747 400.545C55.0747 396.54 59.289 393.186 64.3853 393.186L200.124 393C205.318 393 209.434 396.26 209.434 400.359C209.336 404.458 205.22 407.718 200.124 407.718Z" fill="#822323"/>
<path fill-rule="evenodd" clip-rule="evenodd" d="M130.839 152.579C137.21 165.71 136.524 198.913 128.193 201.351C124.86 202.289 117.901 200.038 110.648 195.255L115.157 230.146H88.5945L97.71 183.437C92.6131 176.872 89.0845 168.899 89.6726 159.895C91.4369 133.821 124.468 139.448 130.839 152.579Z" fill="#B8858C"/>
<path fill-rule="evenodd" clip-rule="evenodd" d="M120.352 138.323C101.925 130.725 87.3203 145.357 85.458 147.796C83.3996 150.422 82.0274 153.517 81.0473 156.8C79.9691 160.27 79.283 164.022 79.0869 167.774C78.8909 171.244 78.8909 175.089 79.675 178.466C80.3611 181.749 81.8314 184.375 84.3798 186.063C85.556 186.814 86.8302 187.376 88.0064 187.939C89.1826 188.502 90.5548 188.971 91.731 189.252C94.1814 189.815 97.0239 189.721 98.8862 187.564C99.5723 186.814 100.356 185.876 100.847 184.844C101.043 184.469 101.141 184.281 100.945 183.906C100.748 183.437 100.258 183.249 99.9643 182.874C98.102 181.092 96.9258 178.654 96.5338 176.027C96.2397 173.214 96.9258 169.462 99.4743 168.243C102.513 166.648 106.041 168.43 108.786 170.118C109.962 165.616 112.412 161.396 116.137 159.426C120.352 157.175 125.154 156.8 129.467 154.924C130.545 154.361 131.82 153.798 132.506 152.767C132.8 152.298 133.29 151.735 133.388 151.172C133.584 150.422 133.192 149.859 132.702 149.109C130.937 145.826 127.311 141.23 120.352 138.323Z" fill="#18212A"/>
<path d="M89.6726 152.392C98.8211 152.392 106.237 144.245 106.237 134.196C106.237 124.147 98.8211 116 89.6726 116C80.5242 116 73.1079 124.147 73.1079 134.196C73.1079 144.245 80.5242 152.392 89.6726 152.392Z" fill="#18212A"/>
<path fill-rule="evenodd" clip-rule="evenodd" d="M86.2421 184.094C80.2631 199.569 74.6762 209.887 69.6774 215.045C71.8337 220.204 78.8909 222.455 90.6528 221.798L97.2199 187.751L86.2421 184.094Z" fill="#18212A"/>
<path fill-rule="evenodd" clip-rule="evenodd" d="M223.857 356.016L224.151 355.828C233.266 350.201 248.361 357.892 248.263 366.333C248.263 392.032 226.797 513.119 225.719 520.81C224.641 528.501 212.683 530.47 211.997 520.81C210.919 505.428 208.762 452.341 210.919 427.767C211.801 417.638 212.683 407.883 213.565 399.348C202.391 421.577 184.944 453.373 161.42 494.735L148.678 488.264C158.676 452.06 166.909 426.548 173.28 411.635C184.258 386.123 194.648 364.27 198.863 356.579C205.626 344.479 217.486 348.7 223.857 356.016Z" fill="#B8858C"/>
<path fill-rule="evenodd" clip-rule="evenodd" d="M149.462 468.098L193.276 354.515C203.861 336.038 233.168 358.267 229.64 368.959C221.504 393.345 180.141 472.038 177.789 479.353L149.462 468.098Z" fill="#8E5159"/>
<path fill-rule="evenodd" clip-rule="evenodd" d="M147.012 480.948C144.268 483.386 142.503 485.45 141.719 486.951C140.739 488.826 139.563 491.828 138.191 495.767C140.151 496.986 158.284 508.429 192.393 529.908C196.51 525.687 197.098 522.498 194.256 520.059C191.413 517.715 189.061 515.745 187.297 514.15L168.576 485.919C168.282 485.356 167.497 485.262 167.007 485.731L163.185 489.014C159.656 488.639 156.912 487.982 155.147 486.857C153.677 485.919 152.109 484.043 150.247 481.229C149.56 480.104 148.188 479.916 147.208 480.666C147.11 480.948 147.012 480.948 147.012 480.948Z" fill="#E5E4DC"/>
<path fill-rule="evenodd" clip-rule="evenodd" d="M209.154 514.619C207.978 518.184 207.292 520.904 207.292 522.779C207.292 524.937 207.586 528.219 208.272 532.346C210.625 532.346 231.502 532.346 270.806 532.346C272.473 526.437 271.493 523.342 267.964 522.873C264.435 522.404 261.593 521.935 259.24 521.654L230.228 507.397C229.64 507.21 229.052 507.397 228.758 507.96L226.895 512.931C223.661 514.619 221.112 515.37 218.956 515.37C217.29 515.37 215.035 514.713 212.095 513.213C211.017 512.65 209.644 513.213 209.154 514.432C209.154 514.526 209.154 514.526 209.154 514.619Z" fill="#E5E4DC"/>
<path fill-rule="evenodd" clip-rule="evenodd" d="M251.399 375.056C251.399 407.32 237.481 482.542 237.481 489.577H207.39C211.801 422.421 213.369 388.468 212.095 387.812C210.232 386.686 133.29 396.159 110.256 396.159C77.0286 396.159 63.2083 373.274 62.1301 330.692H127.997C141.425 332.286 211.311 347.762 237.285 353.014C248.263 355.453 251.399 366.145 251.399 375.056Z" fill="#B27B82"/>
<path fill-rule="evenodd" clip-rule="evenodd" d="M37.8221 316.341L61.0519 316.435C46.7416 366.99 39.0963 393.814 37.8221 396.909C35.2737 403.944 40.6646 414.542 43.017 420.17C35.4697 423.922 36.3519 410.134 26.7463 415.011C18.0229 419.42 11.4558 427.58 1.36013 420.639C0.183933 419.889 -1.28633 416.7 2.04622 414.167C10.1816 408.071 21.9435 397.378 23.6098 393.72C25.7661 388.937 30.4709 363.144 37.8221 316.341ZM173.77 315.31L209.154 343.729C218.76 346.543 226.699 350.013 233.266 354.327C234.835 355.828 236.697 358.923 230.326 358.361C224.053 357.798 217.388 357.61 216.506 359.955C215.623 362.3 219.446 365.114 217.682 368.303C216.506 370.46 211.017 365.114 201.117 352.358L166.027 336.413L173.77 315.31Z" fill="#B8858C"/>
<path fill-rule="evenodd" clip-rule="evenodd" d="M103.689 209.793L113.295 208.011C148.874 241.589 163.577 306.306 207.096 340.446L196.608 354.703C120.94 344.479 102.317 265.6 103.689 209.793Z" fill="#DA5B33"/>
<path fill-rule="evenodd" clip-rule="evenodd" d="M61.9341 341.666C100.454 341.666 128.683 341.666 146.816 341.666C150.639 341.666 150.051 335.569 149.462 332.38C142.993 296.739 117.705 258.284 117.705 207.354L93.2012 203.133C72.9119 239.056 65.9527 282.951 61.9341 341.666Z" fill="#C8D1D8"/>
<path fill-rule="evenodd" clip-rule="evenodd" d="M91.437 203.415C92.3191 203.415 93.0052 203.509 93.7893 203.602L101.533 204.071C123.488 285.671 129.565 339.977 119.666 367.271H52.9166C48.996 377.401 45.1734 385.842 41.5468 392.783H23.2177C21.4534 332.192 34.6856 280.794 62.7182 238.493C59.1896 237.368 56.3472 234.742 54.2889 230.709C45.3694 212.982 48.6039 203.321 58.1115 200.132C67.619 196.849 76.1464 203.415 91.437 203.415Z" fill="#F26539"/>
<path fill-rule="evenodd" clip-rule="evenodd" d="M77.4206 367.177H52.7206C57.3273 355.453 62.1301 341.478 67.227 325.346C69.2853 344.573 72.7159 358.454 77.4206 367.177Z" fill="black" fill-opacity="0.1"/>
<path d="M549.031 123.163C546.649 60.8442 680.701 54.3795 682 131.179V299" stroke="#313131" stroke-width="8"/>
<path fill-rule="evenodd" clip-rule="evenodd" d="M668.567 297.156L696.433 297C697.303 297 698 298.091 698 299.493V300.351C698 301.675 697.303 302.844 696.433 302.844L668.567 303C667.697 303 667 301.909 667 300.507V299.649C667 298.325 667.697 297.156 668.567 297.156Z" fill="#313131"/>
<path fill-rule="evenodd" clip-rule="evenodd" d="M544.047 120.31C563.344 120.8 580.688 128.398 582.849 137.321L513.103 135.599C513.202 132.775 521.339 121.363 544.047 120.31Z" fill="#313131"/>
<path d="M548.228 133.389C567.528 133.926 583.04 135.768 582.877 137.502C582.713 139.236 566.935 140.206 547.636 139.668C528.337 139.131 512.824 137.29 512.988 135.556C513.152 133.822 528.929 132.852 548.228 133.389Z" fill="#E0D253"/>
</svg>
