<svg width="829" height="532" viewBox="0 0 829 532" fill="none" xmlns="http://www.w3.org/2000/svg">
<path fill-rule="evenodd" clip-rule="evenodd" d="M525.8 4.4C296 -37.4 -158.6 296.6 56.9 423.6C272.4 550.6 682.8 562.3 791.7 417.6C900.6 272.9 755.8 46 525.8 4.4Z" fill="#F4F3EA"/>
<path fill-rule="evenodd" clip-rule="evenodd" d="M163.1 50.1L283.9 31.9C297.5 29.8 310.1 40.7 311.8 56L351.6 395.2C353.4 410.5 343.9 424.8 330.2 426.8L209.4 445C195.8 447.1 183.2 436.2 181.5 420.9L141.7 81.8C139.8 66.3 149.4 52.1 163.1 50.1Z" fill="#9E5A63"/>
<path fill-rule="evenodd" clip-rule="evenodd" d="M183.1 58.8C183.8 64.5 188.4 68.6 193.5 68H193.8L258.5 58.2C263.6 57.4 267.1 52.3 266.6 46.6V46.3L266.3 43.2L285.3 40.4C294.4 39 302.8 46.2 304 56.5L344 396.9C345.2 407.2 338.8 416.6 329.7 418L207.9 436.3C198.8 437.7 190.4 430.5 189.2 420.2L149 79.7C147.8 69.4 154.2 60 163.3 58.6L182.8 55.6L183.1 58.8Z" fill="#1A252E"/>
<path fill-rule="evenodd" clip-rule="evenodd" d="M346.6 85.6C344.1 101.5 323.5 129.3 315.2 125C311.8 123.4 307.5 116.2 304.4 106.8L287.2 139.8L265.3 120.1L300.9 87.1C300.6 77.7 302.5 68.4 308.4 61C325.2 40.3 349.1 69.7 346.6 85.6Z" fill="#B8858C"/>
<path fill-rule="evenodd" clip-rule="evenodd" d="M346.5 65.7C335.7 45.5 315 47.3 312 47.8C308.7 48.5 305.8 50.2 303 52.2C300 54.4 297.2 57 294.9 60C292.6 62.8 290.3 66 288.9 69.5C287.6 72.8 287.2 76.2 288.3 79.5C288.8 80.9 289.5 82.5 290.2 83.8C290.9 85.1 291.6 86.5 292.5 87.6C294.2 89.9 296.7 91.9 299.4 91.4C300.4 91.3 301.5 91 302.7 90.5C303 90.3 303.3 90.3 303.3 89.7C303.4 89.2 303.1 88.6 303.1 88.2C302.6 85.4 303 82.4 304.4 79.8C305.9 77.2 308.6 74.5 311.5 75.3C315 76.3 316.8 80.3 318.1 83.8C321.9 80.8 326.2 79.1 330.6 80.2C335.5 81.3 339.6 84.7 344.4 86.2C345.6 86.6 346.9 86.9 348.3 86.6C348.8 86.5 349.5 86.3 350 85.8C350.6 85.3 350.6 84.4 350.7 83.6C350.7 80 350.6 73.3 346.5 65.7Z" fill="#18212A"/>
<path d="M311 57.8C319.9 65.1 332.7 62.9 339.7 52.9C346.6 42.8 345.1 28.7 336.1 21.3C327.2 14 314.4 16.2 307.4 26.2C300.5 36.3 302.2 50.4 311 57.8Z" fill="#18212A"/>
<path fill-rule="evenodd" clip-rule="evenodd" d="M290.9 79.5C276.7 88.3 265.9 93 258.7 93.6C257.5 99.6 261.8 106.7 272 114.9L297.9 90.8L290.9 79.5Z" fill="#18212A"/>
<path fill-rule="evenodd" clip-rule="evenodd" d="M180.2 213.3C179.1 245.8 304.6 358 305.2 360.9C305.4 362.1 287.7 397.9 251.9 468.2L263.2 474.9C314.5 402.3 339.5 361.5 338.1 353.1C336.1 340.7 305.1 297.1 245.1 222.1L180.2 213.3Z" fill="#B8858C"/>
<path fill-rule="evenodd" clip-rule="evenodd" d="M180.2 213.3C179.1 245.8 304.6 358 305.2 360.9C305.4 362.1 287.7 397.9 251.9 468.2L263.2 474.9C314.5 402.3 339.5 361.5 338.1 353.1C336.1 340.7 305.1 297.1 245.1 222.1L180.2 213.3Z" fill="black" fill-opacity="0.1"/>
<path fill-rule="evenodd" clip-rule="evenodd" d="M256.7 451.7L275.2 462.1C321 415.4 341.2 374.8 340.5 352.6C340 337.8 309.1 294.2 247.8 221.9L178.9 213.1C173.7 288.2 293.4 359.6 294.7 363C296.1 366.3 276.5 395.5 256.7 451.7Z" fill="#B9898F"/>
<path fill-rule="evenodd" clip-rule="evenodd" d="M247.8 464.9C245.1 467.7 243.3 470.2 242.5 471.8C241.6 473.9 240.5 477.2 239.4 481.7C241.6 482.9 261.2 494 298.5 514.9C302.6 510.1 303.1 506.5 299.9 504.2C296.9 501.9 294.2 499.9 292.2 498.3L270.9 469.2C270.5 468.7 269.7 468.5 269.3 469L265.4 472.8C261.6 472.7 258.8 472.1 256.9 471C255.4 470.1 253.4 468.3 251.3 465.3C250.5 464.2 249.1 464 247.9 464.9C247.8 464.8 247.8 464.8 247.8 464.9Z" fill="#E5E4DC"/>
<path fill-rule="evenodd" clip-rule="evenodd" d="M43.2 498.4C41.3 501.9 40.2 504.8 39.8 506.6C39.4 508.9 39.2 512.4 39.2 517C41.7 517.5 63.3 522.5 104.4 531.9C107.1 526.1 106.7 522.5 103.1 521.1C99.6 519.8 96.6 518.6 94.2 517.6L66.4 495.7C65.9 495.3 65.1 495.4 64.8 496L62 500.8C58.4 501.8 55.5 502.1 53.3 501.6C51.6 501.2 49.3 500 46.5 497.7C45.4 496.9 44 497.1 43.2 498.2C43.1 498.3 43.1 498.3 43.2 498.4Z" fill="#E5E4DC"/>
<path fill-rule="evenodd" clip-rule="evenodd" d="M195.8 215.2L119.3 370.7L46.4 501.1L60.3 502.9L243 221.1L195.8 215.2Z" fill="#B8858C"/>
<path fill-rule="evenodd" clip-rule="evenodd" d="M54.6 473.2L85 483.7C112.9 447 229.5 296.4 248.2 221.9L179.2 213.1C136.9 263.3 81.5 435.6 54.6 473.2Z" fill="#B9B9B2"/>
<path fill-rule="evenodd" clip-rule="evenodd" d="M186.9 164.2L209.6 177.6C155.5 226.3 127.3 251.8 124.9 254.2C119.4 259.6 119.8 272.7 119.5 279.5C110.8 279 117.6 266.1 106.5 265.6C96.3 265.2 86.6 269.2 80.2 257.2C79.4 255.8 79.6 251.9 83.8 251.4C94.2 250 109.9 246 113 243.5C116.9 240 141.6 213.5 186.9 164.2ZM390.1 254.7C383.5 256.3 376.6 258.3 376.4 261.2C376.2 264 380.9 265.7 379.9 269.6C379.3 272.2 372.2 268.6 358.6 258.6L318.5 254L320.6 229L364.5 246.8C375.1 246.5 384.2 247.3 391.9 249.5C393.9 250.4 396.7 253 390.1 254.7Z" fill="#A96C74"/>
<path fill-rule="evenodd" clip-rule="evenodd" d="M286.6 119.3L303.8 131C287.5 178.2 298.5 220.5 356.3 242.3L336.9 304C283.6 282.1 250.1 233.8 269.2 167.5C274.1 150.4 280 132.8 286.6 119.3Z" fill="#2F4151"/>
<path fill-rule="evenodd" clip-rule="evenodd" d="M280.4 108.3L304.2 131.1C280.3 182.9 279.6 224.7 269.8 267.1L269.5 268.3L196.7 225.7C189.6 238.4 182.6 251.7 175.9 265.6L121.3 233.7C167.8 166.9 220.3 124.7 278.8 107.4L280.4 108.3Z" fill="#536371"/>
<path fill-rule="evenodd" clip-rule="evenodd" d="M242.4 157.8C225.5 189.4 215.2 214.9 211.4 234.4L196.6 225.6C210.4 201.1 225.1 178.7 241.3 159L242.4 157.8Z" fill="black" fill-opacity="0.1"/>
<path fill-rule="evenodd" clip-rule="evenodd" d="M694.7 290.2C710.7 319.5 729.2 347.9 740.5 379.8C740 376 739.6 372.2 739.1 368.4C736.3 348.5 732.7 328.5 729 308.9C727.1 298.7 725.1 288.7 723.1 278.8C721.8 273.3 720.7 267.8 719.6 262.6C719.2 261.2 719.1 259 718.7 256.7C729.6 295.6 739.9 334.6 747.7 374.6C748.7 379.9 749.6 385 750.2 390.2L750.9 386.6C753.9 372.4 758.7 358.2 764.1 344.9C766.7 338.5 769.9 332.3 773.4 326.5C775.6 322.9 780.9 318.6 783 314.8C771.9 337 767.8 365.1 761.5 389.3C760 395.2 758.4 401.1 756.8 407.1C766.5 385.8 781.6 368.3 802.4 360.8C777.1 379.2 762 411.1 751.6 443.9C751.6 444.3 751.5 444.7 751.5 445.1C754.5 438.9 758.2 433.2 763.5 429.2C774.5 420.8 786.8 423.2 797.4 430.4C789 424.7 773.9 430 766.8 435.9C761.7 440.2 757.5 445.8 753.6 451.3C752.7 452.7 751.4 454.1 750.1 455.9C748.3 468.7 745.4 481.4 741.2 494.3C741.8 490.7 741.4 484.9 741.6 482.2V481C741 483.7 740.3 486.5 739.8 489.2C740.9 484.1 741.6 478.6 742 473.3C742.1 471 742.2 468.6 742.4 466.3C742.4 461.9 742.2 457.4 741.9 452.9C740.9 448.5 739.7 444.5 738.9 441.1C735.5 428.8 730.8 417.1 724.6 406C719.1 396 712.5 386.9 704.9 378.7C700.8 374.3 696.5 370 692.3 365.9C690.8 364.4 688 360.6 685.6 358.7C702.9 369 720.4 380.3 733 397.1C731.5 390.9 730 384.8 728.3 378.9C720.2 348.8 709.3 317.3 694.7 290.2Z" fill="#314455"/>
<path fill-rule="evenodd" clip-rule="evenodd" d="M711.7 453.5C711.7 488.2 714.1 516.2 746.8 516.2C779.4 516.2 781.9 488.1 781.9 453.5H711.7Z" fill="#B5C1CB"/>
<path fill-rule="evenodd" clip-rule="evenodd" d="M599.6 126.6C590.7 134.4 583.1 159.8 589.8 164.4C592.5 166.2 599.2 166.8 606.7 165.7L594.1 190.6L617.5 199.5L621.1 161C627.2 157.7 632.3 152.8 634 145.8C639 125.5 608.5 118.8 599.6 126.6Z" fill="#B8858C"/>
<path fill-rule="evenodd" clip-rule="evenodd" d="M595.9 130.2C596.6 129 597.6 127.8 598.4 126.7C599.5 125.4 600.9 124.3 602.3 123.3C605 121.5 607.9 120.1 611 119.1C616.6 117.4 622.9 117.5 628.3 120.3C631 121.7 633.4 123.8 635.2 126.3C636.8 128.6 638.1 131.7 640.8 132.9C643.7 134.2 647.2 132.8 650.1 132.2C653.3 131.5 656.6 131.3 659.9 132C665.4 133.2 669.8 136.7 672.1 142.2C674.5 148 675.3 155.4 670.8 160.2C670 161.1 669.1 161.8 668 162.2C667 162.6 665.5 162.8 664.8 163.8C664.1 164.8 664.6 166.7 664.7 167.9C664.8 169.6 664.7 171.4 664 172.9C662.8 175.5 660.2 177.4 657.8 178.4C655.3 179.5 652.6 179.6 649.9 179.1C648.1 178.8 646.3 178.3 644.7 177.5C643.9 177.1 643.2 176.6 642.4 176.1C641.7 175.6 641.1 175.7 640.3 175.8C636.5 176.5 632.9 176 629.3 174.3C626.3 172.9 623 170.8 621.1 167.9C619 164.6 620.1 161.6 621.8 158.6C621 158.7 619 158.1 620.6 157.3C621.2 157 622.1 157.1 622.8 157C623.6 156.9 624.4 156.7 625.1 156.3C628 154.8 627.4 149.3 625 147.5C621.4 144.8 618.8 149.8 615.5 150.1C613.6 150.3 612.3 148.5 611.4 147C610.2 144.9 609.8 142.5 609.5 140.2C609.2 138.3 609 136.3 608.8 134.4C608.7 133.5 608.1 130.8 609 130.2C606.3 128.6 602.8 128.5 599.9 129C598.7 129.2 597.7 129.6 596.8 130.5C596.6 130.7 596.1 131.3 595.8 131.2C595.3 131.1 595.8 130.5 595.9 130.2Z" fill="#293947"/>
<path fill-rule="evenodd" clip-rule="evenodd" d="M627.7 283.6L590.3 407.7L562.9 499.1H543L572.1 283.6H627.7Z" fill="#B9898F"/>
<path fill-rule="evenodd" clip-rule="evenodd" d="M637.8 283.6C638.7 347.5 641.6 382.4 642.5 388.2C643.4 394 657.2 431 683.8 499.1H663.1C629.2 433.8 610.3 396.8 606.4 388.2C602.5 379.6 590.3 344.7 572 283.6H637.8V283.6Z" fill="#B9B9B2"/>
<path fill-rule="evenodd" clip-rule="evenodd" d="M685.6 516.7L684.6 496.2H662.9C652.6 503 639.2 508.6 622.6 512.8V516.7H661.9L675.3 514.7V516.7H685.6Z" fill="#171F27"/>
<path fill-rule="evenodd" clip-rule="evenodd" d="M565.7 516.7L564.7 496.2H543C532.7 503 519.3 508.6 502.7 512.8V516.7H542L555.4 514.7V516.7H565.7Z" fill="#171F27"/>
<path fill-rule="evenodd" clip-rule="evenodd" d="M620.4 181.2L591.5 185.4C591.5 200.8 578.6 215.1 570.4 227.5C557.7 246.7 535 268 549.5 296.5C562.6 322.2 596.7 326.4 651.7 309C651.7 295.1 639.6 281.2 639.3 264.4C638.9 248.4 635.8 199.8 622.5 183.4C622.3 182.7 622 181.9 621.8 181.2L620.9 181.6L620.4 181.2Z" fill="#354858"/>
<path fill-rule="evenodd" clip-rule="evenodd" d="M586.6 289.2C584.7 279.8 583.4 273.5 582.8 270.3C567.4 286.7 558.5 295 556.1 295.2C551.6 295.6 548.3 291.8 547.3 292.8C545.7 297.2 550.2 308.2 558.6 309.8C562.6 310.6 568.9 302.7 571.5 299.9C572.5 298.9 577.5 295.3 586.6 289.2ZM559.9 239C555.9 239 553.8 240.6 551.4 243.7C549 246.8 546.8 261.7 550.6 261.7C554.4 261.7 570.3 256 570.3 252.1C570.3 248.2 559.5 246.6 559.5 243.7C559.5 240.8 563.9 239 559.9 239Z" fill="#B8858C"/>
<path fill-rule="evenodd" clip-rule="evenodd" d="M594.6 303.6L594.7 304C594.9 304.7 595.1 305.3 595.3 306C640.6 276.1 640.6 240 627.1 199.4C637.3 239.4 633.2 273 594.6 303.6Z" fill="black" fill-opacity="0.2"/>
</svg>
