<svg width="768" height="522" viewBox="0 0 768 522" fill="none" xmlns="http://www.w3.org/2000/svg">
<path fill-rule="evenodd" clip-rule="evenodd" d="M631.301 462.5C682.201 417.5 275.801 328.5 121.301 370.7C-33.199 412.9 -47.399 493.3 128.601 514.6C304.601 535.9 580.701 507.6 631.301 462.5Z" fill="#F4F3EA"/>
<path opacity="0.7" fill-rule="evenodd" clip-rule="evenodd" d="M297.1 320.7V15.7C297.1 7.49998 302.2 0.799988 308.3 0.799988H756C762.1 0.799988 767.2 7.49998 767.2 15.7V319.9C767.2 320.3 766.9 320.6 766.7 320.6L297.1 320.7Z" fill="#F4F3EA"/>
<path fill-rule="evenodd" clip-rule="evenodd" d="M733.2 359.7L759.2 322.6H707.4L733.2 359.7Z" fill="#B2BEC8"/>
<path fill-rule="evenodd" clip-rule="evenodd" d="M316.5 14.5C316.5 16.7 314.5 18.5 312.2 18.5C309.8 18.5 307.9 16.7 307.9 14.5C307.9 12.3 309.9 10.5 312.2 10.5C314.5 10.5 316.5 12.3 316.5 14.5Z" fill="#A86C74"/>
<path fill-rule="evenodd" clip-rule="evenodd" d="M334.2 14.2C334.2 16.4 332.2 18.2 329.9 18.2C327.6 18.2 325.6 16.4 325.6 14.2C325.6 12 327.6 10.2 329.9 10.2C332.4 10.2 334.2 12 334.2 14.2Z" fill="#CFCEC6"/>
<path fill-rule="evenodd" clip-rule="evenodd" d="M352.6 14.4C352.6 16.6 350.6 18.4 348.3 18.4C345.9 18.4 344 16.6 344 14.4C344 12.2 346 10.4 348.3 10.4C350.6 10.4 352.6 12.2 352.6 14.4Z" fill="#A6B1BA"/>
<path d="M531.1 24.1H297.1V157H531.1V24.1Z" fill="#EAE9E1"/>
<path d="M767.1 290.2H297.1V328.4H767.1V290.2Z" fill="#9E5A63"/>
<path d="M317.772 314.5H314.872V319.4H317.772V314.5Z" fill="#F0EFE6"/>
<path fill-rule="evenodd" clip-rule="evenodd" d="M313.572 317.9H319.172C319.572 317.9 319.872 318.2 319.872 318.6C319.872 319 319.572 319.3 319.172 319.3H313.572C313.172 319.3 312.872 319 312.872 318.6C312.772 318.3 313.172 317.9 313.572 317.9Z" fill="#F0EFE6"/>
<path fill-rule="evenodd" clip-rule="evenodd" d="M316.272 302.3C317.872 302.3 319.072 303.5 319.072 305.1V310C319.072 311.5 317.872 312.8 316.272 312.8C314.672 312.8 313.472 311.6 313.472 310V305.1C313.572 303.6 314.772 302.3 316.272 302.3Z" fill="#F0EFE6"/>
<path d="M311.572 309C311.972 309 312.272 309.3 312.272 309.7C312.572 312.5 313.872 313.9 316.272 313.9C318.672 313.9 319.972 312.8 320.172 310.3C320.172 309.9 320.472 309.6 320.872 309.6C321.272 309.6 321.572 309.9 321.572 310.3C321.272 313.5 319.572 315.2 316.372 315.2C313.172 315.2 311.272 313.3 311.072 309.8C310.872 309.4 311.172 309.1 311.572 309Z" fill="#F0EFE6"/>
<path fill-rule="evenodd" clip-rule="evenodd" d="M741.1 309.4C745 309.4 748.3 312.2 749 315.5C747 317.4 744.3 318.7 741.1 318.7C738 318.7 735.1 317.5 733.2 315.5C733.9 311.9 737.2 309.4 741.1 309.4Z" fill="#F0EFE6"/>
<path d="M741.1 310.2C743.696 310.2 745.8 308.23 745.8 305.8C745.8 303.37 743.696 301.4 741.1 301.4C738.504 301.4 736.4 303.37 736.4 305.8C736.4 308.23 738.504 310.2 741.1 310.2Z" fill="#F0EFE6"/>
<path d="M755.3 304.8H753.3V312.6H755.3V304.8Z" fill="#F0EFE6"/>
<path fill-rule="evenodd" clip-rule="evenodd" d="M758.5 307.7V309.7H750.2V307.7H758.5Z" fill="#F0EFE6"/>
<path fill-rule="evenodd" clip-rule="evenodd" d="M516.3 300.7H547.8C549.7 300.7 551.1 302.1 551.1 303.9V315C551.1 316.8 549.5 318.2 547.8 318.2H516.3C514.4 318.2 513 316.8 513 315V303.9C513 302.1 514.4 300.7 516.3 300.7Z" fill="#F0EFE6"/>
<path fill-rule="evenodd" clip-rule="evenodd" d="M532.1 303.6L537.7 309.4H526.4L532.1 303.6Z" fill="#B2BEC8"/>
<path d="M534.6 309.4H529.5V314.3H534.6V309.4Z" fill="#B2BEC8"/>
<path fill-rule="evenodd" clip-rule="evenodd" d="M426.7 54.2C424.4 62.7 429.1 81.4 434.4 81.4C436.5 81.4 440.5 79 444.4 75.3L446 95.8L462.2 91.8L451 66.7C453.3 62.3 454.3 57.1 453 52.1C448.4 37.7 429.1 45.9 426.7 54.2Z" fill="#B8858C"/>
<path fill-rule="evenodd" clip-rule="evenodd" d="M426.3 49.9C425.8 49.1 423.2 47 426.2 43.5C426.7 42.8 427.8 43.1 428.7 42.5C429.4 42.1 429.4 41 430.2 40.7C431 40.3 432.1 41 433 40.6C433.5 40.3 434.2 39.4 434.9 39.1C436 38.8 437.2 39.5 438.2 39.4C438.9 39.3 439.3 38.2 439.8 37.9C441.3 37.3 442.7 37.8 444.1 37.6C445.3 37.5 446.4 39.8 447.4 40.2C450.5 41.3 452.7 41.3 455.3 42.6C458.4 44.1 459.2 45.8 460.6 46.9C462.1 48.1 463.8 53.1 463.9 56.6C464 58.7 464.2 64.2 462.4 66.9C460 70.5 454.1 72.7 453.6 72.6C450.7 71.5 443.1 63.2 438.4 60.7C434.8 59.1 429.3 54.8 426.3 49.9Z" fill="#B9B9B2"/>
<path fill-rule="evenodd" clip-rule="evenodd" d="M435.9 38C440.2 47 443.4 53.1 445.5 56.6C447.6 60.1 449.2 63.1 450.7 65.6C448 62 444.7 57.4 441.4 52.7C439 49.2 436.5 44.8 433.5 39.4L431.5 40C436.7 48.5 440.5 54.3 442.8 57.5C446.7 62.8 449.5 66.8 451.6 69.4C448.3 66.3 443.2 61.2 437.5 54.1C435.4 51.3 432.4 47.2 429 41.3L427.4 42.5C432.3 49.7 435.9 54.7 438.3 57.4C446.2 66.3 452.8 71.1 455.1 72.5C455.5 72.8 455.6 72.8 455.5 72.6C455.5 72.6 455.5 72.6 455.5 72.5C455.8 72.8 455.8 72.8 456 72.9C458.4 74.7 450.8 63.6 444.6 51.7C442.6 48.1 440.5 43.4 438.1 37.5L435.9 38Z" fill="black" fill-opacity="0.2"/>
<path fill-rule="evenodd" clip-rule="evenodd" d="M488.5 128.2L478 124.3C480 148.9 481.1 161.9 481.3 163.5C482 166.8 478 170.2 476.1 172.1C479.7 175.2 480.8 169.3 485.3 173.2C489.4 176.8 492.1 181.4 498.1 180.6C498.8 180.5 500 179.5 498.4 177.8C494.7 173.6 489.7 167 489.2 165.2C488.7 162.8 488.5 150.4 488.5 128.2ZM408.2 137.9L387.3 156.1C381.4 158.2 376.5 160.5 372.8 163.3C371.9 164.3 370.8 166.1 374.8 165.5C378.7 164.8 382.9 164.4 383.5 165.8C384.2 167.2 381.9 169 383.1 170.7C383.9 171.8 387.2 168.5 392.8 160.7L414 149.9L408.2 137.9Z" fill="#B8858C"/>
<path fill-rule="evenodd" clip-rule="evenodd" d="M451.8 79.1L444.2 76.5C433.8 102.7 418.5 128.3 392.7 149.8L399.1 160.9C421.7 147.3 443 136.7 451.8 116.3C454.7 109.6 452 87.1 451.8 79.1Z" fill="#171F27"/>
<path fill-rule="evenodd" clip-rule="evenodd" d="M480.4 161C457.5 163.6 439.5 163.6 426.5 161C424.9 160.7 424.6 157.8 425.4 155.7C437.1 124.9 445.2 97.8 445.2 76.3C447.3 77.4 451.2 77.7 456.5 76.9C470.9 99.1 477.6 124.5 480.4 161Z" fill="#172028"/>
<path fill-rule="evenodd" clip-rule="evenodd" d="M454.8 77L449.6 79.1C463.7 102.3 475 127.4 479.1 155.2L489.7 159.6C490 138.9 491.7 120.9 481 102.4C477.7 96.4 460.8 82.5 454.8 77Z" fill="#171F27"/>
<path d="M767.1 157H531.1V289.2H767.1V157Z" fill="#EAE9E1"/>
<path fill-rule="evenodd" clip-rule="evenodd" d="M438.3 171.7L463.1 164.9C463.1 164.9 464.7 163.4 460.2 163C455.7 162.6 408.6 161.3 408.6 161.3L438.3 171.7Z" fill="#455666"/>
<path fill-rule="evenodd" clip-rule="evenodd" d="M368.4 171.7H437.6C438.9 171.7 440 170.6 440 169.3L433.7 124.3C433.7 123.1 432.6 121.9 431.3 121.9H362.2C360.9 121.9 359.8 123 359.8 124.3L366.1 169.3C366 170.6 367.1 171.7 368.4 171.7Z" fill="#5D6C7A"/>
<path fill-rule="evenodd" clip-rule="evenodd" d="M678.9 182.2C675.8 190 678.2 208.6 683.4 209.4C685.4 209.7 689.4 208 693.4 205L692.7 224.9L708.5 223.4L700.2 197.6C702.9 193.6 704.5 189 703.5 184C701.3 169.5 682 174.6 678.9 182.2Z" fill="#ADACA6"/>
<path fill-rule="evenodd" clip-rule="evenodd" d="M684.4 173.6C694.9 168.3 704.4 175.7 705.7 176.9C707 178.3 708.1 180 708.9 181.8C709.7 183.7 710.4 185.8 710.8 187.9C711.1 189.8 711.5 191.9 711.1 194C710.8 195.9 710.2 197.5 708.7 198.4C708 199 707.4 199.4 706.7 199.6C706 199.9 705.2 200.3 704.6 200.6C703.1 201 701.5 201.2 700.2 200C699.8 199.6 699.3 199 698.9 198.6C698.8 198.3 698.6 198.3 698.8 198C698.9 197.7 699.2 197.6 699.3 197.3C700.4 196.2 700.9 194.8 700.9 193.3C700.9 191.8 700.2 189.7 698.8 189.1C696.8 188.4 694.9 189.7 693.3 190.6C692.4 188.1 690.6 185.9 688.2 184.9C685.5 183.8 682.6 183.9 679.9 183.1C679.2 182.8 678.4 182.5 677.9 182C677.6 181.7 677.4 181.4 677.2 181.2C677.1 180.8 677.3 180.4 677.5 180.1C678.5 178.5 680.4 175.6 684.4 173.6Z" fill="#18212A"/>
<path d="M703.878 179.872C709.284 179.054 712.978 173.832 712.127 168.207C711.277 162.582 706.205 158.685 700.798 159.502C695.392 160.32 691.699 165.542 692.549 171.167C693.399 176.792 698.472 180.689 703.878 179.872Z" fill="#18212A"/>
<path fill-rule="evenodd" clip-rule="evenodd" d="M707.4 197.5C711.9 205.8 715.8 211.4 719.1 214C718 217.1 714 218.7 707 219L701 200.3L707.4 197.5Z" fill="#18212A"/>
<path fill-rule="evenodd" clip-rule="evenodd" d="M659.1 270.4L633.8 282.5C627.5 283.1 622.1 284 617.6 285.7C616.5 286.4 614.9 287.9 618.9 288.5C622.9 288.9 627.2 289.6 627.3 291C627.6 292.5 624.9 293.6 625.6 295.6C626.1 297 630.1 294.5 637.8 288.4L661.5 283.4L659.1 270.4Z" fill="#ADACA6"/>
<path fill-rule="evenodd" clip-rule="evenodd" d="M698.6 212.5C686.6 234 671.2 254.6 649 271.4C646.1 271 643 271.3 639.6 272.2C638 272.6 636.9 274.6 637.3 276.2C637.6 277.3 638.2 278 639 278.4C638.3 278.8 637.7 279.2 637 279.8L641.7 292C666.1 281.3 688.8 273.7 700.4 254.1C704.3 247.6 704.8 224.5 705.7 216.2L698.6 212.5Z" fill="#8C969D"/>
<path fill-rule="evenodd" clip-rule="evenodd" d="M734.7 291.8C708.2 294.3 687.3 294.3 672 291.8C670.1 291.5 670.1 284.6 671.1 282.8C684.7 253.4 693.6 232 693.6 211.6C696 212.7 700.5 212.8 706.8 212.2C723.6 232.9 731.4 257.1 734.7 291.8Z" fill="#8C969D"/>
<path fill-rule="evenodd" clip-rule="evenodd" d="M709.1 212.1L712.7 223.2L705.4 231.7L711.9 238.3L696.1 265.8L715.5 238.3L709.1 231.7L715.5 224.3L709.1 212.1Z" fill="#8C969D" fill-opacity="0.1"/>
<path fill-rule="evenodd" clip-rule="evenodd" d="M348.6 143.633H310.8C308 143.633 305.7 146.233 305.7 149.333C305.7 152.533 308 155.033 310.8 155.033H348.6V143.633V143.633Z" fill="#C3CDD5"/>
<path fill-rule="evenodd" clip-rule="evenodd" d="M348.6 145.3H329.7C327.7 145.3 326.1 147.1 326.1 149.3C326.1 151.5 327.7 153.3 329.7 153.3H348.6V145.3V145.3Z" fill="white"/>
<path fill-rule="evenodd" clip-rule="evenodd" d="M353.9 132.1H316.1C313.3 132.1 311 134.7 311 137.8C311 141 313.3 143.5 316.1 143.5H353.9V132.1Z" fill="#9C5962"/>
<path fill-rule="evenodd" clip-rule="evenodd" d="M353.9 133.8H335C333 133.8 331.4 135.6 331.4 137.8C331.4 140 333 141.8 335 141.8H353.9V133.8Z" fill="white"/>
<path fill-rule="evenodd" clip-rule="evenodd" d="M353.9 136.1H331.9C331.8 136.1 331.6 136 331.6 135.8C331.6 135.7 331.7 135.5 331.9 135.5H353.9C354 135.5 354.2 135.6 354.2 135.8C354.2 136 354.1 136.1 353.9 136.1Z" fill="#301B1E"/>
<path fill-rule="evenodd" clip-rule="evenodd" d="M353.9 138.1H331.5C331.4 138.1 331.2 138 331.2 137.8C331.2 137.7 331.3 137.5 331.5 137.5H353.9C354 137.5 354.2 137.6 354.2 137.8C354.2 137.9 354.1 138.1 353.9 138.1Z" fill="#301B1E"/>
<path fill-rule="evenodd" clip-rule="evenodd" d="M353.9 139.9H331.9C331.8 139.9 331.6 139.8 331.6 139.6C331.6 139.5 331.7 139.3 331.9 139.3H353.9C354 139.3 354.2 139.4 354.2 139.6C354.2 139.9 354.1 139.9 353.9 139.9Z" fill="#301B1E"/>
<path fill-rule="evenodd" clip-rule="evenodd" d="M348.7 147.5H326.7C326.6 147.5 326.4 147.4 326.4 147.2C326.4 147 326.5 146.9 326.7 146.9H348.7C348.8 146.9 349 147 349 147.2C348.9 147.5 348.9 147.5 348.7 147.5Z" fill="#301B1E"/>
<path fill-rule="evenodd" clip-rule="evenodd" d="M348.7 149.6H326.3C326.2 149.6 326 149.5 326 149.3C326 149.2 326.1 149 326.3 149H348.7C348.8 149 349 149.1 349 149.3C348.9 149.5 348.9 149.6 348.7 149.6Z" fill="#301B1E"/>
<path fill-rule="evenodd" clip-rule="evenodd" d="M348.7 151.6H326.7C326.6 151.6 326.4 151.5 326.4 151.3C326.4 151.1 326.5 151 326.7 151H348.7C348.8 151 349 151.1 349 151.3C349 151.5 348.9 151.6 348.7 151.6Z" fill="#301B1E"/>
<path fill-rule="evenodd" clip-rule="evenodd" d="M328 138.6H316C315.5 138.6 315.2 138.2 315.2 137.6C315.2 137 315.6 136.6 316 136.6H328C328.5 136.6 328.8 137 328.8 137.6C328.8 138.2 328.5 138.6 328 138.6Z" fill="#C3CDD5"/>
<path fill-rule="evenodd" clip-rule="evenodd" d="M322.9 149.7H313.3C312.8 149.7 312.5 149.3 312.5 148.7C312.5 148.1 312.9 147.7 313.3 147.7H322.9C323.4 147.7 323.7 148.1 323.7 148.7C323.9 149.3 323.5 149.7 322.9 149.7Z" fill="#9C5962"/>
<path fill-rule="evenodd" clip-rule="evenodd" d="M311.1 148.8C311.1 149.6 310.4 150.3 309.8 150.3C309.2 150.3 308.5 149.6 308.5 148.8C308.5 148 309.2 147.3 309.8 147.3C310.4 147.3 311.1 147.9 311.1 148.8Z" fill="#9C5962"/>
<path fill-rule="evenodd" clip-rule="evenodd" d="M622.5 278.033H584.7C581.9 278.033 579.6 280.633 579.6 283.733C579.6 286.933 581.9 289.433 584.7 289.433H622.5V278.033Z" fill="#C3CDD5"/>
<path fill-rule="evenodd" clip-rule="evenodd" d="M622.5 279.7H603.6C601.6 279.7 600 281.5 600 283.7C600 285.9 601.6 287.7 603.6 287.7H622.5V279.7Z" fill="white"/>
<path fill-rule="evenodd" clip-rule="evenodd" d="M627.7 266.6H589.9C587.1 266.6 584.8 269.2 584.8 272.3C584.8 275.5 587.1 278 589.9 278H627.7V266.6Z" fill="#9C5962"/>
<path fill-rule="evenodd" clip-rule="evenodd" d="M627.7 268.3H608.8C606.8 268.3 605.2 270.1 605.2 272.3C605.2 274.5 606.8 276.3 608.8 276.3H627.7V268.3Z" fill="white"/>
<path fill-rule="evenodd" clip-rule="evenodd" d="M627.7 270.5H605.7C605.6 270.5 605.4 270.4 605.4 270.2C605.4 270 605.5 269.9 605.7 269.9H627.7C627.8 269.9 628 270 628 270.2C628 270.4 627.8 270.5 627.7 270.5Z" fill="#301B1E"/>
<path fill-rule="evenodd" clip-rule="evenodd" d="M627.7 272.6H605.3C605.2 272.6 605 272.5 605 272.3C605 272.2 605.1 272 605.3 272H627.7C627.8 272 628 272.1 628 272.3C628 272.5 627.8 272.6 627.7 272.6Z" fill="#301B1E"/>
<path fill-rule="evenodd" clip-rule="evenodd" d="M627.7 274.4H605.7C605.6 274.4 605.4 274.3 605.4 274.1C605.4 274 605.5 273.8 605.7 273.8H627.7C627.8 273.8 628 273.9 628 274.1C628 274.3 627.8 274.4 627.7 274.4Z" fill="#301B1E"/>
<path fill-rule="evenodd" clip-rule="evenodd" d="M622.6 282.1H600.6C600.5 282.1 600.3 282 600.3 281.8C600.3 281.6 600.4 281.5 600.6 281.5H622.6C622.7 281.5 622.9 281.6 622.9 281.8C622.9 282 622.6 282.1 622.6 282.1Z" fill="#301B1E"/>
<path fill-rule="evenodd" clip-rule="evenodd" d="M622.6 284H600.2C600.1 284 599.9 283.9 599.9 283.7C599.9 283.6 600 283.4 600.2 283.4H622.6C622.7 283.4 622.9 283.5 622.9 283.7C622.8 283.9 622.6 284 622.6 284Z" fill="#301B1E"/>
<path fill-rule="evenodd" clip-rule="evenodd" d="M622.6 285.9H600.6C600.5 285.9 600.3 285.8 600.3 285.6C600.3 285.4 600.4 285.3 600.6 285.3H622.6C622.7 285.3 622.9 285.4 622.9 285.6C622.9 285.8 622.6 285.9 622.6 285.9Z" fill="#301B1E"/>
<path fill-rule="evenodd" clip-rule="evenodd" d="M601.7 273.2H589.7C589.2 273.2 588.9 272.8 588.9 272.2C588.9 271.6 589.3 271.2 589.7 271.2H601.7C602.2 271.2 602.5 271.6 602.5 272.2C602.7 272.8 602.3 273.2 601.7 273.2Z" fill="#C3CDD5"/>
<path fill-rule="evenodd" clip-rule="evenodd" d="M596.8 284.3H587.2C586.7 284.3 586.4 283.9 586.4 283.3C586.4 282.7 586.8 282.3 587.2 282.3H596.8C597.3 282.3 597.6 282.7 597.6 283.3C597.6 283.9 597.2 284.3 596.8 284.3Z" fill="#9C5962"/>
<path fill-rule="evenodd" clip-rule="evenodd" d="M584.8 283.3C584.8 284.1 584.1 284.8 583.5 284.8C582.8 284.8 582.2 284.1 582.2 283.3C582.2 282.5 582.9 281.8 583.5 281.8C584.3 281.8 584.8 282.5 584.8 283.3Z" fill="#9C5962"/>
<path fill-rule="evenodd" clip-rule="evenodd" d="M39.5 156.3H51.7C52.8 156.3 53.7 157.3 53.7 158.5C53.7 159.7 52.8 160.7 51.7 160.7H39.5C38.4 160.7 37.5 159.7 37.5 158.5C37.3 157.2 38.3 156.3 39.5 156.3Z" fill="#ABB6C0"/>
<path opacity="0.3" fill-rule="evenodd" clip-rule="evenodd" d="M64 156.3H76.2C77.3 156.3 78.2 157.3 78.2 158.5C78.2 159.7 77.3 160.7 76.2 160.7H64C62.9 160.7 62 159.7 62 158.5C61.8 157.2 62.8 156.3 64 156.3Z" fill="#CFD6DD"/>
<path opacity="0.3" fill-rule="evenodd" clip-rule="evenodd" d="M88.4 156.3H100.6C101.7 156.3 102.6 157.3 102.6 158.5C102.6 159.7 101.7 160.7 100.6 160.7H88.4C87.3 160.7 86.4 159.7 86.4 158.5C86.3 157.2 87.2 156.3 88.4 156.3Z" fill="#CFD6DD"/>
<path fill-rule="evenodd" clip-rule="evenodd" d="M123.8 204.3H131.9C133.1 204.3 133.9 205.3 133.9 206.5C133.9 207.7 133 208.7 131.9 208.7H123.8C122.6 208.7 121.8 207.7 121.8 206.5C121.8 205.3 122.8 204.3 123.8 204.3Z" fill="#CFD6DD"/>
<path fill-rule="evenodd" clip-rule="evenodd" d="M119.7 217.5H132C133.2 217.5 134 218.5 134 219.7C134 220.9 133.1 221.9 132 221.9H119.8C118.6 221.9 117.8 220.9 117.8 219.7C117.7 218.5 118.7 217.5 119.7 217.5Z" fill="#CFD6DD"/>
<path fill-rule="evenodd" clip-rule="evenodd" d="M128 230.5H132.1C133.3 230.5 134.1 231.5 134.1 232.7C134.1 233.9 133.2 234.9 132.1 234.9H128C126.8 234.9 126 233.9 126 232.7C126 231.5 126.8 230.5 128 230.5Z" fill="#CFD6DD"/>
<path fill-rule="evenodd" clip-rule="evenodd" d="M132.1 243.7C133.2 243.7 134.1 244.7 134.1 245.9C134.1 247.1 133.2 248.1 132.1 248.1C131 248.1 130.1 247.1 130.1 245.9C130 244.7 130.9 243.7 132.1 243.7Z" fill="#CFD6DD"/>
<path fill-rule="evenodd" clip-rule="evenodd" d="M123.8 256.8H131.9C133.1 256.8 133.9 257.8 133.9 259C133.9 260.2 133 261.2 131.9 261.2H123.8C122.6 261.2 121.8 260.2 121.8 259C121.8 257.8 122.8 256.8 123.8 256.8Z" fill="#CFD6DD"/>
<path fill-rule="evenodd" clip-rule="evenodd" d="M128 270H132.1C133.3 270 134.1 271 134.1 272.2C134.1 273.4 133.2 274.4 132.1 274.4H128C126.8 274.4 126 273.4 126 272.2C125.8 271 126.8 270 128 270Z" fill="#CFD6DD"/>
<path fill-rule="evenodd" clip-rule="evenodd" d="M132.1 283C133.2 283 134.1 284 134.1 285.2C134.1 286.4 133.2 287.4 132.1 287.4C131 287.4 130.1 286.4 130.1 285.2C130 284 130.9 283 132.1 283Z" fill="#ABB6C0"/>
<path fill-rule="evenodd" clip-rule="evenodd" d="M7.29999 335.5H76.8C78 335.5 78.8 336.5 78.8 337.7C78.8 338.9 77.9 339.9 76.8 339.9H7.29999C6.09999 339.9 5.29999 338.9 5.29999 337.7C5.29999 336.6 6.19999 335.5 7.29999 335.5Z" fill="#CFD6DD"/>
<path fill-rule="evenodd" clip-rule="evenodd" d="M128 296.2H132.1C133.3 296.2 134.1 297.2 134.1 298.4C134.1 299.6 133.2 300.6 132.1 300.6H128C126.8 300.6 126 299.6 126 298.4C126 297.2 126.8 296.2 128 296.2Z" fill="#ABB6C0"/>
<path fill-rule="evenodd" clip-rule="evenodd" d="M123.8 309.3H131.9C133.1 309.3 133.9 310.3 133.9 311.5C133.9 312.7 133 313.7 131.9 313.7H123.8C122.6 313.7 121.8 312.7 121.8 311.5C121.8 310.4 122.8 309.3 123.8 309.3Z" fill="#CFD6DD"/>
<path fill-rule="evenodd" clip-rule="evenodd" d="M7.29999 322.5H35.9C37.1 322.5 37.9 323.5 37.9 324.7C37.9 325.9 37 326.9 35.9 326.9H7.29999C6.09999 326.9 5.29999 325.9 5.29999 324.7C5.29999 323.4 6.19999 322.5 7.29999 322.5Z" fill="#DFE4E8"/>
<path fill-rule="evenodd" clip-rule="evenodd" d="M7.29999 309.3H23.7C24.9 309.3 25.7 310.3 25.7 311.5C25.7 312.7 24.8 313.7 23.7 313.7H7.29999C6.09999 313.7 5.29999 312.7 5.29999 311.5C5.29999 310.4 6.19999 309.3 7.29999 309.3Z" fill="#ABB6C0"/>
<path fill-rule="evenodd" clip-rule="evenodd" d="M7.29999 296.2H19.5C20.7 296.2 21.5 297.2 21.5 298.4C21.5 299.6 20.6 300.6 19.5 300.6H7.29999C6.09999 300.6 5.29999 299.6 5.29999 298.4C5.29999 297.2 6.19999 296.2 7.29999 296.2Z" fill="#CFD6DD"/>
<path fill-rule="evenodd" clip-rule="evenodd" d="M7.29999 230.5H35.9C37.1 230.5 37.9 231.5 37.9 232.7C37.9 233.9 37 234.9 35.9 234.9H7.29999C6.09999 234.9 5.29999 233.9 5.29999 232.7C5.29999 231.5 6.19999 230.5 7.29999 230.5Z" fill="#CFD6DD"/>
<path fill-rule="evenodd" clip-rule="evenodd" d="M7.29999 217.5H52.3C53.5 217.5 54.3 218.5 54.3 219.7C54.3 220.9 53.4 221.9 52.3 221.9H7.29999C6.09999 221.9 5.29999 220.9 5.29999 219.7C5.29999 218.5 6.19999 217.5 7.29999 217.5Z" fill="#DFE4E8"/>
<path fill-rule="evenodd" clip-rule="evenodd" d="M7.29999 204.3H23.7C24.9 204.3 25.7 205.3 25.7 206.5C25.7 207.7 24.8 208.7 23.7 208.7H7.29999C6.09999 208.7 5.29999 207.7 5.29999 206.5C5.29999 205.3 6.19999 204.3 7.29999 204.3Z" fill="#CFD6DD"/>
<path fill-rule="evenodd" clip-rule="evenodd" d="M13.4 178.3H125.9C130.4 178.3 134 182.2 134 186.9C134 191.6 130.4 195.5 125.9 195.5H13.4C8.89999 195.5 5.29999 191.6 5.29999 186.9C5.29999 182.2 8.89999 178.3 13.4 178.3Z" fill="#ABB6C0"/>
<path fill-rule="evenodd" clip-rule="evenodd" d="M15.6 375.8H54.3C60 375.8 64.7 380.8 64.7 386.8C64.7 392.9 60 397.8 54.3 397.8H15.6C9.89998 397.8 5.19998 392.8 5.19998 386.8C5.29998 380.8 9.89998 375.8 15.6 375.8Z" fill="#CFD6DD"/>
<path fill-rule="evenodd" clip-rule="evenodd" d="M146.938 131.682C155.018 139.92 161.212 165.17 155.039 169.008C152.532 170.516 146.263 170.593 139.489 168.964L150.469 194.084L128.852 200.942L126.448 163.369C120.943 159.707 116.509 154.576 115.017 147.6C110.911 127.638 138.859 123.443 146.938 131.682Z" fill="#573136"/>
<path fill-rule="evenodd" clip-rule="evenodd" d="M104.629 121.023C112.028 118.639 119.87 122.842 121.929 130.453L121.882 130.361C131.734 123.032 147.045 123.083 147.692 132.684C148.142 138.805 142.291 143.75 136.629 148.828C135.211 147.472 133.065 146.833 130.999 147.54C127.973 148.505 126.114 151.761 126.937 154.806C127.258 155.912 127.965 156.822 128.531 157.458C126.967 160.102 125.928 162.825 126.416 165.925C122.958 166.995 114.356 158.445 113.482 147.921C113 148.166 112.568 148.271 111.99 148.565C104.592 150.949 96.7494 146.747 94.6908 139.135C92.7286 131.475 96.9917 123.414 104.629 121.023Z" fill="#B37D84"/>
<path fill-rule="evenodd" clip-rule="evenodd" d="M129.98 274.69L164 396.926L188.84 487.202H206.984L180.524 274.69H129.98Z" fill="#818990"/>
<path fill-rule="evenodd" clip-rule="evenodd" d="M120.8 274.69C120.044 337.78 117.344 372.126 116.48 377.833C115.616 383.644 103.088 420.066 79.004 487.202H97.796C128.576 422.764 145.748 386.342 149.42 377.833C152.984 369.325 164.108 335.082 180.74 274.69H120.8Z" fill="#B1BDC6"/>
<path fill-rule="evenodd" clip-rule="evenodd" d="M77.384 504.428L78.356 484.297H98.012C107.408 491.042 119.612 496.541 134.624 500.588V504.428H98.984L86.78 502.56V504.428H77.384Z" fill="#171F27"/>
<path fill-rule="evenodd" clip-rule="evenodd" d="M186.248 504.428L187.22 484.297H206.876C216.272 491.042 228.476 496.541 243.488 500.588V504.428H207.848L195.644 502.56V504.428H186.248Z" fill="#171F27"/>
<path fill-rule="evenodd" clip-rule="evenodd" d="M71.8236 265.807L91.4848 267.287C76.0768 306.124 67.8476 326.79 66.7472 329.085C64.1462 334.308 68.0182 343.128 69.7166 347.704C63.0921 350.207 64.6348 339.398 56.3003 342.646C48.6508 345.511 42.5603 351.497 34.3883 345.557C33.2987 344.765 32.4395 342.213 35.3645 340.527C42.6644 336.26 53.2247 328.521 54.9051 325.869C56.9107 322.284 62.5953 302.146 71.8236 265.807ZM258.276 213.469L257.956 213.974C255.545 218.618 253.289 223.435 254.658 224.902C256.028 226.368 259.378 224.15 260.972 226.518C262.156 228.138 256.366 230.858 243.967 234.8L220.795 257.703L208.361 244.954L240.57 225.648C245.806 218.918 251.052 213.568 256.277 209.926C258.067 209.054 260.767 208.7 258.276 213.469Z" fill="#573136"/>
<path fill-rule="evenodd" clip-rule="evenodd" d="M135.265 184.36L143.144 181.97C162.642 197.106 174.373 237.898 186.595 242.191C198.167 246.113 213.456 239.004 231.491 229.933L238.591 242.31C223.688 263.045 189.139 283.253 173.523 276.084C148.516 264.343 137.636 213.552 135.265 184.36Z" fill="#B9898F"/>
<path fill-rule="evenodd" clip-rule="evenodd" d="M111.08 291.759C143.525 287.712 167.372 284.957 182.625 283.069C185.979 282.658 184.806 277.951 184.102 275.574C175.61 248.227 151.157 220.818 146.819 181.054L125.893 180.315C111.717 210.229 109.543 245.34 111.08 291.759Z" fill="#C8D1D8"/>
<path fill-rule="evenodd" clip-rule="evenodd" d="M132.627 179.593C158.105 241.529 167.702 283.598 161.782 305.922L97.2861 313.813C96.5855 298.032 98.0449 281.075 100.809 264.431C89.0582 292.889 78.8643 313.726 70.2822 326.715L54.9352 325.542C58.0866 263.488 81.2758 215.159 124.268 180.507L132.627 179.593Z" fill="#B9B9B2"/>
</svg>
