<?xml version="1.0" encoding="UTF-8"?>
<svg xmlns="http://www.w3.org/2000/svg" xmlns:xlink="http://www.w3.org/1999/xlink" width="1500pt" height="1499.999933pt" viewBox="0 0 1500 1499.999933" version="1.2">
<g id="surface1">
<path style=" stroke:none;fill-rule:nonzero;fill:rgb(100%,100%,100%);fill-opacity:1;" d="M 1485.210938 749.917969 C 1485.210938 343.820312 1156.011719 14.621094 749.917969 14.621094 C 343.820312 14.621094 14.621094 343.820312 14.621094 749.917969 C 14.621094 1156.011719 343.820312 1485.210938 749.917969 1485.210938 C 1156.011719 1485.210938 1485.210938 1156.011719 1485.210938 749.917969 "/>
<path style=" stroke:none;fill-rule:nonzero;fill:rgb(19.219971%,26.669312%,33.329773%);fill-opacity:1;" d="M 749.917969 29.246094 C 352.542969 29.246094 29.246094 352.542969 29.246094 749.917969 C 29.246094 1147.292969 352.542969 1470.589844 749.917969 1470.589844 C 1147.292969 1470.589844 1470.589844 1147.292969 1470.589844 749.917969 C 1470.589844 352.542969 1147.292969 29.246094 749.917969 29.246094 Z M 749.917969 1499.832031 C 549.605469 1499.832031 361.289062 1421.824219 219.648438 1280.183594 C 78.007812 1138.542969 0 950.230469 0 749.917969 C 0 549.605469 78.007812 361.289062 219.648438 219.648438 C 361.289062 78.007812 549.605469 0 749.917969 0 C 950.230469 0 1138.542969 78.007812 1280.183594 219.648438 C 1421.824219 361.289062 1499.832031 549.605469 1499.832031 749.917969 C 1499.832031 950.230469 1421.824219 1138.542969 1280.183594 1280.183594 C 1138.542969 1421.824219 950.230469 1499.832031 749.917969 1499.832031 "/>
<path style=" stroke:none;fill-rule:nonzero;fill:rgb(100%,100%,100%);fill-opacity:1;" d="M 1423.378906 749.917969 C 1423.378906 377.972656 1121.859375 76.453125 749.917969 76.453125 C 377.972656 76.453125 76.453125 377.972656 76.453125 749.917969 C 76.453125 1121.859375 377.972656 1423.378906 749.917969 1423.378906 C 1121.859375 1423.378906 1423.378906 1121.859375 1423.378906 749.917969 "/>
<path style=" stroke:none;fill-rule:nonzero;fill:rgb(100%,100%,100%);fill-opacity:1;" d="M 1374.917969 749.917969 C 1374.917969 404.738281 1095.09375 124.917969 749.917969 124.917969 C 404.738281 124.917969 124.917969 404.738281 124.917969 749.917969 C 124.917969 1095.09375 404.738281 1374.917969 749.917969 1374.917969 C 1095.09375 1374.917969 1374.917969 1095.09375 1374.917969 749.917969 "/>
<path style=" stroke:none;fill-rule:nonzero;fill:rgb(61.959839%,35.289001%,38.819885%);fill-opacity:1;" d="M 749.929688 759.683594 C 740.671875 753.976562 680.539062 716.167969 622.257812 661.804688 C 568.078125 611.277344 503.503906 534.851562 503.503906 457.691406 C 503.503906 389.125 559.304688 333.324219 627.871094 333.324219 C 673.382812 333.324219 715.226562 358.183594 737.082031 398.195312 C 739.65625 402.898438 744.578125 405.820312 749.929688 405.820312 C 755.269531 405.820312 760.191406 402.898438 762.761719 398.195312 C 784.617188 358.183594 826.460938 333.324219 871.972656 333.324219 C 940.542969 333.324219 996.339844 389.125 996.339844 457.691406 C 996.339844 604.777344 770.375 747.097656 749.929688 759.683594 Z M 871.972656 304.078125 C 823.679688 304.078125 778.742188 326.730469 749.929688 364.433594 C 721.101562 326.730469 676.164062 304.078125 627.871094 304.078125 C 543.167969 304.078125 474.257812 373 474.257812 457.691406 C 474.257812 624.804688 725.214844 778.898438 735.894531 785.375 L 742.332031 789.292969 C 744.667969 790.703125 747.292969 791.40625 749.929688 791.40625 C 752.554688 791.40625 755.179688 790.703125 757.515625 789.292969 L 763.953125 785.375 C 774.628906 778.898438 1025.585938 624.75 1025.585938 457.691406 C 1025.585938 373 956.679688 304.078125 871.972656 304.078125 "/>
<path style=" stroke:none;fill-rule:nonzero;fill:rgb(61.959839%,35.289001%,38.819885%);fill-opacity:1;" d="M 871.972656 389.554688 C 863.890625 389.554688 857.351562 396.09375 857.351562 404.175781 C 857.351562 412.246094 863.890625 418.800781 871.972656 418.800781 C 893.425781 418.800781 910.867188 436.242188 910.867188 457.691406 C 910.867188 465.773438 917.421875 472.3125 925.488281 472.3125 C 933.570312 472.3125 940.109375 465.773438 940.109375 457.691406 C 940.109375 420.117188 909.546875 389.554688 871.972656 389.554688 "/>
<path style=" stroke:none;fill-rule:nonzero;fill:rgb(19.219971%,26.669312%,33.329773%);fill-opacity:1;" d="M 1232.269531 601.132812 L 1232.257812 600.0625 C 1231.917969 551.589844 1230.441406 499.585938 1221.96875 447.691406 C 1221.617188 445.496094 1221.25 442.992188 1220.847656 440.222656 C 1217.085938 414.542969 1210.808594 371.5625 1183.363281 359.042969 C 1165.609375 350.949219 1152.472656 355.542969 1144.589844 360.820312 C 1107.367188 385.691406 1105.707031 484.050781 1109.011719 576.996094 C 1109.261719 583.964844 1109.46875 589.984375 1109.417969 592.085938 C 1109.207031 600.15625 1115.578125 606.878906 1123.648438 607.085938 C 1131.742188 607.246094 1138.4375 600.925781 1138.648438 592.855469 C 1138.738281 589.855469 1138.53125 584.320312 1138.242188 575.949219 C 1132.941406 426.605469 1150.125 392.296875 1160.84375 385.128906 C 1162.058594 384.320312 1164.589844 382.621094 1171.234375 385.652344 C 1184.1875 391.550781 1189.605469 428.628906 1191.902344 444.453125 C 1192.332031 447.390625 1192.726562 450.066406 1193.117188 452.390625 C 1201.25 502.328125 1202.6875 552.972656 1203.011719 600.257812 L 1203.027344 601.34375 C 1203.71875 700.410156 1204.515625 812.699219 1162.070312 901.960938 C 1143.949219 940.070312 1119.3125 973.363281 1095.484375 1005.546875 C 1053.890625 1061.761719 1010.871094 1119.875 1003.40625 1203.222656 C 1002.6875 1211.265625 1008.628906 1218.367188 1016.667969 1219.085938 C 1017.113281 1219.125 1017.542969 1219.148438 1017.988281 1219.148438 C 1025.46875 1219.148438 1031.851562 1213.429688 1032.53125 1205.820312 C 1039.253906 1130.671875 1077.992188 1078.34375 1119 1022.949219 C 1143.648438 989.632812 1169.144531 955.191406 1188.480469 914.523438 C 1233.796875 819.203125 1232.988281 703.347656 1232.269531 601.132812 "/>
<path style=" stroke:none;fill-rule:nonzero;fill:rgb(19.219971%,26.669312%,33.329773%);fill-opacity:1;" d="M 1009.003906 953.46875 C 1022.074219 921.035156 1043.027344 890.96875 1063.304688 861.894531 C 1090.601562 822.726562 1118.84375 782.230469 1130.136719 733.742188 C 1144.117188 673.738281 1135.972656 637.949219 1105.929688 627.390625 C 1068.5 614.230469 1035.429688 659.035156 1017.660156 683.109375 C 1016.132812 685.1875 1014.738281 687.09375 1013.472656 688.75 C 1004.65625 700.394531 996.261719 712.65625 988.144531 724.511719 C 971.71875 748.507812 954.71875 773.339844 934.09375 792.949219 C 919.902344 806.421875 903.789062 817.570312 886.738281 829.359375 C 866.90625 843.082031 846.398438 857.261719 828.863281 875.601562 C 761.484375 946.089844 775.257812 1028.183594 788.574219 1107.589844 C 793.796875 1138.648438 799.1875 1170.765625 799.320312 1201.261719 C 799.359375 1209.320312 805.886719 1215.820312 813.941406 1215.820312 C 813.953125 1215.820312 813.980469 1215.820312 814.007812 1215.820312 C 822.089844 1215.792969 828.601562 1209.214844 828.5625 1201.144531 C 828.421875 1168.273438 822.832031 1134.953125 817.425781 1102.746094 C 804.722656 1027.125 792.738281 955.699219 850 895.8125 C 865.484375 879.625 883.894531 866.894531 903.371094 853.421875 C 920.59375 841.5 938.414062 829.191406 954.238281 814.136719 C 977.109375 792.414062 994.984375 766.289062 1012.28125 741.027344 C 1020.195312 729.457031 1028.394531 717.484375 1036.773438 706.414062 C 1038.121094 704.664062 1039.59375 702.65625 1041.199219 700.472656 C 1052.574219 685.070312 1079.179688 648.996094 1096.230469 654.976562 C 1109.101562 659.507812 1111.128906 686.464844 1101.648438 727.109375 C 1091.636719 770.113281 1066.214844 806.566406 1039.320312 845.171875 C 1018.105469 875.589844 996.183594 907.042969 981.875 942.550781 C 978.859375 950.035156 982.488281 958.558594 989.984375 961.574219 C 997.464844 964.589844 1005.988281 960.960938 1009.003906 953.46875 "/>
<path style=" stroke:none;fill-rule:nonzero;fill:rgb(19.219971%,26.669312%,33.329773%);fill-opacity:1;" d="M 337.761719 901.960938 C 295.320312 812.699219 296.101562 700.410156 296.808594 601.328125 L 296.808594 600.257812 C 297.148438 552.984375 298.582031 502.34375 306.714844 452.390625 C 307.109375 450.066406 307.5 447.390625 307.917969 444.453125 C 310.242188 428.628906 315.660156 391.550781 328.597656 385.652344 C 335.242188 382.621094 337.777344 384.320312 338.988281 385.128906 C 349.707031 392.296875 366.890625 426.605469 361.589844 575.976562 C 361.300781 584.332031 361.09375 589.855469 361.171875 592.855469 C 361.378906 600.792969 367.882812 607.085938 375.792969 607.085938 C 375.910156 607.085938 376.042969 607.085938 376.171875 607.085938 C 384.253906 606.878906 390.625 600.15625 390.417969 592.085938 C 390.363281 589.984375 390.574219 583.980469 390.820312 577.019531 C 394.125 484.078125 392.480469 385.703125 355.246094 360.820312 C 347.34375 355.542969 334.210938 350.949219 316.46875 359.042969 C 289.027344 371.5625 282.734375 414.542969 278.984375 440.222656 C 278.582031 442.992188 278.214844 445.511719 277.863281 447.691406 C 269.390625 499.601562 267.914062 551.601562 267.5625 600.0625 L 267.5625 601.121094 C 266.84375 703.347656 266.023438 819.203125 311.351562 914.523438 C 330.6875 955.191406 356.183594 989.632812 380.832031 1022.949219 C 421.839844 1078.34375 460.5625 1130.671875 467.300781 1205.832031 C 467.980469 1213.429688 474.363281 1219.148438 481.84375 1219.148438 C 482.277344 1219.148438 482.71875 1219.125 483.164062 1219.085938 C 491.207031 1218.367188 497.144531 1211.265625 496.429688 1203.222656 C 488.960938 1119.875 445.941406 1061.761719 404.347656 1005.546875 C 380.519531 973.363281 355.882812 940.070312 337.761719 901.960938 "/>
<path style=" stroke:none;fill-rule:nonzero;fill:rgb(19.219971%,26.669312%,33.329773%);fill-opacity:1;" d="M 613.09375 829.371094 C 596.042969 817.570312 579.933594 806.421875 565.742188 792.949219 C 545.113281 773.339844 528.113281 748.507812 511.691406 724.511719 C 503.570312 712.65625 495.175781 700.394531 486.363281 688.75 C 485.09375 687.078125 483.699219 685.1875 482.15625 683.109375 C 464.402344 659.035156 431.34375 614.214844 393.902344 627.390625 C 363.859375 637.949219 355.714844 673.738281 369.695312 733.742188 C 380.988281 782.214844 409.230469 822.726562 436.527344 861.894531 C 456.804688 890.96875 477.757812 921.035156 490.828125 953.46875 C 493.84375 960.960938 502.367188 964.578125 509.847656 961.574219 C 517.34375 958.558594 520.972656 950.035156 517.957031 942.550781 C 503.648438 907.042969 481.726562 875.589844 460.511719 845.15625 C 433.617188 806.566406 408.199219 770.113281 398.171875 727.109375 C 388.707031 686.464844 390.730469 659.507812 403.601562 654.976562 C 420.640625 648.96875 447.261719 685.070312 458.632812 700.460938 C 460.238281 702.65625 461.714844 704.664062 463.058594 706.414062 C 471.4375 717.484375 479.625 729.457031 487.550781 741.027344 C 504.847656 766.289062 522.722656 792.414062 545.59375 814.136719 C 561.417969 829.191406 579.238281 841.5 596.460938 853.421875 C 615.953125 866.894531 634.347656 879.625 649.832031 895.8125 C 707.09375 955.699219 695.109375 1027.125 682.40625 1102.730469 C 677 1134.953125 671.414062 1168.273438 671.269531 1201.144531 C 671.230469 1209.214844 677.746094 1215.792969 685.828125 1215.820312 C 685.851562 1215.820312 685.878906 1215.820312 685.890625 1215.820312 C 693.933594 1215.820312 700.476562 1209.320312 700.515625 1201.261719 C 700.644531 1170.765625 706.035156 1138.648438 711.257812 1107.574219 C 724.574219 1028.183594 738.347656 946.089844 670.96875 875.601562 C 653.433594 857.261719 632.925781 843.082031 613.09375 829.371094 "/>
</g>
</svg>
