<?xml version="1.0" encoding="utf-8"?>
<!-- Generator: Adobe Illustrator 25.2.1, SVG Export Plug-In . SVG Version: 6.00 Build 0)  -->
<svg version="1.1" id="Layer_1" xmlns="http://www.w3.org/2000/svg" xmlns:xlink="http://www.w3.org/1999/xlink" x="0px" y="0px"
	 viewBox="0 0 900 900" style="enable-background:new 0 0 900 900;" xml:space="preserve">
<style type="text/css">
	.st0{fill:#3F3D56;}
	.st1{fill:#FFFFFF;}
	.st2{fill:#314455;}
	.st3{fill:#2F2E41;}
	.st4{fill:#A0616A;}
	.st5{fill:#E6E6E6;}
	.st6{fill:#F2F2F2;}
	.st7{fill:#FFB8B8;}
</style>
<path class="st0" d="M650.9,196.9h-3.6V97.2c0-31.9-25.7-57.7-57.4-57.7h-210c-31.7,0-57.4,25.8-57.4,57.7V644
	c0,31.9,25.7,57.7,57.4,57.7h210c31.7,0,57.4-25.8,57.4-57.7V267.8h3.6L650.9,196.9z"/>
<path class="st1" d="M635.1,97.6v545.9c0,23.8-19.2,43.1-42.8,43.1h-211c-23.7,0-42.8-19.3-42.8-43.1V97.6
	c0-23.8,19.2-43.1,42.8-43.1h25.6C402.6,65,407.6,77,418,81.2c2.4,1,5,1.5,7.7,1.5H546c11.2,0,20.4-9.2,20.4-20.5
	c0-2.6-0.5-5.3-1.5-7.7h27.4C615.9,54.6,635.1,73.9,635.1,97.6z"/>
<path class="st2" d="M567.1,333.1c-1.4,0.7-2.8,1.4-4.3,2.1c-1.3,0.6-2.7,1.2-4,1.7c-0.5,0.2-1,0.4-1.5,0.6c-4,1.5-8.1,2.6-12.3,3.4
	c-2.1,0.4-4.2,0.7-6.3,1c-1.8,0.2-3.5,0.3-5.3,0.4c-1.3,0.1-2.6,0.1-3.8,0.1c-5.1,0-10.2-0.5-15.2-1.4c-1.3-0.2-2.6-0.5-3.9-0.8
	c-6.2-1.5-12.1-3.7-17.8-6.6c-0.5-0.3-1-0.5-1.5-0.8c-0.8-0.4-1.5-0.8-2.2-1.3c0.4-0.5,0.7-1,1.1-1.4c16.6-20.7,46.9-24,67.5-7.2
	c1.4,1.1,2.7,2.3,3.9,3.5c1.7,1.7,3.2,3.4,4.6,5.3C566.4,332,566.8,332.5,567.1,333.1z"/>
<ellipse class="st3" cx="531.3" cy="253.1" rx="39.7" ry="39.9"/>
<ellipse class="st4" cx="527.7" cy="267.1" rx="29.6" ry="29.7"/>
<path class="st3" d="M558.8,248.4c-6.8,4.7-14.8,7.2-23,7.1c2.9,2,6.3,3.4,9.8,4c-10.9,2.4-22.2,2.4-33.1,0.2
	c-2.4-0.4-4.8-1.2-6.9-2.4c-2.2-1.2-3.7-3.3-4.3-5.8c-0.7-4.2,2.5-8,5.9-10.5c10.4-7.8,23.8-10.5,36.4-7.3c4.1,1.1,8.1,2.8,10.8,6.1
	c2.6,3.3,3.4,8.3,0.9,11.7L558.8,248.4z"/>
<path class="st0" d="M529.5,178.5c-45,0-81.4,36.6-81.4,81.9c0,28.6,14.8,55.1,39.1,69.9l0.5,0.3c0.4,0.3,0.9,0.5,1.3,0.8
	c0.7,0.4,1.5,0.9,2.2,1.3c0.5,0.3,1,0.5,1.5,0.8c5.7,2.9,11.6,5.1,17.8,6.6c1.3,0.3,2.6,0.6,3.9,0.8c5,1,10.1,1.4,15.2,1.4
	c1.3,0,2.6,0,3.8-0.1c1.8-0.1,3.6-0.2,5.3-0.4c2.1-0.2,4.2-0.6,6.3-1c4.2-0.8,8.3-2,12.3-3.4c0.5-0.2,1-0.4,1.5-0.6
	c1.4-0.5,2.7-1.1,4-1.7c1.4-0.7,2.9-1.4,4.3-2.1c14.1-7.4,25.7-18.8,33.5-32.7c0-0.1,0.1-0.1,0.1-0.2c4.2-7.5,7.1-15.6,8.7-24
	c8.6-44.4-20.3-87.4-64.5-96C539.9,179.1,534.7,178.5,529.5,178.5L529.5,178.5z M599.2,299c-0.1,0.1-0.1,0.3-0.2,0.4
	c-7.6,13.7-19.1,24.9-33,32.1c-1.4,0.7-2.8,1.4-4.2,2c-1.2,0.5-2.4,1-3.6,1.5c-0.5,0.2-1,0.4-1.6,0.6c-3.5,1.3-7,2.3-10.6,3.1
	c-2.7,0.6-5.4,1-8.1,1.3c-1.7,0.2-3.4,0.3-5.1,0.4c-1.1,0-2.2,0.1-3.3,0.1c-4.9,0-9.8-0.5-14.7-1.4c-2.9-0.5-5.9-1.3-8.7-2.1
	c-4.4-1.4-8.6-3.1-12.7-5.2c-0.5-0.2-0.9-0.5-1.4-0.7c-0.7-0.4-1.3-0.7-2-1.1c-0.5-0.3-1-0.6-1.5-0.9c-0.3-0.2-0.6-0.3-0.8-0.5
	c-37.5-23.2-49.2-72.5-26.2-110.2c23-37.7,72.1-49.5,109.6-26.3C607.5,214.4,619.8,261.6,599.2,299z"/>
<path class="st3" d="M575.4,279.9c-0.4-4.5-5.9-7.3-10.2-5.9c-4.3,1.4-7.1,5.7-8,10.2c-0.8,3.8-0.1,7.8,2,11
	c2.2,3.1,6.2,5.1,9.9,4.3c4.3-0.9,7.2-5.1,8.1-9.4c0.8-4.3,0-8.7-0.8-13L575.4,279.9z"/>
<path class="st1" d="M388.8,293.1c-1.1,0-2.2-0.5-3-1.3l-44.9-49.2c-1-1.1-2.5-1.8-4-1.8H99.6c-7.5,0-13.6-6.1-13.6-13.7v-86
	c0-7.5,6.1-13.6,13.6-13.7H407c7.5,0,13.6,6.1,13.6,13.7v86c0,7.5-6.1,13.6-13.6,13.7h-8.7c-3,0-5.4,2.4-5.4,5.5V289
	c0,1.7-1,3.2-2.6,3.8C389.8,293.1,389.3,293.1,388.8,293.1z"/>
<path class="st0" d="M388.8,293.1c-1.1,0-2.2-0.5-3-1.3l-44.9-49.2c-1-1.1-2.5-1.8-4-1.8H99.6c-7.5,0-13.6-6.1-13.6-13.7v-86
	c0-7.5,6.1-13.6,13.6-13.7H407c7.5,0,13.6,6.1,13.6,13.7v86c0,7.5-6.1,13.6-13.6,13.7h-8.7c-3,0-5.4,2.4-5.4,5.5V289
	c0,1.7-1,3.2-2.6,3.8C389.8,293.1,389.3,293.1,388.8,293.1z M99.6,129.3c-6.5,0-11.8,5.3-11.8,11.8v86c0,6.5,5.3,11.8,11.8,11.8
	h237.3c2,0,4,0.9,5.3,2.4l44.9,49.2c0.8,0.9,2.3,1,3.2,0.1c0.5-0.4,0.7-1,0.7-1.7v-42.8c0-4,3.2-7.3,7.2-7.3h8.7
	c6.5,0,11.8-5.3,11.8-11.8v-86c0-6.5-5.3-11.8-11.8-11.8H99.6z"/>
<ellipse class="st2" cx="119.3" cy="153.5" rx="11.9" ry="11.9"/>
<path class="st5" d="M393.1,219.6H113.5c-3.5,0-6.3-2.8-6.3-6.4c0-3.5,2.8-6.4,6.3-6.4c0,0,0,0,0,0h279.7c3.5,0,6.3,2.9,6.3,6.4
	C399.4,216.7,396.6,219.6,393.1,219.6z"/>
<path class="st5" d="M302,192.5H113.5c-3.5,0-6.3-2.8-6.3-6.4c0-3.5,2.8-6.4,6.3-6.4c0,0,0,0,0,0H302c3.5,0,6.3,2.9,6.3,6.4
	S305.5,192.5,302,192.5z"/>
<path class="st1" d="M588.3,584.9c-1.6-0.6-2.6-2.1-2.6-3.8v-42.8c0-3-2.4-5.5-5.4-5.5h-8.7c-7.5,0-13.6-6.1-13.6-13.7v-86
	c0-7.5,6.1-13.6,13.6-13.7h307.4c7.5,0,13.6,6.1,13.6,13.7v86c0,7.5-6.1,13.6-13.6,13.7H641.6c-1.5,0-3,0.6-4,1.8l-44.9,49.2
	c-0.8,0.8-1.9,1.3-3,1.3C589.2,585.2,588.7,585.1,588.3,584.9z"/>
<path class="st0" d="M588.3,584.9c-1.6-0.6-2.6-2.1-2.6-3.8v-42.8c0-3-2.4-5.5-5.4-5.5h-8.7c-7.5,0-13.6-6.1-13.6-13.7v-86
	c0-7.5,6.1-13.6,13.6-13.7h307.4c7.5,0,13.6,6.1,13.6,13.7v86c0,7.5-6.1,13.6-13.6,13.7H641.6c-1.5,0-3,0.6-4,1.8l-44.9,49.2
	c-0.8,0.8-1.9,1.3-3,1.3C589.2,585.2,588.7,585.1,588.3,584.9z M571.5,421.3c-6.5,0-11.8,5.3-11.8,11.8v86c0,6.5,5.3,11.8,11.8,11.8
	h8.7c4,0,7.2,3.3,7.2,7.3v42.8c0,1.3,1,2.3,2.3,2.3c0.6,0,1.2-0.3,1.7-0.7l44.9-49.2c1.4-1.5,3.3-2.4,5.3-2.4h237.3
	c6.5,0,11.8-5.3,11.8-11.8v-86c0-6.5-5.3-11.8-11.8-11.8H571.5z"/>
<path class="st2" d="M492.4,611.5c-25.7,16.6-58.5,17.1-84.7,1.4c2.3-4.2,5.1-8.1,8.5-11.5c18.8-19,49.4-19.1,68.4-0.2
	c2.9,2.9,5.5,6.2,7.6,9.8C492.2,611.2,492.3,611.4,492.4,611.5z"/>
<path class="st0" d="M449,625.2c-45,0-81.4-36.7-81.4-81.9c0-45.2,36.5-81.8,81.4-81.8c45,0,81.4,36.7,81.4,81.9
	c0,27.9-14.1,53.8-37.5,68.9C479.8,620.8,464.6,625.3,449,625.2z M449,463.3c-44,0-79.6,35.8-79.6,80.1c0,44.2,35.6,80.1,79.6,80.1
	c44,0,79.6-35.8,79.6-80.1c0,0,0,0,0,0C528.6,499.2,492.9,463.4,449,463.3z"/>
<ellipse class="st2" cx="596.2" cy="444.6" rx="11.9" ry="11.9"/>
<path class="st5" d="M870,510.7H590.3c-3.5,0-6.3-2.8-6.3-6.4c0-3.5,2.8-6.4,6.3-6.4c0,0,0,0,0,0H870c3.5,0,6.3,2.9,6.3,6.4
	C876.3,507.8,873.5,510.7,870,510.7z"/>
<path class="st5" d="M778.9,483.6H590.3c-3.5,0-6.3-2.8-6.3-6.4c0-3.5,2.8-6.4,6.3-6.4c0,0,0,0,0,0h188.6c3.5,0,6.3,2.9,6.3,6.4
	C785.2,480.8,782.4,483.6,778.9,483.6z"/>
<ellipse class="st6" cx="587.9" cy="590.6" rx="22.2" ry="2.5"/>
<ellipse class="st6" cx="389.7" cy="299.4" rx="22.2" ry="2.5"/>
<ellipse class="st7" cx="454" cy="543" rx="28.3" ry="28.8"/>
<path class="st3" d="M458.5,527.5l23.5-1.7c1.6-11.2-4.4-22-14.7-26.3c-10-3.9-22.5,0.4-26.3,6.6c-18.4-1.6-34.7,12.3-36.2,31
	c-1.6,18.8,12,35.3,30.5,36.9c5.5,0.5,11-0.4,16.1-2.6C441.6,557.5,446.6,535.4,458.5,527.5z"/>
<path class="st3" d="M415.7,514.2c-7.3-6.8-16.2-12.2-26-13.4c-9.8-1.2-20.5,2.5-26.2,10.7c-5.7,8.3-4.7,21.1,3.3,27.1
	c9.1,6.9,11.1,20,4.3,29.3c-3.2,4.5-8.1,7.4-13.4,8.2c-14.6,2.3-25.6,17.6-24.5,32.6c1.1,15,13.2,28.1,27.5,31.4
	c14.4,3.4,30.1-2.4,40.2-13.4c10-11,14.5-26.7,13.4-41.7c-1.1-15-7.6-29.3-16.9-41c-2.5-3.2-0.6-8.2,2.6-10.6
	c3.2-2.4,7.4-3.1,11.2-4.4c3.8-1.3,7.7-3.8,8.6-7.8C420.6,517.3,416.2,512.6,415.7,514.2z"/>
<ellipse class="st6" cx="444.2" cy="836" rx="372.4" ry="22"/>
<path class="st0" d="M50.7,649.4h81.1c0,2.3,83.6,4.2,83.6,4.2c1.3,1,2.5,2.1,3.6,3.4c3.2,3.8,4.9,8.6,4.9,13.5v3.4
	c0,11.7-9.5,21.1-21.1,21.1h-152c-11.7,0-21.1-9.5-21.1-21.1v-3.4C29.6,658.8,39.1,649.4,50.7,649.4z"/>
<rect x="114.9" y="694.1" class="st0" width="22" height="141.9"/>
<path class="st0" d="M52.4,835.3c0,2.4,33.3,0.9,74.3,0.9s74.3,1.5,74.3-0.9c0-2.4-33.3-21.2-74.3-21.2S52.4,832.9,52.4,835.3z"/>
<circle class="st3" cx="118.9" cy="411.9" r="47.3"/>
<polygon class="st7" points="236.6,816.6 257.3,816.6 267.1,736.7 236.6,736.7 "/>
<path class="st3" d="M272.1,810.7h-39.9l0,0v25.1l0,0h65.1l0,0l0,0C297.2,822,286,810.7,272.1,810.7z"/>
<polygon class="st7" points="268.9,805.1 288.7,798.8 274.2,719.7 245,728.8 "/>
<path class="st3" d="M301,788.8l-38.1,12l0,0l7.5,24l0,0l62.1-19.5l0,0l0,0C328.4,792,314.3,784.6,301,788.8L301,788.8z"/>
<path class="st3" d="M106.2,635.5c0.5-4,1.3-8,2.6-11.9l3.9-4.9l10.1-12.6l0.4,0c0.7,0,3.8,0.2,8.6,0.6h0.1c3,0.2,6.6,0.5,10.7,0.9
	c1.1,0.1,2.2,0.2,3.4,0.3v17.6h-21.1c-2.1,0-3.9,1.6-4.2,3.7c0,0.2,0,0.4,0,0.5c0,2.3,1.9,4.2,4.2,4.2h122.6c1.6,1,3.1,2.2,4.5,3.4
	c4.3,3.3,7.4,8,8.9,13.3c7.2,31.5,20.2,90.2,24.1,107.5c0.6,2.6-0.3,5.4-2.3,7.2c-0.7,0.7-1.6,1.2-2.5,1.5l-15.2,5.7
	c-0.6,0.2-1.3,0.4-1.9,0.5c-0.1,0-0.2,0-0.2,0c-0.2,0-0.3,0-0.5,0c-3.2,0-6-2-7.1-4.9l-12-31.6l-18.5-48.7l-7.3-19.2
	c-8.5,2-79.8,17.8-103.7-7.7c-2.4-2.5-4.2-5.4-5.5-8.6C106,647.1,105.4,641.3,106.2,635.5z"/>
<path class="st3" d="M85.5,640.1c0.4-1.5,0.8-3.1,1.3-4.6l13.9-17.5l0.4,0c0.9,0.1,5.1,0.3,11.5,0.8c7.3,0.6,17.4,1.6,28.8,3.1
	c0.3,0,0.7,0.1,1,0.1c1.1,0.2,2.2,0.3,3.4,0.5v3.1h-21.1c-2.1,0-3.9,1.6-4.2,3.7c0,0.2,0,0.4,0,0.5c0,2.3,1.9,4.2,4.2,4.2h74.6
	c3.3,1.1,6.4,2.2,9.4,3.4c15.8,6.3,27.6,14.4,30,25.1c0.8,3.6,1.7,7.5,2.7,11.7c3.5,15.6,7.8,34.6,11.7,52v0
	c0.8,3.6,1.6,7.1,2.3,10.4c3.2,14.5,6,26.8,7.4,33.3c0,0.2,0.1,0.4,0.1,0.5v0c0.2,1.3,0,2.6-0.5,3.9l0,0v0c-0.5,1.2-1.2,2.2-2.2,3
	c-0.7,0.5-1.4,1-2.2,1.3l-15.2,5.7c-0.8,0.3-1.7,0.5-2.7,0.5c-1.3,0-2.5-0.3-3.6-0.9c-1.6-0.9-2.8-2.3-3.5-4L200.3,694l-5.1-13.4
	c-8.5,2-79.8,17.8-103.7-7.7c-4.7-5.1-7.4-11.8-7.6-18.7C83.8,649.5,84.3,644.7,85.5,640.1z"/>
<path class="st2" d="M87.4,491.1c0.3-0.3,0.6-0.6,0.9-0.9c9.1-9.6,22.3-14.2,35.4-12.5c5.6,0.7,11.2,1.8,16.7,3.3
	c7.1,1.8,13.6,5.5,18.9,10.6c8.3,8,12.8,19.2,12.5,30.7c-0.1,2.3-0.1,4.7-0.1,7.1c0,1.1,0,2.2,0,3.4h-16.7c-0.7,0-1.4,0.1-2.1,0.3
	c-4.2,1-7.1,4.7-7.1,9v78.6c-1.1,0.3-2.3,0.6-3.4,1c-0.4,0.1-0.7,0.2-1,0.3c-0.4,0.1-0.8,0.2-1.1,0.4c-3.4,1.1-6.8,2.2-10.1,3.4
	h-5.5c-2.1,0-3.9,1.6-4.2,3.7c-1.1,0.5-2.3,0.9-3.4,1.4c-3.9,1.6-7.6,3.2-11,4.8c-4.6,2.1-8.6,4.1-12.1,5.8
	c-1.1,0.5-2.3,0.8-3.5,0.8c-1.6,0-3.1-0.5-4.4-1.5c-0.3-0.2-0.5-0.4-0.8-0.6c-1.8-1.7-2.7-4.2-2.3-6.7c1.7-13.3,2.3-26.7,1.5-40
	c-0.5-11.2-1.5-22.8-2.8-33.9c-0.7-6-1.5-11.9-2.3-17.6c-0.8-5.4-1.6-10.7-2.5-15.6C74.9,513.6,78.7,500.6,87.4,491.1z"/>
<path class="st2" d="M156.6,492.5c0.9-0.4,1.8-0.7,2.7-0.9c9.3-2.5,19,2.2,22.9,11l11.6,26.8l1.5,3.4h-40.1c-0.7,0-1.4,0.1-2.1,0.3
	l-1.4-3.1l-5.1-11.9C142.3,508.2,146.8,496.7,156.6,492.5z"/>
<circle class="st7" cx="120.6" cy="423" r="41.5"/>
<path class="st3" d="M162.8,402.6c-19.7,12-41.8,19.3-64.7,21.3l6.8-8.2c-5,1.8-10.2,2.9-15.5,3.1c-5.3-0.1-10.8-2.1-13.8-6.5
	c-2.7-4.4-3.1-9.8-1.1-14.6c2.1-4.7,5.3-8.7,9.4-11.8c14.7-11.6,34.3-15.1,52.1-9.3c6,1.8,11.4,5.3,15.6,10
	c3.9,4.9,11.5,9.2,9.5,15.1L162.8,402.6z"/>
<path class="st3" d="M109.4,403.6c-9.6-13.3-21.2-23.5-34-30c-8.2-4.2-17.2-6.7-25.8-4.4s-16.7,10.5-19.1,22
	c-2,9.4,0.1,19.5,3.1,28.4c3,8.9,7.1,17.1,9.6,26.3c8.3,31.1-3.4,65.5-26.2,76.8c-5.8,2.9-11.9,4.1-18,3.5c8.5,1.5,16.2,7,24.5,9.8
	s18,2.7,24.2-5.4c6.5-8.5,6.6-22.4,6.3-34.7c-0.5-18.3-0.9-36.5-1.4-54.8c-0.2-9.3-0.4-18.9,2-27.6c2.5-8.7,8.3-16.3,15.2-16.2
	c5.2,0.1,9.8,4.3,13.9,8.6c4.2,4.2,8.6,8.7,13.7,9.4c5.2,0.6,11.1-4.6,10.7-11.6L109.4,403.6z"/>
<path class="st7" d="M79.6,541.8l23.7,0.6l1.7,16.6l0.4,3.9l37.1,16.7l3.4,1.5v29.6l-3.4-1l-10.7-3h-0.1l-47-13.4l-0.5-0.2
	c-7.8-2.3-13.2-9.4-13.3-17.5l-0.1-19.6l-0.1-14.5L79.6,541.8z"/>
<path class="st2" d="M71.9,508.9c0.7-10.7,9.9-18.9,20.6-18.2c10.7,0.7,18.8,9.9,18.2,20.6l-2.6,42.2c-0.1,2.2-1.3,4.3-3.1,5.6
	c-1.4,1.1-3.2,1.6-5,1.5l-18.1-1.1l-5.5-0.3c-2-0.1-3.9-1-5.2-2.6c-0.1-0.2-0.3-0.3-0.4-0.5c-1.1-1.4-1.6-3.2-1.5-5L71.9,508.9z"/>
<path class="st0" d="M140.3,622.3h2.2v-0.2c1.1,0.2,2.2,0.3,3.4,0.5v3.1h-15.6C133.5,624.5,136.9,623.3,140.3,622.3z M140.3,622.3
	h2.2v-0.2c1.1,0.2,2.2,0.3,3.4,0.5v3.1h-15.6C133.5,624.5,136.9,623.3,140.3,622.3z M124.7,622.3h17.7V542c0-5.6,3.8-10.6,9.2-12.2
	c1.1-0.3,2.3-0.5,3.5-0.5h150.4c7,0,12.7,5.7,12.7,12.7v82.8c0,7-5.7,12.7-12.7,12.7H124.7c-3.9,0-7.1-2.9-7.6-6.8
	c0-0.3-0.1-0.6-0.1-0.8C117.1,625.7,120.5,622.3,124.7,622.3z M120.5,629.9c0,2.3,1.9,4.2,4.2,4.2h180.8c5.1,0,9.3-4.2,9.3-9.3V542
	c0-5.1-4.2-9.3-9.3-9.3H155.2c-0.7,0-1.4,0.1-2.1,0.3c-4.2,1-7.1,4.7-7.1,9v83.6h-21.1c-2.1,0-3.9,1.6-4.2,3.7
	C120.5,629.5,120.5,629.7,120.5,629.9z M140.3,622.3h2.2v-0.2c1.1,0.2,2.2,0.3,3.4,0.5v3.1h-15.6
	C133.5,624.5,136.9,623.3,140.3,622.3z"/>
<circle class="st2" cx="230.3" cy="583.4" r="10.1"/>
<path class="st2" d="M811,774.8c-9.8,0-17.5,8.4-17.5,18.9s7.9,18.9,17.5,18.9c9.8,0,17.5-8.4,17.5-18.9S820.6,774.8,811,774.8z
	 M748.5,774.8c-9.8,0-17.5,8.4-17.5,18.9s7.9,18.9,17.5,18.9c9.8,0,17.5-8.4,17.5-18.9C766.1,783.2,758.2,774.8,748.5,774.8z
	 M828.2,854.2l-11.3-13.7c22.4-6.3,31-20.2,31-20.2c-7,4.6-13.7,7.9-19.7,10.1c-8.6,3.6-16.8,5.8-24.8,7.4
	c-16.4,3.1-31.5,2.2-44.4-0.2c-9.8-1.9-18.2-4.5-25.2-7.4c-3.9-1.6-8.2-3.4-12.5-5.8c-0.5-0.3-1-0.5-1.6-0.8
	c-0.3-0.2-0.5-0.3-0.7-0.3l-4.8-2.9c0,0,8.2,13.5,30,20.1l-11.5,14c-37.9-1.2-52.3-25.9-52.3-25.9c0-54.7,24.7-99.1,24.7-99.1
	c24.7-18.3,48-17.8,48-17.8l1.7,2.1c-30.8,8.7-44.9,22.3-44.9,22.3s3.7-2.1,10.1-4.8c18.3-8.1,32.9-10.1,38.9-10.8
	c1-0.2,1.9-0.3,2.9-0.3c11.5-1.5,23.1-1.6,34.6-0.3c4.5,0.5,9,1.3,13.4,2.2c4.4,0.9,8.8,2.1,13.1,3.5c4.3,1.4,8.6,2.9,12.8,4.7
	c4.2,1.8,8.3,3.7,12.3,5.9c0,0-13.5-12.9-42.7-21.6l2.4-2.7c0,0,23.5-0.5,48,17.8c24.5,18.3,24.7,44.4,24.7,99.1
	C880.4,828.3,866,853,828.2,854.2L828.2,854.2z"/>
</svg>
