<?xml version="1.0" encoding="utf-8"?>
<!-- Generator: Adobe Illustrator 25.2.1, SVG Export Plug-In . SVG Version: 6.00 Build 0)  -->
<svg version="1.1" id="Layer_1" xmlns="http://www.w3.org/2000/svg" xmlns:xlink="http://www.w3.org/1999/xlink" x="0px" y="0px"
	 viewBox="0 0 900 900" style="enable-background:new 0 0 900 900;" xml:space="preserve">
<style type="text/css">
	.st0{clip-path:url(#SVGID_2_);}
	.st1{clip-path:url(#SVGID_4_);}
	.st2{fill:#E8E9EB;}
	.st3{fill:#F2F2F2;}
	.st4{fill:#314455;}
	.st5{fill:#FFB9B9;}
	.st6{fill:#B5C1CB;}
	.st7{fill:#9E5A63;}
	.st8{fill:#3F3D56;}
	.st9{fill:none;stroke:#3F3D56;stroke-width:5;stroke-miterlimit:10;}
	.st10{opacity:0.1;enable-background:new    ;}
</style>
<g id="surface1">
	<g>
		<defs>
			<rect id="SVGID_1_" x="0" y="84.5" width="900" height="766"/>
		</defs>
		<clipPath id="SVGID_2_">
			<use xlink:href="#SVGID_1_"  style="overflow:visible;"/>
		</clipPath>
		<g class="st0">
			<g>
				<defs>
					<path id="SVGID_3_" d="M532.7,583.1C612,525.8,724.8,723.3,842.1,635c117.3-88.4,84.4-523.7-384.3-549.4
						C48.5,63.2-39.3,445.6,14.6,635c41.9,147.3,194.7,242.2,338.9,208.4C528.2,802.4,490.2,613.7,532.7,583.1z"/>
				</defs>
				<clipPath id="SVGID_4_">
					<use xlink:href="#SVGID_3_"  style="overflow:visible;"/>
				</clipPath>
				<g class="st1">
					<path class="st2" d="M-2,84.5v766h902.6v-766H-2z"/>
				</g>
			</g>
		</g>
	</g>
</g>
<path class="st3" d="M506.7,878c-2-8.2-3.2-16.4-4.1-24.7l-2.7-30.2c-1.1-8.2-2.4-15.5-3.5-22c-8.7-45.7-17.6-47.4-17.6-47.4
	c-0.4,0.3-0.7,0.6-1.1,1c-1.1,1-2.1,2-2.9,3.2c-14.3,18.7-23.9,67-29.1,99c-2.8,17.7-4.2,30.5-4.2,30.5s1.3,5.5,3.1,13.2h64.9
	C509.3,893.1,508.4,885.5,506.7,878z"/>
<ellipse transform="matrix(0.9998 -1.856838e-02 1.856838e-02 0.9998 -5.0855 3.7393)" class="st4" cx="198.8" cy="275.7" rx="132.9" ry="124.1"/>
<path class="st5" d="M417.8,681.6L417.8,681.6c0,0,44.8-31.6,44.8-46s30.8-107.8,47.6-66.1c16.8,41.7-23.8,100.6-23.8,100.6
	s-44.8,83.3-71.4,97.7c-26.6,14.4-49,5.7-49,5.7v-38.8l25.6-38.9C397.5,686.9,407.3,681.6,417.8,681.6z"/>
<path class="st6" d="M290.5,461.5c0,0,67.2,21.8,74.2,31.9c7,10.1,9.8-7.2,29.4,58.9c19.6,66.1,24.5,130,24.5,130
	s-48.3,16.5-42.7,81.2c5.6,64.7-8.4,135.1-8.4,135.1H350l-38.5-122.1l46.2-185.3C357.6,591.1,292,477.2,290.5,461.5z"/>
<ellipse class="st5" cx="268.1" cy="315.2" rx="84" ry="86.2"/>
<path class="st5" d="M300.3,379.9c0,0-23.8,80.5-2.8,92c21,11.5,44.8,63.2,44.8,63.2l-36.4,41.7h-84l-37.8-43.1l-15.4-73.3l21-17.2
	c0,0,22.4-57.5,22.4-87.6S300.3,379.9,300.3,379.9z"/>
<path class="st7" d="M307.3,469c0,0-16.8-4.3-7,12.9c9.8,17.2,19.6,48.9-15.4,50.3c-35,1.4-70-17.2-81.2-56
	c-11.2-38.8-15.4-35.9-19.6-34.5c-4.2,1.4-49,48.9-49,48.9l15.4,89.1l5.6,319h204.3c0,0,8.4-92-5.6-113.5
	c-14-21.6,12.6-76.1,12.6-76.1s23.8-37.4,5.6-109.2C354.8,527.9,314.3,469,307.3,469z"/>
<path class="st6" d="M193.9,441.7c0,0-21-10.1-39.2,7.2C136.6,466.1,96,480.5,96,489.1c0,8.6,35,254.3,11.2,297.4
	c-23.8,43.1-49,112.1-49,112.1h116.7c0,0,19-71.8,38.6-110.6c19.6-38.8,18.2-148,12.6-181C220.5,573.9,193.9,441.7,193.9,441.7z"/>
<polygon class="st5" points="70.8,822.4 77.6,898.6 153.2,898.6 146.4,803.7 "/>
<polygon class="st4" points="415,782.2 433.2,898.6 837.6,898.6 872.6,664.4 "/>
<polygon class="st8" points="888,648.6 892.2,670.1 368.8,799.4 368.8,780.8 "/>
<polygon class="st8" points="666.9,687.4 664.1,711.8 694.9,707.5 682.3,683.1 "/>
<path class="st9" d="M497.6,440.2c0,0,61.6-4.3,78.4,44.5s56,136.5,71.4,149.4c15.4,12.9,32.2,47.4,29.4,58.9"/>
<path class="st4" d="M506.7,439.5c0,6.8-7,12.2-18.2,12.2s-16.8-5.5-16.8-12.2s5.6-12.2,16.8-12.2S506.7,432.8,506.7,439.5z"/>
<path class="st6" d="M403.1,663.7c0,0,10.5-45.3-9.1-111.4c-19.6-66.1-22.4-48.9-29.4-58.9c-7-10.1-74.2-31.9-74.2-31.9
	c0.4,5.2,7.8,20.8,17.6,39.7c-1.8-6.8-4.3-13.4-7.8-19.4c-9.8-17.2,7-12.9,7-12.9c7,0,47.6,58.9,65.8,130.7
	c18.2,71.8-5.6,109.2-5.6,109.2L403.1,663.7z"/>
<path class="st6" d="M291.2,461.1c0,0,8.3,32.3,15.4,36.9c7.1,4.6,48.8,49.3,48.8,49.3l-5.5-35.9l-22.4-34.5l-6-4.5L291.2,461.1z"/>
<path class="st10" d="M105.1,560.2l2-74c0,0-46,20.1-50.2,106.3s7,248.6,22.4,250s88.2-15.8,88.2-15.8s11.2-208.3,7-235.6
	C170.1,563.8,105.1,560.2,105.1,560.2z"/>
<path class="st6" d="M108.6,486.2H97.2c0,0-46,20.1-50.2,106.3s7,248.6,22.4,250c15.4,1.4,88.2-15.8,88.2-15.8s11.2-208.3,7-235.6
	C160.3,563.8,108.6,486.2,108.6,486.2z"/>
<ellipse class="st4" cx="168" cy="292.3" rx="86.8" ry="99.9"/>
<ellipse class="st5" cx="230.3" cy="346.8" rx="17.5" ry="26.6"/>
<ellipse class="st4" cx="122.3" cy="385.8" rx="56.3" ry="55.2"/>
<ellipse class="st4" cx="273" cy="248.4" rx="50.4" ry="37.4"/>
</svg>
