<svg width="1011" height="927" viewBox="0 0 1011 927" fill="none" xmlns="http://www.w3.org/2000/svg">
<g filter="url(#filter0_d)">
<path d="M240.896 355L284.811 374.212C286.465 374.936 287.872 376.056 288.88 377.454C289.887 378.851 290.458 380.471 290.53 382.141C290.603 383.811 290.174 385.468 289.29 386.933C288.406 388.398 287.101 389.616 285.514 390.456L181.436 445.743C179.186 446.94 176.515 447.3 173.981 446.747C171.447 446.194 169.246 444.771 167.837 442.776L142.538 406.957" fill="#204A51"/>
<path d="M485.714 909.524L19.9829 650.513C5.15993 642.686 -7.56396 629.835 6.89618 621.374L474.311 367.777C481.334 363.68 491.985 360.998 499.111 364.9L988.009 632.006C1002.83 640.101 1005.5 662.73 990.601 670.85L547.182 909.109C537.861 914.206 527.287 916.926 516.506 916.998C505.726 917.071 495.112 914.495 485.714 909.524Z" fill="#9E5A63"/>
<path d="M312.295 2.70721C328.312 -5.01883 341.789 4.35283 342.377 23.6819L350.525 286.897C350.897 298.723 343.245 312.139 333.455 316.881L40.8421 458.293C24.825 466.019 11.3484 456.647 10.7598 437.318L2.54992 172.485C2.20913 161.551 9.27272 149.139 18.3501 144.76L312.295 2.70721Z" fill="#CFD2A8"/>
<path d="M797.141 352.452L684.677 296.567C682.517 295.496 680.714 293.919 679.458 292.002C678.202 290.085 677.539 287.898 677.538 285.67V99.3482C677.555 97.1715 678.203 95.0369 679.419 93.1578C680.634 91.2786 682.373 89.7209 684.463 88.6403C686.553 87.5597 688.92 86.9941 691.328 87C693.736 87.006 696.099 87.5833 698.183 88.6741L810.646 147.354C812.743 148.445 814.484 150.016 815.694 151.91C816.904 153.804 817.54 155.952 817.538 158.139V341.555C817.54 343.718 816.918 345.844 815.733 347.724C814.548 349.603 812.842 351.17 810.782 352.271C808.722 353.371 806.38 353.967 803.988 353.999C801.596 354.031 799.236 353.498 797.141 352.452Z" fill="#CFD2A8"/>
<path d="M789.538 222.708V267.292C789.538 280.222 767.538 280.25 767.538 267.292V222.708C767.538 209.778 789.538 209.75 789.538 222.708Z" fill="#56403D"/>
<path d="M759.538 176.665V248.314C759.538 261.215 737.538 261.243 737.538 248.314V176.665C737.538 163.792 759.538 163.764 759.538 176.665Z" fill="#FFA197"/>
<path d="M723.538 124.714V235.265C723.538 248.231 701.538 248.259 701.538 235.265V124.714C701.538 111.776 723.538 111.748 723.538 124.714Z" fill="#F2F2F2"/>
<path d="M751.645 280.378L778.851 293.316C782.699 295.14 779.279 300.448 775.431 298.624L748.225 285.686C744.377 283.833 747.797 278.553 751.645 280.378Z" fill="#F2F2F2"/>
<path d="M703.734 277.383C729.481 289.519 755.497 301.201 781.782 312.428C785.759 314.12 782.279 319.36 778.302 317.668C752.017 306.441 726.001 294.76 700.254 282.623C696.34 280.767 699.819 275.554 703.734 277.383Z" fill="#F2F2F2"/>
<path d="M874.038 680C899.167 680 919.538 662.987 919.538 642C919.538 621.013 899.167 604 874.038 604C848.909 604 828.538 621.013 828.538 642C828.538 662.987 848.909 680 874.038 680Z" fill="#CFD2A8"/>
<path d="M874.038 636C893.092 636 908.538 628.613 908.538 619.5C908.538 610.387 893.092 603 874.038 603C854.984 603 839.538 610.387 839.538 619.5C839.538 628.613 854.984 636 874.038 636Z" fill="#1D3F75"/>
<path d="M872.538 482.971V616.029C872.737 616.6 873.135 617.099 873.675 617.454C874.215 617.809 874.868 618 875.538 618C876.208 618 876.861 617.809 877.401 617.454C877.941 617.099 878.339 616.6 878.538 616.029V482.971C878.339 482.4 877.941 481.901 877.401 481.546C876.861 481.191 876.208 481 875.538 481C874.868 481 874.215 481.191 873.675 481.546C873.135 481.901 872.737 482.4 872.538 482.971Z" fill="#1C7377"/>
<path d="M886.823 477.468C887.764 475.944 888.331 474.271 888.491 472.551C888.651 470.831 888.4 469.101 887.753 467.468C886.343 463.859 884.323 460.388 882.656 456.862C880.989 453.336 879.451 450.223 877.752 447C875.957 447.771 863.103 464.41 862.558 471.38C862.013 478.35 872.719 484.217 872.719 484.217L875.925 485.98C876.502 486.311 882.079 482.344 882.72 481.876C884.403 480.646 885.796 479.149 886.823 477.468Z" fill="#1C7377"/>
<path d="M876.538 516C889.02 514.877 897.666 505.048 903.538 495C890.289 495.63 878.102 503.378 876.538 516Z" fill="#1C7377"/>
<path d="M875.538 515.897C871.729 504.934 859.53 499.194 847.538 496C850.99 507.749 861.791 517.089 875.538 515.897Z" fill="#1C7377"/>
<path d="M875.538 549C891.731 547.561 902.907 535.002 910.538 522C893.324 522.802 877.551 532.761 875.538 549Z" fill="#1C7377"/>
<path d="M873.538 547.876C868.648 534.162 852.988 527.013 837.538 523C842.038 537.697 855.898 549.338 873.538 547.876Z" fill="#1C7377"/>
<path d="M876.538 588C895.509 586.329 908.609 571.929 917.538 557C897.424 557.947 878.917 569.367 876.538 588Z" fill="#1C7377"/>
<path d="M874.538 586.845C868.951 570.383 851.11 561.648 833.538 557C838.494 574.638 854.444 588.637 874.538 586.845Z" fill="#1C7377"/>
<path d="M180.946 97.7132C182.196 90.0498 179.267 83.3155 174.405 82.6716C169.542 82.0278 164.587 87.7182 163.337 95.3816C162.087 103.045 165.016 109.779 169.879 110.423C174.741 111.067 179.696 105.377 180.946 97.7132Z" fill="#124577"/>
<path d="M165.742 254.043C171.957 251.063 177.178 254.684 177.426 262.148L180.534 363.864C180.594 366.136 180.021 368.387 178.865 370.41C177.709 372.433 176.007 374.166 173.915 375.45L60.333 429.957C54.1179 432.937 48.8971 429.316 48.6485 421.852L45.541 319.496C45.4933 317.385 46.0373 315.297 47.1231 313.424C48.209 311.55 49.8019 309.951 51.7561 308.773L165.742 254.043Z" fill="white"/>
<path d="M317.738 181.048C323.955 178.054 329.177 181.692 329.425 189.192L332.534 291.4C332.594 293.683 332.021 295.944 330.864 297.977C329.708 300.01 328.006 301.751 325.913 303.042L212.336 357.952C206.12 360.946 200.898 357.308 200.649 349.808L197.541 246.957C197.493 244.836 198.037 242.738 199.123 240.856C200.21 238.973 201.803 237.366 203.758 236.182L317.738 181.048Z" fill="white"/>
<path d="M161.851 121.048C168.02 118.054 173.202 121.692 173.449 129.191L176.534 231.382C176.594 233.665 176.024 235.926 174.877 237.959C173.73 239.992 172.041 241.732 169.964 243.023L57.2234 297.952C51.0543 300.946 45.8723 297.308 45.6255 289.809L42.541 186.974C42.4936 184.854 43.0336 182.756 44.1114 180.874C45.1892 178.992 46.7703 177.385 48.71 176.201L161.851 121.048Z" fill="white"/>
<path d="M311.834 50.0483C318.011 47.0538 323.199 50.692 323.446 58.1924L326.534 160.4C326.594 162.683 326.024 164.944 324.875 166.977C323.727 169.01 322.036 170.751 319.956 172.042L207.24 226.952C201.064 229.946 195.876 226.308 195.629 218.808L192.541 115.957C192.494 113.836 193.034 111.738 194.113 109.856C195.192 107.973 196.775 106.366 198.717 105.182L311.834 50.0483Z" fill="white" stroke="#FF9B48" stroke-width="1.015" stroke-miterlimit="10"/>
<path d="M220.538 220C238.461 212.529 256.322 204.856 273.538 196L225.088 203.587C226.103 206.558 221.86 212.298 220.538 220Z" fill="#204A51"/>
<path d="M317.538 114.624C317.538 114.624 321.328 103.999 321.027 99.4108C320.726 94.8223 318.019 88.1308 321.027 86.7379C324.035 85.3449 327.975 94.9316 327.975 94.9316C327.975 94.9316 337.479 76.9054 340.306 78.0525C341.198 78.5406 341.94 79.2239 342.465 80.0398C342.991 80.8557 343.282 81.7782 343.314 82.7229C343.314 82.7229 346.322 78.1891 347.525 79.9917C348.141 81.8254 348.141 83.7843 347.525 85.618C347.525 85.618 350.352 86.0824 350.532 87.7211C350.713 89.3598 346.562 96.188 346.562 96.188C347.206 96.2846 347.797 96.5687 348.248 96.9973C348.698 97.4259 348.983 97.9758 349.059 98.5641C349.239 100.667 331.193 117 331.193 117" fill="#FBC76F"/>
<path d="M268.538 112.162C268.538 112.162 284.799 124.472 291.094 133.903C297.388 143.333 318.155 109 318.155 109C318.155 109 332.472 113.32 337.038 115.07C341.605 116.821 313.866 174.927 294.735 172.951C275.604 170.974 276.221 167.53 276.221 167.53" fill="#0096DF"/>
<path d="M223.982 203.826C237.067 205.992 250.555 205.151 263.175 201.385C267.373 199.514 271.57 197.521 275.767 195.407C278.16 170.964 279.954 146.492 276.995 121.937C276.968 121.741 276.968 121.543 276.995 121.347C275.224 117.659 272.376 114.461 268.747 112.086C259.681 106.614 244.854 109.28 236.07 113.433C233.963 114.452 231.989 115.676 230.184 117.082C220.393 145.454 224.454 174.724 223.982 203.826Z" fill="#0096DF"/>
<path d="M258.181 100.939L242.828 98L241.538 113.518C241.538 113.518 253.113 124.366 264.538 122.856L261.299 109.92C259.892 107.044 258.846 104.031 258.181 100.939Z" fill="#FCBB5B"/>
<path d="M259.233 102.494C254.028 100.4 248.557 98.8912 242.943 98L242.538 106.707C242.538 106.707 254.468 114.599 261.538 108.982C260.578 106.879 259.807 104.709 259.233 102.494Z" fill="#DB9231"/>
<path d="M269.671 83.6132C269.671 83.6132 280.394 77.8142 278.256 72.4075C276.118 67.0007 267.785 65.656 267.785 65.656C267.785 65.656 266.464 58.8765 260.269 58.0921C254.074 57.3077 243.414 61.79 243.414 61.79C243.414 61.79 234.138 61.0336 230.836 65.656C227.535 70.2784 228.761 78.5706 228.761 78.5706C228.761 78.5706 236.496 99.4413 239.924 99.9735C243.352 100.506 251.905 92.8299 251.905 92.8299" fill="#204A51"/>
<path d="M270.342 76.8804C270.342 76.8804 272.905 105.002 259.486 106.854C246.067 108.706 240.27 92.3798 240.27 92.3798C240.27 92.3798 232.103 85.6274 237.227 84.1173C242.352 82.6072 243.088 85.143 243.088 85.143C243.088 85.143 238.092 75 243.344 75C248.597 75 263.745 82.6642 270.342 76.8804Z" fill="#FBC76F"/>
<path d="M240.535 109C240.535 109 246.859 114.371 251.034 114.714L257.359 117.886L262.671 122.886V115.857C262.671 115.857 261.09 109.6 261.343 109.657C261.596 109.714 267.225 117.571 267.225 117.571L272.538 125.571L264.822 124.886L261.47 130C261.47 130 242.274 122.286 235.538 113.457L240.535 109Z" fill="white"/>
<path d="M343.244 81.1992C339.536 86.4099 335.999 91.7049 332.631 97.0843C332.19 97.7872 333.444 98.3776 333.885 97.7029C337.231 92.3235 340.768 87.0284 344.498 81.8177C344.553 81.6835 344.551 81.5376 344.492 81.4046C344.433 81.2715 344.32 81.1594 344.173 81.0869C344.026 81.0144 343.854 80.986 343.685 81.0065C343.515 81.0269 343.36 81.0949 343.244 81.1992Z" fill="#204A51"/>
<path d="M347.306 85.2921L338.621 99.1412C338.225 99.7779 339.352 100.362 339.749 99.7248L348.433 85.8758C348.89 85.2125 347.732 84.6289 347.306 85.2921Z" fill="#204A51"/>
<path d="M346.39 96.2283C344.562 98.3418 342.95 100.631 341.576 103.062C341.523 103.216 341.526 103.384 341.582 103.536C341.638 103.689 341.746 103.817 341.886 103.9C342.026 103.983 342.19 104.016 342.351 103.993C342.513 103.969 342.661 103.891 342.771 103.772C344.085 101.478 345.622 99.3184 347.359 97.3244C347.94 96.5184 346.971 95.5514 346.39 96.2283Z" fill="#204A51"/>
<path d="M329.554 97.0769C328.801 96.7104 328.111 97.7533 328.863 98.1197C330.97 99.2918 332.672 100.967 333.78 102.958C334.888 104.949 335.358 107.177 335.138 109.394C335.138 109.555 335.209 109.709 335.335 109.823C335.462 109.936 335.633 110 335.812 110C335.991 110 336.163 109.936 336.289 109.823C336.416 109.709 336.487 109.555 336.487 109.394C336.714 106.966 336.185 104.528 334.961 102.353C333.737 100.179 331.865 98.3521 329.554 97.0769Z" fill="#204A51"/>
<path d="M230.219 117C223.623 120.791 218.272 126.092 214.718 132.356C209.293 142.398 194.165 187.992 211.928 194.391C229.692 200.789 260.538 186.045 260.538 186.045L258.771 161.787L232.141 165.209" fill="#0096DF"/>
<path d="M264.69 143.77C264.473 144.55 256.538 189 256.538 189L287.874 181.452L294.538 136L264.69 143.77Z" fill="#FF7F5C"/>
<path d="M252.538 165.168C252.538 165.168 258.017 152.243 260.88 153.035C263.743 153.827 262.85 160.417 262.85 160.417C262.85 160.417 276.949 154.081 280.673 156.994C284.398 159.908 275.04 167.317 272.516 168.873C269.992 170.428 253.739 176 253.739 176L252.538 165.168Z" fill="#FBC76F"/>
<path d="M224.569 196.872C233.821 194.94 242.956 192.561 251.937 189.743C251.937 189.743 254.394 176.579 254.519 177.01C254.643 177.442 254.176 193.911 253.057 195.032C251.937 196.153 224.538 204 224.538 204L224.569 196.872Z" fill="#363942"/>
<path d="M103.628 412C119.274 405.151 134.92 397.742 149.721 389.635C151.567 365.957 150.097 349.826 147.187 345.437C143.4 339.706 120.306 335.149 109.792 337.749C99.2781 340.349 83.5381 351.252 83.5381 351.252C83.5381 351.252 87.3557 384.1 97.9325 403.641C99.5649 406.565 101.47 409.361 103.628 412Z" fill="#A5DD73"/>
<path d="M126.784 342.159C130.632 342.938 131.35 332.82 129.719 331.793C122.27 330.736 114.698 330.736 107.249 331.793C101.15 334.377 107.249 343 107.249 343" fill="#A5DD73"/>
<path d="M102.926 305.519C105.967 304.538 105.146 299.633 110.712 296.549C116.277 293.466 123.85 295.708 126.77 297.082C129.69 298.455 130.998 294.643 134.282 297.082C137.567 299.521 136.472 303.809 138.358 305.071H138.631C139.538 306.088 140.147 307.302 140.403 308.597C140.658 309.892 140.551 311.225 140.091 312.471C139.05 314.268 137.75 315.928 136.229 317.405L111.624 334C108.066 332.346 98.5769 313.452 98.5464 310.93C98.4742 309.698 98.8728 308.482 99.6731 307.493C100.473 306.505 101.624 305.806 102.926 305.519Z" fill="#200904"/>
<path d="M132.834 308.813C134.244 309.834 134.183 333.638 126.43 335.679C118.677 337.72 107.768 329.473 106.451 326.797C105.133 324.122 103.111 309.062 106.052 307.214C108.994 305.366 124.224 302.662 132.834 308.813Z" fill="#F67770"/>
<path d="M129.228 302.687C129.228 302.687 131.785 307.772 122.218 310.032C112.651 312.292 112.335 314.229 111.704 317.297C110.504 323.027 104.82 330.292 99.5473 314.175C99.2947 313.395 104.283 301.261 111.672 299.404C119.061 297.548 129.228 302.687 129.228 302.687Z" fill="#200904"/>
<path d="M111.538 320.648C111.538 320.648 107.408 316.178 105.275 318.854C103.143 321.53 105.952 326.735 109.676 328" fill="#F67770"/>
<path d="M158.538 385.392C156.106 379.087 154.399 372.588 153.441 365.991C151.377 351.495 146.99 346 146.99 346L138.538 370.813C138.634 378.67 140.002 386.475 142.603 394C147.957 391.234 153.269 388.364 158.538 385.392Z" fill="#A5DD73"/>
<path d="M109.538 409.472L106.475 406.715C106.475 406.715 101.116 342.742 84.4547 351.897C84.4547 351.897 79.9832 352.751 80.5957 367.2C81.2083 381.649 85.0672 409.665 92.2033 417C98.0632 414.592 103.841 412.083 109.538 409.472Z" fill="#A5DD73"/>
<path d="M146.538 392.042L144.939 356.002C144.939 354.666 142.473 354.666 142.539 356.002L144.172 393L146.538 392.042Z" fill="#75A542"/>
<path d="M110.628 409L112.538 408.107C110.695 402.452 109.494 396.632 108.956 390.742L105.642 371.73C105.433 370.446 103.344 371.004 103.553 372.26L107.195 393.171C107.739 398.546 108.889 403.852 110.628 409Z" fill="#75A542"/>
<path d="M513.406 352L466.538 326.955L538.872 288L584.538 313.914L513.406 352Z" fill="#5B434D"/>
<path d="M467.367 326L457.538 277.984L528.556 242L538.538 288.238L467.367 326Z" fill="#172D51"/>
<path d="M551.786 631.611C551.786 632.179 539.212 658.317 536.068 659.991C532.925 661.666 524.406 656.501 521.42 659.395C518.434 662.29 514.536 668.42 521.2 671.003C527.864 673.585 547.668 675.998 551.251 674.579C554.716 672.872 557.99 670.867 561.027 668.591C561.027 668.591 562.882 654.571 564.956 656.501C567.031 658.43 566.277 673.529 567.754 673.983C569.718 674.045 571.677 673.785 573.538 673.217L571.652 629" fill="#FF6161"/>
<path d="M605.868 608.977C605.868 609.514 592.562 635.136 589.73 636.661C586.898 638.186 578.586 632.819 575.571 635.616C572.557 638.412 568.568 644.373 574.932 647.17C581.296 649.966 600.357 652.989 603.889 651.689C607.316 650.102 610.569 648.21 613.602 646.04C613.602 646.04 615.947 632.141 617.865 634.119C619.783 636.096 618.504 651.068 619.905 651.605C621.804 651.734 623.713 651.542 625.538 651.04V607" fill="#FF6161"/>
<path d="M559.041 395C559.041 395 519.443 579.359 522.732 622.041C522.732 622.041 530.572 650.561 598.609 641.063C598.609 641.063 604.481 619.667 601.868 583.409C599.255 547.152 592.06 395 592.06 395H559.041Z" fill="#42210B"/>
<path d="M565.538 613.666L575.97 393.635L617.54 390C617.54 390 635.655 446.699 631.658 474.071C627.66 501.442 636.311 537.732 638.31 556.771C640.091 573.854 640.809 603.378 634.219 616.574C611.919 622.361 587.745 620.432 565.538 613.666Z" fill="#42210B"/>
<path d="M601.568 631.146C604.761 617.324 607.071 603.348 608.488 589.286C609.068 582.415 609.12 575.515 608.643 568.637C607.941 561.547 606.822 554.495 605.292 547.511C602.978 534.998 602.395 522.274 603.554 509.631C604.609 496.63 606.812 483.742 608.209 470.769C610.235 456.169 609.701 441.371 606.626 426.921C606.161 425.043 609.357 424.119 609.729 426.136C616.121 452.053 609.977 478.306 607.278 504.251C605.624 517.657 605.906 531.201 608.116 544.541C609.326 551.07 610.784 557.542 611.56 564.154C612.352 571.201 612.538 578.292 612.118 585.364C610.865 601.057 608.419 616.653 604.795 632.042C604.361 633.808 601.196 632.911 601.568 631.146Z" fill="white"/>
<path d="M585.652 297C581.751 298.22 564.814 298.22 559.364 311.615C555.517 321.617 552.281 331.801 549.673 342.12L509.142 322.541C509.142 322.541 506.727 353.046 511.557 360.672C516.387 368.298 539.981 385.409 559.364 375.619C559.364 375.619 557.537 387.461 559.364 391.066C561.191 394.671 605.809 399.053 616.027 387.71C626.245 376.368 619.124 322.541 619.124 322.541" fill="#FF6161"/>
<path d="M509.183 337.744C509.845 333.328 510.034 328.885 510.538 324.47C509.13 323.54 507.831 322.485 506.663 321.32C505.246 320.026 503.891 318.705 502.568 317.355C501.245 316.005 500.836 314.542 499.922 312.996L498.882 311.196C497.591 308.918 496.425 305.318 493.338 304.278C492.785 304.072 492.187 303.978 491.589 304.004C490.99 304.03 490.405 304.175 489.877 304.429C489.349 304.682 488.891 305.037 488.536 305.468C488.181 305.899 487.938 306.396 487.825 306.921C487.321 310.915 495.26 319.379 485.872 319.155C484.111 319.036 482.342 319.036 480.58 319.155C476.989 319.548 473.681 321.067 475.004 324.554C475.19 325.045 475.455 325.51 475.792 325.932C475.179 326.093 474.612 326.368 474.127 326.738C473.641 327.109 473.249 327.566 472.976 328.081C472.702 328.596 472.553 329.157 472.539 329.727C472.525 330.297 472.646 330.863 472.894 331.388C473.184 331.993 473.616 332.536 474.158 332.982C474.701 333.428 475.344 333.767 476.044 333.975C475.539 334.488 475.26 335.148 475.26 335.831C475.26 336.514 475.539 337.174 476.044 337.687C476.824 338.588 477.943 339.208 479.194 339.431C479.096 340.029 479.172 340.639 479.414 341.203C480.611 344.015 484.801 344.887 487.762 345.309C494.419 346.042 501.14 346.192 507.829 345.758C508.238 343.171 508.774 340.471 509.183 337.744Z" fill="#F7931E"/>
<path d="M561.888 253.616C559.326 254.991 559.451 289.519 570.946 293.785C585.94 299.4 597.997 284.185 599.402 276.045C600.808 267.904 591.5 237.559 561.888 253.616Z" fill="#F7931E"/>
<path d="M640.437 308.915C638.314 307.751 636.497 306.187 635.113 304.331C634.341 302.061 634.035 299.684 634.21 297.315C633.837 291.501 632.062 285.352 625.773 282.165C621.756 280.125 616.09 281.913 612.758 278.783C609.427 275.652 610.205 270.034 609.645 265.729C606.936 243.367 568.205 239.175 555.72 257.483C554.72 258.913 554.046 260.507 553.734 262.172C553.423 263.837 553.482 265.541 553.908 267.185C554.333 268.83 555.117 270.382 556.213 271.754C557.31 273.126 558.698 274.289 560.297 275.177C562.185 276.257 564.308 276.962 566.524 277.245C569.637 277.693 572.751 277.609 574.276 280.572C576.331 285.016 572.533 289.6 570.665 293.542C567.738 299.691 566.835 308.496 573.778 312.94C577.316 314.674 581.143 315.882 585.111 316.518C586.775 316.831 588.307 317.557 589.532 318.615C591.431 320.627 590.217 323.395 589.812 325.659C589.578 326.861 589.578 328.09 589.812 329.293C589.588 330.429 589.662 331.598 590.029 332.704C590.397 333.811 591.048 334.825 591.929 335.666C596.133 340.026 603.885 340.194 609.988 339.914C617.072 339.596 624.034 338.128 630.536 335.582C636.234 333.374 643.301 329.991 646.104 325.016C649.777 319.062 645.854 312.857 640.437 308.915Z" fill="#FCEE21"/>
<path opacity="0.7" d="M574.277 339.896C574.183 346.708 572.953 353.468 570.628 359.951C568.645 366.01 564.112 371.132 557.995 374.227C557.769 374.371 557.614 374.587 557.559 374.831C557.505 375.075 557.556 375.328 557.702 375.54C557.848 375.751 558.079 375.904 558.346 375.968C558.613 376.031 558.898 376.001 559.141 375.882C565.258 372.836 569.916 367.871 572.226 361.933C575.018 354.854 576.475 347.406 576.538 339.896C576.538 338.701 574.307 338.701 574.277 339.896Z" fill="#124577"/>
<path d="M117.168 175.344L117.538 187.494C117.538 187.494 106.246 192.15 100.538 190.731V171" fill="#E5B79E"/>
<path d="M124.764 153C124.764 153 125.161 171.693 126.452 175.177C127.744 178.662 114.035 176.96 113.538 171.693" fill="#F7931E"/>
<path d="M123.488 156.622C123.706 157.231 123.488 176.516 116.855 178.37C106.391 181.275 100.069 173.528 96.8927 167.551C93.7161 161.575 95.7404 144.199 107.107 143.092C118.474 141.985 121.464 151.116 123.488 156.622Z" fill="#FFD9C0"/>
<path d="M124.108 156.076C125.611 155.361 126.838 154.23 127.618 152.839C128.398 151.449 128.693 149.869 128.461 148.316C128.098 144.41 126.168 140.772 123.052 138.121C119.936 135.47 115.862 134 111.633 134C100.795 134 83.4419 140.442 88.4132 156.362C93.6933 173.37 102.123 174 102.123 174C102.123 174 98.0779 164.837 99.0351 160.342C99.9923 155.847 101.289 151.38 101.289 151.752C101.289 152.125 100.98 157.794 100.98 157.794C103.693 158.005 106.42 158.005 109.132 157.794C109.472 157.364 111.541 151.065 111.541 151.065V157.794L124.108 156.076Z" fill="#F7931E"/>
<path d="M99.5381 162.502C99.5381 162.502 97.7469 154.491 94.44 156.253C91.1331 158.016 91.9254 164.264 98.5047 166" fill="#FFD9C0"/>
<path d="M86.3747 149C86.3747 149 84.0118 174.845 87.228 179.411C90.4443 183.977 100.684 185.93 106.919 184.58C113.155 183.231 99.2726 168.499 100.585 161.923C101.898 155.346 103.572 149 103.572 149" fill="#F7931E"/>
<path d="M148.538 252.471C147.76 249.681 147.101 247.365 146.772 245.551C145.62 235.355 145.041 225.11 145.036 214.858C144.797 208.05 144.048 182.351 137.643 179.366C135.95 178.471 134.037 178 132.09 178C130.144 178 128.231 178.471 126.538 179.366V197.614C126.538 197.614 132.375 234.306 136.984 259C140.905 256.935 144.767 254.759 148.538 252.471Z" fill="#FFE8D9"/>
<path d="M97.2799 187.986L105.274 186.159C105.329 186.498 105.49 186.815 105.738 187.074C105.986 187.333 106.31 187.522 106.673 187.62C108.622 188.172 110.719 188.114 112.626 187.456C114.533 186.798 116.14 185.579 117.186 183.995C117.222 183.79 117.222 183.582 117.186 183.377L123.189 182C122.847 182.787 133.018 185.091 132.52 193.465C132.023 201.84 132.52 210.748 125.771 211.956C121.319 212.695 116.798 213.043 112.272 212.996L100.141 204.959L95.5381 194.533L97.2799 187.986Z" fill="#FFE8D9"/>
<path d="M84.9796 281.517C84.8234 282.194 84.6673 283.041 84.5111 284C103.406 275.817 122.52 267.804 140.509 258.098C138.323 248.872 136.793 238.545 140.509 230.306C149.161 210.385 144.944 211.57 140.509 198.704C138.729 193.654 135.138 179.405 133.857 177.74C132.577 176.075 117.773 177.74 117.773 177.74C119.218 178.983 120.347 180.494 121.083 182.17C121.14 182.393 121.14 182.624 121.083 182.847H121.271C121.47 182.952 121.649 183.085 121.802 183.242L121.989 183.411L122.395 183.976L123.02 184.766C123.236 184.573 123.498 184.428 123.786 184.34C124.073 184.253 124.379 184.226 124.68 184.261C124.981 184.297 125.269 184.393 125.523 184.544C125.776 184.695 125.988 184.896 126.143 185.132C130.109 191.65 131.608 204.883 122.395 208.58C119.648 209.46 116.666 209.541 113.865 208.812C111.065 208.084 108.587 206.582 106.779 204.517C104.529 201.94 102.563 199.171 100.908 196.249C98.9045 193.668 97.8155 190.598 97.7846 187.446C97.8031 187.091 97.9335 186.749 98.1603 186.459C98.3872 186.169 98.7011 185.944 99.0651 185.81C98.8152 185.33 98.5341 184.907 98.2843 184.427C98.2805 184.361 98.2805 184.295 98.2843 184.229C91.4758 187.192 83.6366 191.171 80.5135 196.588C75.5164 205.278 91.2259 224.493 93.6307 238.686C96.0356 252.878 87.197 272.488 84.9796 281.517Z" fill="#603813"/>
<path d="M117.09 178C117.09 178 127.791 184.616 126.416 187.493C125.042 190.37 121.802 195.663 121.802 195.663L113.588 188.845C113.588 188.845 111.69 199 109.858 199C102.266 199 95.95 187.234 95.5573 186.227C95.1646 185.221 100.924 180.733 100.924 180.733C100.924 180.733 106.585 187.493 112.443 186.342C118.301 185.192 117.09 178 117.09 178Z" fill="#F78B72"/>
<path d="M116.038 195C116.701 195 117.337 195.211 117.806 195.586C118.275 195.961 118.538 196.47 118.538 197C118.538 197.53 118.275 198.039 117.806 198.414C117.337 198.789 116.701 199 116.038 199C115.375 199 114.739 198.789 114.27 198.414C113.801 198.039 113.538 197.53 113.538 197C113.538 196.47 113.801 195.961 114.27 195.586C114.739 195.211 115.375 195 116.038 195Z" fill="#7896B5"/>
<path d="M118.538 202C119.069 202 119.577 202.211 119.952 202.586C120.327 202.961 120.538 203.47 120.538 204C120.538 204.53 120.327 205.039 119.952 205.414C119.577 205.789 119.069 206 118.538 206C118.008 206 117.499 205.789 117.124 205.414C116.749 205.039 116.538 204.53 116.538 204C116.538 203.47 116.749 202.961 117.124 202.586C117.499 202.211 118.008 202 118.538 202Z" fill="#7896B5"/>
<path d="M114.016 268.711C114.236 269.131 114.52 269.58 114.773 270C120.038 267.646 125.272 265.207 130.538 262.685C125.998 257.079 121.079 251.474 118.525 247.914C113.07 240.291 93.2998 192.925 81.6333 192C79.2769 192.982 77.2741 194.526 75.8486 196.462C74.4231 198.397 73.6312 200.646 73.5614 202.959C73.0569 210.47 80.845 224.119 88.1287 233.593C95.4124 243.066 110.011 261.536 114.016 268.711Z" fill="#FFE8D9"/>
<path d="M235.985 349C235.985 349 232.631 296.666 244.308 287.11C255.985 277.554 288.873 262.717 295.24 269.898C301.606 277.079 300.457 317.147 300.457 317.147" fill="#FF6161"/>
<path d="M260.538 264L261.73 278.829C264.094 279.196 266.519 278.969 268.764 278.171C271.01 277.373 272.999 276.03 274.538 274.275" fill="#EDAF00"/>
<path d="M283.916 242.831C284.248 243.845 287.595 272.654 274.476 273.942C261.357 275.231 261.599 254.535 261.538 248.231C261.478 241.926 280.388 231.976 283.916 242.831Z" fill="#FFC40C"/>
<path d="M281.415 244.196C281.415 244.196 289.817 241.617 289.531 236.124C289.244 230.631 286.635 224.914 279.537 227.324C279.537 227.324 268.524 224.521 261.808 227.072C255.093 229.622 256.843 236.601 256.843 236.601C255.043 236.751 253.309 237.271 251.778 238.118C250.247 238.964 248.962 240.115 248.027 241.477C245.83 245.793 251.751 251.146 251.751 251.146C250.517 252.275 249.744 253.732 249.554 255.29C249.363 256.847 249.767 258.417 250.7 259.75C253.883 264.767 263.432 266 263.432 266C263.432 266 261.363 246.774 268.556 247.335C273.121 247.591 277.651 246.485 281.415 244.196Z" fill="#545454"/>
<path d="M265.538 258.587C265.538 258.587 262.744 252.415 258.349 254.39C253.953 256.365 258.349 260.562 263.153 263" fill="#FFC40C"/>
<path d="M254.538 309C254.25 309.034 253.983 309.183 253.787 309.421C253.592 309.658 253.481 309.967 253.477 310.289L252.539 338.655C252.531 338.874 252.573 339.092 252.661 339.288C252.749 339.485 252.881 339.652 253.045 339.776C253.208 339.9 253.396 339.975 253.593 339.995C253.79 340.015 253.987 339.978 254.168 339.889C254.267 329.575 254.538 319.287 254.538 309Z" fill="#545454"/>
<path d="M291.345 311.393C291.2 306.338 290.718 301.283 290.332 296.228C289.584 295.717 288.426 296.066 288.547 297.276C289.303 305.056 289.801 312.863 290.042 320.697C290.048 320.897 290.094 321.094 290.176 321.272C290.259 321.45 290.376 321.606 290.519 321.727C290.663 321.848 290.829 321.932 291.005 321.972C291.181 322.013 291.363 322.009 291.538 321.961C291.345 318.465 291.466 314.969 291.345 311.393Z" fill="#545454"/>
</g>
<defs>
<filter id="filter0_d" x="0.538086" y="0" width="1010" height="927" filterUnits="userSpaceOnUse" color-interpolation-filters="sRGB">
<feFlood flood-opacity="0" result="BackgroundImageFix"/>
<feColorMatrix in="SourceAlpha" type="matrix" values="0 0 0 0 0 0 0 0 0 0 0 0 0 0 0 0 0 0 127 0" result="hardAlpha"/>
<feOffset dx="5" dy="5"/>
<feGaussianBlur stdDeviation="2.5"/>
<feColorMatrix type="matrix" values="0 0 0 0 0 0 0 0 0 0 0 0 0 0 0 0 0 0 0.25 0"/>
<feBlend mode="normal" in2="BackgroundImageFix" result="effect1_dropShadow"/>
<feBlend mode="normal" in="SourceGraphic" in2="effect1_dropShadow" result="shape"/>
</filter>
</defs>
</svg>
