<?xml version="1.0" encoding="utf-8"?>
<!-- Generator: Adobe Illustrator 25.2.1, SVG Export Plug-In . SVG Version: 6.00 Build 0)  -->
<svg version="1.1" id="Layer_1" xmlns="http://www.w3.org/2000/svg" xmlns:xlink="http://www.w3.org/1999/xlink" x="0px" y="0px"
	 viewBox="0 0 900 900" style="enable-background:new 0 0 900 900;" xml:space="preserve">
<style type="text/css">
	.st0{clip-path:url(#SVGID_2_);}
	.st1{clip-path:url(#SVGID_4_);}
	.st2{clip-path:url(#SVGID_6_);}
	.st3{clip-path:url(#SVGID_8_);}
	.st4{fill:#E8E9EB;}
	.st5{fill:url(#SVGID_9_);}
	.st6{fill:#F6F7F9;}
	.st7{opacity:0.2;}
	.st8{fill:#314455;}
	.st9{fill:url(#SVGID_10_);}
	.st10{fill:#797C9C;}
	.st11{opacity:5.000000e-02;enable-background:new    ;}
	.st12{fill:url(#SVGID_11_);}
	.st13{fill:#E8EAF1;}
	.st14{fill:#FFB9B9;}
	.st15{fill:#E4E2F3;}
	.st16{fill:#4C4C78;}
	.st17{opacity:5.000000e-02;fill:#314455;enable-background:new    ;}
	.st18{opacity:0.1;enable-background:new    ;}
	.st19{fill:#9E5A63;}
	.st20{fill:url(#SVGID_12_);}
	.st21{fill:#DB8B8B;}
	.st22{fill:#474463;}
	.st23{opacity:0.1;fill:#314455;enable-background:new    ;}
	.st24{fill:#CBCDDA;}
	.st25{fill:#472727;}
</style>
<g id="surface1">
	<g>
		<defs>
			<rect id="SVGID_1_" x="159" y="49" width="701" height="815"/>
		</defs>
		<clipPath id="SVGID_2_">
			<use xlink:href="#SVGID_1_"  style="overflow:visible;"/>
		</clipPath>
		<g class="st0">
			<g>
				<defs>
					
						<rect id="SVGID_3_" x="14.3" y="93" transform="matrix(0.4891 -0.8722 0.8722 0.4891 -182.8808 634.3146)" width="871.5" height="760.5"/>
				</defs>
				<clipPath id="SVGID_4_">
					<use xlink:href="#SVGID_3_"  style="overflow:visible;"/>
				</clipPath>
				<g class="st1">
					<g>
						<defs>
							
								<rect id="SVGID_5_" x="14.3" y="93" transform="matrix(0.4891 -0.8722 0.8722 0.4891 -182.8808 634.3146)" width="871.5" height="760.5"/>
						</defs>
						<clipPath id="SVGID_6_">
							<use xlink:href="#SVGID_5_"  style="overflow:visible;"/>
						</clipPath>
						<g class="st2">
							<g>
								<defs>
									<path id="SVGID_7_" d="M343.5,718.2c10.4-196.7-245.5-393.7-170-524.7c83-143.8,276.1-219.3,530-34.6
										c165.1,120,216.6,237.5,70.7,505.8C628.5,933,333.5,907,343.5,718.2z"/>
								</defs>
								<clipPath id="SVGID_8_">
									<use xlink:href="#SVGID_7_"  style="overflow:visible;"/>
								</clipPath>
								<g class="st3">
									<path class="st4" d="M-285.9,684.7l994.1,557.4l575.8-1026.9L289.8-342.1L-285.9,684.7z"/>
								</g>
							</g>
						</g>
					</g>
				</g>
			</g>
		</g>
	</g>
</g>
<linearGradient id="SVGID_9_" gradientUnits="userSpaceOnUse" x1="397.8524" y1="967.6274" x2="397.8524" y2="460.5457" gradientTransform="matrix(1 0 0 1 0 -340)">
	<stop  offset="0" style="stop-color:#808080;stop-opacity:0.25"/>
	<stop  offset="0.54" style="stop-color:#808080;stop-opacity:0.12"/>
	<stop  offset="1" style="stop-color:#808080;stop-opacity:0.1"/>
</linearGradient>
<polygon class="st5" points="0,120.5 0,160.1 0,627.6 795.7,627.6 795.7,160.1 795.7,120.5 "/>
<rect x="8.5" y="125.9" class="st6" width="778.9" height="38.7"/>
<g class="st7">
	<rect x="8.5" y="125.9" class="st8" width="778.9" height="38.7"/>
</g>
<rect x="8.5" y="164.7" class="st6" width="778.9" height="457.6"/>
<ellipse class="st6" cx="27.2" cy="145.1" rx="8.4" ry="8.6"/>
<ellipse class="st6" cx="49.5" cy="145.1" rx="8.4" ry="8.6"/>
<ellipse class="st6" cx="72" cy="145.1" rx="8.4" ry="8.6"/>
<g class="st7">
	<rect x="35.6" y="221.5" class="st8" width="400.6" height="29.6"/>
</g>
<g class="st7">
	<rect x="538.9" y="221.5" class="st8" width="210.1" height="29.6"/>
</g>
<g class="st7">
	<rect x="113.5" y="501.8" class="st8" width="28" height="94.7"/>
	<rect x="167.7" y="433.9" class="st8" width="28" height="162.6"/>
	<rect x="221.8" y="365.9" class="st8" width="28" height="230.4"/>
	<rect x="276" y="387.9" class="st8" width="28" height="208.4"/>
	<rect x="330.2" y="453.1" class="st8" width="28" height="143.4"/>
</g>
<g class="st7">
	<rect x="538.5" y="316.2" class="st8" width="210.1" height="264.4"/>
</g>
<linearGradient id="SVGID_10_" gradientUnits="userSpaceOnUse" x1="921.3708" y1="1252.9888" x2="921.3708" y2="804.4361" gradientTransform="matrix(1 0 0 1 -99.6 -420.59)">
	<stop  offset="0" style="stop-color:#808080;stop-opacity:0.25"/>
	<stop  offset="0.54" style="stop-color:#808080;stop-opacity:0.12"/>
	<stop  offset="1" style="stop-color:#808080;stop-opacity:0.1"/>
</linearGradient>
<path class="st9" d="M895.5,504.4c-1.3-7-4-13.9-4-21c-0.1-11.5,5.9-25-1.9-33.5c-1.8-2-4.2-3.4-5.6-5.7c-1-2-1.5-4.2-1.4-6.4
	c-0.1-13.5,7.1-27.2,2.8-40c-0.9-2.9-2.6-5.4-4.9-7.1c-2.5-1.6-5.4-2-8.5-2c-2.8,0-5.7,0.3-8.6,0.3c-1.6,0-3.2-0.2-4.8-0.7
	c-3.3-1-6.1-3.2-9.5-4.3c-1.7-0.5-3.5-0.9-5.4-0.8c-7.2-0.2-13.9,4.6-18.9,9.5c-2.6,2.2-5.3,4.2-8.2,6c0.4-0.3-10,7-6.1,7.1
	c2.8,0.1,5.5,1.1,7.7,2.7c-4.8,7.7-4.4,17.7,1.1,25c-1.7-1.8-3.5-3.6-5.6-5.5c-5.8-5.8-13.7-13.5-17.6-15.7
	c-6.2-3.4-15.1-10.9-15.1-10.9s-11.6,6.6-7.9,15.7c1.7,0.5,3.3,1.2,4.9,2c0,1.2,0.2,2.4,0.6,3.5c3.7,1.2,7.1,3,10.2,5.2
	c0.3,0.5,0.6,1,1,1.5c1.5,2.7,6.3,7.7,12.1,13.3c4.1,4.2,9.5,9.2,14.9,14.1c-1.6,3.3-3.3,6.6-3.7,9.9c-0.4-0.2-0.9-0.3-1.2-0.5
	c-7.9-4.4-26.6-4-26.6-4s-15.6-8.4-18.7-27.2c0,0-3.1-11.4-2.3-14.4l0,0l0.4-0.1l3.8-6.9c0.8-1.5,0.2-3.3-1.2-4.2
	c-0.3-0.2-0.8-0.3-1.2-0.3c-18.2-1.6-19,15.4-19,15.4h0.2v0.1c2.3,11,4,10,3.5,18.8l7.1,19.2c0,0,0.4,6.6,13.3,15.3
	c12.9,8.7,27.5,22.3,27.5,22.3s-7.7,4.2-4.8,23.2c3.5,23.3-1.8,56.4-1.8,56.4v21.4l1-0.2c-0.1,0.8-0.2,1.4-0.3,2.3
	c-1.6,10.8-1.8,21.8-0.6,32.6c2.7,22.8,13.3,53.9,13.3,53.9s4,10.9,4.8,19.7c0.1,1.8,0.5,3.4,1.2,5.1c2,4.8,3,10,3.1,15.2
	c0,13.1,2.3,26.2,6.9,38.4c4.5,11.7,6.2,18.6,6.7,22.5c-3.2,4.3-7.4,8.9-10.6,9.3c-6.2,0.9-18.3,1.8-10.2,12.2c0.3,0.3,0.5,0.7,1,1
	c-6.1,1-12.8,3.2-6.2,11.7c7.9,10.4,55.1,5.7,55.1,5.7s0.3-5.8,0-12.2c3.3-0.2,5.4-0.4,5.4-0.4s1.3-25.4-4.4-28.5
	c-1.1,0.1-2.1,0.3-3.1,0.8c-0.6-3.5-1.1-7.9-1.4-11.1l2.3-0.2v-0.2h0.1v-38.3c0,0-2.7-23.6-12.5-34.1c-1.3-1.3-2.4-2.7-3.2-4.4
	l-0.1-0.2c0.1-3,0.1-7,0-11.7l0.1-0.2c0.2-0.3,0.3-0.5,0.5-0.8c0.2-0.3,0.4-0.5,0.8-0.9l0.1-0.2l0,0c0,0,5.4-6.6,23.5-48.2
	c11.1-25.4,8.2-39.6,4.2-47c-0.9-3.3-2.6-10.7-4.7-23.3c-0.9-5.4-1.3-10.8-1.3-16.3c2.8,0.7,5.6,1,8.4,1c4.4,0.1,8.9-0.9,12.9-2.9
	c-2.9-4.3-5.9-9.5-4.5-14.4c1.6-5.7,8.2-8.2,12-12.9C896.8,519.4,896.9,511.5,895.5,504.4z"/>
<path class="st10" d="M783,406.4c0,0-11.1,6.5-7.6,15.6c0,0,11.5,3.5,16.1,12.1c4.6,8.6,40.7,39.9,40.7,39.9l26.3-13.4
	c0,0-9.1-12.5-38-21.2c0,0-17.1-18.7-23-22.2C791.6,413.7,783,406.4,783,406.4z"/>
<path class="st11" d="M788.4,411.9c0,0-11.1,6.5-7.6,15.6c0,0,11.5,3.5,16.1,12.1c4.6,8.6,40.7,39.9,40.7,39.9l26.3-13.4
	c0,0-9.1-12.5-38-21.2c0,0-17.1-18.7-23-22.2S788.4,411.9,788.4,411.9z"/>
<linearGradient id="SVGID_11_" gradientUnits="userSpaceOnUse" x1="682.1708" y1="1011.8458" x2="682.1708" y2="738.8356" gradientTransform="matrix(1 0 0 1 0 -340)">
	<stop  offset="0" style="stop-color:#808080;stop-opacity:0.25"/>
	<stop  offset="0.54" style="stop-color:#808080;stop-opacity:0.12"/>
	<stop  offset="1" style="stop-color:#808080;stop-opacity:0.1"/>
</linearGradient>
<rect x="573.7" y="398.8" class="st12" width="217" height="273"/>
<rect x="577.1" y="403.1" class="st8" width="210.1" height="264.4"/>
<rect x="591.2" y="426.3" class="st13" width="43" height="44"/>
<rect x="612.7" y="496.7" class="st13" width="152.5" height="8.8"/>
<rect x="612.7" y="515.4" class="st13" width="152.5" height="8.8"/>
<rect x="612.7" y="534.1" class="st13" width="152.5" height="8.8"/>
<rect x="612.7" y="552.8" class="st13" width="152.5" height="8.8"/>
<rect x="612.7" y="571.5" class="st13" width="152.5" height="8.8"/>
<rect x="612.7" y="590.2" class="st13" width="152.5" height="8.8"/>
<rect x="612.7" y="608.9" class="st13" width="152.5" height="8.8"/>
<path class="st14" d="M851.8,776.7c0,0,1.3,19.1,3.4,21.2c2.1,2.2-19.1,3.5-19.1,3.5l3-24.7H851.8z"/>
<path class="st11" d="M851.8,776.7c0,0,1.3,19.1,3.4,21.2c2.1,2.2-19.1,3.5-19.1,3.5l3-24.7H851.8z"/>
<path class="st15" d="M856.4,791.4c0,0-3,0-13.5,5.6c0,0-7.2-1.3-10.2-11.8c0,0-8.9,15.6-14.8,16.5c-5.9,0.9-17.4,1.8-9.8,12.1
	c7.6,10.3,52.5,5.6,52.5,5.6S861.9,794.5,856.4,791.4z"/>
<path class="st11" d="M856.4,791.4c0,0-3,0-13.5,5.6c0,0-7.2-1.3-10.2-11.8c0,0-8.9,15.6-14.8,16.5c-5.9,0.9-17.4,1.8-9.8,12.1
	c7.6,10.3,52.5,5.6,52.5,5.6S861.9,794.5,856.4,791.4z"/>
<path class="st14" d="M850.1,806.2l-3,8.2l-19.5-5.6l1.1-8.1l0.2-2l0.8-5.5c0,0,16.5-4.4,16.5-2.2c0.2,1.8,0.5,3.5,1.1,5.3
	c0.6,2.6,1.5,5.7,2.1,7.7C849.7,805.3,850.1,806.2,850.1,806.2z"/>
<path class="st16" d="M839.4,693c-2.1,3.7-2.1,8.4,0,12.1c0.9,1.5,1.8,3,3,4.3c9.3,10.4,11.9,33.9,11.9,33.9V781l-6.3,0.5l-10.2,0.8
	L822.6,718c0,0-8.9-46.9-4.6-55.1c4.2-8.2,8.1-59.9,8.1-59.9l3.5-3.7l8.4-8.9h24.2c1.9,1.4,3.5,3.3,4.7,5.4
	c4.1,6.8,7.7,21.1-3.4,47.5C846,684.5,840.9,691,840.9,691C840.2,691.8,839.7,692.3,839.4,693z"/>
<path class="st17" d="M839.5,692.7c-2.1,3.7-2.1,8.4,0,12.1c0.9,1.5,1.8,3,3,4.3c9.3,10.4,11.9,33.9,11.9,33.9v37.7l-6.3,0.4
	l-10.2,0.8l-15.3-64c0,0-8.9-46.9-4.6-55.1c4.3-8.2,8.1-59.9,8.1-59.9l3.5-3.7l8.4-8.8h24.2c1.9,1.4,3.5,3.3,4.7,5.4
	c4.1,6.8,7.7,21.1-3.4,47.5C846.1,684.5,841,691,841,691C840.4,691.5,839.9,692.1,839.5,692.7z"/>
<path class="st18" d="M847.3,796.3l-18.4,2.3l0.8-5.5c0,0,16.5-4.4,16.5-2.2C846.4,792.7,846.8,794.5,847.3,796.3z"/>
<path class="st8" d="M838.1,637.3c0,0,1.1,34.2,1.2,55.7c0,4.8,0,9,0,12.1c0,1.5-0.1,3.2-0.3,4.7c-1.3,4,1.3,12.5,1.3,12.5
	c6.3,17.2,8.9,35.5,7.6,53.8v19.1l-20.3,2.6c0,0,3.4-2.6-5.9-27.8c-4.4-12.2-6.6-25.1-6.6-38.1c0-5.2-1.1-10.3-3-15.1
	c-0.5-1.6-1-3.3-1.1-5.1c-0.9-8.7-4.6-19.6-4.6-19.6s-10.2-30.8-12.7-53.3c-1.2-10.8-1-21.6,0.5-32.3c0.3-2.7,0.9-5.4,1.5-8
	c0,0,41.5-26.7,57-8.2c1.5,1.8,2.7,3.8,3.5,6c0.9,2.2,1.5,4.4,2,6.8C863.3,627.7,838.1,637.3,838.1,637.3z"/>
<ellipse class="st14" cx="836.8" cy="425" rx="21.6" ry="22.1"/>
<path class="st14" d="M825,439c0,0,8.9,25.6,0,39c-8.9,13.4,28.4,9.1,28.4,9.1l14.4-17.8c0,0-17,0-17.8-30.4
	C849.1,408.6,825,439,825,439z"/>
<path class="st18" d="M867.8,600.9c-3.1,1.1-6.2,1.9-9.5,2.4c-5.3,0.9-11.5,0.9-15.1-2.4c-2.1-2-7.5-2.2-13.9-1.5
	c-13.4,1.3-31.7,6.5-35.1,7.5c0.3-2.7,0.9-5.4,1.5-8c0,0,41.5-26.7,57-8.2h9c1.9,1.4,3.5,3.3,4.7,5.4
	C867.3,599.2,867.8,600.9,867.8,600.9z"/>
<path class="st18" d="M850.1,806.2l-3,8.2l-19.5-5.6l1.1-8.1c3.3,7.6,9,8.6,9,8.6c3.8-2.1,7.6-3.8,11.7-5.3
	C849.7,805.3,850.1,806.2,850.1,806.2z"/>
<path class="st15" d="M851.3,804.1c0,0-3,0-13.5,5.6c0,0-7.2-1.3-10.2-11.8c0,0-8.9,15.6-14.8,16.5c-5.9,0.9-17.4,1.8-9.8,12.2
	c7.6,10.4,52.5,5.6,52.5,5.6S856.8,807,851.3,804.1z"/>
<path class="st14" d="M750.7,429.3c0,0,0.9-16.9,18.2-15.3c1.6,0.2,2.8,1.6,2.7,3.3c0,0.3-0.1,0.8-0.3,1.1l-3.5,6.8L750.7,429.3z"/>
<path class="st10" d="M850.9,474.5c0,0-20.7-3.5-26.3-7.8c0,0-4.2,8.2-11.8,3.8c-7.6-4.4-25.5-3.8-25.5-3.8
	c-9.5-5.9-15.9-15.7-17.8-26.9c0,0-3-11.3-2.1-14.3c0,0-11.1-11.8-16.5,3.8c2.1,10.9,3.8,10,3.4,18.7l6.8,19.1
	c0,0,0.4,6.5,12.7,15.2c12.2,8.7,26.3,22.1,26.3,22.1s-7.4,4.2-4.6,23c3.3,23.1-1.7,56-1.7,56v21.2c0,0,42.4-12.5,49.6-6
	c7.2,6.5,24.6,0,24.6,0s-2.1-7.4-5-25.2c-2.9-17.8,0.4-35.2,0.4-35.2s11.1-29.9,16.1-42.1c5-12.2-3.9-28.6-12.7-34.8
	s-12.2-2.4-12.2-2.4S869.9,470.7,850.9,474.5z"/>
<path class="st11" d="M796.5,537.2c0,0,3.4-0.9,20.3-3.4c16.9-2.5,46.6,3.5,46.6,3.5"/>
<path class="st18" d="M811.1,410.7c9.7,0.2,16.9,12.4,12.6,21.2c-1.9,3.8-5.5,7.3-5.2,11.5c0.2,2,1.2,3.7,1.6,5.6
	c2,8.8-8.3,17-5.9,25.7c0.8,2.3,2,4.5,3.7,6.3l17.8,23c1.1,1.3,1.9,2.6,2.7,4.2c0.6,2.2,1,4.5,0.8,6.8c-0.1,11,0.6,22.8,7,31.7
	c7.6,10.7,23.1,14.5,34.7,8.6c-2.8-4.3-5.7-9.3-4.3-14.3c1.6-5.6,7.8-8.2,11.5-12.8c4.4-5.5,4.5-13.3,3.2-20.2s-3.8-13.7-3.8-20.8
	c-0.1-11.4,5.7-24.7-1.9-33.2c-1.7-2-4.1-3.4-5.3-5.6c-1-2-1.4-4.2-1.3-6.4c-0.1-13.4,6.8-26.9,2.7-39.7c-0.8-2.9-2.5-5.3-4.7-7
	c-5.9-4.1-14.1-0.1-20.8-2.2c-3.2-1-5.9-3.2-9-4.3c-8.5-3-16.3,3-22.2,8.6c-2.5,2.2-5,4.2-7.7,5.9
	C817.3,403.3,807.3,410.6,811.1,410.7z"/>
<path class="st19" d="M812.1,410.7c9.7,0.2,16.9,12.4,12.6,21.2c-1.9,3.8-5.5,7.3-5.2,11.5c0.2,2,1.2,3.7,1.6,5.6
	c2,8.8-8.3,17-5.9,25.7c0.8,2.3,2,4.5,3.7,6.3l17.8,23c1.1,1.3,1.9,2.6,2.7,4.2c0.6,2.2,1,4.5,0.8,6.8c-0.1,11,0.6,22.8,7,31.7
	c7.6,10.7,23.1,14.5,34.7,8.6c-2.8-4.3-5.7-9.3-4.3-14.3c1.6-5.6,7.8-8.2,11.5-12.8c4.4-5.5,4.5-13.3,3.2-20.2
	c-1.3-6.9-3.8-13.7-3.8-20.8c-0.1-11.4,5.7-24.7-1.9-33.2c-1.7-2-4.1-3.4-5.3-5.6c-1-2-1.4-4.2-1.3-6.4c-0.1-13.4,6.8-26.9,2.7-39.7
	c-0.8-2.9-2.5-5.3-4.7-7c-5.9-4.1-14.1-0.1-20.8-2.2c-3.2-1-5.9-3.2-9-4.3c-8.5-3-16.3,3-22.2,8.6c-2.5,2.2-5,4.2-7.7,5.9
	C818.4,403.3,808.4,410.6,812.1,410.7z"/>
<linearGradient id="SVGID_12_" gradientUnits="userSpaceOnUse" x1="2091.3716" y1="1255.3157" x2="2091.3716" y2="821.4934" gradientTransform="matrix(1 0 0 1 -1655.6 -420.59)">
	<stop  offset="0" style="stop-color:#808080;stop-opacity:0.25"/>
	<stop  offset="0.54" style="stop-color:#808080;stop-opacity:0.12"/>
	<stop  offset="1" style="stop-color:#808080;stop-opacity:0.1"/>
</linearGradient>
<path class="st20" d="M487.6,620c-2.5-2.3-4.6-5.1-6.3-7.9c-3.8-5.9-9.9-9.2-14.2-10.8v-2h0.2l-0.1-1.8h0.1l-0.3-4.7l0,0l0,0
	l-1.5-23.9c0,0-5.5-15.9,4.2-30.6s0.6-28.7-8.5-34.1c0,0-4.3-23.2-0.6-28.7c-4.9-3-10-5.6-15.3-7.9c-0.1-0.3-0.1-0.5-0.2-0.9
	c-0.1-2.2-0.2-4.3-0.3-6.5c0.1-1.1,0.3-2.2,0.6-3.3c0.1-0.4,0.2-0.9,0.4-1.4c8.9-3.5,14.8-12.3,14.8-22.1c0-2.7-0.5-5.6-1.4-8.1
	c0.4-0.8,0.9-1.6,1.1-2.6c0.4-2.6,0-5.4-1.4-7.6c-2.4-5.5-8.5-10.6-12.9-12.3c-6.3-2.6-15.8-2-22.3-1.2c-3.7,0.4-7.8,1.8-9.2,5.2
	c-0.3,1.3-0.6,2.6-0.9,4c-1.4,5.3-7.3,7.8-11.1,11.9c-3.2,3.6-4.7,8.5-5.7,13.2c-3,13.6-3.8,27.6-2.1,41.5c0.3,3.2,0.9,6.4,1.4,9.6
	c-2.3,3.2-4.2,8.8-3.3,18.7l-7.3,35.4l-3,20.7c-0.9,5.8,1.2,11.8,5.5,15.8c4.6,4.6,10.3,12.5,13.7,17.7c-1.5,4.5-2.3,9.2-2.3,14.1
	c0.1,2.2,0.2,4.3,0.3,6.3c0.3,4.2,1.1,8.4,2.4,12.4c0.9,8.5,2.6,19.4,5.8,26.4l1.2,37.2c0,0-1.8,34.1-5.5,40.9
	c-3.7,6.7,7.8,63.5,7.8,63.5v7.9l-1.9,5.8l-0.5-0.3c-9.1,11.5,0,15.8,0,15.8s2.5,0.1,6.4,0.2c-0.6,3.3,0.9,6.7,3.9,8.2
	c0,0,51.6,2.4,60.7,0s6.7-11,1.8-10.3c-2.5,0.1-4.9-0.2-7.3-1c2.8-3.4,0.5-8-3-7.6c-4.8,0.7-15.8-3.8-15.8-3.8v0.1
	c-0.3-0.1-0.8-0.2-1.1-0.3c-4.1-1-8.1-2.1-12-3.5c-2.4-5.2-7.7-18.9-3.9-29.7c1.7-4.8,2.4-11.3,2.4-17.5c0.1-18.8,2.8-37.6,7.9-55.7
	l7.3-25.6c0,0,10.3-31.1,11-39.6l-0.1-12.4c8.5,5.6,15.3,4,19.7,1.3c2.3-1.3,3-4.2,1.7-6.5C488.4,620.9,488,620.5,487.6,620z
	 M406.7,555.4c0.2-0.9,0.3-1.9,0.5-2.9c1.4,0,2.9,0,4.3,0c1.8,3.7,2.5,7.9,2.1,12C410.4,563.4,405.5,560.7,406.7,555.4z"/>
<path class="st21" d="M412.5,800.9l-2.4,7.1l7.6,7.8l25.1,5.9l18-1.8l-1.2-6.6l0,0c-0.8-2.9-2.9-5.1-5.7-5.8
	c-7.4-1.8-21.6-5.8-24.6-11.5L412.5,800.9z"/>
<path class="st18" d="M412.5,800.9l-2.4,7.1l7.6,7.8l25.1,5.9l18-1.8l-1.2-6.6l0,0c-0.8-2.9-2.9-5.1-5.7-5.8
	c-7.4-1.8-21.6-5.8-24.6-11.5L412.5,800.9z"/>
<path class="st22" d="M455.1,818.1l-3.5-4.7l3.5-5.5c0,0,10.5,4.3,15.1,3.7c4.6-0.7,7,7.8-1.7,10.1c-8.8,2.4-58.3,0-58.3,0
	s-8.8-4.2,0-15.5l7.6,5.9c0,0,12.9,7.1,19.2,5.9L455.1,818.1z"/>
<path class="st21" d="M470.8,828.3l-18,1.8l-25-6l-7.6-7.7l0.6-1.9l0.9-2.6l0.9-2.6l17-4.7c0.9,1.4,2,2.6,3.4,3.5
	c5.5,3.8,15.4,6.6,21.2,8c0.2,0.1,0.5,0.1,0.8,0.2c2.5,0.9,4.4,3,5,5.6L470.8,828.3z"/>
<path class="st18" d="M470.8,828.3l-18,1.8l-25-6l-7.6-7.7l0.6-1.9l7,5.5c0,0,12.9,7.1,19.2,5.9h18l-3.5-4.7l3.1-4.9
	c2.5,0.9,4.4,3,5,5.6L470.8,828.3z"/>
<path class="st22" d="M465,826.5l-3.5-4.7l3.5-5.5c0,0,10.5,4.4,15.1,3.7c4.6-0.5,7,7.8-1.7,10.1c-8.8,2.4-58.3,0-58.3,0
	s-8.8-4.2,0-15.5l7.6,5.9c0,0,12.9,7.1,19.2,5.9L465,826.5z"/>
<path class="st21" d="M450.4,479.9c0,0-28,3-24-8.9c1.2-3.4,1.4-7,0.9-10.6c-0.8-4.4-2.5-8.6-4.9-12.1l26.3,4.2
	c-1.6,2.6-2.8,5.6-3.5,8.7C442,473.7,450.4,479.9,450.4,479.9z"/>
<path class="st22" d="M402.6,616.2c0,0,0.5,25.7,6.4,38.3l1.2,36.4c0,0-1.7,33.4-5.3,40c-3.5,6.6,7.6,62.1,7.6,62.1v9.6
	c0,0,18.7,7.1,24-1.2l-5.3-71.2l2.4-98.6L402.6,616.2z"/>
<path class="st23" d="M402.6,616.2c0,0,0.5,25.7,6.4,38.3l1.2,36.4c0,0-1.7,33.4-5.3,40c-3.5,6.6,7.6,62.1,7.6,62.1v9.6
	c0,0,18.7,7.1,24-1.2l-5.3-71.2l2.4-98.6L402.6,616.2z"/>
<path class="st24" d="M390.9,533.7l-3.5,9.6l-2.9,20.3c-0.8,5.7,1.2,11.5,5.3,15.5c7,7.1,16.3,22.1,16.3,22.1l11.1-34.1
	c0,0-11.1-1.8-9.3-9.6c1.7-7.8,1.2-22.1,1.2-22.1L390.9,533.7z"/>
<path class="st11" d="M390.9,532.6l-3.5,9.6l-2.9,20.3c-0.8,5.7,1.2,11.5,5.3,15.5c7,7.1,16.3,22.1,16.3,22.1l11.1-34.1
	c0,0-11.1-1.8-9.3-9.6c1.7-7.8,1.2-22.1,1.2-22.1L390.9,532.6z"/>
<path class="st18" d="M442.8,807.9c-7.5,12.1-19.1,5.3-21.2,3.8l0.9-2.6l17-4.7C440.2,805.8,441.4,807,442.8,807.9z"/>
<path class="st8" d="M466.2,639.5c-0.5,8.4-10.5,38.8-10.5,38.8l-7,25.1c-5,17.7-7.6,36.1-7.7,54.6c0,6.2-0.5,12.4-2.3,17.2
	c-4.6,13.2,4.6,31,4.6,31c-8.2,15-22.1,4.7-22.1,4.7v-9.6c0,0-11.1-52-8.2-62.1c2.9-10.1,4.1-37.6,4.1-37.6V652
	c-9.3-9.6-15-22.2-16-35.6c-0.1-2-0.2-4.1-0.3-6.2c-0.4-13.5,8.5-29.3,12-34.9c0.9-1.3,1.4-2.1,1.4-2.1l51.6,20.9h0.1v2.1v4.5
	L466.2,639.5z"/>
<path class="st18" d="M448.7,452.4c-1.6,2.6-2.8,5.6-3.5,8.7c-5.8,2.2-12.1,2-17.7-0.7c-0.8-4.4-2.5-8.6-4.9-12.1L448.7,452.4z"/>
<ellipse class="st21" cx="437" cy="438.1" rx="22.8" ry="23.3"/>
<path class="st18" d="M466.2,600.7H466c-24.5,5.2-55.2-21-55.2-21c0.9-1.4,1.5-2.9,2.1-4.4c0.9-1.3,1.4-2.1,1.4-2.1l51.6,20.9
	l0.1,2.1L466.2,600.7z"/>
<path class="st24" d="M459.7,479.4c0,0-32.7-20.3-43.2-12l-14.6,19.1c0,0-9.3,3-7.6,22.1l-7,34.6l21.1,5.4c0,0,12.2,12,2.4,29.3
	c0,0,30.9,26.3,55.4,20.9l-1.8-28c0,0-5.3-15.5,4.1-29.9s0.5-28-8.2-33.4C460.4,507.4,456.2,484.7,459.7,479.4z"/>
<path class="st21" d="M461.4,601.2c0,0,12.2,2.4,18,12c1.7,2.9,3.8,5.5,6.1,7.8c1.9,1.8,2,4.7,0.3,6.7c-0.3,0.3-0.6,0.7-1.1,0.9
	c-4.6,2.9-12.1,4.6-21.7-3.4C446.9,611.5,461.4,601.2,461.4,601.2z"/>
<path class="st18" d="M443.4,490.7c0,0-11.7-1.2-14.6,29.9s-7.6,38.3-7.6,38.3s-2.9,16.2,4.1,25.7c7,9.6,20.4,29.9,20.4,29.9
	s14.6,4.2,17.5-10.8l-18-34.6c0,0-2.9-12,4.1-20.3C456.2,540.4,461.4,484.7,443.4,490.7z"/>
<path class="st24" d="M444.6,488.9c0,0-11.7-1.2-14.6,29.9c-2.9,31.1-7.6,38.3-7.6,38.3s-2.9,16.2,4.1,25.7s20.4,29.9,20.4,29.9
	s14.6,4.2,17.5-10.8l-18-34.6c0,0-2.9-12,4.1-20.2S462.6,482.9,444.6,488.9z"/>
<path class="st18" d="M454.1,511.4c0,0,1.2,18.5-4.1,28.7c-5.3,10.2-5.3,23.3,0,30.5"/>
<path class="st18" d="M457.1,488.6c0,0-4.6-4.8-18-5.4c-13.4-0.5-19.2-4.8-19.2-4.8"/>
<path class="st18" d="M424.6,408c-3.5,0.4-7.6,1.6-8.9,5.1c-0.3,1.3-0.6,2.6-0.9,4c-1.3,5.3-7.1,7.7-10.6,11.7
	c-3.1,3.5-4.5,8.2-5.5,13c-2.9,13.3-3.7,27.1-2,40.6c1.2,9.9,3.4,19.7,4.1,29.6c0.6,9.9-0.5,20.5-5.9,28.8
	c-2.3,3.6-5.3,6.7-6.9,10.7c3.3,2.7,7.9,3.2,12.2,3.3c5,0.2,10,0.2,15,0c2.7-0.1,5.4-0.2,7.6-1.6c1.7-1.1,3.1-2.6,4-4.4
	c2.9-4.9,3.5-11,3.4-16.7s-1.1-11.5-1.1-17.4c0-3.2,0.2-6.5,1.9-9.1c1.3-1.9,3.2-3.1,4.8-4.6c6.2-5.6,8.4-14.7,8.6-23.3
	c0.2-8.6-1.2-17-0.4-25.6c0.3-3.3,1.5-7.4,4.7-8c1.1,0,2-0.2,3-0.4c2.6-1,2.4-4.7,3-7.5c0.9-3.1,3.3-5.4,4.1-8.5
	c1.7-7.3-7.3-15.8-13.2-18.4C440.1,406.5,430.9,407.2,424.6,408z"/>
<path class="st25" d="M424.1,406.8c-3.5,0.4-7.6,1.6-8.9,5.1c-0.3,1.3-0.6,2.6-0.9,4c-1.3,5.3-7.1,7.7-10.6,11.7
	c-3.1,3.5-4.5,8.2-5.5,13c-2.9,13.3-3.7,27.1-2,40.6c1.2,9.9,3.4,19.7,4.1,29.6c0.6,9.9-0.5,20.5-5.9,28.8
	c-2.3,3.6-5.3,6.7-6.9,10.7c3.3,2.7,7.9,3.2,12.2,3.3c5,0.2,10,0.2,15,0c2.7-0.1,5.4-0.2,7.6-1.6c1.7-1.1,3.1-2.6,4-4.4
	c2.9-4.9,3.5-11,3.4-16.7c-0.1-5.7-1.1-11.5-1.1-17.4c0-3.2,0.2-6.5,1.9-9.1c1.3-1.9,3.2-3.1,4.8-4.6c6.2-5.6,8.4-14.7,8.6-23.3
	s-1.2-17-0.4-25.6c0.3-3.3,1.5-7.4,4.7-8c1.1,0,2-0.2,3-0.4c2.6-1,2.4-4.7,3-7.5c0.9-3.1,3.3-5.4,4.1-8.5
	c1.7-7.3-7.3-15.8-13.2-18.4C439.5,405.4,430.4,406,424.1,406.8z"/>
</svg>
