<svg width="1011" height="928" viewBox="0 0 1011 928" fill="none" xmlns="http://www.w3.org/2000/svg">
<g filter="url(#filter0_d)">
<path d="M520.639 481C525.609 481 529.639 476.971 529.639 472C529.639 467.029 525.609 463 520.639 463C515.668 463 511.639 467.029 511.639 472C511.639 476.971 515.668 481 520.639 481Z" fill="#F6F7F9"/>
<path d="M545.639 481C551.162 481 555.639 476.971 555.639 472C555.639 467.029 551.162 463 545.639 463C540.116 463 535.639 467.029 535.639 472C535.639 476.971 540.116 481 545.639 481Z" fill="#F6F7F9"/>
<path d="M570.139 481C574.833 481 578.639 476.971 578.639 472C578.639 467.029 574.833 463 570.139 463C565.444 463 561.639 467.029 561.639 472C561.639 476.971 565.444 481 570.139 481Z" fill="#F6F7F9"/>
<path d="M485.714 910.524L19.9829 651.513C5.15993 643.686 -7.56396 630.835 6.89618 622.374L474.311 368.777C481.334 364.68 491.985 361.998 499.111 365.9L988.009 633.006C1002.83 641.101 1005.5 663.73 990.601 671.85L547.182 910.109C537.861 915.206 527.287 917.926 516.506 917.998C505.726 918.071 495.112 915.495 485.714 910.524Z" fill="#9E5A63"/>
<path d="M655.539 492.588C655.539 492.588 686.417 491.575 691.386 499.379C696.355 507.184 699.859 529.339 707.816 530.434C715.772 531.529 718.07 512.743 719.162 499.818C720.253 486.892 717.84 480.648 714.911 480.182C711.981 479.717 689.806 471.803 688.858 468.024C687.91 464.244 715.858 468.434 715.858 468.434L714.652 455.344L648.33 458.74L655.539 492.588Z" fill="#F77819"/>
<path d="M568.019 508.334L676.479 508.143C676.479 508.143 670.332 468.626 654.936 449.183L576.435 439.625" fill="#F28830"/>
<path d="M660.594 588.901C660.594 588.901 673.95 603.141 669.642 612.424C665.333 621.708 646.318 638.96 650.368 646.601C654.418 654.241 673.893 644.246 686.991 636.907C700.089 629.567 704.598 623.46 703.104 620.64C701.611 617.819 695.091 593.255 698.107 590.16C701.123 587.066 714.996 613.958 714.996 613.958L722.464 599.307L681.074 548.918L660.594 588.901Z" fill="#F77819"/>
<path d="M487.127 312C487.127 312 451.501 419.992 457.271 469.21C463.041 518.428 558.551 513.072 558.551 513.072L635.487 611C664.882 606.594 691.429 591.264 709.639 568.181C709.639 568.181 684.95 534.101 667.439 516.877C649.927 499.654 602.416 439.16 600.435 420.809C598.454 402.458 576.78 333.705 554.819 322.402" fill="#F99943"/>
<path d="M560.753 508.635C542.579 482.49 528.138 454.153 517.811 424.372C514.862 415.846 512.268 407.229 510.027 398.52C509.863 397.87 509.435 397.309 508.837 396.96C508.24 396.61 507.521 396.502 506.839 396.658C506.157 396.814 505.568 397.222 505.202 397.792C504.836 398.362 504.722 399.048 504.886 399.698C512.898 430.57 525.184 460.288 541.422 488.069C545.998 495.901 550.891 503.56 556.099 511.045C557.88 513.729 562.648 511.347 560.753 508.635Z" fill="#F77819"/>
<path d="M520.997 239.331C520.997 239.331 493.883 225.173 483.657 256.201C473.431 287.228 473.948 288.378 470.846 290.569C467.744 292.76 420.695 308.807 420.695 308.807L447.58 324.143C447.58 324.143 480.067 318.474 487.018 312.477C497.559 303.385 503.246 287.83 503.246 287.83" fill="#CFD2A8"/>
<path d="M651.432 267.592C653.845 261.431 655.999 255.187 658.154 248.861C661.652 239.937 664.099 230.67 665.449 221.23C663.726 216.821 657.522 213.452 653.156 212.466C647.67 211.207 642.04 213.452 636.467 213.343C629.2 213.343 623.456 210.604 616.677 208.633C609.659 206.952 602.277 207.276 595.45 209.564C582.352 213.425 568.996 212.083 558.11 203.84C551.934 199.157 547.109 195.323 539.296 193.379C527.232 190.339 514.795 192.503 506.839 202.17C499.686 210.905 498.222 222.352 505.718 231.28C509.793 235.411 515.112 238.233 520.942 239.359C526.256 240.81 531.225 243.795 536.682 244.836H537.285C542.447 245.181 547.579 245.839 552.652 246.807C559.058 248.615 565.004 251.654 571.294 253.818C579.652 256.556 587.752 255.57 596.341 254.53C607.284 253.215 613.087 256.447 621.56 262.389L623.082 263.403C629.067 266.858 635.964 268.606 642.959 268.441C645.804 268.397 648.64 268.113 651.432 267.592Z" fill="#6E89FE"/>
<path d="M646.06 322.034C649.392 323.814 652.953 325.676 656.601 327.237C663.154 327.77 669.731 327.971 676.306 327.84C679.056 327.365 681.869 327.319 684.635 327.703C685.162 327.734 685.674 327.878 686.133 328.126C686.592 328.374 686.986 328.718 687.285 329.132C687.584 329.546 687.78 330.02 687.858 330.517C687.937 331.015 687.895 331.522 687.737 332.002C687.231 333.16 686.406 334.166 685.349 334.913C684.292 335.66 683.043 336.121 681.734 336.247C679.551 336.658 677.368 336.986 675.157 337.287C681.22 340.458 687.518 343.204 693.999 345.503C698.078 347.064 695.981 353.308 691.874 351.747L687.45 350.049C689.869 351.57 692.199 353.215 694.43 354.978C697.13 357.142 695.464 362.372 691.558 360.866C686.217 358.811 681.051 356.366 676.105 353.554C679.13 355.854 682.232 358.073 685.411 360.209C689.03 362.619 685.411 368.15 681.677 365.686C677.215 362.692 672.887 359.533 668.694 356.21C669.642 358.073 670.561 359.962 671.394 361.879C673.117 365.74 667.028 368.808 665.304 364.919C663.581 361.03 661.8 357.552 659.847 353.965L659.416 353.773C648.75 348.296 638.218 342.536 627.82 336.493C624.029 334.33 627.82 328.798 631.554 331.016L636.38 333.755C636.512 333.257 636.749 332.789 637.074 332.38C637.4 331.971 637.808 331.628 638.276 331.372C637.954 330.881 637.776 330.316 637.759 329.737C637.742 329.158 637.887 328.585 638.18 328.078C638.472 327.57 638.902 327.146 639.423 326.849C639.945 326.552 640.54 326.393 641.148 326.388C640.876 325.746 640.815 325.039 640.973 324.363C641.131 323.687 641.5 323.072 642.033 322.6C642.565 322.128 643.235 321.821 643.954 321.72C644.673 321.619 645.407 321.729 646.06 322.034Z" fill="#FFC285"/>
<path d="M673.147 340.601C669.01 344.298 664.099 347.913 658.096 346.434C656.889 346.133 657.32 344.326 658.526 344.627C663.812 345.914 668.12 342.573 671.71 339.342C672.63 338.547 674.066 339.78 673.147 340.601Z" fill="#6D320B"/>
<path d="M677.025 344.818C682.091 347.073 687.289 349.048 692.593 350.733C693.483 351.007 693.167 352.376 692.277 352.075C686.855 350.35 681.542 348.33 676.364 346.023C675.502 345.667 676.163 344.435 677.025 344.818Z" fill="#6D320B"/>
<path d="M673.404 351.144C679.099 354.879 685.291 357.872 691.816 360.045C692.678 360.346 692.39 361.688 691.5 361.386C684.855 359.192 678.548 356.162 672.744 352.377C671.968 351.884 672.772 350.652 673.404 351.144Z" fill="#6D320B"/>
<path d="M666.052 354.239C670.334 357.769 674.972 360.888 679.897 363.55C680.701 363.988 679.897 365.22 679.207 364.782C674.181 362.065 669.447 358.882 665.076 355.279C664.357 354.677 665.334 353.664 666.052 354.239Z" fill="#6D320B"/>
<path d="M529.3 240.098L524.101 239.085C520.931 239.037 517.771 238.744 514.651 238.208C509.114 238.121 503.682 239.65 499.083 242.59C488.828 249.546 487.766 266.305 486.933 277.122C486.53 282.353 486.214 287.72 486.128 293.143C486.042 298.565 486.703 304.562 486.961 312.175V312.504C496.417 320.864 508.138 326.533 520.798 328.871C533.458 331.208 546.552 330.121 558.597 325.731C558.597 325.731 555.725 266.141 549.291 247.601C542.932 244.417 536.229 241.901 529.3 240.098Z" fill="#CFD2A8"/>
<path d="M548.632 247.3C548.632 247.3 594.044 302.426 657.206 320.966C657.206 320.966 653.042 343.202 643.218 351.637C643.218 351.637 557.565 314.64 537.832 281.614" fill="#CFD2A8"/>
<path d="M507.441 212.576C507.441 212.576 499.198 235.333 514.421 245.63C529.645 255.926 550.297 234.402 544.638 214.137C538.98 193.872 517.121 193.078 507.441 212.576Z" fill="#FFC285"/>
<path d="M546.648 242.453C545.398 242.713 544.099 242.666 542.873 242.316C541.648 241.967 540.535 241.326 539.64 240.454C537.399 238.291 537.601 235.223 537.572 232.403C537.669 230.572 537.262 228.749 536.39 227.116C535.518 225.482 534.212 224.095 532.603 223.092C528.61 220.518 523.584 219.778 519.964 216.629C519.591 216.3 519.218 215.944 518.902 215.588C519.379 216.01 519.898 216.387 520.453 216.711C526.197 220.107 535.073 220.929 537.687 222.188C540.301 223.448 536.049 233.882 540.961 238.428C545.873 242.973 557.477 214.493 550.756 206.743C544.035 198.993 521.86 189.929 512.238 202.8C512.5 203.947 512.826 205.081 513.214 206.195C513.448 209.677 514.802 213.005 517.092 215.725C520.682 219.97 525.881 220.929 530.621 223.53C532.146 224.242 533.447 225.327 534.39 226.674C535.334 228.021 535.886 229.582 535.992 231.198C535.79 233.866 536.091 236.546 536.882 239.112C537.769 240.858 539.255 242.264 541.094 243.095C542.932 243.927 545.014 244.135 546.993 243.685C547.998 243.576 547.539 242.261 546.648 242.453Z" fill="#6E89FE"/>
<path d="M496.755 391.619L545.585 364.262L458.639 310.122L412.481 327.566" fill="#3129A3"/>
<path d="M496.728 386.964C497.532 383.459 473.146 318.008 473.146 318.008L372.614 263.54L403.348 338.136L496.757 391.647L496.728 386.964Z" fill="#7878CE"/>
<path d="M439.769 341.182C442.779 339.821 442.937 334.131 440.122 328.474C437.307 322.817 432.585 319.334 429.575 320.696C426.565 322.057 426.407 327.747 429.222 333.404C432.037 339.061 436.759 342.543 439.769 341.182Z" fill="#8EC2FE"/>
<path d="M491.816 257.843C489.118 275.612 487.516 293.516 487.02 311.463C487.02 311.826 487.171 312.175 487.44 312.431C487.709 312.688 488.075 312.833 488.456 312.833C488.837 312.833 489.202 312.688 489.471 312.431C489.741 312.175 489.892 311.826 489.892 311.463C490.375 293.764 491.948 276.107 494.603 258.583C494.689 256.83 491.816 256.091 491.816 257.843Z" fill="#2C8F99"/>
<path d="M557.162 302.125L547.167 293.143L558.685 325.731L557.162 302.125Z" fill="#4CC3D6"/>
<path d="M402.199 329.702C401.969 329.483 401.71 329.291 401.481 329.099C401.802 328.754 401.967 328.301 401.94 327.84C402.047 327.729 402.143 327.61 402.227 327.484C403.175 325.841 401.739 323.677 400.705 322.007C401.236 321.727 401.652 321.282 401.883 320.747C402.067 319.79 401.98 318.804 401.632 317.889C401.284 316.975 400.686 316.165 399.901 315.544C400.82 313.654 398.666 311.82 397.316 310.669C395.995 309.549 394.503 308.625 392.892 307.931C392.433 305.822 392.031 303.714 391.37 301.66C390.91 300.208 389.675 298.921 387.923 299.469C386.171 300.017 386.401 301.879 386.631 303.248C386.97 305.115 387.49 306.949 388.182 308.725C387.834 308.89 387.525 309.12 387.274 309.401C387.022 309.683 386.833 310.01 386.717 310.363C386.602 310.716 386.563 311.088 386.602 311.456C386.641 311.824 386.759 312.181 386.947 312.504C387.379 313.35 387.974 314.111 388.699 314.75C388.115 315.148 387.68 315.713 387.458 316.364C387.236 317.014 387.238 317.715 387.464 318.365C387.868 319.447 388.704 320.332 389.79 320.829C389.574 321.02 389.39 321.242 389.244 321.486C388.928 322.043 388.838 322.692 388.991 323.309C389.145 323.925 389.532 324.466 390.077 324.827C390.771 325.394 391.51 325.906 392.289 326.361C392.174 326.494 392.077 326.642 392.002 326.799C391.485 328.141 392.519 329.538 393.352 330.469C394.438 331.7 395.752 332.731 397.23 333.508C398.778 334.478 400.487 335.191 402.285 335.617C402.631 335.694 402.993 335.666 403.322 335.539C403.651 335.411 403.931 335.19 404.123 334.905C405.387 333.207 403.434 330.907 402.199 329.702Z" fill="#FFC285"/>
<path d="M866.551 433.344L717.017 355.078C714.147 353.573 711.753 351.361 710.086 348.673C708.419 345.985 707.539 342.919 707.538 339.797V78.4615C707.535 75.3966 708.379 72.385 709.985 69.7299C711.591 67.0748 713.902 64.87 716.686 63.3374C719.47 61.8049 722.628 60.9987 725.843 61C729.057 61.0013 732.215 61.8101 734.998 63.345L884.359 145.664C887.145 147.194 889.459 149.397 891.067 152.051C892.676 154.705 893.522 157.716 893.522 160.781V418.063C893.508 421.075 892.676 424.031 891.108 426.646C889.54 429.26 887.288 431.443 884.573 432.981C881.857 434.52 878.77 435.362 875.612 435.425C872.454 435.489 869.332 434.772 866.551 433.344Z" fill="#CFD2A8"/>
<path d="M806.232 331.389L842.854 349.737C848.053 352.476 843.457 359.842 838.258 357.241L801.636 338.893C796.408 336.291 801.004 328.788 806.232 331.389Z" fill="#F2F2F2"/>
<path d="M742.004 326.816C776.07 344.233 810.491 361.011 845.265 377.15C850.55 379.587 845.926 387.091 840.669 384.653C805.895 368.515 771.436 351.737 737.294 334.32C732.238 331.663 736.834 324.16 742.004 326.816Z" fill="#F2F2F2"/>
<path d="M587.734 827.481C588.108 827.481 591.612 826.139 588.682 824.003C586.73 822.553 584.687 821.217 582.564 820.005" fill="#E27825"/>
<path d="M587.734 809.791C587.734 809.791 584.862 820.17 587.734 825.729L547.521 848.13L507.94 870.038V853.963" fill="#FFE8BC"/>
<path d="M588.942 808.175C588.942 808.887 588.846 809.608 588.654 810.339L508.028 853.963V870.093L588.597 825.291C588.597 825.921 588.597 826.578 588.597 827.208L504.897 873.379V851.471L588.942 808.175Z" fill="#E27825"/>
<path d="M588.51 808.476L505.213 853.853L388.538 788.54L469.969 744.04C471.194 743.359 472.587 743 474.005 743C475.423 743 476.815 743.359 478.04 744.04L588.453 806.423C588.655 806.513 588.827 806.656 588.949 806.834C589.072 807.012 589.139 807.22 589.145 807.433C589.151 807.646 589.095 807.856 588.983 808.04C588.871 808.225 588.707 808.376 588.51 808.476Z" fill="#FDBA45"/>
<path d="M504.925 873.269C504.925 873.269 388.308 807.792 388.682 807.545C389.055 807.299 388.682 788.595 388.682 788.595L505.356 853.963L504.925 873.269Z" fill="#E27825"/>
<path d="M588.511 806.478C588.853 806.707 589.137 807.005 589.346 807.35C589.554 807.695 589.681 808.08 589.718 808.477C589.718 809.818 588.339 810.476 587.822 810.777" fill="#FDBA45"/>
<path d="M587.512 777C587.871 777 591.242 775.564 588.423 773.278C586.546 771.726 584.58 770.297 582.538 769" fill="#9A433A"/>
<path d="M587.538 759C587.538 759 584.687 769.676 587.538 775.394L547.824 798.465L508.538 821V804.324" fill="#FFE8BC"/>
<path d="M588.538 757C588.538 757.733 588.442 758.475 588.251 759.227L507.667 804.016V820.618L588.194 774.504C588.194 775.152 588.194 775.829 588.194 776.477L504.538 824V801.451L588.538 757Z" fill="#9A433A"/>
<path d="M588.859 757.335L505.356 804L388.538 736.833L470.112 691.069C471.34 690.369 472.736 690 474.157 690C475.579 690 476.975 690.369 478.203 691.069L588.887 755.223C589.086 755.324 589.252 755.477 589.367 755.665C589.482 755.853 589.541 756.069 589.538 756.288C589.535 756.507 589.47 756.72 589.35 756.905C589.23 757.09 589.06 757.239 588.859 757.335Z" fill="#F26250"/>
<path d="M505.106 824C505.106 824 388.165 756.724 388.539 756.471C388.913 756.218 388.539 737 388.539 737L505.538 804.107L505.106 824Z" fill="#9A433A"/>
<path d="M588.265 755C588.626 755.267 588.926 755.613 589.146 756.015C589.366 756.416 589.5 756.863 589.538 757.325C589.538 758.885 588.084 759.65 587.538 760" fill="#F26250"/>
<path d="M193.965 103.76L154.671 56.7403C154.671 56.7403 125.029 29.2183 96.3052 56.7403C67.5818 84.2622 86.8839 107.019 86.8839 107.019L140.051 163.131" fill="#F26250"/>
<path d="M151.368 119.999L208.815 90.8618C209.332 90.5172 209.954 90.3448 210.585 90.3712C211.216 90.3976 211.82 90.6214 212.304 91.0079C212.788 91.3945 213.125 91.9222 213.262 92.5096C213.4 93.097 213.331 93.7113 213.066 94.2575L195.056 147.302C194.286 149.647 192.585 151.613 190.317 152.779L131.951 182.519C131.41 182.787 130.797 182.894 130.192 182.829C129.586 182.764 129.015 182.528 128.55 182.153C128.085 181.777 127.748 181.278 127.581 180.719C127.414 180.16 127.426 179.567 127.614 179.014L146.887 125.038C147.65 122.874 149.253 121.071 151.368 119.999Z" fill="#3B3B3B"/>
<path d="M155.878 122.492L213.325 93.354C213.842 93.0094 214.464 92.8369 215.095 92.8634C215.726 92.8898 216.33 93.1136 216.814 93.5001C217.298 93.8867 217.635 94.4144 217.772 95.0018C217.91 95.5892 217.841 96.2035 217.576 96.7497L199.537 149.794C198.767 152.14 197.067 154.105 194.798 155.271L136.518 184.984C135.977 185.251 135.365 185.359 134.759 185.294C134.154 185.229 133.582 184.993 133.117 184.618C132.652 184.242 132.315 183.743 132.149 183.184C131.982 182.625 131.993 182.032 132.181 181.479L151.454 127.503C152.21 125.359 153.791 123.567 155.878 122.492Z" fill="#727272"/>
<path d="M187.542 149.069C201.128 136.969 207.594 122.519 201.985 116.794C196.375 111.069 180.814 116.237 167.228 128.337C153.642 140.437 147.175 154.887 152.785 160.612C158.394 166.338 173.955 161.169 187.542 149.069Z" fill="#FFB94A"/>
<path d="M99.7814 103.322L113.54 111.976V51.7288C113.543 50.516 113.885 49.326 114.532 48.2814C115.178 47.2369 116.105 46.3755 117.216 45.7862L164.237 20.8111C164.85 20.4793 165.545 20.3096 166.251 20.3195C166.956 20.3293 167.646 20.5185 168.249 20.8673C168.852 21.2162 169.346 21.7121 169.681 22.304C170.016 22.8958 170.179 23.5622 170.154 24.2342L170.355 77.5528L182.361 90.6976V4.21577C182.361 3.4836 182.161 2.76411 181.78 2.1281C181.4 1.49208 180.852 0.961451 180.191 0.588416C179.531 0.215381 178.779 0.0127937 178.012 0.000586343C177.244 -0.011621 176.486 0.166973 175.812 0.518795L102.252 39.3781C101.481 39.7849 100.844 40.3859 100.408 41.1152C99.9722 41.8446 99.7554 42.6742 99.7814 43.5133V103.322Z" fill="#636363"/>
<path d="M111.585 115.293C117.71 114.717 122.035 108.052 121.244 100.406C120.454 92.7597 114.847 87.028 108.722 87.6037C102.596 88.1794 98.2718 94.8445 99.0623 102.491C99.8529 110.137 105.459 115.868 111.585 115.293Z" fill="#636363"/>
<path d="M108.355 115.592C114.481 115.016 118.805 108.351 118.015 100.705C117.224 93.059 111.618 87.3273 105.492 87.903C99.3669 88.4787 95.0423 95.1438 95.8329 102.79C96.6234 110.436 102.23 116.168 108.355 115.592Z" fill="#727272"/>
<path style="mix-blend-mode:soft-light" d="M692.775 193.83L201.978 116.768C201.978 116.768 191.81 106.006 167.223 128.325C142.636 150.644 152.861 160.612 152.861 160.612L545.711 522.094C588.414 486.387 624.43 444.01 652.218 396.78C689.731 333.795 695.303 263.99 692.775 193.83Z" fill="url(#paint0_linear)"/>
<path d="M190.944 578.098L118.044 616.033C117.282 616.434 116.649 617.01 116.209 617.704C115.77 618.398 115.538 619.185 115.538 619.986C115.538 620.787 115.77 621.574 116.209 622.268C116.649 622.962 117.282 623.538 118.044 623.939L320.535 730.033C322.991 731.322 325.774 732 328.608 732C331.442 732 334.226 731.322 336.681 730.033L404.932 694.157C405.724 693.739 406.382 693.138 406.84 692.415C407.297 691.693 407.538 690.873 407.538 690.039C407.538 689.205 407.297 688.385 406.84 687.662C406.382 686.94 405.724 686.339 404.932 685.921L200.051 578.137C198.672 577.399 197.103 577.007 195.503 577C193.904 576.993 192.331 577.372 190.944 578.098Z" fill="#974C26"/>
<path d="M301.17 639L280.538 649.993L295.843 658C300.071 655.737 312.543 649.156 316.538 647.045L301.17 639Z" fill="white"/>
<path d="M278.644 626L257.538 637.446L277.368 648C280.828 646.158 293.608 639.248 298.538 636.594L278.644 626Z" fill="white"/>
<path d="M195.838 583L174.538 594.054L193.496 604C196.505 602.426 209.358 595.569 214.538 592.81L195.838 583Z" fill="white"/>
<path d="M240.17 606L219.538 617.583L234.843 626C238.458 623.996 250.909 617.042 255.538 614.457L240.17 606Z" fill="white"/>
<path d="M217.599 594L196.538 605.446L216.412 616C218.743 614.772 231.992 607.604 237.538 604.594L217.599 594Z" fill="white"/>
<path d="M319.969 648L299.538 659.229L314.045 667C318.399 664.63 330.665 657.927 334.538 655.81L319.969 648Z" fill="white"/>
<path d="M259.221 616L238.538 627.3L254.792 636C258.606 634.045 271.046 627.183 275.538 624.739L259.221 616Z" fill="white"/>
<path d="M338.129 658L317.538 668.925L336.884 679C340.935 676.883 353.276 670.362 357.538 668.113L338.129 658Z" fill="white"/>
<path d="M361.265 670L340.538 681.311L375.472 700L396.538 688.865L361.265 670Z" fill="white"/>
<path d="M171.586 597L150.538 608.267L177.745 623C181.313 621.02 193.823 614.188 198.538 611.594L171.586 597Z" fill="white"/>
<path d="M225.17 625L204.538 635.993L219.843 644C223.944 641.851 236.31 635.289 240.538 633.045L225.17 625Z" fill="white"/>
<path d="M263.129 645L242.538 656.446L261.884 667C265.766 664.881 278.129 658.03 282.538 655.594L263.129 645Z" fill="white"/>
<path d="M243.78 635L222.538 646.3L239.231 655C243.584 652.713 256.359 645.948 260.538 643.739L243.78 635Z" fill="white"/>
<path d="M286.17 657L265.538 668.572L280.843 677C285.578 674.377 298.029 667.41 301.538 665.468L286.17 657Z" fill="white"/>
<path d="M304.552 667L283.538 678.229L298.459 686C303.368 683.416 316.072 676.636 319.538 674.81L304.552 667Z" fill="white"/>
<path d="M202.129 613L181.538 624.456L200.884 635C203.943 633.335 216.538 626.359 221.538 623.584L202.129 613Z" fill="white"/>
<path d="M322.644 677L301.538 687.925L321.368 698C325.952 695.656 338.667 689.116 342.538 687.113L322.644 677Z" fill="white"/>
<path d="M324.538 700.118L351.274 714L372.538 703.074L345.48 689L324.538 700.118Z" fill="white"/>
<path d="M309.171 698L293.538 706.451L311.669 716L327.538 707.706L309.171 698Z" fill="white"/>
<path d="M315.538 717.651L330.804 726L346.538 717.51L330.995 709L315.538 717.651Z" fill="white"/>
<path d="M145.608 612L129.538 620.228L147.764 630L163.538 621.616L145.608 612Z" fill="white"/>
<path d="M167.387 623L151.538 631.529L171.43 642L187.538 633.608L167.387 623Z" fill="white"/>
<path d="M191.069 635L175.538 643.438L289.858 704L305.538 695.775L191.069 635Z" fill="white"/>
<path d="M292.538 748.994C292.32 747.748 291.767 746.569 290.927 745.561C290.087 744.553 288.986 743.748 287.721 743.214L272.268 735.162L248.395 722.659L219.875 707.729L189.523 691.855L160.172 676.443L134.594 663.092L115.731 653.229L105.819 648.047C105.819 648.239 105.478 648.239 105.265 648.182C104.088 647.922 102.857 647.941 101.69 648.236C100.524 648.532 99.4611 649.093 98.6045 649.868C97.7479 650.642 97.1263 651.602 96.7995 652.657C96.4728 653.711 96.452 654.824 96.739 655.887C97.89 659.933 101.705 663.497 105.265 665.963C116.806 673.452 128.851 680.284 141.33 686.422V682.396C132.932 678.234 114.814 668.91 107.226 661.782L110.849 663.709L120.825 668.987L135.852 676.924L154.609 686.827L175.86 698.135L198.155 709.906L220.238 721.561L240.785 732.426L258.413 741.808L271.99 748.974C276.126 751.171 280.623 754.137 285.44 754.985C286.349 755.043 287.262 754.931 288.121 754.657C288.98 754.382 289.768 753.95 290.434 753.387C291.1 752.825 291.631 752.145 291.993 751.389C292.355 750.633 292.54 749.817 292.538 748.994Z" fill="#CFD2A8"/>
<path d="M735.538 114L847.538 168.529V328L735.538 273.414V114Z" fill="#F2F2F2"/>
</g>
<defs>
<filter id="filter0_d" x="0.538086" y="0" width="1010" height="928" filterUnits="userSpaceOnUse" color-interpolation-filters="sRGB">
<feFlood flood-opacity="0" result="BackgroundImageFix"/>
<feColorMatrix in="SourceAlpha" type="matrix" values="0 0 0 0 0 0 0 0 0 0 0 0 0 0 0 0 0 0 127 0" result="hardAlpha"/>
<feOffset dx="5" dy="5"/>
<feGaussianBlur stdDeviation="2.5"/>
<feColorMatrix type="matrix" values="0 0 0 0 0 0 0 0 0 0 0 0 0 0 0 0 0 0 0.25 0"/>
<feBlend mode="normal" in2="BackgroundImageFix" result="effect1_dropShadow"/>
<feBlend mode="normal" in="SourceGraphic" in2="effect1_dropShadow" result="shape"/>
</filter>
<linearGradient id="paint0_linear" x1="150.707" y1="318.13" x2="752.29" y2="318.13" gradientUnits="userSpaceOnUse">
<stop stop-color="#EDCBA6"/>
<stop offset="1" stop-color="white" stop-opacity="0.27"/>
</linearGradient>
</defs>
</svg>
