<svg width="1011" height="928" viewBox="0 0 1011 928" fill="none" xmlns="http://www.w3.org/2000/svg">
<g filter="url(#filter0_d)">
<path d="M485.714 910.524L19.9829 651.513C5.15993 643.686 -7.56396 630.835 6.89618 622.374L474.311 368.777C481.334 364.68 491.985 361.998 499.111 365.9L988.009 633.006C1002.83 641.101 1005.5 663.73 990.601 671.85L547.182 910.109C537.861 915.206 527.287 917.926 516.506 917.998C505.726 918.071 495.112 915.495 485.714 910.524Z" fill="#9E5A63"/>
<path d="M40.5381 264.425V364L191.538 281.98V185L40.5381 264.425Z" fill="#CFD2A8"/>
<path d="M67.5381 277.561L74.8679 273.568L87.2309 290.222L86.6445 267.237L94.4141 263L95.5381 306.488L88.648 310.189L75.8452 292.901L76.4805 316.763L68.662 321L67.5381 277.561Z" fill="white"/>
<path d="M98.5381 261.19L122.177 249L122.429 259.127L106.855 267.141L107.056 273.668L121.169 266.325L121.421 275.732L107.308 282.979L107.51 289.746L123.286 281.635L123.538 291.714L99.6973 304L98.5381 261.19Z" fill="white"/>
<path d="M123.538 247.709L132.041 243.218L137.709 265.478L142.682 237.52L149.593 233.802L155.859 255.966L160.234 228.346L168.538 224L159.986 272.48L153.024 276.15L146.51 254.421L141.389 282.282L134.378 286L123.538 247.709Z" fill="white"/>
<path style="mix-blend-mode:multiply" d="M591.051 796.008C591.051 796.008 606.531 767.755 606.616 767.616L603.956 766.31L571.071 784.951L591.051 796.008Z" fill="url(#paint0_linear)"/>
<path d="M722.648 471L625.864 504.396C625.864 504.396 621.811 506.811 624.405 512.596C625.897 515.906 633.905 520.677 633.905 520.677L717.46 565.403C722.028 567.276 726.885 568.483 731.856 568.982C738.536 569.339 749.722 564.36 749.722 564.36L827.538 522.913L722.648 471Z" fill="#34323D"/>
<path d="M721.443 466L630.51 501.112C630.51 501.112 624.133 504.394 625.823 508.851C627.641 512.164 630.474 514.882 633.953 516.65L716.341 561.368C720.833 563.259 725.609 564.478 730.498 564.981C737.066 565.343 748.066 560.314 748.066 560.314L820.538 521.378L721.443 466Z" fill="#435950"/>
<path d="M970.479 605.339C972.228 606.035 974.17 606.186 976.018 605.769C977.866 605.352 979.521 604.39 980.737 603.024C980.737 603.024 982.538 602.694 982.538 595.328V253.595C982.44 250.638 981.677 247.733 980.297 245.07C978.917 242.408 976.952 240.047 974.531 238.142C965.568 232.275 956.224 226.934 946.553 222.148L540.238 2.86443L535.672 0.699851C534.133 -0.0144582 532.372 -0.188853 530.708 0.208389C529.044 0.605631 527.587 1.54812 526.603 2.86443C525.413 4.75857 524.729 6.89343 524.61 9.0876C524.449 12.6652 524.61 47.2083 524.61 47.2083V354.759C524.609 357.712 525.266 360.632 526.54 363.334C527.813 366.036 529.675 368.46 532.006 370.452L970.479 605.339Z" fill="#334C42"/>
<path d="M975.538 553V258.273C975.538 248.479 974.082 243.012 965.83 238.927L534.631 7.044C533.783 6.4582 532.775 6.10342 531.721 6.01939C530.667 5.93537 529.609 6.12544 528.665 6.5683C527.721 7.01116 526.928 7.6893 526.376 8.52675C525.824 9.3642 525.534 10.3279 525.538 11.3098L526.606 314.358L975.538 553Z" fill="#17619E"/>
<path d="M917.538 481V264.423C917.538 257.234 916.475 253.203 910.544 250.195L595.21 79.7616C594.596 79.3398 593.871 79.0823 593.112 79.0167C592.353 78.9511 591.589 79.0799 590.903 79.3893C590.216 79.6988 589.634 80.1771 589.217 80.7727C588.8 81.3683 588.566 82.0588 588.538 82.7696L589.312 305.362L917.538 481Z" fill="#CFD2A8"/>
<path d="M594.957 79.5951L910.539 249.596C916.474 252.596 917.538 256.617 917.538 263.787V285L588.538 110.979V82.8355C588.55 82.1445 588.76 81.469 589.145 80.878C589.53 80.2871 590.078 79.802 590.731 79.4723C591.384 79.1427 592.119 78.9803 592.862 79.0019C593.604 79.0235 594.327 79.2282 594.957 79.5951Z" fill="white"/>
<path d="M897.175 262.306C896.454 258.044 897.838 254.3 900.267 253.944C902.695 253.587 905.247 256.754 905.968 261.016C906.688 265.278 905.304 269.022 902.876 269.379C900.448 269.735 897.895 266.568 897.175 262.306Z" fill="#CFD2A8"/>
<path d="M881.281 254.366C880.561 250.104 881.945 246.36 884.373 246.004C886.802 245.647 889.354 248.814 890.075 253.076C890.795 257.338 889.411 261.082 886.982 261.439C884.554 261.795 882.002 258.629 881.281 254.366Z" fill="#CFD2A8"/>
<path d="M865.378 245.975C864.658 241.713 866.042 237.969 868.471 237.613C870.899 237.256 873.451 240.423 874.172 244.685C874.892 248.947 873.508 252.691 871.08 253.048C868.651 253.404 866.099 250.238 865.378 245.975Z" fill="#CFD2A8"/>
<path d="M289.521 409C289.771 410.743 294.988 437.285 293.145 439.028C291.302 440.771 289.521 435.022 289.521 435.022C289.521 435.022 288.741 449.547 283.649 453.37C278.558 457.192 274.966 442.606 273.935 437.102C273.406 429.599 273.406 422.069 273.935 414.565" fill="#FDBA45"/>
<path d="M389.814 292.621V278.792C389.814 278.792 383.938 265.695 385.962 264.436C387.986 263.176 393.47 272.581 393.47 272.581C393.47 272.581 402.382 255.148 404.798 255.002C407.214 254.855 415.538 264.817 415.538 269.006C415.538 273.196 408.65 282.19 406.822 284.505C404.296 289.865 402.191 295.377 400.522 301" fill="#FDBA45"/>
<path d="M340.78 286C340.78 286 364.323 326.57 368.568 325.531C372.814 324.493 386.692 291.312 386.692 291.312C393.424 294.506 399.964 298.023 406.284 301.848C408.603 303.926 395.084 363.193 363.834 360.937C332.583 358.682 323.538 332.595 323.538 332.595" fill="#EA8518"/>
<path d="M336.229 390.805C338.723 389.487 341.347 388.169 343.842 387C354.371 404.558 360.268 423.464 365.516 442.819C366.294 449.53 367.007 456.212 367.59 462.923C371.089 503.671 363.864 565.543 362.698 606.321C362.503 612.972 358.551 612.133 347.309 606.321C319.22 505.619 352.395 511.192 336.229 390.805Z" fill="#FDBA45"/>
<path d="M364.196 587.632C364.196 587.632 362.627 612.714 365.232 616.653C367.837 620.593 384.628 634.698 387.798 636.532C390.968 638.367 394.577 642.156 393.259 644.442C391.941 646.727 380.454 652.712 371.289 651.93C362.125 651.148 359.708 640.051 354.529 638.968C349.351 637.886 344.737 637.976 342.822 632.953C340.908 627.931 349.413 604.413 345.961 591.933C342.509 579.452 364.196 587.632 364.196 587.632Z" fill="#FDBA45"/>
<path d="M367.711 634.842C372.325 636.296 380.266 637.216 383.562 633.774C384.906 634.848 386.321 635.839 387.799 636.741C390.938 638.432 394.579 642.289 393.261 644.544C391.942 646.799 380.454 652.702 371.289 651.931C362.123 651.16 359.707 640.212 354.527 639.144C349.348 638.076 344.734 638.165 342.82 633.211C342.003 631.104 343.102 625.586 344.326 619C350.528 626.116 358.589 631.577 367.711 634.842Z" fill="#475BA2"/>
<path d="M302.322 406.884C312.023 401.702 323.535 397 323.535 397C328.515 408.741 327.092 423.956 328.709 436.326C330.584 450.523 332.363 464.719 333.592 478.976C337.084 519.71 329.873 581.559 328.709 622.322C328.515 628.971 324.57 628.133 313.349 622.322C285.216 521.657 318.329 527.228 302.322 406.884Z" fill="#FDBA45"/>
<path d="M341.981 601.358C329.506 602.646 313.563 607.016 301.476 603.903C299.791 574.836 293.019 427.075 293.57 418.124C294.801 397.498 310.549 372.892 310.549 372.892L354.359 369C354.359 369 369.816 396.121 371.695 413.125C372.441 419.98 379.634 563.67 379.537 588.905C368.19 595.61 355.353 599.866 341.981 601.358Z" fill="#CFD2A8"/>
<path d="M328.47 603.711C328.47 603.711 326.808 629.541 329.567 633.598C332.325 637.656 350.104 652.181 353.46 654.071C356.817 655.96 360.638 659.862 359.243 662.216C357.847 664.57 345.684 670.733 335.98 669.928C326.277 669.123 323.718 657.694 318.235 656.579C312.751 655.464 307.866 655.557 305.839 650.385C303.812 645.213 312.818 620.993 309.162 608.14C305.507 595.287 328.47 603.711 328.47 603.711Z" fill="#FDBA45"/>
<path d="M332.191 651.803C337.077 653.344 345.485 654.32 348.975 650.67C350.398 651.808 351.897 652.859 353.462 653.816C356.785 655.61 360.64 659.7 359.244 662.092C357.849 664.483 345.685 670.745 335.98 669.927C326.276 669.109 323.716 657.498 318.233 656.365C312.749 655.232 307.863 655.327 305.836 650.072C304.972 647.838 306.135 641.985 307.431 635C313.998 642.547 322.533 648.339 332.191 651.803Z" fill="#475BA2"/>
<path d="M272.23 347.849V347.224C274.774 334.819 278.779 322.702 284.173 311.084C286.679 305.135 292.894 300.227 297.873 295.944C304.526 290.167 311.628 284.838 319.123 280C319.123 280 334.158 283.302 342.391 286.187C348.119 288.21 350.462 295.111 352.577 299.691C356.124 307.663 362.698 315.843 362.535 324.945C362.241 331.522 361.447 338.072 360.16 344.547C358.435 354.453 356.287 364.298 353.879 374.085C353.879 374.085 323.159 376.315 309.784 374.56L306.952 348.801C306.952 348.801 297.938 389.314 294.359 411.088L293.48 417.691L271.286 419C269.653 407.393 269.163 395.676 269.822 383.99C269.739 371.907 270.543 359.833 272.23 347.849Z" fill="#FF9A22"/>
<path d="M348.196 245.419C348.196 245.419 351.487 276.666 337.645 281.176C323.803 285.685 314.833 270.223 314.833 270.223C314.833 270.223 310.057 249.285 314.284 244.482C318.511 239.679 339.936 237.073 348.196 245.419Z" fill="#FDBA45"/>
<path d="M337.551 248.013C340.463 250.268 343.911 251.829 347.601 252.564C352.251 252.975 354.81 246.692 355.466 243.345C356.121 239.997 352.657 228.664 331.371 228.018C310.085 227.372 297.538 244.343 297.538 254.443C297.538 264.544 298.818 290 298.818 290C308.138 289.622 317.419 288.641 326.596 287.064C326.596 287.064 319.479 264.044 320.978 256.91C322.476 249.775 337.551 248.013 337.551 248.013Z" fill="#475BA2"/>
<path opacity="0.57" d="M612.538 268.312V164L687.538 204.927V309L612.538 268.312Z" fill="white"/>
<path opacity="0.57" d="M816.538 373.334V269L891.538 309.906V414L816.538 373.334Z" fill="white"/>
<path d="M902 355.222C899.439 356.37 896.944 357.549 894.416 358.729C896.393 357.517 898.37 356.242 900.25 354.871C902.129 353.501 904.917 350.44 904.495 347.921C903.88 344.128 897.203 347.507 892.212 350.567C895.68 347.603 898.532 344.191 895.453 342.884C892.374 341.577 889.262 345.307 887.415 346.582C884.174 348.878 880.933 351.333 877.919 353.947C880.082 351.129 882.011 348.143 883.688 345.02C885.47 342.087 881.03 339.664 878.858 341.832C872.715 348.404 866.097 354.531 859.056 360.163C858.727 360.404 858.452 360.708 858.245 361.056H853.935C852.638 361.056 851.439 361.056 850.24 361.056H849.203C848.768 360.966 848.316 360.986 847.891 361.114C847.466 361.242 847.081 361.475 846.772 361.789C846.207 361.976 845.664 362.222 845.151 362.523C844.986 362.633 844.834 362.762 844.698 362.905C843.272 362.905 841.845 363.16 840.452 363.352C839.984 363.45 839.545 363.649 839.165 363.935C838.785 364.22 838.474 364.584 838.254 365.002C838.034 365.419 837.911 365.879 837.893 366.349C837.875 366.819 837.963 367.287 838.151 367.719L837.567 367.4C834.326 365.456 831.831 370.588 835.007 372.597C841.754 376.67 849.518 378.822 857.435 378.813C857.476 379.163 857.655 379.484 857.934 379.704C858.213 379.925 858.57 380.029 858.926 379.993C867.328 379.776 875.655 378.381 883.655 375.849C884.653 375.575 885.62 375.201 886.54 374.733C891.317 372.8 895.706 370.047 899.504 366.603C899.767 366.356 899.938 366.028 899.989 365.674C900.039 365.319 899.967 364.958 899.784 364.648C899.6 364.339 899.316 364.099 898.977 363.968C898.638 363.837 898.265 363.822 897.916 363.925L896.522 364.34C897.43 363.83 898.337 363.352 899.212 362.81C901.416 361.439 904.042 359.781 904.398 357.039C904.475 356.733 904.46 356.411 904.354 356.112C904.249 355.814 904.057 355.553 903.802 355.36C903.548 355.167 903.242 355.052 902.922 355.027C902.602 355.003 902.281 355.07 902 355.222Z" fill="#FCBF81"/>
<path d="M794.059 321.499C792.876 321.175 803.36 308.246 804.215 307.039C809.262 299.856 813.87 292.433 818.019 284.802C818.157 284.565 818.361 284.362 818.61 284.213C819.38 282.754 820.247 281.338 821.207 279.972C821.432 279.607 821.787 279.319 822.216 279.153C822.644 278.988 823.122 278.955 823.573 279.06C824.025 279.164 824.425 279.4 824.71 279.731C824.996 280.061 825.151 280.467 825.151 280.885C825.438 285.218 824.295 289.531 821.864 293.285C822.883 294.315 824.033 295.405 825.151 296.554C825.002 296.646 824.89 296.779 824.831 296.933C824.772 297.086 824.769 297.253 824.822 297.408C825.057 298.037 825.413 298.625 825.874 299.145C826.129 299.523 826.451 299.861 826.827 300.147C826.986 300.265 827.18 300.336 827.386 300.353C827.599 301.225 827.588 302.128 827.355 302.995C827.121 303.863 826.671 304.671 826.038 305.36C826.916 307.06 827.057 308.991 826.432 310.779V311.015H826.104C823.35 312.441 820.724 314.056 818.249 315.845C818.147 315.943 818.072 316.062 818.031 316.192C817.99 316.321 817.983 316.457 818.012 316.589C818.041 316.722 818.104 316.846 818.197 316.952C818.289 317.058 818.408 317.143 818.544 317.199C816.538 318.066 814.474 318.824 812.366 319.467C812.137 319.556 811.891 319.602 811.642 319.602C811.394 319.602 811.148 319.556 810.919 319.467C810.657 319.703 810.394 319.938 810.098 320.174C809.837 320.407 809.513 320.575 809.158 320.663C808.804 320.751 808.43 320.755 808.072 320.675C807.715 320.595 807.387 320.433 807.12 320.206C806.853 319.979 806.656 319.694 806.548 319.379C806.509 319.154 806.509 318.926 806.548 318.701L805.792 319.467C805.885 319.777 805.901 320.101 805.837 320.417C805.774 320.733 805.634 321.032 805.427 321.294C805.22 321.556 804.951 321.773 804.639 321.931C804.327 322.089 803.98 322.183 803.623 322.206C803.008 322.277 802.385 322.138 801.88 321.816C801.374 321.494 801.022 321.013 800.895 320.469C800.842 320.186 800.842 319.897 800.895 319.614L799.285 321.823C799.221 321.905 799.134 321.969 799.032 322.008C798.929 322.048 798.817 322.06 798.707 322.045C798.598 322.029 798.495 321.987 798.411 321.922C798.327 321.856 798.265 321.771 798.233 321.676C798.214 321.609 798.214 321.538 798.233 321.47C797.379 322.733 796.631 324.053 795.998 325.416C785.152 339.76 793.763 322 794.059 321.499ZM803.393 321.087C803.728 321.081 804.049 320.962 804.292 320.755C804.535 320.548 804.683 320.268 804.708 319.968C804.398 320.036 804.076 320.043 803.764 319.987C803.451 319.931 803.156 319.814 802.9 319.644C802.848 319.7 802.782 319.745 802.708 319.775C802.635 319.806 802.554 319.822 802.473 319.822C802.391 319.822 802.311 319.806 802.237 319.775C802.163 319.745 802.098 319.7 802.045 319.644C802.007 319.819 802.011 319.999 802.06 320.171C802.108 320.344 802.198 320.505 802.323 320.643C802.449 320.781 802.607 320.892 802.786 320.969C802.965 321.046 803.161 321.086 803.36 321.087H803.393Z" fill="#FCBF81"/>
<path d="M796.668 321.382C798.8 319.782 800.591 317.814 801.945 315.582C802.208 315.121 802.565 314.715 802.997 314.388C803.429 314.061 803.927 313.82 804.46 313.68C804.992 313.539 805.55 313.501 806.099 313.569C806.647 313.636 807.176 313.808 807.653 314.073C807.799 313.045 807.871 312.008 807.867 310.97C807.867 305.72 816.613 305.633 816.52 310.97C816.698 315.071 815.53 319.123 813.176 322.572C810.559 325.711 807.369 328.383 803.756 330.461C803.118 330.799 802.402 330.984 801.671 330.999C800.94 331.014 800.216 330.858 799.564 330.545C798.912 330.233 798.351 329.773 797.931 329.207C797.512 328.641 797.246 327.985 797.159 327.299L796.76 327.009C795.992 326.257 795.556 325.258 795.539 324.213C795.522 323.168 795.925 322.156 796.668 321.382Z" fill="#FCBF81"/>
<path d="M810.807 323.923C813.848 322.195 816.198 319.635 817.514 316.618C818.831 313.6 819.045 310.281 818.126 307.145C818.091 307.079 818.072 307.006 818.072 306.932C818.072 306.858 818.091 306.785 818.126 306.719L821.331 301.604C821.803 300.842 822.343 300.081 822.747 299.289C823.422 297.919 824.265 292.621 820.015 294.844C818.476 296.277 817.18 297.909 816.17 299.685C814.956 301.269 813.809 302.913 812.797 304.527C812.392 305.105 811.347 304.527 811.752 304.009C813.843 300.984 816.091 298.031 818.497 295.148C819.577 293.809 820.724 292.408 822.747 293.26C823.525 293.548 824.17 294.068 824.575 294.732C824.981 295.397 825.121 296.167 824.973 296.914C825.716 298.193 827.267 299.168 827.537 300.66C827.565 302.179 827.07 303.668 826.12 304.923L825.581 305.745C825.674 305.806 825.744 305.891 825.783 305.988C826.458 307.633 827.706 309.459 826.323 311.043C825.71 311.667 824.993 312.202 824.198 312.626L820.386 314.94C820.325 314.979 820.256 315.006 820.183 315.019C820.11 315.033 820.034 315.032 819.961 315.018C819.889 315.003 819.82 314.976 819.759 314.936C819.699 314.897 819.648 314.846 819.611 314.788C818.411 318.962 815.538 322.586 811.549 324.958C810.773 325.202 810.166 324.319 810.807 323.923ZM825.513 302.974C825.869 302.42 826.037 301.784 825.995 301.145C825.953 300.506 825.703 299.893 825.277 299.381C824.973 299.015 824.67 298.68 824.4 298.346C823.069 301.438 821.324 304.373 819.206 307.084V307.45C819.299 307.388 819.411 307.355 819.526 307.355C819.642 307.355 819.754 307.388 819.847 307.45C822.646 308.698 824.839 304.618 825.513 302.974ZM824.164 311.104C824.631 310.884 825.007 310.534 825.238 310.107C825.469 309.679 825.542 309.196 825.446 308.729C825.241 307.996 824.958 307.282 824.602 306.597C823.354 308.089 821.601 309.307 819.577 308.394C819.954 310.215 819.954 312.084 819.577 313.905C821.162 313.022 822.747 312.078 824.231 311.104H824.164Z" fill="#34323D"/>
<path d="M745.538 342.783C745.538 342.783 772.625 344.096 779.536 337.987C786.448 331.878 796.749 313 796.749 313C796.749 313 815.411 324.119 816.497 330.534C817.583 336.949 796.98 367.923 787.929 370" fill="#4D47C4"/>
<path d="M706.033 647.496C706.033 647.496 729.271 638.43 734.682 638.049C740.093 637.668 749.521 639.369 741.321 648.376C741.321 648.376 717.021 662.428 713.834 662.868C710.647 663.309 702.846 661.167 702.647 661.9C702.448 662.634 701.718 668.061 701.718 668.061C701.718 668.061 681.401 674.897 680.538 662.898C680.538 661.343 683.459 639.046 683.459 639.046" fill="#34323D"/>
<path d="M680.605 593.375C684.541 569.619 691.731 546.588 694.756 522.53C696.643 507.418 698.01 492.306 699.994 477.194C701.978 462.082 708.062 447.454 711.966 432.493C712.068 432.145 712.044 431.776 711.897 431.442C711.75 431.109 711.488 430.83 711.152 430.649C711.347 430.135 711.51 429.591 711.673 429.078C713.69 427.294 715.739 425.602 717.724 424L745.538 441.409C745.538 441.409 745.375 457.246 744.497 480.156C741.244 493.515 738.804 505.453 735.161 518.117C735.557 518.518 735.842 519.003 735.989 519.53C736.137 520.057 736.143 520.61 736.006 521.14C726.957 561.057 720.364 601.421 716.26 642.035C716.203 642.707 715.94 643.348 715.502 643.884C715.063 644.42 714.468 644.828 713.787 645.058L713.007 651.314C688.803 659.988 683.5 644.876 683.5 644.876C683.5 644.876 682.394 632.001 681.028 614.109C680.573 607.097 680.443 600.236 680.605 593.375Z" fill="#CFD2A8"/>
<path d="M755.734 683L768.821 687.51C769.208 688.62 769.899 689.616 770.824 690.402C771.75 691.187 772.879 691.735 774.1 691.99C774.565 692.506 775.218 692.842 775.934 692.933C781.234 693.281 786.547 692.473 791.455 690.575C797.777 688.748 822.149 680.023 815.353 696.47C810.896 699.417 805.87 701.923 801.349 704.517C798.789 705.961 796.196 707.464 793.573 708.761C792.181 709.647 790.644 710.314 789.021 710.736C785.512 711.237 776.977 708.761 776.756 709.616C776.534 710.471 775.744 716.749 775.744 716.749C775.744 716.749 753.616 724.648 752.542 710.854C752.415 708.731 755.734 683 755.734 683Z" fill="#34323D"/>
<path d="M736.777 554.922C733.988 513.084 732.431 471.006 722.927 429.86C722.505 419.175 715.045 426.007 715.564 421.763C719.618 387.36 773.657 428.295 773.657 428.295C775.83 429.95 776.122 440.515 776.544 442.893C778.988 456.116 781.074 469.38 782.804 482.684C791.757 549.896 788.448 616.746 784.783 684.169C773.3 695.064 765.775 698.315 747.287 691.272C743.589 647.146 740.086 603.021 737.037 558.835L736.777 554.922Z" fill="#CFD2A8"/>
<path d="M764.241 346.077C763.725 343.903 757.786 342.424 755.914 341.518C751.751 339.404 754.171 335.721 750.104 333.427C744.179 330.2 738.009 327.384 731.642 325.003H731.481C721.282 325.003 704.176 324.46 703.143 337.08C701.561 356.704 703.401 376.328 705.015 395.831C705.66 403.681 706.403 411.47 707.145 419.138C707.403 421.946 707.79 444.589 709.598 445.284C729.835 453.133 755.721 450.356 775.538 443.019C774.457 410.481 770.68 378.069 764.241 346.077Z" fill="#695DD8"/>
<path d="M748.482 366.834C749.076 373.447 751.743 379.723 756.123 384.814C760.503 389.904 766.384 393.565 772.972 395.299C772.972 396.614 773.381 404.685 773.538 406C757.819 402.331 746.187 383.1 744.553 366.834C744.27 364.389 748.231 364.389 748.482 366.834Z" fill="#34323D"/>
<path d="M736.304 286.054C737.628 286.382 748.962 310.395 744.506 324.964C740.05 339.533 713.218 324.547 706.469 313.434C699.721 302.321 710.893 279.887 736.304 286.054Z" fill="#FCBF81"/>
<path d="M735.865 289.696C735.849 291.987 735.144 294.225 733.834 296.138C732.524 298.051 730.666 299.558 728.485 300.475C721.073 303.109 714.933 304.885 715.315 308.192C715.696 311.499 728.708 307.733 728.739 315.266C728.738 320.347 728.021 325.405 726.608 330.301C725.781 334.007 703.576 322.677 696.259 303.323C688.942 283.97 707.266 278.825 708.157 278.825C709.048 278.825 710.702 273.436 719.705 271.568C728.708 269.7 731.221 273.038 731.221 273.038C733.266 271.852 735.658 271.345 738.031 271.594C740.405 271.843 742.627 272.834 744.359 274.416C752.662 280.755 750.531 292.33 741.178 297.015L735.865 289.696Z" fill="#34323D"/>
<path d="M746.607 333C746.607 333 792.89 357.146 809.561 357.175C821.599 357.175 845.415 353.629 857.839 351.637C869.297 360.428 870.069 375.959 862.956 387.826C842.744 390.757 782.88 398.668 764.116 390.2C741.393 379.944 716.386 366.201 716.386 366.201C716.386 366.201 693.663 345.981 746.607 333Z" fill="#695DD8"/>
<path d="M739.893 365.409C734.615 361.208 730.643 355.66 728.422 349.386C726.254 342.175 728.971 335.846 731.523 329.143C734.265 322.544 735.878 315.553 736.298 308.447C736.518 301.423 735.694 294.427 735.2 287.43C735.13 287.131 735.13 286.821 735.2 286.522C732.785 278.51 727.818 271.941 718.049 271.113C692.746 269.03 691.319 296.296 691.511 307.379C691.703 318.461 692.911 326.072 684.541 330.612C676.171 335.152 670.079 347.41 678.092 357.317C686.105 367.225 678.915 363.566 673.564 372.299C668.212 381.032 669.612 391.927 680.562 395.88C691.511 399.832 742.445 392.408 747.138 387.868C748.798 386.02 749.654 383.616 749.525 381.165C748.389 374.949 744.964 369.348 739.893 365.409Z" fill="#34323D"/>
</g>
<defs>
<filter id="filter0_d" x="0.538086" y="0" width="1010" height="928" filterUnits="userSpaceOnUse" color-interpolation-filters="sRGB">
<feFlood flood-opacity="0" result="BackgroundImageFix"/>
<feColorMatrix in="SourceAlpha" type="matrix" values="0 0 0 0 0 0 0 0 0 0 0 0 0 0 0 0 0 0 127 0" result="hardAlpha"/>
<feOffset dx="5" dy="5"/>
<feGaussianBlur stdDeviation="2.5"/>
<feColorMatrix type="matrix" values="0 0 0 0 0 0 0 0 0 0 0 0 0 0 0 0 0 0 0.25 0"/>
<feBlend mode="normal" in2="BackgroundImageFix" result="effect1_dropShadow"/>
<feBlend mode="normal" in="SourceGraphic" in2="effect1_dropShadow" result="shape"/>
</filter>
<linearGradient id="paint0_linear" x1="11847.2" y1="5842.27" x2="11672.3" y2="6150.8" gradientUnits="userSpaceOnUse">
<stop offset="0.01" stop-color="#4D4D4D"/>
<stop offset="1" stop-color="white"/>
</linearGradient>
</defs>
</svg>
