<svg width="1011" height="928" viewBox="0 0 1011 928" fill="none" xmlns="http://www.w3.org/2000/svg">
<g filter="url(#filter0_d)">
<path d="M485.714 910.524L19.9829 651.513C5.15993 643.686 -7.56396 630.835 6.89618 622.374L474.311 368.777C481.334 364.68 491.985 361.998 499.111 365.9L988.009 633.006C1002.83 641.101 1005.5 663.73 990.601 671.85L547.182 910.109C537.861 915.206 527.287 917.926 516.506 917.998C505.726 918.071 495.112 915.495 485.714 910.524Z" fill="#9E5A63"/>
<path d="M173.495 233.415C167.779 231.773 161.745 231.556 155.925 232.785C152.553 233.141 149.289 234.177 146.331 235.83C136.773 241.781 139.303 249.831 138.319 258.967C138.271 260.461 137.834 261.917 137.052 263.193C136.27 264.469 135.169 265.521 133.856 266.247C132.029 267.087 129.815 267.087 128.269 268.382C127.496 269.222 126.959 270.249 126.712 271.362C126.465 272.474 126.517 273.632 126.863 274.717C127.39 276.923 128.515 278.918 128.972 281.123C129.227 281.986 129.139 282.913 128.726 283.713C128.058 284.728 126.723 284.973 125.598 285.463C124.313 286.203 123.232 287.249 122.453 288.507C121.674 289.766 121.222 291.198 121.135 292.674C120.749 295.614 121.135 298.554 120.96 301.459C120.68 303.301 120.539 305.161 120.538 307.024C121.02 309.783 122.452 312.288 124.588 314.109C126.723 315.93 129.429 316.952 132.24 317C137.886 317.004 143.461 315.736 148.545 313.29C153.578 310.825 159.139 309.624 164.745 309.79C170.578 310.455 176.763 314.06 181.894 310.875C183.331 309.837 184.492 308.466 185.276 306.88C186.06 305.294 186.443 303.541 186.392 301.774C186.254 298.291 185.517 294.858 184.213 291.623C183.718 290.611 183.618 289.451 183.932 288.368C184.427 287.554 185.1 286.86 185.9 286.338C193.279 280.073 190.398 257.531 187.2 249.901C184.354 243.216 180.91 236.04 173.495 233.415Z" fill="#FBB03B"/>
<path d="M223.925 592.88C223.07 595.273 223.925 616.816 223.925 616.816L201.068 614.779L202.26 575.869L223.925 592.88Z" fill="#FBC76F"/>
<path d="M200.991 609.737C200.991 609.737 213.533 616.231 225.532 611.239C225.532 611.239 226.335 628.377 227.657 632.07C228.978 635.762 233.047 657.712 230.533 663.264C228.019 668.815 220.608 676.429 215.762 676.429C210.916 676.429 199.617 664.155 199.255 657.636C199.222 648.664 199.671 639.696 200.602 630.771C201.172 627.333 200.991 609.737 200.991 609.737Z" fill="#181816"/>
<path d="M286.249 552.009C285.601 554.555 288.141 575.869 288.141 575.869L265.18 575.665L263.159 536.781L286.249 552.009Z" fill="#FBC76F"/>
<path d="M306.747 580.809C298.661 577.473 291.198 573.705 286.015 566.396C285.13 568.52 283.717 570.392 281.907 571.842C280.096 573.292 277.945 574.274 275.649 574.698C273.225 575.147 270.728 575.06 268.342 574.443H267.435V574.188C266.483 573.816 265.606 573.282 264.843 572.61C263.392 579.561 265.025 591.046 266.994 592.727C269.456 594.84 282.983 597.539 282.983 597.539L280.781 592.141L293.919 600.086C299.439 603.422 315.946 606.656 325.016 602.505C326.978 601.828 328.613 600.457 329.603 598.66C328.152 585.902 316.361 584.756 306.747 580.809Z" fill="#181816"/>
<path d="M164.58 615.263C181.468 615.263 195.159 607.282 195.159 597.438C195.159 587.593 181.468 579.613 164.58 579.613C147.692 579.613 134.001 587.593 134.001 597.438C134.001 607.282 147.692 615.263 164.58 615.263Z" fill="#E0831E"/>
<path d="M134.001 593.694V597.692H195.159V594.433" fill="#E0831E"/>
<path d="M164.58 612.003C181.468 612.003 195.159 604.023 195.159 594.178C195.159 584.334 181.468 576.353 164.58 576.353C147.692 576.353 134.001 584.334 134.001 594.178C134.001 604.023 147.692 612.003 164.58 612.003Z" fill="#FFAE45"/>
<path d="M164.607 482.72H164.581C162.262 482.72 160.383 484.567 160.383 486.845V588.831C160.383 591.109 162.262 592.956 164.581 592.956H164.607C166.925 592.956 168.805 591.109 168.805 588.831V486.845C168.805 484.567 166.925 482.72 164.607 482.72Z" fill="#946C62"/>
<path d="M164.58 486.03C196.052 486.03 221.566 471.152 221.566 452.799C221.566 434.446 196.052 419.567 164.58 419.567C133.108 419.567 107.595 434.446 107.595 452.799C107.595 471.152 133.108 486.03 164.58 486.03Z" fill="#E0831E"/>
<path d="M107.595 445.822V453.283H221.566V447.197" fill="#E0831E"/>
<path d="M164.58 479.944C196.052 479.944 221.566 465.066 221.566 446.713C221.566 428.36 196.052 413.481 164.58 413.481C133.108 413.481 107.595 428.36 107.595 446.713C107.595 465.066 133.108 479.944 164.58 479.944Z" fill="#FFAE45"/>
<path d="M169.815 443.479C169.815 443.479 209.464 471.872 251.679 481.115L260.256 551.805C260.256 551.805 266.242 556.185 288.399 551.805C288.399 551.805 301.123 472.661 283.501 434.668C272.073 410.095 185.027 406.046 185.027 406.046" fill="#204A51"/>
<path d="M129.725 456.797C129.725 456.797 155.095 440.983 167.43 434.846L202.492 414.653L185.389 403.754L128.61 413.074C130.632 419.262 114.228 435.585 129.725 456.797Z" fill="#204A51"/>
<path d="M232.477 305.282C232.477 305.282 236.856 292.041 236.493 286.311C236.13 280.582 232.891 272.255 236.493 270.498C240.095 268.741 244.501 280.862 244.501 280.862C244.501 280.862 255.437 258.377 258.728 259.803C259.752 260.415 260.604 261.269 261.206 262.287C261.808 263.306 262.141 264.457 262.174 265.634C262.174 265.634 265.673 259.981 267.02 262.324C267.731 264.614 267.731 267.061 267.02 269.352C267.02 269.352 270.26 269.912 270.648 271.898C271.037 273.885 265.958 282.364 265.958 282.364C266.704 282.466 267.392 282.813 267.91 283.35C268.428 283.887 268.745 284.581 268.808 285.318C268.99 287.865 248.206 308.236 248.206 308.236" fill="#FBC76F"/>
<path d="M177.849 301.768C177.849 301.768 196.118 316.614 203.193 327.971C210.267 339.329 233.409 298.025 233.409 298.025C233.409 298.025 249.502 303.118 254.633 305.359C259.764 307.6 228.718 377.551 207.132 375.157C185.545 372.764 186.4 368.613 186.4 368.613" fill="#CFD2A8"/>
<path d="M128.613 413.074C148.256 416.334 168.21 414.093 185.417 403.754C188.009 373.782 190.134 343.836 186.843 313.737C186.813 313.5 186.813 313.26 186.843 313.024C184.927 308.547 181.821 304.66 177.85 301.768C167.848 295.148 151.547 298.382 141.881 303.398C139.544 304.633 137.354 306.119 135.351 307.829C124.674 342.104 128.976 377.729 128.613 413.074Z" fill="#CFD2A8"/>
<path d="M166.551 287.635L148.826 283.994L147.349 303.245C147.349 303.245 160.72 316.691 173.911 314.832L170.075 298.789C168.475 295.214 167.292 291.472 166.551 287.635Z" fill="#FCBB5B"/>
<path d="M166.965 289.443C161.168 286.904 155.076 285.074 148.825 283.994L148.358 294.511C148.358 294.511 161.626 304.086 169.504 297.287C168.445 294.743 167.596 292.12 166.965 289.443Z" fill="#DB9231"/>
<path d="M179.509 258.733C179.509 258.733 182.307 292.346 167.744 294.562C153.18 296.777 147.012 277.271 147.012 277.271C147.012 277.271 138.201 269.199 143.721 267.417C149.241 265.634 150.07 268.639 150.07 268.639C150.07 268.639 144.654 256.518 150.329 256.518C156.005 256.518 172.356 265.634 179.509 258.733Z" fill="#FBC76F"/>
<path d="M261.163 264.233C257.448 270.549 253.864 276.957 250.408 283.459C249.968 284.3 251.264 285.038 251.704 284.198C255.159 277.679 258.77 271.262 262.536 264.946C262.632 264.768 262.652 264.558 262.592 264.365C262.531 264.171 262.394 264.01 262.212 263.915C262.03 263.821 261.817 263.801 261.621 263.861C261.424 263.92 261.259 264.055 261.163 264.233Z" fill="#204A51"/>
<path d="M265.957 268.639L256.058 286.464C255.591 287.279 256.887 288.017 257.353 287.203L267.253 269.377C267.719 268.563 266.423 267.824 265.957 268.639Z" fill="#204A51"/>
<path d="M265.258 282.186C263.291 284.422 261.555 286.844 260.075 289.418C259.995 289.585 259.981 289.777 260.037 289.953C260.093 290.13 260.214 290.28 260.377 290.373C260.54 290.466 260.733 290.495 260.917 290.455C261.101 290.415 261.263 290.308 261.371 290.156C262.773 287.684 264.423 285.356 266.295 283.205C266.943 282.492 265.958 281.448 265.258 282.186Z" fill="#204A51"/>
<path d="M245.952 282.874C245.096 282.441 244.345 283.688 245.2 284.147C247.489 285.565 249.338 287.573 250.544 289.953C251.751 292.333 252.269 294.993 252.041 297.643C252.074 297.812 252.165 297.965 252.3 298.075C252.435 298.185 252.605 298.245 252.78 298.245C252.955 298.245 253.125 298.185 253.26 298.075C253.395 297.965 253.486 297.812 253.519 297.643C253.758 294.736 253.179 291.82 251.844 289.215C250.51 286.61 248.471 284.416 245.952 282.874Z" fill="#204A51"/>
<path d="M135.349 307.829C127.981 312.47 122.006 318.957 118.038 326.622C111.974 338.921 95.0519 394.612 114.928 402.583C134.804 410.553 169.348 392.397 169.348 392.397L167.275 362.73L137.499 366.932" fill="#CFD2A8"/>
<path d="M173.703 339.379C173.444 340.322 164.581 394.714 164.581 394.714L199.643 385.496L207.08 329.907L173.703 339.379Z" fill="#FF7F5C"/>
<path d="M159.864 366.066C159.864 366.066 166.058 350.482 169.245 351.45C172.433 352.417 171.474 360.362 171.474 360.362C171.474 360.362 187.333 352.723 191.531 356.237C195.73 359.751 185.182 368.664 182.358 370.548C179.533 372.433 161.212 379.13 161.212 379.13L159.864 366.066Z" fill="#FBC76F"/>
<path d="M128.61 404.594C138.92 402.311 149.102 399.498 159.111 396.165C159.111 396.165 161.858 380.581 161.988 381.065C162.117 381.549 161.625 401.08 160.355 402.43C159.085 403.779 128.61 413.074 128.61 413.074V404.594Z" fill="#363942"/>
<path d="M129.726 456.797C129.726 456.797 160.382 486.845 188.551 499.577L185.959 589.518C185.959 589.518 203.426 603.498 225.556 599.118C225.556 599.118 236.751 499.501 229.469 473.451C222.188 447.4 174.013 425.501 174.013 425.501" fill="#204A51"/>
<path d="M161.235 263.416C160.788 263.332 160.33 263.332 159.884 263.416C159.377 263.631 158.95 263.995 158.659 264.457C157.592 265.953 156.132 267.135 154.436 267.875C153.622 268.264 152.702 268.386 151.813 268.221C150.923 268.056 150.111 267.613 149.496 266.958C148.337 268.219 147.08 269.389 145.738 270.458C145.446 270.759 145.058 270.951 144.64 271C143.457 271 143.373 269.25 143.711 268.125L148.44 252.873C148.912 250.837 149.835 248.93 151.143 247.288C153.963 245.041 157.531 243.911 161.151 244.121C166.471 243.788 184.545 243.58 185.474 251.539C186.783 261.457 167.78 264.374 161.235 263.416Z" fill="#FBB03B"/>
<path d="M296.189 356.463L410.281 300.23C412.477 299.152 414.31 297.562 415.587 295.629C416.864 293.695 417.538 291.489 417.538 289.241V101.528C417.538 99.3288 416.894 97.1685 415.669 95.264C414.444 93.3595 412.683 91.778 410.561 90.6785C408.44 89.5789 406.034 89 403.584 89C401.135 89 398.728 89.5788 396.607 90.6783L282.515 149.819C280.394 150.919 278.632 152.5 277.407 154.405C276.183 156.309 275.538 158.47 275.538 160.669V345.502C275.544 347.674 276.178 349.807 277.38 351.693C278.581 353.578 280.307 355.151 282.39 356.256C284.473 357.362 286.84 357.962 289.259 357.998C291.678 358.035 294.066 357.506 296.189 356.463Z" fill="#CFD2A8"/>
<path d="M339.539 176.39C346.258 170.095 353.47 166.764 360.25 166.764C361.524 166.765 362.794 166.888 364.04 167.131C369.254 168.299 373.817 171.183 376.861 175.232C379.843 171.424 383.075 167.785 386.538 164.336C381.515 158.943 374.709 155.197 367.153 153.665C354.117 151.152 340.495 155.81 328.784 166.792C325.32 170.087 322.223 173.69 319.538 177.547C323.822 179.919 327.982 182.459 332.174 185C334.313 181.914 336.78 179.03 339.539 176.39Z" fill="#56403D"/>
<path d="M339.538 272.206C332.122 270.255 325.979 264.291 322.127 255.204C317.469 242.983 316.786 229.867 320.154 217.325C322.04 209.258 325.382 201.505 330.053 194.358C325.724 191.85 321.427 189.369 317.003 187C311.317 195.529 307.253 204.811 304.971 214.482C301 229.544 301.904 245.278 307.581 259.915C313.12 272.931 322.573 281.739 334.477 285C336.037 280.708 337.66 276.387 339.538 272.206Z" fill="#FFA197"/>
<path d="M395.863 187.017C393.997 182.354 391.38 177.968 388.094 174C384.59 177.505 381.332 181.205 378.338 185.078C379.738 187.208 380.915 189.452 381.855 191.78C386.28 203.917 386.894 216.929 383.629 229.363C381.013 241.94 374.585 253.61 365.064 263.068C357.724 269.881 349.772 273.149 342.493 272.402C340.627 276.639 339.037 280.987 337.538 285.335C339.821 285.774 342.147 285.997 344.481 286C355.216 286 366.074 281.319 375.616 272.457C387.107 261.161 394.892 247.187 398.096 232.105C401.989 217.179 401.216 201.567 395.863 187.017Z" fill="#F2F2F2"/>
<path d="M355.719 236.599C350.545 236.08 347.199 228.797 348.244 220.332C349.29 211.867 354.331 205.426 359.505 205.945C364.679 206.463 368.026 213.746 366.981 222.211C365.935 230.676 360.893 237.118 355.719 236.599Z" fill="#F2F2F2"/>
<path d="M397.24 290.151L325.872 321.942C325.589 322.068 325.336 322.242 325.128 322.455C324.921 322.667 324.762 322.914 324.662 323.181C324.562 323.448 324.522 323.729 324.544 324.01C324.567 324.29 324.651 324.564 324.793 324.816C324.935 325.068 325.131 325.292 325.37 325.476C325.61 325.66 325.888 325.801 326.189 325.89C326.489 325.979 326.807 326.015 327.123 325.995C327.439 325.975 327.748 325.9 328.031 325.774L399.399 293.955C399.91 293.673 400.285 293.232 400.448 292.717C400.611 292.203 400.551 291.653 400.281 291.176C400.01 290.699 399.547 290.329 398.985 290.139C398.422 289.95 397.8 289.954 397.24 290.151Z" fill="#F2F2F2"/>
<path d="M397.054 280.225L325.869 311.954C325.298 312.207 324.864 312.651 324.662 313.189C324.46 313.726 324.507 314.313 324.792 314.819C325.078 315.326 325.579 315.711 326.184 315.89C326.79 316.07 327.451 316.028 328.022 315.775L399.207 284.046C399.778 283.793 400.213 283.349 400.415 282.811C400.616 282.274 400.569 281.687 400.284 281.181C399.998 280.674 399.498 280.289 398.892 280.11C398.286 279.93 397.625 279.972 397.054 280.225Z" fill="#F2F2F2"/>
<path d="M581.538 255.758V0L933.538 182.998V442L581.538 255.758Z" fill="#CFD2A8"/>
<path d="M753.94 431.747C754.261 433.284 754.217 434.868 753.813 436.387C753.408 437.906 752.653 439.323 751.6 440.539C748.064 444.113 734.506 455.358 733.234 457.788C731.963 460.218 730.157 466.865 733.234 469.176C736.312 471.487 742.315 471.726 749.692 469.176C757.069 466.627 774.798 455.882 778.08 452.499C781.361 449.116 778.08 414.927 778.08 414.927C778.08 414.927 759.078 410.591 752.643 414.927L753.94 431.747Z" fill="#42210B"/>
<path d="M834.426 289.531C828.965 256.689 840.201 228.036 859.522 225.533C878.842 223.029 898.932 247.624 904.393 280.466C909.854 313.308 898.618 341.96 879.297 344.464C859.976 346.967 839.887 322.373 834.426 289.531Z" fill="#F2F2F2"/>
<path d="M806.212 312.528C806.212 312.528 827.903 310.38 830.417 308.948C832.931 307.516 839.695 282.693 841.95 283.003C844.205 283.313 846.589 290.163 846.589 292.741C846.589 295.319 843.012 306.346 844.567 306.179C846.122 306.012 849.751 300.451 852.109 301.668C854.467 302.885 846.485 316.252 843.272 317.254C840.24 318.063 837.159 318.709 834.046 319.188L805.538 330" fill="#FFC9B5"/>
<path d="M727.009 302C727.009 302 766.073 314.857 774.768 315.075C783.464 315.292 820.412 309.99 820.412 309.99C820.412 309.99 827.61 322.096 822.992 327.132C822.992 327.132 786.74 338.342 773.969 338.948C761.197 339.553 721.746 334.807 716.586 329.965C711.425 325.123 727.009 302 727.009 302Z" fill="#688C03"/>
<path d="M757.999 604.219C757.999 604.219 767.162 596.849 777.428 599.625C787.694 602.401 785.563 609.869 779.096 614.487C772.628 619.105 747.708 635.146 740.034 634.999C732.36 634.852 730.692 628.931 730.538 624.903C730.966 618.664 731.719 612.449 732.797 606.282" fill="#2C1D1A"/>
<path d="M752.364 604.425C752.402 604.69 752.505 604.944 752.663 605.168C752.822 605.393 753.034 605.583 753.283 605.723C753.532 605.864 753.812 605.953 754.103 605.983C754.394 606.013 754.688 605.984 754.965 605.897C757.791 605.08 760.562 604.113 763.263 603C763.263 603 772.237 603 766.775 611.192C761.312 619.384 742.532 621.782 736.731 618.719C730.93 615.656 734.806 607.013 734.806 607.013" fill="#2C1D1A"/>
<path d="M779.999 621.074C779.999 621.074 789.162 613.909 799.428 616.608C809.694 619.306 807.563 626.567 801.096 631.057C794.628 635.547 769.708 651.142 762.034 650.999C754.36 650.856 752.692 645.1 752.538 641.183C752.966 635.117 753.719 629.075 754.797 623.08" fill="#2C1D1A"/>
<path d="M773.826 620.425C773.863 620.69 773.963 620.944 774.117 621.168C774.271 621.393 774.477 621.583 774.718 621.723C774.96 621.864 775.232 621.953 775.515 621.983C775.798 622.013 776.084 621.984 776.353 621.897C779.098 621.08 781.79 620.113 784.414 619C784.414 619 793.132 619 787.825 627.192C782.519 635.384 764.275 637.782 758.64 634.719C753.005 631.656 756.77 623.013 756.77 623.013" fill="#FFC9B5"/>
<path d="M783.678 394.287C786.682 400.62 788.313 491.266 787.173 514.578C786.034 537.889 773.994 619.986 773.994 619.986C773.994 619.986 767.132 629.619 755.609 628.969C744.086 628.318 746.313 619.649 746.313 619.649C746.313 619.649 731.58 626.006 725.132 612.039C722.75 606.861 711.538 462.367 711.538 445.871C711.928 426.21 717.741 406.971 728.421 390" fill="#C13D3D"/>
<path d="M746.538 620C746.538 620 739.417 436.808 740.314 431.438C741.211 426.068 738.362 471.607 738.547 484.057C738.679 492.943 744.481 607.526 746.538 620Z" fill="#6D5854"/>
<path d="M784.021 394.435C784.021 394.435 794.313 329.205 779.685 316.924C765.057 304.644 724.464 295.876 716.993 302.004C709.523 308.132 720.781 377.334 728.356 390.172C735.931 403.009 778.614 399.449 784.021 394.435Z" fill="#8CCC00"/>
<path d="M765.234 269.811C765.565 270.719 772.591 295.879 760.346 299.416C748.101 302.952 745.632 289.308 744.41 288.544C743.188 287.779 739.319 286.537 739.548 283.765C739.777 280.993 744.41 280.945 744.41 280.945C744.41 280.945 746.192 273.777 751.716 270.647C757.24 267.517 765.234 269.811 765.234 269.811Z" fill="#FFC9B5"/>
<path d="M754.074 276.242C754.074 276.242 764.464 276.41 769.01 272.255C769.87 271.448 770.539 270.484 770.972 269.424C771.405 268.364 771.593 267.233 771.524 266.102C771.456 264.971 771.132 263.865 770.574 262.857C770.016 261.848 769.235 260.959 768.283 260.246C768.283 260.246 772.413 252.609 764.646 250.64C764.646 250.64 763.919 243.627 748.411 246.845C732.902 250.063 718.719 260.198 718.511 273.264C718.303 286.329 717.264 287.89 712.225 290.916C707.185 293.942 708.588 305.326 722.018 305.878C735.448 306.431 753.762 305.254 755.476 299.13C757.191 293.005 747.008 292.333 745.735 286.209C745.425 283.867 746.127 281.507 747.688 279.641C749.25 277.774 751.544 276.553 754.074 276.242Z" fill="#2C1D1A"/>
<path d="M841.794 351.883C841.794 351.883 855.281 352.564 857.948 351.578C862.192 350.23 866.548 349.202 870.974 348.502C871.6 348.37 872.233 348.268 872.871 348.197C874.179 348.056 876.769 347.563 877.512 348.995C879.128 352.024 871.743 353.151 869.102 353.503C869.102 353.503 869.102 353.503 869.102 353.644C870.102 354.513 884.794 356.626 887.051 356.955C889.307 357.283 890.538 363.599 890.538 363.599C887.641 368.624 878.64 368.953 872.769 369C866.897 369.047 858.974 364.304 857.05 364.304C855.127 364.304 840.512 366.886 838.102 365.759C835.691 364.632 841.794 351.883 841.794 351.883Z" fill="#FFC9B5"/>
<path d="M777.828 317.188C784.207 319.599 788.753 324.228 794.228 327.821C798.18 330.425 802.312 333.15 806.393 335.705C810.296 338.501 814.656 340.691 819.306 342.191C826.667 344.072 834.26 344.603 841.75 345.856C843.575 345.958 845.348 346.471 846.915 347.351C850.195 349.979 854.663 361.818 842.809 370.402C833.09 371.157 823.323 371.197 813.598 370.522C800.685 369.317 771.759 351.812 764.527 343.759C759.672 338.285 756.779 329.919 759.724 323.023C760.767 320.802 762.522 318.938 764.746 317.686C766.971 316.434 769.556 315.856 772.146 316.03C774.098 316.108 776.02 316.499 777.828 317.188Z" fill="#8CCC00"/>
<path d="M512.002 561.071C508.866 561.071 504.487 564.331 501.636 565.706L493.862 569.5C493.862 569.5 488.679 588.65 485.647 595.652C482.615 602.655 471.886 617.985 475.644 623.663C478.22 627.187 482.061 629.617 486.39 630.463C490.72 631.309 495.215 630.508 498.967 628.222C508.84 622.899 508.555 605.151 512.157 598.25C515.111 592.546 513.738 580.425 513.738 577.878C513.881 572.226 513.298 566.58 512.002 561.071Z" fill="#181816"/>
<path d="M430.762 526.338C427.626 526.338 423.247 529.597 420.396 530.972L412.622 534.767C412.622 534.767 410.03 555.622 404.407 560.919C398.784 566.215 377.949 577.445 381.706 583.149C384.099 586.702 387.792 589.213 392.019 590.161C396.246 591.11 400.682 590.422 404.407 588.242C414.28 582.92 420.759 571.996 427.73 569.22C433.794 566.852 431.228 551.395 431.461 546.302C432.157 539.647 431.922 532.93 430.762 526.338Z" fill="#181816"/>
<path d="M416.663 331.253C416.663 331.253 403.188 401.739 404.406 440.395C405.624 479.05 406.298 526.389 409.304 547.346C409.304 547.346 435.373 550.911 444.21 543.246C444.21 543.246 446.802 407.775 447.009 408.538C451 426.364 469.736 517.68 471.731 523.638C473.727 529.597 483.341 577.725 483.341 577.725C489.62 579.253 496.152 579.497 502.531 578.441C508.91 577.385 515 575.053 520.424 571.588C520.424 571.588 517.185 502.248 511.147 482.793C505.109 463.338 484.04 340.828 473.804 331.253" fill="#CFD2A8"/>
<path d="M416.663 331.253C416.663 331.253 403.188 401.739 404.406 440.395C405.624 479.05 406.298 526.389 409.304 547.346C409.304 547.346 435.373 550.911 444.21 543.246C444.21 543.246 446.802 407.775 447.009 408.538C451 426.364 469.736 517.68 471.731 523.638C473.727 529.597 483.341 577.725 483.341 577.725C489.62 579.253 496.152 579.497 502.531 578.441C508.91 577.385 515 575.053 520.424 571.588C520.424 571.588 517.185 502.248 511.147 482.793C505.109 463.338 484.04 340.828 473.804 331.253" fill="#CFD2A8"/>
<path d="M473.131 336.932C473.131 336.932 496.194 271.03 486.865 255.955C477.536 240.88 440.22 229.013 422.287 230.49C404.354 231.967 415.86 336.117 418.685 336.881C421.51 337.645 447.968 355.521 473.131 336.932Z" fill="#F7931E"/>
<path d="M480.749 249.181L452.762 237.773C447.683 261.947 442.413 286.071 436.954 310.143L476.033 316.891C476.033 316.891 499.356 304.312 502.88 284.348C506.404 264.383 481.812 250.098 480.749 249.181Z" fill="#F7931E"/>
<path d="M424.335 270.215C424.335 270.215 420.604 234.208 420.604 231.05C409.72 234.112 399.546 239.223 390.647 246.1C386.098 249.567 381.866 253.418 378.001 257.61C375.344 260.07 373.143 262.965 371.496 266.166C370.345 269.966 370.229 273.996 371.159 277.854C372.884 286.788 375.968 295.415 380.307 303.446C384.861 312.804 390.486 321.621 397.073 329.726C399.121 332.272 405.729 341.363 410.031 339.911C418.66 336.958 422.262 327.179 422.262 327.179C422.262 327.179 418.271 319.54 413.97 309.94C411.378 304.286 399.95 291.478 398.421 282.718C399.554 281.217 400.783 279.788 402.101 278.44C407.776 272.889 417.261 273.831 424.335 270.215Z" fill="#F7931E"/>
<path d="M458.722 220.432C454.524 225.015 446.439 222.978 441.127 221.756C434.674 220.33 427.263 216.484 427.833 209.023C427.833 207.877 426.122 207.903 426.019 209.023C425.423 216.892 432.705 221.756 439.624 223.334C445.765 224.837 455.172 227.129 459.966 221.781C460.77 220.839 459.5 219.566 458.722 220.432Z" fill="#009245"/>
<path d="M424.334 204.134C424.334 204.134 424.334 242.611 438.69 245.132C454.472 247.882 463.361 230.261 463.361 230.261C463.361 230.261 465.382 196.266 449.704 193.261C434.026 190.256 424.775 199.22 424.334 204.134Z" fill="#FBB5AD"/>
<path d="M452.219 226.441C452.219 226.441 456.028 211.672 460.226 216.535C464.424 221.399 453.411 232.145 453.411 232.145" fill="#FBB5AD"/>
<path d="M440.427 336.856L434.856 277.345L393.186 278.287L399.016 336.856H440.427Z" fill="#CFD2A8"/>
<path d="M454.628 313.428L436.488 300.136V305.229C436.488 305.229 420.084 298.022 419.281 301.18C418.374 304.719 421.406 314.829 424.205 315.796C427.003 316.764 438.561 320.406 438.561 320.406L447.709 323.258L454.628 313.428Z" fill="#FBB5AD"/>
<path d="M503.037 277.345C503.037 277.345 514.828 322.086 506.717 331.279C498.605 340.472 445.974 330.515 445.481 325.88C444.989 321.246 452.193 306.196 452.193 306.196L481.58 309.354" fill="#F7931E"/>
<path d="M413.347 336.856C413.347 336.856 424.334 335.022 426.537 341.006C427.703 344.164 419.229 341.006 419.229 341.006L413.217 358.577C411.395 356.361 410.382 353.608 410.341 350.759C410.302 346.735 410.676 342.717 411.455 338.766L413.347 336.856Z" fill="#FBB5AD"/>
<path d="M478.538 442.232L524.769 401.948L555.866 479.869L513.16 520.001L478.538 442.232Z" fill="white"/>
<path d="M559.365 405.029C557.589 402.883 556.235 400.43 555.374 397.797C554.13 394.97 553.172 392.016 551.72 389.292C550.917 387.789 550.166 384.199 548.222 383.944C547.496 383.817 546.719 385.803 546.563 386.338C546.156 387.701 546.156 389.151 546.563 390.514C547.12 392.308 547.552 394.137 547.859 395.989C547.859 395.989 534.902 384.581 531.689 384.173C528.475 383.766 529.097 387.407 529.097 387.407C529.097 387.407 525.443 384.861 523.681 386.44C521.919 388.018 524.536 391.838 524.536 391.838C524.536 391.838 520.908 394.155 522.826 396.549C524.744 398.943 535.628 404.774 535.628 404.774C535.628 404.774 527.853 402.915 526.091 404.061C524.329 405.207 525.21 407.753 528.294 408.899C531.378 410.045 539.1 412.082 539.1 412.082C539.1 412.082 551.928 416.335 557.24 417.506C562.553 418.678 580.978 430.239 580.978 430.239L583.31 413.712C582.118 413.559 561.697 407.193 559.365 405.029Z" fill="#FE6162"/>
<path d="M617.723 416.641L561.749 399.07C561.749 399.07 549.569 414.527 553.482 424.255L577.971 437.369" fill="#CFD2A8"/>
<path opacity="0.35" d="M617.723 416.641L561.749 399.07C561.749 399.07 549.569 414.527 553.482 424.255L577.971 437.369" fill="#204A51"/>
<path d="M627.208 766.168L639.388 762.857L637.47 748.266C637.47 748.266 624.306 750.43 627.208 766.168Z" fill="#42210B"/>
<path d="M643.819 723.744C643.819 723.744 648.121 773.068 646.955 773.629C645.789 774.189 633.998 775.182 633.998 774.342C633.998 773.501 633.298 751.907 633.298 751.907C633.298 751.907 627.442 761.431 627.131 766.193C627.131 766.193 613.137 758.35 610.52 752.06C607.902 745.77 616.506 719.44 619.771 718.014" fill="#7F252B"/>
<path d="M597.069 792.014L610.855 777.627L601.863 766.422C601.863 766.422 593.519 784.579 597.069 792.014Z" fill="#42210B"/>
<path d="M617.569 734.974L624.021 794.153C624.021 794.153 613.655 797.616 611.712 797.362C609.107 796.47 606.605 795.309 604.249 793.899L601.942 774.164C601.942 774.164 595.956 780.046 597.044 791.989C597.044 791.174 587.534 788.067 586.29 787.532C582.449 785.885 578.764 783.908 575.277 781.625C571.623 779.078 557.992 768.103 565.3 763.799C571.519 760.056 591.68 761.864 591.68 761.864L591.965 737.444" fill="#7F252B"/>
<path d="M641.668 522.981C641.62 522.771 641.622 522.553 641.674 522.344C641.725 522.135 641.825 521.941 641.966 521.776C642.106 521.611 642.283 521.48 642.483 521.393C642.683 521.306 642.901 521.265 643.12 521.275C641.756 516.074 639.466 511.151 636.356 506.734L577.971 499.986C577.971 499.986 566.258 540.933 561.749 611.47C558.251 666.168 585.564 747.502 585.564 747.502C585.564 747.502 613.837 754.556 627.416 740.83L626.871 729.04C633.91 728.991 640.934 728.429 647.888 727.36C654.962 659.42 649.65 590.564 641.668 522.981Z" fill="#8CC63F"/>
<path d="M629.1 737.647L621.792 686.973C619.46 670.828 615.884 654.225 615.806 637.852C615.729 621.478 621.43 606.81 624.202 591.2C626.825 576.065 627.496 560.665 626.198 545.364C625.913 541.799 620.704 541.774 621.015 545.364C622.465 562.445 621.392 579.642 617.828 596.421C614.562 611.419 610.053 625.654 610.675 641.264C611.297 656.874 614.511 672.814 616.843 688.45L624.151 739.124C624.617 742.689 629.619 741.161 629.1 737.647Z" fill="#42210B"/>
<path d="M530.582 486.522C530.773 485.951 530.773 485.335 530.582 484.765H530.944C531.573 484.869 532.219 484.742 532.758 484.408L533.329 484.561C536.542 485.554 537.864 480.589 534.65 479.468C532.059 478.679 529.467 477.966 526.876 477.278H526.643C521.346 475.343 515.948 473.685 510.472 472.313C508.745 471.701 506.965 471.141 505.134 470.632H504.953C500.207 468.977 495.301 467.808 490.311 467.143C487.564 466.838 484.169 466.787 482.537 469.461C482.423 469.654 482.363 469.874 482.363 470.097C482.363 470.321 482.423 470.54 482.537 470.734C483.47 472.134 484.947 472.236 486.579 472.695L491.555 474.07C489.582 474.472 487.648 475.043 485.776 475.776C483.701 476.131 481.755 477.009 480.127 478.322C479.696 478.738 479.426 479.289 479.365 479.88C479.303 480.47 479.454 481.063 479.79 481.556C479.987 481.872 480.253 482.141 480.567 482.346C479.671 482.816 479.001 483.616 478.705 484.571C478.409 485.526 478.51 486.557 478.986 487.439C479.316 488.009 479.795 488.483 480.373 488.81C480.952 489.137 481.61 489.305 482.278 489.298C481.563 489.73 481.002 490.367 480.668 491.123C480.334 491.879 480.245 492.717 480.412 493.525C480.904 495.078 482.459 495.485 484.066 495.485C483.896 495.836 483.811 496.219 483.815 496.607C483.82 496.995 483.915 497.376 484.092 497.723C484.27 498.069 484.525 498.371 484.839 498.606C485.154 498.84 485.518 499.001 485.906 499.076C489.105 499.691 492.422 499.061 495.157 497.319C495.322 497.223 495.463 497.092 495.572 496.937C497.956 496.732 500.301 496.209 502.542 495.384C503.553 494.951 504.59 494.467 505.626 494.059L507.44 493.346C507.725 493.346 508.84 492.608 509.099 492.71L519.464 496.708C522.289 497.777 527.239 501.011 530.374 499.942C533.51 498.872 532.214 493.856 529.027 494.849C529.701 494.62 528.301 494.492 527.913 494.34L525.036 493.245C527.667 494.281 530.469 494.833 533.303 494.874C533.828 494.888 534.346 494.745 534.787 494.463C535.227 494.181 535.57 493.774 535.77 493.296C535.97 492.817 536.016 492.291 535.904 491.786C535.792 491.281 535.527 490.822 535.143 490.469C533.742 489.025 532.216 487.704 530.582 486.522Z" fill="#FE6162"/>
<path d="M617.724 416.641C617.724 416.641 585.279 416.64 574.059 436.707C564.652 453.539 566.414 481.652 566.414 481.652L529.046 478.749C529.046 478.749 518.317 483.154 520.986 496.396C522.437 503.602 559.521 506.938 579.993 511.929C600.465 516.92 637.419 518.372 643.224 506.225C649.028 494.078 648.406 445.11 641.539 431.13C634.672 417.15 617.724 416.641 617.724 416.641Z" fill="#CFD2A8"/>
<path d="M614.252 414.272C614.252 414.272 601.295 424.025 593.236 418.117C585.176 412.21 587.12 386.72 587.12 386.72C587.12 386.72 591.24 379.08 606.53 388.655C621.819 398.23 614.252 414.272 614.252 414.272Z" fill="#FE6162"/>
<path d="M619.434 417.685L619.097 417.073L610.96 419.62L610.805 420.027C613.733 419.187 616.609 418.398 619.434 417.685Z" fill="#7F252B"/>
<path d="M632.727 386.21C631.644 380.101 628.677 374.465 624.227 370.066C617.619 364.031 607.435 364.082 599.298 366.628C595.064 367.807 591.276 370.183 588.405 373.461C585.535 376.74 583.708 380.775 583.153 385.065C581.365 394.69 592.819 388.757 595.359 394.257C596.816 397.449 597.284 400.991 596.707 404.443C595.851 410.173 592.379 415.698 592.897 421.606C592.939 423.04 593.345 424.442 594.078 425.683C594.811 426.923 595.848 427.964 597.095 428.711C604.153 429.349 611.261 429.229 618.293 428.354C623.787 427.947 634.878 427.489 636.848 420.919C639.154 413.076 632.727 386.21 632.727 386.21Z" fill="#7F252B"/>
<path d="M476.984 165.575C473.699 163.554 469.735 162.679 465.807 163.106C461.88 163.533 458.249 165.235 455.571 167.904C450.491 173.099 449.932 179.994 451.609 186.424C443.15 184.933 433.397 187.169 424.735 195.742C424.735 195.742 416.963 205.386 422.729 210.417C428.494 215.449 436.369 211.256 443.684 208.833C450.999 206.411 449.094 214.634 453.234 220.481C457.375 226.328 460.854 225.675 464.004 224.72C467.154 223.765 477.949 214.61 471.091 200.191C470.673 199.315 470.189 198.466 469.643 197.652C471.455 196.894 473.204 196.014 474.875 195.019C478.831 193.047 482.038 190.016 484.07 186.33C485.584 182.642 485.709 178.595 484.425 174.833C483.141 171.072 480.521 167.813 476.984 165.575Z" fill="#42210B"/>
<path d="M706.152 203.627V266.175C706.152 284.358 676.538 284.386 676.538 266.175V203.627C676.509 185.471 706.152 185.444 706.152 203.627Z" fill="#56403D"/>
<path d="M669.152 139.627V240.569C669.152 258.752 639.538 258.78 639.538 240.569V139.627C639.509 121.471 669.152 121.444 669.152 139.627Z" fill="#FFA197"/>
<path d="M632.152 66.648V221.62C632.152 239.803 602.538 239.831 602.538 221.62V66.648C602.538 48.4644 632.152 48.437 632.152 66.648Z" fill="#F2F2F2"/>
</g>
<defs>
<filter id="filter0_d" x="0.538086" y="0" width="1010" height="928" filterUnits="userSpaceOnUse" color-interpolation-filters="sRGB">
<feFlood flood-opacity="0" result="BackgroundImageFix"/>
<feColorMatrix in="SourceAlpha" type="matrix" values="0 0 0 0 0 0 0 0 0 0 0 0 0 0 0 0 0 0 127 0" result="hardAlpha"/>
<feOffset dx="5" dy="5"/>
<feGaussianBlur stdDeviation="2.5"/>
<feColorMatrix type="matrix" values="0 0 0 0 0 0 0 0 0 0 0 0 0 0 0 0 0 0 0.25 0"/>
<feBlend mode="normal" in2="BackgroundImageFix" result="effect1_dropShadow"/>
<feBlend mode="normal" in="SourceGraphic" in2="effect1_dropShadow" result="shape"/>
</filter>
</defs>
</svg>
