<?xml version="1.0" standalone="no"?>
<!DOCTYPE svg PUBLIC "-//W3C//DTD SVG 20010904//EN"
 "http://www.w3.org/TR/2001/REC-SVG-20010904/DTD/svg10.dtd">
<svg version="1.0" xmlns="http://www.w3.org/2000/svg"
 width="752.000000pt" height="752.000000pt" viewBox="0 0 752.000000 752.000000"
 preserveAspectRatio="xMidYMid meet">
<metadata>
Created by potrace 1.14, written by Peter Selinger 2001-2017
</metadata>
<g transform="translate(0.000000,752.000000) scale(0.100000,-0.100000)"
fill="#000000" stroke="none">
<path d="M495 7509 c-45 -10 -69 -17 -72 -19 -2 -2 -6 -3 -11 -4 -4 0 -38 -16
-76 -35 -98 -48 -211 -162 -260 -261 -20 -41 -39 -86 -42 -100 -3 -14 -8 -36
-12 -50 -9 -31 -9 -6500 -1 -6555 9 -57 43 -142 82 -203 71 -113 177 -197 315
-251 l67 -26 3245 -2 c3449 -3 3295 -5 3403 40 17 8 34 14 37 13 11 -1 127 85
164 121 72 70 139 191 163 295 5 18 8 1500 8 3293 l0 3260 -22 70 c-59 186
-204 333 -393 398 l-65 22 -3245 1 c-1869 1 -3262 -2 -3285 -7z"/>
</g>
</svg>
