<?xml version="1.0" encoding="UTF-8"?>
<svg xmlns="http://www.w3.org/2000/svg" xmlns:xlink="http://www.w3.org/1999/xlink" width="1500pt" height="1499.999933pt" viewBox="0 0 1500 1499.999933" version="1.2">
<g id="surface1">
<path style=" stroke:none;fill-rule:nonzero;fill:rgb(100%,100%,100%);fill-opacity:1;" d="M 1485.210938 749.917969 C 1485.210938 343.820312 1156.011719 14.621094 749.917969 14.621094 C 343.820312 14.621094 14.621094 343.820312 14.621094 749.917969 C 14.621094 1156.011719 343.820312 1485.210938 749.917969 1485.210938 C 1156.011719 1485.210938 1485.210938 1156.011719 1485.210938 749.917969 "/>
<path style=" stroke:none;fill-rule:nonzero;fill:rgb(19.219971%,26.669312%,33.329773%);fill-opacity:1;" d="M 749.917969 29.246094 C 352.542969 29.246094 29.246094 352.542969 29.246094 749.917969 C 29.246094 1147.292969 352.542969 1470.589844 749.917969 1470.589844 C 1147.292969 1470.589844 1470.589844 1147.292969 1470.589844 749.917969 C 1470.589844 352.542969 1147.292969 29.246094 749.917969 29.246094 Z M 749.917969 1499.832031 C 549.605469 1499.832031 361.289062 1421.824219 219.648438 1280.183594 C 78.007812 1138.542969 0 950.230469 0 749.917969 C 0 549.605469 78.007812 361.289062 219.648438 219.648438 C 361.289062 78.007812 549.605469 0 749.917969 0 C 950.230469 0 1138.542969 78.007812 1280.183594 219.648438 C 1421.824219 361.289062 1499.832031 549.605469 1499.832031 749.917969 C 1499.832031 950.230469 1421.824219 1138.542969 1280.183594 1280.183594 C 1138.542969 1421.824219 950.230469 1499.832031 749.917969 1499.832031 "/>
<path style=" stroke:none;fill-rule:nonzero;fill:rgb(100%,100%,100%);fill-opacity:1;" d="M 1423.378906 749.917969 C 1423.378906 377.972656 1121.859375 76.453125 749.917969 76.453125 C 377.972656 76.453125 76.453125 377.972656 76.453125 749.917969 C 76.453125 1121.859375 377.972656 1423.378906 749.917969 1423.378906 C 1121.859375 1423.378906 1423.378906 1121.859375 1423.378906 749.917969 "/>
<path style=" stroke:none;fill-rule:nonzero;fill:rgb(100%,100%,100%);fill-opacity:1;" d="M 1374.917969 749.917969 C 1374.917969 404.738281 1095.09375 124.917969 749.917969 124.917969 C 404.738281 124.917969 124.917969 404.738281 124.917969 749.917969 C 124.917969 1095.09375 404.738281 1374.917969 749.917969 1374.917969 C 1095.09375 1374.917969 1374.917969 1095.09375 1374.917969 749.917969 "/>
<path style=" stroke:none;fill-rule:nonzero;fill:rgb(19.219971%,26.669312%,33.329773%);fill-opacity:1;" d="M 849.777344 777.070312 C 841.699219 777.070312 835.15625 783.625 835.15625 791.695312 L 835.15625 841.410156 C 835.15625 849.492188 841.699219 856.03125 849.777344 856.03125 C 857.847656 856.03125 864.402344 849.492188 864.402344 841.410156 L 864.402344 791.695312 C 864.402344 783.625 857.847656 777.070312 849.777344 777.070312 "/>
<path style=" stroke:none;fill-rule:nonzero;fill:rgb(19.219971%,26.669312%,33.329773%);fill-opacity:1;" d="M 650.066406 777.070312 C 642 777.070312 635.445312 783.625 635.445312 791.695312 L 635.445312 841.410156 C 635.445312 849.492188 642 856.03125 650.066406 856.03125 C 658.148438 856.03125 664.6875 849.492188 664.6875 841.410156 L 664.6875 791.695312 C 664.6875 783.625 658.148438 777.070312 650.066406 777.070312 "/>
<path style=" stroke:none;fill-rule:nonzero;fill:rgb(19.219971%,26.669312%,33.329773%);fill-opacity:1;" d="M 749.917969 424.738281 C 789.972656 424.738281 822.558594 461.671875 822.558594 507.066406 C 822.558594 554.015625 788.613281 595.207031 749.917969 595.207031 C 711.234375 595.207031 677.289062 554.015625 677.289062 507.066406 C 677.289062 461.671875 709.875 424.738281 749.917969 424.738281 Z M 749.917969 624.453125 C 805.140625 624.453125 851.800781 570.703125 851.800781 507.066406 C 851.800781 445.550781 806.09375 395.496094 749.917969 395.496094 C 693.738281 395.496094 648.042969 445.550781 648.042969 507.066406 C 648.042969 570.703125 694.691406 624.453125 749.917969 624.453125 "/>
<path style=" stroke:none;fill-rule:nonzero;fill:rgb(19.219971%,26.669312%,33.329773%);fill-opacity:1;" d="M 926.859375 806.09375 C 934.808594 804.699219 940.136719 797.125 938.738281 789.160156 C 923.058594 699.507812 845.511719 634.425781 754.34375 634.425781 L 745.492188 634.425781 C 654.335938 634.425781 576.785156 699.507812 561.09375 789.160156 C 559.707031 797.125 565.023438 804.699219 572.984375 806.09375 C 580.9375 807.492188 588.507812 802.164062 589.90625 794.214844 C 603.132812 718.570312 668.566406 663.671875 745.492188 663.671875 L 754.34375 663.671875 C 831.277344 663.671875 896.714844 718.570312 909.941406 794.214844 C 911.179688 801.316406 917.355469 806.316406 924.328125 806.316406 C 925.164062 806.316406 926.011719 806.238281 926.859375 806.09375 "/>
<path style=" stroke:none;fill-rule:nonzero;fill:rgb(19.219971%,26.669312%,33.329773%);fill-opacity:1;" d="M 392.859375 470.25 C 387.152344 464.546875 377.894531 464.546875 372.175781 470.25 L 360.988281 481.453125 C 355.269531 487.171875 355.269531 496.429688 360.988281 502.132812 C 363.835938 504.992188 367.582031 506.414062 371.328125 506.414062 C 375.0625 506.414062 378.808594 504.992188 381.65625 502.132812 L 392.859375 490.929688 C 398.574219 485.226562 398.574219 475.96875 392.859375 470.25 "/>
<path style=" stroke:none;fill-rule:nonzero;fill:rgb(19.219971%,26.669312%,33.329773%);fill-opacity:1;" d="M 431.75 445.992188 C 435.496094 445.992188 439.230469 444.558594 442.089844 441.710938 L 453.292969 430.511719 C 458.996094 424.804688 458.996094 415.535156 453.292969 409.828125 C 447.574219 404.125 438.316406 404.125 432.613281 409.828125 L 421.410156 421.03125 C 415.703125 426.738281 415.703125 435.992188 421.410156 441.710938 C 424.269531 444.558594 428.003906 445.992188 431.75 445.992188 "/>
<path style=" stroke:none;fill-rule:nonzero;fill:rgb(19.219971%,26.669312%,33.329773%);fill-opacity:1;" d="M 453.292969 502.132812 C 458.996094 496.429688 458.996094 487.171875 453.292969 481.453125 L 442.089844 470.25 C 436.371094 464.546875 427.128906 464.546875 421.410156 470.25 C 415.703125 475.96875 415.703125 485.226562 421.410156 490.929688 L 432.613281 502.132812 C 435.472656 504.992188 439.203125 506.414062 442.953125 506.414062 C 446.6875 506.414062 450.433594 504.992188 453.292969 502.132812 "/>
<path style=" stroke:none;fill-rule:nonzero;fill:rgb(19.219971%,26.669312%,33.329773%);fill-opacity:1;" d="M 372.175781 441.710938 C 375.035156 444.558594 378.785156 445.992188 382.515625 445.992188 C 386.265625 445.992188 390.011719 444.558594 392.859375 441.710938 C 398.574219 435.992188 398.574219 426.738281 392.859375 421.03125 L 381.65625 409.828125 C 375.949219 404.125 366.695312 404.125 360.988281 409.828125 C 355.269531 415.535156 355.269531 424.804688 360.988281 430.511719 L 372.175781 441.710938 "/>
<path style=" stroke:none;fill-rule:nonzero;fill:rgb(19.219971%,26.669312%,33.329773%);fill-opacity:1;" d="M 559.761719 306.976562 C 562.605469 309.835938 566.355469 311.257812 570.101562 311.257812 C 573.835938 311.257812 577.582031 309.835938 580.429688 306.976562 C 586.144531 301.273438 586.144531 292.015625 580.441406 286.296875 L 577.359375 283.230469 C 571.65625 277.511719 562.398438 277.511719 556.679688 283.214844 C 550.972656 288.933594 550.972656 298.191406 556.679688 303.894531 L 559.761719 306.976562 "/>
<path style=" stroke:none;fill-rule:nonzero;fill:rgb(19.219971%,26.669312%,33.329773%);fill-opacity:1;" d="M 603.746094 350.960938 C 606.605469 353.820312 610.339844 355.242188 614.085938 355.242188 C 617.832031 355.242188 621.566406 353.820312 624.425781 350.960938 C 630.128906 345.257812 630.128906 336 624.425781 330.28125 L 621.34375 327.214844 C 615.640625 321.496094 606.382812 321.496094 600.664062 327.214844 C 594.957031 332.917969 594.957031 342.175781 600.664062 347.894531 L 603.746094 350.960938 "/>
<path style=" stroke:none;fill-rule:nonzero;fill:rgb(19.219971%,26.669312%,33.329773%);fill-opacity:1;" d="M 577.359375 350.960938 L 580.441406 347.894531 C 586.144531 342.175781 586.144531 332.917969 580.429688 327.214844 C 574.722656 321.496094 565.464844 321.507812 559.761719 327.214844 L 556.679688 330.292969 C 550.972656 336 550.972656 345.257812 556.679688 350.976562 C 559.539062 353.820312 563.273438 355.242188 567.019531 355.242188 C 570.765625 355.242188 574.515625 353.820312 577.359375 350.960938 "/>
<path style=" stroke:none;fill-rule:nonzero;fill:rgb(19.219971%,26.669312%,33.329773%);fill-opacity:1;" d="M 611.003906 311.257812 C 614.75 311.257812 618.5 309.835938 621.34375 306.976562 L 624.425781 303.910156 C 630.128906 298.191406 630.128906 288.933594 624.425781 283.230469 C 618.707031 277.511719 609.449219 277.511719 603.746094 283.230469 L 600.664062 286.296875 C 594.957031 292.015625 594.957031 301.273438 600.664062 306.976562 C 603.523438 309.835938 607.269531 311.257812 611.003906 311.257812 "/>
<path style=" stroke:none;fill-rule:nonzero;fill:rgb(19.219971%,26.669312%,33.329773%);fill-opacity:1;" d="M 909.429688 401.132812 C 913.164062 401.132812 916.910156 399.710938 919.757812 396.851562 L 930.960938 385.652344 C 936.675781 379.945312 936.675781 370.6875 930.960938 364.96875 C 925.253906 359.265625 915.996094 359.265625 910.277344 364.96875 L 899.089844 376.171875 C 893.371094 381.890625 893.371094 391.148438 899.089844 396.851562 C 901.9375 399.710938 905.683594 401.132812 909.429688 401.132812 "/>
<path style=" stroke:none;fill-rule:nonzero;fill:rgb(19.219971%,26.669312%,33.329773%);fill-opacity:1;" d="M 970.714844 304.550781 L 959.511719 315.75 C 953.804688 321.457031 953.804688 330.710938 959.511719 336.429688 C 962.371094 339.289062 966.105469 340.714844 969.851562 340.714844 C 973.597656 340.714844 977.332031 339.277344 980.191406 336.429688 L 991.394531 325.230469 C 997.097656 319.511719 997.097656 310.253906 991.394531 304.550781 C 985.675781 298.832031 976.417969 298.832031 970.714844 304.550781 "/>
<path style=" stroke:none;fill-rule:nonzero;fill:rgb(19.219971%,26.669312%,33.329773%);fill-opacity:1;" d="M 980.191406 364.96875 C 974.488281 359.265625 965.230469 359.265625 959.511719 364.96875 C 953.804688 370.6875 953.804688 379.945312 959.511719 385.652344 L 970.714844 396.851562 C 973.558594 399.710938 977.304688 401.132812 981.054688 401.132812 C 984.789062 401.132812 988.535156 399.710938 991.394531 396.851562 C 997.097656 391.148438 997.097656 381.890625 991.394531 376.171875 L 980.191406 364.96875 "/>
<path style=" stroke:none;fill-rule:nonzero;fill:rgb(19.219971%,26.669312%,33.329773%);fill-opacity:1;" d="M 910.277344 336.429688 C 913.136719 339.277344 916.871094 340.714844 920.617188 340.714844 C 924.367188 340.714844 928.101562 339.277344 930.960938 336.429688 C 936.675781 330.710938 936.675781 321.457031 930.960938 315.75 L 919.757812 304.550781 C 914.050781 298.84375 904.796875 298.832031 899.089844 304.550781 C 893.371094 310.253906 893.371094 319.511719 899.089844 325.230469 L 910.277344 336.429688 "/>
<path style=" stroke:none;fill-rule:nonzero;fill:rgb(19.219971%,26.669312%,33.329773%);fill-opacity:1;" d="M 1115.460938 446.984375 C 1109.742188 441.28125 1100.488281 441.28125 1094.78125 447 C 1089.074219 452.703125 1089.074219 461.972656 1094.78125 467.679688 L 1097.863281 470.746094 C 1100.722656 473.605469 1104.457031 475.03125 1108.203125 475.03125 C 1111.9375 475.03125 1115.683594 473.605469 1118.542969 470.746094 C 1124.246094 465.042969 1124.246094 455.773438 1118.53125 450.066406 L 1115.460938 446.984375 "/>
<path style=" stroke:none;fill-rule:nonzero;fill:rgb(19.219971%,26.669312%,33.329773%);fill-opacity:1;" d="M 1159.445312 490.984375 C 1153.742188 485.265625 1144.484375 485.265625 1138.777344 490.984375 C 1133.058594 496.6875 1133.058594 505.945312 1138.765625 511.664062 L 1141.847656 514.730469 C 1144.691406 517.589844 1148.441406 519.015625 1152.1875 519.015625 C 1155.921875 519.015625 1159.667969 517.589844 1162.515625 514.746094 C 1168.230469 509.027344 1168.230469 499.769531 1162.527344 494.066406 L 1159.445312 490.984375 "/>
<path style=" stroke:none;fill-rule:nonzero;fill:rgb(19.219971%,26.669312%,33.329773%);fill-opacity:1;" d="M 1097.863281 490.984375 L 1094.78125 494.050781 C 1089.074219 499.757812 1089.074219 509.027344 1094.78125 514.730469 C 1097.628906 517.589844 1101.375 519.015625 1105.121094 519.015625 C 1108.855469 519.015625 1112.601562 517.589844 1115.460938 514.746094 L 1118.53125 511.664062 C 1124.246094 505.957031 1124.246094 496.6875 1118.542969 490.984375 C 1112.835938 485.265625 1103.582031 485.265625 1097.863281 490.984375 "/>
<path style=" stroke:none;fill-rule:nonzero;fill:rgb(19.219971%,26.669312%,33.329773%);fill-opacity:1;" d="M 1149.105469 475.03125 C 1152.851562 475.03125 1156.601562 473.605469 1159.445312 470.746094 L 1162.527344 467.667969 C 1168.230469 461.960938 1168.230469 452.703125 1162.515625 446.984375 C 1156.808594 441.28125 1147.550781 441.28125 1141.847656 447 L 1138.765625 450.066406 C 1133.058594 455.785156 1133.058594 465.042969 1138.777344 470.746094 C 1141.625 473.605469 1145.371094 475.03125 1149.105469 475.03125 "/>
<path style=" stroke:none;fill-rule:nonzero;fill:rgb(19.219971%,26.669312%,33.329773%);fill-opacity:1;" d="M 1141.847656 1021.09375 L 1130.644531 1032.285156 C 1124.941406 1038.003906 1124.941406 1047.257812 1130.644531 1052.976562 C 1133.503906 1055.824219 1137.238281 1057.246094 1140.984375 1057.246094 C 1144.730469 1057.246094 1148.464844 1055.824219 1151.324219 1052.976562 L 1162.527344 1041.773438 C 1168.230469 1036.058594 1168.230469 1026.800781 1162.527344 1021.09375 C 1156.808594 1015.375 1147.550781 1015.375 1141.847656 1021.09375 "/>
<path style=" stroke:none;fill-rule:nonzero;fill:rgb(19.219971%,26.669312%,33.329773%);fill-opacity:1;" d="M 1081.414062 1081.515625 L 1070.222656 1092.71875 C 1064.503906 1098.421875 1064.503906 1107.691406 1070.222656 1113.398438 C 1073.070312 1116.257812 1076.816406 1117.679688 1080.5625 1117.679688 C 1084.296875 1117.679688 1088.042969 1116.257812 1090.890625 1113.398438 L 1102.09375 1102.195312 C 1107.796875 1096.492188 1107.796875 1087.234375 1102.09375 1081.515625 C 1096.386719 1075.8125 1087.128906 1075.8125 1081.414062 1081.515625 "/>
<path style=" stroke:none;fill-rule:nonzero;fill:rgb(19.219971%,26.669312%,33.329773%);fill-opacity:1;" d="M 1090.890625 1021.09375 C 1085.183594 1015.375 1075.929688 1015.375 1070.222656 1021.09375 C 1064.503906 1026.800781 1064.503906 1036.058594 1070.222656 1041.773438 L 1081.414062 1052.976562 C 1084.273438 1055.824219 1088.003906 1057.246094 1091.753906 1057.246094 C 1095.5 1057.246094 1099.246094 1055.824219 1102.09375 1052.976562 C 1107.796875 1047.257812 1107.796875 1038.003906 1102.09375 1032.285156 L 1090.890625 1021.09375 "/>
<path style=" stroke:none;fill-rule:nonzero;fill:rgb(19.219971%,26.669312%,33.329773%);fill-opacity:1;" d="M 1151.324219 1081.515625 C 1145.621094 1075.8125 1136.351562 1075.8125 1130.644531 1081.515625 C 1124.941406 1087.234375 1124.941406 1096.492188 1130.644531 1102.195312 L 1141.847656 1113.398438 C 1144.691406 1116.257812 1148.441406 1117.679688 1152.1875 1117.679688 C 1155.933594 1117.679688 1159.667969 1116.257812 1162.527344 1113.398438 C 1168.230469 1107.691406 1168.230469 1098.421875 1162.527344 1092.71875 L 1151.324219 1081.515625 "/>
<path style=" stroke:none;fill-rule:nonzero;fill:rgb(19.219971%,26.669312%,33.329773%);fill-opacity:1;" d="M 940.359375 1192.855469 C 934.652344 1187.136719 925.398438 1187.148438 919.679688 1192.84375 C 913.972656 1198.546875 913.960938 1207.816406 919.664062 1213.523438 L 922.746094 1216.601562 C 925.59375 1219.460938 929.351562 1220.886719 933.085938 1220.886719 C 936.835938 1220.886719 940.566406 1219.460938 943.425781 1216.617188 C 949.132812 1210.910156 949.144531 1201.640625 943.441406 1195.9375 L 940.359375 1192.855469 "/>
<path style=" stroke:none;fill-rule:nonzero;fill:rgb(19.219971%,26.669312%,33.329773%);fill-opacity:1;" d="M 896.375 1148.871094 C 890.667969 1143.152344 881.398438 1143.152344 875.695312 1148.859375 C 869.976562 1154.5625 869.976562 1163.832031 875.679688 1169.539062 L 878.761719 1172.617188 C 881.609375 1175.476562 885.355469 1176.902344 889.101562 1176.902344 C 892.851562 1176.902344 896.582031 1175.476562 899.429688 1172.632812 C 905.148438 1166.925781 905.148438 1157.65625 899.441406 1151.953125 L 896.375 1148.871094 "/>
<path style=" stroke:none;fill-rule:nonzero;fill:rgb(19.219971%,26.669312%,33.329773%);fill-opacity:1;" d="M 922.746094 1148.871094 L 919.664062 1151.953125 C 913.960938 1157.65625 913.972656 1166.925781 919.679688 1172.632812 C 922.539062 1175.476562 926.273438 1176.902344 930.019531 1176.902344 C 933.765625 1176.902344 937.511719 1175.476562 940.359375 1172.617188 L 943.441406 1169.539062 C 949.144531 1163.832031 949.132812 1154.5625 943.425781 1148.859375 C 937.707031 1143.152344 928.453125 1143.152344 922.746094 1148.871094 "/>
<path style=" stroke:none;fill-rule:nonzero;fill:rgb(19.219971%,26.669312%,33.329773%);fill-opacity:1;" d="M 878.761719 1192.855469 L 875.679688 1195.9375 C 869.976562 1201.640625 869.976562 1210.910156 875.695312 1216.617188 C 878.554688 1219.460938 882.289062 1220.886719 886.035156 1220.886719 C 889.769531 1220.886719 893.515625 1219.460938 896.375 1216.601562 L 899.441406 1213.523438 C 905.148438 1207.816406 905.148438 1198.546875 899.429688 1192.84375 C 893.722656 1187.136719 884.46875 1187.136719 878.761719 1192.855469 "/>
<path style=" stroke:none;fill-rule:nonzero;fill:rgb(19.219971%,26.669312%,33.329773%);fill-opacity:1;" d="M 697.328125 1032.792969 L 686.125 1043.980469 C 680.421875 1049.699219 680.421875 1058.957031 686.125 1064.675781 C 688.984375 1067.519531 692.71875 1068.945312 696.464844 1068.945312 C 700.214844 1068.945312 703.949219 1067.519531 706.804688 1064.675781 L 718.007812 1053.472656 C 723.714844 1047.753906 723.714844 1038.5 718.007812 1032.792969 C 712.289062 1027.074219 703.035156 1027.074219 697.328125 1032.792969 "/>
<path style=" stroke:none;fill-rule:nonzero;fill:rgb(19.219971%,26.669312%,33.329773%);fill-opacity:1;" d="M 636.90625 1093.214844 L 625.703125 1104.417969 C 619.988281 1110.121094 619.988281 1119.390625 625.703125 1125.097656 C 628.550781 1127.957031 632.296875 1129.378906 636.046875 1129.378906 C 639.777344 1129.378906 643.527344 1127.957031 646.371094 1125.097656 L 657.574219 1113.894531 C 663.292969 1108.1875 663.292969 1098.933594 657.574219 1093.214844 C 651.867188 1087.507812 642.613281 1087.507812 636.90625 1093.214844 "/>
<path style=" stroke:none;fill-rule:nonzero;fill:rgb(19.219971%,26.669312%,33.329773%);fill-opacity:1;" d="M 646.371094 1032.792969 C 640.667969 1027.074219 631.410156 1027.085938 625.703125 1032.792969 C 619.988281 1038.5 619.988281 1047.753906 625.703125 1053.472656 L 636.90625 1064.675781 C 639.753906 1067.519531 643.5 1068.945312 647.234375 1068.945312 C 650.980469 1068.945312 654.726562 1067.519531 657.574219 1064.675781 C 663.292969 1058.957031 663.292969 1049.699219 657.574219 1043.980469 L 646.371094 1032.792969 "/>
<path style=" stroke:none;fill-rule:nonzero;fill:rgb(19.219971%,26.669312%,33.329773%);fill-opacity:1;" d="M 706.804688 1093.214844 C 701.101562 1087.507812 691.832031 1087.507812 686.125 1093.214844 C 680.421875 1098.933594 680.421875 1108.1875 686.125 1113.894531 L 697.328125 1125.097656 C 700.175781 1127.957031 703.921875 1129.378906 707.667969 1129.378906 C 711.414062 1129.378906 715.148438 1127.957031 718.007812 1125.097656 C 723.714844 1119.390625 723.714844 1110.121094 718.007812 1104.417969 L 706.804688 1093.214844 "/>
<path style=" stroke:none;fill-rule:nonzero;fill:rgb(19.219971%,26.669312%,33.329773%);fill-opacity:1;" d="M 460.746094 1122.667969 C 455.042969 1116.960938 445.773438 1116.949219 440.066406 1122.65625 C 434.347656 1128.375 434.347656 1137.628906 440.054688 1143.347656 L 443.136719 1146.417969 C 445.992188 1149.277344 449.742188 1150.699219 453.476562 1150.699219 C 457.222656 1150.699219 460.957031 1149.277344 463.816406 1146.429688 C 469.519531 1140.722656 469.535156 1131.453125 463.816406 1125.75 L 460.746094 1122.667969 "/>
<path style=" stroke:none;fill-rule:nonzero;fill:rgb(19.219971%,26.669312%,33.329773%);fill-opacity:1;" d="M 416.761719 1078.683594 C 411.058594 1072.964844 401.789062 1072.964844 396.082031 1078.671875 C 390.363281 1084.375 390.363281 1093.644531 396.070312 1099.351562 L 399.148438 1102.433594 C 402.007812 1105.292969 405.742188 1106.714844 409.492188 1106.714844 C 413.238281 1106.714844 416.972656 1105.292969 419.832031 1102.445312 C 425.535156 1096.726562 425.550781 1087.46875 419.832031 1081.75 L 416.761719 1078.683594 "/>
<path style=" stroke:none;fill-rule:nonzero;fill:rgb(19.219971%,26.669312%,33.329773%);fill-opacity:1;" d="M 443.136719 1078.683594 L 440.054688 1081.75 C 434.347656 1087.46875 434.347656 1096.726562 440.066406 1102.445312 C 442.925781 1105.292969 446.660156 1106.714844 450.40625 1106.714844 C 454.140625 1106.714844 457.886719 1105.292969 460.746094 1102.433594 L 463.816406 1099.351562 C 469.535156 1093.644531 469.519531 1084.375 463.816406 1078.671875 C 458.097656 1072.964844 448.839844 1072.964844 443.136719 1078.683594 "/>
<path style=" stroke:none;fill-rule:nonzero;fill:rgb(19.219971%,26.669312%,33.329773%);fill-opacity:1;" d="M 399.148438 1122.667969 L 396.070312 1125.75 C 390.363281 1131.453125 390.363281 1140.722656 396.082031 1146.429688 C 398.929688 1149.277344 402.675781 1150.699219 406.421875 1150.699219 C 410.15625 1150.699219 413.902344 1149.277344 416.761719 1146.417969 L 419.832031 1143.347656 C 425.550781 1137.628906 425.535156 1128.375 419.832031 1122.65625 C 414.113281 1116.949219 404.855469 1116.949219 399.148438 1122.667969 "/>
<path style=" stroke:none;fill-rule:nonzero;fill:rgb(61.959839%,35.289001%,38.819885%);fill-opacity:1;" d="M 1046.28125 581.707031 L 1037.753906 581.707031 L 1037.753906 531.847656 C 1037.753906 525.945312 1034.214844 520.632812 1028.785156 518.363281 C 1023.355469 516.078125 1017.074219 517.277344 1012.882812 521.417969 L 897.550781 634.921875 C 894.753906 637.664062 893.175781 641.425781 893.175781 645.339844 C 893.175781 649.257812 894.753906 653.015625 897.550781 655.757812 L 1012.882812 769.265625 C 1017.074219 773.390625 1023.355469 774.605469 1028.785156 772.332031 C 1034.214844 770.0625 1037.753906 764.734375 1037.753906 758.847656 L 1037.753906 708.988281 L 1046.28125 708.988281 C 1078.75 708.988281 1105.171875 735.398438 1105.171875 767.882812 C 1105.171875 800.363281 1078.75 826.789062 1046.28125 826.789062 L 617.585938 826.789062 C 609.503906 826.789062 602.960938 833.34375 602.960938 841.410156 C 602.960938 849.480469 609.503906 856.03125 617.585938 856.03125 L 1046.28125 856.03125 C 1094.886719 856.03125 1134.417969 816.488281 1134.417969 767.882812 C 1134.417969 719.289062 1094.886719 679.742188 1046.28125 679.742188 L 1023.132812 679.742188 C 1015.0625 679.742188 1008.507812 686.28125 1008.507812 694.363281 L 1008.507812 723.949219 L 928.648438 645.339844 L 1008.507812 566.746094 L 1008.507812 596.328125 C 1008.507812 604.398438 1015.0625 610.953125 1023.132812 610.953125 L 1046.28125 610.953125 C 1132.8125 610.953125 1203.207031 681.347656 1203.207031 767.882812 C 1203.207031 854.414062 1132.8125 924.824219 1046.28125 924.824219 L 617.585938 924.824219 C 609.503906 924.824219 602.960938 931.363281 602.960938 939.445312 C 602.960938 947.511719 609.503906 954.066406 617.585938 954.066406 L 1046.28125 954.066406 C 1148.9375 954.066406 1232.453125 870.550781 1232.453125 767.882812 C 1232.453125 665.222656 1148.9375 581.707031 1046.28125 581.707031 "/>
<path style=" stroke:none;fill-rule:nonzero;fill:rgb(61.959839%,35.289001%,38.819885%);fill-opacity:1;" d="M 602.28125 880.003906 L 486.949219 766.511719 C 482.746094 762.371094 476.480469 761.15625 471.046875 763.441406 C 465.617188 765.726562 462.078125 771.039062 462.078125 776.929688 L 462.078125 826.789062 L 453.554688 826.789062 C 421.082031 826.789062 394.660156 800.363281 394.660156 767.894531 C 394.660156 735.410156 421.082031 708.988281 453.554688 708.988281 L 546.574219 708.988281 C 554.644531 708.988281 561.195312 702.445312 561.195312 694.363281 C 561.195312 686.296875 554.644531 679.742188 546.574219 679.742188 L 453.554688 679.742188 C 404.960938 679.742188 365.414062 719.289062 365.414062 767.894531 C 365.414062 816.5 404.960938 856.03125 453.554688 856.03125 L 476.699219 856.03125 C 480.578125 856.03125 484.300781 854.492188 487.039062 851.75 C 489.78125 849.007812 491.324219 845.289062 491.324219 841.410156 L 491.324219 811.839844 L 571.183594 890.421875 L 491.324219 969.027344 L 491.324219 939.445312 C 491.324219 931.363281 484.769531 924.824219 476.699219 924.824219 L 453.554688 924.824219 C 367.019531 924.824219 296.625 854.425781 296.625 767.894531 C 296.625 679.507812 368.402344 610.953125 430.15625 610.953125 L 628.460938 610.953125 C 636.527344 610.953125 643.082031 604.410156 643.082031 596.328125 C 643.082031 588.261719 636.527344 581.707031 628.460938 581.707031 L 430.15625 581.707031 C 353.324219 581.707031 267.378906 661.332031 267.378906 767.894531 C 267.378906 870.550781 350.898438 954.066406 453.554688 954.066406 L 462.078125 954.066406 L 462.078125 1003.925781 C 462.078125 1009.828125 465.617188 1015.140625 471.046875 1017.414062 C 472.875 1018.183594 474.792969 1018.550781 476.6875 1018.550781 C 480.460938 1018.550781 484.15625 1017.101562 486.949219 1014.34375 L 602.28125 900.851562 C 605.078125 898.097656 606.65625 894.351562 606.65625 890.421875 C 606.65625 886.503906 605.078125 882.757812 602.28125 880.003906 "/>
</g>
</svg>
