<svg width="1011" height="928" viewBox="0 0 1011 928" fill="none" xmlns="http://www.w3.org/2000/svg">
<g filter="url(#filter0_d)">
<path d="M485.714 910.524L19.9829 651.513C5.15993 643.686 -7.56396 630.835 6.89618 622.374L474.311 368.777C481.334 364.68 491.985 361.998 499.111 365.9L988.009 633.006C1002.83 641.101 1005.5 663.73 990.601 671.85L547.182 910.109C537.861 915.206 527.287 917.926 516.506 917.998C505.726 918.071 495.112 915.495 485.714 910.524Z" fill="#9E5A63"/>
<path d="M930.538 178.641V424L612.538 248.473V0L930.538 178.641Z" fill="#CFD2A8"/>
<path d="M649.822 622.173C654.142 619.168 659.112 617.033 664.403 615.91C669.695 614.788 675.186 614.702 680.516 615.66C692.579 618.081 703.032 624.997 715.253 626.697C717.211 626.956 724.947 626.495 726.147 627.533C760.347 657.071 664.759 653.901 664.759 653.901C655.475 646.956 646.759 640.155 637.538 633.123C640.349 627.475 645.054 625.227 649.822 622.173Z" fill="#F8997C"/>
<path d="M694.815 664.498L698.538 752.502C698.538 755.833 692.402 755.833 692.264 752.502L688.542 664.498C688.369 661.167 694.677 661.167 694.815 664.498Z" fill="#844040"/>
<path d="M622.408 711.598C639.975 696.35 656.757 680.433 672.753 663.848C675.174 661.331 679.125 664.978 676.863 667.495C660.889 684.061 644.107 699.978 626.518 715.245C623.842 717.563 619.731 714.029 622.408 711.598Z" fill="#844040"/>
<path d="M714.895 656.312C728.474 679.515 741.259 703.072 753.252 726.983C754.775 730.027 749.794 732.727 748.271 729.625C736.278 705.714 723.492 682.157 709.913 658.954C708.137 655.968 713.15 653.326 714.895 656.312Z" fill="#844040"/>
<path d="M638.522 630.581C644.328 637.664 652.496 642.929 661.859 645.625C675.04 649.145 694.206 647.499 701.114 635.378C713.849 613.379 701.879 585.817 715.186 564.414C716.739 561.697 718.917 559.302 721.578 557.384C724.238 555.467 727.322 554.071 730.628 553.287C739.255 551.641 745.177 557.318 748.297 564.017C753.901 576.024 753.709 590.983 753.423 603.757C753.412 614.093 752.561 624.414 750.876 634.64C750.876 634.64 742.821 677.559 679.974 666.035C669.106 664.302 658.658 660.902 649.092 655.986C644.162 653.53 639.832 650.219 636.357 646.25C632.664 641.368 635.211 635.52 638.522 630.581Z" fill="#CFD2A8"/>
<path d="M694.538 508.26L696.24 518H713.796L716.538 507" fill="#F7931E"/>
<path d="M595.316 672C595.316 672 595.82 679.809 593.138 681.988C590.457 684.167 575.911 678.112 572.062 680.262C568.212 682.412 586.639 698.059 593.138 698.908C599.638 699.757 605.759 691.466 605.759 691.466V703.237L613.111 707L618.538 704.171L616.929 672.057L595.316 672Z" fill="#FF9F9F"/>
<path d="M620.577 677.324C612.785 683.322 604.388 683.009 594.687 679.428C587.722 668.483 579.516 601.792 596.946 591.131C615.647 579.76 644.876 581.722 649.774 582.973L721.399 593.462C726.902 601.82 712.335 645.599 680.53 646.821C648.724 648.043 628.401 637.355 628.401 637.355L620.577 677.324Z" fill="#124577"/>
<path d="M648.33 494.252C651.747 495.594 654.572 497.898 656.373 500.809V501.036C661.447 504.726 662.213 511.425 667.575 514.746C667.575 514.746 672.617 518.039 672.681 518.152C672.745 518.266 672.202 511.993 672.202 512.049C673.958 516.307 675.649 520.565 677.149 524.879C676.912 525.015 676.654 525.12 676.383 525.192L676.958 525.447L677.436 525.703C677.502 525.918 677.622 526.118 677.788 526.285C677.954 526.452 678.161 526.583 678.394 526.668C678.594 527.298 678.586 527.965 678.37 528.591C678.155 529.217 677.741 529.774 677.179 530.196C676.617 530.619 675.93 530.888 675.2 530.972C674.47 531.056 673.729 530.951 673.064 530.67L656.82 523.602C654.65 523.193 652.516 522.643 650.437 521.956C650.437 520.451 650.181 518.947 650.022 517.443C648.742 515.681 647.973 513.665 647.784 511.575C647.594 509.484 647.99 507.385 648.937 505.464L648.649 505.208V505.038C647.306 504.201 646.163 503.136 645.286 501.903C644.41 500.67 643.817 499.295 643.543 497.857C643.415 495.785 645.745 493.173 648.33 494.252Z" fill="#F7931E"/>
<path d="M668.739 508C668.739 508 650.429 518.133 648.538 526.604C648.538 526.604 661.396 551.542 660.513 552.527C645.985 569.414 689.538 541.831 689.538 541.831C689.538 541.831 680.809 518.161 668.739 508Z" fill="#CFD2A8"/>
<path d="M668.739 508C668.739 508 650.429 518.133 648.538 526.604C648.538 526.604 661.396 551.542 660.513 552.527C645.985 569.414 689.538 541.831 689.538 541.831C689.538 541.831 680.809 518.161 668.739 508Z" fill="#FF9F9F"/>
<path d="M725.56 524.43C718.524 508.675 705.181 513.794 702.519 513.794C676.308 513.794 665.31 527.814 658.338 537.027C658.347 537.112 658.347 537.198 658.338 537.283C654.92 547.947 652.899 558.931 652.316 570.014C651.872 575.304 651.777 580.707 650.953 585.968C650.288 590.063 648.132 595.096 650.953 598.963C652.379 600.983 656.088 601.523 658.401 602.348C663.103 604.012 667.976 605.259 672.948 606.073C680.813 607.381 688.887 607.304 696.719 605.845C704.927 604.253 716.654 600.442 720.932 593.248C725.56 585.342 732.596 540.155 725.56 524.43Z" fill="#FF9F9F"/>
<path d="M680.14 477.704C680.14 478.11 677.414 503.316 683.564 508.856C689.715 514.396 706.106 512.104 710.164 505.955C714.222 499.806 719.2 491.887 714.856 482.49C710.513 473.092 680.869 471.496 680.14 477.704Z" fill="#F7931E"/>
<path d="M697.535 487.133C702.234 492.572 696.242 500.029 697.535 505.944C700.216 519.484 719.232 513.317 725.665 506.56C727.908 504.171 729.843 501.566 731.436 498.795C733.423 495.439 734.026 491.571 733.139 487.862C732.645 485.739 731.949 483.657 731.058 481.638C724.972 468.434 706.744 462.435 691.89 466.023C688.1 466.66 684.724 468.557 682.451 471.328C680.178 474.098 679.178 477.534 679.654 480.937C685.015 482.788 693.656 482.648 697.535 487.133Z" fill="#124577"/>
<path d="M693.191 496.887C692.995 496.453 692.937 495.978 693.025 495.516C693.112 495.053 693.341 494.624 693.685 494.277C695.526 492.183 698.085 490.723 700.945 490.135C702.242 489.852 703.606 490.017 704.78 490.597C705.953 491.178 706.853 492.134 707.309 493.284C709.163 498.957 699.277 500.518 695.23 501C694.517 501 693.834 500.74 693.33 500.277C692.825 499.814 692.542 499.187 692.542 498.532C692.523 498.232 692.57 497.931 692.682 497.648C692.794 497.365 692.967 497.106 693.191 496.887Z" fill="#F7931E"/>
<path d="M735.038 485C741.942 485 747.538 480.075 747.538 474C747.538 467.925 741.942 463 735.038 463C728.135 463 722.538 467.925 722.538 474C722.538 480.075 728.135 485 735.038 485Z" fill="#124577"/>
<path d="M679.538 559C679.538 559 675.015 601.968 671.029 604.379C667.043 606.79 648.538 601.401 648.538 601.401C648.538 601.401 670.554 589.461 679.538 559Z" fill="#DD6C6C"/>
<path d="M620.465 582.149C620.465 582.149 612.015 579.564 608.218 582.149C604.42 584.733 597.3 591.108 598.724 593.635C600.148 596.162 605.844 593.635 605.844 593.635C607.78 593.312 609.764 593.312 611.699 593.635C612.965 594.267 622.87 598.402 625.94 596.507C629.01 594.612 627.902 584.618 620.465 582.149Z" fill="#F7931E"/>
<path d="M655.752 548C655.752 548 648.932 566.451 642.522 569.2C636.133 571.143 629.559 572.557 622.883 573.424C620.141 581.007 619.069 588.997 619.726 596.948C636.271 600.633 656.257 601.596 663.267 596.353C673.434 588.785 680.538 554.179 680.538 554.179L655.752 548Z" fill="#FF9F9F"/>
<path d="M635.797 635.634C636.047 635.08 636.45 634.592 636.969 634.215C637.488 633.839 638.107 633.586 638.766 633.481C639.424 633.376 640.103 633.422 640.736 633.615C641.369 633.808 641.937 634.141 642.387 634.584C647.685 639.741 654.417 643.559 661.901 645.654C675.08 649.174 694.244 647.527 701.152 635.407C713.694 613.465 702.011 586.045 715.063 564.671C717.308 560.822 720.701 557.6 724.868 555.361C736.647 549.287 744.51 555.929 748.298 564.019C753.901 576.025 753.709 590.984 753.423 603.758C753.412 614.093 752.561 624.415 750.876 634.641C750.876 634.641 742.822 677.559 679.982 666.035C669.115 664.302 658.668 660.902 649.104 655.986C644.174 653.53 639.845 650.22 636.37 646.25C635.278 644.667 634.653 642.864 634.552 641.008C634.452 639.152 634.88 637.303 635.797 635.634Z" fill="#CFD2A8"/>
<path d="M485.822 707.989C490.142 705.061 495.112 702.981 500.403 701.887C505.695 700.793 511.187 700.71 516.516 701.643C528.579 704.002 539.032 710.74 551.253 712.397C553.211 712.65 560.947 712.201 562.147 713.211C596.347 741.992 500.759 738.904 500.759 738.904C491.475 732.137 482.759 725.51 473.538 718.659C476.38 713.127 481.117 710.937 485.822 707.989Z" fill="#F8997C"/>
<path d="M531.187 750.498L534.538 838.502C534.538 841.833 529.015 841.833 528.891 838.502L525.54 750.498C525.416 747.167 531.063 747.167 531.187 750.498Z" fill="#844040"/>
<path d="M458.342 797.527C475.931 781.988 492.732 765.767 508.747 748.864C511.172 746.299 515.127 750.016 512.862 752.581C496.869 769.464 480.067 785.685 462.457 801.244C459.905 803.606 455.79 799.89 458.342 797.527Z" fill="#844040"/>
<path d="M550.886 742.289C564.468 765.189 577.257 788.438 589.252 812.036C590.775 815.04 585.793 817.704 584.27 814.643C572.274 791.045 559.486 767.796 545.903 744.897C544.158 741.978 549.14 739.342 550.886 742.289Z" fill="#844040"/>
<path d="M474.522 716.256C480.328 723.4 488.496 728.711 497.859 731.431C511.04 734.981 530.206 733.321 537.114 721.094C549.849 698.904 537.878 671.102 551.186 649.514C552.739 646.772 554.917 644.356 557.578 642.422C560.238 640.489 563.322 639.08 566.627 638.29C575.255 636.629 581.177 642.356 584.297 649.113C589.901 661.224 589.71 676.314 589.423 689.198C589.412 699.624 588.561 710.035 586.876 720.35C586.876 720.35 578.821 763.642 515.974 752.017C505.106 750.269 494.658 746.84 485.092 741.882C480.162 739.404 475.832 736.065 472.357 732.061C468.664 727.136 471.211 721.266 474.522 716.256Z" fill="#CFD2A8"/>
<path d="M431.316 758C431.316 758 431.82 765.809 429.139 767.988C426.457 770.167 411.911 764.112 408.062 766.262C404.212 768.412 422.639 784.059 429.139 784.908C435.638 785.757 441.759 777.466 441.759 777.466V789.237L449.111 793L454.538 790.171L452.929 758.057L431.316 758Z" fill="#8787D1"/>
<path d="M456.577 763.324C448.785 769.322 440.388 769.009 430.687 765.428C423.722 754.483 415.516 687.792 432.946 677.131C451.647 665.76 480.876 667.722 485.774 668.973L557.399 679.462C562.902 687.82 548.335 731.599 516.53 732.821C484.724 734.043 464.401 723.355 464.401 723.355L456.577 763.324Z" fill="#124577"/>
<path d="M484.33 579.257C487.747 580.636 490.572 583.002 492.373 585.991V586.224C497.447 590.014 498.213 596.895 503.575 600.306C503.575 600.306 508.617 603.688 508.681 603.804C508.745 603.921 508.202 597.478 508.202 597.536C509.958 601.909 511.649 606.282 513.149 610.714C512.912 610.853 512.654 610.961 512.383 611.034L512.958 611.297L513.436 611.559C513.502 611.781 513.622 611.985 513.788 612.157C513.954 612.329 514.161 612.464 514.394 612.55C514.594 613.197 514.586 613.883 514.37 614.526C514.155 615.169 513.741 615.741 513.179 616.175C512.617 616.608 511.93 616.885 511.2 616.971C510.47 617.057 509.729 616.95 509.064 616.661L492.82 609.402C490.65 608.982 488.516 608.416 486.437 607.711C486.437 606.166 486.181 604.621 486.022 603.075C484.742 601.266 483.973 599.196 483.784 597.049C483.594 594.902 483.99 592.745 484.937 590.772L484.649 590.51V590.335C483.306 589.476 482.163 588.381 481.286 587.115C480.41 585.849 479.817 584.436 479.543 582.959C479.415 580.86 481.745 578.149 484.33 579.257Z" fill="#F7931E"/>
<path d="M504.739 593C504.739 593 486.429 603.335 484.538 611.977C484.538 611.977 497.396 637.413 496.514 638.417C481.985 655.643 525.538 627.508 525.538 627.508C525.538 627.508 516.746 603.364 504.739 593Z" fill="#CFD2A8"/>
<path d="M462.573 600.043C461.048 611.428 477.312 627.368 484.142 630.413C493.672 634.626 497.198 599.644 538.461 599.787C541.129 599.787 554.503 594.692 561.555 610.432C568.607 626.172 561.555 671.4 556.853 679.256C552.724 686.201 525.088 702.909 485.889 684.948L485.317 668.668C485.317 668.668 462.128 668.212 449.835 652.927C438.399 638.696 431.57 617.263 432.65 606.76C441.957 603.259 453.456 597.339 462.573 600.043Z" fill="#CFD2A8"/>
<path d="M504.739 593C504.739 593 486.429 603.335 484.538 611.977C484.538 611.977 497.396 637.413 496.514 638.417C481.985 655.643 525.538 627.508 525.538 627.508C525.538 627.508 516.746 603.364 504.739 593Z" fill="#8787D1"/>
<path d="M517.106 557.43C517.106 557.803 514.54 581.143 520.314 586.139C526.087 591.134 541.643 589.153 545.492 583.555C549.341 577.957 554.056 570.55 549.951 561.851C545.845 553.152 517.78 551.688 517.106 557.43Z" fill="#F7931E"/>
<path d="M435.415 610.083C435.544 610.202 435.696 610.299 435.866 610.369C435.737 613.837 435.629 617.314 435.544 620.801C435.544 622.545 438.569 622.316 438.602 620.572V620.115C439.024 620.205 439.468 620.148 439.845 619.957C440.222 619.766 440.502 619.455 440.63 619.086V618.743C440.87 618.84 441.136 618.875 441.397 618.845C441.659 618.814 441.906 618.72 442.11 618.572C442.541 618.523 442.933 618.329 443.205 618.029C443.363 618.207 443.563 618.354 443.79 618.457C444.018 618.561 444.269 618.619 444.524 618.629V619.858C444.524 621.373 447.357 621.544 447.55 620.001V618.915C448.001 620.058 450.383 620.058 450.512 618.686V617.171C450.699 617.126 450.874 617.048 451.027 616.942V617.2C451.078 617.514 451.25 617.802 451.514 618.016C451.778 618.229 452.117 618.355 452.474 618.372C452.83 618.389 453.182 618.296 453.47 618.108C453.758 617.92 453.964 617.65 454.052 617.343L454.246 616.657C454.418 616.74 454.607 616.791 454.803 616.807C454.998 616.823 455.195 616.804 455.381 616.75C455.568 616.697 455.74 616.61 455.888 616.496C456.036 616.382 456.156 616.242 456.241 616.085C458.309 612.482 459.948 608.699 461.134 604.795C461.654 603.433 461.673 601.959 461.186 600.587C460.7 599.215 459.735 598.016 458.43 597.163C458.298 597.05 458.141 596.962 457.97 596.903C457.799 596.844 457.616 596.816 457.432 596.82C457.625 594.963 457.851 593.076 458.108 591.104C458.417 589.793 458.632 588.466 458.752 587.131C459.059 586.187 458.99 585.178 458.559 584.273C458.205 582.929 457.368 581.758 455.598 582.043C452.861 582.501 451.767 586.102 451.091 588.074C450.377 590.035 449.786 592.029 449.321 594.048C448.976 593.713 448.56 593.441 448.097 593.248C447.305 593.004 446.449 592.978 445.64 593.171C444.831 593.365 444.106 593.77 443.559 594.334L443.333 594.591C443 594.261 442.609 593.981 442.175 593.762C441.492 593.384 440.696 593.198 439.892 593.228C439.087 593.259 438.312 593.505 437.668 593.934C436.86 594.491 436.292 595.278 436.059 596.163C435.526 595.978 434.955 595.897 434.383 595.926C433.812 595.956 433.255 596.095 432.75 596.334C432.246 596.573 431.805 596.906 431.459 597.311C431.114 597.716 430.871 598.182 430.747 598.678C429.75 602.565 432.486 607.224 435.415 610.083ZM447.969 596.22H447.067C447.019 596.099 446.954 595.984 446.874 595.877C447.005 595.823 447.148 595.796 447.293 595.796C447.437 595.796 447.58 595.823 447.711 595.877L447.969 596.22Z" fill="#F7931E"/>
<path d="M525.265 572.32C525.063 571.925 525 571.489 525.082 571.065C525.164 570.64 525.388 570.244 525.728 569.923C527.566 568.009 530.116 566.673 532.965 566.132C534.243 565.867 535.592 566.004 536.76 566.517C537.928 567.03 538.834 567.884 539.31 568.919C541.16 574.049 531.279 575.554 527.215 576C526.508 575.993 525.832 575.753 525.332 575.331C524.831 574.909 524.547 574.339 524.538 573.742C524.549 573.206 524.81 572.695 525.265 572.32Z" fill="#FFE8E6"/>
<path d="M462.573 600.043C461.048 611.428 477.312 627.368 484.142 630.413C493.672 634.626 497.198 599.644 538.461 599.787C541.129 599.787 554.503 594.692 561.555 610.432C568.607 626.172 561.555 671.4 556.853 679.256C552.724 686.201 525.088 702.909 485.889 684.948L485.317 668.668C485.317 668.668 462.128 668.212 449.835 652.927C438.399 638.696 431.57 617.263 432.65 606.76C441.957 603.259 453.456 597.339 462.573 600.043Z" fill="#8787D1"/>
<path d="M465.954 664.248C476.629 667.701 488.281 667.826 499.045 664.604C509.808 661.381 519.06 654.998 525.319 646.475C526.142 645.334 528.168 646.475 527.345 647.53C520.822 656.446 511.17 663.134 499.933 666.526C488.695 669.919 476.52 669.819 465.352 666.245C463.927 665.845 464.529 663.791 465.954 664.248Z" fill="white"/>
<path d="M489.632 626.675C491.681 622.188 494.72 618.158 498.55 614.852C502.916 611.105 508.366 608.723 512.918 605.208C513.847 604.511 515.147 605.731 514.218 606.428C509.883 609.74 504.929 612.035 500.563 615.462C496.532 618.78 493.356 622.912 491.273 627.547C490.746 628.563 489.136 627.692 489.632 626.675Z" fill="white"/>
<path d="M516.848 561.055L525.065 564.967C525.065 564.967 518.72 586.857 516.816 592.611C514.913 598.364 522.527 606.447 547.303 606.993C572.08 607.54 570.811 573.596 565.101 560.968C559.39 548.34 542.227 542.529 528.269 545.981C524.568 546.638 521.299 548.584 519.163 551.403C517.028 554.221 516.196 557.687 516.848 561.055Z" fill="#FFAE2C"/>
<path d="M471.797 721.353C472.047 720.794 472.45 720.302 472.969 719.922C473.488 719.542 474.107 719.287 474.766 719.181C475.424 719.075 476.103 719.121 476.736 719.316C477.369 719.511 477.938 719.847 478.387 720.293C483.686 725.495 490.417 729.347 497.901 731.46C511.08 735.01 530.244 733.349 537.152 721.124C549.694 698.991 538.011 671.333 551.063 649.773C553.308 645.89 556.701 642.64 560.868 640.382C572.647 634.254 580.51 640.954 584.298 649.114C589.9 661.226 589.709 676.315 589.423 689.199C589.412 699.625 588.561 710.036 586.876 720.351C586.876 720.351 578.822 763.642 515.982 752.017C505.116 750.269 494.668 746.84 485.104 741.882C480.174 739.404 475.845 736.065 472.37 732.061C471.278 730.465 470.653 728.645 470.552 726.773C470.452 724.901 470.88 723.036 471.797 721.353Z" fill="#CFD2A8"/>
<path d="M773.151 143.728L700.817 104.214C700.195 103.795 699.762 103.173 699.604 102.472C699.446 101.77 699.574 101.039 699.963 100.42C700.352 99.8021 700.973 99.3417 701.706 99.1293C702.439 98.9168 703.23 98.9676 703.925 99.2716L776.259 138.786C776.881 139.205 777.314 139.827 777.472 140.528C777.63 141.23 777.502 141.961 777.113 142.58C776.725 143.198 776.103 143.658 775.37 143.871C774.637 144.083 773.846 144.032 773.151 143.728Z" fill="#FFBE30"/>
<path d="M773.162 157.735L701.021 119.239C700.675 119.046 700.373 118.793 700.134 118.493C699.894 118.194 699.722 117.854 699.626 117.494C699.53 117.133 699.512 116.759 699.575 116.392C699.637 116.026 699.777 115.674 699.988 115.357C700.198 115.04 700.475 114.764 700.802 114.545C701.13 114.326 701.501 114.168 701.895 114.08C702.289 113.992 702.698 113.977 703.098 114.033C703.499 114.09 703.883 114.219 704.23 114.411L776.262 152.907C776.883 153.317 777.315 153.924 777.472 154.609C777.63 155.294 777.502 156.009 777.115 156.613C776.727 157.217 776.107 157.666 775.376 157.874C774.645 158.081 773.856 158.032 773.162 157.735Z" fill="#053855"/>
<path d="M773.162 171.759L701.021 133.242C700.675 133.049 700.373 132.796 700.134 132.496C699.894 132.196 699.722 131.856 699.626 131.496C699.53 131.135 699.512 130.761 699.575 130.394C699.637 130.027 699.777 129.675 699.988 129.358C700.198 129.041 700.475 128.765 700.802 128.545C701.13 128.326 701.501 128.168 701.895 128.08C702.289 127.992 702.698 127.976 703.098 128.033C703.499 128.09 703.883 128.219 704.23 128.412L776.262 166.904C776.883 167.314 777.315 167.921 777.472 168.607C777.63 169.293 777.502 170.008 777.115 170.612C776.727 171.216 776.107 171.666 775.376 171.874C774.645 172.081 773.856 172.032 773.162 171.735V171.759Z" fill="#FF9F9F"/>
<path d="M773.162 186.749L701.021 146.48C700.321 146.073 699.82 145.416 699.626 144.655C699.432 143.893 699.562 143.089 699.988 142.42C700.413 141.75 701.099 141.269 701.895 141.084C702.69 140.898 703.53 141.023 704.23 141.43L776.262 181.673C776.883 182.101 777.315 182.736 777.472 183.453C777.63 184.17 777.502 184.917 777.115 185.549C776.727 186.18 776.107 186.651 775.376 186.868C774.645 187.085 773.856 187.033 773.162 186.722V186.749Z" fill="white"/>
<path d="M640.341 111.594C633.884 94.2528 637.996 77.1369 649.524 73.3651C661.053 69.5932 675.633 80.5937 682.09 97.9354C688.547 115.277 684.435 132.393 672.906 136.165C661.378 139.937 646.798 128.936 640.341 111.594Z" fill="white"/>
<path d="M661.538 104V68.6565C661.538 68.6565 641.47 62.33 635.538 88.956L661.538 104Z" fill="#053855"/>
<path d="M661.538 105.311L642.983 123C642.983 123 634.394 116.168 635.667 89L661.538 105.311Z" fill="#FF9F9F"/>
<path d="M642.538 150.811V237.189C642.538 238.2 642.169 239.169 641.513 239.884C640.857 240.599 639.966 241 639.038 241C638.11 241 637.22 240.599 636.563 239.884C635.907 239.169 635.538 238.2 635.538 237.189V150.811C635.538 149.8 635.907 148.831 636.563 148.116C637.22 147.401 638.11 147 639.038 147C639.966 147 640.857 147.401 641.513 148.116C642.169 148.831 642.538 149.8 642.538 150.811Z" fill="#FFEED9"/>
<path d="M660.538 176.92V247.08C660.538 248.12 660.011 249.117 659.074 249.852C658.136 250.587 656.864 251 655.538 251C654.212 251 652.94 250.587 652.003 249.852C651.065 249.117 650.538 248.12 650.538 247.08V176.92C650.538 175.88 651.065 174.883 652.003 174.148C652.94 173.413 654.212 173 655.538 173C656.864 173 658.136 173.413 659.074 174.148C660.011 174.883 660.538 175.88 660.538 176.92Z" fill="#FFEED9"/>
<path d="M678.538 212.9V257.1C678.538 258.134 678.064 259.126 677.22 259.858C676.376 260.589 675.232 261 674.038 261C672.845 261 671.7 260.589 670.856 259.858C670.012 259.126 669.538 258.134 669.538 257.1V212.9C669.538 211.866 670.012 210.874 670.856 210.142C671.7 209.411 672.845 209 674.038 209C675.232 209 676.376 209.411 677.22 210.142C678.064 210.874 678.538 211.866 678.538 212.9Z" fill="#FFEED9"/>
<path d="M906.144 370C907.765 364.344 906.144 254.974 866.361 246.654C826.579 238.335 832.87 344.332 813.638 306.285C794.406 268.239 825.754 230.903 789.516 228.24C753.278 225.577 766.493 304.332 746.08 284.041C725.666 263.75 735.09 214.975 711.215 215C687.34 215.025 693.164 262.177 693.164 262.177" stroke="#FFEED9" stroke-width="1.015" stroke-miterlimit="10"/>
<path d="M376.348 566.353C376.348 560.246 376.031 554.107 375.961 548L405.428 553.271C405.428 553.271 403.949 563.685 407.188 567.414C410.427 571.142 434.965 582.103 437.887 585.574C440.809 589.046 441.689 595.571 424.439 594.96C407.188 594.349 393.423 583.421 389.62 582.617C385.818 581.814 378.002 580.849 375.538 579.242C375.714 574.967 376.348 570.628 376.348 566.353Z" fill="#2A343D"/>
<path d="M480.948 227.805C485.842 221.504 490.311 214.929 494.329 208.118C495.997 203.904 487.378 198.468 479.419 198.018C471.459 197.567 470.591 205.931 470.591 205.931C469.578 205.661 468.494 205.733 467.533 206.133C466.572 206.534 465.795 207.237 465.342 208.118C463.396 211.335 468.262 221.179 468.818 221.468L459.538 231.987L475.005 239L480.948 227.805Z" fill="#EF986C"/>
<path d="M326.348 573.744C326.348 567.507 326.031 561.237 325.961 555L355.428 560.383C355.428 560.383 353.949 571.019 357.188 574.827C360.427 578.635 384.965 589.829 387.887 593.374C390.809 596.919 391.689 603.583 374.439 602.959C357.188 602.335 343.423 591.174 339.62 590.354C335.818 589.533 328.002 588.548 325.538 586.907C325.714 582.541 326.383 578.11 326.348 573.744Z" fill="#2A343D"/>
<path d="M339.738 308.518L354.726 311.018C354.598 309.288 354.598 307.553 354.726 305.823C357.873 305.661 361.019 305.401 364.13 305.044C372.897 304.07 380.108 295.987 388.345 293C391.88 308.615 392.87 342.703 397.006 367.474C402.273 398.834 418.216 544.373 413.762 556.449C413.762 556.449 413.939 560.8 386.542 562.196C386.542 562.196 380.002 565.637 370.422 553.235L360.736 398.25L365.19 564.533C356.918 571.513 344.475 574.759 321.638 564.273L310.538 353.709L339.738 308.518Z" fill="#35406E"/>
<path d="M362.544 298.451C360.209 298.688 357.874 298.871 355.538 299C357.395 269.629 367.309 204.013 388.538 292.803C380.224 295.857 371.464 297.761 362.544 298.451Z" fill="#35406E"/>
<path d="M323.656 427.909C324.37 422.86 323.234 417.735 320.43 413.353C317.627 408.971 313.317 405.585 308.19 403.737C289.736 396.872 290.122 426.12 290.122 426.12L280.878 422.867C280.878 422.867 275.464 391.96 307.874 394.107C340.283 396.254 335.256 431 335.256 431L323.656 427.909Z" fill="#CE4823"/>
<path d="M298.101 385.157L298.344 384.083C298.266 383.728 298.266 383.363 298.344 383.009L302.327 356.973C302.359 356.577 302.519 356.2 302.785 355.892C303.051 355.584 303.411 355.359 303.816 355.248C303.917 353.697 304.184 352.16 304.613 350.659C305.629 349.686 306.944 349.036 308.373 348.803C309.803 348.569 311.274 348.763 312.58 349.357C313.931 347.99 316.84 347.763 317.221 350.106C317.602 352.449 318.087 355.704 318.503 358.535L318.745 357.624C318.816 357.322 318.951 357.038 319.142 356.786C319.332 356.535 319.574 356.321 319.854 356.159C320.512 354.076 321.031 351.928 321.585 349.846C322.382 346.591 327.543 348.023 326.746 351.18C326.469 352.243 326.192 353.328 325.915 354.434C327.82 353.914 330.176 355.183 329.379 357.331C326.184 364.871 324.177 372.809 323.421 380.893C324.703 385.807 325.777 390.657 326.643 395.766C327.162 398.858 327.889 403.056 323.698 404.13C323.348 404.239 322.978 404.28 322.611 404.25C322.244 404.22 321.887 404.12 321.562 403.955C321.238 403.79 320.952 403.565 320.724 403.293C320.496 403.021 320.329 402.708 320.235 402.373C319.426 399.01 318.768 395.625 318.26 392.219C317.868 393.477 317.452 394.725 317.013 395.961C316.191 398.609 315.196 401.207 314.034 403.74C313.342 405.139 312.372 406.343 310.571 406.311C310.039 406.338 309.509 406.243 309.026 406.033C308.543 405.823 308.122 405.505 307.8 405.106C307.497 405.826 306.91 406.408 306.16 406.729C305.411 407.051 304.559 407.087 303.782 406.831C301.426 406.18 300.838 403.837 300.872 401.396C294.118 398.663 296.993 390.526 298.101 385.157Z" fill="#EF986C"/>
<path d="M298.429 343.601C300.134 326.795 302.982 310.105 306.956 293.631C310.01 280.472 313.273 258.541 318.537 245.902C322.643 236.155 333.101 232.906 344.998 231.022C357.011 229.063 369.193 228.128 381.39 228.227C381.894 228.25 382.396 228.173 382.864 228C383.812 228 384.76 228.325 385.707 228.552C389.216 229.397 392.936 239.209 393.954 242.036C395.736 247.509 396.809 253.158 397.148 258.866C398.586 274.006 395.709 288.692 394.024 303.67C393.322 310.168 395.463 320.598 389.532 325.374C384.584 329.37 376.056 331.189 369.774 332.067C358.48 333.442 347.008 332.858 335.944 330.345L328.925 374.077C315.835 378.788 298.569 373.362 298.569 373.362C297.243 363.482 297.196 353.491 298.429 343.601Z" fill="#CE4823"/>
<path d="M351.433 448.329C351.414 445.628 350.668 442.974 349.262 440.606C347.856 438.239 345.834 436.232 343.379 434.768C324 423.321 276.064 395.484 273.039 398.183C269.1 401.435 261.187 464.654 264.212 466.801C266.498 468.394 314.891 491.061 338.631 502.117C339.988 502.751 341.498 503.052 343.016 502.993C344.535 502.933 346.012 502.515 347.306 501.778C348.6 501.041 349.669 500.01 350.41 498.783C351.15 497.556 351.539 496.173 351.538 494.768L351.433 448.329Z" fill="#CE4823"/>
<path d="M382.285 228.119C382.285 228.119 386.122 250 363.905 250C341.689 250 340.538 232.183 340.538 232.183C354.143 228.937 368.22 227.567 382.285 228.119Z" fill="#F2F2F2"/>
<path d="M385.538 228.573C385.538 228.573 417.219 247.848 432.708 250.643C445.45 252.828 461.608 219 461.608 219L483.538 230.34C483.538 230.34 466.606 280.391 439.677 284.503C412.749 288.615 385.538 265.87 385.538 265.87" fill="#CE4823"/>
<path d="M354.538 223C354.743 223.572 354.538 230.124 354.538 230.124L364.392 232H374.656L376.538 225.099" fill="#DB784D"/>
<path d="M351.076 225.726C351.076 225.726 357.697 231.409 363.656 231.851C368.695 232.23 374.69 226.736 376.53 225C376.643 230.372 375.634 235.719 373.55 240.786C372.557 242.238 371.601 243.185 370.939 242.964C368.621 242.175 364.281 236.871 364.281 236.871C364.281 236.871 359.426 243.185 357.366 242.996C355.306 242.806 348.538 232.514 348.538 232.514L351.076 225.726Z" fill="#35406E"/>
<path d="M337.406 181.991C338.785 180.29 340.778 179.079 343.039 178.568C345.301 178.058 347.689 178.281 349.789 179.197C349.87 179.032 349.979 178.878 350.112 178.743C352.696 176.209 353.701 173.513 357.864 172.506C361.542 171.726 365.383 171.85 368.99 172.863C372.438 173.709 375.379 175.752 377.173 178.548C377.473 178.378 377.825 178.299 378.178 178.32C382.094 178.456 385.794 179.979 388.48 182.562C391.166 185.145 392.622 188.58 392.534 192.126C392.211 198.233 386.899 205.119 379.937 205.476C376.592 206.557 373.031 206.978 369.493 206.711C368.74 206.648 368.019 206.404 367.406 206.003C366.793 205.603 366.309 205.062 366.005 204.435C365.701 203.809 365.588 203.12 365.677 202.441C365.767 201.761 366.055 201.116 366.514 200.571L366.011 200.279H365.616C365.038 200.859 364.248 201.231 363.391 201.327C362.534 201.422 361.667 201.235 360.951 200.799L360.376 200.474C359.508 200.288 358.666 200.016 357.864 199.662L356.895 199.954L357.218 200.864C357.448 201.629 357.394 202.441 357.063 203.175C356.732 203.909 356.143 204.524 355.387 204.924C354.641 205.226 353.836 205.392 353.019 205.411C354.891 207.827 357.346 209.826 360.197 211.258C364.001 212.98 361.848 217.755 358.366 217.755C360.053 218.892 359.407 225.908 357.433 224.901C352.504 222.446 348.196 219.085 344.784 215.036C341.373 210.986 338.933 206.336 337.622 201.384C336.15 196.803 333.889 185.986 337.406 181.991Z" fill="#2A343D"/>
<path d="M382.171 195.635C383.13 195.635 383.165 225.747 369.856 227.766C353.07 230.281 346.788 211.717 346.788 211.717C346.788 211.717 344.339 197.951 354.773 193.352C365.207 188.752 370.176 197.521 382.171 195.635Z" fill="#EF986C"/>
<path d="M381.538 196.014C381.538 196.014 368.705 198.269 361.858 196.014C355.011 193.759 364.851 214.706 359.759 214.706C354.667 214.706 354.977 203.367 351.123 207.615C347.27 211.863 356.972 225 356.972 225C356.972 225 343.21 218.464 339.976 207.059C336.741 195.655 352.018 184.969 366.64 186.08C381.263 187.191 381.538 196.014 381.538 196.014Z" fill="#2A343D"/>
<path d="M111.39 529.042C97.8033 546.643 91.1693 568.713 92.7736 590.974C95.2539 627.148 115.403 637.649 115.403 637.649L139.398 639C139.398 639 167.936 629.598 164.201 582.557C160.718 538.388 146.477 528 146.477 528" fill="#CFD2A8"/>
<path d="M129.538 535C139.479 535 147.538 532.09 147.538 528.5C147.538 524.91 139.479 522 129.538 522C119.597 522 111.538 524.91 111.538 528.5C111.538 532.09 119.597 535 129.538 535Z" fill="#003B94"/>
<path d="M129.538 640C139.479 640 147.538 637.09 147.538 633.5C147.538 629.91 139.479 627 129.538 627C119.597 627 111.538 629.91 111.538 633.5C111.538 637.09 119.597 640 129.538 640Z" fill="#CFD2A8"/>
<path d="M122.503 530.327L100.723 406.588C100.24 403.776 96.0944 405.042 96.5771 407.713L118.357 531.452C118.812 534.152 122.958 533.027 122.503 530.327Z" fill="#007F68"/>
<path d="M125.538 530.649C126.224 530.518 126.93 530.518 127.616 530.649C128.498 530.875 129.291 531.344 129.898 532C131.693 497.389 132.014 462.759 130.864 428.11C130.864 425.297 126.328 425.297 126.445 428.11C127.655 462.234 127.352 496.413 125.538 530.649Z" fill="#007F68"/>
<path d="M174.263 410.44C158.179 449.32 144.26 489.063 132.572 529.484C132.478 530.01 132.583 530.552 132.868 531.003C133.153 531.454 133.597 531.783 134.111 531.924C134.626 532.065 135.175 532.008 135.65 531.765C136.125 531.522 136.492 531.11 136.679 530.61C148.368 490.189 162.286 450.446 178.371 411.565C179.411 408.948 175.304 407.935 174.263 410.44Z" fill="#007F68"/>
<path d="M104.922 457.396C104.922 457.396 102.649 457.113 92.7361 446.329C82.8235 435.544 95.4744 427.449 89.6145 415.193C83.7545 402.937 91.9694 387.143 93.8041 375C94.918 383.498 97.8964 391.621 102.512 398.748C109.987 409.815 114.15 419.779 113.465 433.818C112.906 442.683 111.428 451.461 109.056 460" fill="#007F68"/>
<path d="M127.166 476.361C127.166 476.361 124.958 475.515 117.627 462.597C110.295 449.679 124.845 444.996 122.014 431.824C119.183 418.652 131.185 405.282 135.969 394C134.98 402.483 135.948 411.078 138.8 419.132C143.612 431.683 145.367 442.401 141.178 455.799C138.462 464.227 134.846 472.341 130.393 480" fill="#007F68"/>
<path d="M156.917 453.743C156.917 453.743 154.929 452.474 150.384 438.35C145.839 424.225 161.092 422.59 161.036 409.142C160.979 395.694 175.522 385.065 182.538 375C179.855 383.12 179.077 391.741 180.266 400.204C182.396 413.483 181.913 424.309 175.039 436.517C170.64 444.21 165.421 451.412 159.473 458" fill="#007F68"/>
</g>
<defs>
<filter id="filter0_d" x="0.538086" y="0" width="1010" height="928" filterUnits="userSpaceOnUse" color-interpolation-filters="sRGB">
<feFlood flood-opacity="0" result="BackgroundImageFix"/>
<feColorMatrix in="SourceAlpha" type="matrix" values="0 0 0 0 0 0 0 0 0 0 0 0 0 0 0 0 0 0 127 0" result="hardAlpha"/>
<feOffset dx="5" dy="5"/>
<feGaussianBlur stdDeviation="2.5"/>
<feColorMatrix type="matrix" values="0 0 0 0 0 0 0 0 0 0 0 0 0 0 0 0 0 0 0.25 0"/>
<feBlend mode="normal" in2="BackgroundImageFix" result="effect1_dropShadow"/>
<feBlend mode="normal" in="SourceGraphic" in2="effect1_dropShadow" result="shape"/>
</filter>
</defs>
</svg>
