<svg width="1011" height="928" viewBox="0 0 1011 928" fill="none" xmlns="http://www.w3.org/2000/svg">
<g filter="url(#filter0_d)">
<path d="M520.639 481C525.609 481 529.639 476.97 529.639 472C529.639 467.029 525.609 463 520.639 463C515.668 463 511.639 467.029 511.639 472C511.639 476.97 515.668 481 520.639 481Z" fill="#F6F7F9"/>
<path d="M545.639 481C551.162 481 555.639 476.97 555.639 472C555.639 467.029 551.162 463 545.639 463C540.116 463 535.639 467.029 535.639 472C535.639 476.97 540.116 481 545.639 481Z" fill="#F6F7F9"/>
<path d="M570.139 481C574.833 481 578.639 476.97 578.639 472C578.639 467.029 574.833 463 570.139 463C565.444 463 561.639 467.029 561.639 472C561.639 476.97 565.444 481 570.139 481Z" fill="#F6F7F9"/>
<path d="M485.714 910.524L19.9829 651.513C5.15993 643.686 -7.56396 630.835 6.89618 622.374L474.311 368.777C481.334 364.68 491.985 361.998 499.111 365.899L988.009 633.005C1002.83 641.101 1005.5 663.73 990.601 671.85L547.182 910.109C537.861 915.206 527.287 917.926 516.506 917.998C505.726 918.071 495.112 915.495 485.714 910.524Z" fill="#9E5A63"/>
<path d="M457.78 459L518.603 487.868C520.896 488.954 522.845 490.634 524.241 492.73C525.637 494.825 526.428 497.255 526.527 499.76C526.627 502.265 526.032 504.749 524.807 506.945C523.581 509.142 521.771 510.968 519.572 512.227L375.414 595.112C372.298 596.908 368.599 597.449 365.089 596.621C361.578 595.793 358.528 593.66 356.576 590.668L321.538 536.98" fill="#56403D"/>
<path d="M126.401 319.631L611.724 43.8821C615.053 41.9907 618.828 40.9967 622.669 40.9999C626.511 41.003 630.284 42.0033 633.61 43.9002C636.935 45.797 639.696 48.5236 641.614 51.806C643.532 55.0883 644.541 58.8108 644.538 62.5993V349.289C644.54 352.44 643.701 355.536 642.106 358.266C640.51 360.996 638.215 363.264 635.449 364.842L118.148 659.44C116.374 660.454 114.362 660.992 112.312 661C110.262 661.008 108.245 660.485 106.464 659.485C104.682 658.485 103.197 657.042 102.158 655.299C101.118 653.557 100.56 651.576 100.538 649.555V363.788C100.535 354.836 102.924 346.041 107.464 338.289C112.005 330.537 118.536 324.101 126.401 319.631Z" fill="#CFD2A8"/>
<path d="M611.953 66.4508L141.09 333.203C136.057 336.053 131.877 340.16 128.971 345.11C126.065 350.059 124.536 355.676 124.538 361.393V576.277C124.544 578.333 125.097 580.352 126.143 582.131C127.189 583.911 128.69 585.389 130.497 586.419C132.303 587.449 134.353 587.994 136.44 588C138.528 588.006 140.581 587.473 142.394 586.453L622.62 315.024C624.392 314.025 625.869 312.588 626.907 310.856C627.944 309.124 628.507 307.156 628.538 305.145V75.9024C628.538 73.9904 628.028 72.1119 627.058 70.4555C626.089 68.7991 624.694 67.4231 623.013 66.4655C621.333 65.5079 619.427 65.0025 617.485 64.9999C615.544 64.9973 613.636 65.4977 611.953 66.4508Z" fill="white"/>
<path d="M426.019 461.855C427.241 455.607 423.734 449.689 418.187 448.637C412.64 447.585 407.152 451.797 405.931 458.046C404.709 464.294 408.215 470.212 413.763 471.264C419.31 472.316 424.797 468.104 426.019 461.855Z" fill="#AB643C"/>
<path d="M136.538 137.802V288L355.538 164.283V17.9999L136.538 137.802Z" fill="#CFD2A8"/>
<path d="M122.538 283.416C123.21 272.007 122.773 260.431 124.755 249.122C126.904 236.841 132.109 228.62 139.195 218.688C139.834 217.782 140.841 216.104 141.983 214.325C142.514 213.501 143.207 212.792 144.02 212.243C144.834 211.694 145.75 211.315 146.714 211.13C147.678 210.945 148.669 210.957 149.628 211.166C150.587 211.375 151.494 211.776 152.293 212.346C159.446 217.446 170.361 226.405 168.279 232.479C165.256 241.27 158.808 230.029 158.808 230.029C158.808 230.029 168.883 241.908 165.256 245.968C161.629 250.028 154.711 241.237 154.711 241.237C154.711 241.237 166.431 254.659 161.73 258.786C157.028 262.914 150.614 252.344 150.614 252.344C150.614 252.344 154.476 266.974 145.509 271.068V286" fill="#FFAC73"/>
<path d="M341.653 209C341.653 209 314.16 307.593 310.085 321.857C306.009 336.121 278.716 360.984 278.716 360.984L236.09 381.026C235.326 380.723 234.589 380.359 233.885 379.937C232.616 399.979 229.977 419.922 227.538 439.865C258.807 441.267 289.57 431.7 314.394 412.856C373.423 369.206 380.538 227.127 380.538 227.127L341.653 209Z" fill="#4B1B13"/>
<path d="M233.744 535.955C245.189 530.133 256.303 523.982 267.847 518.325C285.994 509.411 298.965 497.997 316.315 487.603C316.693 486.835 316.951 486.015 317.078 485.169C317.841 479.15 324.94 374.289 299.097 364.849C273.985 355.672 246.019 364.454 219.479 374.98C213.812 378.946 208.959 383.947 205.181 389.716C196.788 403.07 196.655 419.516 196.091 434.745C194.864 468.032 196.091 521.581 195.892 555C205.911 550.79 224.157 540.823 233.744 535.955Z" fill="#4B1B13"/>
<path d="M288.522 305.453C293.015 300.185 295.968 293.802 297.063 286.993C299.632 274.444 291.558 257.271 278.046 257.007C264.534 256.743 261.131 263.909 261.131 263.909C261.131 263.909 210.484 260.045 206.681 299.41C206.347 310.374 204.278 350.201 237.475 355.551C270.673 360.901 254.524 316.649 254.524 316.649" fill="#4B1B13"/>
<path d="M285.902 295C285.902 295 288.313 320.112 289.25 329.44C290.389 339.224 288.815 366.26 272.106 366.978C255.397 367.695 236.478 350.671 236.043 346.236C236.043 346.236 218.229 337.691 226.935 328.918C235.641 320.145 237.683 333.353 237.683 333.353C237.683 333.353 242.103 325.559 240.463 305.991C256.35 306.389 272.052 302.591 285.902 295Z" fill="#FFAC73"/>
<path d="M239.694 372.214C248.881 379.022 262.728 379.12 275.21 376.109C276.13 375.924 276.96 375.439 277.564 374.732C278.169 374.025 278.512 373.137 278.538 372.214C278.372 368.384 278.205 364.555 278.172 360.693L232.538 344L238.629 370.97C238.629 370.97 239.162 371.461 239.694 372.214Z" fill="#FFAC73"/>
<path d="M270.091 377C271.814 376.71 273.47 376.387 275.159 376C276.085 375.851 276.928 375.399 277.545 374.723C278.161 374.046 278.512 373.186 278.538 372.29C278.538 370.322 278.335 368.355 278.268 366.387C268.908 367.322 252.047 366.742 241.538 351C243.346 357.415 246.965 363.232 252 367.817C257.035 372.403 263.293 375.579 270.091 377Z" fill="#E5894A"/>
<path d="M234.747 362.109C238.408 364.316 242.136 366.36 245.898 368.339C251.225 371.298 256.852 373.723 262.691 375.575C267.527 377.003 275.924 379.015 278.577 373.141C278.783 372.069 278.783 370.969 278.577 369.897C278.452 368.602 278.452 367.298 278.577 366.003C278.577 366.003 278.375 365.808 278.577 365.743C280.886 364.337 282.819 362.425 284.219 360.162C284.219 360.162 284.219 360.162 284.219 360C284.219 360 297.15 392.968 295.37 394.558C293.59 396.147 279.45 388.717 279.45 388.717C279.45 388.717 273.875 400.723 271.557 401.956C269.24 403.189 237.971 378.203 233.538 370.967L234.747 362.109Z" fill="#D4DEE8"/>
<path d="M282.298 397.135C283.951 401.274 283.951 405.817 282.298 409.956C282.298 409.956 276.633 412.355 275.594 411.955C271.8 408.839 268.424 405.319 265.538 401.47C265.907 400.917 271.169 392 271.169 392L282.298 397.135Z" fill="#F47A63"/>
<path d="M300.538 499.807C298.729 487.039 281.475 410 281.475 410L274.775 412.15L267.538 518C277.086 513.237 291.124 505.132 300.538 499.807Z" fill="#F47A63"/>
<path d="M273.621 322.984C272.934 315.824 276.597 309.583 281.797 309.038C286.998 308.492 291.609 313.88 292.427 321.041C293.245 328.201 289.451 334.442 284.25 334.987H283.956C278.887 335.294 274.275 330.009 273.621 322.984ZM281.961 310.947C277.775 311.391 274.831 316.71 275.42 322.814C276.008 328.918 279.835 333.589 284.054 333.043C288.273 332.498 291.184 327.281 290.595 321.177C290.007 315.073 286.278 310.606 282.19 310.947H281.961Z" fill="#42210B"/>
<path d="M252.475 339.128C250.285 336.9 248.926 334.046 248.609 331.007C248.293 327.968 249.037 324.915 250.725 322.32C251.488 321.145 252.52 320.149 253.744 319.408C254.967 318.666 256.352 318.199 257.792 318.04C263.505 317.504 268.756 322.446 269.449 329.024C269.811 332.065 269.064 335.132 267.336 337.711C266.573 338.887 265.541 339.883 264.317 340.624C263.093 341.365 261.709 341.833 260.269 341.992H259.872C258.496 342.046 257.124 341.818 255.848 341.324C254.572 340.83 253.422 340.081 252.475 339.128ZM257.957 319.802C256.79 319.936 255.67 320.32 254.681 320.925C253.691 321.53 252.858 322.341 252.244 323.296C250.754 325.532 250.113 328.187 250.428 330.818C250.65 333.459 251.816 335.948 253.73 337.869C254.509 338.715 255.488 339.371 256.587 339.785C257.685 340.198 258.871 340.355 260.046 340.245C261.221 340.134 262.351 339.758 263.343 339.148C264.335 338.537 265.161 337.711 265.751 336.736C267.248 334.491 267.889 331.824 267.567 329.182C267.005 323.674 262.845 319.487 258.221 319.739L257.957 319.802Z" fill="#42210B"/>
<path d="M274.407 324.882L268.399 326.323L268.842 328.114L274.85 326.673L274.407 324.882Z" fill="#42210B"/>
<path d="M235.804 328.011L235.53 329.835L249.485 331.866L249.759 330.043L235.804 328.011Z" fill="#42210B"/>
<path d="M346.75 211.755C346.75 211.755 347.893 199.818 343.187 195.432C338.48 191.046 333.538 179.669 333.538 179.669H348.868C348.868 179.669 338.009 159.587 338.984 150.386C339.959 141.186 340.161 131.986 346.75 131.029C353.339 130.073 368.636 152.695 370.585 163.643C372.535 174.591 370.888 223 370.888 223" fill="#FFAC73"/>
<path d="M354.182 158.236C354.796 156.794 355.258 155.289 355.557 153.748C355.744 152.686 355.649 151.594 355.28 150.582C354.912 149.571 354.284 148.678 353.461 147.996C354.036 146.985 354.339 145.839 354.339 144.672C354.339 143.505 354.036 142.358 353.461 141.347C353.733 140.519 353.809 139.639 353.685 138.775C353.561 137.912 353.239 137.09 352.746 136.376C352.252 135.662 351.601 135.075 350.843 134.662C350.086 134.25 349.244 134.023 348.385 134C341.049 134 332.011 141.247 332.797 149.459C332.761 150.543 332.997 151.619 333.484 152.585C333.971 153.55 334.693 154.374 335.58 154.978C333.645 158.328 332.054 161.87 330.832 165.55C330.596 166.205 330.501 166.904 330.551 167.6C330.602 168.296 330.798 168.973 331.127 169.586C331.455 170.2 331.908 170.735 332.456 171.157C333.003 171.578 333.633 171.877 334.303 172.033C332.469 175.25 331.258 178.793 330.734 182.472C330.275 186.229 334.598 188.622 337.709 187.858C347.043 185.53 349.433 173.296 355.852 167.146C356.507 166.529 356.996 165.754 357.275 164.892C357.553 164.031 357.612 163.112 357.445 162.222C357.278 161.331 356.891 160.498 356.32 159.801C355.75 159.104 355.014 158.565 354.182 158.236Z" fill="#FFAC73"/>
<path d="M166.941 338.963C160.726 329.544 156.382 297.253 154.076 275.439C141.02 269.967 126.582 268.582 112.707 271.473C112.072 300.228 112.707 349.837 123.968 374.361C140.275 410.122 214.392 440 214.392 440L219.538 374.361C219.538 374.361 176.565 353.605 166.941 338.963Z" fill="#4B1B13"/>
<path d="M870.538 608V654H948.538V608" fill="#CFD2A8"/>
<path d="M909.538 626C931.077 626 948.538 617.941 948.538 608C948.538 598.059 931.077 590 909.538 590C887.999 590 870.538 598.059 870.538 608C870.538 617.941 887.999 626 909.538 626Z" fill="#CFD2A8"/>
<path opacity="0.73" d="M909.538 626C931.077 626 948.538 617.941 948.538 608C948.538 598.059 931.077 590 909.538 590C887.999 590 870.538 598.059 870.538 608C870.538 617.941 887.999 626 909.538 626Z" fill="black"/>
<path d="M909.538 674C931.077 674 948.538 665.717 948.538 655.5C948.538 645.283 931.077 637 909.538 637C887.999 637 870.538 645.283 870.538 655.5C870.538 665.717 887.999 674 909.538 674Z" fill="#CFD2A8"/>
<path d="M952.943 500.654C944.725 497.422 933.297 486.68 923.349 487.007C919.57 495.916 918.455 506.331 917.316 515.393C915.421 531.112 915.04 546.966 916.178 562.753C916.421 566.261 916.724 569.769 917.089 573.277C917.183 574.31 917.476 575.317 917.954 576.247C917.954 588.446 917.954 600.644 917.954 612.843C917.954 613.15 918.081 613.444 918.307 613.661C918.533 613.878 918.84 614 919.16 614C919.48 614 919.787 613.878 920.013 613.661C920.24 613.444 920.367 613.15 920.367 612.843C920.367 601.11 920.367 589.377 920.367 577.644C924.276 576.413 928.026 574.757 931.544 572.71C938.875 568.299 944.416 561.621 947.252 553.779C953.558 536.966 949.528 518.209 955.538 501.571C954.696 501.287 953.808 500.982 952.943 500.654Z" fill="#297600"/>
<path d="M935.785 473.764C931.086 476.415 927.206 480.209 924.54 484.761C923.837 485.794 923.243 486.892 922.769 488.038L922.424 488.742C921.669 490.653 921.039 492.606 920.538 494.592C921.488 493.088 922.975 491.963 924.724 491.425C926.793 490.557 929.102 490.356 931.301 490.853C933.435 491.637 935.459 492.671 937.326 493.932C940.155 495.56 942.846 497.385 945.628 499.057C958.691 506.997 976.054 507.854 986.127 496.242C986.265 495.78 986.38 495.318 986.472 494.856C987.944 486.96 964.647 457.643 935.785 473.764Z" fill="#5FAD00"/>
<path d="M979.931 501C980.449 500.625 980.989 500.294 981.529 499.963C981.551 499.799 981.534 499.632 981.479 499.475C981.424 499.318 981.334 499.176 981.214 499.059C973.496 491.296 965.193 483.621 954.662 479.85C947.097 477.064 938.911 476.302 930.946 477.645C930.091 478.615 929.303 479.652 928.538 480.688C937.134 477.888 948.002 479.63 955.81 482.894C965.148 486.797 972.551 493.766 979.526 500.801C979.647 500.893 979.784 500.961 979.931 501Z" fill="#297600"/>
<path d="M849.143 517C843.475 519.796 838.797 524.101 835.684 529.383C832.571 534.666 831.16 540.694 831.625 546.726C832.541 568.631 870.692 547.246 880.813 528.765C890.935 510.283 892.538 536.651 892.538 536.651" fill="#297600"/>
<path d="M883.673 510.01C876.551 509.891 869.452 510.819 862.632 512.76C858.052 513.794 853.646 515.42 849.538 517.594C851.922 519.101 854.463 520.375 857.121 521.396C861.88 523.201 866.867 525.457 869.372 529.689C869.981 530.725 870.47 531.82 870.83 532.955C873.107 540.087 871.149 548.767 874.246 555.942C877.343 563.118 883.719 569.477 892.668 569.971C903.348 570.594 908.244 560.905 910.362 552.526C912.48 544.148 915.372 532.718 911.979 524.103C908.176 514.07 893.784 510.461 883.673 510.01Z" fill="#5FAD00"/>
<path d="M897.463 543.972C892.863 530.16 883.318 517.105 869.287 511H868.758L868.091 511.195C867.24 511.433 866.389 511.606 865.538 511.823C881.915 517.538 892.196 532.736 896.382 548.259C901.741 568.112 899.947 589.61 899.993 609.917C899.993 610.204 900.115 610.48 900.33 610.683C900.546 610.886 900.838 611 901.143 611C901.448 611 901.741 610.886 901.957 610.683C902.172 610.48 902.293 610.204 902.293 609.917C902.201 588.246 904.341 564.994 897.463 543.972Z" fill="#297600"/>
<path d="M694.538 39.2025C694.269 38.2081 684.432 -6.23998 639.457 12.6861C599.031 29.7891 597.684 80.6674 600.412 93.097C602.636 103.206 613.147 117.028 633.461 122" fill="#CC6C6D"/>
<path d="M689.658 84.3578C702.338 55.5302 695.739 24.9613 674.919 16.0804C654.099 7.19943 626.942 23.3694 614.263 52.1971C601.583 81.0247 608.182 111.594 629.001 120.475C649.821 129.355 676.978 113.185 689.658 84.3578Z" fill="#F9847F"/>
<path d="M608.538 70.8201L652.011 81.9999L661.538 62.0593L622.196 37.9999C622.196 37.9999 610.937 55.0311 608.538 70.8201Z" fill="white"/>
<path d="M664.609 75.8653C667.428 70.4034 666.097 64.1661 661.637 61.9339C657.177 59.7018 651.276 62.32 648.457 67.7819C645.639 73.2439 646.969 79.4813 651.429 81.7134C655.889 83.9456 661.79 81.3273 664.609 75.8653Z" fill="#F7D600"/>
<path d="M745.588 12.1007L725.718 31.4224C718.937 38.0169 729.516 48.568 736.433 41.8417L756.303 22.5199C763.22 15.9584 752.505 5.50621 745.588 12.1007Z" fill="#F7D600"/>
<path d="M785.298 65.9999H747.791C738.12 65.9999 738.12 79.9999 747.791 79.9999H785.298C794.935 79.9999 794.968 65.9999 785.298 65.9999Z" fill="#F7D600"/>
<path d="M751.236 120.537L733.447 104.092C726.431 97.5134 715.825 107.973 722.84 114.485L740.63 130.931C747.645 137.443 758.251 127.083 751.236 120.537Z" fill="#F7D600"/>
<path d="M502.454 231.257L496.538 303C496.538 303 543.401 296.108 554.538 233.128L554.141 220L502.454 231.257Z" fill="#CEE831"/>
<path d="M502.538 231L523.292 165C523.292 165 555.664 170.928 551.096 223.648L502.538 231Z" fill="#FFA513"/>
<path d="M483.061 314.675C480.659 314.377 478.289 313.871 475.978 313.162C460.609 308.46 449.248 295.275 443.769 276.106C438.748 256.086 439.593 235.075 446.208 215.508C460.508 170.297 495.925 142.349 527.098 151.852C542.468 156.554 553.828 169.739 559.307 188.908C564.329 208.928 563.483 229.939 556.868 249.506C551.013 269.304 539.579 287.065 523.891 300.733C510.726 311.518 496.459 316.352 483.061 314.675ZM518.311 164.642C496.66 161.946 470.899 185.883 460.141 219.815C454.33 236.783 453.531 255.026 457.835 272.424C461.878 286.727 469.83 296.36 480.322 299.583C490.813 302.805 502.908 299.32 514.502 289.719C528.039 277.833 537.885 262.422 542.902 245.264C548.711 228.296 549.51 210.054 545.207 192.656C541.165 178.353 533.213 168.719 522.721 165.497C521.28 165.085 519.804 164.799 518.311 164.642Z" fill="#5FAD00"/>
<path d="M454.947 368.416L577.217 299.093C578.308 298.411 579.089 297.337 579.396 296.097C579.702 294.857 579.51 293.548 578.859 292.446C578.209 291.343 577.151 290.533 575.908 290.186C574.665 289.839 573.334 289.981 572.196 290.584L449.859 359.907C448.768 360.589 447.987 361.663 447.68 362.903C447.374 364.143 447.566 365.451 448.217 366.554C448.867 367.656 449.925 368.466 451.168 368.814C452.411 369.161 453.742 369.019 454.88 368.416H454.947Z" fill="#A2C609"/>
<path d="M454.947 391.574L577.217 321.227C578.308 320.535 579.089 319.445 579.396 318.187C579.702 316.929 579.51 315.601 578.859 314.482C578.209 313.363 577.151 312.541 575.908 312.189C574.665 311.836 573.334 311.981 572.196 312.592L449.859 382.773C448.768 383.465 447.987 384.555 447.68 385.813C447.374 387.071 447.566 388.399 448.217 389.518C448.867 390.636 449.925 391.459 451.168 391.811C452.411 392.164 453.742 392.019 454.88 391.408L454.947 391.574Z" fill="#A2C609"/>
<path d="M178.538 158.59L189.271 152.669L207.374 177.364L206.515 143.282L217.892 137L219.538 201.482L209.449 206.97L190.702 181.336L191.632 216.718L180.184 223L178.538 158.59Z" fill="white"/>
<path d="M224.538 132.618L257.633 114L257.986 129.466L236.181 141.707L236.464 151.675L256.222 140.461L256.574 154.827L236.816 165.895L237.099 176.23L259.185 163.843L259.538 179.235L226.161 198L224.538 132.618Z" fill="white"/>
<path d="M260.538 112.563L272.631 105.827L280.693 139.217L287.765 97.2802L297.594 91.7031L306.505 124.948L312.728 83.5186L324.538 76.9999L312.375 149.719L302.474 155.224L293.21 122.631L285.926 164.423L275.955 170L260.538 112.563Z" fill="white"/>
<path d="M636.478 537.48L721.612 588.632C722.502 589.172 723.24 589.949 723.754 590.884C724.268 591.82 724.538 592.881 724.538 593.962C724.538 595.042 724.268 596.103 723.754 597.039C723.24 597.974 722.502 598.751 721.612 599.291L485.141 742.348C482.273 744.085 479.022 745 475.713 745C472.404 745 469.153 744.085 466.286 742.348L386.582 693.973C385.656 693.409 384.888 692.599 384.353 691.624C383.819 690.65 383.538 689.545 383.538 688.42C383.538 687.295 383.819 686.19 384.353 685.216C384.888 684.241 385.656 683.431 386.582 682.867L625.843 537.533C627.454 536.538 629.286 536.009 631.154 536C633.022 535.991 634.859 536.502 636.478 537.48Z" fill="#974C26"/>
<path d="M507.321 619L532.538 634.043L513.832 645C508.665 641.903 493.421 632.898 488.538 630.009L507.321 619Z" fill="white"/>
<path d="M534.344 604L558.538 618.567L535.807 632C531.84 629.656 517.19 620.86 511.538 617.483L534.344 604Z" fill="white"/>
<path d="M631.51 544L656.538 558.738L634.263 572C630.727 569.902 615.625 560.758 609.538 557.08L631.51 544Z" fill="white"/>
<path d="M580.041 575L603.538 590.637L586.108 602C581.991 599.294 567.811 589.907 562.538 586.417L580.041 575Z" fill="white"/>
<path d="M606.395 559L630.538 574.607L607.755 589C605.084 587.326 589.895 577.551 583.538 573.446L606.395 559Z" fill="white"/>
<path d="M486.189 632L509.538 647.366L492.959 658C487.983 654.757 473.964 645.585 469.538 642.687L486.189 632Z" fill="white"/>
<path d="M557.942 589L582.538 603.69L563.209 615C558.673 612.458 543.881 603.538 538.538 600.361L557.942 589Z" fill="white"/>
<path d="M464.859 645L488.538 660.087L466.29 674C461.632 671.076 447.439 662.071 442.538 658.965L464.859 645Z" fill="white"/>
<path d="M438.11 661L462.538 676.081L421.366 701L396.538 686.153L438.11 661Z" fill="white"/>
<path d="M658.982 562L683.538 577.167L651.796 597C647.634 594.334 633.039 585.138 627.538 581.646L658.982 562Z" fill="white"/>
<path d="M597.468 600L621.538 615.621L603.683 627C598.898 623.946 584.471 614.622 579.538 611.432L597.468 600Z" fill="white"/>
<path d="M551.829 628L576.538 643.607L553.323 658C548.665 655.111 533.829 645.768 528.538 642.446L551.829 628Z" fill="white"/>
<path d="M575.501 614L599.538 628.69L580.649 640C575.723 637.026 561.267 628.232 556.538 625.361L575.501 614Z" fill="white"/>
<path d="M525.468 644L549.538 659.043L531.683 670C526.158 666.59 511.632 657.533 507.538 655.009L525.468 644Z" fill="white"/>
<path d="M504.021 658L528.538 672.184L511.13 682C505.403 678.736 490.582 670.172 486.538 667.865L504.021 658Z" fill="white"/>
<path d="M624.344 585L648.538 600.101L625.807 614C622.212 611.805 607.413 602.609 601.538 598.951L624.344 585Z" fill="white"/>
<path d="M482.829 670L507.538 685.087L484.323 699C478.956 695.763 464.07 686.732 459.538 683.965L482.829 670Z" fill="white"/>
<path d="M480.538 702.675L449.346 721L424.538 706.578L456.105 688L480.538 702.675Z" fill="white"/>
<path d="M499.147 699L517.538 710.268L496.208 723L477.538 711.941L499.147 699Z" fill="white"/>
<path d="M491.538 726.195L473.318 737L454.538 726.013L473.089 715L491.538 726.195Z" fill="white"/>
<path d="M689.633 583L708.538 593.971L687.095 607L668.538 595.821L689.633 583Z" fill="white"/>
<path d="M664.928 598L682.538 609.223L660.436 623L642.538 611.958L664.928 598Z" fill="white"/>
<path d="M637.378 615L655.538 626.251L521.871 707L503.538 696.033L637.378 615Z" fill="white"/>
<path d="M518.538 767.861C518.793 766.172 519.439 764.575 520.421 763.209C521.402 761.843 522.688 760.751 524.166 760.029L542.222 749.116L570.114 732.173L603.435 711.941L638.898 690.429L673.19 669.544L703.074 651.452L725.114 638.086L736.694 631.063C736.694 631.324 737.093 631.324 737.342 631.246C738.717 630.894 740.155 630.92 741.518 631.32C742.881 631.72 744.123 632.482 745.124 633.531C746.125 634.58 746.851 635.882 747.233 637.31C747.614 638.739 747.639 640.247 747.303 641.688C745.959 647.171 741.501 652 737.342 655.342C723.858 665.49 709.785 674.75 695.205 683.067V677.611C705.017 671.972 726.185 659.336 735.051 649.677L730.817 652.288L719.162 659.441L701.605 670.197L679.69 683.615L654.861 698.94L628.812 714.891L603.011 730.685L579.004 745.409L558.409 758.123L542.545 767.834C537.714 770.811 532.459 774.831 526.831 775.98C525.769 776.059 524.702 775.907 523.699 775.535C522.695 775.162 521.775 774.576 520.997 773.814C520.218 773.053 519.598 772.131 519.175 771.106C518.752 770.082 518.535 768.977 518.538 767.861Z" fill="#CFD2A8"/>
</g>
<defs>
<filter id="filter0_d" x="0.538086" y="7.99986" width="1010" height="920" filterUnits="userSpaceOnUse" color-interpolation-filters="sRGB">
<feFlood flood-opacity="0" result="BackgroundImageFix"/>
<feColorMatrix in="SourceAlpha" type="matrix" values="0 0 0 0 0 0 0 0 0 0 0 0 0 0 0 0 0 0 127 0" result="hardAlpha"/>
<feOffset dx="5" dy="5"/>
<feGaussianBlur stdDeviation="2.5"/>
<feColorMatrix type="matrix" values="0 0 0 0 0 0 0 0 0 0 0 0 0 0 0 0 0 0 0.25 0"/>
<feBlend mode="normal" in2="BackgroundImageFix" result="effect1_dropShadow"/>
<feBlend mode="normal" in="SourceGraphic" in2="effect1_dropShadow" result="shape"/>
</filter>
</defs>
</svg>
