<svg width="1011" height="929" viewBox="0 0 1011 929" fill="none" xmlns="http://www.w3.org/2000/svg">
<g filter="url(#filter0_d)">
<path d="M485.714 911.524L19.9829 652.514C5.15993 644.686 -7.56396 631.836 6.89618 623.374L474.311 369.777C481.334 365.681 491.985 362.998 499.111 366.9L988.009 634.006C1002.83 642.101 1005.5 664.73 990.601 672.85L547.182 911.109C537.861 916.207 527.287 918.926 516.506 918.999C505.726 919.071 495.112 916.495 485.714 911.524Z" fill="#9E5A63"/>
<path d="M153.583 606.003L161.88 610.359L515.569 431L784.228 573.863L796.483 570.616V583.503C796.663 584.828 796.398 586.171 795.719 587.363C795.041 588.555 793.98 589.543 792.67 590.204L453.826 762.32C449.014 764.732 443.579 766 438.049 766C432.519 766 427.083 764.732 422.271 762.32L160.57 632.086C158.05 630.845 156.037 628.93 154.819 626.616C153.6 624.302 153.239 621.706 153.787 619.199L153.583 606.003Z" fill="#CFD2A8"/>
<path d="M153.583 606.003L161.88 610.359L515.569 431L784.228 573.863L796.483 570.616V583.503C796.663 584.828 796.398 586.171 795.719 587.363C795.041 588.555 793.98 589.543 792.67 590.204L453.826 762.32C449.014 764.732 443.579 766 438.049 766C432.519 766 427.083 764.732 422.271 762.32L160.57 632.086C158.05 630.845 156.037 628.93 154.819 626.616C153.6 624.302 153.239 621.706 153.787 619.199L153.583 606.003Z" fill="#CFD2A8"/>
<path opacity="0.39" d="M153.583 606.003L161.88 610.359L515.569 431L784.228 573.863L796.483 570.616V583.503C796.663 584.828 796.398 586.171 795.719 587.363C795.041 588.555 793.98 589.543 792.67 590.204L453.826 762.32C449.014 764.732 443.579 766 438.049 766C432.519 766 427.083 764.732 422.271 762.32L160.57 632.086C158.05 630.845 156.037 628.93 154.819 626.616C153.6 624.302 153.239 621.706 153.787 619.199L153.583 606.003Z" fill="#124577"/>
<path d="M792.424 575.222L453.754 748.299C448.942 750.725 443.506 752 437.976 752C432.446 752 427.011 750.725 422.199 748.299L160.496 617.338C158.384 616.271 156.627 614.724 155.404 612.855C154.182 610.986 153.538 608.862 153.538 606.699C153.538 604.536 154.182 602.412 155.404 600.543C156.627 598.674 158.384 597.127 160.496 596.06L515.643 415L792.715 563.248C793.903 563.863 794.883 564.749 795.555 565.816C796.227 566.882 796.566 568.089 796.536 569.312C796.507 570.534 796.109 571.727 795.386 572.767C794.663 573.806 793.64 574.654 792.424 575.222Z" fill="#CFD2A8"/>
<path d="M751.538 567.093L460.53 715L202.538 586.526L497.619 433L751.538 567.093Z" fill="white"/>
<path opacity="0.39" d="M300.038 664C306.942 664 312.538 661.762 312.538 659C312.538 656.239 306.942 654 300.038 654C293.134 654 287.538 656.239 287.538 659C287.538 661.762 293.134 664 300.038 664Z" fill="#124577"/>
<path d="M381.538 345.095C381.538 345.095 387.768 336.167 389.489 335.381C391.67 334.16 394.163 333.346 396.787 333C398.3 333.286 396.787 336.381 396.787 336.381C396.787 336.381 411.621 333.333 413.134 334.238C414.647 335.143 411.621 339.31 408.832 341.81C406.044 344.31 386.404 352 386.404 352L381.538 345.095Z" fill="#FFB7A2"/>
<path d="M411.171 333.932L420.404 318.58C420.513 318.387 420.558 318.167 420.53 317.95C420.503 317.732 420.406 317.528 420.252 317.364C420.099 317.2 419.895 317.084 419.669 317.031C419.443 316.979 419.205 316.992 418.988 317.07L406.269 321.957C405.358 322.31 404.6 322.941 404.117 323.748L395.538 338C400.713 336.183 406.024 335.365 411.171 333.932Z" fill="#42342D"/>
<path d="M364.221 245.061C364.221 245.061 346.729 243.553 337.61 255.492C328.49 267.43 306.885 311.614 312.437 315.309C317.99 319.004 347.909 323.276 362.552 319.582C377.195 315.887 376.533 286.029 376.533 286.029" fill="#F47C2C"/>
<path d="M369.797 560.117C369.797 560.117 368.821 583.344 373.7 590.416C378.579 597.487 402.883 609.308 396.467 614.289C390.051 619.27 374.912 616.869 369.856 611.295C366.605 607.466 363.642 603.458 360.986 599.294V608.095C360.986 608.095 350.874 602.933 350.874 602.494C350.874 602.055 348.538 550 348.538 550" fill="#42342D"/>
<path d="M333.441 570.056C333.441 570.056 332.496 593.142 337.249 600.068C342.002 606.994 366.799 623.001 360.528 627.926C354.257 632.851 339.626 628.311 333.555 621.565C330.158 617.591 327.186 613.34 324.679 608.867V617.589C324.679 617.589 314.8 612.458 314.8 612.022C314.8 611.586 312.538 560 312.538 560" fill="#42342D"/>
<path d="M380.326 374C381.6 376.923 393.239 547.634 380.963 569.361C370.971 574.008 359.748 576.128 348.506 575.491L344.481 588.217C344.481 588.217 314.311 596.572 292.538 588.45C292.538 588.45 302.961 410.651 318.365 377.699" fill="#748DE8"/>
<path d="M384.411 338.03C384.677 333.395 384.896 328.752 385.066 324.1C385.351 315.793 387.231 304.265 380.765 297.339C376.493 292.738 369.371 292.048 363.674 290.182C361.043 289.342 358.263 288.944 355.471 289.006C353.689 289.195 351.933 289.546 350.23 290.054C343.821 290.054 335.361 294.834 329.464 297.39C326.616 298.668 324.964 306.821 322.486 308.738C317.13 320.266 315.906 321.109 315.649 333.71C315.493 333.906 315.368 334.121 315.279 334.349C313.912 338.234 314.652 351.909 315.763 364.842C315.763 365.097 315.763 365.353 315.763 365.608V365.455C316.276 371.359 316.874 377.085 317.358 381.609C337.298 388.765 359.687 386.286 380.025 380.51C381.591 380.075 382.332 360.215 382.588 357.915C383.471 351.295 383.956 344.65 384.411 338.03Z" fill="#FFC931"/>
<path d="M381.43 259.32C382.302 259.746 378.115 297.282 361.629 293.768C345.142 290.254 345.259 277.795 345.637 274.547C346.015 271.3 353.749 263.447 356.308 260.385C358.866 257.324 377.737 257.483 381.43 259.32Z" fill="#FFB7A2"/>
<path d="M385.094 256.707C382.971 247.76 364.736 240.93 347.867 247.81C337.368 252.095 327.043 276.844 338.676 281.859C350.31 286.874 347.402 284.379 347.402 284.379C347.2 283.768 347.054 283.145 346.965 282.514C346.845 282.268 346.795 282 346.82 281.733C346.82 281.506 346.82 281.279 346.82 281.078C346.82 280.876 346.82 280.75 346.82 280.599C347.42 273.929 350.479 267.603 355.545 262.554C360.693 258.093 367.702 258.37 374.391 259.202C376.61 259.29 378.799 259.681 380.877 260.361L379.83 269.585C382.085 268.135 383.789 266.135 384.727 263.841C385.665 261.547 385.792 259.064 385.094 256.707Z" fill="#F47C2C"/>
<path d="M380.978 265.419L366.013 264.331V259.85L362.951 264.564L358.573 263.58C358.573 263.58 351.133 284.459 347.671 283.992C344.209 283.526 342.692 273.216 344.009 267.828C345.325 262.44 352.45 252.052 364.353 252.001C376.257 251.949 383.696 255.549 380.978 265.419Z" fill="#F47C2C"/>
<path d="M359.533 342.834C353.746 344.35 347.856 345.534 341.901 346.379C339.983 346.379 337.693 345.942 337.035 344.324C336.891 343.705 336.891 343.067 337.035 342.449C337.541 335.216 338.554 328.018 340.069 320.9C341.157 314.53 342.387 305.823 338.867 299.864C333.6 291.029 323.266 299.376 319.374 304.77C312.819 313.682 312.103 326.524 311.702 336.798C310.157 371.832 319.688 373.322 332.856 372.962C346.023 372.602 386.154 363.69 386.526 358.887C386.755 355.83 383.664 347.149 380.4 341.447C378.941 338.956 369.037 340.754 359.533 342.834Z" fill="#FFB531"/>
<path d="M358.709 414.233C356.824 467.534 352.77 520.716 346.548 573.777C346.35 575.421 349.178 575.395 349.376 573.777C355.542 520.716 359.595 467.534 361.537 414.233C361.594 412.589 358.766 412.589 358.709 414.233Z" fill="white"/>
<path d="M240.44 208.888C239.844 209.719 239.53 210.695 239.538 211.691L240.855 283.01C240.855 284.647 242.171 285.477 243.658 284.714L355.784 225.08C356.592 224.583 357.263 223.918 357.741 223.139C358.219 222.36 358.492 221.489 358.538 220.595L357.246 149.994C357.278 149.676 357.223 149.356 357.087 149.062C356.95 148.769 356.737 148.511 356.466 148.312C356.027 147.93 355.321 147.863 354.37 148.312L242.805 206.847L242.171 207.183C241.445 207.606 240.849 208.193 240.44 208.888ZM246.363 276.977L245.218 214.181L296.893 226.179C297.387 226.246 297.891 226.142 298.307 225.888C298.86 225.592 299.341 225.195 299.721 224.721L331.677 184.173L351.177 159.503L351.957 158.583L353.078 220.258L246.461 276.91L246.363 276.977ZM252.116 208.215L345.156 159.436L344.01 160.961C337.9 168.676 331.807 176.398 325.729 184.128L307.106 207.744C304.523 211.018 300.452 215.145 297.941 218.958L297.698 218.823C295.656 218.052 293.506 217.553 291.311 217.343L272.786 213.059L252.067 208.26L252.116 208.215ZM298.185 219.092H298.331C298.673 218.913 298.916 218.958 299.038 219.092C299.16 219.227 299.184 219.316 299.038 219.361C298.892 219.406 298.624 219.361 298.161 219.204" fill="#606060"/>
<path d="M342.88 178.128C331.645 175.571 325.679 162.642 329.552 149.249C333.426 135.857 345.674 127.073 356.909 129.629C368.143 132.186 374.11 145.115 370.236 158.508C366.362 171.9 354.114 180.685 342.88 178.128Z" fill="#EF5407"/>
<path d="M350.626 141H352.538V162H348.185V146.314L343.538 148.727V144.62L350.626 141Z" fill="white"/>
<path d="M323.175 53.3328C322.754 53.8973 322.533 54.5597 322.538 55.2358L323.467 103.649C323.467 104.761 324.397 105.324 325.446 104.806L404.594 64.3248C405.165 63.9872 405.638 63.5358 405.975 63.007C406.313 62.4782 406.506 61.8866 406.538 61.2799L405.626 13.3537C405.648 13.1379 405.61 12.9206 405.514 12.7213C405.418 12.522 405.267 12.347 405.076 12.2118C404.766 11.953 404.267 11.9073 403.596 12.2118L324.844 51.9474L324.397 52.1757C323.884 52.4626 323.464 52.861 323.175 53.3328ZM327.356 99.5539L326.547 56.9257L363.024 65.0708C363.373 65.116 363.728 65.0456 364.022 64.8728C364.413 64.6724 364.752 64.4029 365.02 64.0812L387.577 36.5556L401.342 19.8088L401.893 19.1846L402.684 61.0515L327.425 99.5082L327.356 99.5539ZM331.417 52.876L397.092 19.7631L396.283 20.7984C391.97 26.0355 387.669 31.2778 383.379 36.5251L370.233 52.5563C368.41 54.7791 365.536 57.5804 363.764 60.1685L363.592 60.0772C362.151 59.5535 360.633 59.2151 359.084 59.0724L346.007 56.1645L331.382 52.9065L331.417 52.876ZM363.936 60.2599H364.039C364.28 60.1381 364.452 60.1685 364.538 60.2599C364.624 60.3512 364.641 60.4121 364.538 60.4425C364.435 60.473 364.246 60.4426 363.919 60.336" fill="#606060"/>
<path d="M401.509 29.3157C393.241 29.3508 387.019 22.8308 387.612 14.753C388.204 6.67524 395.388 0.0984851 403.656 0.0634452C411.924 0.0284053 418.146 6.54835 417.553 14.6262C416.96 22.704 409.777 29.2807 401.509 29.3157Z" fill="#EF5407"/>
<path d="M404.264 8.00024H405.538V22.0002H402.636V11.543L399.538 13.1518V10.4135L404.264 8.00024Z" fill="white"/>
<path d="M488.577 475.294L660.088 567.532C661.088 568.015 662.257 568.13 663.349 567.851C664.441 567.572 665.37 566.923 665.942 566.038C666.513 565.154 666.682 564.104 666.413 563.11C666.144 562.115 665.458 561.254 664.499 560.706L492.989 468.468C491.988 467.985 490.819 467.871 489.727 468.15C488.635 468.428 487.706 469.078 487.134 469.962C486.563 470.847 486.394 471.896 486.663 472.891C486.932 473.885 487.618 474.747 488.577 475.294Z" fill="#754C24"/>
<path d="M440.555 494.221L610.159 585.537C611.148 586.015 612.305 586.128 613.384 585.852C614.464 585.577 615.383 584.933 615.948 584.058C616.513 583.182 616.681 582.143 616.414 581.159C616.148 580.174 615.47 579.321 614.521 578.779L444.917 487.464C443.928 486.985 442.772 486.872 441.692 487.148C440.612 487.424 439.693 488.067 439.128 488.943C438.563 489.818 438.396 490.857 438.662 491.842C438.928 492.826 439.606 493.679 440.555 494.221Z" fill="#754C24"/>
<path d="M394.578 521.221L566.088 612.537C567.088 613.015 568.257 613.128 569.349 612.852C570.441 612.577 571.37 611.933 571.942 611.058C572.513 610.182 572.682 609.143 572.413 608.159C572.144 607.174 571.458 606.321 570.499 605.779L398.989 514.464C397.988 513.985 396.819 513.872 395.727 514.148C394.636 514.424 393.706 515.067 393.135 515.943C392.563 516.818 392.394 517.858 392.663 518.842C392.932 519.826 393.619 520.679 394.578 521.221Z" fill="#754C24"/>
<path d="M683.038 584C692.151 584 699.538 580.642 699.538 576.5C699.538 572.358 692.151 569 683.038 569C673.925 569 666.538 572.358 666.538 576.5C666.538 580.642 673.925 584 683.038 584Z" fill="#EF5407"/>
<path d="M637.538 603C646.927 603 654.538 599.642 654.538 595.5C654.538 591.358 646.927 588 637.538 588C628.149 588 620.538 591.358 620.538 595.5C620.538 599.642 628.149 603 637.538 603Z" fill="#EF5407"/>
<path d="M590.038 632C599.151 632 606.538 628.419 606.538 624C606.538 619.582 599.151 616 590.038 616C580.925 616 573.538 619.582 573.538 624C573.538 628.419 580.925 632 590.038 632Z" fill="#EF5407"/>
<path d="M185.075 118.034C201.901 111.227 215.096 122.065 214.52 142.196C213.944 162.327 199.855 184.081 183.029 190.966C180.884 191.852 178.616 192.468 176.288 192.798C162.804 194.604 153.066 184.159 153.556 166.803C153.654 163.556 154.068 160.324 154.795 157.144C158.713 140.102 170.929 123.662 185.075 118.034ZM189.771 164.945C191.59 162.236 192.584 159.138 192.652 155.966C192.825 150.206 190.347 147.379 186.199 149.055L185.104 149.578L191.702 136.751V134.709L176.201 140.966L176.057 146.201L184.701 142.719L179.342 153.191L181.214 155.651C181.865 154.956 182.67 154.394 183.577 154.002C186.083 152.981 187.783 154.316 187.668 157.981C187.725 159.428 187.341 160.862 186.558 162.123C185.775 163.384 184.624 164.424 183.231 165.128C180.955 166.044 179.543 165.128 178.996 162.17L174.271 164.788C174.224 165.846 174.438 166.9 174.897 167.874C175.355 168.847 176.047 169.716 176.922 170.416C177.852 170.926 178.918 171.196 180.004 171.196C181.091 171.196 182.157 170.926 183.087 170.416C185.897 169.229 188.225 167.269 189.742 164.814" fill="#EF5407"/>
<path d="M191.193 134.683V136.698L184.407 149.409L185.513 148.892C189.708 147.239 192.213 150.029 192.038 155.713C191.969 158.843 190.964 161.902 189.125 164.574C187.591 166.998 185.238 168.932 182.397 170.103C181.456 170.607 180.379 170.873 179.28 170.873C178.182 170.873 177.104 170.607 176.164 170.103C175.279 169.413 174.58 168.555 174.116 167.594C173.653 166.634 173.437 165.593 173.484 164.549L178.261 161.965C178.843 164.833 180.241 165.789 182.542 164.885C183.951 164.19 185.115 163.164 185.906 161.919C186.698 160.674 187.086 159.26 187.028 157.831C187.028 154.214 185.426 152.897 182.892 153.904C181.975 154.291 181.161 154.846 180.504 155.532L178.61 153.103L184.028 142.769L175.29 146.205L175.435 141.038L191.193 134.683Z" fill="white"/>
<path d="M134.162 133.443C141.036 130.859 146.424 135.07 146.191 143.105L145.958 156.152C148.664 156.016 151.377 156.26 153.997 156.876C153.263 160.014 152.844 163.205 152.745 166.409C152.25 183.538 162.095 193.846 175.726 192.064C175.726 192.27 175.726 192.477 175.726 192.684L175.086 210.95C174.467 220.915 176.754 230.855 181.727 239.808L191.834 256.42C192.112 256.996 192.255 257.616 192.255 258.242C192.255 258.868 192.112 259.488 191.834 260.063C191.365 261.314 190.375 262.358 189.067 262.983L70.6062 309.616C70.3772 309.73 70.124 309.8 69.8628 309.822C69.6016 309.845 69.338 309.818 69.0887 309.746C68.8395 309.673 68.6101 309.555 68.415 309.399C68.2199 309.243 68.0635 309.053 67.9556 308.841C67.68 308.26 67.5381 307.637 67.5381 307.007C67.5381 306.377 67.68 305.753 67.9556 305.172L79.257 280.138C84.4071 269.049 87.3157 257.243 87.8495 245.259L88.3738 227.174C89.0437 203.922 102.734 179.353 120.909 165.97L121.288 152.897C121.491 144.888 127.288 136.155 134.162 133.443Z" fill="#CFD2A8"/>
<path d="M157.538 273C153.803 283.487 146.246 292.86 137.618 296.446C135.895 297.341 133.981 297.863 132.015 297.977C130.05 298.09 128.082 297.791 126.255 297.102C124.428 296.412 122.787 295.349 121.452 293.991C120.118 292.632 119.122 291.012 118.538 289.247L157.538 273Z" fill="#CFD2A8"/>
<path d="M491.014 818.102C487.94 818.458 502.503 870.845 512.24 880.458C521.977 890.07 534.989 887.715 542.63 876.761C550.27 865.807 556.991 821.47 556.991 821.47C556.991 821.47 562.822 809.886 491.014 818.102Z" fill="#CFD2A8"/>
<path d="M523.843 833.903C542.197 833.903 557.076 827.208 557.076 818.95C557.076 810.693 542.197 803.998 523.843 803.998C505.489 803.998 490.61 810.693 490.61 818.95C490.61 827.208 505.489 833.903 523.843 833.903Z" fill="#2E6300"/>
<path d="M487.681 775.791C495.695 784.527 487.365 791.291 487.853 805.066C488.342 818.841 513.992 819.991 513.992 819.991C512.613 808.735 533.437 800.821 532.604 787.813C531.771 774.805 513.561 781.926 520.196 767.603C526.831 753.281 524.447 735.07 513.848 728.36C505.978 723.376 497.016 712.368 492.88 707C492.88 708.534 492.88 710.067 492.88 711.601C493.182 720.239 490.597 728.745 485.498 735.891C481.304 742.053 475.215 747.201 471.912 753.883C471.572 754.578 471.275 755.291 471.021 756.019C467.891 767.576 480.73 768.343 487.681 775.791Z" fill="#CEC300"/>
<path d="M492.793 712.806C492.793 713.573 492.736 714.33 492.621 715.079C494.614 718.125 496.142 721.426 497.159 724.883C499.285 733.345 494.287 741.752 496.212 750.268C497.877 757.635 503.737 763.167 506.696 770.013C510.372 778.448 506.437 786.444 504.915 794.66C503.191 804.244 507.557 812.213 512.67 820.182C513.13 820.894 514.25 820.182 513.79 819.47C511.105 815.62 508.879 811.496 507.155 807.175C505.625 802.754 505.397 798.018 506.494 793.482C508.103 785.979 511.291 778.612 508.563 770.972C506.035 763.934 500.147 758.457 497.906 751.309C495.206 742.655 500.405 734.002 498.624 725.293C497.412 720.971 495.472 716.864 492.88 713.134L492.793 712.806Z" fill="#2E6300"/>
<path d="M571.985 757.799C580.602 754.431 588.989 742.765 582.813 735.891C576.638 729.018 578.189 718.584 578.189 718.584C576.822 721.81 574.182 724.397 570.836 725.786C553.458 731.51 551.907 741.067 551.533 748.434C551.16 755.8 560.409 771.629 532.633 780.118C504.858 788.607 527.98 820.621 527.98 820.621L538.752 822.537C546.389 817.934 554.564 814.193 563.109 811.392C579.711 805.504 573.536 791.51 566.211 783.404C558.887 775.298 563.482 761.168 571.985 757.799Z" fill="#CFE217"/>
<path d="M577.615 720.364C573.278 726.471 572.416 733.865 570.291 740.82C567.993 748.351 562.88 754.13 558.801 760.784C556.862 763.844 555.483 767.197 554.723 770.697C553.947 774.531 553.89 778.447 553.488 782.309C553.155 786.6 551.862 790.774 549.696 794.55C547.47 798.013 544.943 801.293 542.142 804.354C537.517 809.831 532.778 815.691 531.83 822.647H533.209C534.214 815.801 538.953 809.995 543.578 804.737C548.202 799.479 552.942 793.509 554.321 786.28C555.843 778.283 555.01 770.314 559.146 762.92C562.622 756.704 567.763 751.391 570.377 744.736C573.536 736.932 573.795 728.114 578.822 721.021C579.281 720.336 578.103 719.679 577.615 720.364Z" fill="#2E6300"/>
<path d="M526.717 822.592C521.863 811.994 524.477 797.508 532.462 787.813C541.079 777.626 545.991 768.151 540.189 757.279C536.707 750.726 534.981 743.454 535.162 736.11C526.545 752.678 518.158 758.566 520.054 767.603C521.949 776.64 519.738 780.693 513.993 794.687C508.536 807.64 517.411 820.292 518.79 822.072C521.337 822.346 523.979 822.519 526.717 822.592Z" fill="#9ABC0C"/>
<path d="M521.89 822.346H523.413C519.219 812.159 517.122 801.232 522.666 790.935C525.308 786.033 528.841 781.624 531.283 776.613C533.635 771.445 534.393 765.745 533.466 760.182C532.571 752.453 533.454 744.631 536.051 737.261C536.338 736.466 535.017 736.138 534.758 736.932C532.5 743.243 531.525 749.907 531.886 756.567C532.087 760.1 532.776 763.605 532.633 767.165C532.415 770.421 531.496 773.6 529.933 776.503C527.319 781.652 523.585 786.225 521 791.401C518.265 796.879 517.267 802.998 518.128 809.009C518.796 813.587 520.06 818.067 521.89 822.346Z" fill="#2E6300"/>
<path d="M719.181 400L675.265 419.212C673.611 419.936 672.204 421.057 671.197 422.454C670.189 423.851 669.618 425.471 669.546 427.141C669.474 428.812 669.902 430.468 670.786 431.933C671.67 433.398 672.975 434.616 674.562 435.456L778.641 490.743C780.89 491.94 783.561 492.3 786.095 491.747C788.629 491.194 790.83 489.771 792.239 487.776L817.538 451.957" fill="#56403D"/>
<path d="M959.642 304.731L606.425 117.947C604.002 116.669 601.255 115.997 598.46 116C595.664 116.003 592.919 116.681 590.499 117.965C588.079 119.249 586.07 121.094 584.673 123.316C583.275 125.537 582.539 128.057 582.538 130.622V324.937C582.538 327.071 583.15 329.167 584.312 331.015C585.475 332.862 587.147 334.397 589.16 335.464L965.72 534.944C967.019 535.635 968.493 535.999 969.994 536C971.495 536.001 972.97 535.639 974.27 534.95C975.57 534.261 976.649 533.27 977.398 532.076C978.148 530.882 978.541 529.528 978.538 528.151V334.639C978.533 328.569 976.783 322.608 973.465 317.357C970.147 312.106 965.379 307.751 959.642 304.731Z" fill="#CFD2A8"/>
<path d="M606.555 131.977L948.521 313.071C952.172 315.006 955.205 317.793 957.315 321.15C959.424 324.507 960.536 328.317 960.538 332.195V478.039C960.535 479.435 960.135 480.805 959.376 482.014C958.618 483.222 957.528 484.226 956.216 484.926C954.904 485.625 953.416 485.996 951.9 486C950.384 486.004 948.893 485.642 947.576 484.95L598.835 300.836C597.53 300.147 596.445 299.154 595.69 297.955C594.936 296.757 594.538 295.397 594.538 294.012V138.388C594.538 137.094 594.908 135.821 595.61 134.7C596.313 133.578 597.323 132.645 598.54 131.996C599.757 131.347 601.138 131.003 602.545 131C603.952 130.997 605.335 131.334 606.555 131.977Z" fill="white"/>
<path d="M750.585 407.558C754.622 406.842 757.175 402.82 756.287 398.574C755.398 394.328 751.404 391.466 747.367 392.182C743.329 392.897 740.776 396.919 741.664 401.165C742.553 405.411 746.547 408.273 750.585 407.558Z" fill="#AB643C"/>
<path d="M894.719 312.764L722.488 216.733C721.566 216.245 720.518 215.992 719.453 216C718.388 216.008 717.345 216.277 716.432 216.778C715.519 217.28 714.769 217.996 714.261 218.852C713.753 219.708 713.504 220.672 713.542 221.646V276.36C713.535 277.349 713.808 278.324 714.334 279.189C714.861 280.054 715.624 280.779 716.548 281.294L888.755 375.291C889.66 375.761 890.684 376.006 891.725 376C892.766 375.994 893.787 375.739 894.685 375.259C895.584 374.779 896.329 374.091 896.846 373.265C897.363 372.439 897.633 371.503 897.63 370.551L898.53 319.538C898.596 318.203 898.279 316.875 897.61 315.687C896.942 314.499 895.945 313.491 894.719 312.764Z" fill="#E2AC00"/>
<path d="M853.635 340.518C859.747 348.158 870.495 350.293 877.613 345.311C884.732 340.33 885.551 330.095 879.44 322.476C873.328 314.858 862.58 312.702 855.461 317.683C848.343 322.665 847.523 332.879 853.635 340.518Z" fill="white"/>
<path d="M836.43 302.503L766.338 263.234C765.736 262.972 765.05 262.928 764.416 263.112C763.781 263.295 763.242 263.692 762.905 264.225C762.569 264.758 762.458 265.389 762.595 265.995C762.732 266.6 763.106 267.136 763.646 267.497L833.737 306.766C834.339 307.028 835.025 307.072 835.66 306.888C836.295 306.705 836.833 306.308 837.17 305.775C837.507 305.242 837.617 304.611 837.48 304.005C837.343 303.4 836.969 302.864 836.43 302.503Z" fill="#F2F2F2"/>
<path d="M834.422 318.541L737.113 265.137C736.517 264.947 735.866 264.955 735.276 265.158C734.685 265.362 734.192 265.748 733.883 266.25C733.573 266.752 733.468 267.337 733.584 267.902C733.701 268.468 734.032 268.978 734.52 269.344L831.71 322.769C832.317 323.028 833.007 323.071 833.647 322.89C834.286 322.709 834.828 322.317 835.168 321.791C835.507 321.265 835.618 320.642 835.48 320.045C835.343 319.448 834.965 318.919 834.422 318.562V318.541Z" fill="#F2F2F2"/>
<path d="M860.63 323.338L688.488 226.737C687.566 226.247 686.518 225.992 685.453 226C684.388 226.008 683.345 226.279 682.432 226.783C681.519 227.288 680.769 228.008 680.261 228.869C679.753 229.73 679.504 230.701 679.542 231.68V286.71C679.528 287.708 679.795 288.691 680.318 289.565C680.841 290.439 681.601 291.174 682.524 291.697L854.736 386.273C855.651 386.757 856.688 387.007 857.743 387C858.798 386.992 859.831 386.727 860.737 386.23C861.643 385.733 862.389 385.024 862.899 384.174C863.408 383.324 863.662 382.365 863.636 381.395L864.535 330.067C864.574 328.73 864.235 327.407 863.55 326.227C862.866 325.048 861.859 324.052 860.63 323.338Z" fill="#F47B56"/>
<path d="M819.635 352.291C825.747 360.162 836.495 362.362 843.614 357.23C850.732 352.097 851.552 341.552 845.44 333.703C839.328 325.854 828.58 323.632 821.462 328.765C814.343 333.897 813.524 344.421 819.635 352.291Z" fill="white"/>
<path d="M802.477 313.605L732.338 275.229C731.736 274.973 731.051 274.93 730.416 275.109C729.781 275.288 729.243 275.676 728.906 276.197C728.569 276.718 728.458 277.335 728.595 277.926C728.732 278.518 729.107 279.042 729.646 279.395L799.738 317.771C800.34 318.027 801.025 318.07 801.66 317.891C802.295 317.712 802.834 317.324 803.17 316.803C803.507 316.282 803.618 315.665 803.481 315.074C803.344 314.482 802.969 313.958 802.43 313.605H802.477Z" fill="#F2F2F2"/>
<path d="M799.412 328.73L703.319 276.227C702.72 275.973 702.038 275.931 701.406 276.108C700.775 276.285 700.239 276.67 699.904 277.186C699.569 277.703 699.459 278.314 699.595 278.9C699.731 279.486 700.104 280.005 700.64 280.356L796.757 332.773C797.356 333.027 798.038 333.069 798.67 332.892C799.301 332.715 799.837 332.33 800.172 331.814C800.507 331.297 800.617 330.686 800.481 330.1C800.345 329.514 799.972 328.995 799.436 328.644L799.412 328.73Z" fill="#F2F2F2"/>
<path d="M817.654 329.352L645.487 232.737C644.565 232.247 643.518 231.992 642.453 232C641.388 232.008 640.344 232.279 639.431 232.783C638.518 233.288 637.769 234.008 637.261 234.87C636.753 235.731 636.504 236.702 636.542 237.681V292.718C636.535 293.714 636.808 294.695 637.334 295.565C637.861 296.435 638.623 297.165 639.547 297.684L811.738 392.273C812.652 392.756 813.69 393.007 814.744 393C815.799 392.992 816.832 392.726 817.738 392.23C818.644 391.733 819.39 391.023 819.899 390.173C820.408 389.324 820.663 388.364 820.636 387.394L821.535 336.06C821.573 334.728 821.235 333.411 820.555 332.235C819.875 331.059 818.875 330.066 817.654 329.352Z" fill="#CFD2A8"/>
<path d="M817.654 329.352L645.487 232.737C644.565 232.247 643.518 231.992 642.453 232C641.388 232.008 640.344 232.279 639.431 232.783C638.518 233.288 637.769 234.008 637.261 234.87C636.753 235.731 636.504 236.702 636.542 237.681V292.718C636.535 293.714 636.808 294.695 637.334 295.565C637.861 296.435 638.623 297.165 639.547 297.684L811.738 392.273C812.652 392.756 813.69 393.007 814.744 393C815.799 392.992 816.832 392.726 817.738 392.23C818.644 391.733 819.39 391.023 819.899 390.173C820.408 389.324 820.663 388.364 820.636 387.394L821.535 336.06C821.573 334.728 821.235 333.411 820.555 332.235C819.875 331.059 818.875 330.066 817.654 329.352Z" fill="#CFD2A8"/>
<path d="M776.61 358.292C782.727 366.162 793.484 368.362 800.609 363.23C807.733 358.097 808.553 347.552 802.437 339.703C796.32 331.854 785.563 329.632 778.438 334.765C771.313 339.897 770.563 350.421 776.61 358.292Z" fill="white"/>
<path d="M759.454 320.503L689.338 281.234C688.736 280.972 688.051 280.928 687.416 281.111C686.781 281.295 686.243 281.692 685.906 282.225C685.569 282.758 685.458 283.389 685.595 283.995C685.732 284.6 686.107 285.136 686.646 285.497L756.738 324.766C757.34 325.028 758.025 325.072 758.66 324.889C759.295 324.705 759.834 324.308 760.17 323.775C760.507 323.242 760.618 322.611 760.481 322.005C760.344 321.4 759.969 320.864 759.43 320.503H759.454Z" fill="#F2F2F2"/>
<path d="M757.425 335.568L660.356 282.231C659.751 281.972 659.063 281.929 658.425 282.11C657.787 282.29 657.246 282.682 656.908 283.207C656.569 283.733 656.458 284.355 656.596 284.951C656.733 285.547 657.11 286.076 657.651 286.432L754.72 339.769C755.325 340.028 756.013 340.071 756.651 339.89C757.289 339.71 757.83 339.318 758.169 338.793C758.507 338.267 758.618 337.645 758.481 337.049C758.343 336.453 757.967 335.924 757.425 335.568Z" fill="#F2F2F2"/>
<path d="M135.226 508.496C130.333 508.552 126.339 512.981 126.339 518.488C126.338 523.996 130.282 528.503 135.212 528.629C140.105 528.574 144.099 524.145 144.1 518.637C144.1 513.13 140.156 508.623 135.226 508.496ZM103.548 508.548C98.6553 508.603 94.6611 513.032 94.6608 518.539C94.6605 524.047 98.6044 528.554 103.535 528.68C108.427 528.625 112.422 524.196 112.422 518.689C112.566 512.962 108.441 508.492 103.548 508.548ZM177.573 432.76L60.9717 432.597C60.6097 432.672 60.3913 432.526 60.0294 432.601C59.6674 432.675 59.4864 432.712 59.087 432.605C58.7251 432.679 58.5441 432.716 58.1821 432.79C57.8201 432.865 57.6392 432.902 57.2772 432.976C56.9152 433.051 56.7343 433.088 56.3723 433.162C56.0103 433.237 55.8293 433.274 55.4674 433.348C55.1054 433.423 54.9244 433.46 54.5999 433.716C54.2379 433.791 54.0944 434.01 53.7324 434.084C53.3705 434.159 53.2269 434.378 52.8649 434.453C52.503 434.527 52.3594 434.746 51.9975 434.821C51.6355 434.895 51.492 435.114 51.1674 435.371C51.0239 435.59 50.6619 435.665 50.5184 435.884C50.3748 436.104 50.0129 436.178 49.8693 436.397C49.7258 436.617 49.3638 436.691 49.2202 436.91C49.0767 437.13 48.7522 437.386 48.5712 437.424C48.4276 437.643 48.1031 437.9 47.9596 438.119C47.816 438.338 47.4915 438.595 47.348 438.814C47.2044 439.034 46.8799 439.29 46.7363 439.51C46.5928 439.729 46.4492 439.949 46.1247 440.205C45.9811 440.424 45.8376 440.644 45.6941 440.863C45.5505 441.083 45.407 441.302 45.3009 441.704C45.1573 441.923 45.0137 442.142 44.9076 442.544C44.7641 442.763 44.658 443.165 44.5144 443.384C44.3709 443.604 44.2647 444.006 44.1212 444.225C43.9777 444.444 43.8716 444.846 43.728 445.065C43.5845 445.285 43.4783 445.686 43.5158 445.869C43.3722 446.088 43.2661 446.49 43.3036 446.672C43.341 446.854 43.2349 447.256 43.0913 447.475C42.9852 447.877 43.0227 448.059 42.9166 448.46C42.8104 448.862 42.8479 449.044 42.7417 449.446C42.8166 449.81 42.6731 450.03 42.7479 450.394C42.8228 450.758 42.6792 450.978 42.7541 451.342L42.754 573.451C42.8289 573.816 42.6853 574.035 42.7602 574.399C42.8351 574.764 42.8725 574.946 42.7664 575.348C42.8413 575.712 42.8787 575.894 42.9536 576.259C43.0284 576.623 43.0659 576.805 43.1407 577.17C43.2156 577.534 43.253 577.716 43.3279 578.081C43.4028 578.445 43.4402 578.628 43.5151 578.992C43.5899 579.356 43.6274 579.539 43.8832 579.866C43.9581 580.23 43.9956 580.413 44.2514 580.74C44.3263 581.104 44.5447 581.249 44.6196 581.614C44.6945 581.978 44.9129 582.123 44.9877 582.488C45.0626 582.852 45.281 582.997 45.3559 583.361C45.6117 583.689 45.6492 583.871 45.905 584.198C46.1609 584.525 46.1983 584.708 46.4167 584.853C46.6352 584.998 46.71 585.362 46.9284 585.507C47.1468 585.652 47.2217 586.017 47.4401 586.162C47.6586 586.307 47.9144 586.634 47.9518 586.816C48.1702 586.961 48.4261 587.288 48.6445 587.433C48.8629 587.578 49.1188 587.906 49.3372 588.051C49.5556 588.196 49.8115 588.523 50.0299 588.668C50.2483 588.813 50.4667 588.958 50.7226 589.285C50.941 589.43 51.1594 589.575 51.3778 589.72C51.5962 589.866 51.8147 590.011 52.2141 590.118C52.4325 590.263 52.6509 590.408 53.0503 590.516C53.2687 590.661 53.6681 590.769 53.8865 590.914C54.1049 591.059 54.5043 591.167 54.7227 591.312C54.9412 591.457 55.3406 591.565 55.5215 591.528C55.7399 591.673 56.1394 591.781 56.3204 591.744C56.5388 591.889 56.9007 591.814 57.1192 591.959C57.3376 592.104 57.6995 592.03 57.918 592.175C58.1364 592.32 58.4983 592.246 58.7167 592.391C59.0787 592.316 59.2971 592.461 59.6591 592.387C60.021 592.313 60.2395 592.458 60.6014 592.383L159.298 592.616L154.731 575.894L165.82 586.719L176.397 596.89L195.175 613.921L195.096 451.949C195.352 441.261 187.396 432.831 177.573 432.76ZM143.911 550.77L138.245 543.389C149.64 540.098 153.978 532.75 153.978 532.75C150.333 535.208 147.082 536.825 143.936 538.041C139.599 539.882 135.33 541.139 131.349 541.957C122.986 543.485 115.372 543.15 108.876 541.826C103.94 540.751 99.6897 539.345 96.1638 537.791C94.0919 536.887 92.0201 535.983 89.8733 534.715C89.6549 534.57 89.4365 534.425 89.0371 534.317C88.8186 534.172 88.8187 534.172 88.6377 534.21L86.2351 532.614C86.2351 532.614 90.3411 539.747 101.456 543.35L95.6326 550.814C76.455 550.196 69.0105 536.913 69.0105 536.913C69.0745 507.844 81.5696 484.197 81.5696 484.197C94.0827 474.41 105.865 474.838 105.865 474.838L106.67 476.002C91.0057 480.55 83.8036 487.727 83.8036 487.727C83.8036 487.727 85.6446 486.589 88.9336 485.153C98.2574 480.959 105.572 479.836 108.686 479.386C109.229 479.275 109.591 479.2 110.171 479.271C116.037 478.446 121.872 478.386 127.676 479.093C129.998 479.376 132.176 479.878 134.535 480.343C136.713 480.845 139.109 481.492 141.143 482.213C143.178 482.935 145.431 483.801 147.684 484.668C149.755 485.571 151.865 486.657 153.974 487.743C153.974 487.743 147.078 480.804 132.369 476.23L133.593 474.839C133.593 474.839 145.444 474.683 158.012 484.445C170.399 494.244 170.598 508.066 170.534 537.135C170.534 537.135 163.226 550.22 143.911 550.77Z" fill="#8C9EFF"/>
</g>
<defs>
<filter id="filter0_d" x="0.538086" y="0.0632324" width="1010" height="928.937" filterUnits="userSpaceOnUse" color-interpolation-filters="sRGB">
<feFlood flood-opacity="0" result="BackgroundImageFix"/>
<feColorMatrix in="SourceAlpha" type="matrix" values="0 0 0 0 0 0 0 0 0 0 0 0 0 0 0 0 0 0 127 0" result="hardAlpha"/>
<feOffset dx="5" dy="5"/>
<feGaussianBlur stdDeviation="2.5"/>
<feColorMatrix type="matrix" values="0 0 0 0 0 0 0 0 0 0 0 0 0 0 0 0 0 0 0.25 0"/>
<feBlend mode="normal" in2="BackgroundImageFix" result="effect1_dropShadow"/>
<feBlend mode="normal" in="SourceGraphic" in2="effect1_dropShadow" result="shape"/>
</filter>
</defs>
</svg>
