<svg width="646" height="496" viewBox="0 0 646 496" fill="none" xmlns="http://www.w3.org/2000/svg">
<path d="M601.6 318.9H176.3C169.2 318.9 163.4 312 163.4 303.5V17.5H614.6V303.5C614.5 312 608.7 318.9 601.6 318.9Z" fill="#E6E6E6"/>
<path d="M584.6 289.4H193.2C189.5 289.4 186.5 285.8 186.5 281.4V54.9C186.5 50.5 189.5 47 193.2 46.9H584.7C588.4 46.9 591.4 50.5 591.4 54.9V281.4C591.3 285.8 588.3 289.4 584.6 289.4Z" fill="white"/>
<path d="M615.4 27.9H162.4V15.5C162.4 6.99998 168.2 0.0999756 175.3 0.0999756H602.4C609.5 0.0999756 615.3 6.99998 615.3 15.5V27.9H615.4Z" fill="#314455"/>
<path d="M415.8 144.1H347.3C343.7 144.1 340.8 141.1 340.7 137.5V91.9C340.7 88.2 343.6 85.3 347.3 85.3H415.8C419.4 85.3 422.3 88.3 422.4 91.9V137.5C422.4 141.1 419.5 144.1 415.8 144.1Z" fill="#E6E6E6"/>
<path d="M564.7 170.5H344.5C342.5 170.5 340.8 168.8 340.8 166.8C340.8 164.8 342.5 163.1 344.5 163.1H564.6C566.6 163.1 568.3 164.8 568.3 166.8C568.4 168.8 566.7 170.5 564.7 170.5Z" fill="#E6E6E6"/>
<path d="M564.7 196.9H344.5C342.5 196.9 340.8 195.3 340.8 193.2C340.8 191.2 342.5 189.5 344.5 189.5H564.6C566.6 189.5 568.3 191.2 568.3 193.2C568.4 195.2 566.7 196.9 564.7 196.9Z" fill="#E6E6E6"/>
<path d="M564.7 223.2H344.5C342.5 223.2 340.8 221.5 340.8 219.5C340.8 217.5 342.5 215.8 344.5 215.8H564.6C566.6 215.8 568.3 217.5 568.3 219.5C568.3 221.5 566.7 223.2 564.7 223.2Z" fill="#E6E6E6"/>
<path d="M491.4 487H481.8L477.2 450.1H491.4V487Z" fill="#A0616A"/>
<path d="M474.9 484.2H493.4V495.8H463.2C463.3 489.4 468.5 484.2 474.9 484.2Z" fill="#2F2E41"/>
<path d="M531.4 487H521.8L517.2 450.1H531.4V487Z" fill="#A0616A"/>
<path d="M514.9 484.2H533.4V495.8H503.2C503.3 489.4 508.5 484.2 514.9 484.2Z" fill="#2F2E41"/>
<path d="M530.2 478.5H520.4C518.6 478.5 517 477.1 516.9 475.3L508.6 375.9C508.5 375.3 508 374.8 507.3 374.8C506.7 374.8 506.3 375.3 506.2 375.8L494.3 475.4C494.1 477.2 492.6 478.5 490.8 478.5H478.8C476.9 478.5 475.3 476.9 475.3 475C475.3 468.7 475.2 462.4 475.2 456.1C474.8 400 474.4 342 486.2 319.2L486.3 319L528.8 318.3L528.9 318.5C541.8 346.5 537.9 408.9 534.1 469.3L533.7 475.1C533.6 477 532.1 478.5 530.2 478.5Z" fill="#2F2E41"/>
<path d="M510.1 243.7C520.759 243.7 529.4 235.104 529.4 224.5C529.4 213.896 520.759 205.3 510.1 205.3C499.441 205.3 490.8 213.896 490.8 224.5C490.8 235.104 499.441 243.7 510.1 243.7Z" fill="#A0616A"/>
<path d="M483.8 322.6L484.3 300.6L480.5 283.5C478.5 274.9 480.8 265.9 486.7 259.2C492.4 252.6 500.9 249.1 509.6 249.7C509.9 249.7 510.2 249.7 510.4 249.8C517.8 250.5 524.7 254.1 529.3 259.9C534.1 265.7 536.3 273.2 535.4 280.6L530.8 320.8L483.8 322.6Z" fill="#314455"/>
<path d="M467.4 362C470.8 359.3 471.4 354.4 468.8 351C468.5 350.6 468.2 350.3 467.9 350L478.7 324.3L464.4 327L456.3 351C453.6 354.4 454.2 359.4 457.6 362.1C460.5 364.2 464.6 364.2 467.4 362Z" fill="#A0616A"/>
<path d="M549.3 365C546 362.1 545.7 357.2 548.6 353.9C548.9 353.6 549.2 353.2 549.6 352.9L540.2 326.6L554.3 330.1L561 354.5C563.5 358.1 562.6 363 559 365.5C556.1 367.7 552 367.5 549.3 365Z" fill="#A0616A"/>
<path d="M469.2 349.4C468.7 349.4 468.2 349.3 467.8 349.1L459.5 345.4C457.9 344.7 457 342.8 457.6 341.1L471.4 298.3L476.7 266.1C477.5 261.4 482 258.2 486.7 259C491.4 259.8 494.6 264.2 493.9 268.9C493.9 269.1 493.8 269.3 493.8 269.5L485.7 304.1L472.6 346.9C472.1 348.4 470.7 349.4 469.2 349.4Z" fill="#314455"/>
<path d="M547.9 349.4C546.3 349.4 545 348.4 544.5 346.9L531.4 304.1L523.3 269.5C522.2 264.8 525.1 260.2 529.8 259.1C534.5 258 539.2 260.9 540.3 265.6C540.3 265.8 540.4 266 540.4 266.2L545.8 298.5L559.6 341.2C560.2 342.9 559.3 344.7 557.7 345.5L549.4 349.2C548.9 349.3 548.4 349.4 547.9 349.4Z" fill="#314455"/>
<path d="M510.5 203.3C505.1 201 498.2 203.9 496 209.3C494.7 212.7 495.1 216.4 495.8 220C496.5 223.6 497.6 227.1 497.5 230.7C497.4 234.3 495.8 238.1 492.6 239.8C490.7 240.8 488.4 240.9 486.3 241.5C484.2 242.1 482.1 243.5 481.8 245.6C481.3 248.8 485.3 251.3 485.3 254.6C485.3 258.1 480.9 260.1 480.4 263.5C480.2 265.5 481.1 267.5 482.7 268.8C484.3 270 486.1 270.9 488.1 271.4C503.1 276.2 519.1 277.1 534.6 274C537.7 273.4 540.8 272.6 543.2 270.5C545.6 268.4 547 264.9 545.6 262.1C543.5 257.9 537 257.7 534.7 253.6C533.3 251.1 534 248.1 534.3 245.3C535 238.1 536.8 229.7 535 222.7C533.4 216.4 529.8 208.2 524.8 204C521.2 201 514.3 202.4 509.7 203.3H510.5Z" fill="#2F2E41"/>
<path d="M638.1 479.1C626.8 494.2 603.3 495.8 603.3 495.8C603.3 495.8 598.2 473 609.5 457.9C620.8 442.8 644.3 441.2 644.3 441.2C644.3 441.2 649.4 464.1 638.1 479.1Z" fill="#E6E6E6"/>
<path d="M580.5 484.8C588 494.7 603.5 495.8 603.5 495.8C603.5 495.8 606.9 480.7 599.4 470.8C591.9 460.9 576.4 459.8 576.4 459.8C576.4 459.8 573.1 474.9 580.5 484.8Z" fill="#E6E6E6"/>
<path d="M123.8 486.5L132.4 485.5L132.8 449.2L120 450.7L123.8 486.5Z" fill="#FFB8B8"/>
<path d="M150.1 492L122.9 495.3L121.7 484L138.4 482C144.1 481.3 149.4 485.8 150.1 492Z" fill="#2F2E41"/>
<path d="M34.6 485.9H43.3L47.5 449.9H34.6V485.9Z" fill="#FFB8B8"/>
<path d="M60.2 494.6H32.8V483.3H49.6C55.4 483.3 60.2 488.3 60.2 494.6Z" fill="#2F2E41"/>
<path d="M97.2 324.8L102.2 342.1L129.2 404.8L136.3 464.2L120 465L110 410.1L75.8 370.5L46 474.1L32.5 472.6C32.5 472.6 43.9 338.5 59.5 324.8C59.5 324.8 85.1 311.9 97.2 324.8Z" fill="#2F2E41"/>
<path d="M75.1 249.9C84.765 249.9 92.6 241.528 92.6 231.2C92.6 220.872 84.765 212.5 75.1 212.5C65.435 212.5 57.6 220.872 57.6 231.2C57.6 241.528 65.435 249.9 75.1 249.9Z" fill="#FFB8B8"/>
<path d="M99 328.2C99 328.2 101.1 250.5 71.3 255.8C41.4 261.1 53.9 336.2 53.9 336.2C53.9 336.2 60.3 349.9 76 334.7C91.7 319.5 99 328.2 99 328.2Z" fill="#CCCCCC"/>
<path opacity="0.2" d="M57.7 288.6L64.8 317.5L75.5 329L60.6 323.7L57.7 288.6Z" fill="black"/>
<path d="M99.2 361.1C95.5 359.7 93.6 355.3 94.9 351.3C95 350.9 95.2 350.5 95.4 350.1L78.8 329.5L91.9 327.7L105.7 347.5C109 349.9 109.9 354.7 107.7 358.2C105.8 361.1 102.3 362.3 99.2 361.1Z" fill="#FFB8B8"/>
<path d="M79 271.7L80.9 311.1L103 341.6L93.8 349.2L63.9 317.2C63.9 317.2 53.2 278.3 61.1 266.9C64 262.6 67.3 261.4 70.2 261.6C74.9 262.1 78.8 266.4 79 271.7Z" fill="#CCCCCC"/>
<path d="M73 250.9C73.3 250.6 73.3 250.1 73.1 249.8C73.1 249.7 73 249.7 72.9 249.7C68.1 246.5 66.7 239.8 69.6 234.7C70.6 232.9 72.1 231.5 73.9 230.6C79.1 228 86 230 89.8 225C91.4 222.8 92 220 91.4 217.3C90.6 212.5 87.2 209 83.5 206.6C70 197.8 52.3 202.4 44 217C40.7 222.8 39.3 229.6 40 236.4C40.5 241 41.8 246.1 39.3 249.8C37.1 253.1 32.8 253.7 29.1 254.5C21.1 256.2 13.5 260.3 8.00001 266.8C2.50001 273.3 -0.299995 282.4 1.30001 291C2.90001 299.5 9.50001 307 17.5 308.3C24 309.4 30.8 306.4 35.6 301.5C40.4 296.6 43.4 290 45.4 283.3C47.7 275.3 48.6 266.6 52.7 259.4C56.7 252.4 65.4 247.4 72.1 251C72.5 251.2 72.8 251.1 73 250.9Z" fill="#2F2E41"/>
<path d="M369.2 251C347.4 235.1 313.3 220.1 275.6 209.8C241.3 200.4 207.8 195.9 181.3 197.1L181.2 194.1C208 192.9 241.8 197.5 276.5 206.9C314.6 217.3 349.1 232.5 371.1 248.5L369.2 251Z" fill="#CCCCCC"/>
<path d="M367 263.2C367 277.3 364 291.2 358.1 304C357.6 305.1 357.1 306.1 356.6 307.2C331.6 357 270 377.6 218.9 353.3C183.5 336.5 161.1 301.5 161.1 263.2C161.1 260.9 161.2 258.6 161.3 256.3C161.4 255.1 161.5 254 161.6 252.8C167.5 197.7 218.1 157.7 274.7 163.4C327.1 168.8 367 211.8 367 263.2Z" fill="#314455"/>
<path opacity="0.1" d="M358.1 304C357.6 305.1 357.1 306.1 356.6 307.2C353.6 307.5 350.4 307.7 347.1 307.9C344.3 308 341.5 308.1 338.6 308.1C313.3 308.1 282.9 303.6 251.8 295.1C217.2 285.6 185.8 272.4 163.5 257.9C162.7 257.4 162 256.9 161.3 256.4C161.4 255.2 161.5 254.1 161.6 252.9C162.8 253.7 164 254.5 165.3 255.4C187.3 269.8 218.3 282.9 252.7 292.2C283.5 300.6 313.7 305.1 338.7 305.1C341.6 305.1 344.3 305 347.1 304.9C350.9 304.7 354.6 304.4 358.1 304Z" fill="black"/>
<path d="M338.6 305.7C313.3 305.7 282.9 301.2 251.8 292.7C217.2 283.2 185.8 270 163.5 255.5C140.8 240.6 130.1 226 133.5 214.3C136.9 202.6 153.8 195.4 181.2 194.3L181.3 197.3C168.5 197.9 158.1 199.7 150.4 202.8C142.7 205.9 138 210 136.5 215.2C135 220.3 136.8 226.2 141.8 232.8C146.8 239.4 154.7 246.2 165.3 253.2C187.3 267.6 218.3 280.7 252.7 290C283.5 298.4 313.7 302.9 338.7 302.9C341.6 302.9 344.3 302.8 347.1 302.7C359.9 302.1 370.3 300.3 378 297.2C385.7 294.1 390.4 290 391.9 284.8C394.5 275.6 386.5 263.7 369.4 251.2L371.2 248.8C380 255.2 386.6 261.6 390.6 267.6C395 274.1 396.4 280.2 394.8 285.6C391.4 297.3 374.5 304.5 347.1 305.6C344.3 305.6 341.5 305.7 338.6 305.7Z" fill="#CCCCCC"/>
<path d="M266.7 144.8C267.363 144.8 267.9 144.307 267.9 143.7C267.9 143.092 267.363 142.6 266.7 142.6C266.037 142.6 265.5 143.092 265.5 143.7C265.5 144.307 266.037 144.8 266.7 144.8Z" fill="#F2F2F2"/>
<path d="M110.2 194.7C111.305 194.7 112.2 193.805 112.2 192.7C112.2 191.595 111.305 190.7 110.2 190.7C109.095 190.7 108.2 191.595 108.2 192.7C108.2 193.805 109.095 194.7 110.2 194.7Z" fill="#CCCCCC"/>
<path d="M105.8 274C108.009 274 109.8 272.254 109.8 270.1C109.8 267.946 108.009 266.2 105.8 266.2C103.591 266.2 101.8 267.946 101.8 270.1C101.8 272.254 103.591 274 105.8 274Z" fill="#CCCCCC"/>
<path d="M346.6 153.2C348.091 153.2 349.3 152.036 349.3 150.6C349.3 149.164 348.091 148 346.6 148C345.109 148 343.9 149.164 343.9 150.6C343.9 152.036 345.109 153.2 346.6 153.2Z" fill="#CCCCCC"/>
<path d="M441.3 262.8C443.675 262.8 445.6 260.92 445.6 258.6C445.6 256.28 443.675 254.4 441.3 254.4C438.925 254.4 437 256.28 437 258.6C437 260.92 438.925 262.8 441.3 262.8Z" fill="#CCCCCC"/>
<path d="M407.4 192.9C408.449 192.9 409.3 192.094 409.3 191.1C409.3 190.106 408.449 189.3 407.4 189.3C406.351 189.3 405.5 190.106 405.5 191.1C405.5 192.094 406.351 192.9 407.4 192.9Z" fill="#CCCCCC"/>
<path d="M181.4 170.6C183.002 170.6 184.3 169.346 184.3 167.8C184.3 166.254 183.002 165 181.4 165C179.798 165 178.5 166.254 178.5 167.8C178.5 169.346 179.798 170.6 181.4 170.6Z" fill="#CCCCCC"/>
<path d="M400.9 251.8C401.949 251.8 402.8 250.994 402.8 250C402.8 249.006 401.949 248.2 400.9 248.2C399.851 248.2 399 249.006 399 250C399 250.994 399.851 251.8 400.9 251.8Z" fill="#CCCCCC"/>
<path d="M115.3 327.5C116.57 327.5 117.6 326.47 117.6 325.2C117.6 323.93 116.57 322.9 115.3 322.9C114.03 322.9 113 323.93 113 325.2C113 326.47 114.03 327.5 115.3 327.5Z" fill="#CCCCCC"/>
<path d="M162.1 359.1C163.481 359.1 164.6 358.025 164.6 356.7C164.6 355.375 163.481 354.3 162.1 354.3C160.719 354.3 159.6 355.375 159.6 356.7C159.6 358.025 160.719 359.1 162.1 359.1Z" fill="#CCCCCC"/>
<path d="M235 110.6H230.1V105.8H227.4V110.6H222.5V113.2H227.4V118H230.1V113.2H235V110.6Z" fill="#CCCCCC"/>
<path d="M349.9 371.5H346.8V368.5H345.1V371.5H342V373.2H345.1V376.2H346.8V373.2H349.9V371.5Z" fill="#CCCCCC"/>
<path d="M421.7 356H419.4V353.8H418.1V356H415.8V357.3H418.1V359.5H419.4V357.3H421.7V356Z" fill="#CCCCCC"/>
<path opacity="0.1" d="M265.5 193.1C270.305 193.1 274.2 189.339 274.2 184.7C274.2 180.061 270.305 176.3 265.5 176.3C260.695 176.3 256.8 180.061 256.8 184.7C256.8 189.339 260.695 193.1 265.5 193.1Z" fill="black"/>
<path opacity="0.1" d="M199.1 254.8C203.905 254.8 207.8 251.039 207.8 246.4C207.8 241.761 203.905 238 199.1 238C194.295 238 190.4 241.761 190.4 246.4C190.4 251.039 194.295 254.8 199.1 254.8Z" fill="black"/>
<path opacity="0.1" d="M294.6 339.4C299.405 339.4 303.3 335.639 303.3 331C303.3 326.361 299.405 322.6 294.6 322.6C289.795 322.6 285.9 326.361 285.9 331C285.9 335.639 289.795 339.4 294.6 339.4Z" fill="black"/>
<path opacity="0.1" d="M265.5 267.8C270.305 267.8 274.2 264.039 274.2 259.4C274.2 254.761 270.305 251 265.5 251C260.695 251 256.8 254.761 256.8 259.4C256.8 264.039 260.695 267.8 265.5 267.8Z" fill="black"/>
<path opacity="0.1" d="M203.4 314.1C208.205 314.1 212.1 310.339 212.1 305.7C212.1 301.061 208.205 297.3 203.4 297.3C198.595 297.3 194.7 301.061 194.7 305.7C194.7 310.339 198.595 314.1 203.4 314.1Z" fill="black"/>
<path opacity="0.1" d="M311.9 222.6C316.705 222.6 320.6 218.839 320.6 214.2C320.6 209.561 316.705 205.8 311.9 205.8C307.095 205.8 303.2 209.561 303.2 214.2C303.2 218.839 307.095 222.6 311.9 222.6Z" fill="black"/>
<path opacity="0.1" d="M340.7 279.6C345.505 279.6 349.4 275.839 349.4 271.2C349.4 266.561 345.505 262.8 340.7 262.8C335.895 262.8 332 266.561 332 271.2C332 275.839 335.895 279.6 340.7 279.6Z" fill="black"/>
<path d="M265.5 233.7C271.796 233.7 276.9 228.73 276.9 222.6C276.9 216.47 271.796 211.5 265.5 211.5C259.204 211.5 254.1 216.47 254.1 222.6C254.1 228.73 259.204 233.7 265.5 233.7Z" fill="white"/>
<path d="M265.5 206.5C256.6 206.5 249.4 213.5 249.4 222.2C249.4 230.9 265.5 259.3 265.5 259.3C265.5 259.3 281.6 230.8 281.6 222.2C281.6 213.6 274.4 206.5 265.5 206.5ZM265.5 229.9C261.4 229.9 258 226.6 258 222.6C258 218.6 261.3 215.3 265.5 215.3C269.6 215.3 273 218.6 273 222.6C273 226.6 269.7 229.9 265.5 229.9Z" fill="#CCCCCC"/>
<path d="M203.4 281.2C209.696 281.2 214.8 276.23 214.8 270.1C214.8 263.97 209.696 259 203.4 259C197.104 259 192 263.97 192 270.1C192 276.23 197.104 281.2 203.4 281.2Z" fill="white"/>
<path d="M203.4 254C194.5 254 187.3 261 187.3 269.7C187.3 278.4 203.4 306.8 203.4 306.8C203.4 306.8 219.5 278.3 219.5 269.7C219.5 261 212.3 254 203.4 254ZM203.4 277.4C199.3 277.4 195.9 274.1 195.9 270.1C195.9 266.1 199.2 262.8 203.4 262.8C207.5 262.8 210.9 266.1 210.9 270.1C210.9 274.1 207.5 277.4 203.4 277.4Z" fill="#CCCCCC"/>
<path d="M340.7 246.7C346.996 246.7 352.1 241.73 352.1 235.6C352.1 229.47 346.996 224.5 340.7 224.5C334.404 224.5 329.3 229.47 329.3 235.6C329.3 241.73 334.404 246.7 340.7 246.7Z" fill="white"/>
<path d="M340.7 219.5C331.8 219.5 324.6 226.5 324.6 235.2C324.6 243.9 340.7 272.3 340.7 272.3C340.7 272.3 356.8 243.8 356.8 235.2C356.8 226.6 349.6 219.5 340.7 219.5ZM340.7 242.9C336.6 242.9 333.2 239.6 333.2 235.6C333.2 231.6 336.5 228.3 340.7 228.3C344.8 228.3 348.2 231.6 348.2 235.6C348.1 239.7 344.8 242.9 340.7 242.9Z" fill="#CCCCCC"/>
<path d="M265.5 159C271.796 159 276.9 154.03 276.9 147.9C276.9 141.77 271.796 136.8 265.5 136.8C259.204 136.8 254.1 141.77 254.1 147.9C254.1 154.03 259.204 159 265.5 159Z" fill="white"/>
<path d="M265.5 131.8C256.6 131.8 249.4 138.8 249.4 147.5C249.4 156.2 265.5 184.6 265.5 184.6C265.5 184.6 281.6 156.1 281.6 147.5C281.7 138.9 274.4 131.8 265.5 131.8ZM265.5 155.2C261.4 155.2 258 151.9 258 147.9C258 143.9 261.3 140.6 265.5 140.6C269.6 140.6 273 143.9 273 147.9C273 152 269.7 155.2 265.5 155.2Z" fill="#CCCCCC"/>
<path d="M294.6 306.5C300.896 306.5 306 301.53 306 295.4C306 289.27 300.896 284.3 294.6 284.3C288.304 284.3 283.2 289.27 283.2 295.4C283.2 301.53 288.304 306.5 294.6 306.5Z" fill="white"/>
<path d="M294.6 279.3C285.7 279.3 278.5 286.3 278.5 295C278.5 303.7 294.6 332.1 294.6 332.1C294.6 332.1 310.7 303.6 310.7 295C310.7 286.4 303.5 279.3 294.6 279.3ZM294.6 302.7C290.5 302.7 287.1 299.4 287.1 295.4C287.1 291.4 290.4 288.1 294.6 288.1C298.7 288.1 302.1 291.4 302.1 295.4C302.1 299.4 298.8 302.7 294.6 302.7Z" fill="#3F3D56"/>
<path d="M199.1 221.1C205.396 221.1 210.5 216.13 210.5 210C210.5 203.87 205.396 198.9 199.1 198.9C192.804 198.9 187.7 203.87 187.7 210C187.7 216.13 192.804 221.1 199.1 221.1Z" fill="white"/>
<path d="M199.1 193.9C190.2 193.9 183 200.9 183 209.6C183 218.3 199.1 246.7 199.1 246.7C199.1 246.7 215.2 218.2 215.2 209.6C215.2 200.9 208 193.9 199.1 193.9ZM199.1 217.2C195 217.2 191.6 213.9 191.6 209.9C191.6 205.9 194.9 202.6 199.1 202.6C203.2 202.6 206.6 205.9 206.6 209.9C206.5 214 203.2 217.2 199.1 217.2Z" fill="#3F3D56"/>
<path d="M311.9 190.1C318.196 190.1 323.3 185.13 323.3 179C323.3 172.87 318.196 167.9 311.9 167.9C305.604 167.9 300.5 172.87 300.5 179C300.5 185.13 305.604 190.1 311.9 190.1Z" fill="white"/>
<path d="M311.9 162.9C303 162.9 295.8 169.9 295.8 178.6C295.8 187.3 311.9 215.7 311.9 215.7C311.9 215.7 328 187.2 328 178.6C328 170 320.9 162.9 311.9 162.9ZM311.9 186.2C307.8 186.2 304.4 182.9 304.4 178.9C304.4 174.9 307.7 171.6 311.9 171.6C316 171.6 319.4 174.9 319.4 178.9C319.4 182.9 316.1 186.2 311.9 186.2Z" fill="#3F3D56"/>
<path d="M52.5 51C52.997 51 53.4 50.5971 53.4 50.1C53.4 49.603 52.997 49.2 52.5 49.2C52.0029 49.2 51.6 49.603 51.6 50.1C51.6 50.5971 52.0029 51 52.5 51Z" fill="#F2F2F2"/>
<path d="M144.9 51.1C146.06 51.1 147 50.2045 147 49.1C147 47.9954 146.06 47.1 144.9 47.1C143.74 47.1 142.8 47.9954 142.8 49.1C142.8 50.2045 143.74 51.1 144.9 51.1Z" fill="#CCCCCC"/>
<path d="M220.1 135C221.978 135 223.5 133.567 223.5 131.8C223.5 130.033 221.978 128.6 220.1 128.6C218.222 128.6 216.7 130.033 216.7 131.8C216.7 133.567 218.222 135 220.1 135Z" fill="#CCCCCC"/>
<path d="M193.2 81.6C194.028 81.6 194.7 80.9732 194.7 80.2C194.7 79.4268 194.028 78.8 193.2 78.8C192.372 78.8 191.7 79.4268 191.7 80.2C191.7 80.9732 192.372 81.6 193.2 81.6Z" fill="#CCCCCC"/>
<path d="M13.9 64.5C15.1702 64.5 16.2 63.515 16.2 62.3C16.2 61.085 15.1702 60.1 13.9 60.1C12.6297 60.1 11.6 61.085 11.6 62.3C11.6 63.515 12.6297 64.5 13.9 64.5Z" fill="#CCCCCC"/>
<path d="M188 126.6C188.828 126.6 189.5 125.973 189.5 125.2C189.5 124.427 188.828 123.8 188 123.8C187.172 123.8 186.5 124.427 186.5 125.2C186.5 125.973 187.172 126.6 188 126.6Z" fill="#CCCCCC"/>
<path d="M56.5 18.6H52.6V14.9H50.5V18.6H46.5V20.5H50.5V24.2H52.6V20.5H56.5V18.6Z" fill="#CCCCCC"/>
<path d="M204.5 206.3H202.7V204.6H201.7V206.3H199.8V207.2H201.7V209H202.7V207.2H204.5V206.3Z" fill="#CCCCCC"/>
<path opacity="0.1" d="M51.5 87.9C55.3107 87.9 58.4 85.0346 58.4 81.5C58.4 77.9653 55.3107 75.1 51.5 75.1C47.6892 75.1 44.6 77.9653 44.6 81.5C44.6 85.0346 47.6892 87.9 51.5 87.9Z" fill="black"/>
<path opacity="0.1" d="M123.4 124.7C127.211 124.7 130.3 121.835 130.3 118.3C130.3 114.765 127.211 111.9 123.4 111.9C119.589 111.9 116.5 114.765 116.5 118.3C116.5 121.835 119.589 124.7 123.4 124.7Z" fill="black"/>
<path opacity="0.1" d="M173.8 196.7C177.611 196.7 180.7 193.879 180.7 190.4C180.7 186.921 177.611 184.1 173.8 184.1C169.989 184.1 166.9 186.921 166.9 190.4C166.9 193.879 169.989 196.7 173.8 196.7Z" fill="black"/>
<path d="M173.8 171.9C178.771 171.9 182.8 168.094 182.8 163.4C182.8 158.706 178.771 154.9 173.8 154.9C168.829 154.9 164.8 158.706 164.8 163.4C164.8 168.094 168.829 171.9 173.8 171.9Z" fill="white"/>
<path d="M173.8 151.1C166.7 151.1 161 156.5 161 163.1C161 169.7 173.8 191.5 173.8 191.5C173.8 191.5 186.6 169.7 186.6 163.1C186.6 156.4 180.8 151.1 173.8 151.1ZM173.8 168.9C170.5 168.9 167.9 166.4 167.9 163.3C167.9 160.2 170.6 157.7 173.8 157.7C177.1 157.7 179.7 160.2 179.7 163.3C179.7 166.4 177.1 168.9 173.8 168.9Z" fill="#CCCCCC"/>
<path d="M51.5 61.9C56.4706 61.9 60.5 58.0944 60.5 53.4C60.5 48.7056 56.4706 44.9 51.5 44.9C46.5294 44.9 42.5 48.7056 42.5 53.4C42.5 58.0944 46.5294 61.9 51.5 61.9Z" fill="white"/>
<path d="M51.5 41.1C44.4 41.1 38.7 46.5 38.7 53.1C38.7 59.7 51.5 81.5 51.5 81.5C51.5 81.5 64.3 59.7 64.3 53.1C64.3 46.5 58.6 41.1 51.5 41.1ZM51.5 58.9C48.2 58.9 45.6 56.4 45.6 53.3C45.6 50.2 48.3 47.7 51.5 47.7C54.8 47.7 57.4 50.2 57.4 53.3C57.4 56.4 54.8 58.9 51.5 58.9Z" fill="#CCCCCC"/>
<path d="M123.4 99.8C128.371 99.8 132.4 95.9944 132.4 91.3C132.4 86.6056 128.371 82.8 123.4 82.8C118.429 82.8 114.4 86.6056 114.4 91.3C114.4 95.9944 118.429 99.8 123.4 99.8Z" fill="white"/>
<path d="M123.4 79C116.3 79 110.6 84.4 110.6 91C110.6 97.6 123.4 119.4 123.4 119.4C123.4 119.4 136.2 97.6 136.2 91C136.2 84.4 130.5 79 123.4 79ZM123.4 96.9C120.1 96.9 117.5 94.4 117.5 91.3C117.5 88.2 120.2 85.7 123.4 85.7C126.7 85.7 129.3 88.2 129.3 91.3C129.3 94.4 126.7 96.9 123.4 96.9Z" fill="#3F3D56"/>
</svg>
