<svg width="837" height="567" viewBox="0 0 837 567" fill="none" xmlns="http://www.w3.org/2000/svg">
<path d="M205.5 399C251.229 399 288.3 366.496 288.3 326.4C288.3 286.304 251.229 253.8 205.5 253.8C159.771 253.8 122.7 286.304 122.7 326.4C122.7 366.496 159.771 399 205.5 399Z" fill="#E6E6E6"/>
<path d="M183.1 432.4L203.5 443.4V368.6L180.7 356.2C178.8 355.2 177.5 353.6 176.9 351.7C179.1 351.3 181.3 351.7 183.3 352.7L203.7 363.7V334.6C203.7 329 204.5 323.4 206 318C207.6 323.5 208.3 329 208.3 334.6V382L238.3 365.7C240.7 364.4 243.5 363.7 246.4 363.8C245.2 366 243.3 367.9 240.9 369.2L208.3 386.9V563.9H203.6V448.3L180.8 435.9C178.9 434.9 177.6 433.3 177 431.4C178.9 431 181.2 431.4 183.1 432.4Z" fill="#CCCCCC"/>
<path d="M82.8 405.1C128.529 405.1 165.6 372.596 165.6 332.5C165.6 292.404 128.529 259.9 82.8 259.9C37.0708 259.9 0 292.404 0 332.5C0 372.596 37.0708 405.1 82.8 405.1Z" fill="#E6E6E6"/>
<path d="M105.2 438.6L84.8 449.6V374.8L107.6 362.4C109.5 361.4 110.8 359.8 111.4 357.9C109.2 357.5 107 357.9 105 358.9L84.6 369.9V340.8C84.6 335.2 83.8 329.6 82.3 324.2C80.7 329.7 80 335.2 80 340.8V388.3L50 372C47.6 370.7 44.8 370 41.9 370.1C43.1 372.3 45 374.2 47.4 375.5L80 393.2V564.4H84.7V454.5L107.5 442.1C109.4 441.1 110.7 439.5 111.3 437.6C109.4 437.2 107.1 437.6 105.2 438.6Z" fill="#CCCCCC"/>
<path d="M143 306.1C221.756 306.1 285.6 250.091 285.6 181C285.6 111.909 221.756 55.9 143 55.9C64.2442 55.9 0.400024 111.909 0.400024 181C0.400024 250.091 64.2442 306.1 143 306.1Z" fill="#E6E6E6"/>
<path d="M181.5 363.6L146.4 382.7V253.8L185.7 232.4C188.9 230.6 191.3 227.8 192.3 224.6C188.6 224 184.6 224.6 181.4 226.4L146.3 245.5V195.6C146.3 185.9 145 176.3 142.3 166.9C139.7 176.3 138.3 185.9 138.3 195.6V277.2L86.5 249C82.4 246.7 77.6 245.6 72.7 245.7C74.7 249.6 78.1 252.8 82.2 255.1L138.2 285.5V564.8H146.3V390.9L185.6 369.5C188.8 367.7 191.2 364.9 192.2 361.7C188.7 361.2 184.7 361.8 181.5 363.6Z" fill="#CCCCCC"/>
<path d="M299.9 157.1L337.3 133.9L358.8 174.2L321.4 197.5L299.9 157.1Z" fill="#FF6584"/>
<path d="M337.7 205.8L315.2 163.7L354.2 139.4L376.7 181.5L337.7 205.8ZM317.8 164.5L338.3 203.1L374 180.9L353.5 142.3L317.8 164.5Z" fill="#2F2E41"/>
<path d="M768.7 250.8C779.083 250.8 787.5 241.801 787.5 230.7C787.5 219.599 779.083 210.6 768.7 210.6C758.317 210.6 749.9 219.599 749.9 230.7C749.9 241.801 758.317 250.8 768.7 250.8Z" fill="#D0CDE1"/>
<path d="M782.6 252C771.6 252 762.7 242.5 762.7 230.7C762.7 218.9 771.6 209.4 782.6 209.4C793.6 209.4 802.5 218.9 802.5 230.7C802.5 242.5 793.6 252 782.6 252ZM782.6 211.6C772.8 211.6 764.7 220.2 764.7 230.7C764.7 241.2 772.6 249.8 782.6 249.8C792.5 249.8 800.5 241.2 800.5 230.7C800.5 220.2 792.4 211.6 782.6 211.6Z" fill="#2F2E41"/>
<path d="M478.1 563.1H358.7C355.7 563.1 353.2 560.9 353.2 558.1V458.4C353.2 455.7 355.7 453.4 358.7 453.4H478.1C481.1 453.4 483.6 455.6 483.6 458.4V558.1C483.6 560.8 481.1 563.1 478.1 563.1Z" fill="#314455"/>
<path d="M426.8 566.6H409.9C406.9 566.6 404.4 564.4 404.4 561.6V455.4C404.4 452.7 406.9 450.4 409.9 450.4H426.8C429.8 450.4 432.3 452.6 432.3 455.4V561.6C432.3 564.4 429.9 566.5 426.8 566.6Z" fill="#3F3D56"/>
<path d="M509.8 443.6C509.1 453.9 493.6 461.4 493.6 461.4C493.6 461.4 479.3 452.3 480 441.9C480.7 431.6 496.2 424.1 496.2 424.1C496.2 424.1 510.5 433.2 509.8 443.6Z" fill="#3F3D56"/>
<path d="M510.5 475.6C499.1 475 490.6 461.1 490.6 461.1C490.6 461.1 500.7 448.2 512.2 448.8C523.6 449.4 532.1 463.3 532.1 463.3C532.1 463.3 521.9 476.3 510.5 475.6Z" fill="#3F3D56"/>
<path opacity="0.1" d="M483.2 465.6V503.7L441.1 453.7H473.2L483.2 465.6Z" fill="black"/>
<path d="M519 530.8C517.3 530.8 515.6 530.1 514.6 528.9L426.9 424.8C425.1 422.6 425.5 419.5 428 417.8L440.9 409C443.3 407.3 446.8 407.8 448.6 410L536.3 514C538.1 516.2 537.7 519.3 535.2 521L522.3 529.8C521.4 530.5 520.2 530.8 519 530.8Z" fill="#314455"/>
<path d="M461.6 465L483.9 449.9L500.7 469.9L478.5 485L461.6 465Z" fill="#3F3D56"/>
<path d="M535.1 186.6L546.8 138.7L590.8 151.5L579 199.6L535.1 186.6Z" fill="#D0CDE1"/>
<path d="M560.3 206.7L514.5 193.3L526.7 143.3L572.5 156.7L560.3 206.7ZM517 191.7L558.9 204.1L570.2 158.3L528.3 145.9L517 191.7Z" fill="#2F2E41"/>
<path d="M277 451.2C280.2 448 280.3 442.6 277.2 439.3C276.9 439 276.5 438.6 276.1 438.3L263.1 328.4L246.3 333.6L264.5 440.5C262.1 444.4 263.2 449.7 267 452.2C270.2 454.4 274.3 453.9 277 451.2Z" fill="#FFB8B8"/>
<path d="M292.6 556.3H302.5L307.1 516.5H292.6V556.3Z" fill="#FFB8B8"/>
<path d="M321.4 565.8H290.5V553.3H310.6C316.6 553.3 321.5 558.3 321.5 564.7V565.8H321.4Z" fill="#2F2E41"/>
<path d="M224.6 540.1L233.8 543.8L251.4 508.2L237.8 503L224.6 540.1Z" fill="#FFB8B8"/>
<path d="M248.4 559.7L219.4 548.4L223.6 536.7L242.4 544C248 546.2 250.9 552.7 248.8 558.6L248.4 559.7Z" fill="#2F2E41"/>
<path d="M275 299.8C285.272 299.8 293.6 291.07 293.6 280.3C293.6 269.53 285.272 260.8 275 260.8C264.728 260.8 256.4 269.53 256.4 280.3C256.4 291.07 264.728 299.8 275 299.8Z" fill="#FFB8B8"/>
<path d="M245.9 330.3C245.3 312.3 263.3 299.9 278.5 308.3C280.4 309.3 300.4 327.1 301.1 338.1C301.9 349.1 303.4 367.2 303.4 367.2L324.4 531.6L279.3 529.3L284.7 481.4L255.4 530.2L219.9 518.3L263.5 387C263.5 386.9 246.8 357.5 245.9 330.3Z" fill="#2F2E41"/>
<path d="M246.2 336.6L249.1 376C249.2 376.9 249.8 377.5 250.7 377.5H263.4C264.3 377.5 265 376.8 265 375.9C265 375.7 265 375.5 264.9 375.3L249.3 335.9C249 335.1 248.1 334.7 247.3 335C246.6 335.2 246.2 335.8 246.2 336.6Z" fill="#2F2E41"/>
<path d="M311.6 444.4C314.4 440.8 313.9 435.5 310.5 432.5C310.1 432.2 309.7 431.9 309.3 431.6L284.2 324L268.1 331.3L298.1 435.3C296.2 439.5 297.9 444.6 301.9 446.6C305.2 448.4 309.3 447.4 311.6 444.4Z" fill="#FFB8B8"/>
<path d="M270.3 314.5C270.3 314.5 265 325.5 270.3 345.2C275.6 364.9 279.3 381.3 279.3 381.3C279.3 381.3 291.3 373.4 296.6 375.8C301.9 378.2 288.3 323.4 288.3 323.4C288.3 323.4 280 305.1 270.3 314.5Z" fill="#2F2E41"/>
<path d="M279.3 283.3C279.6 279.3 284.4 279.1 288.3 279.1C292.2 279.1 296.8 279.2 299 275.9C300.4 273.7 300.2 270.6 299 268.3C297.8 265.9 295.8 264.1 293.9 262.4C288.9 257.9 283.8 253.4 277.8 250.5C271.8 247.6 264.8 246.4 258.6 248.7C251 251.6 240.6 266.3 239.8 274.7C238.9 283.1 242.1 291.8 247.6 298C253.1 304.2 265.5 301.8 273.3 304C268.5 296.9 271.7 284.1 279.3 280.8V283.3V283.3Z" fill="#2F2E41"/>
<path d="M642 311C654.426 311 664.5 298.464 664.5 283C664.5 267.536 654.426 255 642 255C629.574 255 619.5 267.536 619.5 283C619.5 298.464 629.574 311 642 311Z" fill="#314455"/>
<path d="M636 347.8L625.8 338.1L589.3 420.3C586.1 421 583.9 424.9 584.5 428.9C585.1 432.9 588.2 435.5 591.4 434.8C594.5 434.1 596.7 430.4 596.2 426.5L636 347.8Z" fill="#FFB8B8"/>
<path d="M729.1 394.5C728.2 391.4 725.9 389.4 723.2 389.6L664.4 332.3L655.6 343.9L717.6 397.6C717.8 401.7 720.7 404.7 724 404.4C727.3 404.1 729.7 400.5 729.5 396.5C729.4 395.7 729.3 395 729.1 394.5Z" fill="#FFB8B8"/>
<path d="M660.8 554.4H667.8L671.1 521.1H660.8V554.4Z" fill="#FFB8B8"/>
<path d="M681.1 562.4H659.3V551.9H672.7C677.4 551.9 681.1 556.6 681.1 562.4Z" fill="#2F2E41"/>
<path d="M605.9 546.7L612.3 550.1L625.9 521.2L616.5 516.2L605.9 546.7Z" fill="#FFB8B8"/>
<path d="M622 564L602 553.3L605.3 543.7L617.6 550.3C621.9 552.5 623.9 558.7 622 564Z" fill="#2F2E41"/>
<path d="M627.5 395.1L594.5 524.2L637.8 530L642 454.5L647.6 530L682.6 524.9C682.6 524.9 676.3 405.4 664.8 397.8C653.3 390.2 627.5 395.1 627.5 395.1Z" fill="#2F2E41"/>
<path d="M645.4 317.8C653.353 317.8 659.8 309.786 659.8 299.9C659.8 290.014 653.353 282 645.4 282C637.447 282 631 290.014 631 299.9C631 309.786 637.447 317.8 645.4 317.8Z" fill="#FFB8B8"/>
<path d="M644.9 400.9C634.9 400.9 625.2 400.4 624.7 399.3C624.6 399.1 624.6 398.9 624.8 398.8C625.5 397.6 623.9 377 620.5 343.9C619.7 336 623.5 328.3 629.6 325.6H629.7L659.9 321.9L660.2 322.1C666.4 324.3 670.5 331.4 670.2 339.3C669.4 360.4 668.1 396.1 668.1 398.4C668.1 399 667.4 399.3 666.8 399.6C663.9 400.4 654.2 400.9 644.9 400.9Z" fill="#2F2E41"/>
<path d="M606.2 63.1L650.1 14.9L705 53.4L661 101.7L606.2 63.1Z" fill="#F2F2F2"/>
<path d="M660.7 112.5C652.1 111.4 646.2 104.2 647.5 96.7C648.8 89.2 656.9 84 665.5 85.1C674.1 86.2 680 93.4 678.7 100.9C677.4 108.5 669.4 113.6 660.7 112.5ZM665.2 86.3C657.4 85.2 650.1 90 648.9 96.8C647.7 103.7 653.1 110.1 660.9 111.2C668.7 112.3 676 107.5 677.2 100.7C678.4 93.8 673.1 87.4 665.2 86.3Z" fill="#3F3D56"/>
<path d="M815.4 529.2C811.3 547 817.7 565.2 817.7 565.2C817.7 565.2 830.8 554.5 834.9 536.7C839 518.9 832.6 500.7 832.6 500.7C832.6 500.7 819.5 511.4 815.4 529.2Z" fill="#E6E6E6"/>
<path d="M821.9 519.4C825 542.7 817.5 565.6 817.5 565.6C817.5 565.6 805 550.6 802 527.3C798.9 504 806.4 481.1 806.4 481.1C806.4 481.1 818.8 496.1 821.9 519.4Z" fill="#E6E6E6"/>
<path d="M625.1 288C632.8 293.2 641.4 295.8 650.1 295.5C653.4 295.4 657.1 294.7 659.2 291.4C661.6 287.8 661 282.1 658.7 278.4C656.4 274.7 652.8 272.6 649.2 271.1C645.8 269.8 642.1 268.9 638.7 269.9C631.6 271.8 627.1 280.5 628.6 289.3C628.7 290.1 628.9 290.8 629.1 291.6" fill="#314455"/>
<path d="M625.52 316.27C629.47 315.464 631.715 310.118 630.535 304.327C629.354 298.537 625.194 294.497 621.244 295.302C617.294 296.108 615.049 301.455 616.229 307.245C617.41 313.035 621.57 317.075 625.52 316.27Z" fill="#314455"/>
<path d="M777.6 527.5C773.5 545.3 779.9 563.5 779.9 563.5C779.9 563.5 793 552.8 797.1 535C801.2 517.2 794.8 499 794.8 499C794.8 499 781.8 509.7 777.6 527.5Z" fill="#E6E6E6"/>
<path d="M783 528C789.5 546.1 775.3 563.7 775.3 563.7C775.3 563.7 750.7 552 744.2 533.9C737.7 515.8 751.9 498.2 751.9 498.2C751.9 498.2 776.6 509.9 783 528Z" fill="#E6E6E6"/>
<path d="M455.766 53.5879C465.415 48.0996 468.633 35.556 462.954 25.5711C457.274 15.5861 444.848 11.9408 435.199 17.4291C425.55 22.9174 422.333 35.461 428.012 45.4459C433.691 55.4309 446.117 59.0762 455.766 53.5879Z" fill="#D0CDE1"/>
<path d="M419.4 32.6C425.4 43.2 438.5 47 448.8 41.2C459.1 35.4 462.5 22.1 456.4 11.5C450.4 0.899999 437.3 -2.9 427 2.9C416.7 8.8 413.3 22 419.4 32.6ZM454.5 12.6C459.9 22 456.8 34.1 447.7 39.3C438.6 44.5 426.7 41.1 421.3 31.5C415.9 21.9 419 10 428.1 4.8C437.2 -0.399998 449.1 3.20001 454.5 12.6Z" fill="#2F2E41"/>
<path d="M448.3 269.7C447.8 269.6 447.2 269.5 446.7 269.4C446.2 269.3 445.6 269.2 445.1 269.2C444.6 269.1 444 269.1 443.5 269.1C443 269.1 442.4 269.1 441.9 269.1C441.4 269.1 440.8 269.1 440.3 269.1C439.8 269.1 439.2 269.2 438.7 269.2C438.2 269.3 437.6 269.3 437.1 269.4C436.6 269.5 436 269.6 435.5 269.7C435 269.8 434.4 269.9 433.9 270.1C433.4 270.2 432.8 270.4 432.3 270.6C431.8 270.8 431.3 270.9 430.7 271.1C430.2 271.3 429.7 271.5 429.2 271.7C428.7 271.9 428.2 272.1 427.7 272.4C427.2 272.6 426.7 272.9 426.2 273.2C425.7 273.5 425.2 273.7 424.8 274C424.3 274.3 423.9 274.6 423.4 274.9C422.9 275.2 422.5 275.5 422.1 275.9C421.7 276.2 421.2 276.6 420.8 276.9C420.4 277.3 420 277.6 419.6 278C419.2 278.4 418.8 278.8 418.4 279.2C418 279.6 417.6 280 417.3 280.4C416.9 280.8 416.6 281.2 416.2 281.7C415.8 282.1 415.5 282.6 415.2 283C414.9 283.5 414.6 283.9 414.2 284.4C413.9 284.9 413.6 285.3 413.3 285.8C413 286.3 412.7 286.8 412.5 287.3C412.2 287.8 412 288.3 411.7 288.8C411.5 289.3 411.2 289.8 411 290.3C410.8 290.8 410.6 291.3 410.4 291.9C410.2 292.4 410 293 409.9 293.5C409.7 294 409.6 294.6 409.4 295.1C409.3 295.6 409.1 296.2 409 296.7C408.9 297.3 408.8 297.8 408.7 298.4C408.6 299 408.5 299.5 408.5 300.1C408.4 300.7 408.4 301.2 408.4 301.8C408.4 302.4 408.3 302.9 408.3 303.5C408.3 304.1 408.3 304.6 408.3 305.2C408.3 305.8 408.3 306.3 408.4 306.9C408.4 307.5 408.5 308 408.6 308.6C408.7 309.2 408.8 309.7 408.9 310.3C409 310.9 409.1 311.4 409.2 311.9C409.3 312.4 409.5 313 409.6 313.5C409.7 314 409.9 314.6 410.1 315.1C410.3 315.6 410.5 316.2 410.7 316.7C410.9 317.2 411.1 317.7 411.3 318.2C411.5 318.7 411.8 319.2 412 319.7C412.2 320.2 412.5 320.7 412.8 321.2C413.1 321.7 413.4 322.2 413.6 322.6C413.9 323.1 414.2 323.5 414.5 324C414.8 324.5 415.1 324.9 415.5 325.3C415.8 325.7 416.2 326.2 416.5 326.6C416.9 327 417.2 327.4 417.6 327.8C418 328.2 418.4 328.6 418.8 329C419.2 329.4 419.6 329.7 420 330.1C420.4 330.5 420.8 330.8 421.3 331.1C421.7 331.4 422.2 331.8 422.6 332.1C423 332.4 423.5 332.7 424 333C424.5 333.3 424.9 333.6 425.4 333.8C425.9 334.1 426.4 334.3 426.8 334.6C427.3 334.8 427.8 335.1 428.3 335.3C428.8 335.5 429.3 335.7 429.8 335.9C430.3 336.1 430.8 336.3 431.3 336.4C431.8 336.6 432.3 336.7 432.9 336.8C433.5 336.9 434 337.1 434.5 337.2C435 337.3 435.6 337.4 436.1 337.5C436.6 337.6 437.2 337.7 437.7 337.7C438.2 337.8 438.8 337.8 439.3 337.8C439.8 337.8 440.4 337.8 440.9 337.8C441.4 337.8 442 337.8 442.5 337.8C443 337.8 443.6 337.7 444.1 337.7C444.6 337.6 445.2 337.6 445.7 337.5C446.2 337.4 446.8 337.3 447.3 337.2C447.8 337.1 448.4 337 448.9 336.8C449.4 336.7 450 336.5 450.5 336.3C451 336.1 451.5 336 452.1 335.8C452.7 335.6 453.1 335.4 453.6 335.2C454.1 335 454.6 334.8 455.1 334.5C455.6 334.3 456.1 334 456.6 333.7C457.1 333.4 457.6 333.2 458 332.9C458.5 332.6 458.9 332.3 459.4 332C459.9 331.7 460.3 331.4 460.7 331C461.1 330.7 461.6 330.3 462 330C462.4 329.6 462.8 329.3 463.2 328.9C463.6 328.5 464 328.1 464.4 327.7C464.8 327.3 465.2 326.9 465.5 326.5C465.9 326.1 466.2 325.7 466.6 325.2C467 324.8 467.3 324.3 467.6 323.9C467.9 323.4 468.2 323 468.6 322.5C468.9 322 469.2 321.6 469.5 321.1C469.8 320.6 470.1 320.1 470.3 319.6C470.6 319.1 470.8 318.6 471.1 318.1C471.3 317.6 471.6 317.1 471.8 316.6C472 316.1 472.2 315.6 472.4 315C472.6 314.5 472.8 313.9 472.9 313.4C473.1 312.9 473.2 312.3 473.4 311.8C473.5 311.3 473.7 310.7 473.8 310.2C473.9 309.6 474 309.1 474.1 308.5C474.2 307.9 474.3 307.4 474.3 306.8C474.4 306.2 474.4 305.7 474.4 305.1C474.4 304.5 474.5 304 474.5 303.4C474.5 302.8 474.5 302.3 474.5 301.7C474.5 301.1 474.5 300.6 474.4 300C474.4 299.4 474.3 298.9 474.2 298.3C474.1 297.7 474 297.2 473.9 296.6C473.8 296 473.7 295.5 473.6 295C473.5 294.5 473.3 293.9 473.2 293.4C473.1 292.9 472.9 292.3 472.7 291.8C472.5 291.3 472.3 290.7 472.1 290.2C471.9 289.7 471.7 289.2 471.5 288.7C471.3 288.2 471 287.7 470.8 287.2C470.6 286.7 470.3 286.2 470 285.7C469.7 285.2 469.4 284.7 469.2 284.3C468.9 283.8 468.6 283.4 468.3 282.9C468 282.4 467.7 282 467.3 281.6C467 281.2 466.6 280.7 466.3 280.3C465.9 279.9 465.6 279.5 465.2 279.1C464.8 278.7 464.4 278.3 464 277.9C463.6 277.5 463.2 277.2 462.8 276.8C462.4 276.4 462 276.1 461.5 275.8C461.1 275.5 460.6 275.1 460.2 274.8C459.8 274.5 459.3 274.2 458.8 273.9C458.3 273.6 457.9 273.3 457.4 273.1C456.9 272.8 456.4 272.6 456 272.3C455.5 272.1 455 271.8 454.5 271.6C454 271.4 453.5 271.2 453 271C452.5 270.8 452 270.6 451.5 270.5C451 270.3 450.5 270.2 449.9 270.1C449.4 269.9 448.9 269.8 448.3 269.7Z" fill="#7688D4"/>
<path d="M450.1 303.9C447.5 303.4 444.9 305.3 444.3 308.2C443.7 311.1 445.3 313.9 447.9 314.5C450.5 315 453.1 313.1 453.7 310.2C454.3 307.3 452.7 304.5 450.1 303.9ZM433.3 300.5C430.7 300 428.1 301.9 427.5 304.8C426.9 307.7 428.5 310.5 431.1 311.1C433.7 311.6 436.3 309.7 436.9 306.8C437.6 303.8 435.9 301 433.3 300.5ZM480.8 268.6L419 255.9C418.8 255.9 418.7 255.8 418.5 255.8C418.3 255.8 418.2 255.8 418 255.7C417.8 255.7 417.7 255.7 417.5 255.7C417.3 255.7 417.2 255.7 417 255.7C416.8 255.7 416.7 255.7 416.5 255.7C416.3 255.7 416.2 255.7 416 255.7C415.8 255.7 415.7 255.7 415.5 255.8C415.3 255.8 415.2 255.9 415 255.9C414.8 255.9 414.7 256 414.5 256C414.3 256 414.2 256.1 414 256.1C413.8 256.1 413.7 256.2 413.5 256.3C413.4 256.4 413.2 256.4 413.1 256.5C413 256.6 412.8 256.6 412.7 256.7C412.6 256.8 412.4 256.8 412.3 256.9C412.2 257 412 257.1 411.9 257.1C411.8 257.2 411.6 257.3 411.5 257.4C411.4 257.5 411.2 257.6 411.1 257.7C411 257.8 410.8 257.9 410.7 258C410.6 258.1 410.5 258.2 410.3 258.3C410.2 258.4 410.1 258.5 410 258.6C409.9 258.7 409.8 258.8 409.7 259C409.6 259.1 409.5 259.2 409.4 259.4C409.3 259.5 409.2 259.7 409.1 259.8C409 259.9 408.9 260.1 408.8 260.2C408.7 260.3 408.6 260.5 408.5 260.6C408.4 260.7 408.3 260.9 408.3 261C408.2 261.1 408.1 261.3 408.1 261.4C408.1 261.5 408 261.7 407.9 261.8C407.8 262 407.8 262.1 407.7 262.3C407.6 262.5 407.6 262.6 407.5 262.8C407.5 263 407.4 263.1 407.4 263.3C407.4 263.5 407.3 263.6 407.3 263.8L394 328.1C394 328.3 393.9 328.4 393.9 328.6C393.9 328.8 393.9 328.9 393.8 329.1C393.8 329.3 393.8 329.4 393.8 329.6C393.8 329.8 393.8 329.9 393.8 330.1C393.8 330.3 393.8 330.4 393.8 330.6C393.8 330.8 393.8 330.9 393.8 331.1C393.8 331.3 393.8 331.4 393.9 331.6C393.9 331.8 393.9 331.9 394 332.1C394 332.3 394.1 332.4 394.1 332.6C394.1 332.8 394.2 332.9 394.2 333.1C394.2 333.3 394.3 333.4 394.3 333.6C394.4 333.8 394.4 333.9 394.5 334.1C394.6 334.3 394.6 334.4 394.7 334.5C394.8 334.6 394.8 334.8 394.9 334.9C395 335 395 335.2 395.1 335.3C395.2 335.4 395.3 335.6 395.3 335.7C395.4 335.8 395.5 336 395.6 336.1C395.7 336.2 395.8 336.4 395.9 336.5C396 336.6 396.1 336.8 396.2 336.9C396.3 337 396.4 337.1 396.5 337.3C396.6 337.4 396.7 337.5 396.8 337.6C396.9 337.7 397 337.8 397.2 337.9C397.3 338 397.4 338.1 397.6 338.2C397.7 338.3 397.9 338.4 398 338.5C398.1 338.6 398.3 338.7 398.4 338.8C398.5 338.9 398.7 339 398.8 339C398.9 339.1 399.1 339.2 399.2 339.2C399.3 339.3 399.5 339.3 399.6 339.4C399.7 339.5 399.9 339.5 400 339.6C400.1 339.7 400.3 339.7 400.4 339.8C400.6 339.8 400.7 339.9 400.9 339.9C401.1 339.9 401.2 340 401.4 340L453.7 350.8L453.1 341.5L457.8 348.4L462.3 354.9L470.4 365.9L488 280.6C489.3 275 486 269.7 480.8 268.6ZM450.1 327.1L447.9 322.6C454.3 322.1 457.4 318.7 457.4 318.7C455.2 319.6 453.3 320.1 451.5 320.4C449 320.9 446.6 321.1 444.4 321.1C439.8 321 435.8 320 432.5 318.6C430 317.5 427.9 316.3 426.2 315.1C425.2 314.4 424.2 313.7 423.2 312.8C423.1 312.7 423 312.6 422.8 312.5C422.7 312.4 422.7 312.4 422.6 312.4L421.5 311.3C421.5 311.3 422.9 315.5 428.4 318.6L424.5 321.9C414.4 319.5 411.9 311.7 411.9 311.7C415.1 296.4 424.3 285.3 424.3 285.3C432 281.5 438.2 283 438.2 283L438.5 283.7C429.7 284.4 425.1 287.4 425.1 287.4C425.1 287.4 426.2 287 428.1 286.6C433.5 285.4 437.5 285.6 439.2 285.7C439.5 285.7 439.7 285.7 440 285.8C443.2 286 446.3 286.6 449.3 287.6C450.5 288 451.6 288.5 452.8 289C453.9 289.5 455.1 290.1 456.1 290.7C457.1 291.3 458.2 292 459.3 292.7C460.3 293.4 461.3 294.2 462.3 295C462.3 295 459.4 290.6 452.1 286.6L452.9 286C452.9 286 459.2 287.2 464.8 293.7C470.3 300.2 468.9 307.5 465.7 322.8C465.7 322.8 460.4 328.9 450.1 327.1Z" fill="#314455"/>
</svg>
