<svg width="1011" height="928" viewBox="0 0 1011 928" fill="none" xmlns="http://www.w3.org/2000/svg">
<g filter="url(#filter0_d)">
<path d="M485.714 910.524L19.9829 651.513C5.15993 643.686 -7.56396 630.835 6.89618 622.374L474.311 368.777C481.334 364.68 491.985 361.998 499.111 365.9L988.009 633.006C1002.83 641.101 1005.5 663.73 990.601 671.85L547.182 910.109C537.861 915.206 527.287 917.926 516.506 917.998C505.726 918.071 495.112 915.495 485.714 910.524Z" fill="#9E5A63"/>
<path d="M376.265 502.295L280.538 439.884C280.538 439.884 304.743 419.358 318.345 426.513C331.947 433.668 333.924 436.451 333.924 436.451C333.924 436.451 343.777 413.865 360.89 418.671C378.004 423.477 382.163 436.451 382.163 436.451C382.163 436.451 389.595 415.202 406.368 426.513C411.386 430.122 415.608 434.839 418.745 440.341C421.881 445.843 423.858 451.999 424.538 458.387L422.697 532L376.265 502.295Z" fill="white"/>
<path d="M495.811 515.034L591.538 452.076C591.538 452.076 567.334 431.37 553.731 438.588C540.129 445.806 538.152 448.613 538.152 448.613C538.152 448.613 528.299 425.828 511.186 430.677C494.072 435.526 489.913 448.613 489.913 448.613C489.913 448.613 482.481 427.177 465.709 438.588C460.69 442.228 456.468 446.987 453.331 452.537C450.195 458.087 448.219 464.297 447.538 470.741L449.379 545L495.811 515.034Z" fill="white"/>
<path d="M479.786 343C479.786 343 515.573 383.053 515.538 405.615C515.503 428.176 515.538 502 515.538 502H500.567C500.567 502 469.897 426.106 450.189 401.152C430.48 376.199 479.786 343 479.786 343Z" fill="#CFD2A8"/>
<path opacity="0.61" d="M479.786 343C479.786 343 515.573 383.053 515.538 405.615C515.503 428.176 515.538 502 515.538 502H500.567C500.567 502 469.897 426.106 450.189 401.152C430.48 376.199 479.786 343 479.786 343Z" fill="#363636"/>
<path d="M393.866 343C393.866 343 359.505 383.053 359.538 405.615C359.571 428.176 359.538 502 359.538 502H373.913C373.913 502 403.361 426.034 422.118 401.081C440.875 376.128 393.866 343 393.866 343Z" fill="#CFD2A8"/>
<path opacity="0.61" d="M393.866 343C393.866 343 359.505 383.053 359.538 405.615C359.571 428.176 359.538 502 359.538 502H373.913C373.913 502 403.361 426.034 422.118 401.081C440.875 376.128 393.866 343 393.866 343Z" fill="#363636"/>
<path d="M471.538 71.8908C463.312 46.6279 452.365 22.4985 438.923 0C438.923 0 422.087 25.7237 406.538 72.4973C425.817 84.378 449.948 80.5962 471.538 71.8908Z" fill="#CFD2A8"/>
<path d="M436.538 271C456.42 271 472.538 255.33 472.538 236C472.538 216.67 456.42 201 436.538 201C416.656 201 400.538 216.67 400.538 236C400.538 255.33 416.656 271 436.538 271Z" fill="#CFD2A8"/>
<path d="M438 0C438 0 332.392 158.886 402.662 404.582C402.662 404.582 410.616 457.064 435.664 455.984C460.712 454.903 480.04 398.027 480.04 398.027C480.04 398.027 537.482 162.488 438 0Z" fill="#CFD2A8"/>
<path opacity="0.61" d="M471.538 71.8908C463.312 46.6279 452.365 22.4985 438.923 0C438.923 0 422.087 25.7237 406.538 72.4973C425.817 84.378 449.948 80.5962 471.538 71.8908Z" fill="#363636"/>
<path opacity="0.61" d="M436.538 271C456.42 271 472.538 255.33 472.538 236C472.538 216.67 456.42 201 436.538 201C416.656 201 400.538 216.67 400.538 236C400.538 255.33 416.656 271 436.538 271Z" fill="#363636"/>
<path d="M402.587 405C402.587 405 378.504 432.581 378.538 448.305C378.572 464.03 378.538 515 378.538 515H388.671C388.671 515 409.308 462.489 422.447 445.225C435.586 427.96 402.587 405 402.587 405Z" fill="#CFD2A8"/>
<path d="M470.978 405C470.978 405 495.573 432.581 495.538 448.305C495.504 464.03 495.538 515 495.538 515H485.19C485.19 515 464.113 462.489 450.695 445.225C437.276 427.96 470.978 405 470.978 405Z" fill="#CFD2A8"/>
<path opacity="0.29" d="M402.587 405C402.587 405 378.504 432.581 378.538 448.305C378.572 464.03 378.538 515 378.538 515H388.671C388.671 515 409.308 462.489 422.447 445.225C435.586 427.96 402.587 405 402.587 405Z" fill="#363636"/>
<path opacity="0.29" d="M470.978 405C470.978 405 495.573 432.581 495.538 448.305C495.504 464.03 495.538 515 495.538 515H485.19C485.19 515 464.113 462.489 450.695 445.225C437.276 427.96 470.978 405 470.978 405Z" fill="#363636"/>
<path d="M426.402 451C426.402 451 385.166 458.882 378.368 477.691C371.569 496.5 376.6 509.147 376.6 509.147C376.6 509.147 350.56 510.007 346.005 529.891C341.449 549.775 346.005 556.009 346.005 556.009C346.005 556.009 287.907 558.553 289.573 623.256V644L426.538 556.797L426.402 451Z" fill="white"/>
<path d="M444.673 444C444.673 444 485.608 452.004 492.357 471.106C499.106 490.208 494.112 503.051 494.112 503.051C494.112 503.051 519.962 503.924 524.484 524.117C529.006 544.31 524.484 550.641 524.484 550.641C524.484 550.641 582.157 553.224 580.503 618.934V640L444.538 551.442L444.673 444Z" fill="white"/>
<path d="M263.538 469V633.598L223.614 656L222.538 492.278L263.538 469Z" fill="#D1D1D1"/>
<path d="M187.946 473L186.538 637.511L223.538 656L222.423 493.231L187.946 473Z" fill="#BCBCBC"/>
<path d="M186.538 471.816L221.014 492L263.538 468.911L228.584 449L186.538 471.816Z" fill="#EFEFEF"/>
<path d="M211.538 464.793V475L234.538 467.322V455" fill="#BA3602"/>
<path d="M225.849 477.329C232.035 474.445 235.862 469.709 234.397 466.752C232.932 463.795 226.73 463.736 220.544 466.621C214.358 469.505 210.531 474.241 211.996 477.198C213.461 480.155 219.663 480.214 225.849 477.329Z" fill="#BA3602"/>
<path d="M225.89 465.291C232.217 462.34 236.129 457.491 234.627 454.459C233.125 451.427 226.778 451.361 220.451 454.311C214.124 457.262 210.212 462.111 211.714 465.143C213.216 468.175 219.563 468.241 225.89 465.291Z" fill="#DD5112"/>
<path d="M149.538 336.11C149.538 336.11 162.635 324.91 164.032 322.29C165.429 319.669 164.63 297.442 170.143 298.011C175.656 298.579 184.687 301.373 184.312 305.428C183.938 309.483 183.689 308.716 183.689 308.716C184.304 308.812 184.883 309.065 185.369 309.451C185.855 309.837 186.23 310.342 186.458 310.917C187.53 313.043 177.502 322.24 177.228 323.748C176.953 325.257 163.408 345.431 162.809 346" fill="#F04900"/>
<path d="M185.733 448C185.733 448 201.526 457.149 204.755 457.001C207.985 456.853 213.863 452.932 215.452 452.242C217.042 451.551 217.975 453.647 217.975 453.647C217.975 453.647 226.578 450.885 229.883 453.253C233.188 455.62 223.096 461.835 219.489 463.808C215.277 466.136 210.608 467.565 205.79 468C205.79 468 192.469 464.35 183.538 461.637" fill="#F04900"/>
<path d="M158.432 324C158.432 324 174.061 331.237 172.417 340.688C172.417 340.688 138.2 397.714 125.226 401.594C112.252 405.474 104.868 380.355 108.434 376.724C111.999 373.093 158.432 324 158.432 324Z" fill="#F7944B"/>
<path d="M87.0932 612.461C86.0058 614.967 81.2419 649.148 81.5526 655.864C81.8633 662.58 92.3232 663.207 95.5336 662.956C98.7441 662.705 105.036 659.874 109.049 659.723C113.062 659.573 135.147 655.538 134.525 649.875C133.904 644.211 130.072 638.748 125.101 638.473C120.13 638.197 106.641 639.024 106.641 639.024L107.987 608" fill="#FF6753"/>
<path d="M90.7497 451C87.5574 466.442 85.6063 482.109 84.9146 497.854C84.5833 514.117 79.5381 635.222 79.5381 635.222C79.5381 635.222 93.4252 643.341 119.849 635.775C123.671 634.669 128.538 523.593 128.538 523.593L119.492 466.408" fill="#ED4049"/>
<path d="M140.918 653.427C139.955 655.905 136.96 689.952 137.637 696.543C138.314 703.134 148.862 703.283 152.065 702.862C155.268 702.441 161.467 699.343 165.452 699.021C169.436 698.699 191.495 693.619 190.506 688.068C189.516 682.518 185.453 677.289 180.427 677.265C175.4 677.24 161.91 678.702 161.91 678.702L161.623 648" fill="#FF6753"/>
<path d="M141.379 464.724C141.379 464.724 159.979 525.245 166.823 579.82C168.477 592.913 170.538 664.179 170.538 664.179C165.093 667.539 158.983 669.722 152.613 670.584C146.243 671.445 139.76 670.966 133.593 669.177C133.593 669.177 128.86 578.945 128.301 576.721C120.515 546.086 109.421 509.253 107.538 463" fill="#ED4049"/>
<path d="M144.833 429.524C145.757 416.688 150.665 409.957 147.472 397.52C137.735 387.511 119.37 375.325 117.418 375L107.232 377.202C102.839 378.12 98.8952 380.404 96.0269 383.691C93.1586 386.978 91.5303 391.079 91.4006 395.343C90.8464 415.361 90.0548 448.466 90.9256 451.094C91.7963 453.721 112.325 470.461 142.643 463.18C143.62 451.97 144.015 440.734 144.833 429.524Z" fill="#FDD400"/>
<path d="M137.796 348.129C137.796 348.129 141.945 378.163 130.624 380.683C119.303 383.202 107.008 370.075 106.547 363.826C106.086 357.578 122.812 337.295 137.796 348.129Z" fill="#F04900"/>
<path d="M145.519 355.061C145.973 355.028 146.415 354.904 146.816 354.696C147.218 354.488 147.57 354.201 147.85 353.853C148.129 353.505 148.331 353.104 148.441 352.676C148.551 352.248 148.568 351.802 148.489 351.367C147.307 345.075 142.864 332.313 126.33 332.007C113.686 331.778 105.748 337.102 102.041 345.406L101.805 345.89L100.858 348.438C99.6736 352.396 99.281 356.538 99.7017 360.64C100.227 372.18 109.244 378.675 120.731 380C120.731 380 116.052 362.958 123.675 365.658C131.298 368.358 137.686 367.518 135.294 355.698L145.519 355.061Z" fill="#844308"/>
<path d="M112.538 346L114.537 347C114.537 347 114.633 346.435 112.538 346Z" fill="#844308"/>
<path d="M108.492 342.085C106.315 341.431 81.1675 332.153 73.869 343.946C66.5706 355.738 72.9215 373.893 64.0353 376.231C55.1491 378.569 29.5661 377.287 27.2101 388.502C24.8541 399.716 36.6084 405.776 33.7915 410.754C26.8259 415.079 21.2945 420.812 24.4443 429.487C26.2786 434.04 29.6755 437.82 34.0476 440.173C44.5983 446.309 58.9136 441.581 67.5949 434.34C75.2775 428.003 74.5349 420.51 71.5643 411.986C69.2851 405.474 65.3413 397.554 72.7679 392.776C83.8052 385.685 96.5839 393.807 100.323 385.685C104.062 377.564 87.8257 349.352 100.861 346.837C108.057 345.454 111.104 345.831 112.538 346.46L108.492 342.085Z" fill="#844308"/>
<path d="M190.509 687.861C190.237 685.901 189.558 684.017 188.515 682.321C187.472 680.626 186.086 679.155 184.442 678C180.622 683.389 174.903 687.216 168.376 688.751C158.136 690.875 147.48 689.99 137.754 686.209C137.519 689.593 137.476 692.987 137.624 696.375C138.301 703.161 148.847 703.288 152.05 702.856C155.252 702.424 161.45 699.247 165.434 698.917C169.418 698.586 191.446 693.605 190.509 687.861Z" fill="#42210B"/>
<path d="M128.131 640C124.973 643.211 121.131 645.794 116.843 647.59C112.555 649.386 107.912 650.358 103.199 650.444C98.0834 650.398 92.9829 649.927 87.9597 649.039C85.5445 648.792 83.2086 648.1 81.0927 647.003C80.7227 650.053 80.5375 653.119 80.5381 656.187C80.9078 662.658 91.578 663.215 94.853 662.948C98.128 662.682 104.546 659.895 108.613 659.75C112.681 659.604 135.209 655.533 134.523 650.057C134.345 648.049 133.678 646.103 132.572 644.362C131.466 642.622 129.948 641.131 128.131 640Z" fill="#42210B"/>
<path d="M146.158 398C146.158 398 162.583 428.871 168.445 434.317C174.308 439.764 198.768 448.825 200.259 451.028C201.75 453.231 196.873 461.524 194.902 465.065C192.931 468.605 164.579 461.227 159.525 457.39C154.471 453.553 135.671 439.467 128.494 423.152C126.389 418.812 125.967 413.87 127.306 409.247C128.645 404.624 131.654 400.635 135.772 398.025" fill="#FDD400"/>
<path d="M641.023 567.989C641.023 569.405 614.538 428.731 614.538 428.731L833.688 312L856.538 452.475L641.023 567.989Z" fill="#CFD2A8"/>
<path d="M746.907 746L757.538 743.031L755.862 730C755.862 730 744.356 731.937 746.907 746Z" fill="#42210B"/>
<path d="M761.57 709.114C761.57 709.114 765.405 752.582 764.357 753.079C763.308 753.575 752.877 754.469 752.877 753.7C752.877 752.93 752.264 733.84 752.264 733.84C752.264 733.84 747.15 742.255 746.767 746.426C746.767 746.426 734.265 739.524 731.964 734.013C729.663 728.502 737.307 705.266 740.222 704" fill="#7F252B"/>
<path d="M719.398 770L732.538 756.549L723.96 746C723.96 746 715.956 763.037 719.398 770Z" fill="#42210B"/>
<path d="M737.503 719L743.538 771.168C739.801 772.427 735.949 773.375 732.03 774C729.596 773.212 727.258 772.188 725.056 770.944L722.883 753.555C722.883 753.555 717.303 758.722 718.296 769.33C718.296 768.609 709.39 765.877 708.237 765.405C704.606 763.947 701.123 762.193 697.829 760.163C694.395 757.977 681.734 748.239 688.494 744.364C694.315 741.06 713.172 742.65 713.172 742.65L713.441 721.112" fill="#7F252B"/>
<path d="M759.683 531.282C759.639 531.098 759.64 530.906 759.686 530.722C759.733 530.538 759.823 530.367 759.951 530.221C760.079 530.074 760.241 529.957 760.424 529.879C760.607 529.8 760.808 529.761 761.009 529.766C759.746 525.178 757.627 520.836 754.75 516.94L700.835 511C700.835 511 690.014 547.14 685.824 609.378C682.589 657.647 707.863 729.405 707.863 729.405C707.863 729.405 734.012 735.619 746.582 723.515L746.078 713.125C752.588 713.078 759.086 712.58 765.518 711.634C771.989 651.682 767.135 590.91 759.683 531.282Z" fill="#8CC63F"/>
<path d="M748.501 720.92L741.787 675.947C739.654 661.63 736.363 646.889 736.284 632.372C736.205 617.856 741.55 604.888 743.998 590.972C746.406 577.565 747.025 563.924 745.841 550.37C745.578 547.222 740.786 547.197 741.05 550.37C742.395 565.532 741.42 580.798 738.153 595.694C735.152 609.011 730.992 621.629 731.597 635.47C732.203 649.312 735.125 663.454 737.179 677.246L743.893 722.219C744.341 725.367 749.001 723.968 748.501 720.92Z" fill="#42210B"/>
<path d="M671.815 495.908C669.38 495.21 666.919 494.586 664.457 493.962H664.238C657.258 491.594 650.101 489.684 642.822 488.247L628.9 479.488C628.586 479.251 628.21 479.093 627.808 479.03C627.406 478.968 626.993 479.003 626.611 479.132C626.228 479.26 625.89 479.479 625.629 479.765C625.369 480.051 625.195 480.394 625.126 480.761C624.333 482.882 629.228 487.474 630.842 488.721L631.444 489.196C631.772 489.445 633.03 490.668 633.441 490.618C628.657 490.878 623.992 492.079 619.765 494.137C619.391 494.34 619.081 494.629 618.866 494.975C618.651 495.32 618.538 495.711 618.538 496.108C618.538 496.505 618.651 496.896 618.866 497.242C619.081 497.587 619.391 497.876 619.765 498.08C620.626 498.434 621.556 498.629 622.5 498.654L622.008 498.828C618.917 500.001 617.467 502.272 620.202 504.768C620.437 504.982 620.716 505.152 621.023 505.267C621.291 505.508 621.626 505.68 621.991 505.763C622.357 505.846 622.74 505.839 623.102 505.741V506.165C622.901 506.603 622.819 507.079 622.862 507.552C622.905 508.026 623.071 508.483 623.348 508.885C623.919 509.608 624.78 510.096 625.744 510.241C626.708 510.386 627.695 510.177 628.49 509.659L629.639 509.26C630.897 512.104 634.371 512.129 637.407 511.106C640.443 510.083 644.08 508.611 647.39 507.413L657.373 510.956C660.108 511.905 664.84 514.775 667.794 513.801C670.748 512.828 669.544 508.411 666.508 509.384C667.138 509.185 665.825 509.06 665.442 508.935L662.707 507.962C665.215 508.871 667.885 509.353 670.584 509.384C671.079 509.379 671.561 509.24 671.97 508.986C672.379 508.732 672.697 508.373 672.884 507.955C673.071 507.537 673.118 507.078 673.02 506.635C672.923 506.192 672.684 505.786 672.334 505.466C670.908 504.211 669.361 503.075 667.712 502.072C667.898 501.562 667.898 501.011 667.712 500.5H668.04C668.635 500.588 669.245 500.482 669.763 500.201L670.31 500.351C673.62 501.199 674.823 496.807 671.815 495.908Z" fill="#FE6162"/>
<path d="M737.787 436C737.787 436 707.324 436 696.802 454.006C687.975 469.179 689.617 494.468 689.617 494.468L654.633 491.939C651.601 493.331 649.185 495.676 647.803 498.569C646.421 501.461 646.162 504.717 647.071 507.77C648.444 514.244 683.239 517.254 702.453 521.705C721.668 526.155 756.275 527.496 761.818 516.647C767.362 505.798 766.608 461.871 760.231 449.226C753.853 436.582 737.787 436 737.787 436Z" fill="#FFAC2A"/>
<path d="M709.691 410C709.691 410 708.128 431.449 714.991 436.407C721.853 441.364 733.538 433.168 733.538 433.168" fill="#FE6162"/>
<path d="M715.76 398.553C712.664 400.803 710.26 403.767 708.79 407.147C702.95 420.647 718.667 437.41 732.661 440L739.927 437.883C739.927 437.883 749.535 424.781 749.535 417.433C749.643 410.341 746.745 403.492 741.462 398.354C733.872 391.903 723.161 393.173 715.76 398.553Z" fill="#7F252B"/>
<path d="M733.342 440.985C733.342 440.985 707.171 509.819 726.9 521.214C746.629 532.609 785.094 522.219 777.578 505.163C770.062 488.108 740.616 439 740.616 439" fill="#7F252B"/>
<path d="M820.538 430.06C820.538 430.06 809.847 419.626 807.762 414.373C805.677 409.119 809.045 391.853 806.372 390.398C803.699 388.942 800.438 395.799 801.026 397.797C801.026 398.019 801.026 397.945 800.892 397.797C800.623 397.516 800.398 397.2 800.224 396.86C799.369 395.577 798.54 394.27 797.712 392.963C796.616 391.261 795.547 389.584 794.397 388.03C793.4 386.527 792.311 385.078 791.136 383.689C790.682 383.171 789.666 381.691 788.784 381.913C788.672 381.945 788.574 382.011 788.506 382.101C788.438 382.19 788.405 382.297 788.41 382.406C788.438 383.594 788.71 384.765 789.212 385.859C789.613 386.994 790.04 388.104 790.468 389.214C790.896 390.324 791.163 391.039 791.43 391.976C791.43 392.174 791.778 393.012 791.43 392.988C791.083 392.963 791.216 392.988 791.163 392.84C789.977 391.835 788.878 390.746 787.875 389.584C786.325 387.956 784.748 386.303 783.091 384.651C782.299 383.861 781.46 383.111 780.578 382.406C779.913 381.78 779.099 381.307 778.199 381.025C775.527 380.605 779.295 385.637 779.589 386.131C780.739 387.882 781.941 389.608 783.037 391.409C783.224 391.705 784.775 393.876 784.16 394.221C784.057 394.257 783.943 394.257 783.839 394.221C783.039 393.908 782.306 393.465 781.674 392.914C780.739 392.198 779.857 391.434 779.001 390.669C778.146 389.904 777.184 389.115 776.328 388.4C775.636 387.819 774.84 387.351 773.976 387.019C773.602 387.019 772.88 386.846 772.64 387.265C772.399 387.684 772.64 388.03 772.8 388.301C773.141 389.058 773.571 389.777 774.083 390.447C775.393 392.322 776.917 394.073 778.333 395.849C778.975 396.638 779.616 397.452 780.204 398.315C780.627 398.834 780.944 399.419 781.14 400.042C781.148 400.116 781.148 400.19 781.14 400.264C781.14 402.311 776.168 396.761 773.629 397.649C771.09 398.537 778.975 405.616 783.171 408.527C787.456 411.351 791.52 414.45 795.333 417.801C796.696 419.454 806.452 435.61 811.905 440" fill="#F04900"/>
<path d="M923.66 625.478C924.79 627.939 929.846 662.166 929.523 668.858C929.201 675.551 918.12 676.24 914.731 675.945C911.342 675.65 904.672 672.844 900.449 672.721C896.226 672.598 872.854 668.538 873.553 662.879C874.253 657.22 878.26 651.757 883.532 651.462C888.803 651.167 903.058 652.003 903.058 652.003L901.633 621" fill="#FF6753"/>
<path d="M928.113 659.997C916.891 663.366 904.71 663.231 893.586 659.615C891.509 658.994 889.599 657.997 887.979 656.686C886.359 655.375 885.063 653.779 884.175 652H883.61C878.232 652.239 874.253 657.514 873.553 663.005C872.854 668.495 896.195 672.553 900.443 672.72C904.692 672.887 911.199 675.656 914.695 675.943C918.191 676.229 929.162 675.656 929.538 669.163C929.542 665.973 929.344 662.785 928.946 659.615L928.113 659.997Z" fill="#312A87"/>
<path d="M842.175 368.609C842.175 368.609 837.538 361.358 837.538 357.809C837.538 354.259 841.601 358.924 841.601 358.924L841.075 350C841.075 350 844.206 355.197 845.855 357.606C847.505 360.014 852.524 371.575 853.408 373.628C854.292 375.682 862.538 381.234 862.538 381.234C862.538 381.234 860.148 389.423 857.758 389.981C855.368 390.539 842.94 378.75 842.94 378.75L842.175 368.609Z" fill="#F04900"/>
<path d="M856.624 374C856.624 374 845.931 382.411 847.745 391.96C847.745 391.96 861.23 415.684 875.664 419.593C890.099 423.501 898.558 398.095 894.538 394.36C890.517 390.624 856.624 374 856.624 374Z" fill="#6949C1"/>
<path d="M919.581 462C926.246 473.763 929.886 486.828 930.21 500.148C930.555 516.565 931.538 648.176 931.538 648.176C931.538 648.176 916.791 656.384 888.758 648.749C884.693 647.652 879.538 535.377 879.538 535.377L889.051 477.369" fill="#4739AA"/>
<path d="M866.889 666.502C867.906 668.98 871.151 703.676 870.436 710.417C869.721 717.158 858.392 717.282 854.927 716.861C851.462 716.439 844.835 713.292 840.517 712.945C836.2 712.598 812.578 707.443 813.568 701.793C814.558 696.142 819.068 690.814 824.403 690.789C829.738 690.764 844.285 692.251 844.285 692.251L844.587 661" fill="#FF6753"/>
<path d="M879.684 625.921C879.864 625.316 880.085 624.722 880.344 624.144C882.961 607.055 887.919 590.363 895.095 574.489C896.839 565.404 898.003 559.472 898.108 558.946C906.329 527.712 900.197 519.227 902.179 472L866.413 473.727C866.413 473.727 846.746 535.445 839.477 591.082C837.732 604.522 835.538 677.102 835.538 677.102C841.306 680.516 847.776 682.728 854.517 683.591C861.258 684.454 868.116 683.948 874.635 682.108L875.348 678.279C870.828 660.934 874.82 642.914 879.684 625.921Z" fill="#4739AA"/>
<path d="M863.418 439.686C862.451 426.587 857.373 419.61 860.597 407.063C870.7 396.799 889.723 384.477 891.765 384L902.512 386.334C907.012 387.325 911.034 389.679 913.951 393.029C916.867 396.38 918.514 400.538 918.634 404.854C919.225 425.181 920.031 459.085 919.144 461.795C918.258 464.506 896.951 481.57 865.406 474.142C864.681 462.623 864.251 451.13 863.418 439.686Z" fill="#A07DEF"/>
<path d="M868.324 362.199C868.324 362.199 863.932 393.079 875.912 395.673C887.892 398.268 900.911 384.761 901.523 378.427C902.135 372.094 884.165 351.058 868.324 362.199Z" fill="#F04900"/>
<path d="M871.124 347.871C869.867 348.314 858.85 354.409 859.572 358.514C860.294 362.619 862.246 371.762 865.348 370.287C868.45 368.813 868.53 363.332 871.151 367.436C873.771 371.541 875.964 374.662 878.611 373.63C879.431 373.335 880.308 373.2 881.187 373.234C882.067 373.268 882.929 373.47 883.718 373.827C883.718 373.827 883.718 395.358 886.392 393.932C889.066 392.507 900.511 388.058 904.656 381.643C907.33 377.538 907.918 369.87 907.33 363.7C907.139 360.764 906.224 357.907 904.656 355.343C901.394 350.87 880.082 344.701 871.124 347.871Z" fill="#FBB03B"/>
<path d="M905.626 356C905.626 356 918.59 371.652 917.469 390.893C916.349 410.134 879.538 413 879.538 413L884.633 374.792" fill="#FBB03B"/>
<path d="M799.36 428.037C800.197 425.42 801.641 423.018 803.582 421.007C805.524 418.996 807.914 417.428 810.575 416.42C820.464 425.376 832.565 435.077 836.598 433.56C842.427 431.321 854.059 405.376 870.584 404.057C887.108 402.739 886.536 424.679 886.536 424.679C886.536 424.679 857.677 467.241 842.037 467.988C829.442 468.585 806.516 447.415 797.538 437.216C797.795 434.103 798.405 431.025 799.36 428.037Z" fill="#A07DEF"/>
<path d="M861.597 698.935C850.594 701.207 838.298 702.841 829.743 694.059C828.599 692.851 827.67 691.48 826.992 690H824.406C818.905 690 814.559 695.514 813.568 701.335C812.578 707.155 836.235 712.491 840.526 712.823C844.817 713.155 851.529 716.422 854.94 716.856C858.351 717.29 869.739 717.163 870.454 710.219C870.617 706.287 870.543 702.349 870.234 698.425C867.394 698.963 864.487 699.135 861.597 698.935Z" fill="#312A87"/>
<path d="M912.525 502.477C912.737 500.992 910.352 500.363 910.14 501.848C901.157 562.1 868.086 618.854 873.041 680.867C873.041 682.378 875.691 682.378 875.506 680.867C870.55 619.08 903.542 562.502 912.525 502.477Z" fill="#A07DEF"/>
</g>
<defs>
<filter id="filter0_d" x="0.538086" y="0" width="1010" height="928" filterUnits="userSpaceOnUse" color-interpolation-filters="sRGB">
<feFlood flood-opacity="0" result="BackgroundImageFix"/>
<feColorMatrix in="SourceAlpha" type="matrix" values="0 0 0 0 0 0 0 0 0 0 0 0 0 0 0 0 0 0 127 0" result="hardAlpha"/>
<feOffset dx="5" dy="5"/>
<feGaussianBlur stdDeviation="2.5"/>
<feColorMatrix type="matrix" values="0 0 0 0 0 0 0 0 0 0 0 0 0 0 0 0 0 0 0.25 0"/>
<feBlend mode="normal" in2="BackgroundImageFix" result="effect1_dropShadow"/>
<feBlend mode="normal" in="SourceGraphic" in2="effect1_dropShadow" result="shape"/>
</filter>
</defs>
</svg>
