<svg width="1011" height="928" viewBox="0 0 1011 928" fill="none" xmlns="http://www.w3.org/2000/svg">
<g filter="url(#filter0_d)">
<path d="M485.714 910.524L19.9829 651.513C5.15993 643.686 -7.56396 630.835 6.89618 622.374L474.311 368.777C481.334 364.68 491.985 361.998 499.111 365.9L988.009 633.006C1002.83 641.101 1005.5 663.73 990.601 671.85L547.182 910.109C537.861 915.206 527.287 917.926 516.506 917.998C505.726 918.071 495.112 915.495 485.714 910.524Z" fill="#9E5A63"/>
<path d="M493.007 833C493.007 833 487.968 876.739 510.917 885.2C533.867 893.661 546.168 871.634 546.538 833" fill="#CFD2A8"/>
<path d="M520.038 848C534.674 848 546.538 841.06 546.538 832.5C546.538 823.94 534.674 817 520.038 817C505.403 817 493.538 823.94 493.538 832.5C493.538 841.06 505.403 848 520.038 848Z" fill="#F2696A"/>
<path d="M526.62 798.229C526.62 798.229 516.111 783.24 520.696 772.919C520.696 772.919 524.484 766.254 529.838 765.214C529.838 765.214 529.297 779.415 534.651 777.615C540.005 775.816 534.651 762.739 534.651 762.739C534.651 762.739 540.347 755.231 546.442 755.456C552.536 755.681 546.442 768.729 550.714 766.704C554.985 764.68 550.97 753.431 555.811 752.109C560.22 751.111 564.692 750.407 569.197 750C569.197 750 573.753 762.964 569.197 764.82C564.64 766.676 557.947 767.295 561.165 770.163C564.384 773.032 573.497 769.741 573.497 769.741C573.497 769.741 574.067 777.025 570.962 780.175C567.858 783.324 549.66 776.35 552.878 782.621C556.096 788.892 568.114 785.433 568.114 785.433C564.502 790.448 559.96 794.742 554.729 798.088C547.495 802.306 526.62 798.229 526.62 798.229Z" fill="#8CCC00"/>
<path d="M528.785 837C528.785 837 521.257 829.598 522.729 823.237C523.471 820.991 525.01 819.091 527.059 817.89C527.059 817.89 528.276 826.024 531.105 824.419C533.935 822.815 529.521 815.976 529.521 815.976C529.521 815.976 531.898 811.107 535.379 810.601C538.86 810.094 536.794 818.143 539.001 816.455C541.208 814.766 537.728 808.884 540.303 807.617C542.684 806.583 545.133 805.708 547.632 805C547.632 805 551.594 811.867 549.217 813.443C546.84 815.019 543.133 816.033 545.255 817.327C547.378 818.622 552.16 815.779 552.16 815.779C552.755 817.82 552.645 819.999 551.849 821.971C550.434 824.082 539.426 821.971 541.916 825.264C544.406 828.557 550.859 825.433 550.859 825.433C549.359 828.668 547.256 831.59 544.661 834.045C540.982 837.056 528.785 837 528.785 837Z" fill="#8CCC00"/>
<path d="M501.355 821.988C501.355 821.988 482.721 822.708 476.28 813.088C476.28 813.088 472.599 806.205 474.583 801.049C474.583 801.049 486.545 809.315 487.897 803.757C489.249 798.198 475.072 795.52 475.072 795.52C475.072 795.52 471.621 786.591 475.072 781.465C478.522 776.338 486.574 788.78 486.977 783.942C487.379 779.103 475.676 776.425 477.171 771.586C478.7 767.274 480.515 763.069 482.606 759C482.606 759 496.236 762.254 495.374 767.151C494.511 772.047 491.405 778.095 495.632 776.943C499.86 775.791 501.959 766.2 501.959 766.2C501.959 766.2 508.544 769.714 509.608 774.092C510.672 778.469 494.741 790.163 501.901 790.854C509.061 791.545 512.886 779.564 512.886 779.564C515.251 785.403 516.49 791.638 516.538 797.939C516.107 806.378 501.355 821.988 501.355 821.988Z" fill="#8CCC00"/>
<path d="M565.989 756.243L559.962 761.177C560.165 759.142 560.427 757.107 560.748 755.072C560.922 753.985 559.205 753.539 559.03 754.626C558.583 757.339 558.244 760.071 558.011 762.821C552.711 767.254 547.47 771.909 542.608 776.76C542.19 773.3 542.083 769.812 542.288 766.334C542.288 765.247 540.57 765.247 540.511 766.334C540.281 770.355 540.457 774.388 541.036 778.377C537.929 781.601 535.013 784.988 532.3 788.524C529.233 784.47 527.144 779.813 526.186 774.892C525.982 773.805 524.264 774.279 524.468 775.338C525.485 780.568 527.736 785.507 531.048 789.778L531.223 789.945C522.993 800.451 518.228 813.07 517.538 826.185C517.538 827.272 519.285 827.272 519.314 826.185C519.958 813.489 524.529 801.263 532.446 791.06C539.638 792.888 547.092 793.585 554.517 793.123C555.652 793.123 555.652 791.339 554.517 791.423C547.47 791.857 540.395 791.226 533.552 789.555C537.327 784.67 541.473 780.058 545.956 775.756H546.102C550.266 776.119 554.429 776.453 558.593 776.62C561.209 776.981 563.879 776.683 566.338 775.756C567.357 775.254 566.338 773.805 565.436 774.279C562.524 775.673 558.535 774.92 555.448 774.753C552.799 774.613 550.178 774.39 547.529 774.167C553.876 768.146 560.69 762.543 567.27 757.218C568.085 756.744 566.862 755.546 565.989 756.243Z" fill="#06577A"/>
<path d="M511.534 790.23C511.555 790.029 511.498 789.828 511.373 789.663C511.247 789.497 511.062 789.377 510.849 789.324C510.636 789.271 510.409 789.289 510.209 789.375C510.009 789.46 509.849 789.607 509.756 789.79C507.757 795.997 503.602 801.442 497.916 805.304C495.908 800.004 493.999 794.659 492.192 789.267C496.642 785.216 500.3 780.499 503.008 775.321C503.52 774.358 501.923 773.506 501.411 774.469C498.918 779.223 495.602 783.579 491.589 787.369C489.661 781.18 487.974 774.936 486.528 768.61C486.287 767.537 484.509 768.004 484.75 769.05C486.759 777.687 489.179 786.214 492.011 794.631C488.535 794.012 485.155 793.005 481.948 791.633C480.894 791.165 479.93 792.623 481.014 793.091C484.705 794.693 488.618 795.832 492.644 796.474C494.602 801.975 496.771 807.477 499.091 812.978C493.576 812.82 488.142 811.729 483.063 809.76C481.979 809.347 481.045 810.778 482.129 811.218C487.723 813.407 493.729 814.584 499.814 814.683C502.767 821.432 506.02 828.07 509.575 834.598C510.118 835.561 511.684 834.598 511.172 833.746C506.415 825.045 502.191 816.11 498.519 806.982C504.775 802.873 509.355 796.979 511.534 790.23Z" fill="#06577A"/>
<path d="M542.19 812.165L537.573 820.082C537.01 819.301 536.522 818.464 536.117 817.585C535.65 816.563 534.193 817.585 534.66 818.465C535.185 819.586 535.83 820.643 536.584 821.615L531.582 830.299C531.028 829.746 530.67 829.016 530.565 828.227C530.565 827.12 528.752 827.12 528.889 828.227C529.038 829.618 529.697 830.898 530.73 831.803L524.602 842.786C524.524 842.982 524.517 843.201 524.583 843.402C524.649 843.603 524.783 843.773 524.96 843.88C525.137 843.987 525.346 844.024 525.548 843.985C525.75 843.945 525.931 843.832 526.059 843.665L534.303 829.476C535.687 829.415 537.052 829.117 538.343 828.596C539.36 828.256 538.92 826.581 537.903 826.922C537.056 827.199 536.179 827.37 535.292 827.433L543.537 812.931C543.546 812.765 543.51 812.6 543.432 812.454C543.354 812.309 543.238 812.189 543.097 812.109C542.956 812.029 542.796 811.992 542.636 812.002C542.475 812.011 542.321 812.068 542.19 812.165Z" fill="#06577A"/>
<path d="M908.538 283.703L367.538 0V349.654L908.538 638V283.703Z" fill="#CFD2A8"/>
<path d="M378.514 685L374.538 682.18L378.068 638L398.801 638.696C398.801 638.696 397.761 657.566 402.182 662.196C406.604 666.827 419.089 664.564 420.24 665.016C421.392 665.469 429.715 663.798 433.097 667.593C436.478 671.387 419.609 680.439 410.803 681.727C404.877 682.445 398.866 682.257 393.005 681.17C393.005 681.17 392.039 669.751 388.992 670.726C385.945 671.701 384.793 683.573 384.793 683.573L378.514 685Z" fill="#9C4100"/>
<path d="M367.199 549.783C365.426 594.027 363.538 651.673 363.538 651.673C363.538 651.673 375.1 665.41 406.894 659.542C410.285 658.908 417.838 588.392 421.538 551.717C403.826 547.532 385.249 546.871 367.199 549.783Z" fill="#7EC971"/>
<path d="M429.446 722L425.538 719.18L429.008 675L449.39 675.696C449.39 675.696 448.367 694.566 452.714 699.196C457.061 703.827 469.333 701.564 470.466 702.016C471.598 702.469 479.78 700.798 483.104 704.593C486.428 708.387 469.845 717.439 461.188 718.727C455.363 719.445 449.454 719.257 443.692 718.17C443.692 718.17 442.742 706.751 439.747 707.726C436.752 708.701 435.619 720.573 435.619 720.573L429.446 722Z" fill="#053855"/>
<path d="M440.073 557.939C426.654 552.24 412.242 548.872 397.538 548C400.025 565.137 402.329 576.824 402.731 577.681C403.719 579.84 422.408 687.906 422.408 687.906C444.352 696.235 470.538 689.277 470.538 689.277C470.538 689.277 461.541 604.963 460.81 590.877C460.81 589.369 460.724 587.849 460.554 586.318C460.222 580.288 458.139 574.458 454.529 569.457C450.92 564.455 445.921 560.473 440.073 557.939Z" fill="#7EC971"/>
<path d="M301.538 581.176C301.538 581.176 339.553 549.739 367.897 548.074C396.241 546.409 436.524 573.257 433.363 588.857C430.201 604.456 375.968 638 375.968 638" fill="#7EC971"/>
<path d="M379.42 526.946L348.331 507.61C347.081 506.833 346.176 505.699 345.772 504.401C345.368 503.103 345.49 501.722 346.116 500.493L368.153 457.424C368.54 456.67 369.105 455.996 369.812 455.449C370.518 454.902 371.349 454.495 372.25 454.253C373.151 454.011 374.099 453.942 375.033 454.049C375.967 454.156 376.864 454.437 377.664 454.873L412.42 473.907C413.835 474.68 414.865 475.895 415.305 477.309C415.744 478.722 415.559 480.229 414.788 481.527L389.083 524.864C388.65 525.6 388.042 526.245 387.302 526.757C386.561 527.269 385.705 527.636 384.789 527.833C383.874 528.03 382.922 528.053 381.996 527.9C381.07 527.747 380.192 527.422 379.42 526.946Z" fill="#1784AA"/>
<path d="M377.086 522.033L348.139 502.93C346.974 502.163 346.132 501.042 345.756 499.76C345.38 498.477 345.493 497.113 346.076 495.9L366.418 453.383C366.777 452.638 367.304 451.972 367.962 451.432C368.62 450.892 369.394 450.489 370.232 450.25C371.071 450.011 371.954 449.942 372.823 450.048C373.693 450.154 374.528 450.432 375.273 450.863L407.634 469.667C408.952 470.431 409.912 471.631 410.321 473.027C410.73 474.424 410.558 475.912 409.839 477.195L385.906 520.01C385.497 520.709 384.936 521.322 384.259 521.808C383.582 522.294 382.804 522.644 381.974 522.834C381.144 523.024 380.281 523.051 379.44 522.913C378.598 522.775 377.797 522.476 377.086 522.033Z" fill="#29ABE2"/>
<path d="M381.919 521L348.538 499.117L370.44 454L407.538 475.41L381.919 521Z" fill="#E4F5FD"/>
<path d="M367.514 474.169C356.207 479.808 338.23 486.229 326.056 493.702C324.134 494.891 321.27 499.035 323.154 498.424C322.325 499.273 330.202 502.058 329.448 502.975C329.222 503.281 334.536 500.632 334.838 500.733C339.358 502.899 344.613 503.469 349.574 502.33L351.572 501.005L352.062 500.733C352.146 500.599 352.262 500.483 352.401 500.394L352.702 500.19C352.758 499.931 352.92 499.701 353.155 499.545C355.793 497.676 361.597 496.691 362.2 493.532C362.097 492.698 361.815 491.891 361.371 491.154C361.232 490.962 361.178 490.729 361.22 490.503C361.262 490.277 361.396 490.073 361.597 489.931C361.818 488.99 361.828 488.019 361.628 487.074C361.427 486.129 361.02 485.229 360.429 484.428L361.107 483.715C364.234 481.741 367.195 479.561 369.964 477.193C370.274 476.934 370.474 476.585 370.529 476.208V476.038C370.541 475.936 370.541 475.834 370.529 475.732C370.494 475.428 370.378 475.136 370.193 474.88C370.008 474.623 369.758 474.41 369.464 474.258C369.17 474.105 368.84 474.018 368.501 474.002C368.162 473.987 367.824 474.044 367.514 474.169Z" fill="#E85454"/>
<path d="M359.435 484.762C358.688 482.773 357.615 482.67 355.893 483.459C352.475 485.095 349.211 487.07 346.146 489.356C345.626 489.734 346.146 490.591 346.666 490.248C348.583 488.876 356.901 482.396 358.59 485.242C360.28 488.088 354.691 490.042 353.132 490.899L347.153 494.328C346.601 494.637 347.153 495.528 347.673 495.22L351.507 493.128C351.477 493.229 351.477 493.336 351.507 493.437C351.832 493.89 352.214 494.294 352.644 494.637C352.301 495.155 352.083 495.754 352.009 496.382C351.936 497.009 352.009 497.646 352.222 498.237L352.384 498.443C350.737 500.253 348.564 501.431 346.21 501.792C343.856 502.152 341.455 501.673 339.388 500.432C338.901 500.054 338.218 500.774 338.706 501.186C342.605 504.272 350.662 503.38 353.392 498.82C354.004 498.734 354.598 498.537 355.146 498.237C356.918 497.59 358.513 496.495 359.792 495.048C360.144 494.42 360.329 493.704 360.329 492.974C360.329 492.244 360.144 491.528 359.792 490.899V490.728C360.028 490.488 360.216 490.2 360.344 489.882C360.472 489.564 360.538 489.222 360.538 488.876C360.538 488.531 360.472 488.189 360.344 487.87C360.216 487.552 360.028 487.265 359.792 487.025C359.89 486.25 359.766 485.461 359.435 484.762ZM359.013 494.26C358.365 495.205 357.49 495.951 356.478 496.42C355.861 496.797 354.301 497.963 353.684 497.791C352.417 497.448 353.197 495.7 353.684 494.945C354.381 494.658 355.028 494.253 355.601 493.745L357.973 492.168L358.753 491.551C358.983 491.954 359.125 492.406 359.17 492.875C359.215 493.343 359.161 493.816 359.013 494.26ZM355.958 492.34C354.594 493.231 353.489 494.363 352.222 492.751C354.139 491.722 356.056 490.694 357.843 489.494C358.392 489.156 358.868 488.7 359.24 488.156C360.247 489.802 356.966 491.517 355.958 492.168V492.34Z" fill="#653200"/>
<path d="M334.051 483C334.051 483 341.767 484.607 342.538 499.589L336.674 513L304.538 497.913C304.538 497.913 312.215 489.077 334.051 483Z" fill="#88D3D8"/>
<path d="M406.553 491C404.185 496.137 401.817 500.786 399.831 505.998C398.38 502.511 397.043 499.661 395.248 496.324C395.169 496.205 395.079 496.092 394.981 495.987C394.656 495.47 394.163 495.076 393.581 494.868C393 494.661 392.364 494.651 391.777 494.842C391.19 495.033 390.685 495.412 390.345 495.92C390.004 496.427 389.848 497.032 389.901 497.637C390.489 500.828 391.793 503.851 393.72 506.486C393.451 506.621 393.206 506.798 392.995 507.011C388.412 511.998 389.519 519.647 390.054 525.758C390.075 526.165 390.203 526.558 390.424 526.902C390.646 527.245 390.954 527.527 391.319 527.719C391.684 527.911 392.093 528.008 392.507 527.999C392.921 527.991 393.326 527.878 393.682 527.671C394.109 527.677 394.531 527.574 394.904 527.371C399.022 524.588 401.968 520.43 403.192 515.672C405.903 507.948 409.226 499.287 406.553 491Z" fill="#E85454"/>
<path d="M290.889 490.168L301.744 487C304.457 487.387 328.013 496.75 337.927 513.083C339.111 518.063 339.909 523.123 340.315 528.219C341.219 535.013 341.943 541.842 342.269 548.67C342.723 556.119 342.602 563.591 341.907 571.022C341.581 574.19 341.364 575.81 340.785 578.942C339.521 580.009 338.077 580.855 336.516 581.442C303.951 592.459 279.853 574.613 278.876 572.008C277.899 569.403 276.343 532.795 275.547 510.971C275.41 506.348 276.837 501.808 279.608 498.05C282.38 494.292 286.343 491.523 290.889 490.168Z" fill="#88D3D8"/>
<path d="M320.601 456.791C320.601 456.791 327.837 488.966 314.341 492.436C300.846 495.906 284.746 482.499 283.588 475.875C282.43 469.251 301.534 446.065 320.601 456.791Z" fill="#E85454"/>
<path d="M312.882 467.077C313.261 466.504 320.738 464.583 322.288 458.45C323.838 452.316 318.188 444.262 305.234 443.116C292.28 441.971 270.541 448.879 273.883 482.242C277.225 515.605 311.539 501.249 313.778 490.6C314.968 482.772 314.665 474.796 312.882 467.077Z" fill="#653200"/>
<path d="M314.993 467.806C314.993 467.806 317.39 479.328 322.602 484.305C327.815 489.282 332.039 498.282 325.646 505.168C319.254 512.054 325.646 515.769 334.664 522.212C343.682 528.655 338.127 555.551 305.518 548.972C272.91 542.393 257.538 524.769 257.538 524.769C257.538 524.769 265.909 472.204 274.812 460" fill="#653200"/>
<path d="M338.538 513C338.538 513 345.685 535.479 352.832 536.171C359.978 536.863 370.809 526.937 378.435 513.968C381.165 513.701 383.924 513.964 386.541 514.739C389.158 515.514 391.578 516.786 393.651 518.475C395.723 520.165 397.404 522.235 398.588 524.56C399.773 526.884 400.437 529.412 400.538 531.987C400.538 531.987 375.377 579.85 338.685 568.161" fill="#88D3D8"/>
<path d="M370.538 482.138L374.47 481L376.124 486.241L388.987 481.931L389.538 485.621L373.882 491L370.538 482.138Z" fill="#E4F5FD"/>
<path d="M206.143 683.326C183.503 657.106 173.108 623.532 173.552 589.957C173.81 562.758 185.259 536.68 205.551 517.07C224.233 499.269 252.423 490.507 277.431 502.568C298.184 512.569 308.246 531.778 315.46 551.469C324.117 575.043 327.039 605.25 357.966 612.535C369.952 615.353 382.567 613.428 394.96 612.535C416.49 611.16 439.353 617.655 445.864 638.961C457.85 677.106 402.618 709.683 371.58 721.986C344.701 732.253 315.098 734.695 286.692 728.988C258.286 723.281 232.416 709.695 212.506 690.027C210.287 687.896 208.166 685.663 206.143 683.326Z" fill="#CFD2A8"/>
<path opacity="0.3" d="M445.344 637.763C423.367 674.494 351.849 691.048 312.852 689.064C277.444 687.388 255.06 667.415 257.354 634.343C258.686 616.148 264.754 598.021 263.163 579.621C260.166 548.43 228.125 522.814 195.418 528.901C181.405 546.832 173.764 568.344 173.552 590.463C173.108 623.877 183.467 657.257 206.148 683.387C208.17 685.667 210.279 687.947 212.474 690.227C232.386 709.801 258.26 723.323 286.67 729.003C315.08 734.683 344.686 732.252 371.569 722.034C402.648 709.79 457.85 677.367 445.862 639.404C445.788 638.823 445.566 638.31 445.344 637.763Z" fill="black"/>
<path d="M470.538 241V381.588L663.538 483V342.311L470.538 241Z" fill="white"/>
<path d="M674.538 349V491.892L868.538 595V451.971L674.538 349Z" fill="white"/>
<path d="M470.538 84V226.331L663.538 329V186.567L470.538 84Z" fill="white"/>
<path d="M674.538 192V334.331L868.538 437V294.567L674.538 192Z" fill="white"/>
<path d="M381.153 50.5123L438.795 79.7211C439.707 80.0545 440.724 80.0902 441.664 79.8216C442.603 79.5531 443.403 78.9979 443.921 78.2556C444.439 77.5134 444.64 76.6325 444.489 75.7711C444.338 74.9096 443.844 74.1239 443.096 73.5548L385.454 44.346C384.517 43.9587 383.45 43.894 382.461 44.1647C381.473 44.4353 380.635 45.0218 380.111 45.8093C379.586 46.5969 379.414 47.5288 379.627 48.4226C379.84 49.3165 380.423 50.108 381.263 50.6421L381.153 50.5123Z" fill="#754C24"/>
<path d="M381.153 67.6932L438.795 97.7133C439.707 98.056 440.724 98.0927 441.664 97.8167C442.603 97.5407 443.403 96.9701 443.921 96.2072C444.439 95.4443 444.64 94.539 444.489 93.6536C444.338 92.7682 443.844 91.9607 443.096 91.3757L385.454 61.3557C384.517 60.9576 383.45 60.8911 382.461 61.1693C381.473 61.4474 380.635 62.0502 380.111 62.8596C379.586 63.669 379.414 64.6268 379.627 65.5455C379.84 66.4642 380.423 67.2776 381.263 67.8266L381.153 67.6932Z" fill="#754C24"/>
<path d="M381.22 84.1642L415.771 103.627C416.684 104.045 417.725 104.114 418.688 103.822C419.651 103.53 420.469 102.898 420.98 102.048C421.491 101.199 421.659 100.194 421.451 99.2298C421.243 98.2657 420.675 97.412 419.857 96.8359L385.306 77.3732C384.392 76.9555 383.352 76.8857 382.388 77.1776C381.425 77.4695 380.607 78.1021 380.096 78.9515C379.585 79.801 379.417 80.8061 379.625 81.7702C379.833 82.7343 380.401 83.588 381.22 84.1642Z" fill="#754C24"/>
<path d="M384.08 111.526L438.506 144.401C439.41 144.972 440.493 145.143 441.516 144.878C442.54 144.612 443.422 143.932 443.967 142.986C444.511 142.04 444.675 140.906 444.422 139.833C444.168 138.761 443.518 137.838 442.615 137.267L388.188 104.392C387.293 103.953 386.274 103.88 385.33 104.187C384.386 104.493 383.586 105.158 383.085 106.05C382.584 106.942 382.42 107.998 382.623 109.011C382.827 110.024 383.384 110.921 384.186 111.526H384.08Z" fill="#754C24"/>
<path d="M384.154 131.819L441.2 161.463C442.152 161.977 443.292 162.13 444.368 161.887C445.445 161.645 446.371 161.027 446.942 160.17C447.513 159.312 447.682 158.285 447.413 157.315C447.144 156.345 446.458 155.511 445.506 154.997L388.46 125.354C387.522 124.958 386.454 124.892 385.465 125.168C384.475 125.445 383.636 126.044 383.111 126.849C382.587 127.653 382.414 128.605 382.627 129.519C382.841 130.432 383.425 131.24 384.265 131.786L384.154 131.819Z" fill="#754C24"/>
<path d="M381.296 147.12L415.932 163.745C416.841 164.057 417.856 164.084 418.787 163.82C419.718 163.556 420.502 163.019 420.994 162.31C421.486 161.602 421.652 160.768 421.461 159.965C421.27 159.162 420.735 158.444 419.956 157.944L385.32 141.319C384.404 140.962 383.361 140.902 382.395 141.152C381.429 141.401 380.61 141.941 380.098 142.667C379.585 143.393 379.417 144.251 379.625 145.075C379.833 145.898 380.404 146.628 381.224 147.12H381.296Z" fill="#754C24"/>
<path d="M376.387 171.34L438.195 203.618C439.2 204.046 440.344 204.117 441.404 203.818C442.463 203.519 443.362 202.871 443.924 202.001C444.486 201.13 444.671 200.1 444.443 199.113C444.214 198.125 443.589 197.25 442.689 196.66L380.881 164.382C379.876 163.954 378.732 163.883 377.673 164.182C376.613 164.481 375.714 165.129 375.152 165.999C374.59 166.87 374.405 167.9 374.634 168.887C374.862 169.875 375.488 170.75 376.387 171.34Z" fill="#754C24"/>
<path d="M376.387 189.157L438.195 220.627C439.2 221.044 440.344 221.114 441.404 220.823C442.463 220.531 443.362 219.899 443.924 219.051C444.486 218.202 444.671 217.198 444.443 216.235C444.214 215.272 443.589 214.419 442.689 213.843L380.881 182.373C379.876 181.956 378.732 181.886 377.673 182.177C376.613 182.469 375.714 183.101 375.152 183.949C374.59 184.798 374.405 185.802 374.634 186.765C374.862 187.728 375.488 188.581 376.387 189.157Z" fill="#754C24"/>
<path d="M376.3 205.899L412.496 224.641C413.453 225.043 414.543 225.11 415.552 224.829C416.562 224.548 417.418 223.939 417.953 223.121C418.489 222.303 418.665 221.335 418.447 220.406C418.229 219.478 417.634 218.656 416.776 218.101L380.58 199.359C379.623 198.957 378.533 198.89 377.524 199.171C376.515 199.452 375.658 200.061 375.123 200.879C374.588 201.697 374.411 202.665 374.629 203.594C374.847 204.522 375.442 205.344 376.3 205.899Z" fill="#754C24"/>
<path d="M626.538 279.284C626.538 279.284 626.026 255.061 625.733 249.074C625.44 243.641 624.599 219.833 609.268 211.701C589.875 201.32 567.556 188.17 546.151 193.049C528.807 196.994 520.538 252.812 520.538 256.584C520.465 263.297 571.983 301.12 626.538 279.284Z" fill="#CFD2A8"/>
<path d="M556.167 161.788C553.102 158.64 550.982 154.741 550.038 150.512C547.958 142.735 552.518 131.741 560.982 131.069C569.446 130.398 571.927 134.817 571.927 134.817C571.927 134.817 604.213 130.645 608.08 155.213C608.701 162.071 611.437 187.028 590.387 191.517C569.337 196.006 578.092 167.727 578.092 167.727" fill="#4B1B13"/>
<path d="M554.651 157C554.651 157 553.978 172.926 553.582 178.867C553.186 184.808 555.325 202.105 566.93 202C578.536 201.894 590.974 190.398 591.093 187.691C591.093 187.691 602.976 181.679 596.717 176.476C590.459 171.273 589.429 179.64 589.429 179.64C589.429 179.64 586.062 174.894 586.419 162.484C575.466 163.225 564.492 161.33 554.651 157Z" fill="#FFAC73"/>
<path d="M585.976 204.16C580.454 209.288 571.726 209.875 563.854 208.075C563.255 208.005 562.697 207.709 562.275 207.238C561.853 206.767 561.592 206.15 561.538 205.491C561.538 202.79 561.538 200.089 561.538 197.427L589.538 184L586.653 203.103L585.976 204.16Z" fill="#FFAC73"/>
<path d="M570.131 209C569.02 209 567.908 208.679 566.834 208.478C566.236 208.405 565.679 208.109 565.26 207.64C564.841 207.171 564.586 206.559 564.538 205.908C564.538 204.462 564.538 203.016 564.538 201.61C569.086 202.148 573.68 201.243 577.763 199.005C581.846 196.766 585.242 193.291 587.538 189C586.605 193.743 584.488 198.117 581.418 201.644C578.348 205.171 574.444 207.716 570.131 209Z" fill="#E5894A"/>
<path d="M588.838 199.652C586.482 200.809 584.051 201.877 581.473 202.944C578.045 204.491 574.43 205.753 570.684 206.71C567.554 207.452 562.141 208.46 560.483 205.317C560.353 204.748 560.353 204.165 560.483 203.597C560.563 202.906 560.563 202.211 560.483 201.521C559.082 201.042 557.872 200.263 556.985 199.267C556.96 199.179 556.96 199.088 556.985 199C556.985 199 548.626 215.903 549.62 216.793C550.615 217.683 559.894 213.828 559.894 213.828C561.157 216.374 562.828 218.777 564.866 220.975C566.339 221.657 586.703 208.46 589.538 204.575L588.838 199.652Z" fill="#D4DEE8"/>
<path d="M554.523 214.151C553.357 217.077 553.222 220.356 554.142 223.381C554.142 223.381 557.607 225.235 558.196 224.975C560.568 222.868 562.697 220.466 564.538 217.821C564.33 217.413 561.35 211 561.35 211L554.523 214.151Z" fill="#F47A63"/>
<path d="M553.409 225C553.409 225 538.726 270.873 539.573 271.308C540.42 271.743 551.079 277.532 554.926 278L557.538 226.506" fill="#F47A63"/>
<path d="M556.871 182H556.609C554.361 181.6 552.375 180.403 551.077 178.668C549.779 176.933 549.274 174.797 549.67 172.723C549.888 167.783 553.379 163.806 557.482 164.007C559.711 164.408 561.684 165.593 562.979 167.31C564.275 169.027 564.792 171.142 564.421 173.204C564.601 175.277 563.924 177.336 562.523 178.967C561.123 180.599 559.103 181.682 556.871 182ZM557.22 165.333C554.034 165.333 551.285 168.626 551.066 172.803C550.848 176.98 553.38 180.594 556.653 180.835C559.926 181.076 562.762 177.622 562.98 173.405C562.98 169.188 560.667 165.614 557.394 165.373L557.22 165.333Z" fill="#42210B"/>
<path d="M573.299 184C572.48 183.939 571.684 183.66 570.971 183.186C570.257 182.711 569.644 182.053 569.178 181.26C568.028 179.502 567.451 177.32 567.549 175.106C567.515 174.081 567.653 173.058 567.955 172.095C568.258 171.133 568.719 170.25 569.313 169.497C569.906 168.744 570.62 168.136 571.413 167.708C572.207 167.279 573.065 167.039 573.937 167C574.756 167.061 575.552 167.34 576.265 167.814C576.979 168.289 577.592 168.947 578.058 169.74C579.094 171.49 579.611 173.591 579.53 175.72C579.449 177.849 578.775 179.888 577.611 181.523C577.1 182.295 576.446 182.919 575.699 183.348C574.951 183.777 574.13 184 573.299 184ZM573.49 168.426C572.068 168.632 570.764 169.462 569.84 170.749C568.916 172.037 568.44 173.687 568.507 175.369C568.41 177.228 568.861 179.07 569.785 180.585C570.152 181.241 570.647 181.784 571.229 182.171C571.81 182.558 572.462 182.777 573.129 182.81C573.797 182.843 574.462 182.689 575.069 182.361C575.676 182.033 576.208 181.54 576.621 180.923C577.654 179.508 578.24 177.719 578.282 175.857C578.371 174.01 577.92 172.182 577.004 170.678C576.639 170.06 576.164 169.542 575.613 169.16C575.062 168.778 574.446 168.54 573.81 168.464L573.49 168.426Z" fill="#42210B"/>
<path d="M563.895 174.678L563.671 175.784L567.649 176.462L567.872 175.356L563.895 174.678Z" fill="#42210B"/>
<path d="M589.165 175.401L580.184 177.09L580.429 178.192L589.411 176.503L589.165 175.401Z" fill="#42210B"/>
<path d="M817.538 376.544C817.538 376.544 817.051 353.07 816.714 347.253C816.414 341.987 815.59 318.926 800.271 311.044C780.944 301.097 758.695 288.361 737.195 292.974C719.891 296.794 711.538 350.902 711.538 354.516C711.763 361.055 763.115 397.574 817.538 376.544Z" fill="#2B415D"/>
<path d="M780.534 314.384C780.534 315.597 778.777 317.349 778.128 318.36C772.517 326.849 767.554 335.878 762.171 344.57C756.788 353.262 754.841 377.417 754.192 379C754.192 379 734.723 371.925 734.532 371.993C734.341 372.06 733.501 359.326 733.539 358.517C733.997 344.604 733.158 337.461 736.593 326.849C738.999 319.337 743.007 314.317 745.374 306.636C746.215 302.784 747.627 299.046 749.573 295.519C752.207 292.116 780.953 306.265 780.534 314.384Z" fill="#CFD2A8"/>
<path d="M785.129 383H783.538C784.144 373.461 784.637 363.911 785.015 354.349C785.078 353.974 785.29 353.632 785.613 353.384C785.936 353.136 786.349 353 786.777 353C787.204 353 787.617 353.136 787.94 353.384C788.264 353.632 788.476 353.974 788.538 354.349C788.185 363.843 787.692 373.327 787.061 382.798L785.129 383Z" fill="#17283A"/>
<path d="M730.218 369H729.8L728.755 368.51L727.542 367.922L726.538 367.433C727.207 356.396 728.239 345.392 729.633 334.421C729.884 332.462 733.815 332.592 733.523 334.421C732.073 345.74 731.027 357.082 730.386 368.445C730.375 368.636 730.318 368.825 730.218 369Z" fill="#17283A"/>
<path d="M750.79 295C750.79 295 746.06 319.064 748.009 321.621L756.855 315.492L761.477 326L783.538 308.976L750.79 295Z" fill="#2B415D"/>
<path d="M748.534 258C748.534 258 747.905 273.596 747.573 279.382C747.24 285.169 749.162 302.105 759.694 302C770.227 301.894 781.535 290.673 781.646 287.886C781.646 287.886 792.733 281.993 786.783 276.912C780.833 271.831 780.168 280.017 780.168 280.017C780.168 280.017 777.101 275.36 777.433 263.222C767.483 263.998 757.499 262.193 748.534 258Z" fill="#FFAC73"/>
<path d="M779.971 301.293C774.178 305.207 765.087 305.636 756.955 304.351C756.325 304.296 755.739 304.067 755.298 303.704C754.856 303.341 754.588 302.867 754.538 302.363C754.538 300.314 754.538 298.265 754.538 296.246L783.538 286L780.508 300.559L779.971 301.293Z" fill="#FFAC73"/>
<path d="M760.165 305C759.062 305 757.96 304.784 756.857 304.649C756.259 304.601 755.702 304.408 755.279 304.103C754.857 303.798 754.595 303.399 754.538 302.973C754.538 302.027 754.538 301.081 754.538 300.27C759.086 300.621 763.68 300.027 767.762 298.559C771.845 297.091 775.241 294.813 777.538 292C776.582 295.086 774.458 297.928 771.397 300.219C768.335 302.51 764.451 304.163 760.165 305Z" fill="#E5894A"/>
<path d="M816.229 302.886C806.55 292.573 802.609 272.188 802.609 272.188C800.772 250.05 783.479 242.694 768.175 241.25C752.871 239.806 741.049 244.688 739.786 253.866C739.294 256.328 739.537 258.863 740.491 261.212C741.446 263.561 743.077 265.641 745.219 267.238C745.219 267.238 770.815 274.973 772.652 272.188C774.488 269.404 775.483 256.101 776.171 273.563C776.401 279.339 776.171 285.114 775.674 290.751C775.332 297.787 775.652 304.836 776.63 311.824C777.319 317.049 777.893 322.858 783.403 325.883C787.799 328.203 792.775 329.488 797.871 329.62C802.968 329.753 808.018 328.727 812.556 326.64C814.911 339.669 816.406 352.812 817.033 366C817.033 366 834.938 365.691 838.114 341.937C841.289 318.183 825.909 313.371 816.229 302.886Z" fill="#4B1B13"/>
<path d="M608.538 420.764C608.538 420.764 608.055 398.082 607.757 392.463C607.46 387.392 606.679 365.053 591.922 357.447C573.336 347.819 551.814 335.416 531.258 339.973C514.604 343.673 506.538 395.958 506.538 399.487C506.575 405.791 556.088 441.081 608.538 420.764Z" fill="#2B415D"/>
<path d="M579.428 351.532C579.428 351.532 582.053 372.228 561.69 372.978C547.44 373.55 551.077 362.684 551.077 362.684C549.001 364.11 546.534 364.93 543.977 365.045C541.421 365.159 538.884 364.562 536.677 363.327C529.477 358.859 542.302 342.989 547.927 342.131C559.306 341.275 570.593 344.643 579.428 351.532Z" fill="#CFD2A8"/>
<path d="M602.39 302.64C602.767 294.591 595.967 287.786 587.201 287.44C578.436 287.094 571.025 293.339 570.649 301.387C570.272 309.436 577.072 316.241 585.838 316.587C594.603 316.933 602.014 310.688 602.39 302.64Z" fill="#4B1B13"/>
<path d="M538.373 311.883C535.957 308.95 534.633 305.417 534.588 301.78C534.44 300.004 534.619 298.218 535.118 296.493C535.831 294.714 537.279 293.245 539.168 292.385C540.551 291.617 541.822 290.701 542.953 289.657C542.953 289.657 585.648 283.965 589.433 306.091C590.039 312.287 588.601 330.81 569.297 337.848C549.993 344.886 559.948 317.373 559.948 317.373" fill="#4B1B13"/>
<path d="M549.538 345.894L575.538 336L572.641 351.237L572.107 351.963C569.374 353.645 566.28 354.839 563.007 355.473C559.734 356.107 556.347 356.17 553.045 355.657C552.296 355.58 551.601 355.276 551.085 354.8C550.569 354.323 550.264 353.704 550.224 353.051C550.11 350.71 549.881 348.302 549.538 345.894Z" fill="#FFAC73"/>
<path d="M539.599 307.032C539.459 306.039 539.56 305.031 539.897 304.074C540.234 303.117 540.798 302.234 541.552 301.482C542.307 300.73 543.235 300.127 544.275 299.711C545.315 299.296 546.444 299.078 547.587 299.072C550.017 298.846 552.336 299.072 553.698 300.941C555.06 302.81 555.501 306.355 558.004 308.515C559.252 309.551 560.807 310.26 562.492 310.562C564.177 310.864 565.925 310.747 567.538 310.223C567.538 312.575 567.023 314.283 563.857 314.928C560.691 315.573 541.918 311.802 539.599 307.032Z" fill="#FFAC73"/>
<path d="M575.184 303.107C565.635 299.136 555.151 297.384 544.673 298.01C544.203 298.018 543.754 298.187 543.415 298.482C543.076 298.778 542.871 299.179 542.843 299.605C542.232 295.653 541.66 285.738 550.47 283.034C561.683 279.567 579.875 285.184 584.565 294.405C586.905 298.959 587.891 303.991 587.426 309C583.715 306.457 579.583 304.467 575.184 303.107Z" fill="#4B1B13"/>
<path d="M549.538 349.022L549.743 353C549.743 353 564.913 353.278 567.538 339L549.538 349.022Z" fill="#E28E54"/>
<path d="M540.482 309C540.482 309 539.887 323.179 539.552 328.434C539.218 333.689 544.758 348.76 551.414 348.991C561.787 349.354 572.756 338.679 572.867 336.267C572.867 336.267 583.539 330.912 577.887 326.351C572.235 321.79 571.417 329.161 571.417 329.161C571.417 329.161 568.443 324.93 568.74 313.891C558.997 314.553 549.234 312.863 540.482 309Z" fill="#FFAC73"/>
<path d="M520.543 412.726C519.5 412.144 518.497 411.515 517.538 410.843C518.597 399.403 521.058 388.08 524.883 377.045C525.551 375.128 529.057 376.086 528.473 378.004C524.502 389.421 522.026 401.152 521.086 413L520.543 412.726Z" fill="#17283A"/>
<path d="M584.361 427C583.754 426.968 583.145 426.968 582.538 427L583.286 387.564C583.286 387.149 583.51 386.752 583.908 386.458C584.307 386.165 584.848 386 585.412 386C585.976 386 586.517 386.165 586.915 386.458C587.314 386.752 587.538 387.149 587.538 387.564L586.604 426.966C585.856 426.935 585.106 426.947 584.361 427Z" fill="#17283A"/>
<path d="M574.346 339C570.734 335.511 568.377 331.079 567.597 326.308C566.659 318.873 577.233 322.643 578.846 325.893C580.458 329.144 579.371 337.478 574.346 339Z" fill="#4B1B13"/>
<path d="M787.471 518.382C805.508 512.601 811.939 486.363 801.834 459.777C791.729 433.19 768.915 416.324 750.877 422.105C732.84 427.886 726.409 454.125 736.514 480.711C746.619 507.297 769.433 524.163 787.471 518.382Z" fill="#FFDE47"/>
<path d="M769.538 470V414.045C769.538 414.045 738.67 403.984 729.538 446.295L769.538 470Z" fill="#053855"/>
<path d="M769.538 470.477L741.032 497C741.032 497 727.776 486.736 729.736 446L769.538 470.477Z" fill="#FF9F9F"/>
</g>
<defs>
<filter id="filter0_d" x="0.538086" y="0" width="1010" height="928" filterUnits="userSpaceOnUse" color-interpolation-filters="sRGB">
<feFlood flood-opacity="0" result="BackgroundImageFix"/>
<feColorMatrix in="SourceAlpha" type="matrix" values="0 0 0 0 0 0 0 0 0 0 0 0 0 0 0 0 0 0 127 0" result="hardAlpha"/>
<feOffset dx="5" dy="5"/>
<feGaussianBlur stdDeviation="2.5"/>
<feColorMatrix type="matrix" values="0 0 0 0 0 0 0 0 0 0 0 0 0 0 0 0 0 0 0.25 0"/>
<feBlend mode="normal" in2="BackgroundImageFix" result="effect1_dropShadow"/>
<feBlend mode="normal" in="SourceGraphic" in2="effect1_dropShadow" result="shape"/>
</filter>
</defs>
</svg>
