<svg width="1011" height="928" viewBox="0 0 1011 928" fill="none" xmlns="http://www.w3.org/2000/svg">
<g filter="url(#filter0_d)">
<path d="M556.954 240.034C556.623 235.373 555.27 231.006 552.989 227.234C550.709 223.462 547.555 220.376 543.747 218.19C537.856 213.664 530.437 211.312 522.481 211.447C522.378 209.039 521.616 206.81 520.278 205C518.698 202.774 516.372 201.234 513.635 200.6C510.898 199.966 507.892 200.272 505.049 201.473C502.458 202.676 500.208 204.675 498.664 207.148C497.12 209.62 496.371 212.421 496.54 215.097C497.18 218.963 499.367 222.166 502.622 224.001C502.455 224.182 502.288 224.364 502.093 224.575C497.914 229.109 492.326 227.369 487.232 229.382C484.852 230.266 482.695 231.863 481.078 233.94C479.502 236.064 478.936 239.624 476.975 241.338C475.239 242.406 473.334 243.052 471.432 243.217C469.446 243.629 467.477 244.272 465.568 245.136C467.46 257.501 475.93 267.431 485.157 274.37C495.099 282.151 507.807 286.019 521.383 285.398C522.056 284.11 522.465 282.732 522.581 281.359C522.561 278.82 522.264 276.335 521.696 273.948C521.256 270.188 527.886 268.472 530.464 265.985C534.679 261.876 534.103 257.489 532.918 252.986C532.058 249.734 533.644 248.065 536.188 245.77C538.112 243.671 540.553 242.144 543.161 241.408C543.637 242.192 544.4 242.736 545.316 242.946C547.129 243.397 548.841 244.092 550.41 245.015C551.239 245.433 552.249 245.474 553.226 245.129C554.202 244.785 555.066 244.083 555.631 243.174C556.094 242.776 556.461 242.274 556.694 241.721C556.927 241.169 557.017 240.586 556.954 240.034Z" fill="#56403D"/>
<path d="M485.714 910.524L19.9829 651.513C5.15993 643.686 -7.56396 630.835 6.89618 622.374L474.311 368.777C481.334 364.68 491.985 361.998 499.111 365.9L988.009 633.006C1002.83 641.101 1005.5 663.73 990.601 671.85L547.182 910.109C537.861 915.206 527.287 917.926 516.506 917.998C505.726 918.071 495.112 915.495 485.714 910.524Z" fill="#9E5A63"/>
<path d="M248.538 400.764L333.538 355V608.421L248.538 655V400.764Z" fill="#CFD2A8"/>
<path opacity="0.47" d="M272.538 418.764L357.538 373V626.421L272.538 673V418.764Z" fill="#42210B"/>
<path d="M574.538 322.918C578.339 319.27 581.357 314.977 583.428 310.272C584.501 306.193 586.483 289.443 588.932 288.622C595.84 286.339 589.318 299.473 591.96 299.036C594.602 298.6 605.721 286.852 609.024 286.057C612.326 285.261 617.693 293.034 616.317 297.677C614.127 302.565 611.096 307.088 607.345 311.067L580.593 334" fill="#F67770"/>
<path d="M487.269 605.04C486.922 606.683 486.969 608.376 487.407 610C487.845 611.623 488.664 613.139 489.804 614.438C493.635 618.258 508.323 630.279 509.7 632.877C511.078 635.475 513.035 642.58 509.7 645.051C506.366 647.521 499.863 647.776 491.871 645.051C483.88 642.325 464.673 630.839 461.118 627.223C457.563 623.607 461.118 587.06 461.118 587.06C461.118 587.06 481.703 582.425 488.675 587.06L487.269 605.04Z" fill="#42210B"/>
<path d="M432.269 630.04C431.922 631.683 431.969 633.376 432.407 635C432.845 636.623 433.664 638.139 434.804 639.438C438.635 643.258 453.323 655.279 454.7 657.877C456.078 660.475 458.035 667.58 454.7 670.051C451.366 672.521 444.863 672.776 436.871 670.051C428.88 667.325 409.673 655.839 406.118 652.223C402.563 648.607 406.118 612.06 406.118 612.06C406.118 612.06 426.703 607.425 433.675 612.06L432.269 630.04Z" fill="#42210B"/>
<path d="M490.07 369C490.07 369 500.771 411.959 501.473 452.123C502.176 492.288 496.923 600.181 496.923 600.181C496.923 600.181 484.621 610.876 457.6 607.116V457.382C457.6 457.382 448.162 460.558 448.162 466.909C448.162 473.26 439.539 626.398 439.539 626.398C439.539 626.398 434.708 634.502 399.345 622.105C399.345 622.105 387.267 419.123 413.22 379.771" fill="#E6E6E6"/>
<path d="M426.538 374.589C432.122 376.799 446.083 387.061 457.001 390.897C467.479 394.895 478.492 397.619 489.753 399C491.037 397.451 492.321 395.825 493.634 393.92C526.386 347.334 542.525 311.696 541.491 301.663C540.458 291.629 512.593 272.07 496.621 269.606C480.65 267.142 451.695 272.985 451.695 272.985C451.695 272.985 435.696 317.615 430.643 351.982C429.135 361.609 429.135 361.609 426.538 374.589Z" fill="#42210B"/>
<path d="M516.875 283.495C521.403 286.607 528.856 274.414 527.337 272.322C525.819 270.231 502.39 260.104 498.003 260.002C488.412 259.798 490.803 273.853 490.803 273.853" fill="#42210B"/>
<path d="M549.516 246.547C550.349 248.923 527.868 279.23 516.308 275.717C504.747 272.203 498.689 253.549 499.634 249.126C500.579 244.702 512.028 224.076 517.475 224.001C522.921 223.925 544.458 232.114 549.516 246.547Z" fill="#F67770"/>
<path d="M510.538 244.652C510.538 244.652 509.78 236.553 505.127 238.228C500.473 239.903 499.12 247.976 502.177 252" fill="#F67770"/>
<path d="M541.215 301C542.385 314.049 541.993 327.176 540.046 340.147C540.046 340.147 576.509 309.895 579.57 311.857C582.632 313.82 590.704 325.263 589.396 330.029C588.088 334.795 540.408 384.978 515.775 380.747C491.142 376.516 501.858 326.512 501.858 326.512" fill="#42210B"/>
<path d="M644.538 498.966V238L297.538 424.724V689L644.538 498.966Z" fill="#CFD2A8"/>
<path d="M630.538 332.764L715.538 287V540.421L630.538 587V332.764Z" fill="#FF9F9F"/>
<path d="M698.102 421.235C698.102 421.235 675.738 422.959 670.957 421.235C666.177 419.511 651.389 414.52 650.327 418.508C649.264 422.496 657.791 424.502 657.791 424.502C657.791 424.502 642.611 428.002 638.39 429.159C634.168 430.317 636.545 433.945 639.955 433.405C639.955 433.405 631.149 437.058 634.169 438.91C635.132 439.445 636.203 439.796 637.317 439.942C638.432 440.088 639.566 440.026 640.654 439.76C640.654 439.76 636.656 442.77 641.213 444.622C645.449 444.289 649.616 443.423 653.597 442.049C653.597 442.049 648.482 446.063 650.131 447.195C651.78 448.327 651.305 449.382 666.569 442.049C666.569 442.049 698.437 435.514 705.538 434.331" fill="#F04900"/>
<path d="M833.111 648L837.538 645.431V599.719L815.655 599C815.655 599 815.235 618.502 810.052 622.948C804.868 627.393 792.092 624.207 790.831 624.592C789.57 624.977 780.968 622.691 777.101 626.339C773.235 629.988 790.214 640.523 799.236 642.45C805.415 643.594 811.755 643.811 818.009 643.092C818.009 643.092 819.97 631.401 823.108 632.557C826.246 633.714 826.471 646.073 826.471 646.073L833.111 648Z" fill="#CFD2A8"/>
<path d="M854.51 472.34C854.206 442.448 851.745 414.843 825.694 394L824.09 399.465C824.09 399.262 824.09 399.058 824.09 398.855C823.842 396.313 819.113 395.144 818.56 398.169C818.572 398.397 818.572 398.626 818.56 398.855V399.007C818.56 399.999 818.311 401.016 818.255 402.007C817.986 401.735 817.656 401.521 817.287 401.378C816.919 401.235 816.521 401.168 816.122 401.18C815.722 401.192 815.33 401.283 814.973 401.448C814.616 401.613 814.301 401.847 814.052 402.134C808.964 403.634 806.917 410.395 806.89 414.614C806.89 415.289 807.181 415.935 807.7 416.412C808.218 416.889 808.922 417.156 809.655 417.156C810.388 417.156 811.092 416.889 811.611 416.412C812.129 415.935 812.42 415.289 812.42 414.614C812.244 412.693 812.738 410.77 813.831 409.124L814.329 407.828V407.98V408.285C814.125 409.547 814.19 410.834 814.522 412.073C814.63 412.392 814.805 412.689 815.037 412.947C815.27 413.204 815.555 413.417 815.877 413.572C816.126 414.538 816.403 415.504 816.679 416.47L809.213 418.427L798.538 481.567C798.538 481.567 799.976 619.132 804.511 620.327C835.733 628.664 848.592 614.836 848.592 614.836C850.638 567.558 854.925 519.746 854.51 472.34Z" fill="#42210B"/>
<path d="M773.184 683L777.538 680.431V634.719L756.014 634C756.014 634 755.601 653.502 750.502 657.948C745.404 662.393 732.837 659.207 731.596 659.592C730.356 659.977 721.895 657.691 718.092 661.339C714.289 664.988 730.99 675.523 739.864 677.45C745.941 678.594 752.177 678.811 758.329 678.092C758.329 678.092 760.258 666.401 763.345 667.557C766.432 668.714 766.652 681.073 766.652 681.073L773.184 683Z" fill="#CFD2A8"/>
<path d="M781.175 414.625C781.175 414.625 761.116 482.356 752.953 542.977C751.003 557.527 734.538 644.317 734.538 644.317C734.538 644.317 761.673 653.389 785.8 646.279C785.8 646.279 814.495 535.536 815.721 533.37C816.947 531.204 836.309 459.473 838.538 408" fill="#42210B"/>
<path d="M778.68 324.303L766.602 326.187C764.175 327.715 745.989 346.557 744.538 365.552C745.832 370.584 747.538 375.521 749.643 380.32C752.097 386.864 754.747 393.382 757.787 399.722C760.996 406.676 764.772 413.4 769.084 419.837C770.953 422.562 771.874 423.937 774.049 426.534C775.804 426.953 777.626 427.091 779.433 426.941C816.419 422.714 830.84 396.055 830.533 393.28C830.226 390.505 813.797 356.589 803.784 336.474C801.662 332.197 798.047 328.683 793.505 326.481C788.963 324.279 783.749 323.513 778.68 324.303Z" fill="#CFD2A8"/>
<path d="M732.538 302.38C732.538 302.38 743.122 338.196 758.282 335.894C773.441 333.591 781.611 312.869 779.084 305.578C776.558 298.287 745.199 283.141 732.538 302.38Z" fill="#F04900"/>
<path d="M787.407 260.808C783.803 258.605 779.453 257.649 775.144 258.115C770.834 258.581 766.85 260.438 763.912 263.349C758.338 269.015 757.724 276.535 759.564 283.548C750.283 281.922 739.58 284.361 730.076 293.711C730.076 293.711 721.547 304.229 727.874 309.717C734.201 315.205 742.841 310.632 750.868 307.99C758.895 305.347 756.805 314.316 761.348 320.693C765.891 327.07 769.709 326.359 773.165 325.317C776.621 324.276 788.467 314.291 780.941 298.563C780.482 297.608 779.952 296.683 779.353 295.794C781.341 294.967 783.26 294.008 785.094 292.923C789.435 290.771 792.954 287.466 795.184 283.446C796.845 279.423 796.982 275.009 795.573 270.906C794.164 266.804 791.289 263.249 787.407 260.808Z" fill="#FC9C54"/>
<path d="M829.794 457.226C828.039 489.689 817.76 520.798 809.043 552.06C800.326 583.322 792.898 614.457 786.538 646L789.499 645.234C795.949 613.376 803.57 581.747 812.36 550.349C820.995 519.699 830.808 489.05 832.535 457.226C832.645 455.591 829.903 455.591 829.794 457.226Z" fill="#653200"/>
<path d="M744.453 366C744.453 366 734.101 394.842 725.386 402.444C719.28 407.773 692.831 415.981 677.538 420.426C678.14 429.35 681.658 437.907 687.641 445C710.093 440.277 746.534 428.382 755.471 418.734C768.571 404.616 774.538 383.982 774.538 383.982L744.453 366Z" fill="#CFD2A8"/>
<path d="M432.25 363.053L441.744 371.604C441.744 371.604 450.188 378.756 449.498 381.581C448.808 384.406 438.239 377 435.893 375.676C433.547 374.353 440.86 392.117 439.784 394.102C438.708 396.087 436.39 395.426 435.148 394.102C433.906 392.779 435.562 398.454 432.03 397.971C428.497 397.487 427.78 393.695 427.78 393.695C427.78 393.695 425.407 397.64 422.647 395.68C419.887 393.72 413.347 373.182 414.727 367.507C416.107 361.831 427.394 358.676 432.25 363.053Z" fill="#F67770"/>
<path d="M413.533 368.886C413.533 368.886 410.919 386.8 414.165 387.875C417.412 388.95 421.538 382.756 421.538 382.756C421.538 382.756 418.952 367.402 417.302 365.431C415.651 363.46 413.533 368.886 413.533 368.886Z" fill="#F67770"/>
<path d="M451.438 273C451.438 273 397.411 296.104 386.784 308.049C376.156 319.995 406.703 373 406.703 373L432.576 363.692C432.576 363.692 415.577 323.926 422.115 321.77C428.653 319.614 462.538 309.597 462.538 309.597" fill="#42210B"/>
<path d="M430.821 479.413C430.821 479.413 407.745 477.128 405.071 475.604C402.397 474.081 395.201 447.673 392.802 448.003C390.404 448.333 387.867 455.621 387.867 458.363C387.867 461.105 391.672 472.836 390.018 472.659C388.363 472.481 384.504 466.565 381.995 467.86C379.486 469.155 387.977 483.374 391.396 484.441C394.621 485.302 397.899 485.988 401.211 486.497L431.538 498" fill="#FFC9B5"/>
<path d="M517.12 469C517.12 469 474.83 482.552 465.417 482.781C456.004 483.011 416.005 477.422 416.005 477.422C416.005 477.422 408.212 490.182 413.212 495.491C413.212 495.491 452.457 507.307 466.283 507.945C480.11 508.583 522.818 503.581 528.404 498.477C533.991 493.372 517.12 469 517.12 469Z" fill="#688C03"/>
<path d="M482.534 788.364C482.534 788.364 472.523 780.789 461.307 783.642C450.09 786.495 452.418 794.171 459.484 798.917C466.551 803.664 493.779 820.15 502.163 819.999C510.547 819.847 512.37 813.763 512.538 809.622C512.071 803.21 511.247 796.823 510.07 790.484" fill="#2C1D1A"/>
<path d="M489.098 787.508C489.057 787.789 488.946 788.058 488.774 788.296C488.601 788.534 488.371 788.735 488.101 788.884C487.831 789.033 487.527 789.127 487.211 789.158C486.895 789.19 486.575 789.159 486.274 789.067C483.206 788.202 480.198 787.178 477.265 786C477.265 786 467.522 786 473.452 794.674C479.383 803.347 499.774 805.887 506.072 802.643C512.369 799.4 508.161 790.249 508.161 790.249" fill="#2C1D1A"/>
<path d="M459.534 805.364C459.534 805.364 449.523 797.789 438.307 800.642C427.09 803.495 429.418 811.171 436.484 815.917C443.551 820.664 470.779 837.15 479.163 836.999C487.547 836.847 489.37 830.763 489.538 826.622C489.071 820.21 488.247 813.823 487.07 807.484" fill="#2C1D1A"/>
<path d="M465.636 804.508C465.596 804.789 465.488 805.058 465.32 805.296C465.152 805.534 464.928 805.735 464.665 805.884C464.402 806.033 464.106 806.127 463.798 806.158C463.491 806.19 463.179 806.159 462.886 806.067C459.899 805.202 456.97 804.178 454.114 803C454.114 803 444.627 803 450.402 811.674C456.177 820.347 476.031 822.887 482.163 819.643C488.295 816.4 484.198 807.249 484.198 807.249" fill="#FFC9B5"/>
<path d="M454.703 565.538C451.462 572.242 449.702 668.198 450.931 692.875C452.161 717.552 465.152 804.458 465.152 804.458C465.152 804.458 472.555 814.655 484.988 813.967C497.42 813.278 495.017 804.101 495.017 804.101C495.017 804.101 510.914 810.831 517.871 796.045C520.441 790.564 532.538 637.606 532.538 620.144C532.118 599.331 525.845 578.966 514.323 561" fill="#C13D3D"/>
<path d="M495.538 804C495.538 804 502.659 610.146 501.762 604.464C500.866 598.781 503.714 646.97 503.529 660.145C503.398 669.549 497.595 790.8 495.538 804Z" fill="#6D5854"/>
<path d="M455.296 566.204C455.296 566.204 444.299 497.68 459.929 484.779C475.559 471.879 518.932 462.667 526.915 469.105C534.897 475.543 522.868 548.24 514.773 561.726C506.679 575.212 461.073 571.471 455.296 566.204Z" fill="#8CCC00"/>
<path d="M475.089 433.863C474.723 434.829 466.944 461.614 480.501 465.378C494.057 469.143 496.791 454.619 498.144 453.805C499.497 452.991 503.781 451.668 503.527 448.717C503.274 445.767 498.144 445.716 498.144 445.716C498.144 445.716 496.171 438.085 490.055 434.753C483.939 431.421 475.089 433.863 475.089 433.863Z" fill="#FFC9B5"/>
<path d="M487.411 441.754C487.411 441.754 476.182 441.93 471.27 437.568C470.34 436.721 469.618 435.708 469.15 434.595C468.682 433.483 468.479 432.294 468.553 431.107C468.627 429.919 468.977 428.758 469.58 427.7C470.183 426.641 471.027 425.707 472.056 424.959C472.056 424.959 467.592 416.939 475.986 414.872C475.986 414.872 476.772 407.508 493.531 410.887C510.29 414.266 525.617 424.908 525.841 438.627C526.066 452.345 527.189 453.984 532.635 457.162C538.081 460.339 536.565 472.292 522.052 472.872C507.539 473.452 487.748 472.217 485.895 465.786C484.043 459.356 495.047 458.65 496.422 452.219C496.757 449.76 495.998 447.282 494.311 445.323C492.624 443.363 490.144 442.081 487.411 441.754Z" fill="#2C1D1A"/>
<path d="M392.881 521.068C392.881 521.068 378.121 521.781 375.203 520.748C370.559 519.337 365.792 518.259 360.948 517.526C360.263 517.388 359.57 517.281 358.872 517.206C357.441 517.058 354.606 516.542 353.793 518.042C352.025 521.215 360.106 522.396 362.997 522.765C362.997 522.765 362.997 522.765 362.997 522.913C361.902 523.823 345.824 526.037 343.354 526.381C340.885 526.725 339.538 533.342 339.538 533.342C342.709 538.606 352.558 538.95 358.984 539C365.41 539.049 374.08 534.08 376.185 534.08C378.289 534.08 394.284 536.786 396.921 535.605C399.559 534.424 392.881 521.068 392.881 521.068Z" fill="#FFC9B5"/>
<path d="M460.78 485.253C453.916 487.795 449.024 492.677 443.132 496.466C438.88 499.212 434.434 502.085 430.042 504.78C425.842 507.729 421.15 510.038 416.146 511.62C408.226 513.603 400.055 514.163 391.995 515.485C390.031 515.592 388.123 516.133 386.437 517.061C382.907 519.833 378.099 532.317 390.856 541.369C401.313 542.165 411.823 542.208 422.288 541.496C436.184 540.225 467.311 521.765 475.093 513.273C480.318 507.501 483.431 498.678 480.262 491.406C479.139 489.064 477.251 487.099 474.857 485.778C472.464 484.458 469.682 483.848 466.894 484.032C464.795 484.114 462.726 484.526 460.78 485.253Z" fill="#8CCC00"/>
<path d="M537.866 241.921C541.937 244.652 546.428 246.771 551.228 248.223C551.588 247.818 567.525 234.805 541.719 216.262C515.913 197.72 493.88 238.806 493.88 238.806" fill="#56403D"/>
<path d="M33.58 153.98L295.832 1.17197C297.241 0.393922 298.841 -0.0105744 300.467 0.000210142C302.093 0.0109947 303.687 0.43668 305.084 1.23333C306.481 2.02998 307.63 3.16868 308.412 4.53177C309.194 5.89487 309.582 7.43294 309.534 8.98705V96.306C309.547 97.8813 309.134 99.4331 308.333 100.81C307.533 102.187 306.373 103.343 304.967 104.165L42.6233 253.829C41.2219 254.603 39.6305 255.007 38.0122 255C36.3938 254.993 34.8065 254.575 33.4126 253.789C32.0188 253.003 30.8684 251.877 30.0792 250.526C29.2901 249.175 28.8906 247.648 28.9215 246.102L27.5513 164.895C27.448 162.727 27.9524 160.572 29.0123 158.654C30.0723 156.735 31.6492 155.121 33.58 153.98Z" fill="#E2AC00"/>
<path d="M126.835 145.548L232.424 85.6832C233.453 84.9849 234.168 83.9502 234.429 82.7816C234.69 81.6131 234.479 80.3948 233.836 79.3653C233.194 78.3358 232.166 77.5691 230.955 77.2153C229.743 76.8615 228.435 76.946 227.286 77.4524L121.652 137.317C120.624 138.015 119.909 139.05 119.647 140.218C119.386 141.387 119.597 142.605 120.24 143.635C120.883 144.664 121.91 145.431 123.122 145.785C124.333 146.139 125.641 146.054 126.79 145.548H126.835Z" fill="#F2F2F2"/>
<path d="M130.756 170.536L277.407 85.9094C278.444 85.1929 279.165 84.1312 279.428 82.9322C279.691 81.7333 279.478 80.4833 278.831 79.4269C278.183 78.3706 277.147 77.5839 275.927 77.2209C274.706 76.8579 273.387 76.9446 272.23 77.4641L125.669 162.091C124.632 162.807 123.911 163.869 123.648 165.068C123.385 166.267 123.598 167.517 124.245 168.573C124.893 169.629 125.929 170.416 127.15 170.779C128.371 171.142 129.689 171.055 130.846 170.536H130.756Z" fill="#F2F2F2"/>
<path d="M82.58 180.98L344.832 28.172C346.241 27.3939 347.841 26.9894 349.467 27.0002C351.093 27.011 352.687 27.4367 354.084 28.2333C355.481 29.03 356.63 30.1687 357.412 31.5318C358.194 32.8949 358.582 34.4329 358.534 35.9871V123.306C358.547 124.881 358.134 126.433 357.333 127.81C356.533 129.187 355.373 130.343 353.967 131.165L91.6232 280.829C90.2218 281.603 88.6305 282.007 87.0122 282C85.3938 281.993 83.8065 281.575 82.4126 280.789C81.0188 280.003 79.8684 278.876 79.0792 277.526C78.2901 276.175 77.8905 274.648 77.9214 273.102L76.5513 191.895C76.448 189.727 76.9524 187.572 78.0123 185.654C79.0723 183.735 80.6492 182.121 82.58 180.98Z" fill="#F47B56"/>
<path d="M147.019 225.202C137.313 237.236 120.258 240.62 108.951 232.765C97.6433 224.909 96.3241 208.78 106.077 196.788C115.829 184.796 132.837 181.369 144.145 189.225C155.452 197.08 156.724 213.376 147.019 225.202Z" fill="white"/>
<path d="M175.642 173.799L282.4 112.842C283.441 112.131 284.164 111.077 284.428 109.887C284.692 108.697 284.478 107.457 283.828 106.408C283.179 105.36 282.14 104.579 280.915 104.219C279.69 103.859 278.367 103.945 277.206 104.461L170.676 165.158C169.636 165.869 168.913 166.923 168.648 168.113C168.384 169.303 168.598 170.543 169.248 171.592C169.898 172.64 170.937 173.421 172.161 173.781C173.386 174.141 174.709 174.055 175.87 173.539L175.642 173.799Z" fill="#F2F2F2"/>
<path d="M181.795 199.526L327.422 113.099C328.452 112.367 329.167 111.283 329.429 110.058C329.69 108.834 329.479 107.557 328.836 106.479C328.193 105.4 327.164 104.596 325.952 104.226C324.739 103.855 323.43 103.943 322.281 104.474L176.654 190.901C175.624 191.633 174.909 192.717 174.647 193.942C174.386 195.166 174.597 196.443 175.241 197.521C175.884 198.6 176.912 199.404 178.124 199.774C179.337 200.145 180.646 200.057 181.795 199.526Z" fill="#F2F2F2"/>
<path d="M129.58 210.98L391.832 58.172C393.241 57.394 394.84 56.9894 396.467 57.0002C398.093 57.011 399.687 57.4367 401.084 58.2333C402.481 59.03 403.63 60.1687 404.412 61.5318C405.194 62.8949 405.582 64.4329 405.534 65.9871V153.306C405.547 154.881 405.134 156.433 404.333 157.81C403.533 159.187 402.373 160.343 400.967 161.165L138.623 310.829C137.222 311.603 135.631 312.007 134.012 312C132.394 311.993 130.806 311.575 129.413 310.789C128.019 310.002 126.868 308.876 126.079 307.526C125.29 306.175 124.891 304.648 124.921 303.101L123.551 221.895C123.448 219.727 123.952 217.572 125.012 215.653C126.072 213.735 127.649 212.121 129.58 210.98Z" fill="#CFD2A8"/>
<path d="M129.58 210.98L391.832 58.172C393.241 57.394 394.84 56.9894 396.467 57.0002C398.093 57.011 399.687 57.4367 401.084 58.2333C402.481 59.03 403.63 60.1687 404.412 61.5318C405.194 62.8949 405.582 64.4329 405.534 65.9871V153.306C405.547 154.881 405.134 156.433 404.333 157.81C403.533 159.187 402.373 160.343 400.967 161.165L138.623 310.829C137.222 311.603 135.631 312.007 134.012 312C132.394 311.993 130.806 311.575 129.413 310.789C128.019 310.002 126.868 308.876 126.079 307.526C125.29 306.175 124.891 304.648 124.921 303.101L123.551 221.895C123.448 219.727 123.952 217.572 125.012 215.653C126.072 213.735 127.649 212.121 129.58 210.98Z" fill="#CFD2A8"/>
<path d="M192.26 254.975C182.914 267.24 166.491 270.69 155.602 262.683C144.714 254.677 143.443 238.237 152.835 226.015C162.226 213.792 178.604 210.299 189.493 218.306C200.381 226.313 201.606 242.709 192.26 254.975Z" fill="white"/>
<path d="M224.73 202.535L329.441 140.935C330.462 140.216 331.171 139.152 331.43 137.949C331.689 136.747 331.479 135.493 330.842 134.434C330.205 133.374 329.186 132.586 327.984 132.222C326.783 131.857 325.486 131.944 324.346 132.465L219.635 194.065C218.614 194.784 217.905 195.848 217.646 197.051C217.387 198.253 217.597 199.507 218.234 200.566C218.871 201.626 219.891 202.414 221.092 202.778C222.293 203.143 223.59 203.056 224.73 202.535Z" fill="#F2F2F2"/>
<path d="M228.795 229.526L374.422 143.099C375.452 142.367 376.167 141.283 376.429 140.058C376.69 138.834 376.479 137.557 375.836 136.479C375.193 135.4 374.164 134.596 372.952 134.226C371.739 133.855 370.43 133.943 369.281 134.474L223.654 220.901C222.624 221.633 221.909 222.717 221.647 223.942C221.386 225.166 221.597 226.443 222.241 227.521C222.884 228.6 223.912 229.404 225.124 229.774C226.337 230.145 227.646 230.057 228.795 229.526Z" fill="#F2F2F2"/>
<path d="M899.475 144.025C894.582 144.08 890.588 148.509 890.587 154.016C890.587 159.524 894.531 164.031 899.461 164.157C904.354 164.102 908.348 159.673 908.348 154.166C908.349 148.658 904.405 144.151 899.475 144.025ZM867.797 144.076C862.904 144.131 858.91 148.56 858.91 154.068C858.909 159.575 862.853 164.082 867.783 164.208C872.676 164.153 876.67 159.724 876.671 154.217C876.814 148.49 872.69 144.02 867.797 144.076ZM941.822 68.2882L825.22 68.1252C824.859 68.1996 824.64 68.0546 824.278 68.1289C823.916 68.2033 823.735 68.2405 823.336 68.1327C822.974 68.207 822.793 68.2442 822.431 68.3186C822.069 68.3929 821.888 68.4301 821.526 68.5045C821.164 68.5788 820.983 68.616 820.621 68.6904C820.259 68.7647 820.078 68.8019 819.716 68.8763C819.354 68.9507 819.173 68.9878 818.849 69.2444C818.487 69.3187 818.343 69.5381 817.981 69.6125C817.619 69.6869 817.476 69.9063 817.114 69.9806C816.752 70.055 816.608 70.2744 816.246 70.3488C815.884 70.4231 815.741 70.6425 815.416 70.8991C815.273 71.1185 814.911 71.1929 814.767 71.4122C814.624 71.6316 814.262 71.706 814.118 71.9254C813.975 72.1448 813.613 72.2192 813.469 72.4386C813.325 72.6579 813.001 72.9145 812.82 72.9517C812.676 73.1711 812.352 73.4277 812.208 73.6471C812.065 73.8665 811.74 74.1231 811.597 74.3425C811.453 74.5619 811.129 74.8184 810.985 75.0378C810.842 75.2572 810.698 75.4766 810.373 75.7332C810.23 75.9526 810.086 76.172 809.943 76.3914C809.799 76.6108 809.656 76.8302 809.55 77.2318C809.406 77.4512 809.263 77.6706 809.156 78.0722C809.013 78.2916 808.907 78.6932 808.763 78.9126C808.62 79.132 808.514 79.5336 808.37 79.753C808.226 79.9724 808.12 80.374 807.977 80.5934C807.833 80.8128 807.727 81.2144 807.765 81.3966C807.621 81.616 807.515 82.0176 807.552 82.1998C807.59 82.382 807.484 82.7836 807.34 83.003C807.234 83.4046 807.271 83.5868 807.165 83.9885C807.059 84.3901 807.097 84.5723 806.991 84.9739C807.065 85.3383 806.922 85.5577 806.997 85.9221C807.072 86.2866 806.928 86.506 807.003 86.8704L807.003 208.979C807.078 209.344 806.934 209.563 807.009 209.928C807.084 210.292 807.121 210.474 807.015 210.876C807.09 211.24 807.127 211.422 807.202 211.787C807.277 212.151 807.315 212.334 807.39 212.698C807.464 213.062 807.502 213.245 807.577 213.609C807.652 213.973 807.689 214.156 807.764 214.52C807.839 214.885 807.876 215.067 808.132 215.394C808.207 215.758 808.244 215.941 808.5 216.268C808.575 216.632 808.793 216.777 808.868 217.142C808.943 217.506 809.162 217.651 809.237 218.016C809.311 218.38 809.53 218.525 809.605 218.89C809.86 219.217 809.898 219.399 810.154 219.726C810.41 220.053 810.447 220.236 810.666 220.381C810.884 220.526 810.959 220.89 811.177 221.035C811.396 221.18 811.47 221.545 811.689 221.69C811.907 221.835 812.163 222.162 812.201 222.344C812.419 222.489 812.675 222.816 812.893 222.962C813.112 223.107 813.368 223.434 813.586 223.579C813.804 223.724 814.06 224.051 814.279 224.196C814.497 224.341 814.715 224.486 814.971 224.813C815.19 224.958 815.408 225.104 815.627 225.249C815.845 225.394 816.063 225.539 816.463 225.646C816.681 225.791 816.9 225.937 817.299 226.044C817.518 226.189 817.917 226.297 818.135 226.442C818.354 226.587 818.753 226.695 818.972 226.84C819.19 226.985 819.589 227.093 819.77 227.056C819.989 227.201 820.388 227.309 820.569 227.272C820.788 227.417 821.15 227.342 821.368 227.487C821.586 227.632 821.948 227.558 822.167 227.703C822.385 227.848 822.747 227.774 822.966 227.919C823.327 227.844 823.546 227.989 823.908 227.915C824.27 227.841 824.488 227.986 824.85 227.911L923.547 228.144L918.98 211.422L930.069 222.247L940.646 232.418L959.424 249.449L959.345 87.4768C959.601 76.7895 951.645 68.3591 941.822 68.2882ZM908.159 186.298L902.493 178.917C913.889 175.626 918.227 168.278 918.227 168.278C914.582 170.736 911.33 172.353 908.185 173.569C903.848 175.41 899.579 176.667 895.597 177.485C887.235 179.013 879.621 178.678 873.125 177.354C868.188 176.279 863.939 174.873 860.413 173.319C858.341 172.415 856.269 171.512 854.122 170.243C853.904 170.098 853.685 169.953 853.286 169.846C853.067 169.701 853.067 169.701 852.886 169.738L850.484 168.142C850.484 168.142 854.59 175.275 865.704 178.878L859.881 186.342C840.704 185.724 833.259 172.441 833.259 172.441C833.323 143.372 845.818 119.726 845.818 119.726C858.331 109.938 870.114 110.366 870.114 110.366L870.919 111.53C855.254 116.078 848.052 123.255 848.052 123.255C848.052 123.255 849.893 122.117 853.182 120.681C862.506 116.487 869.82 115.364 872.934 114.914C873.477 114.803 873.839 114.728 874.42 114.799C880.286 113.974 886.121 113.914 891.925 114.621C894.246 114.904 896.424 115.406 898.783 115.871C900.961 116.373 903.358 117.02 905.392 117.741C907.427 118.463 909.679 119.329 911.932 120.196C914.004 121.1 916.113 122.185 918.223 123.271C918.223 123.271 911.327 116.332 896.618 111.758L897.841 110.367C897.841 110.367 909.692 110.211 922.261 119.973C934.648 129.772 934.847 143.594 934.783 172.663C934.783 172.663 927.474 185.748 908.159 186.298Z" fill="#8C9EFF"/>
</g>
<defs>
<filter id="filter0_d" x="0.538086" y="0" width="1010" height="928" filterUnits="userSpaceOnUse" color-interpolation-filters="sRGB">
<feFlood flood-opacity="0" result="BackgroundImageFix"/>
<feColorMatrix in="SourceAlpha" type="matrix" values="0 0 0 0 0 0 0 0 0 0 0 0 0 0 0 0 0 0 127 0" result="hardAlpha"/>
<feOffset dx="5" dy="5"/>
<feGaussianBlur stdDeviation="2.5"/>
<feColorMatrix type="matrix" values="0 0 0 0 0 0 0 0 0 0 0 0 0 0 0 0 0 0 0.25 0"/>
<feBlend mode="normal" in2="BackgroundImageFix" result="effect1_dropShadow"/>
<feBlend mode="normal" in="SourceGraphic" in2="effect1_dropShadow" result="shape"/>
</filter>
</defs>
</svg>
